<?xml version="1.0" encoding="UTF-8" standalone="no"?>
<!-- Created with Inkscape (http://www.inkscape.org/) -->
<svg
   xmlns:svg="http://www.w3.org/2000/svg"
   xmlns="http://www.w3.org/2000/svg"
   version="1.0"
   width="50"
   height="100"
   id="svg3911">
  <defs
     id="defs3913" />
  <g
     transform="translate(-157.63311,-243.44921)"
     id="layer1">
    <path
       d="M 193.07388,264.21601 C 193.07388,270.63991 188.29468,275.85361 182.40608,275.85361 C 176.51738,275.85361 171.73818,270.63991 171.73818,264.21601 C 171.73818,257.79201 176.51738,252.57841 182.40608,252.57841 C 188.29468,252.57841 193.07388,257.79201 193.07388,264.21601 z M 194.04368,298.15901 L 187.57828,291.04721 L 181.75948,281.99571 L 175.94068,292.66351 L 176.91048,301.71501 M 182.40608,276.17691 L 181.75948,302.36151 L 190.16448,316.26201 L 194.36688,331.13231 M 180.78968,302.68481 L 178.85008,317.87831 L 171.41498,330.16251 M 189.45698,253.46961 C 180.87068,272.15741 176.82998,277.96571 176.82998,277.96571 M 175.81988,276.95561 C 175.81988,276.95561 177.33508,266.60151 185.92138,252.45941 C 172.78938,261.55081 174.80968,282.00631 174.80968,282.00631 M 181.88078,251.44921 C 168.24378,263.57111 172.78938,279.48101 172.78938,279.48101 M 185.92138,253.97461 C 180.36558,277.20811 176.32488,283.01651 176.32488,283.01651 M 181.88078,252.45941 C 169.25388,263.06601 170.76908,276.95561 170.76908,276.95561 M 184.40618,251.95431 C 167.73868,262.56091 175.81988,283.01651 175.81988,283.01651 M 178.55448,251.80631 C 168.95808,257.86731 170.76908,276.45051 170.76908,276.45051 M 182.89098,254.47971 C 176.83008,273.16751 175.81988,281.50131 175.81988,281.50131 M 187.94168,253.97461 C 184.61178,253.41961 180.71518,278.19241 178.85028,280.99621 M 186.17398,252.71191 C 180.36558,257.25761 178.85038,282.51141 178.85038,282.51141 M 182.89098,252.20691 C 182.89098,252.20691 176.32498,264.58121 175.81988,272.91501 M 180.36558,254.98481 C 172.28438,266.60151 174.05208,277.46071 174.05208,277.46071 M 185.16378,254.22721 C 177.33508,262.05581 176.57748,280.23861 176.57748,280.23861 M 180.87068,253.21701 C 173.04198,258.26781 170.01148,262.30841 172.78938,276.70311"
       id="path2390"
       style="fill:none;fill-opacity:0.84659095;stroke:#000000;stroke-width:1;stroke-linejoin:round;stroke-miterlimit:4;stroke-dasharray:none;stroke-opacity:1" />
  </g>
</svg>
