<?xml version="1.0" encoding="UTF-8" standalone="no"?>
<!-- Created with Inkscape (http://www.inkscape.org/) -->
<svg
   xmlns:svg="http://www.w3.org/2000/svg"
   xmlns="http://www.w3.org/2000/svg"
   version="1.0"
   width="35.188553"
   height="46.581497"
   id="svg2463">
  <defs
     id="defs2465" />
  <g
     transform="translate(-9.1037024,-0.9609119)"
     id="layer1">
    <path
       d="M 19.929647,14.026006 C 6.9159172,12.472477 13.132664,-8.2476327 24.024687,7.3446256 M 33.214285,11.875 C 33.214285,13.402857 31.974285,14.642857 30.446428,14.642857 C 28.918571,14.642857 27.678571,13.402857 27.678571,11.875 C 27.678571,10.347143 28.918571,9.1071429 30.446428,9.1071429 C 31.974285,9.1071429 33.214285,10.347143 33.214285,11.875 z"
       id="path2475"
       style="fill:none;fill-rule:evenodd;stroke:#000000;stroke-width:1.20695925px;stroke-linecap:butt;stroke-linejoin:miter;stroke-opacity:1" />
    <path
       d="M 21.438346,5.4048695 C 32.606378,-4.8543466 47.042248,20.847461 42.991189,24.5869 C 21.77339,24.957645 17.700117,17.406577 16.050135,13.379421"
       id="path2473"
       style="fill:none;fill-rule:evenodd;stroke:#000000;stroke-width:1.20695925px;stroke-linecap:butt;stroke-linejoin:miter;stroke-opacity:1" />
    <path
       d="M 16.071429,15.535714 C 5.6263118,21.25 9.3870111,36.607143 16.428572,41.250001"
       id="path2483"
       style="fill:none;fill-rule:evenodd;stroke:#000000;stroke-width:1px;stroke-linecap:butt;stroke-linejoin:miter;stroke-opacity:1" />
    <path
       d="M 20,36.964285 C 20,36.964285 15,44.464285 16.071429,45.535714 C 17.142857,46.607142 28.392857,47.5 29.642857,46.785714 C 30.892857,46.071428 23.49756,43.207381 24.464286,42.499999 C 42.551638,29.264952 19.854643,24.891137 16.25,31.607142"
       id="path2485"
       style="fill:none;fill-rule:evenodd;stroke:#000000;stroke-width:1px;stroke-linecap:butt;stroke-linejoin:miter;stroke-opacity:1" />
    <path
       d="M 33.214286,24.285714 C 41.820505,33.629727 32.877123,41.103686 25,42.678571"
       id="path2487"
       style="fill:none;fill-rule:evenodd;stroke:#000000;stroke-width:1px;stroke-linecap:butt;stroke-linejoin:miter;stroke-opacity:1" />
    <path
       d="M 31.071429,40.892857 C 30.892858,41.071429 36.680325,42.915506 36.428572,43.75 C 35.979699,45.237896 26.607143,43.214286 26.607143,43.214286"
       id="path2489"
       style="fill:none;fill-rule:evenodd;stroke:#000000;stroke-width:1px;stroke-linecap:butt;stroke-linejoin:miter;stroke-opacity:1" />
  </g>
</svg>
