<?xml version="1.0" encoding="UTF-8" standalone="no"?>
<!-- Created with Inkscape (http://www.inkscape.org/) -->
<svg
   xmlns:svg="http://www.w3.org/2000/svg"
   xmlns="http://www.w3.org/2000/svg"
   version="1.0"
   width="35.188553"
   height="46.581497"
   id="svg2463">
  <defs
     id="defs2465" />
  <g
     transform="translate(-9.1037024,-0.9609119)"
     id="layer1">
    <path
       d="M 19.215361,13.668863 C 6.2016315,12.115334 12.418378,-8.6047756 23.310401,6.9874827 M 32.499999,11.517857 C 32.499999,13.045714 31.259999,14.285714 29.732142,14.285714 C 28.204285,14.285714 26.964285,13.045714 26.964285,11.517857 C 26.964285,9.9900001 28.204285,8.75 29.732142,8.75 C 31.259999,8.75 32.499999,9.9900001 32.499999,11.517857 z"
       id="path2475"
       style="fill:none;fill-rule:evenodd;stroke:#000000;stroke-width:1.20695925px;stroke-linecap:butt;stroke-linejoin:miter;stroke-opacity:1" />
    <path
       d="M 21.438346,5.4048695 C 32.606378,-4.8543466 47.042248,20.847461 42.991189,24.5869 C 21.77339,24.957645 17.700117,17.406577 16.050135,13.379421"
       id="path2473"
       style="fill:none;fill-rule:evenodd;stroke:#000000;stroke-width:1.20695925px;stroke-linecap:butt;stroke-linejoin:miter;stroke-opacity:1" />
    <path
       d="M 16.071429,15.535714 C 5.6263118,21.25 10.101297,38.928572 19.107143,41.964287"
       id="path2483"
       style="fill:none;fill-rule:evenodd;stroke:#000000;stroke-width:1px;stroke-linecap:butt;stroke-linejoin:miter;stroke-opacity:1" />
    <path
       d="M 20,36.964285 C 20,36.964285 18.928571,44.821428 20,45.892857 C 21.071428,46.964285 31.607143,46.964286 32.857143,46.25 C 34.107143,45.535714 26.943886,43.993984 27.321429,42.857142 C 31.301638,30.872095 19.854643,24.891137 16.25,31.607142"
       id="path2485"
       style="fill:none;fill-rule:evenodd;stroke:#000000;stroke-width:1px;stroke-linecap:butt;stroke-linejoin:miter;stroke-opacity:1" />
    <path
       d="M 33.214286,24.285714 C 41.820505,33.629727 32.341409,40.210829 27.678571,41.607142"
       id="path2487"
       style="fill:none;fill-rule:evenodd;stroke:#000000;stroke-width:1px;stroke-linecap:butt;stroke-linejoin:miter;stroke-opacity:1" />
    <path
       d="M 7.1428572,39.974354 C 6.6071429,44.081497 6.4285714,43.367211 7.5,44.260069 C 8.5714286,45.152926 10.714286,44.795783 10.714286,44.795783"
       transform="translate(9.1037024,0.9609119)"
       id="path2531"
       style="fill:none;fill-rule:evenodd;stroke:#000000;stroke-width:1px;stroke-linecap:butt;stroke-linejoin:miter;stroke-opacity:1" />
  </g>
</svg>
