<?xml version="1.0" encoding="UTF-8" standalone="no"?>
<!-- Created with Inkscape (http://www.inkscape.org/) -->
<svg
   xmlns:svg="http://www.w3.org/2000/svg"
   xmlns="http://www.w3.org/2000/svg"
   version="1.0"
   width="1300"
   height="700"
   id="svg2">
  <defs
     id="defs4" />
  <path
     d="M 713.19005,382.99178 C 697.70132,399.11652 677.99647,416.26504 677.99647,416.26504 C 677.99647,416.26504 671.9924,406.38952 673.4357,402.43297 C 674.87902,398.47641 689.47295,379.12589 691.65824,377.05847 C 698.83767,370.26633 716.82656,378.12479 713.19005,382.99178 z M 676.86603,415.85265 C 663.27195,439.07294 669.90177,440.21057 667.47368,452.13358 C 665.04559,464.05661 647.24978,474.21625 644.52317,476.4238 C 641.79657,478.63134 606.76302,506.19902 600.5384,510.97316 C 594.31375,515.7473 583.713,527.25075 578.25978,531.66584 C 572.80657,536.08095 532.54753,546.3719 529.25569,548.37326 C 525.96387,550.37461 503.43292,566.49217 498.29256,566.53833 C 493.15222,566.58449 487.53897,576.70517 481.72672,580.34885 C 475.91447,583.99254 466.97041,583.93201 455.34589,591.21939 C 443.7214,598.50675 435.84725,607.80266 429.4626,618.28237 C 423.07794,628.76207 418.8403,650.91243 414.92273,661.65166 M 714.37383,381.50229 C 709.30119,365.56219 693.94068,356.75662 677.1225,365.992 C 660.30429,375.2274 647.81605,372.5931 637.42148,383.53135 C 627.02692,394.46958 614.0586,408.95201 613.48619,415.78801 C 612.9138,422.62403 596.15612,422.91536 595.22468,428.97997 C 594.29324,435.04457 577.48223,437.23775 574.54225,447.05273 C 571.60227,456.86769 560.24447,454.64579 556.75364,450.17017 C 553.26281,445.69455 546.32728,441.88365 547.6711,434.68861 C 549.0149,427.49356 540.61145,401.37227 540.61145,401.37227 M 535.70602,372.6844 L 539.36406,364.41223 C 539.36406,364.41223 560.39117,361.1953 568.83771,345.06337 C 574.13091,346.35384 595.52422,336.86611 605.09404,328.18875 C 614.66384,319.51142 619.96422,313.75968 619.96422,313.75968 C 619.96422,313.75968 635.17189,321.22862 642.93216,322.77863 C 650.69243,324.32862 669.19912,322.75401 669.19912,322.75401 C 669.19912,322.75401 677.82312,334.22567 689.7923,341.79411 C 701.76148,349.36257 734.45207,351.04079 739.0272,350.78844 C 760.06148,340.52929 750.81891,330.75331 750.81891,330.75331 C 750.81891,330.75331 757.55542,328.08722 750.25369,330.54712 C 742.95196,333.00702 720.91545,317.92346 718.55507,313.86023 C 716.19466,309.79697 709.73204,295.91158 702.49084,289.42741 C 695.24962,282.94326 631.07378,256.97071 625.00917,256.03926 C 618.94457,255.10782 597.35222,258.11858 586.29296,265.61214 C 575.23367,273.10569 517.33886,287.85072 509.72425,294.67956 C 502.10965,301.50839 459.6964,307.17087 452.08179,313.9997 C 444.46719,320.82853 439.31966,327.91689 437.823,333.77531 C 436.32633,339.63373 427.52076,354.99423 427.52076,354.99423 M 715.52994,306.35229 C 755.86694,320.42645 751.23128,329.62286 751.23128,329.62286 M 610.20669,254.48208 C 579.22613,239.33801 568.97723,258.65508 560.33886,261.26782 C 551.70051,263.88056 516.01659,273.91916 508.30248,277.5095 C 500.58836,281.09985 464.95061,296.27879 460.58168,295.96592 C 456.21275,295.65305 430.61051,299.12234 423.92016,306.92878 C 417.22981,314.73521 414.54937,322.08309 412.48748,327.73533 C 410.42559,333.38755 392.50875,361.43532 392.50875,361.43532 M 570.26771,253.36189 C 529.02081,224.22573 504.77266,260.85134 495.46238,267.06161 C 486.1521,273.27186 467.07302,281.6825 456.42612,288.04561 C 445.7792,294.40872 432.09999,300.30613 419.75742,306.05067 C 407.41483,311.79522 396.56174,318.72356 393.62176,328.53854 C 390.68177,338.35351 378.16481,363.88803 378.16481,363.88803 M 509.40831,251.65493 C 472.72216,236.35082 475.4416,241.18548 464.94754,248.88522 C 454.45347,256.58499 429.6083,273.77965 423.84221,282.56367 C 418.0761,291.34771 403.35877,307.11342 396.15655,312.81181 C 388.95431,318.51019 376.08549,336.23109 372.16792,346.97033 C 368.25034,357.70956 342.70452,406.67056 342.70452,406.67056 M 324.46762,446.12947 C 303.2374,497.30521 288.20001,524.48205 286.44382,532.80755 C 284.68763,541.13304 281.26756,568.06472 277.34995,578.80395 C 273.43245,589.54318 263.27585,619.14097 263.27585,619.14097 M 726.93696,361.10812 C 741.72508,376.74971 728.21308,369.89934 725.95218,369.07458 C 723.69129,368.24983 720.81903,362.07854 720.81903,362.07854 M 734.07149,371.39598 C 739.54215,400.29006 706.7059,390.23298 706.7059,390.23298 M 653.95553,350.49608 C 648.25715,343.29384 647.33288,342.31626 647.33288,342.31626 C 647.33288,342.31626 651.36283,339.88798 647.33288,342.31626 C 630.93104,352.19933 608.74491,326.95881 608.74491,326.95881 M 628.05786,391.64348 C 621.1757,385.93072 621.1757,385.93072 621.1757,385.93072 M 610.92372,357.85423 C 610.74838,348.52288 611.90178,344.74853 611.86235,344.74742 C 595.76259,350.82615 590.0673,339.31901 590.12435,339.37934 C 590.55373,376.78614 562.49936,355.7616 562.45305,355.54307 M 586.92484,351.6614 C 581.84502,342.7635 583.80022,340.91498 583.80022,340.91498 M 640.80257,344.41711 C 644.95812,352.33742 642.90343,350.94744 642.90343,350.94744 M 752.20889,328.69861 C 752.20889,328.69861 759.40393,330.04241 797.95295,333.2173 C 752.64587,353.83512 744.57274,356.65405 744.57274,356.65405 C 706.47509,364.53125 701.69377,365.34882 701.69377,365.34882 M 751.30925,353.98796 C 762.78091,345.36395 747.66556,348.1757 747.66556,348.1757 C 764.68994,338.37509 752.30121,338.97929 752.30121,338.97929 M 637.47483,381.62949 L 303.8529,448.21598 M 692.20603,343.9555 L 299.87172,420.5057 M 665.57286,350.25091 L 668.34564,353.1837 L 669.20937,363.10537 L 666.73511,369.88804 M 667.87273,363.25822 L 303.70723,439.83714 M 796.41011,333.93538 C 785.15184,334.95196 785.15184,334.95196 785.15184,334.95196 M 792.54332,332.68491 C 791.75857,333.51941 787.61712,336.97204 787.61712,336.97204 M 795.85824,333.25372 L 785.71885,333.39759 M 792.45177,334.25261 L 786.15251,336.59786 M 304.06626,440.60854 L 300.40822,448.8807 L 295.52739,446.45978 L 292.45612,433.81151 L 292.87568,425.63885 L 299.10031,420.86473 L 302.63731,430.48069 L 304.06626,440.60854 z"
     id="path2435"
     style="fill:none;fill-opacity:1;fill-rule:evenodd;stroke:#000000;stroke-width:1;stroke-linecap:butt;stroke-linejoin:miter;stroke-miterlimit:4;stroke-dasharray:none;stroke-opacity:1" />
  <path
     d="M 528.40851,24.945984 C 539.38547,21.716142 541.18898,35.763009 539.88437,43.527249 C 538.33181,63.848486 540.57919,84.348275 538.19606,104.66237 C 537.2813,114.40008 515.76588,122.62374 516.31973,110.2074 C 524.50525,104.72834 532.7767,97.373994 528.38801,86.623785 C 528.28169,66.064548 528.51098,45.505218 528.40851,24.945984 z M 528.40851,-0.87635446 C 540.72699,-8.8804539 543.20812,19.543834 530.05728,12.602595 C 525.36258,9.7318967 529.52814,3.355423 528.40851,-0.87635446 z M 554.23087,24.945984 C 563.7491,21.515349 569.98078,31.816936 571.9679,39.662936 C 575.84001,53.634682 581.6719,66.962396 586.50879,80.617989 C 593.41843,62.060653 600.32807,43.503319 607.23771,24.945984 C 620.54473,20.730366 616.95495,39.323094 611.28566,44.948769 C 605.49443,60.392045 599.70319,75.835313 593.91196,91.278587 C 582.27977,96.055997 572.67748,83.149126 571.60551,72.733453 C 566.91288,56.449451 559.68642,40.987059 554.23087,24.945984 z M 677.47922,57.342358 C 679.89735,44.677756 668.29885,29.02653 654.59003,32.843131 C 641.88619,36.717498 638.58712,52.013241 640.37391,63.623721 C 641.19015,75.605754 654.80872,87.124361 666.46759,80.547661 C 674.66082,76.218551 678.2437,66.175607 677.47921,57.342356 M 688.37671,83.046242 C 690.25726,97.948284 680.18297,115.97171 663.70325,115.85329 C 654.90211,116.96484 639.56597,118.79834 637.3535,107.29331 C 643.91213,100.64326 654.04707,110.76225 662.1173,107.40515 C 671.59348,105.06888 680.48973,94.42183 676.50035,84.545499 C 669.98539,84.594438 664.35219,94.081347 655.83414,91.39637 C 642.09931,91.075525 630.44415,79.197458 629.58443,65.616775 C 626.44491,49.662754 632.51093,29.824325 649.09168,24.0163 C 659.04109,21.004149 671.01019,25.530637 677.0094,33.807486 C 673.39079,20.129672 697.16272,27.028938 688.37344,37.666594 C 688.09365,52.792425 688.55264,67.919908 688.37671,83.046242 z M 753.11023,26.900427 C 756.13367,40.775266 738.19104,32.743664 731.4767,31.626126 C 722.19954,31.163453 712.03495,44.084854 722.83405,49.839129 C 733.07328,55.267966 748.52271,52.306613 754.6763,64.210739 C 760.44196,74.988319 753.18928,89.884601 740.91721,91.51852 C 729.36858,94.8828 717.18051,92.238929 705.9667,88.850349 C 701.72007,77.995128 716.58027,78.090212 721.73556,83.326615 C 730.49631,86.200024 747.34124,82.819413 743.79252,70.532388 C 738.08163,59.092638 723.52772,63.598164 714.42534,57.964491 C 704.44962,51.154756 702.94811,33.606025 714.65177,27.668597 C 726.20694,20.411305 740.85813,23.19581 753.11023,26.900427 z"
     id="text2531"
     style="font-size:144px;font-style:normal;font-weight:normal;fill:none;fill-opacity:1;stroke:#000000;stroke-width:1;stroke-linecap:butt;stroke-linejoin:miter;stroke-miterlimit:4;stroke-dasharray:none;stroke-opacity:1;font-family:Bitstream Vera Sans" />
  <path
     d="M 774.3461,49.569229 L 774.3461,51.701349 L 773.42811,51.701349 C 770.97024,51.701344 769.3218,51.33612 768.48277,50.605677 C 767.65361,49.875225 767.23903,48.419265 767.23904,46.237793 L 767.23904,42.699066 C 767.23903,41.208563 766.97252,40.177052 766.43949,39.604532 C 765.90645,39.032026 764.93911,38.745769 763.53744,38.745762 L 762.63426,38.745762 L 762.63426,36.628448 L 763.53744,36.628448 C 764.94898,36.628458 765.91633,36.347137 766.43949,35.784484 C 766.97252,35.211982 767.23903,34.190343 767.23904,32.719563 L 767.23904,29.16603 C 767.23903,26.984576 767.65361,25.533551 768.48277,24.812952 C 769.3218,24.082527 770.97024,23.717303 773.42811,23.71728 L 774.3461,23.71728 L 774.3461,25.834593 L 773.33927,25.834593 C 771.94745,25.834614 771.03933,26.051774 770.61489,26.486074 C 770.19044,26.920415 769.97821,27.833474 769.97822,29.225255 L 769.97822,32.897239 C 769.97821,34.446987 769.75118,35.572271 769.29712,36.273095 C 768.85293,36.973941 768.08792,37.447744 767.00213,37.694508 C 768.0978,37.961032 768.86773,38.444707 769.31193,39.145534 C 769.75611,39.846377 769.97821,40.966725 769.97822,42.506584 L 769.97822,46.178568 C 769.97821,47.570366 770.19044,48.483427 770.61489,48.917749 C 771.03933,49.352067 771.94745,49.569227 773.33927,49.569229 L 774.3461,49.569229 M 793.92014,33.356237 C 794.60122,32.132257 795.41557,31.229068 796.3632,30.646668 C 797.31079,30.064301 798.4262,29.773108 799.70944,29.773092 C 801.43683,29.773108 802.7694,30.38017 803.70716,31.594277 C 804.64487,32.798543 805.11374,34.516083 805.11378,36.746899 L 805.11378,46.756016 L 802.37459,46.756016 L 802.37459,36.835738 C 802.37456,35.246531 802.09325,34.066956 801.53063,33.297012 C 800.96796,32.527093 800.10919,32.142128 798.95432,32.142113 C 797.54275,32.142128 796.42734,32.610996 795.60807,33.54872 C 794.78877,34.48647 794.37913,35.764753 794.37915,37.383574 L 794.37915,46.756016 L 791.63996,46.756016 L 791.63996,36.835738 C 791.63995,35.23666 791.35863,34.057086 790.796,33.297012 C 790.23335,32.527093 789.3647,32.142128 788.19007,32.142113 C 786.79827,32.142128 785.69273,32.615932 784.87344,33.563526 C 784.05415,34.501277 783.64451,35.774624 783.64451,37.383574 L 783.64451,46.756016 L 780.90533,46.756016 L 780.90533,30.172864 L 783.64451,30.172864 L 783.64451,32.749175 C 784.26638,31.732485 785.01163,30.982296 785.88028,30.498604 C 786.74891,30.014946 787.78042,29.773108 788.97481,29.773092 C 790.17905,29.773108 791.20069,30.079107 792.03973,30.691088 C 792.88862,31.303101 793.51542,32.191482 793.92014,33.356237 M 818.09897,38.420021 C 815.89775,38.420029 814.3727,38.671738 813.5238,39.175146 C 812.67489,39.678571 812.25045,40.53734 812.25045,41.751458 C 812.25045,42.718812 812.56632,43.488744 813.19806,44.061254 C 813.83966,44.623899 814.7083,44.90522 815.80398,44.905218 C 817.31423,44.90522 818.52342,44.37219 819.43155,43.306128 C 820.34953,42.230202 820.80853,40.803855 820.80854,39.027083 L 820.80854,38.420021 L 818.09897,38.420021 M 823.53291,37.294736 L 823.53291,46.756016 L 820.80854,46.756016 L 820.80854,44.238931 C 820.18666,45.245766 819.41179,45.99102 818.48394,46.474695 C 817.55606,46.948499 816.4209,47.185401 815.07847,47.185401 C 813.38066,47.185401 812.02835,46.711597 811.02152,45.763988 C 810.02455,44.806511 809.52608,43.528227 809.52608,41.929135 C 809.52608,40.063537 810.14795,38.656932 811.39168,37.709314 C 812.64529,36.761716 814.51089,36.287912 816.98849,36.287901 L 820.80854,36.287901 L 820.80854,36.021387 C 820.80853,34.767791 820.39395,33.800441 819.56481,33.119335 C 818.74551,32.428385 817.59061,32.082903 816.10011,32.082888 C 815.1525,32.082903 814.22956,32.196418 813.33132,32.423434 C 812.43306,32.65048 811.56935,32.991027 810.7402,33.445075 L 810.7402,30.92799 C 811.73716,30.54304 812.70451,30.256783 813.64225,30.06922 C 814.57998,29.871818 815.49304,29.773108 816.38143,29.773092 C 818.78005,29.773108 820.57162,30.394976 821.75615,31.638696 C 822.94065,32.882447 823.5329,34.767791 823.53291,37.294736 M 829.15934,30.172864 L 831.88372,30.172864 L 831.88372,46.756016 L 829.15934,46.756016 L 829.15934,30.172864 M 829.15934,23.71728 L 831.88372,23.71728 L 831.88372,27.167168 L 829.15934,27.167168 L 829.15934,23.71728 M 851.35412,36.746899 L 851.35412,46.756016 L 848.62974,46.756016 L 848.62974,36.835738 C 848.62973,35.266272 848.32373,34.091633 847.71174,33.311818 C 847.09973,32.532029 846.18174,32.142128 844.95776,32.142113 C 843.48698,32.142128 842.32714,32.610996 841.47826,33.54872 C 840.62935,34.48647 840.20491,35.764753 840.20491,37.383574 L 840.20491,46.756016 L 837.46573,46.756016 L 837.46573,30.172864 L 840.20491,30.172864 L 840.20491,32.749175 C 840.85638,31.752227 841.62137,31.006972 842.4999,30.513411 C 843.38827,30.019882 844.40991,29.773108 845.56482,29.773092 C 847.4699,29.773108 848.91105,30.365364 849.88829,31.549858 C 850.86549,32.724512 851.3541,34.456858 851.35412,36.746899 M 879.3826,33.356237 C 880.06369,32.132257 880.87803,31.229068 881.82566,30.646668 C 882.77325,30.064301 883.88866,29.773108 885.1719,29.773092 C 886.89929,29.773108 888.23186,30.38017 889.16962,31.594277 C 890.10734,32.798543 890.5762,34.516083 890.57623,36.746899 L 890.57623,46.756016 L 887.83705,46.756016 L 887.83705,36.835738 C 887.83703,35.246531 887.55571,34.066956 886.99309,33.297012 C 886.43042,32.527093 885.57165,32.142128 884.41677,32.142113 C 883.00521,32.142128 881.8898,32.610996 881.07053,33.54872 C 880.25123,34.48647 879.84158,35.764753 879.8416,37.383574 L 879.8416,46.756016 L 877.10242,46.756016 L 877.10242,36.835738 C 877.1024,35.23666 876.82109,34.057086 876.25846,33.297012 C 875.6958,32.527093 874.82716,32.142128 873.65254,32.142113 C 872.26072,32.142128 871.15518,32.615932 870.33591,33.563526 C 869.51661,34.501277 869.10697,35.774624 869.10697,37.383574 L 869.10697,46.756016 L 866.36779,46.756016 L 866.36779,30.172864 L 869.10697,30.172864 L 869.10697,32.749175 C 869.72884,31.732485 870.47409,30.982296 871.34274,30.498604 C 872.21137,30.014946 873.24288,29.773108 874.43727,29.773092 C 875.64151,29.773108 876.66315,30.079107 877.50219,30.691088 C 878.35107,31.303101 878.97788,32.191482 879.3826,33.356237 M 910.2095,37.783347 L 910.2095,39.115921 L 897.68329,39.115921 C 897.80174,40.991402 898.36439,42.422685 899.37123,43.409773 C 900.38792,44.386997 901.79946,44.875607 903.60585,44.875606 C 904.65216,44.875607 905.66393,44.747285 906.64116,44.490639 C 907.62824,44.233998 908.60546,43.849032 909.57283,43.335742 L 909.57283,45.912052 C 908.59559,46.326631 907.59369,46.642501 906.56713,46.859661 C 905.54054,47.076821 904.49916,47.185401 903.44298,47.185401 C 900.79757,47.185401 898.7,46.41547 897.15027,44.875606 C 895.6104,43.335745 894.84047,41.252982 894.84047,38.627311 C 894.84047,35.912817 895.57092,33.760958 897.03182,32.171726 C 898.50258,30.572653 900.4817,29.773108 902.96917,29.773092 C 905.2,29.773108 906.96195,30.493685 908.25505,31.934824 C 909.558,33.366121 910.20949,35.315627 910.2095,37.783347 M 907.48512,36.983802 C 907.46537,35.493303 907.04585,34.303858 906.22658,33.415463 C 905.41715,32.527093 904.34123,32.082903 902.99879,32.082888 C 901.47866,32.082903 900.2596,32.512287 899.34161,33.371043 C 898.43348,34.229827 897.91032,35.439013 897.77213,36.998608 L 907.48512,36.983802 M 928.46578,36.746899 L 928.46578,46.756016 L 925.7414,46.756016 L 925.7414,36.835738 C 925.74138,35.266272 925.43538,34.091633 924.82341,33.311818 C 924.21139,32.532029 923.2934,32.142128 922.06942,32.142113 C 920.59864,32.142128 919.43881,32.610996 918.58992,33.54872 C 917.74101,34.48647 917.31656,35.764753 917.31657,37.383574 L 917.31657,46.756016 L 914.57738,46.756016 L 914.57738,30.172864 L 917.31657,30.172864 L 917.31657,32.749175 C 917.96804,31.752227 918.73304,31.006972 919.61156,30.513411 C 920.49993,30.019882 921.52157,29.773108 922.67648,29.773092 C 924.58155,29.773108 926.02271,30.365364 926.99994,31.549858 C 927.97715,32.724512 928.46576,34.456858 928.46578,36.746899 M 933.64801,40.211594 L 933.64801,30.172864 L 936.37238,30.172864 L 936.37238,40.107949 C 936.37238,41.677431 936.67838,42.857005 937.29038,43.646675 C 937.90237,44.42648 938.82037,44.816381 940.04437,44.81638 C 941.51512,44.816381 942.67496,44.347513 943.52387,43.409773 C 944.38262,42.47204 944.81201,41.193756 944.81203,39.574919 L 944.81203,30.172864 L 947.5364,30.172864 L 947.5364,46.756016 L 944.81203,46.756016 L 944.81203,44.209318 C 944.15066,45.216153 943.38073,45.966343 942.50223,46.459889 C 941.63358,46.943563 940.6218,47.185401 939.46692,47.185401 C 937.56183,47.185401 936.11573,46.593146 935.12865,45.408635 C 934.14155,44.224127 933.64801,42.491781 933.64801,40.211594 M 940.50336,29.773092 L 940.50336,29.773092 M 954.11044,49.569229 L 955.14688,49.569229 C 956.5288,49.569227 957.42706,49.357002 957.84165,48.932555 C 958.26608,48.508103 958.47831,47.590109 958.47831,46.178568 L 958.47831,42.506584 C 958.47831,40.966725 958.70041,39.846377 959.14461,39.145534 C 959.58879,38.444707 960.35871,37.961032 961.4544,37.694508 C 960.35871,37.447744 959.58879,36.973941 959.14461,36.273095 C 958.70041,35.572271 958.47831,34.446987 958.47831,32.897239 L 958.47831,29.225255 C 958.47831,27.823603 958.26608,26.910543 957.84165,26.486074 C 957.42706,26.051774 956.5288,25.834614 955.14688,25.834593 L 954.11044,25.834593 L 954.11044,23.71728 L 955.04324,23.71728 C 957.50109,23.717303 959.13966,24.082527 959.95896,24.812952 C 960.7881,25.533551 961.20268,26.984576 961.20269,29.16603 L 961.20269,32.719563 C 961.20268,34.190343 961.46919,35.211982 962.00224,35.784484 C 962.53526,36.347137 963.5026,36.628458 964.90429,36.628448 L 965.82228,36.628448 L 965.82228,38.745762 L 964.90429,38.745762 C 963.5026,38.745769 962.53526,39.032026 962.00224,39.604532 C 961.46919,40.177052 961.20268,41.208563 961.20269,42.699066 L 961.20269,46.237793 C 961.20268,48.419265 960.7881,49.875225 959.95896,50.605677 C 959.13966,51.33612 957.50109,51.701344 955.04324,51.701349 L 954.11044,51.701349 L 954.11044,49.569229"
     id="text3321"
     style="font-size:36px;font-style:normal;font-weight:normal;fill:none;fill-opacity:1;stroke:#000000;stroke-width:1;stroke-linecap:butt;stroke-linejoin:miter;stroke-miterlimit:4;stroke-dasharray:none;stroke-opacity:1;font-family:Bitstream Vera Sans" />
  <path
     d="M 391.90258,106.4999 C 387.03488,108.47688 385.92958,115.14682 388.43305,119.36616 C 390.35194,125.27947 396.06577,131.08303 402.74654,129.85465 C 408.18136,128.47082 410.19887,121.23279 407.43422,116.69665 C 405.46552,110.53645 398.87874,103.76979 391.90258,106.4999 z M 409.97146,129.23155 C 412.89667,128.54661 418.30503,134.5166 412.53952,133.48854 C 407.74547,131.63492 402.72811,133.43947 397.96201,133.29816 C 388.38489,131.23194 381.90841,120.68925 383.45729,111.20117 C 385.12894,104.1577 393.65968,100.35665 400.19188,103.16737 C 407.86494,106.12353 412.73789,114.59384 412.51652,122.65308 C 412.3356,125.02897 411.51673,127.39384 409.97146,129.23155 z M 407.93361,96.50029 C 413.03489,94.145202 414.80186,101.14485 416.59223,104.46388 C 419.1409,109.20781 420.94418,114.83748 425.6918,117.90759 C 430.1549,119.91843 436.61891,115.75213 435.06375,110.62966 C 434.00135,105.44509 430.14285,101.47142 428.4608,96.53122 C 424.89412,95.190741 424.81419,86.038247 429.27073,90.340017 C 432.59613,94.873228 433.99956,100.48052 437.2219,105.08031 C 439.70876,109.28826 440.46312,115.46045 436.23197,118.84463 C 431.02792,123.63383 421.1937,122.51291 418.25762,115.69591 C 414.35763,109.55105 411.56836,102.79375 407.93361,96.50029 z M 434.8578,84.980054 C 438.9855,82.958867 441.30328,87.940717 442.51538,91.042753 C 445.88554,97.90462 449.60469,104.5961 453.10705,111.39369 C 448.97935,113.4149 446.66156,108.43305 445.44947,105.33102 C 442.08004,98.4706 438.35962,91.776586 434.8578,84.980054 z M 441.87615,81.97706 C 449.31877,78.792533 456.76138,75.608005 464.204,72.423471 C 467.38695,77.849892 456.27211,76.675262 457.90516,81.92415 C 459.14837,86.821118 463.42033,90.291776 464.5035,95.265775 C 465.74685,97.7063 471.37106,103.93464 466.51899,104.64497 C 462.14581,102.57495 462.24704,96.97684 459.43653,93.572538 C 457.24359,89.441947 455.11822,85.275856 452.91702,81.149614 C 449.45074,81.802458 444.08938,87.559525 441.87615,81.97706 z"
     id="text3355"
     style="font-size:48.94387817px;font-style:normal;font-weight:normal;fill:none;fill-opacity:1;stroke:#000000;stroke-width:1;stroke-linecap:butt;stroke-linejoin:miter;stroke-miterlimit:4;stroke-dasharray:none;stroke-opacity:1;font-family:Bitstream Vera Sans" />
  <path
     d="M 501.41553,109.37511 L 401.86368,154.47125 L 354.21493,140.00645 L 380.59192,91.506829 L 477.59115,59.173751 L 501.41553,109.37511 z"
     id="path3359"
     style="fill:none;fill-opacity:1;fill-rule:evenodd;stroke:#000000;stroke-width:1;stroke-linecap:butt;stroke-linejoin:miter;stroke-miterlimit:4;stroke-dasharray:none;stroke-opacity:1" />
  <path
     d="M 797.51847,333.15406 L 905.57903,334.00493 L 943.8682,376.54846 L 906.4299,424.1972 L 768.58887,423.34634"
     id="path3361"
     style="fill:none;fill-opacity:1;fill-rule:evenodd;stroke:#000000;stroke-width:1;stroke-linecap:butt;stroke-linejoin:miter;stroke-miterlimit:4;stroke-dasharray:none;stroke-opacity:1" />
  <path
     d="M 851.12332,424.1972 L 851.97419,471.84595"
     id="path3363"
     style="fill:none;fill-opacity:1;fill-rule:evenodd;stroke:#000000;stroke-width:1;stroke-linecap:butt;stroke-linejoin:miter;stroke-miterlimit:4;stroke-dasharray:none;stroke-opacity:1" />
  <path
     d="M 841.76374,422.49547 L 841.76374,470.99508"
     id="path3365"
     style="fill:none;fill-opacity:1;fill-rule:evenodd;stroke:#000000;stroke-width:1;stroke-linecap:butt;stroke-linejoin:miter;stroke-miterlimit:4;stroke-dasharray:none;stroke-opacity:1" />
  <path
     d="M 636.13035,482.08776 C 636.72417,480.0094 873.03126,463.20145 1017.8939,479.50379 C 1162.7566,495.80613 1275.7143,459.28571 1275.7143,459.28571"
     id="path3367"
     style="fill:none;fill-opacity:1;fill-rule:evenodd;stroke:#000000;stroke-width:1;stroke-linecap:butt;stroke-linejoin:miter;stroke-miterlimit:4;stroke-dasharray:none;stroke-opacity:1" />
  <path
     d="M 302.14287,494.28571 C 146.42855,499.28571 2.1428544,483.57143 2.1428544,483.57143"
     id="path3453"
     style="fill:none;fill-rule:evenodd;stroke:#000000;stroke-width:1;stroke-linecap:butt;stroke-linejoin:miter;stroke-miterlimit:4;stroke-dasharray:none;stroke-opacity:1" />
  <path
     d="M 786.32782,364.25258 L 786.32782,379.59242 L 793.27313,379.59242 C 795.84342,379.59244 797.8304,378.92708 799.23407,377.59633 C 800.63769,376.26562 801.33951,374.36979 801.33954,371.90883 C 801.33951,369.46615 800.63769,367.57943 799.23407,366.24867 C 797.8304,364.91798 795.84342,364.25261 793.27313,364.25258 L 786.32782,364.25258 M 780.80438,359.71351 L 793.27313,359.71351 C 797.84863,359.71355 801.30305,360.75262 803.63641,362.8307 C 805.98794,364.89063 807.16372,367.91667 807.16375,371.90883 C 807.16372,375.9375 805.98794,378.98176 803.63641,381.04164 C 801.30305,383.10155 797.84863,384.1315 793.27313,384.13148 L 786.32782,384.13148 L 786.32782,400.53773 L 780.80438,400.53773 L 780.80438,359.71351 M 814.60125,359.71351 L 820.12469,359.71351 L 820.12469,395.88929 L 840.0036,395.88929 L 840.0036,400.53773 L 814.60125,400.53773 L 814.60125,359.71351 M 860.73016,365.15492 L 853.23797,385.47133 L 868.24969,385.47133 L 860.73016,365.15492 M 857.61297,359.71351 L 863.87469,359.71351 L 879.43329,400.53773 L 873.6911,400.53773 L 869.97235,390.06508 L 851.57,390.06508 L 847.85125,400.53773 L 842.02704,400.53773 L 857.61297,359.71351 M 875.38641,359.71351 L 881.32,359.71351 L 892.64032,376.50258 L 903.8786,359.71351 L 909.81219,359.71351 L 895.37469,381.09633 L 895.37469,400.53773 L 889.82391,400.53773 L 889.82391,381.09633 L 875.38641,359.71351"
     id="text3475"
     style="font-size:56px;font-style:normal;font-weight:normal;fill:none;fill-opacity:1;stroke:#000000;stroke-width:1;stroke-linecap:butt;stroke-linejoin:miter;stroke-miterlimit:4;stroke-opacity:1;font-family:Bitstream Vera Sans" />
</svg>
