<?xml version="1.0" encoding="UTF-8" standalone="no"?>
<!-- Created with Inkscape (http://www.inkscape.org/) -->
<svg
   xmlns:dc="http://purl.org/dc/elements/1.1/"
   xmlns:cc="http://creativecommons.org/ns#"
   xmlns:rdf="http://www.w3.org/1999/02/22-rdf-syntax-ns#"
   xmlns:svg="http://www.w3.org/2000/svg"
   xmlns="http://www.w3.org/2000/svg"
   xmlns:sodipodi="http://sodipodi.sourceforge.net/DTD/sodipodi-0.dtd"
   xmlns:inkscape="http://www.inkscape.org/namespaces/inkscape"
   width="38"
   height="150"
   id="svg2"
   sodipodi:version="0.32"
   inkscape:version="0.46"
   version="1.0"
   sodipodi:docname="walking-01.svg"
   inkscape:output_extension="org.inkscape.output.svg.inkscape">
  <defs
     id="defs4">
    <inkscape:perspective
       sodipodi:type="inkscape:persp3d"
       inkscape:vp_x="0 : 526.18109 : 1"
       inkscape:vp_y="0 : 1000 : 0"
       inkscape:vp_z="744.09448 : 526.18109 : 1"
       inkscape:persp3d-origin="372.04724 : 350.78739 : 1"
       id="perspective10" />
    <inkscape:perspective
       id="perspective2390"
       inkscape:persp3d-origin="98.14286 : 105.45363 : 1"
       inkscape:vp_z="196.28572 : 158.18045 : 1"
       inkscape:vp_y="0 : 1000 : 0"
       inkscape:vp_x="0 : 158.18045 : 1"
       sodipodi:type="inkscape:persp3d" />
  </defs>
  <sodipodi:namedview
     id="base"
     pagecolor="#ffffff"
     bordercolor="#666666"
     borderopacity="1.0"
     gridtolerance="10000"
     guidetolerance="10"
     objecttolerance="10"
     inkscape:pageopacity="0.0"
     inkscape:pageshadow="2"
     inkscape:zoom="2.8"
     inkscape:cx="157.23723"
     inkscape:cy="60.454014"
     inkscape:document-units="px"
     inkscape:current-layer="layer1"
     showgrid="false"
     inkscape:window-width="1278"
     inkscape:window-height="780"
     inkscape:window-x="0"
     inkscape:window-y="18" />
  <metadata
     id="metadata7">
    <rdf:RDF>
      <cc:Work
         rdf:about="">
        <dc:format>image/svg+xml</dc:format>
        <dc:type
           rdf:resource="http://purl.org/dc/dcmitype/StillImage" />
      </cc:Work>
    </rdf:RDF>
  </metadata>
  <g
     inkscape:label="Layer 1"
     inkscape:groupmode="layer"
     id="layer1"
     transform="translate(-223.78571,-101.86218)">
    <path
       id="path2463"
       style="fill:none;fill-rule:evenodd;stroke:#000000;stroke-width:1px;stroke-linecap:butt;stroke-linejoin:miter;stroke-opacity:1"
       d="M 237.14286,103.07647 L 244.28571,134.50504 L 251.42857,102.36218 C 251.42857,102.36218 276.42858,154.50504 244.28572,154.50504 C 212.14286,154.50504 234.28571,104.50504 237.14286,103.07647 z M 237.5,104.32647 L 242.5,105.21932 L 238.75,107.54075 L 242.5,108.25504 L 239.28571,110.57647 L 242.85714,112.00504 L 240.35714,115.21932 M 250.71429,104.50504 L 245.89286,105.04075 L 249.64286,108.07647 L 246.42857,108.07647 L 248.92857,111.46932 L 244.82143,111.64789 L 248.03571,114.14789 M 240.35714,117.18361 L 244.82143,117.71932 L 241.96429,120.04075 L 245.17857,121.11218 L 241.96429,122.89789 M 248.21429,116.29075 L 243.21429,116.46932 L 246.78571,119.86218 M 246.25,124.32647 L 242.5,124.50504 L 245.89286,127.71932 M 241.42857,154.1479 C 239.28571,173.79075 238.92857,207.71932 241.07143,220.21932 M 245.35714,154.1479 C 250,168.79075 245.35714,234.86218 245.35714,234.86218 M 247.14286,179.1479 C 251.78571,169.86218 259.28571,169.1479 259.28571,169.1479 C 259.28571,169.1479 257.5,183.07647 248.21429,186.29075 M 238.92857,193.43361 C 230.35714,184.86218 224.28571,185.93361 224.28571,185.93361 C 224.28571,185.93361 229.64286,199.50504 238.92857,200.21932 M 243.21429,159.1479 C 242.85714,168.43361 244.28571,195.57647 244.28571,195.57647 M 240,217.00504 C 229.28571,224.86218 230.71429,229.50504 230.71429,229.50504 M 232.5,223.79075 C 223.57143,222.36218 225.71429,219.86218 225.71429,219.86218 M 227.5,223.43361 C 224.28571,226.29075 224.64286,230.93361 224.64286,230.93361 M 246.42857,225.93361 C 251.78571,229.86218 256.42857,228.07647 256.42857,228.07647 M 250.35714,228.07647 C 251.07143,235.21932 254.28571,236.29075 254.28571,236.29075 M 240.35714,225.93361 C 235,230.57647 226.07143,235.57647 226.07143,235.57647 M 235,230.93361 C 237.5,240.57647 241.78571,245.93361 241.78571,245.93361 M 236.42857,236.6479 C 233.21429,242.71932 227.14286,240.93361 227.14286,240.93361 M 234.28571,241.29075 C 231.07143,250.93361 236.78571,251.29075 236.78571,251.29075 M 245,233.43361 C 252.5,239.86218 251.78571,245.93361 251.78571,245.93361 M 252.14286,233.07647 C 260.71429,230.21932 260,235.93361 260,235.93361 M 247.14286,217.71932 C 249.28571,225.57647 253.21429,226.29075 253.21429,226.29075 M 229.28571,119.50504 C 237.14286,122.36218 228.57143,123.43361 228.57143,123.43361 M 227.5,142.71932 C 234.28571,137.00504 229.28571,145.57647 229.28571,145.57647 M 260.35714,137.00504 C 253.21429,139.1479 260,142.71932 260,142.71932 M 236.34787,137.50665 C 235.15189,139.13212 233.20376,139.7321 231.99937,138.84593 C 230.79498,137.95976 230.78814,135.92136 231.98413,134.2959 C 233.18011,132.67045 235.12823,132.07044 236.33262,132.95661 C 237.53702,133.84278 237.54385,135.8812 236.34787,137.50665 z M 253.54829,149.98029 C 253.54829,151.20004 252.64319,152.18999 251.52798,152.18999 C 250.41278,152.18999 249.50768,151.20004 249.50768,149.98029 C 249.50768,148.76053 250.41278,147.77058 251.52798,147.77058 C 252.64319,147.77058 253.54829,148.76053 253.54829,149.98029 z M 254.23747,129.77723 C 254.23747,131.23802 252.8822,132.42359 251.21231,132.42359 C 249.54243,132.42359 248.18715,131.23802 248.18715,129.77723 C 248.18715,128.31645 249.54243,127.13088 251.21231,127.13088 C 252.8822,127.13088 254.23747,128.31645 254.23747,129.77723 z M 245.91974,146.09171 C 245.15681,147.35725 243.48629,147.75056 242.1909,146.96963 C 240.89551,146.18871 240.46337,144.52781 241.2263,143.26227 C 241.98924,141.99673 243.65976,141.60341 244.95515,142.38434 C 246.25054,143.16527 246.68267,144.82618 245.91974,146.09171 z M 238.52228,122.51676 C 238.52228,124.05017 237.56061,125.29468 236.3757,125.29468 C 235.19079,125.29468 234.22913,124.05017 234.22913,122.51676 C 234.22913,120.98335 235.19079,119.73884 236.3757,119.73884 C 237.56061,119.73884 238.52228,120.98335 238.52228,122.51676 z M 250.72775,137.54279 C 250.72775,138.91328 249.47406,140.02555 247.92932,140.02555 C 246.38459,140.02555 245.13089,138.91328 245.13089,137.54279 C 245.13089,136.17231 246.38459,135.06003 247.92932,135.06003 C 249.47406,135.06003 250.72775,136.17231 250.72775,137.54279 z M 233.0927,151.30611 C 235.61808,148.02311 239.02735,149.41207 236.62823,153.20015 M 255.44233,114.183 C 250.6441,116.32958 256.70502,117.466 256.70502,117.466" />
  </g>
</svg>
