<?xml version="1.0" encoding="UTF-8" standalone="no"?>
<!-- Created with Inkscape (http://www.inkscape.org/) -->
<svg
   xmlns:svg="http://www.w3.org/2000/svg"
   xmlns="http://www.w3.org/2000/svg"
   version="1.0"
   width="38"
   height="150"
   id="svg2">
  <defs
     id="defs4" />
  <g
     transform="translate(-223.78571,-101.86218)"
     id="layer1">
    <path
       d="M 228.91946,104.52555 L 244.01305,133.02915 L 259.17226,105.33671 C 259.17226,105.33671 267.71474,153.96624 244.28572,154.50504 C 215.9373,155.15698 226.5294,106.64493 228.91946,104.52555 z M 229.58795,105.64052 L 234.64867,105.20885 L 231.62728,108.42175 L 235.43437,108.14113 L 232.93044,111.21538 L 236.74991,111.67092 L 235.16702,115.42272 M 257.9277,107.22169 L 253.13191,106.49127 L 255.96842,110.39412 L 252.86366,109.5622 L 254.40034,113.48649 L 250.38693,112.59597 L 252.84464,115.8427 M 235.67541,117.32008 L 240.12624,116.6821 L 237.96728,119.66391 L 241.34934,119.86691 L 238.70676,122.42369 M 252.46252,117.95876 L 247.58667,116.83715 L 250.15826,121.03875 M 248.48536,125.21228 L 244.81721,124.08997 L 247.26226,128.39708 M 241.42857,154.1479 C 239.28571,173.79075 238.92857,207.71932 241.07143,220.21932 M 245.35714,154.1479 C 250,168.79075 245.35714,234.86218 245.35714,234.86218 M 247.14286,179.1479 C 251.78571,169.86218 259.28571,169.1479 259.28571,169.1479 C 259.28571,169.1479 257.5,183.07647 248.21429,186.29075 M 238.92857,193.43361 C 230.35714,184.86218 224.28571,185.93361 224.28571,185.93361 C 224.28571,185.93361 229.64286,199.50504 238.92857,200.21932 M 243.21429,159.1479 C 242.85714,168.43361 244.28571,195.57647 244.28571,195.57647 M 240,217.00504 C 229.28571,224.86218 230.71429,229.50504 230.71429,229.50504 M 232.5,223.79075 C 223.57143,222.36218 225.71429,219.86218 225.71429,219.86218 M 227.5,223.43361 C 224.28571,226.29075 224.64286,230.93361 224.64286,230.93361 M 246.42857,225.93361 C 251.78571,229.86218 256.42857,228.07647 256.42857,228.07647 M 250.35714,228.07647 C 251.07143,235.21932 254.28571,236.29075 254.28571,236.29075 M 240.35714,225.93361 C 235,230.57647 226.07143,235.57647 226.07143,235.57647 M 235,230.93361 C 237.5,240.57647 241.78571,245.93361 241.78571,245.93361 M 236.42857,236.6479 C 233.21429,242.71932 227.14286,240.93361 227.14286,240.93361 M 234.28571,241.29075 C 231.07143,250.93361 236.78571,251.29075 236.78571,251.29075 M 245,233.43361 C 252.5,239.86218 251.78571,245.93361 251.78571,245.93361 M 252.14286,233.07647 C 260.71429,230.21932 260,235.93361 260,235.93361 M 247.14286,217.71932 C 249.28571,225.57647 253.21429,226.29075 253.21429,226.29075 M 226.25525,119.12623 C 234.1124,121.98337 225.54097,123.0548 225.54097,123.0548 M 227.5,142.71932 C 234.28571,137.00504 229.28571,145.57647 229.28571,145.57647 M 258.96818,137.00504 C 251.82533,139.1479 257.97969,141.83544 257.97969,141.83544 M 233.82249,134.22365 C 232.62651,135.84912 230.67838,136.4491 229.47399,135.56293 C 228.2696,134.67676 228.26276,132.63836 229.45875,131.0129 C 230.65473,129.38745 232.60285,128.78744 233.80724,129.67361 C 235.01164,130.55978 235.01847,132.5982 233.82249,134.22365 z M 253.54829,149.98029 C 253.54829,151.20004 252.64319,152.18999 251.52798,152.18999 C 250.41278,152.18999 249.50768,151.20004 249.50768,149.98029 C 249.50768,148.76053 250.41278,147.77058 251.52798,147.77058 C 252.64319,147.77058 253.54829,148.76053 253.54829,149.98029 z M 257.64673,130.28231 C 257.64673,131.7431 256.29146,132.92867 254.62157,132.92867 C 252.95169,132.92867 251.59641,131.7431 251.59641,130.28231 C 251.59641,128.82153 252.95169,127.63596 254.62157,127.63596 C 256.29146,127.63596 257.64673,128.82153 257.64673,130.28231 z M 245.91974,146.09171 C 245.15681,147.35725 243.48629,147.75056 242.1909,146.96963 C 240.89551,146.18871 240.46337,144.52781 241.2263,143.26227 C 241.98924,141.99673 243.65976,141.60341 244.95515,142.38434 C 246.25054,143.16527 246.68267,144.82618 245.91974,146.09171 z M 235.74436,123.40064 C 235.74436,124.93405 234.78269,126.17856 233.59778,126.17856 C 232.41287,126.17856 231.45121,124.93405 231.45121,123.40064 C 231.45121,121.86723 232.41287,120.62272 233.59778,120.62272 C 234.78269,120.62272 235.74436,121.86723 235.74436,123.40064 z M 250.72775,137.54279 C 250.72775,138.91328 249.47406,140.02555 247.92932,140.02555 C 246.38459,140.02555 245.13089,138.91328 245.13089,137.54279 C 245.13089,136.17231 246.38459,135.06003 247.92932,135.06003 C 249.47406,135.06003 250.72775,136.17231 250.72775,137.54279 z M 233.0927,151.30611 C 235.61808,148.02311 239.02735,149.41207 236.62823,153.20015 M 259.98802,115.57196 C 255.18979,117.71854 260.11428,118.98123 260.11428,118.98123"
       id="path2463"
       style="fill:none;fill-rule:evenodd;stroke:#000000;stroke-width:1px;stroke-linecap:butt;stroke-linejoin:miter;stroke-opacity:1" />
  </g>
</svg>
