# Blender v2.63 (sub 0) OBJ File: 'eva_wheel.blend'
# www.blender.org
mtllib evo_super500_wheel.mtl
o Mesh_wheel_Cylinder01x
v 7.925900 -0.026900 -0.015200
v 15.275400 -22.602304 8.201492
v 15.275400 -24.051100 -0.015208
v 15.275400 -18.430504 15.427195
v 15.275400 -12.039007 20.790297
v 15.275400 -4.198708 23.643999
v 15.275400 4.144892 23.643999
v 15.275400 11.985192 20.790304
v 15.275400 18.376696 15.427206
v 15.275400 22.548496 8.201508
v 15.275400 23.997299 -0.015192
v 15.275400 22.548504 -8.231993
v 15.275400 18.376703 -15.457694
v 15.275400 11.985208 -20.820797
v 15.275400 4.144808 -23.674500
v 15.275400 -4.198692 -23.674500
v 15.275400 -12.038992 -20.820805
v 15.275400 -18.430496 -15.457705
v 15.275400 -22.602297 -8.232008
v 12.014500 -28.070904 10.191890
v 12.014500 -29.870701 -0.015210
v 12.014500 -22.888508 19.167992
v 12.014500 -14.948808 25.830196
v 12.014500 -5.209210 29.375099
v 12.014500 5.155390 29.375099
v 12.014500 14.894993 25.830204
v 12.014500 22.834793 19.168007
v 12.014500 28.017096 10.191910
v 12.014500 29.816900 -0.015190
v 12.014500 28.017103 -10.222390
v 12.014500 22.834707 -19.198393
v 12.014500 14.895008 -25.860697
v 12.014500 5.155410 -29.405600
v 12.014500 -5.209190 -29.405600
v 12.014500 -14.948792 -25.860704
v 12.014500 -22.888493 -19.198408
v 12.014500 -28.070896 -10.222408
v -12.140100 -28.070904 10.191890
v -12.140100 -29.870600 -0.015210
v -12.140100 -22.888508 19.167992
v -12.140100 -14.948808 25.830196
v -12.140100 -5.209210 29.375099
v -12.140100 5.155390 29.375099
v -12.140100 14.894993 25.830204
v -12.140100 22.834793 19.168007
v -12.140100 28.017096 10.191910
v -12.140100 29.816900 -0.015190
v -12.140100 28.017103 -10.222390
v -12.140100 22.834707 -19.198393
v -12.140100 14.895008 -25.860697
v -12.140100 5.155410 -29.405600
v -12.140100 -5.209190 -29.405600
v -12.140100 -14.948792 -25.860704
v -12.140100 -22.888493 -19.198408
v -12.140100 -28.070896 -10.222408
v -15.400900 -22.602304 8.201492
v -15.400900 -24.051100 -0.015208
v -15.400900 -18.430504 15.427195
v -15.400900 -12.039007 20.790297
v -15.400900 -4.198708 23.643999
v -15.400900 4.144892 23.643999
v -15.400900 11.985192 20.790304
v -15.400900 18.376696 15.427206
v -15.400900 22.548496 8.201508
v -15.400900 23.997299 -0.015192
v -15.400900 22.548504 -8.231993
v -15.400900 18.376703 -15.457694
v -15.400900 11.985208 -20.820797
v -15.400900 4.144808 -23.674500
v -15.400900 -4.198692 -23.674500
v -15.400900 -12.038992 -20.820805
v -15.400900 -18.430496 -15.457705
v -15.400900 -22.602297 -8.232008
v -8.051400 -0.026900 -0.015200
vt 0.726058 0.065517
vt 0.771863 0.082237
vt 0.774824 0.065517
vt 0.763416 0.097042
vt 0.750441 0.107927
vt 0.734505 0.113762
vt 0.717610 0.113762
vt 0.701674 0.107927
vt 0.688699 0.097042
vt 0.680252 0.082237
vt 0.677291 0.065517
vt 0.680252 0.048710
vt 0.688699 0.033993
vt 0.701674 0.023021
vt 0.717610 0.017186
vt 0.734505 0.017186
vt 0.750441 0.023021
vt 0.763416 0.033993
vt 0.771863 0.048710
vt 0.783010 0.086330
vt 0.786667 0.065517
vt 0.772473 0.104618
vt 0.756362 0.118289
vt 0.736595 0.125518
vt 0.715520 0.125518
vt 0.695753 0.118289
vt 0.679642 0.104618
vt 0.669105 0.086330
vt 0.665448 0.065517
vt 0.669105 0.044617
vt 0.679642 0.026330
vt 0.695753 0.012745
vt 0.715520 0.005517
vt 0.736595 0.005517
vt 0.756362 0.012745
vt 0.772473 0.026330
vt 0.783010 0.044617
vt 0.841280 0.075315
vt 0.830710 0.021796
vt 0.841280 0.021796
vt 0.830710 0.075315
vt 0.820056 0.021796
vt 0.820056 0.075315
vt 0.809318 0.021796
vt 0.809318 0.075315
vt 0.798498 0.021796
vt 0.798498 0.075315
vt 0.991351 0.075315
vt 0.980530 0.021796
vt 0.991351 0.021796
vt 0.980530 0.075315
vt 0.969627 0.021796
vt 0.969627 0.075315
vt 0.958889 0.021796
vt 0.958889 0.075315
vt 0.948319 0.021796
vt 0.948319 0.075315
vt 0.937748 0.021796
vt 0.937748 0.075315
vt 0.927177 0.021796
vt 0.927177 0.075315
vt 0.916524 0.021796
vt 0.916524 0.075315
vt 0.905786 0.021796
vt 0.905786 0.075315
vt 0.894966 0.021796
vt 0.894966 0.075315
vt 0.884062 0.021796
vt 0.884062 0.075315
vt 0.873242 0.021796
vt 0.873242 0.075315
vt 0.862505 0.021796
vt 0.862505 0.075315
vt 0.851851 0.021796
vt 0.851851 0.075315
vn 0.999969 0.000000 0.000000
vn 0.988769 -0.140385 0.051088
vn 0.988769 -0.149388 0.000000
vn 0.988769 -0.114444 0.096042
vn 0.988769 -0.074679 0.129398
vn 0.988769 -0.025941 0.147130
vn 0.988769 0.025941 0.147130
vn 0.988769 0.074679 0.129398
vn 0.988769 0.114444 0.096042
vn 0.988769 0.140385 0.051088
vn 0.988769 0.149388 0.000000
vn 0.988769 0.140385 -0.051088
vn 0.988769 0.114444 -0.096042
vn 0.988769 0.074709 -0.129398
vn 0.988769 0.025941 -0.147130
vn 0.988769 -0.025941 -0.147130
vn 0.988769 -0.074709 -0.129398
vn 0.988769 -0.114444 -0.096042
vn 0.988769 -0.140385 -0.051088
vn 0.482589 -0.822993 0.299539
vn 0.482589 -0.875820 0.000000
vn 0.482589 -0.670919 0.562975
vn 0.482589 -0.437910 0.758476
vn 0.482589 -0.152074 0.862514
vn 0.482589 0.152074 0.862514
vn 0.482589 0.437910 0.758476
vn 0.482589 0.670919 0.562975
vn 0.482589 0.822993 0.299539
vn 0.482589 0.875820 0.000000
vn 0.482589 0.822993 -0.299539
vn 0.482589 0.670919 -0.562975
vn 0.482589 0.437910 -0.758476
vn 0.482589 0.152074 -0.862514
vn 0.482589 -0.152074 -0.862514
vn 0.482589 -0.437910 -0.758476
vn 0.482589 -0.670919 -0.562975
vn 0.482589 -0.822993 -0.299539
vn -0.482589 -0.822993 0.299539
vn -0.482589 -0.875820 0.000000
vn -0.482589 -0.670919 0.562975
vn -0.482589 -0.437910 0.758476
vn -0.482589 -0.152074 0.862514
vn -0.482589 0.152074 0.862514
vn -0.482589 0.437910 0.758476
vn -0.482589 0.670919 0.562975
vn -0.482589 0.822993 0.299539
vn -0.482589 0.875820 0.000000
vn -0.482589 0.822993 -0.299539
vn -0.482589 0.670919 -0.562975
vn -0.482589 0.437910 -0.758476
vn -0.482589 0.152074 -0.862514
vn -0.482589 -0.152074 -0.862514
vn -0.482589 -0.437910 -0.758476
vn -0.482589 -0.670919 -0.562975
vn -0.482589 -0.822993 -0.299539
vn -0.988769 -0.140385 0.051088
vn -0.988769 -0.149388 0.000000
vn -0.988769 -0.114444 0.096011
vn -0.988769 -0.074679 0.129368
vn -0.988769 -0.025941 0.147130
vn -0.988769 0.025941 0.147130
vn -0.988769 0.074679 0.129368
vn -0.988769 0.114444 0.096011
vn -0.988769 0.140385 0.051088
vn -0.988769 0.149388 0.000000
vn -0.988769 0.140385 -0.051088
vn -0.988769 0.114444 -0.096042
vn -0.988769 0.074679 -0.129368
vn -0.988769 0.025941 -0.147130
vn -0.988769 -0.025941 -0.147130
vn -0.988769 -0.074679 -0.129368
vn -0.988769 -0.114444 -0.096011
vn -0.988769 -0.140385 -0.051088
vn -0.999969 0.000000 0.000000
usemtl _evo_super500.png
s 1
f 1/1/1 2/2/2 3/3/3
f 1/1/1 4/4/4 2/2/2
f 1/1/1 5/5/5 4/4/4
f 1/1/1 6/6/6 5/5/5
f 1/1/1 7/7/7 6/6/6
f 1/1/1 8/8/8 7/7/7
f 1/1/1 9/9/9 8/8/8
f 1/1/1 10/10/10 9/9/9
f 1/1/1 11/11/11 10/10/10
f 1/1/1 12/12/12 11/11/11
f 1/1/1 13/13/13 12/12/12
f 1/1/1 14/14/14 13/13/13
f 1/1/1 15/15/15 14/14/14
f 1/1/1 16/16/16 15/15/15
f 1/1/1 17/17/17 16/16/16
f 1/1/1 18/18/18 17/17/17
f 1/1/1 19/19/19 18/18/18
f 1/1/1 3/3/3 19/19/19
f 3/3/3 20/20/20 21/21/21
f 3/3/3 2/2/2 20/20/20
f 2/2/2 22/22/22 20/20/20
f 2/2/2 4/4/4 22/22/22
f 4/4/4 23/23/23 22/22/22
f 4/4/4 5/5/5 23/23/23
f 5/5/5 24/24/24 23/23/23
f 5/5/5 6/6/6 24/24/24
f 6/6/6 25/25/25 24/24/24
f 6/6/6 7/7/7 25/25/25
f 7/7/7 26/26/26 25/25/25
f 7/7/7 8/8/8 26/26/26
f 8/8/8 27/27/27 26/26/26
f 8/8/8 9/9/9 27/27/27
f 9/9/9 28/28/28 27/27/27
f 9/9/9 10/10/10 28/28/28
f 10/10/10 29/29/29 28/28/28
f 10/10/10 11/11/11 29/29/29
f 11/11/11 30/30/30 29/29/29
f 11/11/11 12/12/12 30/30/30
f 12/12/12 31/31/31 30/30/30
f 12/12/12 13/13/13 31/31/31
f 13/13/13 32/32/32 31/31/31
f 13/13/13 14/14/14 32/32/32
f 14/14/14 33/33/33 32/32/32
f 14/14/14 15/15/15 33/33/33
f 15/15/15 34/34/34 33/33/33
f 15/15/15 16/16/16 34/34/34
f 16/16/16 35/35/35 34/34/34
f 16/16/16 17/17/17 35/35/35
f 17/17/17 36/36/36 35/35/35
f 17/17/17 18/18/18 36/36/36
f 18/18/18 37/37/37 36/36/36
f 18/18/18 19/19/19 37/37/37
f 19/19/19 21/21/21 37/37/37
f 19/19/19 3/3/3 21/21/21
f 21/38/21 38/39/38 39/40/39
f 21/38/21 20/41/20 38/39/38
f 20/41/20 40/42/40 38/39/38
f 20/41/20 22/43/22 40/42/40
f 22/43/22 41/44/41 40/42/40
f 22/43/22 23/45/23 41/44/41
f 23/45/23 42/46/42 41/44/41
f 23/45/23 24/47/24 42/46/42
f 24/48/24 43/49/43 42/50/42
f 24/48/24 25/51/25 43/49/43
f 25/51/25 44/52/44 43/49/43
f 25/51/25 26/53/26 44/52/44
f 26/53/26 45/54/45 44/52/44
f 26/53/26 27/55/27 45/54/45
f 27/55/27 46/56/46 45/54/45
f 27/55/27 28/57/28 46/56/46
f 28/57/28 47/58/47 46/56/46
f 28/57/28 29/59/29 47/58/47
f 29/59/29 48/60/48 47/58/47
f 29/59/29 30/61/30 48/60/48
f 30/61/30 49/62/49 48/60/48
f 30/61/30 31/63/31 49/62/49
f 31/63/31 50/64/50 49/62/49
f 31/63/31 32/65/32 50/64/50
f 32/65/32 51/66/51 50/64/50
f 32/65/32 33/67/33 51/66/51
f 33/67/33 52/68/52 51/66/51
f 33/67/33 34/69/34 52/68/52
f 34/69/34 53/70/53 52/68/52
f 34/69/34 35/71/35 53/70/53
f 35/71/35 54/72/54 53/70/53
f 35/71/35 36/73/36 54/72/54
f 36/73/36 55/74/55 54/72/54
f 36/73/36 37/75/37 55/74/55
f 37/75/37 39/40/39 55/74/55
f 37/75/37 21/38/21 39/40/39
f 39/21/39 56/2/56 57/3/57
f 39/21/39 38/20/38 56/2/56
f 38/20/38 58/4/58 56/2/56
f 38/20/38 40/22/40 58/4/58
f 40/22/40 59/5/59 58/4/58
f 40/22/40 41/23/41 59/5/59
f 41/23/41 60/6/60 59/5/59
f 41/23/41 42/24/42 60/6/60
f 42/24/42 61/7/61 60/6/60
f 42/24/42 43/25/43 61/7/61
f 43/25/43 62/8/62 61/7/61
f 43/25/43 44/26/44 62/8/62
f 44/26/44 63/9/63 62/8/62
f 44/26/44 45/27/45 63/9/63
f 45/27/45 64/10/64 63/9/63
f 45/27/45 46/28/46 64/10/64
f 46/28/46 65/11/65 64/10/64
f 46/28/46 47/29/47 65/11/65
f 47/29/47 66/12/66 65/11/65
f 47/29/47 48/30/48 66/12/66
f 48/30/48 67/13/67 66/12/66
f 48/30/48 49/31/49 67/13/67
f 49/31/49 68/14/68 67/13/67
f 49/31/49 50/32/50 68/14/68
f 50/32/50 69/15/69 68/14/68
f 50/32/50 51/33/51 69/15/69
f 51/33/51 70/16/70 69/15/69
f 51/33/51 52/34/52 70/16/70
f 52/34/52 71/17/71 70/16/70
f 52/34/52 53/35/53 71/17/71
f 53/35/53 72/18/72 71/17/71
f 53/35/53 54/36/54 72/18/72
f 54/36/54 73/19/73 72/18/72
f 54/36/54 55/37/55 73/19/73
f 55/37/55 57/3/57 73/19/73
f 55/37/55 39/21/39 57/3/57
f 74/1/74 57/3/57 56/2/56
f 74/1/74 56/2/56 58/4/58
f 74/1/74 58/4/58 59/5/59
f 74/1/74 59/5/59 60/6/60
f 74/1/74 60/6/60 61/7/61
f 74/1/74 61/7/61 62/8/62
f 74/1/74 62/8/62 63/9/63
f 74/1/74 63/9/63 64/10/64
f 74/1/74 64/10/64 65/11/65
f 74/1/74 65/11/65 66/12/66
f 74/1/74 66/12/66 67/13/67
f 74/1/74 67/13/67 68/14/68
f 74/1/74 68/14/68 69/15/69
f 74/1/74 69/15/69 70/16/70
f 74/1/74 70/16/70 71/17/71
f 74/1/74 71/17/71 72/18/72
f 74/1/74 72/18/72 73/19/73
f 74/1/74 73/19/73 57/3/57
