<?xml version="1.0" encoding="UTF-8" standalone="no"?>
<!-- Created with Inkscape (http://www.inkscape.org/) -->
<svg
   xmlns:svg="http://www.w3.org/2000/svg"
   xmlns="http://www.w3.org/2000/svg"
   version="1.0"
   width="12"
   height="12"
   id="svg2645">
  <defs
     id="defs2647" />
  <g
     transform="translate(-12.187594,-40.162044)"
     id="layer1">
    <path
       d="M 43.659634,46.959343 A 3.3716209,5.257443 0 1 1 36.916393,46.959343 A 3.3716209,5.257443 0 1 1 43.659634,46.959343 z"
       transform="matrix(0.8673919,0.4976257,-0.4976257,0.8673919,6.5489189,-13.259389)"
       id="path2481"
       style="opacity:1;fill:none;fill-opacity:1;stroke:#000000;stroke-width:1;stroke-linejoin:round;stroke-miterlimit:4;stroke-dasharray:none;stroke-opacity:1" />
    <path
       d="M 14.640325,51.521342 C 14.994622,48.555452 19.584619,42.449972 20.126352,42.720842"
       id="path2485"
       style="fill:none;fill-rule:evenodd;stroke:#000000;stroke-width:1px;stroke-linecap:butt;stroke-linejoin:miter;stroke-opacity:1" />
    <path
       d="M 15.326079,52.207092 C 19.212014,49.464082 20.697814,45.235272 21.269275,43.292302"
       id="path2487"
       style="fill:none;fill-rule:evenodd;stroke:#000000;stroke-width:1px;stroke-linecap:butt;stroke-linejoin:miter;stroke-opacity:1" />
    <path
       d="M 15.89754,44.892392 C 18.98343,46.035312 20.126352,46.263902 21.497859,48.321162"
       id="path2489"
       style="fill:none;fill-rule:evenodd;stroke:#000000;stroke-width:1px;stroke-linecap:butt;stroke-linejoin:miter;stroke-opacity:1" />
    <path
       d="M 14.86891,46.835362 C 16.011832,49.349792 18.640553,50.264132 20.126352,50.721292"
       id="path2491"
       style="fill:none;fill-rule:evenodd;stroke:#000000;stroke-width:1px;stroke-linecap:butt;stroke-linejoin:miter;stroke-opacity:1" />
    <path
       d="M 19.395486,42.437282 C 19.520486,39.812282 20.645486,40.187282 22.395486,41.062282 C 24.145486,41.937282 22.145486,43.562282 22.145486,43.562282"
       id="path2493"
       style="fill:none;fill-rule:evenodd;stroke:#000000;stroke-width:1px;stroke-linecap:butt;stroke-linejoin:miter;stroke-opacity:1" />
  </g>
</svg>
