# Blender 3.6.23
# www.blender.org
mtllib mcl_flowers_leaf_litter_3.mtl
o Leaf_Litter
v 0.000000 -0.484375 -0.500000
v -0.500000 -0.484375 -0.500000
v -0.500000 -0.484375 0.500000
v 0.500000 -0.484375 -0.000000
v 0.500000 -0.484375 0.500000
v 0.000000 -0.484375 -0.000000
v 0.000000 -0.484375 0.500000
vn -0.0000 1.0000 -0.0000
vt 0.000000 0.000000
vt 0.500000 0.000000
vt 0.500000 1.000000
vt 0.000000 1.000000
vt 1.000000 0.000000
vt 1.000000 0.500000
vt 0.500000 0.500000
s 0
usemtl Leaf_Litter
f 3/1/1 7/2/1 1/3/1 2/4/1
f 7/2/1 5/5/1 4/6/1 6/7/1
