# Blender v3.6.21 OBJ File: ''
# www.blender.org
mtllib mcl_flowers_wildflower_1.mtl
v -0.500000 -0.313125 0.000000
v 0.000000 -0.313125 0.000000
v 0.000000 -0.313125 -0.500000
v -0.500000 -0.313125 -0.500000
v -0.500000 -0.313125 -0.500000
v 0.000000 -0.313125 -0.500000
v 0.000000 -0.313125 0.000000
v -0.500000 -0.313125 0.000000
vt 0.000000 0.500000
vt 0.500000 0.500000
vt 0.500000 1.000000
vt 0.000000 1.000000
vt 0.000000 1.000000
vt 0.000000 1.000000
vt 0.000000 1.000000
vt 0.000000 1.000000
vn 0.0000 1.0000 -0.0000
vn 0.0000 -1.0000 0.0000
g petal.003_petal.003_none.003
usemtl none.003
s 1
f 1/1/1 2/2/1 3/3/1 4/4/1
f 5/5/2 6/6/2 7/7/2 8/8/2
v -0.241464 -0.500000 -0.382885
v -0.197270 -0.500000 -0.427080
v -0.197270 -0.313125 -0.427080
v -0.241464 -0.313125 -0.382885
v -0.197270 -0.500000 -0.427080
v -0.241464 -0.500000 -0.382885
v -0.241464 -0.313125 -0.382885
v -0.197270 -0.313125 -0.427080
v -0.197270 -0.500000 -0.382885
v -0.241464 -0.500000 -0.427080
v -0.241464 -0.313125 -0.427080
v -0.197270 -0.313125 -0.382885
v -0.241464 -0.500000 -0.427080
v -0.197270 -0.500000 -0.382885
v -0.197270 -0.313125 -0.382885
v -0.241464 -0.313125 -0.427080
v -0.429289 -0.500000 -0.137608
v -0.385095 -0.500000 -0.181802
v -0.385095 -0.313125 -0.181802
v -0.429289 -0.313125 -0.137608
v -0.385095 -0.500000 -0.181802
v -0.429289 -0.500000 -0.137608
v -0.429289 -0.313125 -0.137608
v -0.385095 -0.313125 -0.181802
v -0.385095 -0.500000 -0.137608
v -0.429289 -0.500000 -0.181802
v -0.429289 -0.313125 -0.181802
v -0.385095 -0.313125 -0.137608
v -0.429289 -0.500000 -0.181802
v -0.385095 -0.500000 -0.137608
v -0.385095 -0.313125 -0.137608
v -0.429289 -0.313125 -0.181802
v -0.119930 -0.500000 -0.071316
v -0.075736 -0.500000 -0.115511
v -0.075736 -0.313125 -0.115511
v -0.119930 -0.313125 -0.071316
v -0.075736 -0.500000 -0.115511
v -0.119930 -0.500000 -0.071316
v -0.119930 -0.313125 -0.071316
v -0.075736 -0.313125 -0.115511
v -0.075736 -0.500000 -0.071316
v -0.119930 -0.500000 -0.115511
v -0.119930 -0.313125 -0.115511
v -0.075736 -0.313125 -0.071316
v -0.119930 -0.500000 -0.115511
v -0.075736 -0.500000 -0.071316
v -0.075736 -0.313125 -0.071316
v -0.119930 -0.313125 -0.115511
vt 0.000000 0.562500
vt 0.062500 0.562500
vt 0.062500 0.750000
vt 0.000000 0.750000
vt 0.000000 0.562500
vt 0.062500 0.562500
vt 0.062500 0.750000
vt 0.000000 0.750000
vt 0.000000 0.562500
vt 0.062500 0.562500
vt 0.062500 0.750000
vt 0.000000 0.750000
vt 0.000000 0.562500
vt 0.062500 0.562500
vt 0.062500 0.750000
vt 0.000000 0.750000
vt 0.000000 0.562500
vt 0.062500 0.562500
vt 0.062500 0.750000
vt 0.000000 0.750000
vt 0.000000 0.562500
vt 0.062500 0.562500
vt 0.062500 0.750000
vt 0.000000 0.750000
vt 0.000000 0.562500
vt 0.062500 0.562500
vt 0.062500 0.750000
vt 0.000000 0.750000
vt 0.000000 0.562500
vt 0.062500 0.562500
vt 0.062500 0.750000
vt 0.000000 0.750000
vt 0.000000 0.562500
vt 0.062500 0.562500
vt 0.062500 0.750000
vt 0.000000 0.750000
vt 0.000000 0.562500
vt 0.062500 0.562500
vt 0.062500 0.750000
vt 0.000000 0.750000
vt 0.000000 0.562500
vt 0.062500 0.562500
vt 0.062500 0.750000
vt 0.000000 0.750000
vt 0.000000 0.562500
vt 0.062500 0.562500
vt 0.062500 0.750000
vt 0.000000 0.750000
vn 0.7071 0.0000 0.7071
vn -0.7071 0.0000 -0.7071
vn 0.7071 0.0000 -0.7071
vn -0.7071 0.0000 0.7071
g stem.003_stem.003_none.003
usemtl none.003
s 1
f 9/9/3 10/10/3 11/11/3 12/12/3
f 13/13/4 14/14/4 15/15/4 16/16/4
f 17/17/5 18/18/5 19/19/5 20/20/5
f 21/21/6 22/22/6 23/23/6 24/24/6
f 25/25/3 26/26/3 27/27/3 28/28/3
f 29/29/4 30/30/4 31/31/4 32/32/4
f 33/33/5 34/34/5 35/35/5 36/36/5
f 37/37/6 38/38/6 39/39/6 40/40/6
f 41/41/3 42/42/3 43/43/3 44/44/3
f 45/45/4 46/46/4 47/47/4 48/48/4
f 49/49/5 50/50/5 51/51/5 52/52/5
f 53/53/6 54/54/6 55/55/6 56/56/6
