<?xml version="1.0" encoding="UTF-8" standalone="no"?>
<!-- Created with Inkscape (http://www.inkscape.org/) -->

<svg
   xmlns:dc="http://purl.org/dc/elements/1.1/"
   xmlns:cc="http://creativecommons.org/ns#"
   xmlns:rdf="http://www.w3.org/1999/02/22-rdf-syntax-ns#"
   xmlns:svg="http://www.w3.org/2000/svg"
   xmlns="http://www.w3.org/2000/svg"
   xmlns:xlink="http://www.w3.org/1999/xlink"
   xmlns:sodipodi="http://sodipodi.sourceforge.net/DTD/sodipodi-0.dtd"
   xmlns:inkscape="http://www.inkscape.org/namespaces/inkscape"
   id="svg2"
   version="1.1"
   inkscape:version="0.48.0 r9654"
   width="10"
   height="10"
   sodipodi:docname="football.svg"
   inkscape:export-filename="football.png"
   inkscape:export-xdpi="90"
   inkscape:export-ydpi="90">
  <metadata
     id="metadata8">
    <rdf:RDF>
      <cc:Work
         rdf:about="">
        <dc:format>image/svg+xml</dc:format>
        <dc:type
           rdf:resource="http://purl.org/dc/dcmitype/StillImage" />
        <dc:title />
      </cc:Work>
    </rdf:RDF>
  </metadata>
  <defs
     id="defs6">
    <linearGradient
       id="linearGradient3771">
      <stop
         id="stop3773"
         offset="0"
         style="stop-color:#ffffff;stop-opacity:1;" />
      <stop
         id="stop3777"
         offset="1"
         style="stop-color:#ffffff;stop-opacity:0;" />
    </linearGradient>
    <linearGradient
       id="linearGradient3759">
      <stop
         style="stop-color:#ffffff;stop-opacity:1;"
         offset="0"
         id="stop3761" />
      <stop
         id="stop3767"
         offset="0.54335707"
         style="stop-color:#b5b5b5;stop-opacity:1;" />
      <stop
         style="stop-color:#222222;stop-opacity:1;"
         offset="1"
         id="stop3763" />
    </linearGradient>
    <radialGradient
       inkscape:collect="always"
       xlink:href="#linearGradient3759"
       id="radialGradient3765"
       cx="3.4254546"
       cy="3.3795114"
       fx="3.4254546"
       fy="3.3795114"
       r="4.6527777"
       gradientUnits="userSpaceOnUse"
       gradientTransform="matrix(1.7263695,0,0,1.7263695,-2.0728645,-2.2125266)" />
    <radialGradient
       inkscape:collect="always"
       xlink:href="#linearGradient3771"
       id="radialGradient3779"
       gradientUnits="userSpaceOnUse"
       gradientTransform="matrix(0.94859305,0,0,0.94859305,0.59137343,0.41597775)"
       cx="3.4254546"
       cy="3.3795114"
       fx="3.4254546"
       fy="3.3795114"
       r="4.6527777" />
  </defs>
  <sodipodi:namedview
     pagecolor="#ffffff"
     bordercolor="#666666"
     borderopacity="1"
     objecttolerance="10"
     gridtolerance="10"
     guidetolerance="10"
     inkscape:pageopacity="0"
     inkscape:pageshadow="2"
     inkscape:window-width="1440"
     inkscape:window-height="855"
     id="namedview4"
     showgrid="false"
     inkscape:zoom="8"
     inkscape:cx="-30.091354"
     inkscape:cy="-5.4059316"
     inkscape:window-x="0"
     inkscape:window-y="24"
     inkscape:window-maximized="1"
     inkscape:current-layer="svg2" />
  <path
     sodipodi:type="arc"
     style="color:#000000;fill:#ffffff;fill-opacity:1;fill-rule:nonzero;stroke:none;stroke-width:1.03395057;marker:none;visibility:visible;display:inline;overflow:visible;enable-background:accumulate"
     id="path2987"
     sodipodi:cx="5.0347223"
     sodipodi:cy="4.9652777"
     sodipodi:rx="4.6527777"
     sodipodi:ry="4.6527777"
     d="m 9.6875,4.9652777 a 4.6527777,4.6527777 0 1 1 -9.30555534,0 4.6527777,4.6527777 0 1 1 9.30555534,0 z"
     transform="matrix(1.0746269,0,0,1.0746269,-0.410448,-0.3358209)" />
  <path
     transform="matrix(1.0746269,0,0,1.0746269,-0.410448,-0.3358209)"
     d="m 9.6875,4.9652777 a 4.6527777,4.6527777 0 1 1 -9.30555534,0 4.6527777,4.6527777 0 1 1 9.30555534,0 z"
     sodipodi:ry="4.6527777"
     sodipodi:rx="4.6527777"
     sodipodi:cy="4.9652777"
     sodipodi:cx="5.0347223"
     id="path3757"
     style="color:#000000;fill:url(#radialGradient3765);fill-opacity:1;fill-rule:nonzero;stroke:none;stroke-width:1.03395057000000001;marker:none;visibility:visible;display:inline;overflow:visible;enable-background:accumulate"
     sodipodi:type="arc" />
  <path
     sodipodi:type="arc"
     style="color:#000000;fill:url(#radialGradient3779);fill-opacity:1;fill-rule:nonzero;stroke:none;stroke-width:1.03395057000000001;marker:none;visibility:visible;display:inline;overflow:visible;enable-background:accumulate"
     id="path3769"
     sodipodi:cx="5.0347223"
     sodipodi:cy="4.9652777"
     sodipodi:rx="4.6527777"
     sodipodi:ry="4.6527777"
     d="m 9.6875,4.9652777 a 4.6527777,4.6527777 0 1 1 -9.30555534,0 4.6527777,4.6527777 0 1 1 9.30555534,0 z"
     transform="matrix(1.0746269,0,0,1.0746269,-0.410448,-0.3358209)" />
  <path
     style="fill:#000000"
     d="M 3.2339931,9.6820969 C 2.6326414,9.44776 2.0669827,9.1748905 1.6391982,8.7002985 1.0540176,8.0510883 0.91212926,7.9862316 0.90510084,7.6890027 0.90021458,7.4823648 0.88256542,7.3303829 0.99011466,7.3616681 1.352476,7.4399172 1.7354462,7.4887925 2.1034179,7.5521871 2.1844589,7.5650614 2.2995495,7.2806475 2.414876,7.0193418 2.5332446,6.7511432 2.687833,6.3828343 2.7251921,6.3979004 2.7579562,6.4111135 2.5850938,6.7955173 2.4740197,7.0870578 2.3753124,7.3461385 2.2791092,7.6179541 2.3159608,7.6857638 c 0.1798705,0.3309757 1.185655,1.1746638 1.7072661,1.3903766 0.100779,0.041677 0.246954,0.072984 0.2152669,0.1276977 C 3.9236347,9.7475015 3.7464786,9.7075854 3.6535182,9.7243545 3.5283079,9.7231268 3.3764044,9.7375943 3.2339931,9.6820969 z M 7.1905727,9.0677022 C 7.1017161,9.0569669 7.0081362,9.0314613 6.9826174,9.0110232 6.9570995,8.990585 6.870071,8.9597033 6.789223,8.9423979 6.6194232,8.906053 6.5103881,8.8039293 6.5892559,8.7551067 6.7657092,8.6458743 7.3656009,7.2236896 7.4077452,6.8146859 7.435826,6.5421593 7.4772236,6.5056687 7.8267383,6.4453559 8.1243438,6.394 8.8773501,6.0051829 9.1616034,5.7560933 c 0.078829,-0.069077 0.1190434,-0.076882 0.1927017,-0.037397 0.1420944,0.076171 0.2129172,0.352638 0.214542,0.8375034 0.00137,0.4084386 -0.00938,0.4607505 -0.1510445,0.7350096 C 9.0334109,8.035386 8.4059365,8.7544897 7.9528905,8.9700404 7.6847883,9.0975988 7.565031,9.1129411 7.1905727,9.0677022 z M 5.8494169,4.9061914 C 5.8681909,4.8598224 6.2503854,5.2879551 6.6366626,5.6904948 7.0229396,6.0930344 7.4858919,6.4325757 7.4085549,6.5099127 7.3312179,6.5872497 7.0070116,6.1285828 6.6155344,5.728383 6.2240573,5.328183 5.8306433,4.9525603 5.8494169,4.9061914 z M 2.8044329,5.3710591 C 2.2698386,4.9128799 2.0341736,4.1755003 1.742088,3.5221132 1.7093073,3.4190542 1.6474224,3.2881729 1.6045678,3.2312662 1.5284114,3.1301324 1.521991,3.1294798 1.3200589,3.2022821 1.0591818,3.2963366 0.85929991,3.3246545 0.85929991,3.2675587 c 0,-0.024249 0.0259999,-0.044176 0.0577636,-0.044283 C 0.94883771,3.2231694 1.0771318,3.1710957 1.202169,3.107556 1.4551518,2.9789993 1.553601,2.9653775 1.6356652,3.047575 c 0.043131,0.043202 0.055453,0.035349 0.055453,-0.035333 0,-0.049983 0.070934,-0.1963753 0.1576198,-0.3253149 C 2.3017848,2.1006398 2.8721962,1.5979343 3.4587388,1.1905518 3.5332105,1.1520633 3.6495445,1.1084268 3.6512725,1.0519815 3.6558268,0.9019582 3.6166059,0.67299811 3.6538046,0.4533278 3.7053705,0.14886758 3.7710227,0.2834814 3.7788121,0.70961845 l 0.00678,0.37319595 c 0.920752,-0.011936 1.7056696,0.5466156 2.3418678,0.993 0,0.02118 0.036082,0.087613 0.027541,0.1276081 -0.1115078,0.4835246 -0.147429,1.4228934 -0.3510258,2.4775875 0,0.094326 -0.1438058,0.2551125 -0.2281706,0.2551125 C 4.5997986,5.1276243 3.9093298,5.2851825 3.0124867,5.4750592 2.8994768,5.4930356 2.8828818,5.4533886 2.8044329,5.3710591 z M 0.03964312,5.4108778 C -0.03274146,5.2499777 0.01391422,4.1978127 0.13507449,3.7326376 0.2485717,3.2968404 0.60660005,2.4457596 0.65572984,2.49497 0.66977874,2.509038 0.64915984,2.582787 0.60986434,2.658855 0.57058884,2.734924 0.52467044,2.8835297 0.5078139,2.9890909 0.4828416,3.1455232 0.4932776,3.1935068 0.5642531,3.2485334 0.6465652,3.3123484 0.646936,3.3194714 0.5710341,3.3785685 0.35888346,3.5438127 0.18813814,4.304994 0.12187845,5.0970843 0.13550843,5.1990294 0.09467626,5.5254094 0.03964312,5.4108778 z M 9.4580202,3.4745965 C 9.223589,2.9750488 8.2992318,1.9174488 7.9868385,1.7913485 7.8818341,1.7489631 7.7390421,1.7399988 7.5173635,1.7618782 7.337466,1.7796339 7.1874505,1.7749455 7.1727422,1.7511069 7.1584172,1.7278892 7.2726708,1.6957048 7.42664,1.679586 7.5806101,1.6634671 7.7256119,1.6384991 7.7488663,1.6241045 7.8467947,1.5634825 7.7915674,1.1718898 7.6495396,0.91981955 7.4982384,0.65128831 7.5056365,0.65069288 7.8604657,0.90284299 8.6659555,1.4752424 9.2441057,2.1803288 9.5874798,3.0090318 c 0.075241,0.1815871 0.1512754,0.4134767 0.1689661,0.5153099 0.029402,0.1692467 0.026332,0.177535 -0.035741,0.096483 -0.064182,-0.083802 -0.070409,-0.084191 -0.1134966,-0.00706 -0.038896,0.069617 -0.060798,0.049188 -0.1491881,-0.1391682 z M 6.5434152,1.8628144 C 6.6759007,1.7814083 6.820689,1.7667967 6.820689,1.834833 c 0,0.025458 -0.050288,0.046288 -0.1117512,0.046288 -0.061463,0 -0.1498443,0.011852 -0.1964022,0.02634 -0.046559,0.014487 -0.032663,-0.00561 0.03088,-0.044647 z M 6.943922,1.8039749 C 6.88779,1.7477519 6.911992,1.6984444 6.982433,1.7255179 c 0.038125,0.014655 0.069319,0.045245 0.069319,0.067979 0,0.048529 -0.063664,0.054713 -0.10783,0.010478 z M 3.3290093,0.29279652 c 0.1639565,-0.0713996 0.6628211,-0.2046428 0.6125481,-0.1546432 -0.025417,0.0252787 -0.1918938,0.1052521 -0.2935618,0.1204267 -0.1239088,0.0184945 -0.3809413,0.0611963 -0.3189863,0.0342165 z"
     id="path3060"
     inkscape:connector-curvature="0"
     sodipodi:nodetypes="cssccssssssccscssssssscsszszszcccsscssscccccccccccccccccscccssssscssssccscssccccscssss" />
  <path
     style="fill:#ffffff;fill-opacity:0.3828125;stroke:none"
     d="M 4.6182912,1.5810099 C 4.574097,1.4521103 5.6256953,1.8065558 5.7452426,2.2218254 5.956788,2.9566672 5.5316374,3.5513335 5.4358834,4.3100002 5.3401294,5.0686669 5.3489394,2.7597435 5.325398,2.6637671 5.1817669,2.0781943 4.758443,1.9897861 4.6182912,1.5810099 z"
     id="path3084"
     inkscape:connector-curvature="0"
     sodipodi:nodetypes="sssss" />
</svg>
