<?xml version="1.0" encoding="UTF-8" standalone="no"?>
<!-- Created with Inkscape (http://www.inkscape.org/) -->
<svg
   xmlns:svg="http://www.w3.org/2000/svg"
   xmlns="http://www.w3.org/2000/svg"
   version="1.0"
   width="400"
   height="400"
   id="svg2518">
  <defs
     id="defs2520" />
  <g
     transform="translate(-90.887716,-71.82134)"
     id="layer1">
    <path
       d="M 474.74568,283.93297 C 464.64416,349.59288 437.37004,356.66395 437.37004,356.66395 C 437.37004,356.66395 428.27867,305.14617 436.35989,281.91266"
       id="path2531"
       style="fill:none;fill-rule:evenodd;stroke:#000000;stroke-width:1px;stroke-linecap:butt;stroke-linejoin:miter;stroke-opacity:1" />
    <path
       d="M 436.4599,280.39838 C 428.37896,332.92455 411.61115,336.56091 411.61115,336.56091 C 411.61115,336.56091 399.28754,297.36837 405.7523,278.78219"
       id="path2537"
       style="fill:none;fill-rule:evenodd;stroke:#000000;stroke-width:0.79997319px;stroke-linecap:butt;stroke-linejoin:miter;stroke-opacity:1" />
    <path
       d="M 221.22341,75.741033 C 271.73103,62.60905 300.01531,87.862863 300.01531,87.862863 C 253.54829,115.13698 220.21325,78.771491 221.22341,75.741033 z"
       transform="translate(90.887716,71.82134)"
       id="path2539"
       style="fill:none;fill-rule:evenodd;stroke:#000000;stroke-width:1px;stroke-linecap:butt;stroke-linejoin:miter;stroke-opacity:1" />
    <path
       d="M 244.45692,92.913626 C 246.47722,70.69027 281.83256,73.720728 269.71073,96.954236"
       transform="translate(90.887716,71.82134)"
       id="path2541"
       style="fill:none;fill-rule:evenodd;stroke:#000000;stroke-width:1px;stroke-linecap:butt;stroke-linejoin:miter;stroke-opacity:1" />
    <path
       d="M 400.02042,200.99995 C 400.02042,311.96319 310.41584,402.02031 200.01021,402.02031 C 89.604573,402.02031 0,311.96319 0,200.99995 C 0,90.036718 89.604573,-0.020401001 200.01021,-0.020401001 C 310.41584,-0.020401001 400.02042,90.036718 400.02042,200.99995 z"
       transform="translate(90.887716,71.82134)"
       id="path2583"
       style="fill:none;fill-opacity:1;stroke:#000000;stroke-width:1;stroke-linejoin:round;stroke-miterlimit:4;stroke-opacity:1" />
    <path
       d="M 399.01026,214.13193 L 160.61425,191.90858"
       transform="translate(90.887716,71.82134)"
       id="path2585"
       style="fill:none;fill-rule:evenodd;stroke:#000000;stroke-width:1px;stroke-linecap:butt;stroke-linejoin:miter;stroke-opacity:1" />
  </g>
</svg>
