# Blender 3.6.23
# www.blender.org
mtllib mcl_cocoas_cocoa_stage_0.mtl
o Cocoa_0
v 0.125000 0.250000 0.437500
v 0.125000 0.250000 0.187500
v 0.125000 -0.062500 0.437500
v 0.125000 -0.062500 0.187500
v -0.125000 0.250000 0.187500
v -0.125000 0.250000 0.437500
v -0.125000 -0.062500 0.187500
v -0.125000 -0.062500 0.437500
v -0.000000 0.250000 0.500000
v 0.000000 0.500000 0.500000
v -0.000000 0.250000 0.250000
v 0.000000 0.500000 0.250000
vn -0.0000 -0.0000 -1.0000
vn 1.0000 -0.0000 -0.0000
vn -0.0000 -0.0000 1.0000
vn -1.0000 -0.0000 -0.0000
vn -0.0000 1.0000 -0.0000
vn -0.0000 -1.0000 -0.0000
vt 0.687500 0.437500
vt 0.937500 0.437500
vt 0.937500 0.750000
vt 0.687500 0.750000
vt 0.000000 0.750000
vt 0.250000 0.750000
vt 0.250000 1.000000
vt 0.000000 1.000000
vt 1.000000 0.750000
vt 1.000000 1.000000
vt 0.750000 1.000000
vt 0.750000 0.750000
s 0
usemtl Material
f 4/1/1 7/2/1 5/3/1 2/4/1
f 3/1/2 4/2/2 2/3/2 1/4/2
f 8/1/3 3/2/3 1/3/3 6/4/3
f 7/1/4 8/2/4 6/3/4 5/4/4
f 6/5/5 1/6/5 2/7/5 5/8/5
f 7/5/6 4/6/6 3/7/6 8/8/6
f 9/9/4 10/10/4 12/11/4 11/12/4
