<?xml version="1.0" encoding="UTF-8" standalone="no"?>
<!-- Created with Inkscape (http://www.inkscape.org/) -->
<svg
   xmlns:svg="http://www.w3.org/2000/svg"
   xmlns="http://www.w3.org/2000/svg"
   version="1.0"
   width="12"
   height="12"
   id="svg2645">
  <defs
     id="defs2647" />
  <path
     d="M 8.8631619,9.0368767 C 7.4185425,11.556759 4.9368549,12.848502 3.3211319,11.921556 C 1.7054098,10.994611 1.5679364,8.2002462 3.0141292,5.6812667 C 4.4587486,3.1613845 6.9404362,1.8696412 8.5561583,2.7965866 C 10.171881,3.7235324 10.309355,6.5178972 8.8631619,9.0368767 z M 2.452731,11.359298 C 2.807028,8.393408 7.397025,2.287928 7.938758,2.558798 M 3.138485,12.045048 C 7.02442,9.302038 8.51022,5.073228 9.081681,3.130258 M 3.709946,4.730348 C 6.795836,5.873268 7.938758,6.101858 9.310265,8.159118 M 2.681316,6.673318 C 3.824238,9.187748 6.452959,10.102088 7.938758,10.559248 M 7.207892,2.275238 C 7.332892,-0.349762 8.457892,0.025238 10.207892,0.900238 C 11.957892,1.775238 9.957892,3.400238 9.957892,3.400238"
     id="path2481"
     style="fill:none;fill-opacity:1;stroke:#000000;stroke-width:1;stroke-linejoin:round;stroke-miterlimit:4;stroke-dasharray:none;stroke-opacity:1" />
</svg>
