# Blender v3.6.21 OBJ File: ''
# www.blender.org
mtllib mcl_bamboo_small.mtl
v -0.187500 -0.500000 -0.312500
v -0.312500 -0.500000 -0.312500
v -0.312500 0.500000 -0.312500
v -0.187500 0.500000 -0.312500
v -0.187500 -0.500000 -0.187500
v -0.187500 0.500000 -0.187500
v -0.312500 -0.500000 -0.187500
v -0.312500 0.500000 -0.187500
vt 0.000000 0.000000
vt 0.125000 0.000000
vt 0.125000 1.000000
vt 0.000000 1.000000
vt 0.000000 0.000000
vt 0.125000 0.000000
vt 0.125000 1.000000
vt 0.000000 1.000000
vt 0.000000 0.000000
vt 0.125000 0.000000
vt 0.125000 1.000000
vt 0.000000 1.000000
vt 0.000000 0.000000
vt 0.125000 0.000000
vt 0.125000 1.000000
vt 0.000000 1.000000
vt 0.250000 0.875000
vt 0.375000 0.875000
vt 0.375000 1.000000
vt 0.250000 1.000000
vt 0.250000 0.875000
vt 0.375000 0.875000
vt 0.375000 1.000000
vt 0.250000 1.000000
vn 0.0000 -0.0000 -1.0000
vn 1.0000 -0.0000 0.0000
vn 0.0000 0.0000 1.0000
vn -1.0000 -0.0000 0.0000
vn 0.0000 1.0000 -0.0000
vn 0.0000 -1.0000 0.0000
g cube.006_cube.006_m_5d16c0fd-45b2-e4fe-0476-225d997fd63b.007
usemtl m_5d16c0fd-45b2-e4fe-0476-225d997fd63b.007
s 1
f 1/1/1 2/2/1 3/3/1 4/4/1
f 5/5/2 1/6/2 4/7/2 6/8/2
f 7/9/3 5/10/3 6/11/3 8/12/3
f 2/13/4 7/14/4 8/15/4 3/16/4
f 8/17/5 6/18/5 4/19/5 3/20/5
f 2/21/6 1/22/6 5/23/6 7/24/6
v -0.250000 -0.484375 -0.734375
v -0.250000 0.484375 -0.734375
v -0.250000 0.484375 -0.310547
v -0.250000 -0.484375 -0.310547
v -0.250000 -0.484375 0.234375
v -0.250000 0.484375 0.234375
v -0.250000 0.484375 -0.189453
v -0.250000 -0.484375 -0.189453
vt 0.000000 0.000000
vt 0.000000 1.000000
vt 0.437500 1.000000
vt 0.437500 0.000000
vt 0.937500 0.000000
vt 0.937500 1.000000
vt 0.500000 1.000000
vt 0.500000 0.000000
vn 1.0000 0.0000 0.0000
vn -1.0000 0.0000 0.0000
g plane.013_plane.013_m_5346e348-1c4c-86bc-1130-6007c5641287.007
usemtl m_5346e348-1c4c-86bc-1130-6007c5641287.007
s 1
f 9/25/7 10/26/7 11/27/7 12/28/7
f 13/29/8 14/30/8 15/31/8 16/32/8
v -0.734375 -0.484375 -0.250000
v -0.734375 0.484375 -0.250000
v -0.310547 0.484375 -0.250000
v -0.310547 -0.484375 -0.250000
v 0.234375 -0.484375 -0.250000
v 0.234375 0.484375 -0.250000
v -0.189453 0.484375 -0.250000
v -0.189453 -0.484375 -0.250000
vt 0.937500 0.000000
vt 0.937500 1.000000
vt 0.500000 1.000000
vt 0.500000 0.000000
vt 0.000000 0.000000
vt 0.000000 1.000000
vt 0.437500 1.000000
vt 0.437500 0.000000
vn 0.0000 -0.0000 -1.0000
vn 0.0000 0.0000 1.0000
g plane.014_plane.014_m_5346e348-1c4c-86bc-1130-6007c5641287.007
usemtl m_5346e348-1c4c-86bc-1130-6007c5641287.007
s 1
f 17/33/9 18/34/9 19/35/9 20/36/9
f 21/37/10 22/38/10 23/39/10 24/40/10
