<?xml version="1.0" encoding="UTF-8" standalone="no"?>
<!-- Created with Inkscape (http://www.inkscape.org/) -->

<svg
   xmlns:dc="http://purl.org/dc/elements/1.1/"
   xmlns:cc="http://creativecommons.org/ns#"
   xmlns:rdf="http://www.w3.org/1999/02/22-rdf-syntax-ns#"
   xmlns:svg="http://www.w3.org/2000/svg"
   xmlns="http://www.w3.org/2000/svg"
   xmlns:sodipodi="http://sodipodi.sourceforge.net/DTD/sodipodi-0.dtd"
   xmlns:inkscape="http://www.inkscape.org/namespaces/inkscape"
   width="116.78061"
   height="68.401894"
   id="svg2"
   version="1.1"
   inkscape:version="0.48.4 r9939"
   sodipodi:docname="solved.svg"
   inkscape:export-filename="/home/mateusz/svn/simplesok/img/solved.png"
   inkscape:export-xdpi="249.69899"
   inkscape:export-ydpi="249.69899">
  <defs
     id="defs4" />
  <sodipodi:namedview
     id="base"
     pagecolor="#ffffff"
     bordercolor="#666666"
     borderopacity="1.0"
     inkscape:pageopacity="0.0"
     inkscape:pageshadow="2"
     inkscape:zoom="0.94236332"
     inkscape:cx="-303.47862"
     inkscape:cy="-43.239242"
     inkscape:document-units="px"
     inkscape:current-layer="layer1"
     showgrid="false"
     fit-margin-top="5"
     fit-margin-left="5"
     fit-margin-right="5"
     fit-margin-bottom="5"
     inkscape:window-width="1600"
     inkscape:window-height="845"
     inkscape:window-x="-3"
     inkscape:window-y="-3"
     inkscape:window-maximized="1" />
  <metadata
     id="metadata7">
    <rdf:RDF>
      <cc:Work
         rdf:about="">
        <dc:format>image/svg+xml</dc:format>
        <dc:type
           rdf:resource="http://purl.org/dc/dcmitype/StillImage" />
        <dc:title></dc:title>
      </cc:Work>
    </rdf:RDF>
  </metadata>
  <g
     inkscape:label="Layer 1"
     inkscape:groupmode="layer"
     id="layer1"
     transform="translate(-202.12367,-420.72104)">
    <g
       style="font-size:14px;font-style:normal;font-variant:normal;font-weight:bold;font-stretch:normal;line-height:125%;letter-spacing:0px;word-spacing:0px;opacity:0.9;fill:#ff0000;fill-opacity:1;stroke:none;font-family:Utopia;-inkscape-font-specification:Utopia Bold"
       id="text2985"
       transform="matrix(0.96465541,-0.26351459,0.26351459,0.96465541,-110.67238,84.72881)"
       inkscape:export-filename="/home/mateusz/svn/private/atomix/completed.png"
       inkscape:export-xdpi="80"
       inkscape:export-ydpi="80">
      <path
         inkscape:connector-curvature="0"
         d="m 225.25492,456.58006 c -0.532,1.54 -1.134,2.758 -2.716,2.758 -2.492,0 -2.842,-2.954 -2.842,-4.536 0,-1.02199 0.196,-4.284 2.73,-4.284 1.792,0 2.282,1.47001 2.604,2.478 l 0.532,0 0,-2.506 c -0.84,-0.504 -2.31,-0.616 -3.01,-0.616 -1.974,0 -3.304,0.54601 -4.13,1.47 -0.854,0.952 -1.204,2.28201 -1.204,3.682 0,2.996 1.526,4.956 5.124,4.956 0.98,0 2.436,-0.168 3.276,-0.672 l 0.168,-2.73 -0.532,0"
         id="path3773" />
      <path
         inkscape:connector-curvature="0"
         d="m 231.65926,459.33806 c -2.02999,0 -2.282,-2.506 -2.31,-4.41 0.028,-1.79199 0.28001,-4.41 2.31,-4.41 2.03,0 2.282,2.61801 2.31,4.41 -0.028,1.904 -0.28,4.41 -2.31,4.41 m 0,-9.464 c -3.21999,0 -4.788,1.89001 -4.788,5.054 0,3.164 1.56801,5.054 4.788,5.054 3.22,0 4.788,-1.89 4.788,-5.054 0,-3.16399 -1.568,-5.054 -4.788,-5.054"
         id="path3775" />
      <path
         inkscape:connector-curvature="0"
         d="m 249.41936,459.77206 0,-0.532 c -0.994,-0.042 -1.106,-0.112 -1.106,-0.826 l 0,-6.972 c 0,-0.714 0.112,-0.784 1.106,-0.826 l 0,-0.532 -3.64,0 c -0.238,0.672 -0.714,2.04401 -1.092,3.08 l -1.19,3.276 -0.042,0 -1.666,-4.298 c -0.238,-0.63 -0.56,-1.456 -0.742,-2.058 l -3.696,0 0,0.532 c 0.994,0.042 1.106,0.112 1.106,0.826 l 0,4.802 c 0,1.148 -0.014,1.694 -0.07,2.184 -0.042,0.49 -0.182,0.7 -0.504,0.742 l -0.49,0.07 0,0.532 3.346,0 0,-0.532 -0.756,-0.07 c -0.392,-0.028 -0.546,-0.252 -0.588,-0.742 -0.056,-0.504 -0.07,-1.05 -0.07,-2.184 l 0,-4.774 0.042,0 3.01,8.05 0.84,0 2.926,-8.05 0.042,0 0,6.944 c 0,0.714 -0.112,0.784 -1.106,0.826 l 0,0.532 4.34,0"
         id="path3777" />
      <path
         inkscape:connector-curvature="0"
         d="m 253.68892,451.24606 c 0,-0.392 0.112,-0.518 0.826,-0.518 0.938,0 1.736,0.63001 1.736,2.24 0,1.064 -0.364,2.31 -1.778,2.31 -0.546,0 -0.784,-0.07 -0.784,-0.602 l 0,-3.43 m 1.344,8.526 0,-0.504 c -1.232,-0.07 -1.344,-0.14 -1.344,-0.854 l 0,-2.492 0.84,0 c 1.316,0 2.352,-0.238 2.996,-0.7 0.7,-0.504 1.078,-1.26 1.078,-2.296 0,-1.11999 -0.504,-1.89 -1.19,-2.31 -0.686,-0.42 -1.596,-0.532 -2.73,-0.532 l -4.34,0 0,0.532 c 0.994,0.042 1.106,0.112 1.106,0.826 l 0,6.972 c 0,0.714 -0.112,0.784 -1.106,0.826 l 0,0.532 4.69,0"
         id="path3779" />
      <path
         inkscape:connector-curvature="0"
         d="m 262.79439,451.44206 c 0,-0.714 0.112,-0.784 1.274,-0.826 l 0,-0.532 -4.62,0 0,0.532 c 0.994,0.042 1.106,0.112 1.106,0.826 l 0,6.972 c 0,0.714 -0.112,0.784 -1.106,0.826 l 0,0.532 7.546,0 0.168,-2.814 -0.532,0 c -0.504,1.4 -0.686,2.17 -2.282,2.17 -1.176,0 -1.554,-0.126 -1.554,-1.022 l 0,-6.664"
         id="path3781" />
      <path
         inkscape:connector-curvature="0"
         d="m 268.75751,458.41406 c 0,0.714 -0.112,0.784 -1.106,0.826 l 0,0.532 7.826,0 0.168,-2.912 -0.532,0 c -0.504,1.498 -0.742,2.268 -2.394,2.268 -1.28799,0 -1.722,-0.126 -1.722,-1.022 l 0,-3.052 1.33,0 c 0.882,0 1.064,0.23801 1.288,1.26 l 0.532,0 0,-3.248 -0.532,0 c -0.224,1.022 -0.406,1.26 -1.288,1.26 l -1.33,0 0,-3.094 c 0,-0.406 0.098,-0.504 0.49,-0.504 l 1.05,0 c 1.442,0 1.694,0.56001 2.128,1.946 l 0.532,0 0,-2.59 -7.546,0 0,0.532 c 0.994,0.042 1.106,0.112 1.106,0.826 l 0,6.972"
         id="path3783" />
      <path
         inkscape:connector-curvature="0"
         d="m 281.4822,450.72806 0.56,0 c 1.288,0 1.47,0.58801 1.946,1.988 l 0.532,0 0,-2.632 -8.316,0 0,2.632 0.532,0 c 0.476,-1.39999 0.658,-1.988 1.946,-1.988 l 0.56,0 0,7.714 c 0,0.504 -0.098,0.714 -0.546,0.742 l -0.798,0.056 0,0.532 4.928,0 0,-0.532 -0.798,-0.056 c -0.448,-0.028 -0.546,-0.238 -0.546,-0.742 l 0,-7.714"
         id="path3785" />
      <path
         inkscape:connector-curvature="0"
         d="m 286.28486,458.41406 c 0,0.714 -0.112,0.784 -1.106,0.826 l 0,0.532 7.826,0 0.168,-2.912 -0.532,0 c -0.504,1.498 -0.742,2.268 -2.394,2.268 -1.288,0 -1.722,-0.126 -1.722,-1.022 l 0,-3.052 1.33,0 c 0.882,0 1.064,0.23801 1.288,1.26 l 0.532,0 0,-3.248 -0.532,0 c -0.224,1.022 -0.406,1.26 -1.288,1.26 l -1.33,0 0,-3.094 c 0,-0.406 0.098,-0.504 0.49,-0.504 l 1.05,0 c 1.442,0 1.694,0.56001 2.128,1.946 l 0.532,0 0,-2.59 -7.546,0 0,0.532 c 0.994,0.042 1.106,0.112 1.106,0.826 l 0,6.972"
         id="path3787" />
      <path
         inkscape:connector-curvature="0"
         d="m 297.32955,451.12006 c 0,-0.322 0.28,-0.392 1.162,-0.392 1.87599,0 2.842,1.40001 2.842,4.102 0,3.696 -1.51201,4.298 -2.884,4.298 -0.882,0 -1.12,-0.168 -1.12,-0.616 l 0,-7.392 m -3.346,-1.036 0,0.532 c 0.99399,0.042 1.106,0.112 1.106,0.826 l 0,6.972 c 0,0.714 -0.11201,0.784 -1.106,0.826 l 0,0.532 4.186,0 c 2.18399,0 5.642,-0.294 5.642,-4.942 0,-1.56799 -0.40601,-2.744 -1.218,-3.542 -0.812,-0.79799 -1.98801,-1.19 -3.808,-1.204 l -4.802,0"
         id="path3789" />
    </g>
    <path
       inkscape:connector-curvature="0"
       style="opacity:0.7;fill:none;stroke:#ff0000;stroke-width:2.40000010000000019;stroke-linecap:round;stroke-linejoin:round;stroke-miterlimit:4;stroke-opacity:1"
       d="m 214.58307,449.87464 82.91611,-22.65016 c 4.53683,-1.23933 9.18697,1.41535 10.4263,5.95219 l 4.4741,16.37849 c 1.23933,4.53684 -1.41535,9.18697 -5.95219,10.42629 l -82.9161,22.65017 c -4.53684,1.23933 -9.18697,-1.41535 -10.42629,-5.95219 l -4.47411,-16.37849 c -1.23933,-4.53684 1.41534,-9.18697 5.95218,-10.4263 z"
       id="rect2989"
       inkscape:export-filename="/home/mateusz/svn/private/atomix/completed.png"
       inkscape:export-xdpi="80"
       inkscape:export-ydpi="80" />
  </g>
</svg>
