/* XPM */

/* Copyright: 1998-1999 Joosa Reikkinen
 * License: WTFPL
 * Extracted from game screenshot.
 */

static char * liero_xpm[] = {
"9 9 8 1",
" 	c None",
".	c #3CAC3C",
"+	c #68BC68",
"@	c #2C842C",
"#	c #D8D8D8",
"$	c #B4B4B4",
"%	c #909090",
"&	c #206420",
"         ",
"    ..   ",
"   .++.  ",
"   +..@  ",
"   +###$%",
"   .++.@ ",
" @.@+.   ",
"&.++.@   ",
"@. .@    "};
