<?xml version="1.0" encoding="UTF-8" standalone="no"?>
<svg
   xmlns:dc="http://purl.org/dc/elements/1.1/"
   xmlns:cc="http://creativecommons.org/ns#"
   xmlns:rdf="http://www.w3.org/1999/02/22-rdf-syntax-ns#"
   xmlns:svg="http://www.w3.org/2000/svg"
   xmlns="http://www.w3.org/2000/svg"
   xmlns:sodipodi="http://sodipodi.sourceforge.net/DTD/sodipodi-0.dtd"
   xmlns:inkscape="http://www.inkscape.org/namespaces/inkscape"
   version="1.0"
   width="256"
   height="256"
   viewBox="0 0 191.99999 191.99999"
   preserveAspectRatio="xMidYMid meet"
   id="svg3692"
   sodipodi:docname="znax.svg"
   inkscape:version="0.92.1 r15371">
  <defs
     id="defs3696" />
  <sodipodi:namedview
     pagecolor="#ffffff"
     bordercolor="#666666"
     borderopacity="1"
     objecttolerance="10"
     gridtolerance="10"
     guidetolerance="10"
     inkscape:pageopacity="1"
     inkscape:pageshadow="2"
     inkscape:window-width="1920"
     inkscape:window-height="996"
     id="namedview3694"
     showgrid="false"
     inkscape:zoom="2.8284271"
     inkscape:cx="269.33091"
     inkscape:cy="95.834711"
     inkscape:window-x="-8"
     inkscape:window-y="-8"
     inkscape:window-maximized="1"
     inkscape:current-layer="layer1"
     units="px"
     showborder="false"
     inkscape:pagecheckerboard="false" />
  <metadata
     id="metadata3680">
Created by potrace 1.16, written by Peter Selinger 2001-2019
<rdf:RDF>
  <cc:Work
     rdf:about="">
    <dc:format>image/svg+xml</dc:format>
    <dc:type
       rdf:resource="http://purl.org/dc/dcmitype/StillImage" />
    <dc:title />
  </cc:Work>
</rdf:RDF>
</metadata>
  <g
     inkscape:groupmode="layer"
     id="layer1"
     inkscape:label="Layer 1"
     style="display:inline"
     transform="translate(0,145.99998)">
    <rect
       style="fill:#ffffff;fill-opacity:1;stroke-width:0.74999994"
       id="rect3898"
       width="208.49998"
       height="211.49998"
       x="-12.374999"
       y="-160.24998" />
    <g
       style="fill:#000000;stroke:none"
       id="g3755"
       transform="matrix(0.42098737,0,0,-0.42605951,-4.3756867,43.588998)">
      <path
         style="display:inline;fill:#1e66de;stroke-width:0.56468779"
         d="M 54.283203 3.6269531 C 31.836024 3.5692575 17.354627 5.3875579 13.25 9.0800781 C 7.6368347 14.192785 5.049242 30.217417 6.171875 71.119141 L 7.1679688 119.60547 L 2.5859375 119.85547 L 7.1757812 119.95117 L 7.2929688 125.6543 L 7.6542969 119.96289 L 56.472656 120.99023 C 96.887446 122.12639 112.0419 119.85462 117.09375 114.17383 C 121.58428 109.06111 123.26912 88.042634 122.14648 55.662109 L 120.46289 5.6699219 L 71.066406 3.9667969 C 65.067336 3.7537669 59.463321 3.6402675 54.283203 3.6269531 z "
         transform="matrix(1.781526,0,0,-1.7603174,10.393867,444.98239)"
         id="path3682-7" />
    </g>
    <g
       id="g3759">
      <path
         style="display:inline;fill:#de781e;stroke:none;stroke-width:0.56468779"
         d="M 182.57227 2.8027344 C 160.12508 2.7450384 145.64368 4.56335 141.53906 8.2558594 C 135.92589 13.36858 133.68009 28.705701 134.80273 69.607422 L 135.83008 119.45312 L 131.6875 119.85547 L 135.83984 119.94336 L 135.92578 124.14453 L 136.53906 119.95703 L 185.57422 120.99023 C 225.98901 122.12639 241.14543 119.85462 246.19727 114.17383 C 250.6878 109.06111 252.37067 88.042631 251.24805 55.662109 L 248.75 4.8476562 L 199.35547 3.1425781 C 193.3564 2.9295481 187.75238 2.8160488 182.57227 2.8027344 z "
         transform="matrix(0.74999996,0,0,0.74999996,0,-145.99998)"
         id="path3684-0" />
    </g>
    <path
       style="display:inline;fill:#d9d91a;stroke:none;stroke-width:0.56468779"
       d="M 53.46875 133.46094 C 31.021571 133.40324 16.542128 135.22155 12.4375 138.91406 C 6.8243348 144.02678 4.5785387 159.36391 5.7011719 200.26562 L 6.7304688 250.20703 L 2.5859375 250.51367 L 6.7382812 250.60156 L 6.8242188 254.80273 L 7.2246094 250.61133 L 56.472656 251.64844 C 96.887446 252.7846 112.0419 250.51282 117.09375 244.83203 C 121.58428 239.71932 123.26912 218.70084 122.14648 186.32031 L 119.64844 135.50586 L 70.251953 133.80078 C 64.252883 133.58775 58.648868 133.47425 53.46875 133.46094 z "
       transform="matrix(0.74999996,0,0,0.74999996,0,-145.99998)"
       id="path3686-5" />
    <g
       id="g3746">
      <path
         style="display:inline;fill:#dc1c76;stroke:none;stroke-width:0.56468785"
         d="M 182.57227 133.46094 C 160.12508 133.40324 145.64368 135.22155 141.53906 138.91406 C 135.92589 144.02678 133.68009 159.36391 134.80273 200.26562 L 135.83203 250.24414 L 131.6875 250.51367 L 135.83984 250.60156 L 135.92578 254.80273 L 136.2168 250.60938 L 185.57422 251.64844 C 225.98901 252.7846 241.14542 250.51283 246.19727 244.83203 C 250.6878 239.71932 252.37068 218.70084 251.24805 186.32031 L 248.75 135.50586 L 199.35547 133.80078 C 193.3564 133.58775 187.75238 133.47425 182.57227 133.46094 z "
         transform="matrix(0.74999996,0,0,0.74999996,0,-145.99998)"
         id="path3688" />
    </g>
  </g>
</svg>
