<?xml version="1.0" encoding="UTF-8" standalone="no"?>
<svg
   viewBox="0 0 1200 700"
   width="1200"
   height="700"
   version="1.1"
   id="svg23"
   sodipodi:docname="PM_MAPPINGS_TEMPLATE.svg"
   inkscape:version="1.4.2 (ebf0e940d0, 2025-05-08)"
   inkscape:export-filename="Pmtest.png"
   inkscape:export-xdpi="96"
   inkscape:export-ydpi="96"
   xmlns:inkscape="http://www.inkscape.org/namespaces/inkscape"
   xmlns:sodipodi="http://sodipodi.sourceforge.net/DTD/sodipodi-0.dtd"
   xmlns="http://www.w3.org/2000/svg"
   xmlns:svg="http://www.w3.org/2000/svg">
  <defs
     id="defs23" />
  <sodipodi:namedview
     id="namedview23"
     pagecolor="#ffffff"
     bordercolor="#000000"
     borderopacity="0.25"
     inkscape:showpageshadow="2"
     inkscape:pageopacity="0.0"
     inkscape:pagecheckerboard="0"
     inkscape:deskcolor="#d1d1d1"
     inkscape:zoom="1.84"
     inkscape:cx="612.5"
     inkscape:cy="285.05435"
     inkscape:window-width="3072"
     inkscape:window-height="1700"
     inkscape:window-x="0"
     inkscape:window-y="0"
     inkscape:window-maximized="1"
     inkscape:current-layer="svg23"
     showgrid="false"
     showguides="false" />
  <!-- Background device body -->
  <rect
     x="40"
     y="40.829384"
     rx="40"
     ry="40"
     width="1120"
     height="620"
     fill="#334152"
     stroke="#1f2a33"
     stroke-width="6"
     id="main" />
  <!-- Top and bottom notches (shoulders) -->
  <!-- Screen -->
  <!-- Left cluster: D-pad, select, left stick -->
  <!-- D-pad base -->
  <!-- Left analog stick -->
  <!-- Right cluster: face buttons, START, right stick -->
  <!-- Face buttons -->
  <g
     id="face"
     transform="translate(1028.8389,270.68721)">
    <g
       id="y_button">
      <circle
         cx="-50"
         cy="0"
         fill="#d1d5d9"
         stroke="#222222"
         stroke-width="3"
         id="y_circle"
         style="fill:#ffcc00"
         r="38" />
      <text
         x="-64.691116"
         y="14.608696"
         font-family="Arial"
         font-size="20px"
         fill="#333333"
         id="y_text"
         style="font-style:normal;font-variant:normal;font-weight:normal;font-stretch:normal;font-size:48px;font-family:Arial;-inkscape-font-specification:'Arial, Normal';font-variant-ligatures:normal;font-variant-caps:normal;font-variant-numeric:normal;font-variant-east-asian:normal;fill:#ffffff"><tspan
           sodipodi:role="line"
           id="tspan16"
           x="-64.691116"
           y="14.608696">e</tspan></text>
      <text
         x="-67.951988"
         y="3.1956522"
         font-family="Arial"
         font-size="20px"
         fill="#333333"
         id="text36"
         style="font-style:normal;font-variant:normal;font-weight:normal;font-stretch:normal;font-size:20px;font-family:Arial;-inkscape-font-specification:'Arial, Normal';font-variant-ligatures:normal;font-variant-caps:normal;font-variant-numeric:normal;font-variant-east-asian:normal;fill:#333333"
         inkscape:label="y_label"><tspan
           sodipodi:role="line"
           id="tspan14" /></text>
    </g>
    <g
       id="x_button">
      <circle
         cx="7.4644547"
         cy="-59.075829"
         fill="#d1d5d9"
         stroke="#222222"
         stroke-width="3"
         id="circle13"
         r="38"
         style="fill:#ff0000" />
      <text
         x="-6.6831846"
         y="-43.351841"
         font-family="Arial"
         font-size="20px"
         fill="#333333"
         id="text13"
         style="font-style:normal;font-variant:normal;font-weight:normal;font-stretch:normal;font-size:48px;font-family:Arial;-inkscape-font-specification:'Arial, Normal';font-variant-ligatures:normal;font-variant-caps:normal;font-variant-numeric:normal;font-variant-east-asian:normal;fill:#ffffff"
         inkscape:label="x_text"><tspan
           sodipodi:role="line"
           id="tspan13"
           x="-6.6831846"
           y="-43.351841">x</tspan></text>
      <text
         x="-12.661446"
         y="-54.764885"
         font-family="Arial"
         font-size="20px"
         fill="#333333"
         id="text35"
         style="font-style:normal;font-variant:normal;font-weight:normal;font-stretch:normal;font-size:20px;font-family:Arial;-inkscape-font-specification:'Arial, Normal';font-variant-ligatures:normal;font-variant-caps:normal;font-variant-numeric:normal;font-variant-east-asian:normal;fill:#333333"
         inkscape:label="x_label"><tspan
           sodipodi:role="line"
           id="tspan12" /></text>
    </g>
    <g
       id="b_button"
       transform="translate(2.7173913,14.673913)">
      <circle
         cx="0"
         cy="48.531212"
         fill="#d1d5d9"
         stroke="#222222"
         stroke-width="3"
         id="b_circle"
         r="38"
         style="fill:#2a7fff" />
      <text
         x="-18.20956"
         y="70.222748"
         font-family="Arial"
         font-size="20px"
         fill="#333333"
         id="text33"
         style="font-style:normal;font-variant:normal;font-weight:normal;font-stretch:normal;font-size:20px;font-family:Arial;-inkscape-font-specification:'Arial, Normal';font-variant-ligatures:normal;font-variant-caps:normal;font-variant-numeric:normal;font-variant-east-asian:normal;fill:#333333"
         inkscape:label="b_label"><tspan
           sodipodi:role="line"
           id="tspan17"
           x="-18.20956"
           y="70.222748" /></text>
      <text
         x="-9.0953398"
         y="63.429935"
         font-family="Arial"
         font-size="20px"
         fill="#333333"
         id="b_text"
         style="font-style:normal;font-variant:normal;font-weight:normal;font-stretch:normal;font-size:48px;font-family:Arial;-inkscape-font-specification:'Arial, Normal';font-variant-ligatures:normal;font-variant-caps:normal;font-variant-numeric:normal;font-variant-east-asian:normal;fill:#ffffff;stroke-width:0.941917"
         transform="scale(0.94191688,1.0616648)"><tspan
           sodipodi:role="line"
           id="tspan18"
           x="-9.0953398"
           y="63.429935"
           style="font-style:normal;font-variant:normal;font-weight:normal;font-stretch:normal;font-size:48px;font-family:Arial;-inkscape-font-specification:'Arial, Normal';font-variant-ligatures:normal;font-variant-caps:normal;font-variant-numeric:normal;font-variant-east-asian:normal;stroke-width:0.941917">i</tspan></text>
    </g>
    <g
       id="a_button">
      <circle
         cx="63.684834"
         cy="2.0734599"
         fill="#d1d5d9"
         stroke="#222222"
         stroke-width="3.96901"
         id="a_circle"
         r="38"
         style="fill:#00d400" />
      <text
         x="46.631676"
         y="19.253147"
         font-family="Arial"
         font-size="20px"
         fill="#333333"
         id="a_text"
         style="font-style:normal;font-variant:normal;font-weight:normal;font-stretch:normal;font-size:48px;font-family:Arial;-inkscape-font-specification:'Arial, Normal';font-variant-ligatures:normal;font-variant-caps:normal;font-variant-numeric:normal;font-variant-east-asian:normal;fill:#ffffff"><tspan
           sodipodi:role="line"
           id="tspan20"
           x="46.631676"
           y="19.253147">enter</tspan></text>
      <text
         x="42.967133"
         y="8.3445292"
         font-family="Arial"
         font-size="20px"
         fill="#333333"
         id="a_mapping"
         style="font-style:normal;font-variant:normal;font-weight:normal;font-stretch:normal;font-size:20px;font-family:Arial;-inkscape-font-specification:'Arial, Normal';font-variant-ligatures:normal;font-variant-caps:normal;font-variant-numeric:normal;font-variant-east-asian:normal;fill:#333333"
         inkscape:transform-center-x="18.246445"
         inkscape:transform-center-y="-3.3175355"
         inkscape:label="a_label"><tspan
           sodipodi:role="line"
           id="tspan19" /></text>
    </g>
  </g>
  <!-- Right analog stick -->
  <g
     id="rstick"
     transform="translate(1014.9052,497.1801)">
    <circle
       cx="0"
       cy="0"
       r="54"
       fill="#2f3b41"
       stroke="#111111"
       stroke-width="6"
       id="circle17" />
    <text
       x="-11.025673"
       y="-47.300636"
       font-family="Arial"
       font-size="16px"
       fill="#d1d5d9"
       id="ra_up"
       style="font-style:normal;font-variant:normal;font-weight:normal;font-stretch:normal;font-size:48px;font-family:Arial;-inkscape-font-specification:'Arial, Normal';font-variant-ligatures:normal;font-variant-caps:normal;font-variant-numeric:normal;font-variant-east-asian:normal;fill:#d1d5d9"><tspan
         sodipodi:role="line"
         id="tspan74"
         x="-11.025673"
         y="-47.300636">k</tspan></text>
    <text
       x="-11.079678"
       y="79.392136"
       font-family="Arial"
       font-size="16px"
       fill="#d1d5d9"
       id="ra_down"
       style="font-style:normal;font-variant:normal;font-weight:normal;font-stretch:normal;font-size:48px;font-family:Arial;-inkscape-font-specification:'Arial, Normal';font-variant-ligatures:normal;font-variant-caps:normal;font-variant-numeric:normal;font-variant-east-asian:normal;fill:#d1d5d9"><tspan
         sodipodi:role="line"
         id="tspan71"
         x="-11.079678"
         y="79.392136">j</tspan></text>
    <text
       x="-81.976616"
       y="8.2072887"
       font-family="Arial"
       font-size="16px"
       fill="#d1d5d9"
       id="ra_left"
       style="font-style:normal;font-variant:normal;font-weight:normal;font-stretch:normal;font-size:48px;font-family:Arial;-inkscape-font-specification:'Arial, Normal';font-variant-ligatures:normal;font-variant-caps:normal;font-variant-numeric:normal;font-variant-east-asian:normal;fill:#d1d5d9"><tspan
         sodipodi:role="line"
         id="tspan72"
         x="-81.976616"
         y="8.2072887">h</tspan></text>
    <text
       x="44.226238"
       y="8.3494701"
       font-family="Arial"
       font-size="16px"
       fill="#d1d5d9"
       id="ra_right"
       style="font-style:normal;font-variant:normal;font-weight:normal;font-stretch:normal;font-size:48px;font-family:Arial;-inkscape-font-specification:'Arial, Normal';font-variant-ligatures:normal;font-variant-caps:normal;font-variant-numeric:normal;font-variant-east-asian:normal;fill:#d1d5d9"><tspan
         sodipodi:role="line"
         id="tspan70"
         x="44.226238"
         y="8.3494701">l</tspan></text>
    <circle
       cx="0"
       cy="0"
       r="26"
       fill="#49585d"
       stroke="#111111"
       stroke-width="3"
       id="circle18" />
    <text
       x="-69.354515"
       y="118.27016"
       font-family="Arial"
       font-size="22px"
       fill="#d1d5d9"
       id="text32"
       style="font-style:normal;font-variant:normal;font-weight:normal;font-stretch:normal;font-size:22px;font-family:Arial;-inkscape-font-specification:'Arial, Normal';font-variant-ligatures:normal;font-variant-caps:normal;font-variant-numeric:normal;font-variant-east-asian:normal;fill:#d1d5d9"
       inkscape:label="ra_text"><tspan
         sodipodi:role="line"
         id="tspan22"
         x="-69.354515"
         y="118.27016">RIGHT STICK</tspan></text>
  </g>
  <g
     id="lstick"
     transform="translate(179.3128,473.12796)">
    <circle
       cx="0"
       cy="0"
       r="54"
       fill="#2f3b41"
       stroke="#111111"
       stroke-width="6"
       id="circle11" />
    <circle
       cx="0"
       cy="0"
       r="26"
       fill="#49585d"
       stroke="#111111"
       stroke-width="3"
       id="circle12" />
    <text
       x="34.808895"
       y="5.1597533"
       font-family="Arial"
       font-size="16px"
       fill="#d1d5d9"
       id="la_right"
       style="font-style:normal;font-variant:normal;font-weight:normal;font-stretch:normal;font-size:48px;font-family:Arial;-inkscape-font-specification:'Arial, Normal';font-variant-ligatures:normal;font-variant-caps:normal;font-variant-numeric:normal;font-variant-east-asian:normal;fill:#d1d5d9"><tspan
         sodipodi:role="line"
         id="tspan69"
         x="34.808895"
         y="5.1597533">l</tspan></text>
    <text
       x="-9.488452"
       y="-48.976883"
       font-family="Arial"
       font-size="16px"
       fill="#d1d5d9"
       id="la_up"
       style="font-style:normal;font-variant:normal;font-weight:normal;font-stretch:normal;font-size:48px;font-family:Arial;-inkscape-font-specification:'Arial, Normal';font-variant-ligatures:normal;font-variant-caps:normal;font-variant-numeric:normal;font-variant-east-asian:normal;fill:#d1d5d9"><tspan
         sodipodi:role="line"
         id="tspan66"
         x="-9.488452"
         y="-48.976883">k</tspan></text>
    <text
       x="-6.8534908"
       y="79.232452"
       font-family="Arial"
       font-size="16px"
       fill="#d1d5d9"
       id="la_down"
       style="font-style:normal;font-variant:normal;font-weight:normal;font-stretch:normal;font-size:48px;font-family:Arial;-inkscape-font-specification:'Arial, Normal';font-variant-ligatures:normal;font-variant-caps:normal;font-variant-numeric:normal;font-variant-east-asian:normal;fill:#d1d5d9"><tspan
         sodipodi:role="line"
         id="tspan68"
         x="-6.8534908"
         y="79.232452">j</tspan></text>
    <text
       x="-87.141457"
       y="132.11467"
       font-family="Arial"
       font-size="22px"
       fill="#d1d5d9"
       id="text30"
       style="font-style:normal;font-variant:normal;font-weight:normal;font-stretch:normal;font-size:22px;font-family:Arial;-inkscape-font-specification:'Arial, Normal';font-variant-ligatures:normal;font-variant-caps:normal;font-variant-numeric:normal;font-variant-east-asian:normal;fill:#d1d5d9"
       inkscape:label="la_text"><tspan
         sodipodi:role="line"
         id="tspan21"
         x="-87.141457"
         y="132.11467">LEFT STICK</tspan></text>
    <text
       x="-66.824127"
       y="5.1314049"
       font-family="Arial"
       font-size="16px"
       fill="#d1d5d9"
       id="la_left"
       style="font-style:normal;font-variant:normal;font-weight:normal;font-stretch:normal;font-size:48px;font-family:Arial;-inkscape-font-specification:'Arial, Normal';font-variant-ligatures:normal;font-variant-caps:normal;font-variant-numeric:normal;font-variant-east-asian:normal;fill:#d1d5d9"><tspan
         sodipodi:role="line"
         id="tspan67"
         x="-66.824127"
         y="5.1314049">h</tspan></text>
  </g>
  <!-- Button labels with keyboard mappings -->
  <g
     id="dpad"
     transform="translate(169.85782,265.61611)">
    <rect
       x="-60"
       y="-60"
       width="120"
       height="120"
       rx="14"
       ry="14"
       fill="#3a4951"
       stroke="#222a2f"
       stroke-width="4"
       id="rect8" />
    <!-- D-pad arrows -->
    <polygon
       points="-20,-10 0,-36 20,-10 "
       fill="#263238"
       id="polygon8" />
    <polygon
       points="-20,10 0,36 20,10 "
       fill="#263238"
       id="polygon9" />
    <polygon
       points="-10,-20 -36,0 -10,20 "
       fill="#263238"
       id="polygon10" />
    <polygon
       points="10,-20 36,0 10,20 "
       fill="#263238"
       id="polygon11" />
    <text
       x="-62.532455"
       y="15.806206"
       font-family="Arial"
       font-size="18px"
       fill="#d1d5d9"
       id="dpad_left"
       style="font-style:normal;font-variant:normal;font-weight:normal;font-stretch:normal;font-size:48px;font-family:Arial;-inkscape-font-specification:'Arial, Normal';font-variant-ligatures:normal;font-variant-caps:normal;font-variant-numeric:normal;font-variant-east-asian:normal;fill:#d1d5d9"><tspan
         sodipodi:role="line"
         id="tspan4"
         x="-62.532455"
         y="15.806206">h</tspan></text>
    <text
       x="-60.7243"
       y="8.5972738"
       font-family="Arial"
       font-size="18px"
       fill="#d1d5d9"
       id="text92"
       style="font-style:normal;font-variant:normal;font-weight:normal;font-stretch:normal;font-size:18px;font-family:Arial;-inkscape-font-specification:'Arial, Normal';font-variant-ligatures:normal;font-variant-caps:normal;font-variant-numeric:normal;font-variant-east-asian:normal;fill:#d1d5d9"
       inkscape:label="dpad_left_label"><tspan
         sodipodi:role="line"
         id="tspan3" /></text>
    <text
       x="-10.252932"
       y="76.811783"
       font-family="Arial"
       font-size="18px"
       fill="#d1d5d9"
       id="dpad_down"
       style="font-style:normal;font-variant:normal;font-weight:normal;font-stretch:normal;font-size:48px;font-family:Arial;-inkscape-font-specification:'Arial, Normal';font-variant-ligatures:normal;font-variant-caps:normal;font-variant-numeric:normal;font-variant-east-asian:normal;fill:#d1d5d9"><tspan
         sodipodi:role="line"
         id="tspan6"
         x="-10.252932"
         y="76.811783">j</tspan></text>
    <text
       x="30.580051"
       y="55.336403"
       font-family="Arial"
       font-size="18px"
       fill="#d1d5d9"
       id="text91"
       style="font-style:normal;font-variant:normal;font-weight:normal;font-stretch:normal;font-size:18px;font-family:Arial;-inkscape-font-specification:'Arial, Normal';font-variant-ligatures:normal;font-variant-caps:normal;font-variant-numeric:normal;font-variant-east-asian:normal;fill:#d1d5d9"
       inkscape:label="dpad_down_label"><tspan
         sodipodi:role="line"
         id="tspan5" /></text>
    <text
       x="9.9278765"
       y="-41.946205"
       font-family="Arial"
       font-size="18px"
       fill="#d1d5d9"
       id="text93"
       style="font-style:normal;font-variant:normal;font-weight:normal;font-stretch:normal;font-size:18px;font-family:Arial;-inkscape-font-specification:'Arial, Normal';font-variant-ligatures:normal;font-variant-caps:normal;font-variant-numeric:normal;font-variant-east-asian:normal;fill:#d1d5d9"
       inkscape:label="dpad_up_label"><tspan
         sodipodi:role="line"
         id="tspan7" /></text>
    <text
       x="-6.479485"
       y="-41.563972"
       font-family="Arial"
       font-size="18px"
       fill="#d1d5d9"
       id="dpad_up"
       style="font-style:normal;font-variant:normal;font-weight:normal;font-stretch:normal;font-size:48px;font-family:Arial;-inkscape-font-specification:'Arial, Normal';font-variant-ligatures:normal;font-variant-caps:normal;font-variant-numeric:normal;font-variant-east-asian:normal;fill:#d1d5d9"><tspan
         sodipodi:role="line"
         id="tspan8"
         x="-6.479485"
         y="-41.563972">k</tspan></text>
    <text
       x="98.514832"
       y="4.2494459"
       font-family="Arial"
       font-size="18px"
       fill="#d1d5d9"
       id="text90"
       style="font-style:normal;font-variant:normal;font-weight:normal;font-stretch:normal;font-size:18px;font-family:Arial;-inkscape-font-specification:'Arial, Normal';font-variant-ligatures:normal;font-variant-caps:normal;font-variant-numeric:normal;font-variant-east-asian:normal;fill:#d1d5d9"
       inkscape:label="dpad_right_label"><tspan
         sodipodi:role="line"
         id="tspan1" /></text>
    <text
       x="35.471355"
       y="15.119011"
       font-family="Arial"
       font-size="18px"
       fill="#d1d5d9"
       id="dpad_right"
       style="font-style:normal;font-variant:normal;font-weight:normal;font-stretch:normal;font-size:48px;font-family:Arial;-inkscape-font-specification:'Arial, Normal';font-variant-ligatures:normal;font-variant-caps:normal;font-variant-numeric:normal;font-variant-east-asian:normal;fill:#d1d5d9"><tspan
         sodipodi:role="line"
         id="tspan2"
         x="35.471355"
         y="15.119011">l</tspan></text>
    <text
       x="-102.68648"
       y="86.860199"
       font-family="Arial"
       font-size="22px"
       fill="#d1d5d9"
       id="text19"
       inkscape:label="dpad_text">D-PAD</text>
  </g>
  <!-- D-PAD keyboard mappings -->
  <!-- SELECT/BACK button with mapping -->
  <g
     transform="matrix(1.2591973,0,0,1.317029,114.03918,66.237297)"
     id="select">
    <ellipse
       style="fill:#2f3b41;fill-opacity:1"
       id="select_button"
       cx="40"
       cy="40"
       rx="65"
       ry="30" />
    <text
       x="37.417061"
       y="31.729858"
       font-family="Arial"
       font-size="18px"
       fill="#d1d5d9"
       text-anchor="middle"
       id="select_label"
       inkscape:transform-center-x="61.374407"
       inkscape:transform-center-y="-5.8056871"
       inkscape:label="select_text"
       style="font-style:normal;font-variant:normal;font-weight:normal;font-stretch:normal;font-size:18px;font-family:Arial;-inkscape-font-specification:'Arial, Normal';font-variant-ligatures:normal;font-variant-caps:normal;font-variant-numeric:normal;font-variant-east-asian:normal;text-anchor:middle;fill:#d1d5d9"><tspan
         sodipodi:role="line"
         id="tspan15"
         x="37.417061"
         y="31.729858">SELECT</tspan></text>
    <text
       x="37.417061"
       y="54.952606"
       font-family="Arial"
       font-size="18px"
       fill="#d1d5d9"
       text-anchor="middle"
       id="select_text"
       inkscape:transform-center-x="61.374407"
       inkscape:transform-center-y="-5.8056871"
       style="font-style:normal;font-variant:normal;font-weight:normal;font-stretch:normal;font-size:18px;font-family:Arial;-inkscape-font-specification:'Arial, Normal';font-variant-ligatures:normal;font-variant-caps:normal;font-variant-numeric:normal;font-variant-east-asian:normal;text-anchor:middle;fill:#d1d5d9"
       inkscape:label="select_label"><tspan
         sodipodi:role="line"
         id="tspan54"
         x="37.417061"
         y="54.952606">esc</tspan></text>
  </g>
  <!-- START button with mapping -->
  <g
     transform="matrix(1.1881271,0,0,1.2536232,1003.3705,47.768906)"
     id="start">
    <ellipse
       style="fill:#2f3b41;fill-opacity:1;stroke-width:1.46504"
       id="start_button"
       cx="15.533175"
       cy="46.635071"
       rx="65"
       ry="30" />
    <text
       x="15.947867"
       y="42.511848"
       font-family="Arial"
       font-size="18px"
       fill="#d1d5d9"
       text-anchor="middle"
       id="start_label"
       inkscape:label="start_text">START</text>
    <text
       x="15.947867"
       y="60.758293"
       font-family="Arial"
       font-size="18px"
       fill="#d1d5d9"
       text-anchor="middle"
       id="start_text"
       style="font-style:normal;font-variant:normal;font-weight:normal;font-stretch:normal;font-size:18px;font-family:Arial;-inkscape-font-specification:'Arial, Normal';font-variant-ligatures:normal;font-variant-caps:normal;font-variant-numeric:normal;font-variant-east-asian:normal;text-anchor:middle;fill:#d1d5d9"
       inkscape:label="start_label"><tspan
         sodipodi:role="line"
         id="tspan53"
         x="15.947867"
         y="60.758293">enter</tspan></text>
  </g>
  <!-- Left analog stick mappings -->
  <!-- Right analog stick mappings -->
  <!-- Shoulder button mappings -->
  <g
     id="r2_button"
     transform="translate(-11.611374,-6.635071)">
    <rect
       x="890"
       y="14"
       rx="8"
       ry="8"
       width="130"
       height="36"
       fill="#2a3740"
       id="r2_rect"
       style="fill:#000000" />
    <text
       x="922.45465"
       y="41.294048"
       font-family="Arial"
       font-size="20px"
       fill="#d1d5d9"
       id="r2_text"
       style="font-style:normal;font-variant:normal;font-weight:normal;font-stretch:normal;font-size:29.3333px;font-family:Arial;-inkscape-font-specification:'Arial, Normal';font-variant-ligatures:normal;font-variant-caps:normal;font-variant-numeric:normal;font-variant-east-asian:normal;fill:#ffffff"><tspan
         sodipodi:role="line"
         id="tspan27"
         x="922.45465"
         y="41.294048">y</tspan></text>
    <text
       x="937.67206"
       y="36.946224"
       font-family="Arial"
       font-size="20px"
       fill="#d1d5d9"
       id="text80"
       style="font-style:normal;font-variant:normal;font-weight:normal;font-stretch:normal;font-size:20px;font-family:Arial;-inkscape-font-specification:'Arial, Normal';font-variant-ligatures:normal;font-variant-caps:normal;font-variant-numeric:normal;font-variant-east-asian:normal;fill:#d1d5d9"
       inkscape:label="r2_label"><tspan
         sodipodi:role="line"
         id="tspan28" /></text>
  </g>
  <g
     id="r1_button"
     transform="translate(115.28436,-2.4881516)">
    <rect
       x="890"
       y="14"
       rx="8"
       ry="8"
       width="130"
       height="36"
       fill="#2a3740"
       id="r1_rect" />
    <text
       x="923.59564"
       y="42.63858"
       font-family="Arial"
       font-size="20px"
       fill="#d1d5d9"
       id="text27"
       style="font-style:normal;font-variant:normal;font-weight:normal;font-stretch:normal;font-size:29.3333px;font-family:Arial;-inkscape-font-specification:'Arial, Normal';font-variant-ligatures:normal;font-variant-caps:normal;font-variant-numeric:normal;font-variant-east-asian:normal;fill:#ffffff"
       inkscape:label="r1_text"><tspan
         sodipodi:role="line"
         id="tspan29"
         x="923.59564"
         y="42.63858">Q</tspan></text>
    <text
       x="956.74786"
       y="36.660316"
       font-family="Arial"
       font-size="20px"
       fill="#d1d5d9"
       id="text79"
       style="font-style:normal;font-variant:normal;font-weight:normal;font-stretch:normal;font-size:20px;font-family:Arial;-inkscape-font-specification:'Arial, Normal';font-variant-ligatures:normal;font-variant-caps:normal;font-variant-numeric:normal;font-variant-east-asian:normal;fill:#ffffff"
       inkscape:label="r1_label"><tspan
         sodipodi:role="line"
         id="tspan30" /></text>
  </g>
  <!-- Title -->
  <g
     id="l2_button"
     transform="translate(-11.611374,-4.9763033)">
    <rect
       x="193.95735"
       y="14"
       rx="5.802"
       ry="8"
       width="130"
       height="36"
       fill="#2a3740"
       id="l2_rect"
       style="stroke-width:0.851626;fill:#000000" />
    <text
       x="221.13849"
       y="41.780861"
       font-family="Arial"
       font-size="20px"
       fill="#d1d5d9"
       id="text25"
       style="font-style:normal;font-variant:normal;font-weight:normal;font-stretch:normal;font-size:29.3333px;font-family:Arial;-inkscape-font-specification:'Arial, Normal';font-variant-ligatures:normal;font-variant-caps:normal;font-variant-numeric:normal;font-variant-east-asian:normal;fill:#ffffff"
       inkscape:label="l2_text"><tspan
         sodipodi:role="line"
         id="tspan26"
         x="221.13849"
         y="41.780861">m</tspan></text>
    <text
       x="234.72545"
       y="34.715645"
       font-family="Arial"
       font-size="20px"
       fill="#d1d5d9"
       id="text77"
       style="font-style:normal;font-variant:normal;font-weight:normal;font-stretch:normal;font-size:20px;font-family:Arial;-inkscape-font-specification:'Arial, Normal';font-variant-ligatures:normal;font-variant-caps:normal;font-variant-numeric:normal;font-variant-east-asian:normal;fill:#ffffff"
       inkscape:label="l2_label"><tspan
         sodipodi:role="line"
         id="tspan25" /></text>
  </g>
  <!-- Mapping summary in screen area -->
  <g
     id="l1_button"
     transform="translate(15.758294,-17.417061)">
    <rect
       x="40.521328"
       y="32.246445"
       rx="6.3412361"
       ry="8"
       width="130"
       height="36"
       fill="#2a3740"
       id="l1_rect"
       style="stroke-width:0.890311" />
    <text
       x="66.327019"
       y="60.885025"
       font-family="Arial"
       font-size="20px"
       fill="#d1d5d9"
       id="text24"
       style="font-style:normal;font-variant:normal;font-weight:normal;font-stretch:normal;font-size:29.3333px;font-family:Arial;-inkscape-font-specification:'Arial, Normal';font-variant-ligatures:normal;font-variant-caps:normal;font-variant-numeric:normal;font-variant-east-asian:normal;fill:#ffffff"
       inkscape:label="l1_text"><tspan
         sodipodi:role="line"
         id="tspan23"
         x="66.327019"
         y="60.885025">space</tspan></text>
    <text
       x="97.305283"
       y="53.819805"
       font-family="Arial"
       font-size="20px"
       fill="#d1d5d9"
       id="text74"
       style="font-style:normal;font-variant:normal;font-weight:normal;font-stretch:normal;font-size:20px;font-family:Arial;-inkscape-font-specification:'Arial, Normal';font-variant-ligatures:normal;font-variant-caps:normal;font-variant-numeric:normal;font-variant-east-asian:normal;fill:#ffffff"
       inkscape:label="l1_label"><tspan
         sodipodi:role="line"
         id="tspan24" /></text>
  </g>
  <g
     transform="matrix(0.0080884,0,0,-0.00771321,232.14211,113.91681)"
     fill="#000000"
     stroke="none"
     id="g8"
     inkscape:label="PortMaster">
    <path
       d="m 3414,8760 c -36,-14 -71,-66 -79,-115 -6,-42 -3,-53 24,-97 l 31,-49 v -578 -577 l -35,-34 c -33,-32 -35,-38 -35,-97 0,-50 -5,-69 -25,-99 -28,-41 -33,-105 -13,-160 10,-30 9,-36 -26,-83 l -38,-51 h -89 -89 v -269 -269 l 33,-6 c 45,-8 667,-9 701,0 l 26,6 -2,270 -3,270 h -87 l -88,1 -39,52 c -36,47 -38,53 -25,76 28,51 12,153 -30,188 -12,10 -16,31 -16,76 0,58 -3,66 -32,96 l -33,32 -3,556 -2,556 297,-305 c 164,-168 330,-339 369,-380 68,-71 96,-119 493,-834 231,-417 419,-762 416,-766 -2,-4 -65,-29 -140,-56 -81,-28 -134,-53 -131,-59 2,-6 16,-53 32,-103 17,-57 32,-92 41,-92 33,0 439,44 643,70 275,35 634,83 638,86 2,1 -2,48 -8,105 -22,194 -11,542 21,688 5,24 8,45 7,46 -3,2 -163,9 -473,21 -189,6 -202,9 -270,46 -74,40 -412,371 -1029,1008 -616,637 -788,810 -818,826 -30,15 -81,17 -114,4 z m 112,-71 c 15,-16 43,-113 44,-148 0,-11 -12,-12 -56,-7 -105,12 -147,54 -120,119 27,65 90,82 132,36 z m 222,-248 c 20,-11 51,-125 38,-138 -4,-4 -32,0 -64,8 -63,16 -76,31 -88,108 l -7,44 51,-6 c 28,-3 60,-11 70,-16 z m 202,-222 c 39,-12 49,-30 65,-121 l 7,-37 -59,14 c -32,8 -63,14 -69,15 -9,0 -44,108 -44,135 0,9 61,5 100,-6 z m 262,-247 c 8,-8 39,-134 34,-139 -5,-6 -128,25 -136,34 -9,10 -30,95 -30,122 0,19 2,19 62,5 35,-8 66,-18 70,-22 z m 176,-213 c 57,-14 59,-18 78,-123 6,-34 5,-38 -12,-33 -11,3 -43,11 -72,17 -44,10 -53,16 -58,39 -3,14 -10,42 -15,61 -13,51 -11,62 9,57 9,-3 41,-11 70,-18 z m 524,-814 46,-50 31,-295 c 18,-162 34,-311 37,-330 4,-24 2,-30 -4,-20 -16,25 -710,1278 -728,1313 -13,26 455,-442 618,-618 z m -252,570 c 9,-6 30,-94 30,-125 0,-11 -5,-18 -12,-15 -7,2 -38,9 -69,15 l -56,11 -11,63 c -7,35 -12,68 -12,74 0,9 109,-10 130,-23 z m 194,-219 c 39,-11 41,-14 53,-71 7,-33 12,-64 13,-69 0,-9 -80,1 -116,14 -22,9 -34,35 -50,119 l -7,33 34,-7 c 18,-4 52,-13 73,-19 z m 261,-260 c 8,-12 17,-40 21,-63 l 7,-43 h -35 c -20,0 -49,3 -66,6 -34,7 -45,29 -58,111 l -6,41 62,-15 c 39,-10 66,-23 75,-37 z M 3386,6869 c 75,-4 90,-1 122,26 l 29,24 32,-43 c 17,-25 31,-46 31,-48 0,-2 -81,-4 -180,-4 -99,-1 -180,2 -180,5 0,4 14,26 31,49 l 31,42 30,-25 c 16,-14 40,-26 54,-26 z m 274,-349 c 0,-8 -45,-60 -100,-115 l -100,-100 -23,25 c -13,14 -70,74 -127,133 l -104,108 104,104 105,105 122,-122 c 68,-68 123,-130 123,-138 z m 1990,235 c 209,-7 384,-17 388,-20 2,-2 -2,-37 -8,-78 -7,-41 -11,-105 -8,-141 l 4,-66 h -92 c -106,0 -261,-14 -384,-35 -56,-10 -86,-11 -90,-5 -4,6 -12,54 -20,108 -7,53 -18,130 -25,169 -7,40 -10,75 -7,78 3,3 24,3 46,1 23,-3 111,-8 196,-11 z"
       id="path1" />
    <path
       d="m 3330,6655 -84,-85 59,-60 59,-60 88,87 88,88 -57,57 c -32,32 -60,58 -63,58 -3,0 -43,-38 -90,-85 z"
       id="path2" />
    <path
       d="M 7525,6259 C 6986,6129 6291,6003 5700,5931 5240,5874 4651,5817 4305,5795 c -55,-3 -127,-8 -160,-10 -214,-16 -1139,-3 -1450,21 -161,12 -529,62 -590,80 -11,4 25,-40 80,-97 56,-57 119,-126 142,-154 69,-85 167,-235 219,-337 l 49,-98 h 2463 2462 v 124 c 0,69 7,178 15,243 33,252 85,429 199,686 23,51 24,57 8,56 -9,-1 -107,-23 -217,-50 z"
       id="path3" />
    <path
       d="M 4720,3634 V 2125 l 277,11 c 153,6 279,12 281,13 1,0 2,308 2,682 v 682 l -109,321 c -423,1243 -442,1300 -447,1305 -2,2 -4,-675 -4,-1505 z"
       id="path4" />
    <path
       d="m 7339,5103 c -12,-38 -147,-437 -403,-1187 l -136,-400 2,-685 3,-686 278,-10 277,-10 v 1508 c 0,829 -2,1507 -4,1507 -3,0 -10,-17 -17,-37 z"
       id="path5" />
    <path
       d="m 2642,3593 3,-1468 278,-3 277,-3 v 1471 1470 h -280 -280 z"
       id="path6" />
    <path
       d="m 3350,4812 v -250 l 228,-4 c 243,-4 275,-10 330,-61 43,-39 45,-59 43,-352 -3,-327 -2,-323 -96,-370 l -60,-30 -222,-4 -223,-3 v -249 -249 h 238 c 253,0 373,12 497,50 216,67 353,200 412,400 21,72 31,660 14,823 -30,281 -166,442 -437,518 -72,20 -109,22 -401,26 l -323,5 z"
       id="path7" />
    <path
       d="m 4880,5053 c 0,-6 272,-845 454,-1398 45,-137 169,-519 276,-847 l 195,-598 h 235 235 l 162,498 c 557,1715 717,2205 738,2269 14,39 25,74 25,77 0,3 -116,6 -257,6 h -258 l -89,-258 c -48,-141 -150,-437 -226,-657 -76,-220 -180,-523 -231,-672 -52,-150 -96,-273 -99,-273 -4,0 -285,806 -548,1578 l -97,282 h -257 c -142,0 -258,-3 -258,-7 z"
       id="path8" />
  </g>
  <g
     id="summary">
    <rect
       x="300.21951"
       y="120.21951"
       width="603.36536"
       height="509.01752"
       rx="8.0448713"
       ry="8.852478"
       fill="#2b2b2b"
       stroke="#000000"
       stroke-width="8"
       id="rect6" />
    <rect
       x="310"
       y="130"
       width="580"
       height="491.08694"
       rx="6"
       ry="6.6966405"
       fill="#474a4d"
       id="rect7"
       style="stroke-width:1.05646" />
    <text
       x="318.4783"
       y="447.59164"
       font-family="Monospace"
       font-size="18px"
       fill="#a0e0a0"
       id="summary1"
       inkscape:label="face_buttons"
       style="font-style:normal;font-variant:normal;font-weight:normal;font-stretch:normal;font-size:26.6667px;font-family:Monospace;-inkscape-font-specification:'Monospace, Normal';font-variant-ligatures:normal;font-variant-caps:normal;font-variant-numeric:normal;font-variant-east-asian:normal;fill:#a0e0a0"><tspan
         sodipodi:role="line"
         id="tspan36">Face Buttons:-</tspan><tspan
         sodipodi:role="line"
         id="tspan37">A - enter - Start/wait</tspan><tspan
         sodipodi:role="line"
         id="tspan38">B - i - Inventory</tspan><tspan
         sodipodi:role="line"
         id="tspan39">X - x - Examine</tspan><tspan
         sodipodi:role="line"
         id="tspan40">Y - e - Interact(Equip/Activate)</tspan></text>
    <text
       x="320.1087"
       y="265.97827"
       font-family="Monospace"
       font-size="18px"
       fill="#a0e0a0"
       id="summary3"
       inkscape:label="shoulders"
       style="font-style:normal;font-variant:normal;font-weight:normal;font-stretch:normal;font-size:26.6667px;font-family:Sans;-inkscape-font-specification:'Sans, Normal';font-variant-ligatures:normal;font-variant-caps:normal;font-variant-numeric:normal;font-variant-east-asian:normal;fill:#a0e0a0"><tspan
         sodipodi:role="line"
         id="tspan41">Shoulder Buttons:-</tspan><tspan
         sodipodi:role="line"
         id="tspan42">L1 - space - Settings/Help</tspan><tspan
         sodipodi:role="line"
         id="tspan43">L2 - m - Message</tspan><tspan
         sodipodi:role="line"
         id="tspan44">R1 - Q - Quit</tspan><tspan
         sodipodi:role="line"
         id="tspan45">R2 - y - Use as Y to confirm</tspan></text>
    <text
       x="319.56525"
       y="224.78259"
       font-family="Monospace"
       font-size="18px"
       fill="#a0e0a0"
       id="summary4"
       inkscape:label="system"
       style="font-style:normal;font-variant:normal;font-weight:normal;font-stretch:normal;font-size:26.6667px;font-family:Monospace;-inkscape-font-specification:'Monospace, Normal';font-variant-ligatures:normal;font-variant-caps:normal;font-variant-numeric:normal;font-variant-east-asian:normal;fill:#a0e0a0">System: BACK=esc START=enter</text>
    <text
       x="320.13705"
       y="187.92447"
       font-family="Monospace"
       font-size="18px"
       fill="#a0e0a0"
       id="summary5"
       inkscape:label="analog"
       style="font-style:normal;font-variant:normal;font-weight:normal;font-stretch:normal;font-size:26.6667px;font-family:Monospace;-inkscape-font-specification:'Monospace, Normal';font-variant-ligatures:normal;font-variant-caps:normal;font-variant-numeric:normal;font-variant-east-asian:normal;fill:#a0e0a0"><tspan
         sodipodi:role="line"
         id="tspan31"
         x="320.13705"
         y="187.92447">Analog: ↑=k ↓=j ←=h →=l</tspan></text>
    <text
       x="322.31094"
       y="157.15331"
       font-family="Monospace"
       font-size="18px"
       fill="#a0e0a0"
       id="summary2"
       inkscape:label="dpad"
       style="font-style:normal;font-variant:normal;font-weight:normal;font-stretch:normal;font-size:26.6667px;font-family:Monospace;-inkscape-font-specification:'Monospace, Normal';font-variant-ligatures:normal;font-variant-caps:normal;font-variant-numeric:normal;font-variant-east-asian:normal;fill:#a0e0a0"><tspan
         sodipodi:role="line"
         id="tspan32">D-Pad : ↑=k ↓=j ←=h →=l</tspan></text>
    <text
       x="588.38861"
       y="83.672989"
       font-family="Arial"
       font-size="18"
       fill="#aeb6bb"
       text-anchor="middle"
       id="main_title"
       style="font-style:normal;font-variant:normal;font-weight:normal;font-stretch:normal;font-size:29.3333px;font-family:Arial;-inkscape-font-specification:'Arial, Normal';font-variant-ligatures:normal;font-variant-caps:normal;font-variant-numeric:normal;font-variant-east-asian:normal;text-anchor:middle;fill:#ffffff"><tspan
         sodipodi:role="line"
         id="tspan11">PortMaster - Button Mappings for Shamogu</tspan></text>
  </g>
</svg>
