P2
# CREATOR: GIMP PNM Filter Version 1.1
504 7
255
0
0
0
0
0
0
0
0
0
0
0
0
0
0
0
0
0
0
0
0
0
0
0
0
0
0
0
0
0
0
0
0
0
0
0
0
0
0
0
0
0
0
0
0
0
0
0
0
0
0
0
0
0
0
0
0
0
0
0
0
0
0
0
0
0
0
0
0
0
0
0
0
0
0
0
0
0
0
0
0
0
0
0
0
0
0
0
0
0
0
0
0
0
0
0
0
0
0
0
0
0
0
0
0
0
0
0
0
0
0
0
0
0
0
0
0
0
0
0
0
0
0
0
0
0
0
0
0
0
0
0
0
0
0
0
0
0
0
0
0
0
0
0
0
0
0
0
0
0
0
0
0
0
0
0
0
0
0
0
0
0
0
0
0
0
0
0
0
0
0
0
0
0
0
0
0
0
0
0
0
0
0
0
0
0
0
0
0
0
0
0
0
0
0
0
0
0
0
0
0
0
0
0
0
0
0
0
0
0
0
0
0
0
0
0
0
0
0
0
0
0
0
0
0
0
0
0
0
0
0
0
0
0
0
0
0
0
0
0
0
0
0
0
0
0
0
0
0
0
0
0
0
0
0
0
0
0
0
0
0
0
0
0
0
0
0
0
0
0
0
0
0
0
0
0
0
0
0
0
0
0
0
0
0
0
0
0
0
0
0
0
0
0
0
0
0
0
0
0
0
0
0
0
0
0
0
0
0
0
0
0
0
0
0
0
0
0
0
0
0
0
0
0
0
0
0
0
0
0
0
0
0
0
0
0
0
0
0
0
0
0
0
0
0
0
0
0
0
0
0
0
0
0
0
0
0
0
0
0
0
0
0
0
0
0
0
0
0
0
0
0
0
0
0
0
0
0
0
0
0
0
0
0
0
0
0
0
0
0
0
0
0
0
0
0
0
0
0
0
0
0
0
0
0
0
0
0
0
0
0
0
0
0
0
0
0
0
0
0
0
0
0
0
0
0
0
0
0
0
0
0
0
0
0
0
0
0
0
0
0
0
0
0
0
0
0
0
0
0
0
0
0
0
0
0
0
0
0
0
0
0
0
0
0
0
0
0
0
0
0
0
0
0
0
0
0
0
0
0
0
0
0
0
0
0
0
0
0
0
0
0
0
0
0
0
0
0
0
0
0
0
0
0
0
0
0
0
0
0
255
255
255
0
0
255
255
255
255
0
0
0
255
255
255
0
0
255
255
255
255
0
0
0
255
255
255
255
0
0
255
255
255
255
0
0
255
255
255
255
0
255
0
0
0
255
0
255
255
255
0
0
0
255
255
255
0
255
0
0
0
255
0
255
0
0
0
0
0
255
0
0
0
255
0
255
0
0
0
255
0
0
255
255
255
0
0
255
255
255
255
0
0
0
255
255
255
0
0
255
255
255
255
0
0
0
255
255
255
255
0
255
255
255
255
255
0
255
0
0
0
255
0
255
0
0
0
255
0
255
0
255
0
255
0
255
0
0
0
255
0
255
0
0
0
255
0
255
255
255
255
255
0
0
255
0
255
0
0
255
255
255
255
255
0
0
255
255
255
0
0
0
255
255
255
0
0
0
255
255
255
0
0
255
255
255
255
255
0
255
255
0
255
255
0
0
255
255
255
0
0
255
0
255
0
255
0
0
0
255
0
0
0
0
0
255
0
0
0
0
0
255
0
0
0
0
0
255
0
0
0
0
0
255
0
0
0
0
255
0
255
0
0
0
0
255
0
0
0
255
0
255
0
255
0
0
255
0
255
0
0
0
255
255
255
0
0
255
0
0
0
255
0
255
255
255
255
255
0
0
0
255
0
0
0
0
0
255
0
0
0
0
0
255
0
0
0
255
0
255
0
0
0
0
255
255
255
0
0
0
255
255
255
0
0
0
255
0
255
255
255
255
0
0
255
255
255
255
0
0
0
0
255
255
0
0
255
255
255
255
255
0
0
255
255
255
0
0
255
255
255
255
255
0
0
255
255
255
0
0
0
255
255
255
0
0
255
0
0
0
255
0
255
0
255
0
0
255
255
255
0
0
0
255
0
255
0
0
0
255
255
255
255
0
255
0
0
0
255
0
0
255
0
0
0
255
255
0
0
0
0
255
0
255
0
0
255
0
255
0
0
0
0
0
0
0
0
0
0
0
0
0
0
0
0
0
0
0
0
0
0
255
0
0
0
255
255
0
0
255
255
0
255
255
0
255
255
0
0
255
0
0
0
0
0
255
0
0
0
0
0
255
0
255
0
255
0
0
0
0
0
255
0
0
0
255
0
0
0
0
0
0
0
255
0
255
255
255
0
0
0
0
0
255
0
0
0
255
0
255
0
0
0
255
0
255
0
0
0
255
0
255
0
0
0
255
0
255
0
0
0
0
0
255
0
0
0
0
0
255
0
0
0
0
0
255
0
0
0
255
0
0
255
0
0
0
0
0
0
255
0
255
0
0
255
0
0
255
0
0
0
0
0
255
255
0
255
255
0
255
255
0
0
255
0
255
0
0
0
255
0
255
0
0
0
255
0
255
0
0
0
255
0
255
0
0
0
255
0
255
0
0
0
0
0
0
0
255
0
0
0
255
0
0
0
255
0
255
0
0
0
255
0
255
0
255
0
255
0
0
255
0
255
0
0
255
0
0
0
255
0
0
0
0
255
0
0
255
255
255
255
255
0
255
0
255
0
255
0
255
0
255
0
255
0
255
255
255
255
255
0
255
0
255
0
255
0
255
0
255
0
255
0
0
255
255
255
0
0
255
0
255
0
255
0
255
255
255
255
255
0
0
255
255
255
0
0
255
255
255
255
255
0
0
255
255
255
0
0
0
255
255
255
0
0
0
255
255
255
0
0
0
0
255
0
0
0
0
255
255
255
0
0
255
255
255
255
255
0
0
0
255
0
0
0
255
0
0
0
255
0
0
255
0
255
0
0
255
0
0
0
255
0
0
255
0
255
0
0
0
0
255
255
0
0
0
0
0
255
0
0
255
0
255
255
0
0
255
255
0
255
255
0
255
0
0
0
255
0
255
255
0
0
0
0
0
255
0
0
0
0
0
255
0
0
255
0
255
0
0
255
0
0
0
0
0
255
0
0
0
0
0
0
0
0
0
255
0
255
0
0
0
255
0
255
0
0
0
255
0
0
255
0
255
0
255
0
0
255
0
255
0
0
0
255
0
255
255
255
255
255
0
255
0
255
0
0
0
0
0
0
255
0
0
255
0
255
0
255
0
0
255
0
0
0
0
255
0
0
255
0
0
0
255
0
0
0
0
0
0
0
0
0
0
0
0
0
255
255
255
255
255
0
0
0
255
0
0
0
255
0
0
0
255
0
0
0
255
0
0
255
0
0
0
255
0
0
0
0
255
0
255
0
255
0
255
0
255
0
255
0
0
0
0
255
0
0
0
0
0
255
0
0
0
0
0
255
0
0
0
0
0
255
0
0
0
0
255
255
255
255
255
0
255
255
255
255
0
0
255
0
0
0
0
0
255
0
0
0
255
0
255
255
255
255
255
0
255
255
255
255
255
0
255
0
255
255
255
0
255
255
255
255
255
0
0
255
0
0
0
0
0
0
255
0
255
255
255
0
0
0
255
0
0
0
0
0
255
0
255
0
255
0
255
0
255
0
255
0
255
0
0
0
255
0
255
255
255
255
0
0
255
0
0
0
255
0
255
255
255
255
0
0
0
255
255
255
0
0
0
0
255
0
0
0
255
0
0
0
255
0
255
0
0
0
255
0
255
0
255
0
255
0
0
0
255
0
0
0
0
255
0
255
0
0
0
0
255
0
0
0
255
0
255
0
255
0
255
255
255
255
255
0
255
255
255
255
255
0
255
0
255
0
255
0
255
255
255
255
255
0
255
255
255
255
255
0
255
0
255
0
255
0
255
255
255
255
255
0
255
0
255
0
255
0
255
255
255
255
255
0
255
255
255
255
255
0
255
255
255
255
255
0
255
255
255
255
255
0
255
255
255
255
255
0
0
255
255
255
0
0
0
255
255
255
0
0
255
255
255
255
255
0
255
255
255
255
255
0
255
0
0
0
255
0
0
0
255
0
0
0
255
0
0
0
255
0
0
255
0
255
0
0
255
255
255
255
255
0
255
255
255
255
255
0
255
0
255
255
255
0
255
255
255
255
0
0
255
0
0
0
255
0
0
255
0
0
255
255
255
0
0
0
255
255
255
0
0
255
0
0
255
0
0
255
255
255
255
0
0
255
255
255
255
0
0
0
0
0
255
0
0
0
255
255
255
0
0
0
255
255
255
255
0
0
0
0
0
0
0
0
0
255
0
255
0
255
255
255
0
0
255
0
255
0
0
0
255
255
255
0
0
0
0
255
0
0
0
0
0
0
0
0
255
255
0
0
255
0
255
0
255
0
255
0
0
0
255
0
255
255
255
255
255
0
0
0
0
0
0
0
0
0
0
0
0
0
255
255
255
255
255
0
255
0
0
255
0
0
0
0
255
0
0
0
255
0
0
0
255
0
0
0
255
0
0
0
0
0
0
0
0
0
0
0
0
0
255
0
0
0
0
0
0
0
255
0
0
0
255
0
0
0
0
255
255
0
0
0
0
0
255
0
0
0
255
0
255
0
0
0
255
0
255
0
0
0
255
0
255
0
0
0
255
0
255
0
0
0
0
0
255
0
0
0
0
0
255
0
0
0
255
0
255
0
0
0
255
0
0
255
0
0
255
0
0
0
255
0
255
0
0
255
0
0
255
0
0
0
0
0
255
0
0
0
255
0
255
0
0
255
255
0
255
0
0
0
255
0
255
0
0
0
0
0
255
0
0
255
255
0
255
0
0
255
0
0
0
0
0
0
255
0
0
0
255
0
0
0
255
0
0
0
255
0
0
255
0
255
0
0
255
0
255
0
255
0
0
255
0
255
0
0
0
0
255
0
0
0
0
255
0
0
0
0
255
255
255
255
255
0
0
255
255
255
0
0
255
0
0
0
255
0
255
255
255
255
255
0
255
255
255
255
255
0
0
255
0
255
0
0
0
255
255
255
0
0
0
255
255
255
0
0
0
255
255
255
0
0
0
255
255
255
0
0
0
0
255
0
0
0
0
0
255
0
0
0
255
255
255
255
255
0
255
255
255
255
255
0
255
255
255
255
255
0
255
0
255
0
255
0
0
255
255
255
0
0
255
255
255
255
255
0
255
0
0
0
255
0
0
255
0
255
0
0
255
0
0
0
255
0
255
0
0
0
255
0
0
0
255
255
0
0
0
0
0
255
0
0
255
0
255
255
0
0
255
255
255
255
255
0
255
0
0
0
255
0
0
255
0
255
0
0
0
0
0
0
0
0
0
255
0
255
255
255
255
255
0
0
0
0
0
255
0
255
0
0
0
255
0
0
0
255
0
0
0
255
0
0
0
255
0
0
0
0
0
255
0
0
0
0
0
0
0
0
0
0
0
255
0
255
0
255
0
255
255
255
255
255
0
0
0
255
0
255
0
0
255
0
0
0
0
0
0
0
0
255
0
0
255
255
0
0
0
0
0
0
255
0
0
0
255
0
0
0
0
0
0
0
0
0
0
0
0
0
255
255
255
255
255
0
0
0
255
0
0
0
255
0
0
0
255
0
0
0
255
0
0
255
0
0
0
0
0
255
0
0
255
0
255
0
255
0
0
0
0
0
0
0
255
0
0
255
0
0
0
0
0
255
0
0
0
255
0
0
0
0
0
0
0
0
0
0
0
0
255
0
0
0
255
0
255
255
255
255
0
0
0
255
255
255
0
0
255
255
255
255
0
0
0
255
255
255
255
0
255
0
0
0
0
0
0
255
255
255
255
0
255
0
0
0
255
0
255
255
255
0
0
255
255
255
0
0
255
0
0
0
255
0
255
255
255
255
255
0
255
0
0
0
255
0
255
0
0
0
255
0
0
255
255
255
0
0
255
0
0
0
0
0
0
255
255
255
255
0
255
0
0
0
255
0
255
255
255
255
0
0
0
0
255
0
0
0
0
255
255
255
0
0
0
0
255
0
0
0
0
255
0
255
0
0
255
0
0
0
255
0
0
0
255
0
0
0
255
255
255
255
255
0
0
255
0
255
0
0
255
255
0
255
255
0
0
255
0
255
0
0
0
255
0
255
0
0
255
0
255
0
255
0
255
0
0
0
255
0
255
255
0
255
255
0
255
0
255
0
255
0
255
255
0
255
255
0
255
0
255
0
255
0
0
255
255
255
0
0
0
255
0
255
0
0
255
0
255
0
255
0
0
255
0
255
0
0
255
255
255
255
255
0
255
255
255
255
255
0
255
0
255
0
255
0
0
255
0
255
0
0
0
255
255
255
0
0
255
0
0
0
255
0
255
255
255
255
255
0
255
255
255
255
255
0
0
0
255
0
0
0
0
0
255
0
0
0
255
0
255
0
0
0
0
255
255
255
0
0
0
255
255
255
0
0
0
255
0
255
255
255
255
255
0
255
255
255
255
0
0
0
0
0
255
0
0
255
255
255
255
0
0
0
255
255
255
0
0
0
255
0
0
0
0
0
255
255
255
0
0
0
255
255
255
0
0
0
0
0
0
0
0
0
0
255
0
0
255
255
255
255
0
0
255
0
255
0
0
255
255
255
255
0
0
255
0
0
0
255
0
0
0
0
0
0
255
255
255
0
255
0
0
0
0
0
0
255
0
255
0
0
0
0
0
0
0
0
255
255
255
255
255
0
0
0
0
0
0
0
0
0
255
0
0
0
255
255
0
0
255
255
0
255
255
0
255
255
0
0
0
0
0
0
255
0
255
0
255
0
0
0
0
0
0
0
0
0
255
0
0
0
255
0
255
0
255
0
0
0
255
0
0
0
0
0
0
255
0
0
0
0
0
0
0
0
0
0
0
0
0
0
0
0
0
0
0
0
0
0
0
0
0
0
0
0
0
0
0
0
0
0
0
0
0
0
0
0
0
0
0
0
0
0
0
0
0
0
0
0
0
0
0
0
0
0
0
0
0
0
0
0
0
0
0
0
0
0
0
0
0
0
0
0
0
0
0
0
0
0
0
0
0
0
0
0
0
0
0
0
0
0
0
0
0
0
0
0
0
0
0
0
0
0
0
0
0
0
0
0
0
0
0
0
0
0
0
0
0
0
0
0
0
0
0
0
0
0
0
0
0
0
0
0
0
0
0
0
0
0
0
0
0
0
0
0
0
0
0
0
0
0
0
0
0
0
0
0
0
0
0
0
0
0
0
0
0
0
0
0
0
0
0
0
0
0
0
0
0
0
0
0
0
0
0
0
0
0
0
0
0
0
0
0
0
0
0
0
0
0
0
0
0
0
0
0
0
0
0
0
0
0
0
0
0
0
0
0
0
0
0
0
0
0
0
0
0
0
0
0
0
0
0
0
0
0
0
0
0
0
0
0
0
0
0
0
0
0
0
0
0
0
0
0
0
0
0
0
0
0
0
0
0
0
0
0
0
0
0
0
0
0
0
0
0
0
0
0
0
0
0
0
0
0
0
0
0
0
0
0
0
0
0
0
0
0
0
0
0
0
0
0
0
0
0
0
0
0
0
0
0
0
0
0
0
0
0
0
0
0
0
0
0
0
0
0
0
0
0
0
0
0
0
0
0
0
0
0
0
0
0
0
0
0
0
0
0
0
0
0
0
0
0
0
0
0
0
0
0
0
0
0
0
0
0
0
0
0
0
0
0
0
0
0
0
0
0
0
0
0
0
0
0
0
0
0
0
0
0
0
0
0
0
0
0
0
0
0
0
0
0
0
0
0
0
0
0
0
0
0
0
0
0
0
0
0
0
0
0
0
0
0
0
0
0
0
0
0
0
0
0
0
0
0
0
0
0
0
0
0
0
0
0
0
0
0
0
0
0
0
0
0
0
0
0
0
0
0
0
0
0
0
0
0
0
0
0
0
0
0
0
0
0
0
0
0
0
0
0
0
0
0
0
0
0
0
0
0
0
0
0
0
0
0
0
0
0
0
0
0
0
0
0
0
