P3
# CREATOR: GIMP PNM Filter Version 1.1
4 4
255
204
204
204
191
192
192
180
179
179
0
0
0
192
191
192
179
179
179
167
167
167
0
0
0
179
179
179
167
167
166
154
154
154
0
0
0
0
0
0
0
0
0
0
0
0
0
0
0
