P3
# CREATOR: GIMP PNM Filter Version 1.1
2 2
255
204
204
204
102
102
102
102
102
102
0
0
0
