P3
# CREATOR: GIMP PNM Filter Version 1.1
3 3
255
204
204
204
179
178
179
0
0
0
178
179
178
153
153
153
0
0
0
0
0
0
0
0
0
0
0
0
