# Blender v3.6.21 OBJ File: ''
# www.blender.org
mtllib mcl_brewing_stand.mtl
v 0.062500 -0.500000 -0.062500
v 0.062500 0.375000 -0.062500
v 0.062500 0.375000 0.062500
v 0.062500 -0.500000 0.062500
v -0.062500 -0.500000 0.062500
v -0.062500 0.375000 0.062500
v -0.062500 0.375000 -0.062500
v -0.062500 -0.500000 -0.062500
v 0.187500 -0.500000 0.062500
v 0.187500 -0.375000 0.062500
v 0.187500 -0.375000 0.437500
v 0.187500 -0.500000 0.437500
v -0.187500 -0.500000 0.437500
v -0.187500 -0.375000 0.437500
v -0.187500 -0.375000 0.062500
v -0.187500 -0.500000 0.062500
v 0.437500 -0.500000 -0.437500
v 0.437500 -0.375000 -0.437500
v 0.437500 -0.375000 -0.062500
v 0.437500 -0.500000 -0.062500
v 0.062500 -0.500000 -0.062500
v 0.062500 -0.375000 -0.062500
v 0.062500 -0.375000 -0.437500
v 0.062500 -0.500000 -0.437500
v -0.062500 -0.500000 -0.437500
v -0.062500 -0.375000 -0.437500
v -0.062500 -0.375000 -0.062500
v -0.062500 -0.500000 -0.062500
v -0.437500 -0.500000 -0.062500
v -0.437500 -0.375000 -0.062500
v -0.437500 -0.375000 -0.437500
v -0.437500 -0.500000 -0.437500
vt 0.437500 0.125000
vt 0.437500 1.000000
vt 0.312500 1.000000
vt 0.312500 0.125000
vt 0.437500 0.125000
vt 0.437500 1.000000
vt 0.312500 1.000000
vt 0.312500 0.125000
vt 0.312500 0.875000
vt 0.437500 0.875000
vt 0.562500 0.750000
vt 0.562500 0.875000
vt 0.687500 0.875000
vt 0.687500 0.750000
vt 0.437500 0.125000
vt 0.437500 1.000000
vt 0.312500 1.000000
vt 0.312500 0.125000
vt 0.437500 0.125000
vt 0.437500 1.000000
vt 0.312500 1.000000
vt 0.312500 0.125000
vt 0.812500 0.375000
vt 0.812500 0.500000
vt 0.437500 0.500000
vt 0.437500 0.375000
vt 0.812500 0.375000
vt 0.812500 0.500000
vt 0.437500 0.500000
vt 0.437500 0.375000
vt 0.812500 0.625000
vt 0.812500 1.000000
vt 0.437500 1.000000
vt 0.437500 0.625000
vt 0.437500 1.000000
vt 0.437500 0.625000
vt 0.812500 0.625000
vt 0.812500 1.000000
vt 0.812500 0.500000
vt 0.437500 0.500000
vt 0.812500 0.375000
vt 0.812500 0.500000
vt 0.437500 0.500000
vt 0.437500 0.375000
vt 0.812500 0.250000
vt 0.812500 0.375000
vt 0.437500 0.375000
vt 0.437500 0.250000
vt 0.812500 0.250000
vt 0.812500 0.375000
vt 0.437500 0.375000
vt 0.437500 0.250000
vt 0.812500 1.000000
vt 0.812500 0.625000
vt 0.437500 0.625000
vt 0.437500 1.000000
vt 0.437500 0.625000
vt 0.437500 1.000000
vt 0.812500 1.000000
vt 0.812500 0.625000
vt 0.812500 0.250000
vt 0.812500 0.375000
vt 0.437500 0.375000
vt 0.437500 0.250000
vt 0.812500 0.250000
vt 0.812500 0.375000
vt 0.437500 0.375000
vt 0.437500 0.250000
vt 0.812500 0.250000
vt 0.812500 0.375000
vt 0.437500 0.375000
vt 0.437500 0.250000
vt 0.812500 0.250000
vt 0.812500 0.375000
vt 0.437500 0.375000
vt 0.437500 0.250000
vt 0.437500 1.000000
vt 0.437500 0.625000
vt 0.812500 0.625000
vt 0.812500 1.000000
vt 0.812500 1.000000
vt 0.812500 0.625000
vt 0.437500 0.625000
vt 0.437500 1.000000
vt 0.812500 0.375000
vt 0.812500 0.500000
vt 0.437500 0.500000
vt 0.437500 0.375000
vt 0.812500 0.375000
vt 0.812500 0.500000
vt 0.437500 0.500000
vt 0.437500 0.375000
vn 1.0000 -0.0000 0.0000
vn -1.0000 0.0000 0.0000
vn 0.0000 1.0000 0.0000
vn 0.0000 -1.0000 0.0000
vn 0.0000 0.0000 1.0000
vn 0.0000 -0.0000 -1.0000
g rod_rod_m_b3bbd526-1576-d30c-4a47-a9b2f02495d2
usemtl m_b3bbd526-1576-d30c-4a47-a9b2f02495d2
s 1
f 1/1/1 2/2/1 3/3/1 4/4/1
f 5/5/2 6/6/2 7/7/2 8/8/2
f 3/3/3 2/9/3 7/10/3 6/6/3
f 1/11/4 4/12/4 5/13/4 8/14/4
f 4/15/5 3/16/5 6/17/5 5/18/5
f 8/19/6 7/20/6 2/21/6 1/22/6
f 9/23/1 10/24/1 11/25/1 12/26/1
f 13/27/2 14/28/2 15/29/2 16/30/2
f 11/31/3 10/32/3 15/33/3 14/34/3
f 9/35/4 12/36/4 13/37/4 16/38/4
f 12/39/5 11/31/5 14/34/5 13/40/5
f 16/41/6 15/42/6 10/43/6 9/44/6
f 17/45/1 18/46/1 19/47/1 20/48/1
f 21/49/2 22/50/2 23/51/2 24/52/2
f 19/53/3 18/54/3 23/55/3 22/56/3
f 17/57/4 20/58/4 21/59/4 24/60/4
f 20/61/5 19/62/5 22/63/5 21/64/5
f 24/65/6 23/66/6 18/67/6 17/68/6
f 25/69/1 26/70/1 27/71/1 28/72/1
f 29/73/2 30/74/2 31/75/2 32/76/2
f 27/77/3 26/78/3 31/79/3 30/80/3
f 25/81/4 28/82/4 29/83/4 32/84/4
f 28/85/5 27/86/5 30/87/5 29/88/5
f 32/89/6 31/90/6 26/91/6 25/92/6
v 0.000000 -0.375000 0.500000
v 0.000000 -0.375000 0.062500
v -0.000000 0.500000 0.062500
v -0.000000 0.500000 0.500000
vt 0.000000 0.125000
vt 0.437500 0.125000
vt 0.437500 1.000000
vt 0.000000 1.000000
vn 1.0000 0.0000 -0.0000
g rack_1_rack_1_m_ca015398-4a83-6de6-22db-6cb1f5fc3b37
usemtl m_ca015398-4a83-6de6-22db-6cb1f5fc3b37
s 1
f 33/93/7 34/94/7 35/95/7 36/96/7
v 0.060945 -0.375000 -0.057820
v 0.370305 -0.375000 -0.367179
v 0.370305 0.500000 -0.367179
v 0.060945 0.500000 -0.057820
vt 0.437500 0.125000
vt 0.000000 0.125000
vt 0.000000 1.000000
vt 0.437500 1.000000
vn 0.7071 0.0000 0.7071
g rack_2_rack_2_m_ca015398-4a83-6de6-22db-6cb1f5fc3b37
usemtl m_ca015398-4a83-6de6-22db-6cb1f5fc3b37
s 1
f 37/97/8 38/98/8 39/99/8 40/100/8
v -0.057820 -0.375000 -0.057820
v -0.367180 -0.375000 -0.367180
v -0.367180 0.500000 -0.367180
v -0.057820 0.500000 -0.057820
vt 0.437500 0.125000
vt 0.000000 0.125000
vt 0.000000 1.000000
vt 0.437500 1.000000
vn 0.7071 -0.0000 -0.7071
g rack_3_rack_3_m_ca015398-4a83-6de6-22db-6cb1f5fc3b37
usemtl m_ca015398-4a83-6de6-22db-6cb1f5fc3b37
s 1
f 41/101/9 42/102/9 43/103/9 44/104/9
