P3
# CREATOR: GIMP PNM Filter Version 1.1
16 16
255
209
209
209
208
208
208
205
205
206
205
205
205
204
204
203
202
202
202
200
201
201
199
199
199
197
197
197
195
195
195
195
195
195
193
194
194
192
191
192
190
191
190
188
188
188
187
187
187
207
208
208
201
201
200
199
199
199
197
197
197
196
196
196
194
195
194
192
193
193
192
192
191
190
190
190
188
188
188
187
187
186
184
185
184
183
184
183
182
181
182
180
180
180
161
161
161
206
206
206
199
199
199
198
198
197
196
196
196
194
194
195
193
193
193
191
191
191
189
190
189
188
188
188
186
187
187
185
185
184
183
183
183
181
182
182
180
180
180
178
178
179
160
159
160
204
204
204
197
198
197
196
196
196
195
194
194
192
193
193
191
191
191
189
190
190
188
188
188
187
186
186
184
185
185
184
183
183
181
181
182
180
180
180
178
179
178
177
177
177
158
159
158
203
204
204
196
196
196
194
194
195
193
193
193
191
191
191
189
190
189
188
188
188
187
187
186
184
185
185
183
183
183
182
182
182
180
180
180
179
179
178
177
177
176
176
175
175
156
156
157
202
202
202
194
194
195
192
193
193
191
191
191
190
189
190
188
188
188
186
187
186
185
185
185
184
183
183
182
182
182
180
180
180
179
178
179
177
177
176
176
175
175
173
173
173
155
155
155
201
201
200
193
192
193
191
192
192
190
189
190
188
188
188
186
186
187
185
185
185
183
183
183
181
182
181
180
180
180
178
178
178
177
177
177
175
175
175
173
173
174
172
172
172
154
154
154
199
199
199
191
191
192
189
190
189
188
188
188
187
187
186
185
185
185
183
183
183
182
182
182
180
180
180
178
178
179
177
177
177
175
175
175
174
173
174
172
172
172
171
170
171
152
152
152
197
197
197
190
190
190
188
188
188
187
186
186
185
185
185
184
184
183
181
182
182
180
180
180
179
179
178
177
176
176
175
175
175
174
173
173
172
172
172
171
171
170
169
168
169
151
151
152
196
195
196
188
188
188
186
187
186
184
184
184
184
183
183
181
181
181
180
180
180
179
179
178
177
177
177
176
175
175
174
174
173
172
172
172
170
171
170
169
169
169
167
167
167
150
150
149
195
195
195
186
186
186
185
185
185
183
183
183
182
182
182
180
180
180
178
178
179
177
177
177
175
176
175
174
174
174
172
172
172
171
170
170
169
169
169
167
168
167
166
166
166
148
148
148
193
193
194
185
184
185
183
183
183
181
182
181
180
180
180
178
179
179
177
177
177
176
175
175
174
173
174
172
172
172
171
171
170
168
169
168
167
167
167
165
165
165
164
164
164
147
147
146
191
191
191
183
184
183
181
181
181
180
180
180
178
178
178
177
177
176
175
175
175
174
174
174
172
172
172
170
171
170
168
169
169
167
167
167
166
166
166
164
164
164
163
163
162
144
144
144
191
191
191
181
182
181
180
180
180
178
179
179
176
177
177
175
176
175
173
174
174
172
172
172
170
170
171
169
169
169
167
167
168
166
166
165
164
164
164
163
163
162
161
161
161
143
144
143
189
189
189
180
180
180
178
178
179
177
177
177
175
176
175
174
174
173
172
172
172
170
170
171
169
168
169
167
167
167
165
166
165
164
164
164
162
163
162
160
161
161
160
159
159
142
143
143
162
162
162
161
161
161
160
160
160
158
159
158
156
156
157
155
155
155
153
153
153
152
152
152
151
152
151
149
149
150
148
148
148
146
146
146
145
145
145
143
144
143
143
142
143
141
141
141
