P3
# CREATOR: GIMP PNM Filter Version 1.1
16 16
255
224
25
25
223
25
25
222
25
25
220
25
25
218
25
25
217
25
25
215
25
25
214
25
25
213
25
25
212
25
25
210
25
25
208
25
25
207
25
25
206
25
25
204
25
25
203
25
25
223
25
25
218
0
0
216
0
0
215
0
0
213
0
0
212
0
0
209
0
0
209
0
0
206
0
0
205
0
0
204
0
0
202
0
0
201
0
0
199
0
0
198
0
0
177
0
0
222
25
25
216
0
0
215
0
0
213
0
0
212
0
0
198
0
0
122
0
0
83
0
0
79
0
0
105
0
0
175
0
0
201
0
0
199
0
0
197
0
0
195
0
0
175
0
0
221
25
25
215
0
0
214
0
0
211
0
0
152
0
0
73
0
0
163
0
0
204
0
0
203
0
0
169
0
0
83
0
0
102
0
0
196
0
0
196
0
0
194
0
0
174
0
0
219
25
25
213
0
0
211
0
0
151
0
0
64
0
0
29
0
0
178
0
0
204
0
0
202
0
0
201
0
0
58
0
0
63
0
0
93
0
0
194
0
0
192
0
0
171
0
0
217
25
25
211
0
0
196
0
0
64
0
0
24
0
0
0
0
0
64
0
0
202
0
0
201
0
0
137
0
0
0
0
0
2
0
0
61
0
0
138
0
0
191
0
0
170
0
0
215
25
25
210
0
0
119
0
0
64
0
0
0
0
0
0
0
0
0
0
0
160
0
0
190
0
0
34
0
0
0
0
0
0
0
0
35
0
0
72
0
0
189
0
0
169
0
0
214
25
25
208
0
0
87
0
0
53
0
0
0
0
0
0
0
0
55
0
0
41
0
0
9
0
0
83
0
0
0
0
0
0
0
0
0
0
0
59
0
0
187
0
0
168
0
0
213
25
25
206
0
0
89
0
0
179
0
0
170
0
0
169
0
0
177
0
0
12
0
0
0
0
0
126
0
0
162
0
0
161
0
0
159
0
0
67
0
0
186
0
0
167
0
0
211
25
25
205
0
0
104
0
0
185
0
0
200
0
0
198
0
0
197
0
0
111
0
0
82
0
0
184
0
0
191
0
0
189
0
0
188
0
0
66
0
0
185
0
0
165
0
0
210
25
25
204
0
0
174
0
0
105
0
0
198
0
0
197
0
0
155
0
0
1
0
0
0
0
0
93
0
0
189
0
0
187
0
0
148
0
0
95
0
0
183
0
0
163
0
0
208
25
25
202
0
0
200
0
0
107
0
0
154
0
0
195
0
0
46
0
0
0
0
0
0
0
0
6
0
0
164
0
0
173
0
0
61
0
0
176
0
0
181
0
0
161
0
0
207
25
25
200
0
0
199
0
0
197
0
0
95
0
0
107
0
0
38
0
0
0
0
0
0
0
0
15
0
0
93
0
0
64
0
0
163
0
0
182
0
0
180
0
0
161
0
0
205
25
25
199
0
0
197
0
0
195
0
0
194
0
0
136
0
0
76
0
0
70
0
0
63
0
0
74
0
0
98
0
0
176
0
0
181
0
0
180
0
0
178
0
0
160
0
0
204
25
25
198
0
0
196
0
0
194
0
0
193
0
0
191
0
0
189
0
0
187
0
0
186
0
0
184
0
0
183
0
0
181
0
0
179
0
0
178
0
0
176
0
0
158
0
0
178
0
0
176
0
0
175
0
0
174
0
0
172
0
0
170
0
0
170
0
0
168
0
0
167
0
0
165
0
0
163
0
0
162
0
0
161
0
0
160
0
0
157
0
0
156
0
0
