P3
# CREATOR: GIMP PNM Filter Version 1.1
16 16
255
148
148
148
146
145
146
144
143
144
142
141
141
140
140
140
138
139
138
136
136
136
134
134
134
132
132
132
131
131
130
129
129
129
126
126
126
124
125
124
122
122
122
121
121
121
119
119
119
146
146
146
132
131
132
130
130
130
127
128
127
126
125
126
123
123
124
121
121
121
119
119
119
117
117
116
115
115
115
112
113
112
110
111
110
108
108
108
107
106
106
104
104
104
92
92
91
144
144
143
129
129
129
128
128
127
125
125
125
123
123
124
79
79
79
57
57
57
70
70
70
37
37
37
36
37
37
39
39
40
100
100
99
106
106
106
104
104
104
102
102
102
89
90
90
141
142
141
127
127
128
125
126
125
124
123
123
90
90
90
0
0
0
0
0
0
32
32
32
10
10
10
0
0
0
0
0
0
43
43
43
96
96
96
102
102
102
100
100
99
88
88
88
140
140
140
125
126
125
123
123
123
120
121
120
21
21
21
0
0
0
0
0
0
39
39
39
66
66
67
0
0
0
0
0
0
1
1
1
57
57
57
100
99
100
98
98
98
87
86
87
138
138
138
123
123
123
121
121
121
105
105
105
18
18
18
0
0
0
5
5
5
98
98
99
106
107
106
10
10
10
0
0
0
14
14
13
96
97
97
98
98
97
95
95
96
85
84
84
136
136
136
115
115
115
97
96
97
95
95
95
97
98
98
62
61
61
62
63
63
108
109
108
94
93
93
71
71
71
70
70
69
82
82
82
53
53
53
66
66
66
94
94
93
83
82
82
134
134
134
119
119
119
32
32
32
0
0
0
10
10
10
104
104
104
109
109
109
106
106
107
104
104
104
102
102
102
80
81
81
14
14
14
0
0
0
11
11
11
89
88
88
80
80
80
132
132
132
96
96
96
1
1
1
0
0
0
0
0
0
50
50
50
107
106
106
104
104
104
102
101
102
100
100
100
88
87
88
4
4
4
0
0
0
0
0
0
49
49
49
78
78
78
130
130
130
73
74
74
0
0
0
0
0
0
29
29
29
94
94
94
104
104
104
102
102
102
100
100
99
97
97
98
96
96
96
47
47
47
0
0
0
0
0
0
40
40
40
77
77
77
129
129
129
111
112
111
19
20
19
1
1
1
80
79
79
91
91
91
88
89
89
91
91
91
97
97
98
60
60
60
80
81
80
76
76
77
24
24
24
23
23
23
77
78
78
74
74
75
126
127
127
111
110
110
80
80
80
37
37
37
8
8
8
0
0
0
0
0
0
27
27
27
90
90
91
9
9
9
0
0
0
0
0
0
0
0
0
33
33
33
82
83
83
73
73
72
125
124
125
109
109
108
106
106
106
62
62
62
0
0
0
0
0
0
0
0
0
27
26
27
61
61
61
0
0
0
0
0
0
0
0
0
5
5
5
75
76
76
81
81
81
70
70
71
122
122
123
106
106
106
104
104
104
96
96
95
21
21
21
2
2
2
1
1
1
27
28
27
90
90
90
12
12
12
1
1
1
1
1
1
46
46
47
81
80
81
78
79
78
69
69
69
121
121
121
104
104
104
102
102
102
100
100
99
98
98
98
95
95
95
93
93
93
91
91
92
89
89
90
59
59
59
84
84
84
83
82
83
81
81
80
79
78
79
76
76
77
67
67
67
94
94
94
92
92
92
90
90
90
88
88
87
86
87
86
85
85
84
82
82
83
80
80
80
78
78
78
76
77
77
75
75
75
73
72
73
70
70
70
69
69
69
67
67
67
65
65
65
