# Blender 4.5.2 LTS
# www.blender.org
o sign
v 0.434579 -0.500000 0.062500
v 0.434579 0.125000 0.062500
v -0.440421 -0.500000 0.062500
v -0.440421 0.125000 0.062500
v 0.434579 -0.500000 -0.062500
v 0.434579 0.125000 -0.062500
v -0.440421 -0.500000 -0.062500
v -0.440421 0.125000 -0.062500
vn -0.0000 -0.0000 1.0000
vn -1.0000 -0.0000 -0.0000
vn -0.0000 -0.0000 -1.0000
vn 1.0000 -0.0000 -0.0000
vn -0.0000 -1.0000 -0.0000
vn -0.0000 1.0000 -0.0000
vt 0.500000 0.250000
vt 0.500000 0.562500
vt 0.281250 0.562500
vt 0.281250 0.250000
vt 0.250000 0.562500
vt 0.250000 0.250000
vt 0.031250 0.562500
vt 0.031250 0.250000
vt -0.000000 0.562500
vt -0.000000 0.250000
vt 0.250000 0.625000
vt 0.468750 0.562500
vt 0.468750 0.625000
vt 0.031250 0.625000
s 0
f 1/1/1 2/2/1 4/3/1 3/4/1
f 3/4/2 4/3/2 8/5/2 7/6/2
f 7/6/3 8/5/3 6/7/3 5/8/3
f 5/8/4 6/7/4 2/9/4 1/10/4
f 3/11/5 7/5/5 5/12/5 1/13/5
f 8/5/6 4/11/6 2/14/6 6/7/6
o chain1
v 0.243223 0.125000 0.066291
v 0.375805 0.125000 -0.066291
v 0.243223 0.500000 0.066291
v 0.375805 0.500000 -0.066291
v 0.243223 0.125000 0.066291
v 0.375805 0.125000 -0.066291
v 0.243223 0.500000 0.066291
v 0.375805 0.500000 -0.066291
vn 0.7071 -0.0000 0.7071
vn -0.7071 -0.0000 -0.7071
vt 0.046875 0.625000
vt 0.000000 0.625000
vt 0.000000 0.812500
vt 0.046875 0.812500
s 0
f 9/15/7 10/16/7 12/17/7 11/18/7
f 13/15/8 15/18/8 16/17/8 14/16/8
o chain2
v 0.375805 0.125000 0.066291
v 0.243223 0.125000 -0.066291
v 0.375805 0.500000 0.066291
v 0.243223 0.500000 -0.066291
v 0.375805 0.125000 0.066291
v 0.243223 0.125000 -0.066291
v 0.375805 0.500000 0.066291
v 0.243223 0.500000 -0.066291
vn 0.7071 -0.0000 -0.7071
vn -0.7071 -0.0000 0.7071
vt 0.093750 0.625000
vt 0.140625 0.625000
vt 0.140625 0.812500
vt 0.093750 0.812500
s 0
f 17/19/9 18/20/9 20/21/9 19/22/9
f 21/19/10 23/22/10 24/21/10 22/20/10
o chain1r
v -0.381777 0.125000 0.066291
v -0.249195 0.125000 -0.066291
v -0.381777 0.500000 0.066291
v -0.249195 0.500000 -0.066291
v -0.381777 0.125000 0.066291
v -0.249195 0.125000 -0.066291
v -0.381777 0.500000 0.066291
v -0.249195 0.500000 -0.066291
vn 0.7071 -0.0000 0.7071
vn -0.7071 -0.0000 -0.7071
vt 0.046875 0.625000
vt 0.000000 0.625000
vt 0.000000 0.812500
vt 0.046875 0.812500
s 0
f 25/23/11 26/24/11 28/25/11 27/26/11
f 29/23/12 31/26/12 32/25/12 30/24/12
o chain2r
v -0.249454 0.125000 0.066291
v -0.382037 0.125000 -0.066291
v -0.249454 0.500000 0.066291
v -0.382037 0.500000 -0.066291
v -0.249454 0.125000 0.066291
v -0.382037 0.125000 -0.066291
v -0.249454 0.500000 0.066291
v -0.382037 0.500000 -0.066291
vn 0.7071 -0.0000 -0.7071
vn -0.7071 -0.0000 0.7071
vt 0.093750 0.625000
vt 0.140625 0.625000
vt 0.140625 0.812500
vt 0.093750 0.812500
s 0
f 33/27/13 34/28/13 36/29/13 35/30/13
f 37/27/14 39/30/14 40/29/14 38/28/14
o bar
v -0.502921 0.375000 0.125000
v -0.502921 0.500000 0.125000
v -0.502921 0.375000 -0.125000
v -0.502921 0.500000 -0.125000
v 0.497079 0.375000 0.125000
v 0.497079 0.500000 0.125000
v 0.497079 0.375000 -0.125000
v 0.497079 0.500000 -0.125000
vn -1.0000 -0.0000 -0.0000
vn -0.0000 -0.0000 -1.0000
vn 1.0000 -0.0000 -0.0000
vn -0.0000 -0.0000 1.0000
vn -0.0000 -1.0000 -0.0000
vn -0.0000 1.0000 -0.0000
vt 0.375000 0.812500
vt 0.375000 0.875000
vt 0.312500 0.875000
vt 0.312500 0.812500
vt 0.062500 0.875000
vt 0.062500 0.812500
vt -0.000000 0.875000
vt 0.000000 0.812500
vt 0.625000 0.812500
vt 0.625000 0.875000
vt 0.562500 0.875000
vt 0.312500 1.000000
vt 0.562500 1.000000
vt 0.062500 1.000000
s 0
f 41/31/15 42/32/15 44/33/15 43/34/15
f 43/34/16 44/33/16 48/35/16 47/36/16
f 47/36/17 48/35/17 46/37/17 45/38/17
f 45/39/18 46/40/18 42/32/18 41/31/18
f 43/41/19 47/33/19 45/42/19 41/43/19
f 48/35/20 44/33/20 42/42/20 46/44/20
