<?xml version="1.0" encoding="UTF-8" standalone="no"?>
<!-- Created with Inkscape (http://www.inkscape.org/) -->
<svg
   xmlns:svg="http://www.w3.org/2000/svg"
   xmlns="http://www.w3.org/2000/svg"
   version="1.0"
   width="4500"
   height="500"
   id="svg2">
  <defs
     id="defs4" />
  <path
     d="M 52.857143,445.71429 C 7.8074726,430.97193 55.161696,355.63947 84.285715,374.28572 C 106.55268,388.54183 522.85714,344.28571 590,317.14286 C 657.14286,290 688.42785,317.60333 694.14214,343.31762 C 840.44692,370.70047 853.5789,289.88827 925.29973,287.86797 C 997.02056,285.84766 1162.6856,321.203 1162.6856,321.203 C 1162.6856,321.203 1143.4927,262.61415 1145.513,236.35019 C 1147.5333,210.08622 1352.5943,213.11668 1352.5943,213.11668 C 1352.5943,213.11668 1361.4859,427.32689 1304.1069,431.30963 C 917.76005,458.12636 294.46027,524.77816 52.857143,445.71429 z"
     id="path2383"
     style="fill:none;fill-rule:evenodd;stroke:#000000;stroke-width:1;stroke-linecap:butt;stroke-linejoin:miter;stroke-miterlimit:4;stroke-dasharray:none;stroke-opacity:1" />
  <path
     d="M 160.61425,306.05071 L 158.59395,374.74108"
     id="path2392"
     style="fill:none;fill-rule:evenodd;stroke:#000000;stroke-width:1;stroke-linecap:butt;stroke-linejoin:miter;stroke-miterlimit:4;stroke-dasharray:none;stroke-opacity:1" />
  <path
     d="M 28.14163,280.15366 C 37.441515,280.76114 51.642274,272.07671 57.823307,278.13363 C 50.814837,280.8015 41.666469,284.02812 46.338414,293.16655 C 47.532353,298.62655 49.721484,313.8489 42.578594,311.58568 C 37.623853,302.89963 48.123591,287.81792 37.661162,282.61772 C 34.28384,282.64021 26.669203,287.37923 28.14163,280.15366 z M 64.261841,274.10303 C 77.285655,278.52453 63.436111,294.72049 71.918284,302.27303 C 83.238887,310.79665 94.585965,292.50371 87.541568,282.79422 C 85.431722,278.3842 90.833649,265.84685 92.858419,275.97674 C 94.259442,286.6341 95.026431,300.05683 85.470178,307.26887 C 75.441923,314.31842 61.48819,304.57101 64.428543,292.84196 C 64.190602,286.59725 64.766814,280.34062 64.261841,274.10303 z M 97.363655,268.55801 C 106.66354,269.1655 120.86429,260.48102 127.04533,266.53798 C 120.03687,269.20586 110.8885,272.43245 115.56045,281.57088 C 116.75438,287.0309 118.94352,302.25327 111.80061,299.99004 C 106.84586,291.30397 117.3456,276.2223 106.8832,271.02204 C 103.5059,271.0445 95.89129,275.78353 97.363655,268.55801 z M 149.36539,263.21414 C 135.81052,265.38698 132.53601,287.88768 145.66623,293.01694 C 160.5491,295.56237 168.2324,271.94699 155.97771,264.1681 C 154.08406,262.83981 151.55723,262.48007 149.36538,263.21413 M 149.29349,259.19543 C 161.66668,256.06708 170.61963,271.4347 166.76425,282.10156 C 163.99115,294.77304 145.4798,303.13507 135.96605,292.54736 C 126.95967,281.22862 134.43715,260.61314 149.29349,259.19543 z M 192.76582,272.06689 C 197.64191,272.45666 207.06161,286.6208 198.27211,285.3449 C 196.62901,275.81392 176.96989,269.53725 180.80758,283.95383 C 181.73162,289.80498 174.31691,294.44789 175.54554,285.49903 C 175.67131,275.08016 169.52521,256.67423 183.43158,253.17236 C 194.36577,249.30495 205.74705,264.49049 194.1732,271.38759 L 192.76582,272.06689 L 192.76582,272.06689 z M 179.76335,258.83481 C 170.90579,271.74539 199.49325,275.24727 192.48153,260.80608 C 189.62563,257.09019 183.59093,256.02269 179.76335,258.83481 z M 210.42796,249.61815 C 219.93058,253.67762 215.379,265.16078 215.41225,272.99448 C 217.64954,276.81155 216.3975,288.94133 210.74873,282.1546 C 211.03676,271.41676 210.5385,260.45677 210.42796,249.61815 z M 238.25937,249.84695 C 233.16216,255.147 231.0999,273.55251 242.95621,267.26317 C 247.8573,261.01843 238.30074,256.00276 238.25937,249.84695 z M 235.30463,245.45096 C 249.00535,245.82099 245.39283,263.87146 253.52586,270.89797 C 257.167,276.95434 250.18823,282.38684 247.96508,274.00612 C 239.73681,264.65051 228.33111,278.61891 224.40012,281.95961 C 222.23511,272.05347 231.64384,263.05188 232.6198,252.99615 C 233.49674,250.47473 234.38659,247.95773 235.30463,245.45096 z M 260.8353,241.17422 C 271.29568,245.20668 264.83135,257.34689 265.45048,265.43456 C 264.16397,278.73669 281.68741,265.55819 282.63773,273.32856 C 274.62769,277.14917 257.44504,281.36561 261.28607,266.37092 C 261.13581,257.97202 260.98557,249.5731 260.8353,241.17422 z M 27.142857,332.85714 L 295.71429,280 L 294.28571,225.71429 L 22.857143,264.28571 L 27.142857,332.85714 z M 171.72593,305.04056 L 170.71578,372.72078"
     id="text2385"
     style="font-size:40px;font-style:normal;font-weight:normal;fill:none;fill-opacity:1;stroke:#000000;stroke-width:1;stroke-linecap:butt;stroke-linejoin:miter;stroke-miterlimit:4;stroke-dasharray:none;stroke-opacity:1;font-family:Bitstream Vera Sans" />
  <path
     d="M 310.11683,402.0152 L 395.9798,394.94414 L 393.95949,373.73093 L 435.37575,404.03551 L 400.02041,435.35024 L 396.98995,413.12688 L 312.13714,419.1878 L 310.11683,402.0152 z"
     id="path2483"
     style="fill:none;fill-rule:evenodd;stroke:#000000;stroke-width:1;stroke-linecap:butt;stroke-linejoin:miter;stroke-miterlimit:4;stroke-dasharray:none;stroke-opacity:1" />
  <path
     d="M 1452.5994,177.76134 C 1451.5892,222.20805 1514.2187,217.15729 1547.5537,218.16744 C 1580.8887,219.17759 1593.0106,180.7918 1593.0106,180.7918 L 1452.5994,177.76134 z"
     id="path3256"
     style="fill:none;fill-rule:evenodd;stroke:#000000;stroke-width:1px;stroke-linecap:butt;stroke-linejoin:miter;stroke-opacity:1" />
  <path
     d="M 1679.8837,160.58874 C 1679.8837,208.06591 1752.6147,202.005 1798.0715,202.005 C 1843.5284,202.005 1866.7619,182.8121 1865.7518,152.50752 L 1679.8837,160.58874 z"
     id="path3258"
     style="fill:none;fill-rule:evenodd;stroke:#000000;stroke-width:1px;stroke-linecap:butt;stroke-linejoin:miter;stroke-opacity:1" />
  <path
     d="M 1969.7975,154.52783 C 1996.0614,237.36034 2151.6249,200.99484 2166.7772,149.47706 L 1969.7975,154.52783 z"
     id="path3260"
     style="fill:none;fill-rule:evenodd;stroke:#000000;stroke-width:1px;stroke-linecap:butt;stroke-linejoin:miter;stroke-opacity:1" />
  <path
     d="M 2264.762,206.0456 C 2334.4625,232.30957 2311.229,284.8375 2363.757,317.16238 C 2416.2849,349.48727 2469.823,313.12177 2507.1986,300.99994 C 2544.5743,288.87811 2622.356,273.72582 2653.6707,289.88827 C 2684.9855,306.05071 2740.5439,355.54818 2809.2342,290.89842 C 2877.9246,226.24866 2899.1378,220.18774 2930.4525,234.32988 C 2961.7673,248.47201 3038.5389,216.14713 3038.5389,216.14713 C 3038.5389,216.14713 2894.087,395.95428 2597.1022,405.04566 C 2300.1173,414.13703 2263.7519,207.05576 2264.762,206.0456 z"
     id="path3262"
     style="fill:none;fill-rule:evenodd;stroke:#000000;stroke-width:1px;stroke-linecap:butt;stroke-linejoin:miter;stroke-opacity:1" />
  <path
     d="M 3126.3251,213.78091 C 3166.9091,233.99938 3222.1172,164.21259 3313.3728,197.79108 C 3339.5401,207.4196 3387.6427,236.84435 3432.1792,214.68606 C 3505.6119,178.15106 3542.0715,171.21844 3591.5011,214.30378 C 3631.613,249.26737 3694.5853,209.32091 3731.1975,206.7001 C 3767.8097,204.07929 3791.1276,201.9309 3791.1276,201.9309 C 3791.1276,201.9309 3828.5423,284.33291 3743.7367,302.00076 C 3658.931,319.6686 3176.6784,366.16844 3136.0424,330.83275 C 3095.4064,295.49706 3126.3251,213.78091 3126.3251,213.78091 z"
     id="path2500"
     style="fill:none;fill-rule:evenodd;stroke:#000000;stroke-width:1px;stroke-linecap:butt;stroke-linejoin:miter;stroke-opacity:1" />
  <path
     d="M 3914.0734,195.16952 C 3982.7852,157.69036 4012.7685,205.16396 4029.0095,250.13895 C 4045.2504,295.11394 4167.6824,362.57642 4240.1421,353.83128 C 4312.6018,345.08615 4375.067,336.34101 4382.5629,383.81461 C 4390.0587,431.28821 4383.8122,443.78126 4383.8122,443.78126 L 3912.8241,443.78126 L 3914.0734,195.16952 z"
     id="path2417"
     style="fill:none;fill-rule:evenodd;stroke:#000000;stroke-width:1px;stroke-linecap:butt;stroke-linejoin:miter;stroke-opacity:1" />
  <path
     d="M 4365.6972,203.29 C 4363.2538,182.13454 4458.9833,181.12181 4368.8205,268.87853 C 4272.624,185.45737 4365.6972,181.78698 4365.6972,203.29 z"
     id="path2421"
     style="fill:none;fill-rule:evenodd;stroke:#000000;stroke-width:1px;stroke-linecap:butt;stroke-linejoin:miter;stroke-opacity:1" />
  <path
     d="M 3930.1428,396.95575 L 3930.1428,403.16669 L 3937.5452,403.16669 L 3937.5452,405.95966 L 3930.1428,405.95966 L 3930.1428,417.83466 C 3930.1428,419.61852 3930.3837,420.76435 3930.8655,421.27216 C 3931.3603,421.77997 3932.3564,422.03388 3933.8538,422.03387 L 3937.5452,422.03387 L 3937.5452,425.04169 L 3933.8538,425.04169 C 3931.0803,425.04169 3929.1663,424.52736 3928.1116,423.49872 C 3927.0569,422.45705 3926.5295,420.56904 3926.5295,417.83466 L 3926.5295,405.95966 L 3923.8928,405.95966 L 3923.8928,403.16669 L 3926.5295,403.16669 L 3926.5295,396.95575 L 3930.1428,396.95575 M 3960.4749,411.83856 L 3960.4749,425.04169 L 3956.8811,425.04169 L 3956.8811,411.95575 C 3956.8811,409.88545 3956.4774,408.33597 3955.6702,407.30731 C 3954.8629,406.27868 3953.6519,405.76436 3952.0374,405.76434 C 3950.0972,405.76436 3948.5673,406.38285 3947.4475,407.61981 C 3946.3277,408.85681 3945.7678,410.543 3945.7678,412.67841 L 3945.7678,425.04169 L 3942.1545,425.04169 L 3942.1545,394.65106 L 3945.7678,394.65106 L 3945.7678,406.56512 C 3946.6272,405.25004 3947.6363,404.26697 3948.7952,403.61591 C 3949.967,402.96489 3951.3147,402.63937 3952.8381,402.63934 C 3955.3511,402.63937 3957.2522,403.42061 3958.5413,404.98309 C 3959.8303,406.53259 3960.4748,408.81774 3960.4749,411.83856 M 3986.3928,413.20575 L 3986.3928,414.96356 L 3969.8694,414.96356 C 3970.0256,417.43753 3970.7678,419.32555 3972.0959,420.62762 C 3973.4371,421.91669 3975.2991,422.56122 3977.6819,422.56122 C 3979.0621,422.56122 3980.3967,422.39195 3981.6858,422.05341 C 3982.9879,421.71487 3984.2769,421.20706 3985.553,420.52997 L 3985.553,423.92841 C 3984.2639,424.47528 3982.9423,424.89195 3981.5881,425.17841 C 3980.234,425.46486 3978.8603,425.60809 3977.467,425.60809 C 3973.9774,425.60809 3971.2105,424.59247 3969.1663,422.56122 C 3967.135,420.52997 3966.1194,417.78258 3966.1194,414.31903 C 3966.1194,410.73832 3967.0829,407.89978 3969.01,405.80341 C 3970.9501,403.69405 3973.5608,402.63937 3976.842,402.63934 C 3979.7847,402.63937 3982.1089,403.58989 3983.8147,405.49091 C 3985.5334,407.37894 3986.3928,409.95056 3986.3928,413.20575 M 3982.7991,412.15106 C 3982.773,410.18493 3982.2196,408.61592 3981.1389,407.44403 C 3980.0712,406.27217 3978.6519,405.68624 3976.8811,405.68622 C 3974.8759,405.68624 3973.2678,406.25264 3972.0569,407.38544 C 3970.859,408.51827 3970.1689,410.11332 3969.9866,412.17059 L 3982.7991,412.15106 M 4025.0647,420.88153 L 4025.0647,413.0495 L 4018.6194,413.0495 L 4018.6194,409.80731 L 4028.9709,409.80731 L 4028.9709,422.32684 C 4027.4475,423.40757 4025.7678,424.22789 4023.9319,424.78778 C 4022.0959,425.33466 4020.1363,425.60809 4018.053,425.60809 C 4013.4957,425.60809 4009.928,424.27997 4007.3499,421.62372 C 4004.7847,418.95445 4003.5022,415.24352 4003.5022,410.49091 C 4003.5022,405.7253 4004.7847,402.01437 4007.3499,399.35809 C 4009.928,396.68885 4013.4957,395.35422 4018.053,395.35419 C 4019.954,395.35422 4021.7574,395.58859 4023.4631,396.05731 C 4025.1819,396.52609 4026.7639,397.21619 4028.2092,398.12762 L 4028.2092,402.32684 C 4026.7509,401.08989 4025.2014,400.1589 4023.5608,399.53387 C 4021.9201,398.9089 4020.1949,398.5964 4018.385,398.59637 C 4014.8173,398.5964 4012.135,399.59249 4010.3381,401.58466 C 4008.5543,403.57686 4007.6623,406.54561 4007.6624,410.49091 C 4007.6623,414.42321 4008.5543,417.38544 4010.3381,419.37762 C 4012.135,421.36982 4014.8173,422.36591 4018.385,422.36591 C 4019.7782,422.36591 4021.0217,422.24872 4022.1155,422.01434 C 4023.2092,421.76695 4024.1923,421.38935 4025.0647,420.88153 M 4045.9827,414.04559 C 4043.079,414.0456 4041.0673,414.37764 4039.9475,415.04169 C 4038.8277,415.70576 4038.2678,416.83857 4038.2678,418.44012 C 4038.2678,419.71617 4038.6845,420.7318 4039.5178,421.487 C 4040.3642,422.22919 4041.51,422.60028 4042.9553,422.60028 C 4044.9475,422.60028 4046.5425,421.89716 4047.7405,420.49091 C 4048.9514,419.07164 4049.5569,417.19013 4049.5569,414.84637 L 4049.5569,414.04559 L 4045.9827,414.04559 M 4053.1506,412.56122 L 4053.1506,425.04169 L 4049.5569,425.04169 L 4049.5569,421.72137 C 4048.7366,423.0495 4047.7144,424.03257 4046.4905,424.67059 C 4045.2665,425.29559 4043.7691,425.60809 4041.9983,425.60809 C 4039.7587,425.60809 4037.9748,424.98309 4036.6467,423.73309 C 4035.3316,422.47008 4034.6741,420.78388 4034.6741,418.6745 C 4034.6741,416.21357 4035.4944,414.3581 4037.135,413.10809 C 4038.7886,411.85811 4041.2496,411.23311 4044.5178,411.23309 L 4049.5569,411.23309 L 4049.5569,410.88153 C 4049.5569,409.2279 4049.01,407.95186 4047.9163,407.05341 C 4046.8355,406.14197 4045.3121,405.68624 4043.3459,405.68622 C 4042.0959,405.68624 4040.8785,405.83598 4039.6936,406.13544 C 4038.5087,406.43493 4037.3694,406.88415 4036.2756,407.48309 L 4036.2756,404.16278 C 4037.5907,403.65499 4038.8668,403.27739 4040.1038,403.02997 C 4041.3407,402.76957 4042.5452,402.63937 4043.717,402.63934 C 4046.8811,402.63937 4049.2444,403.45968 4050.8069,405.10028 C 4052.3694,406.74092 4053.1506,409.2279 4053.1506,412.56122 M 4060.7288,395.88153 L 4066.6077,395.88153 L 4074.0491,415.72528 L 4081.5295,395.88153 L 4087.4084,395.88153 L 4087.4084,425.04169 L 4083.5608,425.04169 L 4083.5608,399.43622 L 4076.0413,419.43622 L 4072.0764,419.43622 L 4064.5569,399.43622 L 4064.5569,425.04169 L 4060.7288,425.04169 L 4060.7288,395.88153 M 4113.8147,413.20575 L 4113.8147,414.96356 L 4097.2913,414.96356 C 4097.4475,417.43753 4098.1897,419.32555 4099.5178,420.62762 C 4100.859,421.91669 4102.7209,422.56122 4105.1038,422.56122 C 4106.484,422.56122 4107.8186,422.39195 4109.1077,422.05341 C 4110.4097,421.71487 4111.6988,421.20706 4112.9749,420.52997 L 4112.9749,423.92841 C 4111.6858,424.47528 4110.3642,424.89195 4109.01,425.17841 C 4107.6558,425.46486 4106.2821,425.60809 4104.8889,425.60809 C 4101.3993,425.60809 4098.6324,424.59247 4096.5881,422.56122 C 4094.5569,420.52997 4093.5413,417.78258 4093.5413,414.31903 C 4093.5413,410.73832 4094.5048,407.89978 4096.4319,405.80341 C 4098.372,403.69405 4100.9827,402.63937 4104.2639,402.63934 C 4107.2066,402.63937 4109.5308,403.58989 4111.2366,405.49091 C 4112.9553,407.37894 4113.8147,409.95056 4113.8147,413.20575 M 4110.2209,412.15106 C 4110.1949,410.18493 4109.6415,408.61592 4108.5608,407.44403 C 4107.4931,406.27217 4106.0738,405.68624 4104.303,405.68622 C 4102.2978,405.68624 4100.6897,406.25264 4099.4788,407.38544 C 4098.2808,408.51827 4097.5907,410.11332 4097.4084,412.17059 L 4110.2209,412.15106 M 4148.1897,404.00653 L 4148.1897,407.36591 C 4147.1741,406.80603 4146.1519,406.38936 4145.1233,406.11591 C 4144.1077,405.82947 4143.079,405.68624 4142.0374,405.68622 C 4139.7066,405.68624 4137.8967,406.42842 4136.6077,407.91278 C 4135.3186,409.38415 4134.6741,411.45446 4134.6741,414.12372 C 4134.6741,416.793 4135.3186,418.86982 4136.6077,420.35419 C 4137.8967,421.82554 4139.7066,422.56122 4142.0374,422.56122 C 4143.079,422.56122 4144.1077,422.4245 4145.1233,422.15106 C 4146.1519,421.86461 4147.1741,421.44143 4148.1897,420.88153 L 4148.1897,424.20184 C 4147.1871,424.67059 4146.1454,425.02216 4145.0647,425.25653 C 4143.997,425.49091 4142.8577,425.60809 4141.6467,425.60809 C 4138.3524,425.60809 4135.7353,424.57294 4133.7952,422.50262 C 4131.8551,420.43232 4130.885,417.63935 4130.885,414.12372 C 4130.885,410.55602 4131.8616,407.75004 4133.8147,405.70575 C 4135.7808,403.6615 4138.4696,402.63937 4141.8811,402.63934 C 4142.9879,402.63937 4144.0686,402.75655 4145.1233,402.99091 C 4146.178,403.21228 4147.2001,403.55082 4148.1897,404.00653 M 4164.3811,399.76825 L 4159.0295,414.27997 L 4169.7522,414.27997 L 4164.3811,399.76825 M 4162.1545,395.88153 L 4166.6272,395.88153 L 4177.7405,425.04169 L 4173.6389,425.04169 L 4170.9827,417.56122 L 4157.8381,417.56122 L 4155.1819,425.04169 L 4151.0217,425.04169 L 4162.1545,395.88153 M 4181.9788,395.88153 L 4187.2913,395.88153 L 4200.2209,420.27606 L 4200.2209,395.88153 L 4204.0491,395.88153 L 4204.0491,425.04169 L 4198.7366,425.04169 L 4185.8069,400.64716 L 4185.8069,425.04169 L 4181.9788,425.04169 L 4181.9788,395.88153 M 4240.1819,414.12372 C 4240.1819,411.4805 4239.635,409.41019 4238.5413,407.91278 C 4237.4605,406.40238 4235.9696,405.64718 4234.0686,405.64716 C 4232.1676,405.64718 4230.6702,406.40238 4229.5764,407.91278 C 4228.4957,409.41019 4227.9553,411.4805 4227.9553,414.12372 C 4227.9553,416.76696 4228.4957,418.84378 4229.5764,420.35419 C 4230.6702,421.85159 4232.1676,422.60028 4234.0686,422.60028 C 4235.9696,422.60028 4237.4605,421.85159 4238.5413,420.35419 C 4239.635,418.84378 4240.1819,416.76696 4240.1819,414.12372 M 4227.9553,406.487 C 4228.7105,405.18494 4229.661,404.2214 4230.8069,403.59637 C 4231.9657,402.95838 4233.3459,402.63937 4234.9475,402.63934 C 4237.6037,402.63937 4239.7587,403.69405 4241.4124,405.80341 C 4243.079,407.9128 4243.9123,410.68623 4243.9124,414.12372 C 4243.9123,417.56123 4243.079,420.33466 4241.4124,422.44403 C 4239.7587,424.55341 4237.6037,425.60809 4234.9475,425.60809 C 4233.3459,425.60809 4231.9657,425.29559 4230.8069,424.67059 C 4229.661,424.03257 4228.7105,423.06252 4227.9553,421.76044 L 4227.9553,425.04169 L 4224.342,425.04169 L 4224.342,394.65106 L 4227.9553,394.65106 L 4227.9553,406.487 M 4268.5803,413.20575 L 4268.5803,414.96356 L 4252.0569,414.96356 C 4252.2131,417.43753 4252.9553,419.32555 4254.2834,420.62762 C 4255.6246,421.91669 4257.4866,422.56122 4259.8694,422.56122 C 4261.2496,422.56122 4262.5842,422.39195 4263.8733,422.05341 C 4265.1754,421.71487 4266.4644,421.20706 4267.7405,420.52997 L 4267.7405,423.92841 C 4266.4514,424.47528 4265.1298,424.89195 4263.7756,425.17841 C 4262.4215,425.46486 4261.0478,425.60809 4259.6545,425.60809 C 4256.1649,425.60809 4253.398,424.59247 4251.3538,422.56122 C 4249.3225,420.52997 4248.3069,417.78258 4248.3069,414.31903 C 4248.3069,410.73832 4249.2704,407.89978 4251.1975,405.80341 C 4253.1376,403.69405 4255.7483,402.63937 4259.0295,402.63934 C 4261.9722,402.63937 4264.2964,403.58989 4266.0022,405.49091 C 4267.7209,407.37894 4268.5803,409.95056 4268.5803,413.20575 M 4264.9866,412.15106 C 4264.9605,410.18493 4264.4071,408.61592 4263.3264,407.44403 C 4262.2587,406.27217 4260.8394,405.68624 4259.0686,405.68622 C 4257.0634,405.68624 4255.4553,406.25264 4254.2444,407.38544 C 4253.0465,408.51827 4252.3564,410.11332 4252.1741,412.17059 L 4264.9866,412.15106 M 4294.5178,420.88153 L 4294.5178,413.0495 L 4288.0725,413.0495 L 4288.0725,409.80731 L 4298.4241,409.80731 L 4298.4241,422.32684 C 4296.9006,423.40757 4295.2209,424.22789 4293.385,424.78778 C 4291.5491,425.33466 4289.5894,425.60809 4287.5061,425.60809 C 4282.9488,425.60809 4279.3811,424.27997 4276.803,421.62372 C 4274.2379,418.95445 4272.9553,415.24352 4272.9553,410.49091 C 4272.9553,405.7253 4274.2379,402.01437 4276.803,399.35809 C 4279.3811,396.68885 4282.9488,395.35422 4287.5061,395.35419 C 4289.4071,395.35422 4291.2105,395.58859 4292.9163,396.05731 C 4294.635,396.52609 4296.217,397.21619 4297.6624,398.12762 L 4297.6624,402.32684 C 4296.204,401.08989 4294.6545,400.1589 4293.0139,399.53387 C 4291.3733,398.9089 4289.648,398.5964 4287.8381,398.59637 C 4284.2704,398.5964 4281.5881,399.59249 4279.7913,401.58466 C 4278.0074,403.57686 4277.1155,406.54561 4277.1155,410.49091 C 4277.1155,414.42321 4278.0074,417.38544 4279.7913,419.37762 C 4281.5881,421.36982 4284.2704,422.36591 4287.8381,422.36591 C 4289.2313,422.36591 4290.4748,422.24872 4291.5686,422.01434 C 4292.6623,421.76695 4293.6454,421.38935 4294.5178,420.88153 M 4305.6506,395.88153 L 4309.5959,395.88153 L 4309.5959,425.04169 L 4305.6506,425.04169 L 4305.6506,395.88153 M 4317.4475,395.88153 L 4322.76,395.88153 L 4335.6897,420.27606 L 4335.6897,395.88153 L 4339.5178,395.88153 L 4339.5178,425.04169 L 4334.2053,425.04169 L 4321.2756,400.64716 L 4321.2756,425.04169 L 4317.4475,425.04169 L 4317.4475,395.88153 M 4347.7209,420.08075 L 4351.842,420.08075 L 4351.842,425.04169 L 4347.7209,425.04169 L 4347.7209,420.08075 M 4360.4553,420.08075 L 4364.5764,420.08075 L 4364.5764,425.04169 L 4360.4553,425.04169 L 4360.4553,420.08075 M 4373.1897,420.08075 L 4377.3108,420.08075 L 4377.3108,425.04169 L 4373.1897,425.04169 L 4373.1897,420.08075"
     id="text2423"
     style="font-size:40px;font-style:normal;font-weight:normal;fill:none;fill-opacity:1;stroke:#000000;stroke-width:1px;stroke-linecap:butt;stroke-linejoin:miter;stroke-opacity:1;font-family:Bitstream Vera Sans" />
  <path
     d="M 2432.7886,335.78721 L 2437.9426,335.78721 L 2445.8758,367.67163 L 2453.7838,335.78721 L 2459.5189,335.78721 L 2467.4521,367.67163 L 2475.3601,335.78721 L 2480.5394,335.78721 L 2471.065,373.50784 L 2464.6477,373.50784 L 2456.6893,340.76442 L 2448.655,373.50784 L 2442.2377,373.50784 L 2432.7886,335.78721 M 2487.2852,335.78721 L 2492.3887,335.78721 L 2492.3887,351.24939 L 2510.9332,351.24939 L 2510.9332,335.78721 L 2516.0367,335.78721 L 2516.0367,373.50784 L 2510.9332,373.50784 L 2510.9332,355.54444 L 2492.3887,355.54444 L 2492.3887,373.50784 L 2487.2852,373.50784 L 2487.2852,335.78721 M 2538.8005,340.81495 L 2531.8779,359.58683 L 2545.7483,359.58683 L 2538.8005,340.81495 M 2535.9203,335.78721 L 2541.7059,335.78721 L 2556.0817,373.50784 L 2550.7761,373.50784 L 2547.34,363.83135 L 2530.3367,363.83135 L 2526.9007,373.50784 L 2521.5192,373.50784 L 2535.9203,335.78721 M 2552.292,335.78721 L 2584.2017,335.78721 L 2584.2017,340.08226 L 2570.8112,340.08226 L 2570.8112,373.50784 L 2565.6824,373.50784 L 2565.6824,340.08226 L 2552.292,340.08226 L 2552.292,335.78721 M 2605.6264,335.78721 L 2610.7299,335.78721 L 2610.7299,351.24939 L 2629.2744,351.24939 L 2629.2744,335.78721 L 2634.3779,335.78721 L 2634.3779,373.50784 L 2629.2744,373.50784 L 2629.2744,355.54444 L 2610.7299,355.54444 L 2610.7299,373.50784 L 2605.6264,373.50784 L 2605.6264,335.78721 M 2657.1417,340.81495 L 2650.2191,359.58683 L 2664.0896,359.58683 L 2657.1417,340.81495 M 2654.2615,335.78721 L 2660.0472,335.78721 L 2674.4229,373.50784 L 2669.1173,373.50784 L 2665.6813,363.83135 L 2648.6779,363.83135 L 2645.2419,373.50784 L 2639.8604,373.50784 L 2654.2615,335.78721 M 2686.2975,373.50784 L 2671.8964,335.78721 L 2677.2274,335.78721 L 2689.1777,367.54531 L 2701.1533,335.78721 L 2706.4589,335.78721 L 2692.0832,373.50784 L 2686.2975,373.50784 M 2711.9415,335.78721 L 2735.7916,335.78721 L 2735.7916,340.08226 L 2717.045,340.08226 L 2717.045,351.24939 L 2735.0084,351.24939 L 2735.0084,355.54444 L 2717.045,355.54444 L 2717.045,369.21279 L 2736.2464,369.21279 L 2736.2464,373.50784 L 2711.9415,373.50784 L 2711.9415,335.78721"
     id="text2461"
     style="font-size:51.74269867px;font-style:normal;font-weight:normal;fill:none;fill-opacity:1;stroke:#000000;stroke-width:1px;stroke-linecap:butt;stroke-linejoin:miter;stroke-opacity:1;font-family:Bitstream Vera Sans" />
  <path
     d="M 4564.8849,316.7382 L 4569.9188,316.7382 L 4569.9188,353.94397 L 4564.8849,353.94397 L 4564.8849,316.7382 M 4574.7782,316.7382 L 4606.2524,316.7382 L 4606.2524,320.97462 L 4593.0447,320.97462 L 4593.0447,353.94397 L 4587.9859,353.94397 L 4587.9859,320.97462 L 4574.7782,320.97462 L 4574.7782,316.7382 M 4615.2735,316.7382 L 4615.2735,330.56888 L 4611.037,330.56888 L 4611.037,316.7382 L 4615.2735,316.7382 M 4647.4952,317.95928 L 4647.4952,322.86855 C 4645.5846,321.95484 4643.7821,321.27369 4642.0875,320.8251 C 4640.3929,320.37657 4638.7565,320.15229 4637.1783,320.15226 C 4634.437,320.15229 4632.3188,320.68392 4630.8236,321.74714 C 4629.345,322.81044 4628.6057,324.32226 4628.6057,326.28261 C 4628.6057,327.92737 4629.0958,329.17337 4630.076,330.02063 C 4631.0728,330.85133 4632.9501,331.52417 4635.708,332.03916 L 4638.7482,332.66217 C 4642.5028,333.37657 4645.269,334.63918 4647.0466,336.45003 C 4648.8409,338.2443 4649.738,340.65324 4649.738,343.67687 C 4649.738,347.28199 4648.5252,350.0149 4646.0997,351.8756 C 4643.6907,353.7363 4640.152,354.66665 4635.4837,354.66665 C 4633.7227,354.66665 4631.8453,354.46729 4629.8517,354.06857 C 4627.8747,353.66985 4625.823,353.08007 4623.6965,352.29924 L 4623.6965,347.11585 C 4625.7399,348.26218 4627.7418,349.12608 4629.7022,349.70755 C 4631.6626,350.28902 4633.5897,350.57975 4635.4837,350.57975 C 4638.3578,350.57975 4640.5757,350.0149 4642.1374,348.88518 C 4643.699,347.75547 4644.4798,346.14397 4644.4799,344.05067 C 4644.4798,342.22321 4643.915,340.79445 4642.7853,339.76441 C 4641.6722,338.73439 4639.8364,337.96187 4637.2779,337.44683 L 4634.2128,336.84875 C 4630.4581,336.10117 4627.7418,334.92992 4626.0639,333.33501 C 4624.3859,331.74014 4623.5469,329.52225 4623.5469,326.68133 C 4623.5469,323.3919 4624.7016,320.80021 4627.0108,318.90625 C 4629.3367,317.01235 4632.5348,316.06539 4636.6051,316.06535 C 4638.3495,316.06539 4640.1271,316.22322 4641.938,316.53883 C 4643.7488,316.85453 4645.6012,317.32801 4647.4952,317.95928 M 4686.2709,321.6973 L 4679.4428,340.21297 L 4693.124,340.21297 L 4686.2709,321.6973 M 4683.43,316.7382 L 4689.1368,316.7382 L 4703.3163,353.94397 L 4698.0831,353.94397 L 4694.694,344.39955 L 4677.9227,344.39955 L 4674.5336,353.94397 L 4669.2256,353.94397 L 4683.43,316.7382 M 4708.724,316.7382 L 4713.7579,316.7382 L 4713.7579,349.70755 L 4731.8748,349.70755 L 4731.8748,353.94397 L 4708.724,353.94397 L 4708.724,316.7382 M 4737.133,316.7382 L 4742.1668,316.7382 L 4742.1668,349.70755 L 4760.2838,349.70755 L 4760.2838,353.94397 L 4737.133,353.94397 L 4737.133,316.7382 M 4781.7898,316.7382 L 4786.8237,316.7382 L 4786.8237,353.94397 L 4781.7898,353.94397 L 4781.7898,316.7382 M 4809.7752,316.7382 L 4814.8589,316.7382 L 4822.6838,348.18742 L 4830.4838,316.7382 L 4836.1407,316.7382 L 4843.9656,348.18742 L 4851.7656,316.7382 L 4856.8742,316.7382 L 4847.5292,353.94397 L 4841.1995,353.94397 L 4833.3496,321.64746 L 4825.425,353.94397 L 4819.0953,353.94397 L 4809.7752,316.7382 M 4873.172,321.6973 L 4866.3439,340.21297 L 4880.025,340.21297 L 4873.172,321.6973 M 4870.3311,316.7382 L 4876.0378,316.7382 L 4890.2174,353.94397 L 4884.9842,353.94397 L 4881.595,344.39955 L 4864.8238,344.39955 L 4861.4346,353.94397 L 4856.1266,353.94397 L 4870.3311,316.7382 M 4895.6251,316.7382 L 4902.4033,316.7382 L 4918.9005,347.86345 L 4918.9005,316.7382 L 4923.7848,316.7382 L 4923.7848,353.94397 L 4917.0066,353.94397 L 4900.5094,322.81871 L 4900.5094,353.94397 L 4895.6251,353.94397 L 4895.6251,316.7382 M 4928.6442,316.7382 L 4960.1184,316.7382 L 4960.1184,320.97462 L 4946.9107,320.97462 L 4946.9107,353.94397 L 4941.8519,353.94397 L 4941.8519,320.97462 L 4928.6442,320.97462 L 4928.6442,316.7382 M 4965.0028,316.7382 L 4988.5274,316.7382 L 4988.5274,320.97462 L 4970.0366,320.97462 L 4970.0366,331.98932 L 4987.7548,331.98932 L 4987.7548,336.22575 L 4970.0366,336.22575 L 4970.0366,349.70755 L 4988.9759,349.70755 L 4988.9759,353.94397 L 4965.0028,353.94397 L 4965.0028,316.7382 M 5002.3331,320.87494 L 5002.3331,349.80723 L 5008.4136,349.80723 C 5013.5471,349.80723 5017.3018,348.64429 5019.6775,346.31841 C 5022.0698,343.99254 5023.266,340.32097 5023.266,335.3037 C 5023.266,330.3197 5022.0698,326.67305 5019.6775,324.36376 C 5017.3018,322.03791 5013.5471,320.87497 5008.4136,320.87494 L 5002.3331,320.87494 M 4997.2992,316.7382 L 5007.6411,316.7382 C 5014.8513,316.73823 5020.1427,318.24175 5023.5152,321.24874 C 5026.8877,324.23919 5028.574,328.92417 5028.574,335.3037 C 5028.574,341.7165 5026.8794,346.4264 5023.4903,349.43342 C 5020.1011,352.44046 5014.8181,353.94397 5007.6411,353.94397 L 4997.2992,353.94397 L 4997.2992,316.7382 M 5047.6629,316.7382 L 5079.137,316.7382 L 5079.137,320.97462 L 5065.9293,320.97462 L 5065.9293,353.94397 L 5060.8705,353.94397 L 5060.8705,320.97462 L 5047.6629,320.97462 L 5047.6629,316.7382 M 5099.1229,320.15226 C 5095.468,320.15229 5092.5606,321.51459 5090.4009,324.23916 C 5088.2578,326.96379 5087.1862,330.67689 5087.1862,335.37846 C 5087.1862,340.06346 5088.2578,343.76825 5090.4009,346.49285 C 5092.5606,349.21745 5095.468,350.57975 5099.1229,350.57975 C 5102.7779,350.57975 5105.6686,349.21745 5107.7952,346.49285 C 5109.9383,343.76825 5111.0098,340.06346 5111.0099,335.37846 C 5111.0098,330.67689 5109.9383,326.96379 5107.7952,324.23916 C 5105.6686,321.51459 5102.7779,320.15229 5099.1229,320.15226 M 5099.1229,316.06535 C 5104.3395,316.06539 5108.5095,317.8181 5111.6329,321.3235 C 5114.7561,324.81235 5116.3178,329.49733 5116.3178,335.37846 C 5116.3178,341.24302 5114.7561,345.928 5111.6329,349.43342 C 5108.5095,352.92224 5104.3395,354.66665 5099.1229,354.66665 C 5093.8897,354.66665 5089.7031,352.92224 5086.5632,349.43342 C 5083.4399,345.94461 5081.8782,341.25963 5081.8782,335.37846 C 5081.8782,329.49733 5083.4399,324.81235 5086.5632,321.3235 C 5089.7031,317.8181 5093.8897,316.06539 5099.1229,316.06535 M 5140.4405,316.7382 L 5163.9651,316.7382 L 5163.9651,320.97462 L 5145.4744,320.97462 L 5145.4744,331.98932 L 5163.1926,331.98932 L 5163.1926,336.22575 L 5145.4744,336.22575 L 5145.4744,349.70755 L 5164.4137,349.70755 L 5164.4137,353.94397 L 5140.4405,353.94397 L 5140.4405,316.7382 M 5195.0406,317.95928 L 5195.0406,322.86855 C 5193.13,321.95484 5191.3274,321.27369 5189.6329,320.8251 C 5187.9383,320.37657 5186.3019,320.15229 5184.7236,320.15226 C 5181.9824,320.15229 5179.8642,320.68392 5178.369,321.74714 C 5176.8904,322.81044 5176.1511,324.32226 5176.1511,326.28261 C 5176.1511,327.92737 5176.6412,329.17337 5177.6214,330.02063 C 5178.6182,330.85133 5180.4955,331.52417 5183.2533,332.03916 L 5186.2936,332.66217 C 5190.0482,333.37657 5192.8143,334.63918 5194.592,336.45003 C 5196.3862,338.2443 5197.2833,340.65324 5197.2834,343.67687 C 5197.2833,347.28199 5196.0706,350.0149 5193.645,351.8756 C 5191.2361,353.7363 5187.6974,354.66665 5183.0291,354.66665 C 5181.268,354.66665 5179.3907,354.46729 5177.3971,354.06857 C 5175.4201,353.66985 5173.3683,353.08007 5171.2418,352.29924 L 5171.2418,347.11585 C 5173.2853,348.26218 5175.2872,349.12608 5177.2476,349.70755 C 5179.208,350.28902 5181.1351,350.57975 5183.0291,350.57975 C 5185.9032,350.57975 5188.1211,350.0149 5189.6827,348.88518 C 5191.2444,347.75547 5192.0252,346.14397 5192.0252,344.05067 C 5192.0252,342.22321 5191.4603,340.79445 5190.3307,339.76441 C 5189.2175,338.73439 5187.3818,337.96187 5184.8233,337.44683 L 5181.7581,336.84875 C 5178.0035,336.10117 5175.2872,334.92992 5173.6092,333.33501 C 5171.9313,331.74014 5171.0923,329.52225 5171.0923,326.68133 C 5171.0923,323.3919 5172.2469,320.80021 5174.5562,318.90625 C 5176.8821,317.01235 5180.0802,316.06539 5184.1505,316.06535 C 5185.8949,316.06539 5187.6725,316.22322 5189.4834,316.53883 C 5191.2942,316.85453 5193.1466,317.32801 5195.0406,317.95928 M 5232.9939,319.60401 L 5232.9939,324.912 C 5231.2993,323.33376 5229.4885,322.15421 5227.5613,321.37334 C 5225.6508,320.59254 5223.6156,320.20213 5221.4559,320.2021 C 5217.2029,320.20213 5213.9466,321.50628 5211.6872,324.11456 C 5209.4278,326.70628 5208.2981,330.46091 5208.2981,335.37846 C 5208.2981,340.27944 5209.4278,344.03407 5211.6872,346.64237 C 5213.9466,349.23407 5217.2029,350.52991 5221.4559,350.52991 C 5223.6156,350.52991 5225.6508,350.1395 5227.5613,349.35866 C 5229.4885,348.57784 5231.2993,347.39829 5232.9939,345.82 L 5232.9939,351.07815 C 5231.2329,352.27432 5229.3639,353.17145 5227.3869,353.76953 C 5225.4265,354.36761 5223.3498,354.66665 5221.1569,354.66665 C 5215.5249,354.66665 5211.0891,352.94716 5207.8495,349.50818 C 5204.6099,346.0526 5202.9901,341.3427 5202.9901,335.37846 C 5202.9901,329.39765 5204.6099,324.68775 5207.8495,321.24874 C 5211.0891,317.79318 5215.5249,316.06539 5221.1569,316.06535 C 5223.383,316.06539 5225.4763,316.36443 5227.4367,316.96248 C 5229.4137,317.54398 5231.2661,318.42449 5232.9939,319.60401 M 5253.254,321.6973 L 5246.4259,340.21297 L 5260.1071,340.21297 L 5253.254,321.6973 M 5250.4131,316.7382 L 5256.1199,316.7382 L 5270.2994,353.94397 L 5265.0662,353.94397 L 5261.677,344.39955 L 5244.9058,344.39955 L 5241.5166,353.94397 L 5236.2087,353.94397 L 5250.4131,316.7382 M 5280.7409,320.87494 L 5280.7409,334.85514 L 5287.0707,334.85514 C 5289.4131,334.85516 5291.224,334.24877 5292.5032,333.03597 C 5293.7825,331.82321 5294.4221,330.09542 5294.4221,327.85258 C 5294.4221,325.62641 5293.7825,323.90692 5292.5032,322.69411 C 5291.224,321.48136 5289.4131,320.87497 5287.0707,320.87494 L 5280.7409,320.87494 M 5275.7071,316.7382 L 5287.0707,316.7382 C 5291.2406,316.73823 5294.3888,317.6852 5296.5154,319.57909 C 5298.6585,321.45644 5299.7301,324.21427 5299.7301,327.85258 C 5299.7301,331.52417 5298.6585,334.29861 5296.5154,336.17591 C 5294.3888,338.05324 5291.2406,338.9919 5287.0707,338.99188 L 5280.7409,338.99188 L 5280.7409,353.94397 L 5275.7071,353.94397 L 5275.7071,316.7382 M 5306.5084,316.7382 L 5330.033,316.7382 L 5330.033,320.97462 L 5311.5423,320.97462 L 5311.5423,331.98932 L 5329.2605,331.98932 L 5329.2605,336.22575 L 5311.5423,336.22575 L 5311.5423,349.70755 L 5330.4816,349.70755 L 5330.4816,353.94397 L 5306.5084,353.94397 L 5306.5084,316.7382 M 5355.0528,316.7382 L 5376.4343,316.7382 L 5376.4343,320.97462 L 5360.0867,320.97462 L 5360.0867,331.93948 L 5374.8394,331.93948 L 5374.8394,336.17591 L 5360.0867,336.17591 L 5360.0867,353.94397 L 5355.0528,353.94397 L 5355.0528,316.7382 M 5402.1021,336.49987 C 5403.1819,336.86538 5404.2286,337.64621 5405.242,338.84236 C 5406.272,340.03854 5407.302,341.68327 5408.3321,343.77655 L 5413.4407,353.94397 L 5408.0331,353.94397 L 5403.2733,344.39955 C 5402.0439,341.90755 5400.8477,340.25452 5399.6848,339.44045 C 5398.5385,338.6264 5396.9685,338.21938 5394.9749,338.21936 L 5389.4925,338.21936 L 5389.4925,353.94397 L 5384.4586,353.94397 L 5384.4586,316.7382 L 5395.8222,316.7382 C 5400.0752,316.73823 5403.2484,317.62705 5405.3417,319.40465 C 5407.4349,321.18232 5408.4816,323.86539 5408.4816,327.45386 C 5408.4816,329.79638 5407.9333,331.74014 5406.8369,333.28517 C 5405.757,334.83024 5404.1787,335.9018 5402.1021,336.49987 M 5389.4925,320.87494 L 5389.4925,334.08262 L 5395.8222,334.08262 C 5398.2477,334.08264 5400.0752,333.52609 5401.3046,332.41297 C 5402.5506,331.28328 5403.1736,329.63024 5403.1736,327.45386 C 5403.1736,325.27753 5402.5506,323.64111 5401.3046,322.54459 C 5400.0752,321.43152 5398.2477,320.87497 5395.8222,320.87494 L 5389.4925,320.87494 M 5435.0465,320.15226 C 5431.3915,320.15229 5428.4842,321.51459 5426.3244,324.23916 C 5424.1813,326.96379 5423.1097,330.67689 5423.1097,335.37846 C 5423.1097,340.06346 5424.1813,343.76825 5426.3244,346.49285 C 5428.4842,349.21745 5431.3915,350.57975 5435.0465,350.57975 C 5438.7014,350.57975 5441.5921,349.21745 5443.7187,346.49285 C 5445.8618,343.76825 5446.9333,340.06346 5446.9334,335.37846 C 5446.9333,330.67689 5445.8618,326.96379 5443.7187,324.23916 C 5441.5921,321.51459 5438.7014,320.15229 5435.0465,320.15226 M 5435.0465,316.06535 C 5440.2631,316.06539 5444.433,317.8181 5447.5564,321.3235 C 5450.6797,324.81235 5452.2413,329.49733 5452.2414,335.37846 C 5452.2413,341.24302 5450.6797,345.928 5447.5564,349.43342 C 5444.433,352.92224 5440.2631,354.66665 5435.0465,354.66665 C 5429.8132,354.66665 5425.6266,352.92224 5422.4867,349.43342 C 5419.3634,345.94461 5417.8017,341.25963 5417.8017,335.37846 C 5417.8017,329.49733 5419.3634,324.81235 5422.4867,321.3235 C 5425.6266,317.8181 5429.8132,316.06539 5435.0465,316.06535 M 5460.1161,316.7382 L 5467.6171,316.7382 L 5477.1117,342.05706 L 5486.6561,316.7382 L 5494.157,316.7382 L 5494.157,353.94397 L 5489.2478,353.94397 L 5489.2478,321.27366 L 5479.6535,346.79189 L 5474.5947,346.79189 L 5465.0005,321.27366 L 5465.0005,353.94397 L 5460.1161,353.94397 L 5460.1161,316.7382"
     transform="matrix(0.6696317,-4.3398021e-2,0.2502172,1.4771419,0,0)"
     id="text2465"
     style="font-size:51.03645325px;font-style:normal;font-weight:normal;fill:none;fill-opacity:1;stroke:#000000;stroke-width:1px;stroke-linecap:butt;stroke-linejoin:miter;stroke-opacity:1;font-family:Bitstream Vera Sans" />
  <path
     d="M 2375.104,1427.5198 L 2379.7954,1427.5198 L 2379.7954,1462.1946 L 2375.104,1462.1946 L 2375.104,1427.5198 M 2408.9659,1445.6352 L 2408.9659,1458.3392 L 2416.4908,1458.3392 C 2419.0145,1458.3392 2420.8803,1457.8206 2422.088,1456.7832 C 2423.3112,1455.7303 2423.9227,1454.1278 2423.9228,1451.9756 C 2423.9227,1449.808 2423.3112,1448.2132 2422.088,1447.1913 C 2420.8803,1446.1539 2419.0145,1445.6352 2416.4908,1445.6352 L 2408.9659,1445.6352 M 2408.9659,1431.3751 L 2408.9659,1441.8263 L 2415.9102,1441.8263 C 2418.2017,1441.8264 2419.9048,1441.4006 2421.0197,1440.549 C 2422.1499,1439.6819 2422.715,1438.3658 2422.7151,1436.6007 C 2422.715,1434.8511 2422.1499,1433.5428 2421.0197,1432.6757 C 2419.9048,1431.8087 2418.2017,1431.3752 2415.9102,1431.3751 L 2408.9659,1431.3751 M 2404.2745,1427.5198 L 2416.2585,1427.5198 C 2419.8352,1427.5198 2422.5912,1428.263 2424.5266,1429.7494 C 2426.462,1431.2358 2427.4297,1433.3493 2427.4297,1436.0898 C 2427.4297,1438.211 2426.9342,1439.8987 2425.9433,1441.1528 C 2424.9524,1442.407 2423.497,1443.1889 2421.577,1443.4985 C 2423.884,1443.994 2425.6723,1445.0314 2426.942,1446.6107 C 2428.2271,1448.1745 2428.8696,1450.1331 2428.8697,1452.4866 C 2428.8696,1455.5832 2427.8168,1457.9754 2425.7111,1459.6631 C 2423.6053,1461.3507 2420.6093,1462.1946 2416.723,1462.1946 L 2404.2745,1462.1946 L 2404.2745,1427.5198 M 2436.8823,1427.5198 L 2458.8066,1427.5198 L 2458.8066,1431.468 L 2441.5737,1431.468 L 2441.5737,1441.7334 L 2458.0866,1441.7334 L 2458.0866,1445.6817 L 2441.5737,1445.6817 L 2441.5737,1458.2463 L 2459.2246,1458.2463 L 2459.2246,1462.1946 L 2436.8823,1462.1946 L 2436.8823,1427.5198 M 2492.9472,1430.1907 L 2492.9472,1435.1376 C 2491.3679,1433.6667 2489.6802,1432.5674 2487.8842,1431.8396 C 2486.1036,1431.1119 2484.2069,1430.7481 2482.1941,1430.748 C 2478.2303,1430.7481 2475.1956,1431.9635 2473.0899,1434.3944 C 2470.9842,1436.8098 2469.9313,1440.309 2469.9313,1444.892 C 2469.9313,1449.4596 2470.9842,1452.9588 2473.0899,1455.3897 C 2475.1956,1457.8051 2478.2303,1459.0128 2482.1941,1459.0128 C 2484.2069,1459.0128 2486.1036,1458.6489 2487.8842,1457.9212 C 2489.6802,1457.1935 2491.3679,1456.0942 2492.9472,1454.6233 L 2492.9472,1459.5237 C 2491.3059,1460.6385 2489.5641,1461.4746 2487.7216,1462.032 C 2485.8945,1462.5894 2483.9591,1462.8681 2481.9154,1462.8681 C 2476.6665,1462.8681 2472.5325,1461.2656 2469.5133,1458.0605 C 2466.494,1454.84 2464.9844,1450.4505 2464.9844,1444.892 C 2464.9844,1439.3181 2466.494,1434.9286 2469.5133,1431.7235 C 2472.5325,1428.503 2476.6665,1426.8927 2481.9154,1426.8927 C 2483.9901,1426.8927 2485.941,1427.1714 2487.768,1427.7288 C 2489.6105,1428.2708 2491.3369,1429.0914 2492.9472,1430.1907 M 2514.3141,1430.7016 C 2510.9078,1430.7016 2508.1982,1431.9713 2506.1854,1434.5105 C 2504.1881,1437.0498 2503.1894,1440.5103 2503.1894,1444.892 C 2503.1894,1449.2583 2504.1881,1452.7111 2506.1854,1455.2503 C 2508.1982,1457.7896 2510.9078,1459.0592 2514.3141,1459.0592 C 2517.7204,1459.0592 2520.4145,1457.7896 2522.3964,1455.2503 C 2524.3937,1452.7111 2525.3924,1449.2583 2525.3924,1444.892 C 2525.3924,1440.5103 2524.3937,1437.0498 2522.3964,1434.5105 C 2520.4145,1431.9713 2517.7204,1430.7016 2514.3141,1430.7016 M 2514.3141,1426.8927 C 2519.1759,1426.8927 2523.0622,1428.5262 2525.973,1431.7932 C 2528.8839,1435.0447 2530.3393,1439.411 2530.3393,1444.892 C 2530.3393,1450.3576 2528.8839,1454.7239 2525.973,1457.9909 C 2523.0622,1461.2424 2519.1759,1462.8681 2514.3141,1462.8681 C 2509.4369,1462.8681 2505.5351,1461.2424 2502.6088,1457.9909 C 2499.6979,1454.7394 2498.2425,1450.3731 2498.2425,1444.892 C 2498.2425,1439.411 2499.6979,1435.0447 2502.6088,1431.7932 C 2505.5351,1428.5262 2509.4369,1426.8927 2514.3141,1426.8927 M 2537.6784,1427.5198 L 2544.6691,1427.5198 L 2553.5178,1451.1163 L 2562.4129,1427.5198 L 2569.4036,1427.5198 L 2569.4036,1462.1946 L 2564.8283,1462.1946 L 2564.8283,1431.7467 L 2555.8867,1455.529 L 2551.1721,1455.529 L 2542.2305,1431.7467 L 2542.2305,1462.1946 L 2537.6784,1462.1946 L 2537.6784,1427.5198 M 2578.74,1427.5198 L 2600.6643,1427.5198 L 2600.6643,1431.468 L 2583.4315,1431.468 L 2583.4315,1441.7334 L 2599.9444,1441.7334 L 2599.9444,1445.6817 L 2583.4315,1445.6817 L 2583.4315,1458.2463 L 2601.0824,1458.2463 L 2601.0824,1462.1946 L 2578.74,1462.1946 L 2578.74,1427.5198"
     transform="matrix(0.9129894,-0.4085954,0.408902,0.9123047,0,0)"
     id="text2469"
     style="font-size:47.56462097px;font-style:normal;font-weight:normal;fill:none;fill-opacity:1;stroke:#000000;stroke-width:1px;stroke-linecap:butt;stroke-linejoin:miter;stroke-opacity:1;font-family:Bitstream Vera Sans" />
</svg>
