P3
# CREATOR: GIMP PNM Filter Version 1.1
16 16
255
191
191
191
191
191
191
0
0
0
0
0
0
0
0
0
191
191
191
191
191
191
191
191
191
0
0
0
0
0
0
0
0
0
191
191
191
191
191
191
191
191
191
0
0
0
0
0
0
191
191
191
0
0
0
0
0
0
0
0
0
0
0
0
0
0
0
0
0
0
0
0
0
0
0
0
0
0
0
0
0
0
0
0
0
0
0
0
0
0
0
0
0
0
0
0
0
0
0
0
0
0
0
0
0
0
0
0
0
0
0
0
0
0
0
0
0
0
0
0
0
0
0
0
0
0
0
0
0
0
0
0
0
0
0
0
0
0
0
0
0
0
191
191
191
0
0
0
0
0
0
0
0
0
0
0
0
0
0
0
0
0
0
0
0
0
0
0
0
0
0
0
0
0
0
0
0
0
0
0
0
0
0
0
0
0
0
0
0
0
191
191
191
0
0
0
0
0
0
0
0
0
0
0
0
0
0
0
0
0
0
0
0
0
26
26
26
26
26
26
0
0
0
0
0
0
0
0
0
0
0
0
0
0
0
0
0
0
191
191
191
191
191
191
0
0
0
0
0
0
0
0
0
0
0
0
0
0
0
0
0
0
51
51
51
51
51
51
0
0
0
0
0
0
0
0
0
0
0
0
0
0
0
0
0
0
0
0
0
191
191
191
0
0
0
0
0
0
0
0
0
0
0
0
0
0
0
0
0
0
77
77
77
77
77
77
0
0
0
0
0
0
0
0
0
0
0
0
0
0
0
0
0
0
0
0
0
191
191
191
0
0
0
0
0
0
0
0
0
0
0
0
0
0
0
0
0
0
102
102
102
102
102
102
0
0
0
0
0
0
0
0
0
0
0
0
0
0
0
0
0
0
0
0
0
0
0
0
0
0
0
0
0
0
0
0
0
0
0
0
0
0
0
0
0
0
153
153
153
153
153
153
0
0
0
0
0
0
0
0
0
0
0
0
0
0
0
0
0
0
191
191
191
0
0
0
0
0
0
0
0
0
0
0
0
0
0
0
0
0
0
38
38
38
204
204
204
204
204
204
38
38
38
0
0
0
0
0
0
0
0
0
0
0
0
0
0
0
191
191
191
0
0
0
0
0
0
0
0
0
0
0
0
0
0
0
0
0
0
84
84
84
255
255
255
255
255
255
84
84
84
0
0
0
0
0
0
0
0
0
0
0
0
0
0
0
191
191
191
191
191
191
0
0
0
0
0
0
0
0
0
0
0
0
0
0
0
84
84
84
255
255
255
255
255
255
84
84
84
0
0
0
0
0
0
0
0
0
0
0
0
0
0
0
0
0
0
191
191
191
0
0
0
0
0
0
0
0
0
0
0
0
0
0
0
38
38
38
84
84
84
84
84
84
38
38
38
0
0
0
0
0
0
0
0
0
0
0
0
0
0
0
0
0
0
191
191
191
0
0
0
0
0
0
0
0
0
0
0
0
0
0
0
0
0
0
0
0
0
0
0
0
0
0
0
0
0
0
0
0
0
0
0
0
0
0
0
0
0
0
0
0
0
0
0
0
0
0
0
0
0
0
0
0
0
0
0
0
0
0
0
0
0
0
0
0
0
0
0
0
0
0
0
0
0
0
0
0
0
0
0
0
0
0
0
0
0
0
191
191
191
0
0
0
0
0
0
191
191
191
191
191
191
191
191
191
0
0
0
0
0
0
0
0
0
191
191
191
191
191
191
191
191
191
0
0
0
0
0
0
0
0
0
191
191
191
191
191
191
