P3
# CREATOR: GIMP PNM Filter Version 1.1
16 16
255
191
191
191
191
191
191
0
0
0
0
0
0
0
0
0
191
191
191
191
191
191
191
191
191
0
0
0
0
0
0
0
0
0
191
191
191
191
191
191
191
191
191
0
0
0
0
0
0
191
191
191
0
0
0
0
0
0
0
0
0
0
0
0
0
0
0
0
0
0
0
0
0
0
0
0
0
0
0
0
0
0
0
0
0
0
0
0
0
0
0
0
0
0
0
0
0
0
0
0
0
0
0
0
0
0
0
0
0
0
0
0
0
0
0
0
0
0
0
0
0
0
0
0
0
0
0
0
0
0
0
0
0
0
0
0
0
0
0
0
0
0
191
191
191
0
0
0
0
0
0
0
0
0
0
0
0
0
0
0
0
0
0
0
0
0
0
0
0
0
0
0
0
0
0
0
0
0
0
0
0
0
0
0
0
0
0
0
0
0
191
191
191
0
0
0
0
0
0
0
0
0
0
0
0
0
0
0
0
0
0
0
0
0
0
0
0
0
0
0
0
0
0
0
0
0
0
0
0
0
0
0
0
0
0
0
0
0
191
191
191
191
191
191
0
0
0
0
0
0
0
0
0
0
0
0
0
4
0
0
75
0
0
120
0
0
119
0
0
72
0
0
3
0
0
0
0
0
0
0
0
0
0
0
0
0
0
0
0
191
191
191
0
0
0
0
0
0
0
0
0
0
0
0
0
75
0
0
88
0
0
11
0
0
12
0
0
90
0
0
72
0
0
0
0
0
0
0
0
0
0
0
0
0
0
0
0
191
191
191
0
0
0
0
0
0
0
0
0
0
0
0
0
120
0
0
11
0
0
0
0
0
0
0
0
12
0
0
119
0
0
0
0
0
0
0
0
0
0
0
0
0
0
0
0
0
0
0
0
0
0
0
0
0
0
0
0
0
0
0
0
121
0
0
11
0
0
0
0
0
0
0
0
11
0
0
121
0
0
0
0
0
0
0
0
0
0
0
0
0
191
191
191
0
0
0
0
0
0
0
0
0
0
0
0
0
0
0
0
79
0
0
87
0
0
11
0
0
11
0
0
87
0
0
75
0
0
0
0
0
0
0
0
0
0
0
0
0
191
191
191
0
0
0
0
0
0
0
0
0
0
0
0
0
0
0
0
6
0
0
79
0
0
121
0
0
120
0
0
75
0
0
4
0
0
0
0
0
0
0
0
0
0
0
0
0
191
191
191
191
191
191
0
0
0
0
0
0
0
0
0
0
0
0
0
0
0
0
0
0
0
0
0
0
0
0
0
0
0
0
0
0
0
0
0
0
0
0
0
0
0
0
0
0
0
0
0
191
191
191
0
0
0
0
0
0
0
0
0
0
0
0
0
0
0
0
0
0
0
0
0
0
0
0
0
0
0
0
0
0
0
0
0
0
0
0
0
0
0
0
0
0
0
0
0
191
191
191
0
0
0
0
0
0
0
0
0
0
0
0
0
0
0
0
0
0
0
0
0
0
0
0
0
0
0
0
0
0
0
0
0
0
0
0
0
0
0
0
0
0
0
0
0
0
0
0
0
0
0
0
0
0
0
0
0
0
0
0
0
0
0
0
0
0
0
0
0
0
0
0
0
0
0
0
0
0
0
0
0
0
0
0
0
0
0
0
0
0
191
191
191
0
0
0
0
0
0
191
191
191
191
191
191
191
191
191
0
0
0
0
0
0
0
0
0
191
191
191
191
191
191
191
191
191
0
0
0
0
0
0
0
0
0
191
191
191
191
191
191
