# Blender v3.0.1 OBJ File: 'chain.blend'
# www.blender.org
o Plane
v 0.066291 0.500000 0.066291
v 0.066291 -0.500000 0.066291
v -0.066291 0.500000 -0.066291
v -0.066291 -0.500000 -0.066291
v -0.066291 0.500000 0.066291
v -0.066291 -0.500000 0.066291
v 0.066291 0.500000 -0.066291
v 0.066291 -0.500000 -0.066291
vt -0.000000 1.000000
vt 0.000000 -0.000000
vt 0.187500 0.000000
vt 0.187500 1.000000
vt 0.187500 1.000000
vt 0.187500 -0.000000
vt 0.375000 -0.000000
vt 0.375000 1.000000
vn 0.7071 0.0000 -0.7071
vn 0.7071 0.0000 0.7071
s off
f 1/1/1 2/2/1 4/3/1 3/4/1
f 5/5/2 6/6/2 8/7/2 7/8/2
