<?xml version="1.0" encoding="UTF-8" standalone="no"?>
<!-- Created with Inkscape (http://www.inkscape.org/) -->
<svg
   xmlns:svg="http://www.w3.org/2000/svg"
   xmlns="http://www.w3.org/2000/svg"
   version="1.0"
   width="51.750011"
   height="27.632622"
   id="svg2566">
  <defs
     id="defs2568" />
  <g
     transform="translate(-4.6821081,-6.9771431)"
     id="layer1">
    <path
       d="M 37.501913,23.318835 C 37.501913,28.372123 33.626968,32.473343 28.852482,32.473343 C 24.077996,32.473343 20.203051,28.372123 20.203051,23.318835 C 20.203051,18.265547 24.077996,14.164327 28.852482,14.164327 C 33.626968,14.164327 37.501913,18.265547 37.501913,23.318835 z M 46.214479,33.609765 L 41.92133,22.876894 L 34.092648,30.831845 L 50.886434,19.720167 L 55.432121,33.609765 M 13.889597,32.599612 L 17.803938,25.654813 L 25.127544,31.841998 L 16.16244,20.982858 L 5.6821081,32.725881 M 22.602163,15.805826 L 20.708127,11.26014 M 33.587572,15.174481 L 35.860415,12.017754 M 22.097087,10.123717 C 22.097087,11.308626 21.107137,12.270291 19.887378,12.270291 C 18.667619,12.270291 17.677669,11.308626 17.677669,10.123717 C 17.677669,8.9388081 18.667619,7.9771431 19.887378,7.9771431 C 21.107137,7.9771431 22.097087,8.9388081 22.097087,10.123717 z M 39.017141,10.881331 C 39.017141,11.99654 38.055476,12.901636 36.870567,12.901636 C 35.685658,12.901636 34.723992,11.99654 34.723992,10.881331 C 34.723992,9.7661231 35.685658,8.8610261 36.870567,8.8610261 C 38.055476,8.8610261 39.017141,9.7661231 39.017141,10.881331 z"
       id="path2576"
       style="fill:none;fill-opacity:1;stroke:#000000;stroke-width:2;stroke-linejoin:round;stroke-miterlimit:4;stroke-opacity:1" />
  </g>
</svg>
