<?xml version="1.0" encoding="UTF-8" standalone="no"?>
<!-- Created with Inkscape (http://www.inkscape.org/) -->
<svg
   xmlns:svg="http://www.w3.org/2000/svg"
   xmlns="http://www.w3.org/2000/svg"
   version="1.0"
   width="51.750011"
   height="27.632622"
   id="svg2566">
  <defs
     id="defs2568" />
  <g
     transform="translate(-4.6821081,-6.9771431)"
     id="layer1">
    <path
       d="M 37.501913,23.318835 C 37.501913,28.372123 33.626968,32.473343 28.852482,32.473343 C 24.077996,32.473343 20.203051,28.372123 20.203051,23.318835 C 20.203051,18.265547 24.077996,14.164327 28.852482,14.164327 C 33.626968,14.164327 37.501913,18.265547 37.501913,23.318835 z M 54.548238,30.453038 L 47.3509,19.593898 L 34.092648,30.831845 L 44.446712,26.664966 L 46.08821,31.968267 M 7.4498745,30.831845 L 12.626906,20.60405 L 25.127544,31.841998 L 17.298862,24.139585 L 15.909903,31.715728 M 22.602163,15.805826 L 19.445436,13.280445 M 33.587572,15.174481 L 37.123106,13.027907 M 20.834396,12.144022 C 20.834396,13.328931 19.844446,14.290596 18.624687,14.290596 C 17.404928,14.290596 16.414978,13.328931 16.414978,12.144022 C 16.414978,10.959113 17.404928,9.9974482 18.624687,9.9974482 C 19.844446,9.9974482 20.834396,10.959113 20.834396,12.144022 z M 40.279832,11.891484 C 40.279832,13.006693 39.318167,13.911789 38.133258,13.911789 C 36.948349,13.911789 35.986683,13.006693 35.986683,11.891484 C 35.986683,10.776276 36.948349,9.8711786 38.133258,9.8711786 C 39.318167,9.8711786 40.279832,10.776276 40.279832,11.891484 z"
       id="path2576"
       style="fill:none;fill-opacity:1;stroke:#000000;stroke-width:2;stroke-linejoin:round;stroke-miterlimit:4;stroke-opacity:1" />
  </g>
</svg>
