<?xml version="1.0" encoding="UTF-8" standalone="no"?>
<svg
   id="svg8"
   version="1.1"
   viewBox="0 0 720 192"
   height="192"
   width="720"
   sodipodi:docname="snegg_attract.svg"
   inkscape:version="1.3.2 (091e20e, 2023-11-25, custom)"
   xmlns:inkscape="http://www.inkscape.org/namespaces/inkscape"
   xmlns:sodipodi="http://sodipodi.sourceforge.net/DTD/sodipodi-0.dtd"
   xmlns="http://www.w3.org/2000/svg"
   xmlns:svg="http://www.w3.org/2000/svg">
  <defs
     id="defs26" />
  <sodipodi:namedview
     id="namedview24"
     pagecolor="#494949"
     bordercolor="#666666"
     borderopacity="1.0"
     inkscape:pageshadow="2"
     inkscape:pageopacity="0"
     inkscape:pagecheckerboard="0"
     showgrid="true"
     inkscape:zoom="1.4960897"
     inkscape:cx="338.88342"
     inkscape:cy="139.3633"
     inkscape:window-width="1920"
     inkscape:window-height="1129"
     inkscape:window-x="-8"
     inkscape:window-y="-8"
     inkscape:window-maximized="1"
     inkscape:current-layer="svg8"
     inkscape:showpageshadow="2"
     inkscape:deskcolor="#d1d1d1">
    <inkscape:grid
       type="xygrid"
       id="grid843"
       empspacing="16"
       spacingx="1"
       originx="0"
       originy="0"
       spacingy="1"
       units="px"
       visible="true" />
  </sodipodi:namedview>
  <path
     style="opacity:1;fill:#1a1a1a;fill-opacity:1;stroke:none;stroke-width:6.52113;stroke-linecap:round;stroke-linejoin:bevel;stroke-miterlimit:4;stroke-dasharray:none;stroke-dashoffset:0;stroke-opacity:0.983562"
     d="m 429,146.00018 -86,43 v -86 z"
     id="path1871"
     inkscape:connector-curvature="0"
     sodipodi:nodetypes="cccc" />
  <path
     style="opacity:1;fill:#1a1a1a;fill-opacity:1;stroke:none;stroke-width:6.52113;stroke-linecap:round;stroke-linejoin:bevel;stroke-miterlimit:4;stroke-dasharray:none;stroke-dashoffset:0;stroke-opacity:0.983562"
     d="m 525,146.00018 -86,43 v -86 z"
     id="path1873"
     inkscape:connector-curvature="0"
     sodipodi:nodetypes="cccc" />
  <g
     id="g13"
     transform="translate(4,4)"
     style="opacity:1">
    <path
       id="path6"
       style="opacity:1;fill:#1a1a1a;fill-opacity:1;stroke-width:2;stroke-linecap:round;stroke-linejoin:round"
       d="m 20,12.000182 v 48 h 64 v 16 H 20 v 16 h 80 v -48 H 36 v -16 h 64 v -16 z"
       sodipodi:nodetypes="ccccccccccccc" />
    <path
       id="path7"
       style="opacity:1;fill:#1a1a1a;fill-opacity:1;stroke-width:2;stroke-linecap:round;stroke-linejoin:round"
       d="m 116,12.000182 v 80 h 16 v -64 h 48 v 64 h 16 v -80 z"
       sodipodi:nodetypes="ccccccccc" />
    <path
       id="path9"
       style="opacity:1;fill:#1a1a1a;fill-opacity:1;stroke-width:2;stroke-linecap:round;stroke-linejoin:round"
       d="m 404,12.000182 v 80 h 80 v -48 h -48 v 16 h 32 v 16 h -48 v -48 h 64 v -16 z"
       sodipodi:nodetypes="ccccccccccccc" />
    <path
       id="path10"
       style="opacity:1;fill:#1a1a1a;fill-opacity:1;stroke-width:2;stroke-linecap:round;stroke-linejoin:round"
       d="m 500,12.000182 v 80 h 16 v -64 h 48 v 16 h -32 v 16 h 48 v -48 z"
       sodipodi:nodetypes="ccccccccccc" />
    <rect
       style="opacity:1;fill:#1a1a1a;fill-opacity:1;stroke-width:1.99764;stroke-linecap:round;stroke-linejoin:round"
       id="rect10"
       width="16"
       height="80.000031"
       x="596"
       y="-92.000183"
       transform="scale(1,-1)" />
    <rect
       style="opacity:1;fill:#1a1a1a;fill-opacity:1;stroke-width:4.39795;stroke-linecap:round;stroke-linejoin:round"
       id="rect11"
       width="80"
       height="16.000183"
       x="628"
       y="12" />
    <rect
       style="opacity:1;fill:#1a1a1a;fill-opacity:1;stroke-width:1.99764;stroke-linecap:round;stroke-linejoin:round"
       id="rect12"
       width="16"
       height="64.000137"
       x="644"
       y="28.000046" />
    <path
       id="path12"
       style="opacity:1;fill:#1a1a1a;fill-opacity:1;stroke-width:2;stroke-linecap:round;stroke-linejoin:round"
       d="m 308,12.000182 v 80 h 80 v -48 h -48 v 16 h 32 v 16 h -48 v -48 h 64 v -16 z"
       sodipodi:nodetypes="ccccccccccccc" />
    <path
       id="path13"
       style="opacity:1;fill:#1a1a1a;fill-opacity:1;stroke-width:2;stroke-linecap:round;stroke-linejoin:round"
       d="m 212,92.000182 v -80 h 80 v 48 h -48 v -16 h 32 v -16 h -48 v 48 h 64 v 16 z"
       sodipodi:nodetypes="ccccccccccccc" />
  </g>
  <path
     style="opacity:1;fill:#1a1a1a;fill-opacity:1;stroke:none;stroke-width:6.52113;stroke-linecap:round;stroke-linejoin:bevel;stroke-miterlimit:4;stroke-dasharray:none;stroke-dashoffset:0;stroke-opacity:0.983562"
     d="m 189,146.00018 -86,43 v -86 z"
     id="path2"
     inkscape:connector-curvature="0"
     sodipodi:nodetypes="cccc" />
  <path
     style="opacity:1;fill:#1a1a1a;fill-opacity:1;stroke:none;stroke-width:6.52113;stroke-linecap:round;stroke-linejoin:bevel;stroke-miterlimit:4;stroke-dasharray:none;stroke-dashoffset:0;stroke-opacity:0.983562"
     d="m 285,146.00018 -86,43 v -86 z"
     id="path3"
     inkscape:connector-curvature="0"
     sodipodi:nodetypes="cccc" />
  <path
     style="fill:#1a1a1a;fill-opacity:1;stroke:none;stroke-width:6.52113;stroke-linecap:round;stroke-linejoin:bevel;stroke-miterlimit:4;stroke-dasharray:none;stroke-dashoffset:0;stroke-opacity:0.983562;opacity:1"
     d="m 93,146.00018 -86,43 v -86 z"
     id="path1"
     inkscape:connector-curvature="0"
     sodipodi:nodetypes="cccc" />
  <path
     id="path8"
     style="fill:#ffffff;fill-opacity:1;stroke-width:2;stroke-linecap:round;stroke-linejoin:round;opacity:0.67"
     d="M 16,8.0001822 V 56.000182 h 64 v 16 H 16 v 16 h 80 v -48 H 32 v -16 H 96 V 8.0001822 Z"
     sodipodi:nodetypes="ccccccccccccc" />
  <path
     id="rect15"
     style="fill:#ffffff;fill-opacity:1;stroke-width:2;stroke-linecap:round;stroke-linejoin:round;opacity:0.67"
     d="M 112,8.0001822 V 88.000182 h 16 v -64 h 48 v 64 h 16 V 8.0001822 Z"
     sodipodi:nodetypes="ccccccccc" />
  <path
     id="rect58"
     style="fill:#ffffff;fill-opacity:1;stroke-width:2;stroke-linecap:round;stroke-linejoin:round;opacity:0.67"
     d="M 400,8.0001822 V 88.000182 h 80 v -48 h -48 v 16 h 32 v 16 h -48 v -48 h 64 V 8.0001822 Z"
     sodipodi:nodetypes="ccccccccccccc" />
  <path
     id="rect71"
     style="fill:#ffffff;fill-opacity:1;stroke-width:2;stroke-linecap:round;stroke-linejoin:round;opacity:0.67"
     d="M 496,8.0001822 V 88.000182 h 16 v -64 h 48 v 16 h -32 v 16 h 48 V 8.0001822 Z"
     sodipodi:nodetypes="ccccccccccc" />
  <rect
     style="fill:#ffffff;fill-opacity:1;stroke-width:1.99764;stroke-linecap:round;stroke-linejoin:round;opacity:0.67"
     id="rect83"
     width="16"
     height="80.000031"
     x="592"
     y="-88.000183"
     transform="scale(1,-1)" />
  <rect
     style="fill:#ffffff;fill-opacity:1;stroke-width:4.39795;stroke-linecap:round;stroke-linejoin:round;opacity:0.67"
     id="rect88"
     width="80"
     height="16.000183"
     x="624"
     y="8" />
  <rect
     style="fill:#ffffff;fill-opacity:1;stroke-width:1.99764;stroke-linecap:round;stroke-linejoin:round;opacity:0.67"
     id="rect318"
     width="16"
     height="64.000137"
     x="640"
     y="24.000046" />
  <path
     id="path4"
     style="fill:#ffffff;fill-opacity:1;stroke-width:2;stroke-linecap:round;stroke-linejoin:round;opacity:0.67"
     d="M 304,8.0001822 V 88.000182 h 80 v -48 h -48 v 16 h 32 v 16 h -48 v -48 h 64 V 8.0001822 Z"
     sodipodi:nodetypes="ccccccccccccc" />
  <path
     id="path5"
     style="fill:#ffffff;fill-opacity:1;stroke-width:2;stroke-linecap:round;stroke-linejoin:round;opacity:0.67"
     d="M 208,88.000182 V 8.0001822 h 80 V 56.000182 h -48 v -16 h 32 v -16 h -48 v 48 h 64 v 16 z"
     sodipodi:nodetypes="ccccccccccccc" />
  <path
     style="fill:#fefefe;fill-opacity:1;stroke:none;stroke-width:6.52113;stroke-linecap:round;stroke-linejoin:bevel;stroke-miterlimit:4;stroke-dasharray:none;stroke-dashoffset:0;stroke-opacity:0.983562;opacity:0.67"
     d="m 89,142.00018 -86,43 v -86 z"
     id="path5290"
     inkscape:connector-curvature="0"
     sodipodi:nodetypes="cccc" />
  <path
     id="path1246"
     style="fill:#fefefe;fill-opacity:1;stroke:none;stroke-width:6.52113;stroke-linecap:round;stroke-linejoin:bevel;stroke-miterlimit:4;stroke-dasharray:none;stroke-dashoffset:0;stroke-opacity:0.983562;opacity:0.67"
     d="m 99,99.00018 v 86 l 86,-43 z M 118.75782,122.758 H 123 h 3 v 31.24218 h 6 v 6 h -6 -6 -6 v -6 h 6 v -24 l -3.87891,3.87891 c -1.17153,1.17126 -3.07065,1.17126 -4.24218,0 -1.17126,-1.17153 -1.17126,-3.07065 0,-4.24218 z"
     sodipodi:nodetypes="cccccccccccccccccccc" />
  <path
     id="path1648"
     style="fill:#fefefe;fill-opacity:1;stroke:none;stroke-width:6.52113;stroke-linecap:round;stroke-linejoin:bevel;stroke-miterlimit:4;stroke-dasharray:none;stroke-dashoffset:0;stroke-opacity:0.983562;opacity:0.67"
     d="m 195,99.00018 v 86 l 86,-43 z m 15,25 h 12 c 0.7956,1.6e-4 1.55856,0.3163 2.12109,0.87891 l 6,6 c 0.56261,0.56253 0.87875,1.32549 0.87891,2.12109 v 3 c -1.6e-4,0.7956 -0.3163,1.55856 -0.87891,2.12109 l -15.87891,15.87891 H 231 v 6 h -24 c -2.6719,-0.001 -4.00975,-3.23111 -2.12109,-5.12109 L 225,134.758 v -0.51564 l -4.24218,-4.24218 h -9.51564 L 210,131.24236 v 1.75782 h -6 v -3 c 1.6e-4,-0.7956 0.3163,-1.55856 0.87891,-2.12109 l 3,-3 c 0.56253,-0.56261 1.32549,-0.87875 2.12109,-0.87891 z"
     sodipodi:nodetypes="ccccccccccccccccccccccccccc" />
  <g
     id="g1049"
     transform="matrix(1.5,0,0,1.5,-72.499999,-144.49981)">
    <path
       style="fill:none;stroke:#ffffff;stroke-width:6;stroke-linecap:butt;stroke-linejoin:miter;stroke-opacity:1"
       d="m 246,198 20,20"
       id="path1078" />
    <path
       style="fill:none;stroke:#ffffff;stroke-width:6;stroke-linecap:butt;stroke-linejoin:miter;stroke-opacity:1"
       d="m 266,198 -20,20"
       id="path878-6" />
  </g>
  <g
     inkscape:label="Layer 1"
     id="layer1-6"
     transform="matrix(0.76363636,0,0,0.76363636,287.18182,95.945455)"
     style="fill:#ffffff">
    <path
       id="path2162"
       d="M 32.5,4 C 17.311708,4 4.999998,16.311709 5,31.5 5,46.688296 17.311711,59.000003 32.5,59 46.689963,59 58.369614,48.236168 59.84375,34.4375 58.196784,42.861967 50.757954,49.25 41.8125,49.25 31.658962,49.249998 23.40625,41.043942 23.40625,30.9375 27.746268,36.697345 34.579137,40.09375 41.8125,40.09375 48.944318,40.093748 55.652896,36.800678 60,31.1875 59.916126,24.010134 57.019024,17.144022 51.9375,12.0625 46.780095,6.9050925 39.79368,4 32.5,4 Z m 0.15625,14.75 c 3.469599,0 6.28125,2.811651 6.28125,6.28125 0,3.469599 -2.811651,6.28125 -6.28125,6.28125 -3.469599,0 -6.28125,-2.811651 -6.28125,-6.28125 0,-3.469599 2.811651,-6.28125 6.28125,-6.28125 z"
       style="fill:#ffffff;fill-opacity:1;fill-rule:nonzero;stroke:none"
       inkscape:connector-curvature="0" />
  </g>
  <path
     id="path1123"
     style="opacity:0.67;fill:#fefefe;fill-opacity:1;stroke:none;stroke-width:6.52113;stroke-linecap:round;stroke-linejoin:bevel;stroke-miterlimit:4;stroke-dasharray:none;stroke-dashoffset:0;stroke-opacity:0.983562"
     d="M 435 99 L 435 185 L 521 142 L 435 99 z M 439 130 L 463 130 L 463 154 L 439 154 L 439 130 z M 466 130 L 490 130 L 490 154 L 466 154 L 466 130 z M 457.00586 136.46094 C 456.84434 136.46084 456.68305 136.48972 456.53125 136.54492 C 455.984 136.74329 455.61569 137.26341 455.61523 137.8457 L 455.61523 140.61328 C 455.61404 141.37844 456.23512 141.99968 457 142 C 457.76488 142.00118 458.38446 141.38039 458.38477 140.61523 L 458.38477 137.84766 C 458.38596 137.0825 457.77074 136.46126 457.00586 136.46094 z M 484.00586 136.46094 C 483.84434 136.46084 483.68305 136.48972 483.53125 136.54492 C 482.984 136.74329 482.61569 137.26341 482.61523 137.8457 L 482.61523 140.61328 C 482.61404 141.37844 483.23512 141.99968 484 142 C 484.76488 142.00118 485.38446 141.38039 485.38477 140.61523 L 485.38477 137.84766 C 485.38596 137.0825 484.77074 136.46126 484.00586 136.46094 z M 452.37891 136.48633 C 452.2174 136.48623 452.05804 136.51511 451.90625 136.57031 C 451.35898 136.76869 450.99069 137.2888 450.99023 137.87109 L 450.99023 140.63867 C 450.98904 141.40383 451.60817 142.02506 452.37305 142.02539 C 453.13793 142.02657 453.75945 141.40775 453.75977 140.64258 L 453.75977 137.87305 C 453.76096 137.10788 453.14379 136.48665 452.37891 136.48633 z M 479.37891 136.48633 C 479.2174 136.48613 479.05804 136.51511 478.90625 136.57031 C 478.35898 136.76868 477.99069 137.28879 477.99023 137.87109 L 477.99023 140.63867 C 477.98904 141.40384 478.60817 142.02507 479.37305 142.02539 C 480.13793 142.02657 480.75945 141.40776 480.75977 140.64258 L 480.75977 137.87305 C 480.76096 137.10789 480.14379 136.48666 479.37891 136.48633 z M 450.46094 144.83789 C 450.40071 144.8415 450.34062 144.84793 450.28125 144.85938 C 449.92064 144.92843 449.60072 145.13761 449.39453 145.44141 C 448.96596 146.0738 449.13188 146.93382 449.76367 147.36328 C 452.79947 149.42226 456.46557 149.53944 459.5625 147.65234 C 460.21488 147.25433 460.42085 146.40275 460.02344 145.75 C 459.62604 145.09698 458.7743 144.89003 458.12109 145.28711 C 455.82774 146.68456 453.60156 146.62212 451.31641 145.07227 C 451.11547 144.93629 450.88263 144.85539 450.64062 144.83789 C 450.58032 144.83359 450.52116 144.83428 450.46094 144.83789 z M 477.46094 144.83789 C 477.40071 144.8415 477.34062 144.84793 477.28125 144.85938 C 476.92064 144.92843 476.60072 145.1376 476.39453 145.44141 C 475.96596 146.0738 476.13188 146.93381 476.76367 147.36328 C 479.79947 149.42226 483.46557 149.53944 486.5625 147.65234 C 487.21488 147.25432 487.42085 146.40275 487.02344 145.75 C 486.62604 145.09699 485.7743 144.89002 485.12109 145.28711 C 482.82774 146.68456 480.60156 146.62213 478.31641 145.07227 C 478.11547 144.93629 477.88263 144.85539 477.64062 144.83789 C 477.58032 144.83359 477.52116 144.83428 477.46094 144.83789 z " />
  <path
     id="path3827"
     style="opacity:0.67;fill:#fefefe;fill-opacity:1;stroke:none;stroke-width:6.52113;stroke-linecap:round;stroke-linejoin:bevel;stroke-miterlimit:4;stroke-dasharray:none;stroke-dashoffset:0;stroke-opacity:0.983562"
     d="M 339 99 L 339 185 L 425 142 L 339 99 z M 352 130 L 376 130 L 376 154 L 352 154 L 352 130 z M 370.00586 136.46094 C 369.84434 136.46084 369.68305 136.48972 369.53125 136.54492 C 368.984 136.74329 368.61569 137.26341 368.61523 137.8457 L 368.61523 140.61328 C 368.61404 141.37844 369.23512 141.99968 370 142 C 370.76488 142.00118 371.38446 141.38039 371.38477 140.61523 L 371.38477 137.84766 C 371.38596 137.0825 370.77074 136.46126 370.00586 136.46094 z M 365.37891 136.48633 C 365.2174 136.48613 365.05804 136.51511 364.90625 136.57031 C 364.35898 136.76868 363.99069 137.28879 363.99023 137.87109 L 363.99023 140.63867 C 363.98904 141.40384 364.60817 142.02507 365.37305 142.02539 C 366.13793 142.02657 366.75945 141.40776 366.75977 140.64258 L 366.75977 137.87305 C 366.76096 137.10789 366.14379 136.48666 365.37891 136.48633 z M 363.64062 144.83789 C 363.52 144.82929 363.39998 144.83648 363.28125 144.85938 C 362.92064 144.92844 362.60072 145.1376 362.39453 145.44141 C 361.96596 146.0738 362.13188 146.93381 362.76367 147.36328 C 365.79947 149.42226 369.46557 149.53944 372.5625 147.65234 C 373.21488 147.25432 373.42085 146.40275 373.02344 145.75 C 372.62604 145.09699 371.7743 144.89002 371.12109 145.28711 C 368.82774 146.68456 366.60156 146.62213 364.31641 145.07227 C 364.11547 144.93629 363.88263 144.85539 363.64062 144.83789 z " />
  <path
     id="path942"
     style="fill:#ffffff;stroke:none;stroke-width:2.26142"
     d="m 552.30649,150 v 28.08588 c -1.22999,-0.72627 -2.80517,-1.1315 -4.52174,-1.1315 -1.76243,0 -3.37678,0.42619 -4.62051,1.18948 -1.24373,0.76329 -2.16425,1.94406 -2.16425,3.3344 0,1.39035 0.92052,2.57112 2.16425,3.33441 1.24373,0.7633 2.85808,1.18733 4.62051,1.18733 1.76242,0 3.37677,-0.42403 4.6205,-1.18733 1.24373,-0.76329 2.16425,-1.94406 2.16425,-3.33441 v -24.55609 c 1.8217,0 3.05819,-0.0577 5.11863,1.09931 2.06043,1.15701 1.87745,2.08037 3.2979,3.2979 1.42045,1.21753 4.39721,1.0993 6.59581,0 -5.49651,-2.1986 -4.3972,-2.1986 -6.59581,-6.59581 -2.1986,-4.39721 -7.1199,-4.24814 -10.67954,-4.72357 z" />
  <path
     style="fill:#ffffff;stroke:#ffffff;stroke-width:3;stroke-linecap:butt;stroke-linejoin:miter;stroke-miterlimit:4;stroke-dasharray:none;stroke-opacity:1"
     d="m 542,109 22,18"
     id="path1113"
     sodipodi:nodetypes="cc" />
  <path
     id="path4076"
     style="fill:#ffffff;stroke:none;stroke-width:2.26142"
     d="m 552.30649,102 v 28.08588 c -1.22999,-0.72627 -2.80517,-1.1315 -4.52174,-1.1315 -1.76243,0 -3.37678,0.42619 -4.62051,1.18948 -1.24373,0.76329 -2.16425,1.94406 -2.16425,3.3344 0,1.39035 0.92052,2.57112 2.16425,3.33441 1.24373,0.7633 2.85808,1.18733 4.62051,1.18733 1.76242,0 3.37677,-0.42403 4.6205,-1.18733 1.24373,-0.76329 2.16425,-1.94406 2.16425,-3.33441 v -24.55609 c 1.8217,0 3.05819,-0.0577 5.11863,1.09931 2.06043,1.15701 1.87745,2.08037 3.2979,3.2979 1.42045,1.21753 4.39721,1.0993 6.59581,0 -5.49651,-2.1986 -4.3972,-2.1986 -6.59581,-6.59581 -2.1986,-4.39721 -7.1199,-4.24814 -10.67954,-4.72357 z" />
  <path
     sodipodi:type="star"
     style="fill:#ffffff;stroke-width:3;stroke-linecap:round;stroke-linejoin:round"
     id="path2190"
     inkscape:flatsided="false"
     sodipodi:sides="5"
     sodipodi:cx="48"
     sodipodi:cy="80"
     sodipodi:r1="15"
     sodipodi:r2="7.7550001"
     sodipodi:arg1="-1.5707963"
     sodipodi:arg2="-0.94247777"
     inkscape:rounded="0"
     inkscape:randomized="0"
     inkscape:transform-center-y="-1.0933392"
     d="m 48,65 4.558275,8.726073 9.707573,1.638672 -6.890405,7.031682 1.441335,9.738828 L 48,87.755 l -8.816779,4.380255 1.441336,-9.738828 -6.890405,-7.031682 9.707573,-1.638672 z"
     transform="matrix(1.4720471,0,0,1.4720471,529.34174,4.3169385)"
     inkscape:transform-center-x="5.7068648e-06" />
</svg>
