<?xml version="1.0" encoding="UTF-8" standalone="no"?>
<svg
   id="svg8"
   version="1.1"
   viewBox="0 0 140 140"
   height="140"
   width="140"
   sodipodi:docname="snegg_icon2.svg"
   inkscape:version="1.3 (0e150ed6c4, 2023-07-21)"
   xmlns:inkscape="http://www.inkscape.org/namespaces/inkscape"
   xmlns:sodipodi="http://sodipodi.sourceforge.net/DTD/sodipodi-0.dtd"
   xmlns="http://www.w3.org/2000/svg"
   xmlns:svg="http://www.w3.org/2000/svg"
   xmlns:rdf="http://www.w3.org/1999/02/22-rdf-syntax-ns#"
   xmlns:cc="http://creativecommons.org/ns#"
   xmlns:dc="http://purl.org/dc/elements/1.1/">
  <sodipodi:namedview
     pagecolor="#353535"
     bordercolor="#666666"
     borderopacity="1"
     objecttolerance="10"
     gridtolerance="10"
     guidetolerance="10"
     inkscape:pageopacity="1"
     inkscape:pageshadow="2"
     inkscape:window-width="1920"
     inkscape:window-height="1009"
     id="namedview17"
     showgrid="true"
     inkscape:zoom="2.8284272"
     inkscape:cx="78.312074"
     inkscape:cy="76.190754"
     inkscape:window-x="-8"
     inkscape:window-y="-8"
     inkscape:window-maximized="1"
     inkscape:current-layer="svg8"
     inkscape:showpageshadow="2"
     inkscape:pagecheckerboard="0"
     inkscape:deskcolor="#7f7f7f"
     showguides="false"
     units="mm"
     width="134px">
    <inkscape:grid
       type="xygrid"
       id="grid4529"
       empspacing="8"
       spacingx="1"
       spacingy="1"
       originx="0"
       originy="0"
       units="px"
       visible="true" />
  </sodipodi:namedview>
  <defs
     id="defs2" />
  <metadata
     id="metadata5">
    <rdf:RDF>
      <cc:Work
         rdf:about="">
        <dc:format>image/svg+xml</dc:format>
        <dc:type
           rdf:resource="http://purl.org/dc/dcmitype/StillImage" />
      </cc:Work>
    </rdf:RDF>
  </metadata>
  <g
     inkscape:groupmode="layer"
     id="layer1"
     inkscape:label="bg"
     sodipodi:insensitive="true">
    <rect
       style="fill:#000000;stroke-width:5.94475;stroke-linecap:round;stroke-linejoin:round"
       id="rect1583"
       width="140"
       height="140"
       x="0"
       y="0" />
  </g>
  <g
     inkscape:groupmode="layer"
     id="layer2"
     inkscape:label="fg"
     style="display:inline">
    <path
       id="path14062"
       style="font-variation-settings:normal;opacity:1;vector-effect:none;fill:#ff5555;fill-opacity:1;stroke-width:8.125;stroke-linecap:butt;stroke-linejoin:miter;stroke-miterlimit:4;stroke-dasharray:none;stroke-dashoffset:0;stroke-opacity:1;-inkscape-stroke:none;stop-color:#000000;stop-opacity:1"
       d="m 76,76 v 52 h 52 V 76 Z m 39.01172,14 c 1.65724,6.9e-4 2.99086,1.34605 2.98828,3.00391 V 99 c -6.8e-4,1.65786 -1.34276,3.00257 -3,3 -1.65724,-6.9e-4 -3.00256,-1.34605 -3,-3.00391 V 93 c 0.001,-1.26165 0.79866,-2.39049 1.98438,-2.82031 0.3289,-0.11962 0.67738,-0.17986 1.02734,-0.17968 z m -10.02344,0.0547 c 1.65724,6.9e-4 2.99474,1.34605 2.99218,3.00391 v 6 c -7e-4,1.65785 -1.34666,2.99866 -3.0039,2.99609 -1.65724,-6.9e-4 -2.99866,-1.34605 -2.9961,-3.00391 V 93.0547 c 0.001,-1.26165 0.79864,-2.3905 1.98438,-2.82031 0.32888,-0.11962 0.6735,-0.17986 1.02344,-0.17968 z m -3.76562,18.09448 c 0.52434,0.038 1.02948,0.21312 1.46484,0.50782 4.95116,3.35802 9.77324,3.49264 14.74218,0.46484 1.4153,-0.86036 3.26006,-0.41098 4.1211,1.00391 0.86106,1.41427 0.41348,3.25874 -1,4.12109 -6.71002,4.08871 -14.65288,3.83611 -21.23046,-0.625 -1.36886,-0.93052 -1.72546,-2.79388 -0.79688,-4.16406 0.44674,-0.65824 1.13664,-1.11208 1.91796,-1.26172 0.25726,-0.0497 0.51992,-0.0654 0.78126,-0.0469 z"
       sodipodi:nodetypes="cccccccccccccccccccccccccccccc" />
    <path
       id="path1512"
       style="fill:#ffffff;stroke-width:5.60578;stroke-linecap:round;stroke-linejoin:round"
       inkscape:transform-center-y="-1.4586623"
       d="M 38,74 17.14962,89.01931 12,111.97774 26.42892,130 H 49.5711 L 64,111.97774 58.85038,89.01931 Z"
       sodipodi:nodetypes="cccccccc" />
    <path
       id="path1030"
       style="fill:#55ddff;stroke-width:8.125"
       d="M 12,12 V 64 H 64 V 12 Z m 29.01172,12 c 1.65724,6.8e-4 2.99084,1.34604 2.98828,3.0039 V 33 c -7e-4,1.65786 -1.34276,3.00256 -3,3 -1.65724,-7e-4 -3.00256,-1.34606 -3,-3.00392 V 27 c 10e-4,-1.26166 0.79864,-2.3905 1.98438,-2.82032 0.32887,-0.1196 0.6774,-0.1798 1.02734,-0.1796 z m 10,0 c 1.65724,6.8e-4 2.99086,1.34604 2.98828,3.0039 V 33 c -6.8e-4,1.65786 -1.34276,3.00256 -3,3 -1.65724,-7e-4 -3.00256,-1.34606 -3,-3.00392 V 27 c 10e-4,-1.26166 0.79865,-2.3905 1.98438,-2.82032 0.3289,-0.1196 0.67738,-0.1798 1.02734,-0.1796 z m -5,18 c 0.88488,0 1.69171,0.1942 2.41406,0.58202 0.74042,0.36634 1.37083,0.90608 1.89453,1.6172 0.54177,0.68956 0.95715,1.52828 1.2461,2.51952 0.28894,0.9697 0.43359,2.0492 0.43359,3.23438 0,1.20674 -0.1447,2.30562 -0.43359,3.29688 -0.28895,0.9697 -0.69506,1.80842 -1.21875,2.51952 -0.5237,0.71112 -1.15412,1.26056 -1.89454,1.64844 C 47.73078,57.80584 46.91465,58 46.01172,58 45.10879,58 44.28728,57.8058 43.54688,57.41796 42.82453,57.03008 42.19411,56.48064 41.65234,55.76952 41.12865,55.05842 40.72254,54.2197 40.43359,53.25 40.14465,52.25874 40,51.15986 40,49.95312 c 0,-1.18518 0.1447,-2.26468 0.43359,-3.23438 0.307,-0.99124 0.7224,-1.82996 1.2461,-2.51952 0.54176,-0.71112 1.18145,-1.25086 1.92187,-1.6172 C 44.34198,42.19414 45.14491,42 46.01172,42 Z" />
    <path
       id="path2461"
       style="fill:#ffdd55;stroke:none;stroke-width:8.25;stroke-linecap:round;stroke-linejoin:round;stroke-dasharray:none"
       d="M 128,12 V 64 H 80 l -4,-20 30,6 6,-4 L 80,38.76172 86,12 Z m -14,12 -10,2 -4,8 10,-2 z"
       sodipodi:nodetypes="cccccccccccccc" />
  </g>
  <g
     inkscape:groupmode="layer"
     id="layer3"
     inkscape:label="scanlines"
     style="display:inline"
     sodipodi:insensitive="true">
    <rect
       style="font-variation-settings:normal;opacity:0.2;vector-effect:none;fill:#000000;fill-opacity:1;stroke-width:4.15245;stroke-linecap:butt;stroke-linejoin:miter;stroke-miterlimit:4;stroke-dasharray:none;stroke-dashoffset:0;stroke-opacity:1;-inkscape-stroke:none;stop-color:#000000"
       id="rect6419"
       width="140"
       height="1"
       x="0"
       y="15.5" />
    <rect
       style="font-variation-settings:normal;opacity:0.2;vector-effect:none;fill:#000000;fill-opacity:1;stroke-width:4.15245;stroke-linecap:butt;stroke-linejoin:miter;stroke-miterlimit:4;stroke-dasharray:none;stroke-dashoffset:0;stroke-opacity:1;-inkscape-stroke:none;stop-color:#000000"
       id="rect6421"
       width="140"
       height="1"
       x="0"
       y="19.5" />
    <rect
       style="font-variation-settings:normal;opacity:0.2;vector-effect:none;fill:#000000;fill-opacity:1;stroke-width:4.15245;stroke-linecap:butt;stroke-linejoin:miter;stroke-miterlimit:4;stroke-dasharray:none;stroke-dashoffset:0;stroke-opacity:1;-inkscape-stroke:none;stop-color:#000000"
       id="rect6423"
       width="140"
       height="1"
       x="0"
       y="23.5" />
    <rect
       style="font-variation-settings:normal;opacity:0.2;vector-effect:none;fill:#000000;fill-opacity:1;stroke-width:4.15245;stroke-linecap:butt;stroke-linejoin:miter;stroke-miterlimit:4;stroke-dasharray:none;stroke-dashoffset:0;stroke-opacity:1;-inkscape-stroke:none;stop-color:#000000"
       id="rect6425"
       width="140"
       height="1"
       x="0"
       y="27.5" />
    <rect
       style="font-variation-settings:normal;opacity:0.2;vector-effect:none;fill:#000000;fill-opacity:1;stroke-width:4.15245;stroke-linecap:butt;stroke-linejoin:miter;stroke-miterlimit:4;stroke-dasharray:none;stroke-dashoffset:0;stroke-opacity:1;-inkscape-stroke:none;stop-color:#000000"
       id="rect6427"
       width="140"
       height="1"
       x="0"
       y="31.5" />
    <rect
       style="font-variation-settings:normal;opacity:0.2;vector-effect:none;fill:#000000;fill-opacity:1;stroke-width:4.15245;stroke-linecap:butt;stroke-linejoin:miter;stroke-miterlimit:4;stroke-dasharray:none;stroke-dashoffset:0;stroke-opacity:1;-inkscape-stroke:none;stop-color:#000000"
       id="rect6429"
       width="140"
       height="1"
       x="0"
       y="35.5" />
    <rect
       style="font-variation-settings:normal;opacity:0.2;vector-effect:none;fill:#000000;fill-opacity:1;stroke-width:4.15245;stroke-linecap:butt;stroke-linejoin:miter;stroke-miterlimit:4;stroke-dasharray:none;stroke-dashoffset:0;stroke-opacity:1;-inkscape-stroke:none;stop-color:#000000"
       id="rect6433"
       width="140"
       height="1"
       x="0"
       y="79.5" />
    <rect
       style="font-variation-settings:normal;opacity:0.2;vector-effect:none;fill:#000000;fill-opacity:1;stroke-width:4.15245;stroke-linecap:butt;stroke-linejoin:miter;stroke-miterlimit:4;stroke-dasharray:none;stroke-dashoffset:0;stroke-opacity:1;-inkscape-stroke:none;stop-color:#000000"
       id="rect6435"
       width="140"
       height="1"
       x="0"
       y="83.5" />
    <rect
       style="font-variation-settings:normal;opacity:0.2;vector-effect:none;fill:#000000;fill-opacity:1;stroke-width:4.15245;stroke-linecap:butt;stroke-linejoin:miter;stroke-miterlimit:4;stroke-dasharray:none;stroke-dashoffset:0;stroke-opacity:1;-inkscape-stroke:none;stop-color:#000000"
       id="rect6437"
       width="140"
       height="1"
       x="0"
       y="87.5" />
    <rect
       style="font-variation-settings:normal;opacity:0.2;vector-effect:none;fill:#000000;fill-opacity:1;stroke-width:4.15245;stroke-linecap:butt;stroke-linejoin:miter;stroke-miterlimit:4;stroke-dasharray:none;stroke-dashoffset:0;stroke-opacity:1;-inkscape-stroke:none;stop-color:#000000"
       id="rect6439"
       width="140"
       height="1"
       x="0"
       y="91.5" />
    <rect
       style="font-variation-settings:normal;opacity:0.2;vector-effect:none;fill:#000000;fill-opacity:1;stroke-width:4.15245;stroke-linecap:butt;stroke-linejoin:miter;stroke-miterlimit:4;stroke-dasharray:none;stroke-dashoffset:0;stroke-opacity:1;-inkscape-stroke:none;stop-color:#000000"
       id="rect6441"
       width="140"
       height="1"
       x="0"
       y="95.5" />
    <rect
       style="font-variation-settings:normal;opacity:0.2;vector-effect:none;fill:#000000;fill-opacity:1;stroke-width:4.15245;stroke-linecap:butt;stroke-linejoin:miter;stroke-miterlimit:4;stroke-dasharray:none;stroke-dashoffset:0;stroke-opacity:1;-inkscape-stroke:none;stop-color:#000000"
       id="rect6443"
       width="140"
       height="1"
       x="0"
       y="99.5" />
    <rect
       style="font-variation-settings:normal;opacity:0.2;vector-effect:none;fill:#000000;fill-opacity:1;stroke-width:4.15245;stroke-linecap:butt;stroke-linejoin:miter;stroke-miterlimit:4;stroke-dasharray:none;stroke-dashoffset:0;stroke-opacity:1;-inkscape-stroke:none;stop-color:#000000"
       id="rect904"
       width="140"
       height="1"
       x="0"
       y="39.5" />
    <rect
       style="font-variation-settings:normal;opacity:0.2;vector-effect:none;fill:#000000;fill-opacity:1;stroke-width:4.15245;stroke-linecap:butt;stroke-linejoin:miter;stroke-miterlimit:4;stroke-dasharray:none;stroke-dashoffset:0;stroke-opacity:1;-inkscape-stroke:none;stop-color:#000000"
       id="rect906"
       width="140"
       height="1"
       x="0"
       y="43.5" />
    <rect
       style="font-variation-settings:normal;opacity:0.2;vector-effect:none;fill:#000000;fill-opacity:1;stroke-width:4.15245;stroke-linecap:butt;stroke-linejoin:miter;stroke-miterlimit:4;stroke-dasharray:none;stroke-dashoffset:0;stroke-opacity:1;-inkscape-stroke:none;stop-color:#000000"
       id="rect908"
       width="140"
       height="1"
       x="0"
       y="47.5" />
    <rect
       style="font-variation-settings:normal;opacity:0.2;vector-effect:none;fill:#000000;fill-opacity:1;stroke-width:4.15245;stroke-linecap:butt;stroke-linejoin:miter;stroke-miterlimit:4;stroke-dasharray:none;stroke-dashoffset:0;stroke-opacity:1;-inkscape-stroke:none;stop-color:#000000"
       id="rect910"
       width="140"
       height="1"
       x="0"
       y="51.5" />
    <rect
       style="font-variation-settings:normal;opacity:0.2;vector-effect:none;fill:#000000;fill-opacity:1;stroke-width:4.15245;stroke-linecap:butt;stroke-linejoin:miter;stroke-miterlimit:4;stroke-dasharray:none;stroke-dashoffset:0;stroke-opacity:1;-inkscape-stroke:none;stop-color:#000000"
       id="rect912"
       width="140"
       height="1"
       x="0"
       y="55.5" />
    <rect
       style="font-variation-settings:normal;opacity:0.2;vector-effect:none;fill:#000000;fill-opacity:1;stroke-width:4.15245;stroke-linecap:butt;stroke-linejoin:miter;stroke-miterlimit:4;stroke-dasharray:none;stroke-dashoffset:0;stroke-opacity:1;-inkscape-stroke:none;stop-color:#000000"
       id="rect914"
       width="140"
       height="1"
       x="0"
       y="59.5" />
    <rect
       style="font-variation-settings:normal;opacity:0.2;vector-effect:none;fill:#000000;fill-opacity:1;stroke-width:4.15245;stroke-linecap:butt;stroke-linejoin:miter;stroke-miterlimit:4;stroke-dasharray:none;stroke-dashoffset:0;stroke-opacity:1;-inkscape-stroke:none;stop-color:#000000"
       id="rect916"
       width="140"
       height="1"
       x="0"
       y="103.5" />
    <rect
       style="font-variation-settings:normal;opacity:0.2;vector-effect:none;fill:#000000;fill-opacity:1;stroke-width:4.15245;stroke-linecap:butt;stroke-linejoin:miter;stroke-miterlimit:4;stroke-dasharray:none;stroke-dashoffset:0;stroke-opacity:1;-inkscape-stroke:none;stop-color:#000000"
       id="rect918"
       width="140"
       height="1"
       x="0"
       y="107.5" />
    <rect
       style="font-variation-settings:normal;opacity:0.2;vector-effect:none;fill:#000000;fill-opacity:1;stroke-width:4.15245;stroke-linecap:butt;stroke-linejoin:miter;stroke-miterlimit:4;stroke-dasharray:none;stroke-dashoffset:0;stroke-opacity:1;-inkscape-stroke:none;stop-color:#000000"
       id="rect920"
       width="140"
       height="1"
       x="0"
       y="111.5" />
    <rect
       style="font-variation-settings:normal;opacity:0.2;vector-effect:none;fill:#000000;fill-opacity:1;stroke-width:4.15245;stroke-linecap:butt;stroke-linejoin:miter;stroke-miterlimit:4;stroke-dasharray:none;stroke-dashoffset:0;stroke-opacity:1;-inkscape-stroke:none;stop-color:#000000"
       id="rect922"
       width="140"
       height="1"
       x="0"
       y="115.5" />
    <rect
       style="font-variation-settings:normal;opacity:0.2;vector-effect:none;fill:#000000;fill-opacity:1;stroke-width:4.15245;stroke-linecap:butt;stroke-linejoin:miter;stroke-miterlimit:4;stroke-dasharray:none;stroke-dashoffset:0;stroke-opacity:1;-inkscape-stroke:none;stop-color:#000000"
       id="rect924"
       width="140"
       height="1"
       x="0"
       y="119.5" />
    <rect
       style="font-variation-settings:normal;opacity:0.2;vector-effect:none;fill:#000000;fill-opacity:1;stroke-width:4.15245;stroke-linecap:butt;stroke-linejoin:miter;stroke-miterlimit:4;stroke-dasharray:none;stroke-dashoffset:0;stroke-opacity:1;-inkscape-stroke:none;stop-color:#000000"
       id="rect926"
       width="140"
       height="1"
       x="0"
       y="123.5" />
  </g>
</svg>
