<?xml version="1.0" encoding="UTF-8" standalone="no"?>
<svg
   id="svg8"
   version="1.1"
   viewBox="0 0 128 128"
   height="128"
   width="128"
   sodipodi:docname="snegg_tiles.svg"
   inkscape:version="1.1.2 (0a00cf5339, 2022-02-04)"
   xmlns:inkscape="http://www.inkscape.org/namespaces/inkscape"
   xmlns:sodipodi="http://sodipodi.sourceforge.net/DTD/sodipodi-0.dtd"
   xmlns="http://www.w3.org/2000/svg"
   xmlns:svg="http://www.w3.org/2000/svg"
   xmlns:rdf="http://www.w3.org/1999/02/22-rdf-syntax-ns#"
   xmlns:cc="http://creativecommons.org/ns#"
   xmlns:dc="http://purl.org/dc/elements/1.1/">
  <path
     style="fill:#ffffff;stroke-width:4.0625"
     d="m 131,35 v 26 h 26 V 35 Z"
     id="path1" />
  <path
     id="path963"
     style="fill:#ffffff;stroke-width:4.0625"
     d="m 99,35 v 26 h 26 V 35 Z m 14.04102,4.5 c 0.63071,0.01695 1.1834,0.426787 1.38281,1.025391 l 1,3 c 0.26262,0.786395 -0.16253,1.636701 -0.94922,1.898437 -0.7864,0.262626 -1.6367,-0.162527 -1.89844,-0.949219 l -1,-3 c -0.26262,-0.786395 0.16253,-1.636701 0.94922,-1.898437 0.16612,-0.05529 0.34062,-0.08107 0.51563,-0.07617 z m 5,0 c 0.63071,0.01695 1.1834,0.426787 1.38281,1.025391 l 1,3 c 0.26262,0.786395 -0.16253,1.636701 -0.94922,1.898437 -0.7864,0.262626 -1.6367,-0.162527 -1.89844,-0.949219 l -1,-3 c -0.26262,-0.786395 0.16253,-1.636701 0.94922,-1.898437 0.16612,-0.05528 0.34062,-0.08107 0.51563,-0.07617 z m -0.93164,9.832031 a 3.4706192,2.0882168 0 0 1 3.4707,2.087891 3.4706192,2.0882168 0 0 1 -3.4707,2.089844 3.4706192,2.0882168 0 0 1 -3.47071,-2.089844 3.4706192,2.0882168 0 0 1 3.47071,-2.087891 z" />
  <sodipodi:namedview
     pagecolor="#353535"
     bordercolor="#666666"
     borderopacity="1"
     objecttolerance="10"
     gridtolerance="10"
     guidetolerance="10"
     inkscape:pageopacity="1"
     inkscape:pageshadow="2"
     inkscape:window-width="1920"
     inkscape:window-height="1031"
     id="namedview17"
     showgrid="true"
     inkscape:zoom="4.0716474"
     inkscape:cx="63.979017"
     inkscape:cy="79.45187"
     inkscape:window-x="0"
     inkscape:window-y="25"
     inkscape:window-maximized="1"
     inkscape:current-layer="svg8"
     inkscape:showpageshadow="2"
     inkscape:pagecheckerboard="0"
     inkscape:deskcolor="#7f7f7f">
    <inkscape:grid
       type="xygrid"
       id="grid4529"
       empspacing="8"
       spacingx="1"
       spacingy="1"
       originx="0"
       originy="0"
       units="px"
       visible="true" />
  </sodipodi:namedview>
  <defs
     id="defs2" />
  <metadata
     id="metadata5">
    <rdf:RDF>
      <cc:Work
         rdf:about="">
        <dc:format>image/svg+xml</dc:format>
        <dc:type
           rdf:resource="http://purl.org/dc/dcmitype/StillImage" />
      </cc:Work>
    </rdf:RDF>
  </metadata>
  <g
     id="g1131"
     transform="translate(0,545.86667)" />
  <path
     sodipodi:nodetypes="ccccc"
     id="path962"
     d="m 97,1 h 30 V 31.000005 H 97 Z"
     style="opacity:1;fill:#ffffff;stroke:none;stroke-width:0.23622;stroke-miterlimit:4;stroke-dasharray:none"
     inkscape:connector-curvature="0" />
  <path
     id="rect3069-3"
     style="fill:#ffffff;stroke-width:4.0625"
     d="m 93,99 v 26 H 67 V 99 Z m -14.958984,8.5 c -0.175005,-0.005 -0.34951,0.0209 -0.515625,0.0762 -0.786691,0.26174 -1.211843,1.11204 -0.949219,1.89844 l 1,3 c 0.261737,0.78669 1.112042,1.21184 1.898437,0.94922 0.786691,-0.26174 1.211843,-1.11205 0.949219,-1.89844 l -1,-3 c -0.199407,-0.59861 -0.752094,-1.00844 -1.382812,-1.02539 z m -5,0 c -0.175005,-0.005 -0.349511,0.0209 -0.515625,0.0762 -0.786691,0.26174 -1.211843,1.11204 -0.949219,1.89844 l 1,3 c 0.261737,0.78669 1.112042,1.21184 1.898437,0.94922 0.786691,-0.26174 1.211843,-1.11205 0.949219,-1.89844 l -1,-3 c -0.199407,-0.59861 -0.752094,-1.00844 -1.382812,-1.02539 z m 4.849984,9.83203 c -1.916591,-3e-5 -3.470403,0.93471 -3.470703,2.08789 -0.0015,1.15395 1.55284,2.08988 3.470703,2.08985 1.917863,3e-5 3.472203,-0.9359 3.470703,-2.08985 -3e-4,-1.15318 -1.554112,-2.08792 -3.470703,-2.08789 z"
     sodipodi:nodetypes="cccccccccccccccccccccccccccc" />
  <path
     style="fill:#1a1a1a;stroke-width:4.06096"
     d="m 149.99236,42.09027 c 0.16445,-0.05981 0.33808,-0.09036 0.51306,-0.09027 0.82862,3.46e-4 1.49586,0.673103 1.49457,1.50203 v 2.998887 c -3.4e-4,0.828929 -0.672,1.500365 -1.50062,1.499081 -0.82862,-3.46e-4 -1.50065,-0.673102 -1.49937,-1.502029 v -2.998887 c 5e-4,-0.630824 0.3995,-1.1939 0.99236,-1.408809 z"
     id="path3"
     sodipodi:nodetypes="cccccccc" />
  <path
     style="fill:#1a1a1a;stroke-width:4.06096"
     d="m 144.99237,42.09027 c 0.16444,-0.05981 0.33808,-0.09036 0.51305,-0.09027 0.82862,3.46e-4 1.49586,0.673103 1.49458,1.50203 v 2.998887 c -3.5e-4,0.828929 -0.672,1.500365 -1.50062,1.499081 -0.82862,-3.46e-4 -1.50066,-0.673102 -1.49938,-1.502029 v -2.998887 c 5e-4,-0.630824 0.3995,-1.1939 0.99237,-1.408809 z"
     id="path5"
     sodipodi:nodetypes="cccccccc" />
  <path
     style="fill:none;stroke:#1a1a1a;stroke-width:3;stroke-linecap:round;stroke-linejoin:round;stroke-dasharray:none"
     id="path6"
     sodipodi:type="arc"
     sodipodi:cx="148.21053"
     sodipodi:cy="31.602652"
     sodipodi:rx="12.931311"
     sodipodi:ry="22.437109"
     sodipodi:start="1.2330641"
     sodipodi:end="1.9434227"
     sodipodi:open="true"
     sodipodi:arc-type="arc"
     d="M 152.49529,52.772255 A 12.931311,22.437109 0 0 1 143.50272,52.5" />
  <path
     id="path12"
     style="fill:#ffffff;stroke-width:4.0625"
     d="M 93,35 V 61 H 67 V 35 Z m -14.04102,4.5 c -0.63071,0.01695 -1.1834,0.426787 -1.38281,1.025391 l -1,3 c -0.26262,0.786395 0.16253,1.636701 0.94922,1.898437 0.7864,0.262626 1.6367,-0.162527 1.89844,-0.949219 l 1,-3 c 0.26262,-0.786395 -0.16253,-1.636701 -0.94922,-1.898437 -0.16612,-0.05529 -0.34062,-0.08107 -0.51563,-0.07617 z m -5,0 c -0.63071,0.01695 -1.1834,0.426787 -1.38281,1.025391 l -1,3 c -0.26262,0.786395 0.16253,1.636701 0.94922,1.898437 0.7864,0.262626 1.6367,-0.162527 1.89844,-0.949219 l 1,-3 c 0.26262,-0.786395 -0.16253,-1.636701 -0.94922,-1.898437 -0.16612,-0.05528 -0.34062,-0.08107 -0.51563,-0.07617 z m 0.93164,9.832031 a 3.4706192,2.0882168 0 0 0 -3.4707,2.087891 3.4706192,2.0882168 0 0 0 3.4707,2.089844 3.4706192,2.0882168 0 0 0 3.47071,-2.089844 3.4706192,2.0882168 0 0 0 -3.47071,-2.087891 z" />
  <path
     id="path13"
     style="fill:#ffffff;stroke-width:4.0625"
     d="m 99,99 v 26 h 26 V 99 Z m 14.95898,8.5 c 0.17501,-0.005 0.34951,0.0209 0.51563,0.0762 0.78669,0.26174 1.21184,1.11204 0.94922,1.89844 l -1,3 c -0.26174,0.78669 -1.11204,1.21184 -1.89844,0.94922 -0.78669,-0.26174 -1.21184,-1.11205 -0.94922,-1.89844 l 1,-3 c 0.19941,-0.59861 0.7521,-1.00844 1.38281,-1.02539 z m 5,0 c 0.17501,-0.005 0.34952,0.0209 0.51563,0.0762 0.78669,0.26174 1.21184,1.11204 0.94922,1.89844 l -1,3 c -0.26174,0.78669 -1.11204,1.21184 -1.89844,0.94922 -0.78669,-0.26174 -1.21184,-1.11205 -0.94922,-1.89844 l 1,-3 c 0.19941,-0.59861 0.7521,-1.00844 1.38281,-1.02539 z m -4.84999,9.83203 c 1.9166,-3e-5 3.47042,0.93471 3.47071,2.08789 0.001,1.15395 -1.55284,2.08988 -3.47071,2.08985 -1.91786,3e-5 -3.47219,-0.9359 -3.47069,-2.08985 2.9e-4,-1.15318 1.55411,-2.08792 3.47069,-2.08789 z"
     sodipodi:nodetypes="cccccccccccccccccccccccccccc" />
  <rect
     style="fill:#f9f9f9;stroke:none;stroke-width:4.125;stroke-linecap:round;stroke-linejoin:round;stroke-dasharray:none"
     id="rect971"
     width="16"
     height="16"
     x="40"
     y="8" />
  <path
     id="path1330"
     style="fill:#ffffff;stroke-width:4.0625"
     d="m 99,67 v 26 h 26 V 67 Z m 19.50586,7 c 0.82862,3.46e-4 1.49543,0.673026 1.49414,1.501953 V 78.5 c -3.4e-4,0.828929 -0.67138,1.501284 -1.5,1.5 -0.82862,-3.46e-4 -1.50128,-0.673026 -1.5,-1.501953 V 75.5 c 5e-4,-0.630824 0.39933,-1.195247 0.99219,-1.410156 0.16445,-0.05981 0.33869,-0.08993 0.51367,-0.08984 z m -5.01172,0.02734 c 0.82862,3.46e-4 1.49737,0.673026 1.49609,1.501953 v 3 c -3.5e-4,0.828929 -0.67333,1.499331 -1.50195,1.498047 -0.82862,-3.46e-4 -1.49933,-0.673026 -1.49805,-1.501953 v -2.998047 c 5e-4,-0.630824 0.39932,-1.195248 0.99219,-1.410156 0.16444,-0.05981 0.33675,-0.08993 0.51172,-0.08984 z m -1.88281,9.047242 c 0.26217,0.019 0.51474,0.106559 0.73242,0.253906 2.47558,1.679012 4.88662,1.746321 7.37109,0.232422 0.70765,-0.43018 1.63003,-0.205488 2.06055,0.501953 0.43053,0.707139 0.20674,1.62937 -0.5,2.060547 -3.35501,2.044356 -7.32644,1.918055 -10.61523,-0.3125 -0.68443,-0.46526 -0.86273,-1.396939 -0.39844,-2.082031 0.22337,-0.329117 0.56832,-0.556039 0.95898,-0.63086 0.12863,-0.02484 0.25996,-0.03272 0.39063,-0.02344 z"
     sodipodi:nodetypes="cccccccccccccccccccccccccccccc" />
  <path
     id="path14062"
     style="fill:#ffffff;stroke-width:4.0625"
     d="M 93,67 V 93 H 67 V 67 Z M 73.49414,74 C 72.66552,74.000346 71.99871,74.673026 72,75.501953 V 78.5 c 3.4e-4,0.828929 0.67138,1.501284 1.5,1.5 0.82862,-3.46e-4 1.50128,-0.673026 1.5,-1.501953 V 75.5 c -5e-4,-0.630824 -0.39933,-1.195247 -0.99219,-1.410156 -0.16445,-0.05981 -0.33869,-0.08993 -0.51367,-0.08984 z m 5.01172,0.02734 c -0.82862,3.46e-4 -1.49737,0.673026 -1.49609,1.501953 v 3 c 3.5e-4,0.828929 0.67333,1.499331 1.50195,1.498047 0.82862,-3.46e-4 1.49933,-0.673026 1.49805,-1.501953 V 75.52734 c -5e-4,-0.630824 -0.39932,-1.195248 -0.99219,-1.410156 -0.16444,-0.05981 -0.33675,-0.08993 -0.51172,-0.08984 z m 1.88281,9.047242 c -0.26217,0.019 -0.51474,0.106559 -0.73242,0.253906 -2.47558,1.679012 -4.88662,1.746321 -7.37109,0.232422 -0.70765,-0.43018 -1.63003,-0.205488 -2.06055,0.501953 -0.43053,0.707139 -0.20674,1.62937 0.5,2.060547 3.35501,2.044356 7.32644,1.918055 10.61523,-0.3125 0.68443,-0.46526 0.86273,-1.396939 0.39844,-2.082031 -0.22337,-0.329117 -0.56832,-0.556039 -0.95898,-0.63086 -0.12863,-0.02484 -0.25996,-0.03272 -0.39063,-0.02344 z"
     sodipodi:nodetypes="cccccccccccccccccccccccccccccc" />
  <path
     id="path846"
     style="fill:#ffffff;stroke-width:4.0625"
     d="M 35 35 L 35 61 L 61 61 L 61 35 L 35 35 z M 54.589844 42.992188 L 57.587891 42.992188 C 58.416818 42.990906 59.089498 43.657708 59.089844 44.486328 C 59.089934 44.661298 59.05981 44.83556 59 45 C 58.785091 45.59287 58.222621 45.991687 57.591797 45.992188 L 54.591797 45.992188 C 53.76287 45.993468 53.09019 45.320808 53.089844 44.492188 C 53.08856 43.663567 53.760915 42.992536 54.589844 42.992188 z M 46.5 43 L 49.498047 43 C 50.326974 42.99872 50.999654 43.665521 51 44.494141 C 51.00009 44.669111 50.969966 44.843373 50.910156 45.007812 C 50.695247 45.600682 50.130824 45.9995 49.5 46 L 46.501953 46 C 45.673026 46.00128 45.000346 45.32862 45 44.5 C 44.998716 43.67138 45.671071 43.00035 46.5 43 z M 52.285156 51 C 53.994907 51.011229 55.702732 51.49288 57.275391 52.451172 A 1.5 1.5 0 0 1 57.775391 54.513672 A 1.5 1.5 0 0 1 55.714844 55.013672 C 53.230374 53.499773 50.819333 53.567081 48.34375 55.246094 A 1.5 1.5 0 0 1 47.220703 55.478516 A 1.5 1.5 0 0 1 46.261719 54.845703 A 1.5 1.5 0 0 1 46.660156 52.763672 C 48.407328 51.57869 50.347439 50.987274 52.285156 51 z " />
  <path
     id="rect847"
     style="fill:#f9f9f9;stroke:none;stroke-width:4.125;stroke-linecap:round;stroke-linejoin:round;stroke-dasharray:none"
     d="M 4,60 H 28 V 35 L 19,34 22,49 20,52 16.380859,36 4,38 Z m 5,-7 1,-5 4,-2 -1,5 z"
     sodipodi:nodetypes="cccccccccccccc" />
  <path
     id="path6756"
     style="fill:#f9f9f9;stroke:none;stroke-width:4.125;stroke-linecap:round;stroke-linejoin:round;stroke-dasharray:none"
     d="M 28,28 H 4 V 3 L 13,2 10,17 12,20 15.619141,4 28,6 Z m -5,-7 -1,-5 -4,-2 1,5 z"
     sodipodi:nodetypes="cccccccccccccc" />
  <path
     style="opacity:1;fill:#fefefe;fill-opacity:1;stroke:none;stroke-width:2.17371;stroke-linecap:round;stroke-linejoin:bevel;stroke-miterlimit:4;stroke-dasharray:none;stroke-dashoffset:0;stroke-opacity:0.983562"
     d="M 31,80 1,95 V 65 Z"
     id="path5290"
     inkscape:connector-curvature="0"
     sodipodi:nodetypes="cccc" />
  <path
     sodipodi:type="star"
     style="fill:#ffffff;stroke-width:3;stroke-linecap:round;stroke-linejoin:round"
     id="path2190"
     inkscape:flatsided="false"
     sodipodi:sides="5"
     sodipodi:cx="48"
     sodipodi:cy="80"
     sodipodi:r1="15"
     sodipodi:r2="7.7550001"
     sodipodi:arg1="-1.5707963"
     sodipodi:arg2="-0.94247777"
     inkscape:rounded="0"
     inkscape:randomized="0"
     inkscape:transform-center-y="-0.74273349"
     d="m 48,65 4.558275,8.726073 9.707573,1.638672 -6.890405,7.031682 1.441335,9.738828 L 48,87.755 l -8.816779,4.380255 1.441336,-9.738828 -6.890405,-7.031682 9.707573,-1.638672 z"
     transform="translate(-1.5237977e-4,1)" />
  <rect
     style="fill:#f9f9f9;stroke:none;stroke-width:4.125;stroke-linecap:round;stroke-linejoin:round;stroke-dasharray:none"
     id="rect7"
     width="24"
     height="24"
     x="68"
     y="4" />
  <path
     style="fill:none;stroke:#ffffff;stroke-width:6;stroke-linecap:butt;stroke-linejoin:miter;stroke-opacity:1"
     d="m 38,102 20,20"
     id="path1078" />
  <path
     style="fill:none;stroke:#ffffff;stroke-width:6;stroke-linecap:butt;stroke-linejoin:miter;stroke-opacity:1"
     d="M 58,102 38,122"
     id="path878" />
</svg>
