<?xml version="1.0" encoding="UTF-8" standalone="no"?>
<!-- Created with Inkscape (http://www.inkscape.org/) -->
<svg
   xmlns:svg="http://www.w3.org/2000/svg"
   xmlns="http://www.w3.org/2000/svg"
   version="1.0"
   width="50"
   height="54"
   id="svg2404">
  <defs
     id="defs2406" />
  <path
     d="M 25.522318,47.949484 C 48.327217,39.133075 63.410772,44.12904 25.522318,47.949484 z"
     id="path2414"
     style="fill:none;fill-rule:evenodd;stroke:#000000;stroke-width:0.74271953px;stroke-linecap:butt;stroke-linejoin:miter;stroke-opacity:1" />
  <path
     d="M 25.639128,48.047444 C 2.834229,39.231035 -12.249326,44.227 25.639128,48.047444 z"
     id="path2416"
     style="fill:none;fill-rule:evenodd;stroke:#000000;stroke-width:0.74271953px;stroke-linecap:butt;stroke-linejoin:miter;stroke-opacity:1" />
  <path
     d="M 25.279996,48.033856 C 2.475097,56.850265 -12.608459,51.8543 25.279996,48.033856 z"
     id="path2418"
     style="fill:none;fill-rule:evenodd;stroke:#000000;stroke-width:0.74271953px;stroke-linecap:butt;stroke-linejoin:miter;stroke-opacity:1" />
  <path
     d="M 25.342751,48.229777 C 48.147651,57.046185 63.231206,52.05022 25.342751,48.229777 z"
     id="path2420"
     style="fill:none;fill-rule:evenodd;stroke:#000000;stroke-width:0.74271953px;stroke-linecap:butt;stroke-linejoin:miter;stroke-opacity:1" />
  <path
     d="M 34.695863,13.605363 C 31.660149,8.7839342 29.517292,6.6410772 26.83872,8.9625062 C 24.160149,11.283934 28.624434,15.391077 34.695863,13.605363 z"
     id="path2428"
     style="fill:none;fill-rule:evenodd;stroke:#000000;stroke-width:1px;stroke-linecap:butt;stroke-linejoin:miter;stroke-opacity:1" />
  <path
     d="M 29.874435,13.783934 C 35.410149,10.926791 26.124435,6.6410772 27.017292,12.355363"
     id="path2430"
     style="fill:none;fill-rule:evenodd;stroke:#000000;stroke-width:1px;stroke-linecap:butt;stroke-linejoin:miter;stroke-opacity:1" />
  <path
     d="M 23.378049,47.085366 C 24.859756,43.29878 25.02439,28.317073 22.554878,26.012195 C 20.085366,23.707317 15.146342,18.439025 6.4207321,27.987805 C 13.170732,28.97561 7.902439,33.091463 2.4695122,28.317073 C 3.1280488,21.731707 6.4207318,21.402439 5.4329269,26.506098 C 16.134146,20.414634 17.945122,1.6463415 27.493902,2.4695122 C 37.042683,3.2926829 38.52439,16.134146 38.52439,16.134146 L 29.140244,18.932927 C 29.79878,20.743902 37.207317,20.25 37.207317,20.25 C 37.207317,20.25 35.72561,21.567073 28.646341,25.189024 C 27.987805,25.847561 25.682927,25.353659 28.152439,46.426829"
     id="path2515"
     style="fill:none;fill-rule:evenodd;stroke:#000000;stroke-width:1px;stroke-linecap:butt;stroke-linejoin:miter;stroke-opacity:1" />
  <path
     d="M 31.77439,18.109756 L 33.256098,20.25 L 34.243902,17.45122 L 35.890244,20.085366 L 37.70122,16.628049"
     id="path2521"
     style="fill:none;fill-rule:evenodd;stroke:#000000;stroke-width:1px;stroke-linecap:butt;stroke-linejoin:miter;stroke-opacity:1" />
</svg>
