# Blender v2.79 (sub 0) OBJ File: ''
# www.blender.org
mtllib jeija_wall_lever_off.mtl
o nodebox1.009
v -0.070437 0.138562 0.459573
v -0.070383 0.058650 0.407149
v -0.070618 0.289563 0.117785
v -0.070672 0.369475 0.170211
v 0.054549 0.139792 0.459559
v 0.054604 0.059883 0.407135
v 0.054369 0.290797 0.117772
v 0.054313 0.370707 0.170196
vt 0.062500 0.562500
vt 0.062500 0.875000
vt 0.125000 0.875000
vt 0.125000 0.562500
vt 0.187500 0.562500
vt 0.250000 0.562500
vt 0.250000 0.875000
vt 0.187500 0.875000
vt 0.125000 0.562500
vt 0.062500 0.562500
vt 0.062500 0.875000
vt 0.125000 0.875000
vt 0.250000 0.562500
vt 0.250000 0.875000
vt 0.187500 0.875000
vt 0.187500 0.562500
vt 0.625000 0.875000
vt 0.562500 0.875000
vt 0.562500 0.937500
vt 0.625000 0.937500
vn -1.0000 -0.0008 0.0002
vn 1.0000 0.0008 -0.0002
vn -0.0076 0.7816 0.6237
vn 0.0076 -0.7816 -0.6237
vn -0.0055 0.5485 -0.8361
usemtl none.009
s off
f 1/1/1 4/2/1 3/3/1 2/4/1
f 5/5/2 6/6/2 7/7/2 8/8/2
f 1/9/3 5/10/3 8/11/3 4/12/3
f 2/13/4 3/14/4 7/15/4 6/16/4
f 4/17/5 8/18/5 7/19/5 3/20/5
o nodebox1.008
v -0.170183 0.248882 0.492124
v -0.161792 -0.249536 0.496140
v -0.161781 -0.250523 0.373114
v -0.170172 0.247894 0.369098
v 0.161753 0.245254 0.492135
v 0.170145 -0.253163 0.496151
v 0.170155 -0.254151 0.373125
v 0.161764 0.244266 0.369109
vt 0.500000 0.203100
vt 0.500000 0.000000
vt 0.000000 0.000000
vt 0.000000 0.203100
vt 0.500000 0.203100
vt 0.000000 0.203100
vt 0.000000 0.000000
vt 0.500000 0.000000
vt 0.000000 0.203100
vt 0.000100 0.000100
vt 0.500000 0.000000
vt 0.500000 0.203100
vt 0.000000 0.203100
vt 0.000000 -0.000000
vt 0.000000 0.500000
vt 0.000000 0.000000
vt 0.500000 -0.000000
vt 0.500000 0.500000
vt -0.000000 0.500000
vt 0.500000 0.500000
vt 0.500000 -0.000000
vn -0.9999 -0.0168 0.0000
vn 0.9999 0.0168 -0.0000
vn 0.0109 0.9999 -0.0080
vn -0.0109 -0.9999 0.0080
vn 0.0001 0.0081 1.0000
vn -0.0001 -0.0081 -1.0000
usemtl none.008
s off
f 9/21/6 12/22/6 11/23/6 10/24/6
f 13/25/7 14/26/7 15/27/7 16/28/7
f 9/29/8 13/25/8 16/28/8 12/30/8
f 10/31/9 11/32/9 15/33/9 14/34/9
f 9/35/10 10/36/10 14/37/10 13/38/10
f 12/39/11 16/40/11 15/41/11 11/23/11
