# Blender v2.79 (sub 0) OBJ File: ''
# www.blender.org
mtllib jeija_wall_lever_on.mtl
o nodebox1.011
v -0.170183 0.248540 0.492297
v -0.161792 -0.249880 0.495967
v -0.161781 -0.250782 0.372940
v -0.170172 0.247638 0.369270
v 0.161753 0.244912 0.492305
v 0.170145 -0.253508 0.495975
v 0.170155 -0.254410 0.372949
v 0.161764 0.244010 0.369279
vt 0.500000 0.203100
vt 0.500000 0.000000
vt 0.000000 0.000000
vt 0.000000 0.203100
vt 0.500000 0.203100
vt 0.000000 0.203100
vt 0.000000 0.000000
vt 0.500000 0.000000
vt 0.000000 0.203100
vt 0.000100 0.000100
vt 0.500000 0.000000
vt 0.500000 0.203100
vt 0.000000 0.203100
vt 0.000000 -0.000000
vt 0.000000 0.500000
vt 0.000000 0.000000
vt 0.500000 -0.000000
vt 0.500000 0.500000
vt -0.000000 0.500000
vt 0.500000 0.500000
vt 0.500000 -0.000000
vn -0.9999 -0.0168 0.0000
vn 0.9999 0.0168 -0.0000
vn 0.0109 0.9999 -0.0073
vn -0.0109 -0.9999 0.0073
vn 0.0001 0.0074 1.0000
vn -0.0001 -0.0074 -1.0000
usemtl none.011
s off
f 1/1/1 4/2/1 3/3/1 2/4/1
f 5/5/2 6/6/2 7/7/2 8/8/2
f 1/9/3 5/5/3 8/8/3 4/10/3
f 2/11/4 3/12/4 7/13/4 6/14/4
f 1/15/5 2/16/5 6/17/5 5/18/5
f 4/19/6 8/20/6 7/21/6 3/3/6
o nodebox1.010
v 0.070437 -0.138656 0.459545
v 0.070383 -0.058733 0.407137
v -0.054604 -0.059966 0.407123
v -0.054549 -0.139886 0.459530
v 0.070618 -0.289587 0.117726
v 0.070672 -0.369510 0.170135
v -0.054369 -0.290821 0.117712
v -0.054313 -0.370742 0.170120
vt 0.062500 0.562500
vt 0.062500 0.875000
vt 0.125000 0.875000
vt 0.125000 0.562500
vt 0.187500 0.562500
vt 0.250000 0.562500
vt 0.250000 0.875000
vt 0.187500 0.875000
vt 0.125000 0.562500
vt 0.062500 0.562500
vt 0.062500 0.875000
vt 0.125000 0.875000
vt 0.250000 0.562500
vt 0.250000 0.875000
vt 0.187500 0.875000
vt 0.187500 0.562500
vt 0.625000 0.875000
vt 0.562500 0.875000
vt 0.562500 0.937500
vt 0.625000 0.937500
vn 1.0000 0.0008 0.0002
vn -1.0000 -0.0008 -0.0002
vn 0.0076 -0.7817 0.6236
vn -0.0076 0.7817 -0.6236
vn 0.0055 -0.5484 -0.8362
usemtl none.010
s off
f 9/22/7 14/23/7 13/24/7 10/25/7
f 12/26/8 11/27/8 15/28/8 16/29/8
f 9/30/9 12/31/9 16/32/9 14/33/9
f 10/34/10 13/35/10 15/36/10 11/37/10
f 14/38/11 16/39/11 15/40/11 13/41/11
