/* XPM */
static const char * chef_dead4_xpm[] = {
"30 30 5 1",
" 	c None",
".	c #AA5F25",
"+	c #26A55D",
"@	c #E2AA76",
"#	c #FFFFFF",
"                              ",
"                              ",
"                              ",
"                              ",
"                              ",
"                              ",
"                              ",
"                              ",
"                              ",
"                              ",
"                              ",
"                              ",
"                              ",
"                              ",
"                              ",
"         .          .         ",
"         ..        ..         ",
"          ..      ..          ",
"          ++      ++          ",
"        ++++      ++++        ",
"    @@@ ++++      ++++ @@@    ",
"    @@@ +++        +++ @@@    ",
"    ####++++++  ++++++####    ",
"     ###++++++++++++++###     ",
"     ###++++++++++++++###     ",
"       #++++++++++++++#       ",
"       #++++++++++++++#       ",
"        ++++++++++++++        ",
"        ++++++++++++++        ",
"         ++++++++++++         "};
