/* XPM */
static const char * chef_back1_xpm[] = {
"30 30 5 1",
" 	c None",
".	c #FFFFFF",
"+	c #E2AA76",
"@	c #26A55D",
"#	c #AA5F25",
"      ..................      ",
"      ..................      ",
"      ..................      ",
"        ..............        ",
"        ..............        ",
"        ..............        ",
"        ..............        ",
"        ..............        ",
"        ..............        ",
"        ..............        ",
"        ++..........++        ",
"        ++..........++        ",
"        ++++++++++++++        ",
"       .................      ",
"     .....................    ",
"    .......................   ",
"   ........................   ",
"  .........................   ",
" ..... ....................   ",
"+++..  ................ ...   ",
"++++   ................       ",
"++++   ................       ",
"          @@@...........      ",
"          @@@...........      ",
"       ######...........      ",
"       ######    @@@          ",
"                 @@@          ",
"                 @@@          ",
"                 ######       ",
"                 ######       "};
