/* XPM */
static const char * chef_dead1_xpm[] = {
"30 30 7 1",
" 	c None",
".	c #F2DF0E",
"+	c #E2AA76",
"@	c #FFFFFF",
"#	c #AA5F25",
"$	c #EA4F17",
"%	c #26A55D",
"                              ",
"                              ",
"              .               ",
"          .   .   .           ",
"           .  .  .            ",
"                              ",
"      ++              ++      ",
"      ++  ++++++++++  ++      ",
"    @@+   ++++++++++   +@@    ",
"    @@@  ++++++++++++  @@@    ",
"    @@@  +++#++++#+++  @@@    ",
"    @@@  ++#++++++#++  @@@    ",
"    @@@  ++++++++++++  @@@    ",
"    @@@@@++++++++++++@@@@@    ",
"    @@@@@@@@@@@@@@@@@@@@@@    ",
"     @@@@@@@$$@@$$@@@@@@@     ",
"      @@@@@@$$@@$$@@@@@@      ",
"       @@@@@@@@@@@@@@@@       ",
"        @@@@@@@@@@@@@@        ",
"        @@@@$$@@$$@@@@        ",
"        @@@@$$@@$$@@@@        ",
"       @@@@@@@@@@@@@@@@       ",
"       @@@@@@@@@@@@@@@@       ",
"         %%%%%%%%%%%%         ",
"         %%%%%%%%%%%%         ",
"          %%%    %%%          ",
"          %%%    %%%          ",
"          %%%    %%%          ",
"       ######    ######       ",
"       ######    ######       "};
