/* XPM */
static const char * chef_left2_xpm[] = {
"30 30 6 1",
" 	c None",
".	c #FFFFFF",
"+	c #EA4F17",
"@	c #E2AA76",
"#	c #AA5F25",
"$	c #26A55D",
"          .....               ",
"          ..........          ",
"         +..............      ",
"         +...............     ",
"        +...............      ",
"        ..............        ",
"         .............        ",
"         @@...........        ",
"         @##@@@@@.....        ",
"         @##@@@@@.....        ",
"        @@@@@@@@@.....        ",
"        @@@@@@@@@@@@@@        ",
"         @@#@@@@@@@@@@        ",
"         ##@@@@@@@@@@@        ",
"          @@@@@@@@@@@@        ",
"          .............       ",
"        ++..............      ",
"     ...++................    ",
"   @@.....................    ",
"   @@@..............##....@   ",
"   @@@ ++.............# @@@   ",
"       ++.............. @@@   ",
"       ................       ",
"       ................       ",
"       ................       ",
"         $$$$$$$$$$$$$$$      ",
"         $$$$$$$$$$$$$$$##    ",
"       #####        $$$$##    ",
"       #####         ###      ",
"                     ###      "};
