/* XPM */
static const char * chef_dead2_xpm[] = {
"30 30 6 1",
" 	c None",
".	c #E2AA76",
"+	c #AA5F25",
"@	c #FFFFFF",
"#	c #EA4F17",
"$	c #26A55D",
"                              ",
"                              ",
"                              ",
"                              ",
"                              ",
"                              ",
"                              ",
"                              ",
"          ..........          ",
"          ..........          ",
"    ...  ............  ...    ",
"    ...  ...+....+...  ...    ",
"    @@@  ............  @@@    ",
"    @@@@@............@@@@@    ",
"    @@@@@@@@##@@##@@@@@@@@    ",
"     @@@@@@@##@@##@@@@@@@     ",
"      @@@@@@@@@@@@@@@@@@      ",
"       @@@@@@@@@@@@@@@@       ",
"        @$$$$$$$$$$$$@        ",
"        $$+++$$$$+++$$        ",
"        $$+++$$$$+++$$        ",
"          +++$$$$+++          ",
"          +++    +++          ",
"                              ",
"                              ",
"                              ",
"                              ",
"                              ",
"                              ",
"                              "};
