/* XPM */
static const char * coffee_xpm[] = {
"30 30 5 1",
" 	c None",
".	c #FFFFDE",
"+	c #FFBA00",
"@	c #DE6900",
"#	c #FFFF00",
"                              ",
"  ...................         ",
"  ...................         ",
"....+++++++++++++++....       ",
"....+++++++++++++++....       ",
"..++@@@@@@@@@@@@@@@++..       ",
"..++@@@@@@@@@@@@@@@++..       ",
"..@@@@@@@@@@@@@@@@@@@..       ",
"..@@@@@@@@@@@@@@@@@@@..       ",
"....@@@@@@@@@@@@@@@....       ",
"....@@@@@@@@@@@@@@@....       ",
"####...............#### ....  ",
"####...............####...... ",
"....###############.....   ...",
"....###############.....    ..",
".......................     ..",
".......................     ..",
".......................     ..",
"........................   ...",
"............................. ",
"....................... ....  ",
".......................       ",
".......................       ",
".......................       ",
".......................       ",
".......................       ",
".......................       ",
"    ...............           ",
"    ...............           ",
"                              "};
