/* XPM */
static const char * digit2_xpm[] = {
"6 10 2 1",
" 	c #FFFF8000FFFF",
".	c None",
"      ",
"      ",
"....  ",
"....  ",
"      ",
"      ",
"  ....",
"  ....",
"      ",
"      "};
