/* XPM */
static const char * egg_back0_xpm[] = {
"30 30 3 1",
" 	c None",
".	c #FFFFFF",
"+	c #EAE362",
"            .....             ",
"           .......            ",
"         ..........           ",
"        ............          ",
"       ...............        ",
"      .................       ",
"     ...................      ",
"    .....................     ",
"    ...+..................    ",
"   ...++...................   ",
"   ..++...................... ",
"  ..++....................... ",
" ...+.........................",
" ...++........................",
" ...++........................",
"  ..+++.......................",
"  ...+++..................... ",
"   ...++++..................  ",
"    ...+++..................  ",
"     ...+++................   ",
"      ...++++..............   ",
"       ....++.............    ",
"        .................     ",
"         ...............      ",
"       .... ...........       ",
"       ....    .......        ",
"               ......         ",
"                 ..           ",
"                 ....         ",
"                 ....         "};
