/* XPM */
static const char * egg_peppered1_xpm[] = {
"30 30 4 1",
" 	c None",
".	c #EAE362",
"+	c #E06C06",
"@	c #FFFFFF",
"                              ",
"                              ",
"                              ",
"                              ",
"             ....             ",
"           ........           ",
"         ..++.......@         ",
"        ...++.....++@@        ",
"       .....@@....++...       ",
"      .++...@@.......@@.      ",
"      .++.......@@...@@.      ",
"     @@.........@@.....@@     ",
"    .@@...@@......++...@@.    ",
"   .......@@......++.......   ",
"   ..++................++..   ",
"  ...++......+++++.....++...  ",
"  .@@.......+++++++......@@.  ",
"  .@@......+++++++++.....@@.  ",
"..........+++++..++++.........",
"....++....+++++..++++...++....",
"....++@@..+++++..++++.@@++....",
" .....@@..+++......++.@@..... ",
" .........+++......++........ ",
" @........+++++..++++.......@ ",
"   ........++++..+++.......   ",
"   .........+++++++........   ",
"     ........+++++.......     ",
"       ................       ",
"  ....  ..............  ....  ",
"  ....  ..............  ....  "};
