/* XPM */
static const char * egg_front0_xpm[] = {
"30 30 5 1",
" 	c None",
".	c #FFFFFF",
"+	c #EAE362",
"@	c #EAAA2A",
"#	c #E5671D",
"            .......           ",
"           .........          ",
"          ..........          ",
"         ............         ",
"        ...+++........        ",
"       ....++..........       ",
"       ..+++...........       ",
"     ....++.............      ",
"    .....................     ",
"   .......................    ",
" ..........................   ",
".............@@@@@..........  ",
"............@@@++@@...........",
"...........@@@@+++@@..........",
" .........@@@@@@@++@@.........",
" .........@@@@@@@@++@........ ",
" .........@@@@@@@@++@........ ",
"  ........@@@@@@@@@@@.......  ",
"   .......@@@@@@@@@@@......   ",
"   .......@@@@###@@@@......   ",
"    .......@@@###@@@.....     ",
"     .......@@###@@.....      ",
"      .......@@@@@.....       ",
"       ...............        ",
"        .............         ",
"         ...........          ",
"          .......  ....       ",
"           ..      ....       ",
"         ....                 ",
"         ....                 "};
