/* XPM */
static const char * egg_back1_xpm[] = {
"30 30 5 1",
" 	c None",
".	c #EAAA2A",
"+	c #E5671D",
"@	c #EAE362",
"#	c #FFFFFF",
"           ..++..             ",
"          ...++...            ",
"         ..@.......           ",
"        ..@@@.......          ",
"       ##..........###        ",
"      #################       ",
"     ###################      ",
"    #####################     ",
"    ###@##################    ",
"   ###@@###################   ",
"   ##@@###################### ",
"  ##@@####################### ",
" ###@#########################",
" ###@@########################",
" ###@@########################",
"  ##@@@#######################",
"  ###@@@##################### ",
"   ###@@@@##################  ",
"    ###@@@##################  ",
"     ###@@@################   ",
"     ####@@@@##############   ",
"      #####@@#############    ",
"      #################       ",
"       ###############        ",
"        ########### ####      ",
"         #######    ####      ",
"          ######              ",
"            ##                ",
"          ####                ",
"          ####                "};
