/* XPM */
static const char * egg_dead0_xpm[] = {
"30 30 5 1",
" 	c None",
".	c #FFFFFF",
"+	c #EAAA2A",
"@	c #E5671D",
"#	c #EAE362",
"                              ",
"                              ",
"                              ",
"                              ",
"                              ",
"                              ",
"                              ",
"                              ",
"                              ",
"                              ",
"                              ",
"           .......            ",
"          .........           ",
"         ...+@@@+...          ",
"        ...++@@@++...         ",
"      ....+++@@@+++....       ",
"      ...+++++++++++...       ",
"     ....+++++++++++....      ",
"    .....++#++++++++.....     ",
"    .....+++###+++++.....     ",
"   .......+++++++++.......    ",
"   .........+++++.........    ",
"   .......................    ",
"   .......................    ",
"   .......................    ",
"    .....................     ",
"     ...................      ",
"      .................       ",
"   .... ............. ....    ",
"   ....  ...........  ....    "};
