/* XPM */
static const char * egg_peppered0_xpm[] = {
"30 30 4 1",
" 	c None",
".	c #FFFFFF",
"+	c #EAE362",
"@	c #E06C06",
"          ..                  ",
"          ..         ..       ",
"            ++++++   ..       ",
"          ++++++++++          ",
"   ..   +++..+++++++..        ",
"   ..  ++++..+++++@@..+    .. ",
"       +++++@@++++@@+++    .. ",
"      +@@+++@@+++++++++++     ",
"..   ++@@++++++++++++++@@+    ",
"..  +..++++++++++++++++@@++   ",
"   ++..+++++++++++++++..+++++ ",
"  ++++++++++@@@@@+++++..++..++",
"+++++@@++++@@@@@@@++++++++..++",
"+++++@@+++@@@@@@@@@+++++++@@++",
"+++..++++@@@++@++@@@++++++@@+ ",
" ++..++++@@@++@++@@@+++++++++ ",
" ++++++++@@@@@+@@@@@+++++++++ ",
"  ++@@+++@@@@@+@@@@@+@@+++++  ",
"   +@@..+@@@++@++@@@+@@++++   ",
"   +++..+@@@++@++@@@++..+++   ",
"     +++++@@@@@@@@@+++..++    ",
" ..   +++++@@@@@@@+++++++     ",
" ..    +++++@@@@@+++++++      ",
"        +++++++++++++++    .. ",
"         +++++++++++++     .. ",
"          +++++++++++  ..     ",
"          ++++++++++   ..     ",
"           ++    ++           ",
"         ++++    ++++         ",
"         ++++    ++++         "};
