/* XPM */
static const char * egg_dead1_xpm[] = {
"30 30 5 1",
" 	c None",
".	c #EAAA2A",
"+	c #E5671D",
"@	c #FFFFFF",
"#	c #EAE362",
"                              ",
"                              ",
"                              ",
"                              ",
"                              ",
"                              ",
"                              ",
"                              ",
"                              ",
"                              ",
"                              ",
"                              ",
"                              ",
"                              ",
"                              ",
"                              ",
"            .+++.             ",
"          @..+++..@           ",
"        @@...+++...@@         ",
"       @@...........@@        ",
"      @@@...........@@@       ",
"     @@@@..#........@@@@      ",
"    @@@@@...###.....@@@@@     ",
"    @@@@@@.........@@@@@@     ",
"    @@@@@@@@.....@@@@@@@@     ",
"    @@@@@@@@@@@@@@@@@@@@@     ",
"     @@@@@@@@@@@@@@@@@@@      ",
"      @@@@@@@@@@@@@@@@@       ",
"   @@@@ @@@@@@@@@@@@@ @@@@    ",
"   @@@@  @@@@@@@@@@@  @@@@    "};
