/* XPM */
static const char * egg_left0_xpm[] = {
"30 30 6 1",
" 	c None",
".	c #FFFFFF",
"+	c #EAE362",
"@	c #EAAA2A",
"#	c #E5671D",
"$	c #F4F4F2",
"          ....                ",
"         .......              ",
"        ..........            ",
"       ............           ",
"      ........++....          ",
"     .........+++....         ",
"    ...........+++.....       ",
"   ..............++.....      ",
"  ................+......     ",
"  .........................   ",
" .....@@@@@................   ",
" ....@@@@@@@................  ",
"....@@@@@@@@@................ ",
"...@@@@@@@@@@@............... ",
"...###@@@@@@@@............... ",
"...###@@@@@@@@............... ",
"...###@@@@@@+@..............  ",
"...@@@@@@@@++@..............  ",
" ..@@@@@@@++@@.............   ",
"  ..@@@@@++@@..............   ",
"  ...@@@@+@@.............     ",
"   ...@@@@@..............     ",
"    ...................       ",
"      ................        ",
"       ..............         ",
"         .......$..           ",
"           ....               ",
"            ..                ",
"         .....                ",
"         .....                "};
