/* XPM */
static const char * egg_dead3_xpm[] = {
"30 30 2 1",
" 	c None",
".	c #FFFFFF",
"                              ",
"                              ",
"                              ",
"                              ",
"                              ",
"                              ",
"                              ",
"                              ",
"                              ",
"                              ",
"                              ",
"                              ",
"                              ",
"                              ",
"                              ",
"                              ",
"                              ",
"                              ",
"              ..              ",
"              ..              ",
"      ..              ..      ",
"      ..              ..      ",
"          ..    ..            ",
"          ..    ..            ",
"    ..                  ..    ",
"    ..                  ..    ",
"      ..  ....     ...        ",
"      ..  ....     ...        ",
"                              ",
"                              "};
