/* XPM */
static const char * egg_dead2_xpm[] = {
"30 30 4 1",
" 	c None",
".	c #EAAA2A",
"+	c #E5671D",
"@	c #FFFFFF",
"                              ",
"                              ",
"                              ",
"                              ",
"                              ",
"                              ",
"                              ",
"                              ",
"                              ",
"                              ",
"                              ",
"                              ",
"                              ",
"                              ",
"                              ",
"                              ",
"                              ",
"                              ",
"                              ",
"                              ",
"                              ",
"                              ",
"            .+++.             ",
"           ..+++..            ",
"        @@.........@@         ",
"       @@@@@.....@@@@@        ",
"      @@@@@@@@@@@@@@@@@       ",
"                              ",
"                              ",
"                              "};
