/* XPM */
static const char * floor_and_ladder_xpm[] = {
"32 32 4 1",
" 	c None",
".	c #5EFFF1",
"+	c #000000",
"@	c #B5B5B5",
"................................",
"................................",
"................................",
"................................",
"+++@@@@@@@@@@@@@@@@@@@@@@@@@@+++",
"+++@@@@@@@@@@@@@@@@@@@@@@@@@@+++",
"++++++++++++++++++++++++++++++++",
"++++++++++++++++++++++++++++++++",
"+++@@@@@@@@@@@@@@@@@@@@@@@@@@+++",
"+++@@@@@@@@@@@@@@@@@@@@@@@@@@+++",
"++++++++++++++++++++++++++++++++",
"++++++++++++++++++++++++++++++++",
"+++@@@@@@@@@@@@@@@@@@@@@@@@@@+++",
"+++@@@@@@@@@@@@@@@@@@@@@@@@@@+++",
"++++++++++++++++++++++++++++++++",
"++++++++++++++++++++++++++++++++",
"+++@@@@@@@@@@@@@@@@@@@@@@@@@@+++",
"+++@@@@@@@@@@@@@@@@@@@@@@@@@@+++",
"++++++++++++++++++++++++++++++++",
"++++++++++++++++++++++++++++++++",
"+++@@@@@@@@@@@@@@@@@@@@@@@@@@+++",
"+++@@@@@@@@@@@@@@@@@@@@@@@@@@+++",
"++++++++++++++++++++++++++++++++",
"++++++++++++++++++++++++++++++++",
"+++@@@@@@@@@@@@@@@@@@@@@@@@@@+++",
"+++@@@@@@@@@@@@@@@@@@@@@@@@@@+++",
"++++++++++++++++++++++++++++++++",
"++++++++++++++++++++++++++++++++",
"+++@@@@@@@@@@@@@@@@@@@@@@@@@@+++",
"+++@@@@@@@@@@@@@@@@@@@@@@@@@@+++",
"++++++++++++++++++++++++++++++++",
"++++++++++++++++++++++++++++++++"};
