/* XPM */
static const char * fries_xpm[] = {
"30 30 6 1",
" 	c None",
".	c #FFBA00",
"+	c #FFFF00",
"@	c #DE6900",
"#	c #47A00B",
"$	c #FF0000",
"          ..      ..          ",
"          ..      ..          ",
"          ++  ..  ++          ",
"     ..   ++  ..  ++   ..     ",
"..   ..+  ++  ++  ++  +..   ..",
"..+   ++@ +++ ++ +@+ @++   +..",
" ++@  ++++.++.++.@@+++++  @++ ",
"  +++ +@@+.+..++..+++@@+ +++  ",
"  @@++++@+.+..++..@++@++++@@  ",
"   @++++..@++....+@@..++++@   ",
"#######+++++++..+.+++++#######",
"########++++..++..++++########",
"$$$$$$##++..++..++..++##$$$$$$",
"$$$$$$##++..++..++..++##$$$$$$",
"$$$$$$##..++@@++@@++..##$$$$$$",
"$$$$$$##..++@@++@@++..##$$$$$$",
" $$$$$$###++..++..++###$$$$$$ ",
" $$$$$$$##++..++..++##$$$$$$$ ",
"   $$$$$$############$$$$$$   ",
"   $$$$$$############$$$$$$   ",
"   $$$$$$$$$$$$$$$$$$$$$$$$   ",
"   $$$$$$$$$$$$$$$$$$$$$$$$   ",
"   $$$$$$$$$$####$$$$$$$$$$   ",
"   $$$$$$$$$$#$$$$$$$$$$$$$   ",
"    $$$$$$$$$###$$$$$$$$$$    ",
"    $$$$$$$$$#$$$$$$$$$$$$    ",
"    $$$$$$$$$#$$$$$$$$$$$$    ",
"    $$$$$$$$$$$$$$$$$$$$$$    ",
"    $$$$$$$$$$$$$$$$$$$$$$    ",
"    $$$$$$$$$$$$$$$$$$$$$$    "};
