/* XPM */
static const char * hotdog_back0_xpm[] = {
"30 30 4 1",
" 	c None",
".	c #F91504",
"+	c #A4A18B",
"@	c #29C457",
"            ......            ",
"            ......            ",
"          ..........          ",
"          ..........          ",
"        ..............        ",
"        ..............        ",
"        ..........++..        ",
"        ..........++..        ",
"        ................      ",
"        ................      ",
"          ..........++..      ",
"          ..........++..      ",
"          ..............      ",
"          ..............      ",
"          ..............      ",
"          ..............      ",
"          ..............      ",
"          ..............      ",
"        ..++............      ",
"        ..++............      ",
"        ..++..........        ",
"        ..++..........        ",
"        ....++........    @@  ",
"        ....++........    @@  ",
"          ..........    @@    ",
"          ..........    @@    ",
"            ......    @@      ",
"            ......    @@      ",
"    @@@@@@                    ",
"    @@@@@@                    "};
