/* XPM */
static const char * hotdog_dead2_xpm[] = {
"30 30 3 1",
" 	c None",
".	c #F91504",
"+	c #F9F507",
"                              ",
"                              ",
"                              ",
"                              ",
"                              ",
"                              ",
"                              ",
"                              ",
"                              ",
"                              ",
"                              ",
"                              ",
"                              ",
"                              ",
"                              ",
"                              ",
"                              ",
"                              ",
"                              ",
"                              ",
"                     .....    ",
"                    ........  ",
"                   .......... ",
"  .....           ..+..+..... ",
" ..................+..+...... ",
" ............................ ",
" ...........................  ",
" .........................    ",
"   .....................      ",
"       .............          "};
