/* XPM */
static const char * hotdog_dead0_xpm[] = {
"30 30 5 1",
" 	c None",
".	c #F91504",
"+	c #F9F507",
"@	c #29C457",
"#	c #A4A18B",
"                              ",
"                              ",
"                              ",
"                              ",
"                              ",
"                              ",
"                              ",
"                    ....      ",
"                 ..........   ",
"              .....+++......  ",
"            .......+++......  ",
"          ................... ",
"  @@     .....................",
"  @@    .............+++......",
"  @@   ..............+++......",
"  @@  ........................",
"@@   .........................",
"@@  ........................  ",
"    ..##..................    ",
"   ...##................      ",
"  ..##...............         ",
"  ..##.............           ",
"  ..##...........             ",
"  ..##..........              ",
"   ............               ",
"   ...........                ",
"    ..........                ",
"      ......   @@             ",
"               @@@@@@         ",
"                 @@@@         "};
