/* XPM */
static const char * hotdog_right1_xpm[] = {
"30 30 5 1",
" 	c None",
".	c #F91504",
"+	c #F9F507",
"@	c #A4A18B",
"#	c #29C457",
"         ......               ",
"        ........              ",
"       ..........             ",
"      .............           ",
"     ...............          ",
"     ................         ",
"     ............++...++      ",
"     ............++...++      ",
"     ............++...++      ",
"      ...........++...++      ",
"       ................       ",
"         ..............       ",
"          .............       ",
"           ............       ",
"           ............       ",
"           ............       ",
"          .............       ",
"         ..............       ",
"        ...............       ",
"       ................       ",
"      ..@@...........         ",
"      ..@@...........         ",
"      ..@@...........         ",
"      ..@@...........    ##   ",
"      ....@@.......      ##   ",
"       ...@@.......    ##     ",
"        .........      ##     ",
"         ........    ##       ",
"      ######         ##       ",
"      ######                  "};
