/* XPM */
static const char * hotdog_front1_xpm[] = {
"30 30 6 1",
" 	c None",
".	c #F91504",
"+	c #F9F507",
"@	c #B76C03",
"#	c #A4A18B",
"$	c #29C457",
"            ......            ",
"            ......            ",
"          ..........          ",
"          ..........          ",
"        ...++..++.....        ",
"        ...++..++.....        ",
"        ...++..++.....        ",
"        ...++..++.....        ",
"        ................      ",
"        ................      ",
"          ........@@....      ",
"          ........@@....      ",
"          @@@@@@@@......      ",
"          @@@@@@@@......      ",
"          ..............      ",
"          ..............      ",
"          ..............      ",
"          ..............      ",
"        ................      ",
"        ..##............      ",
"        ..##..........        ",
"        ..##..........        ",
"        ..##..........    $$  ",
"        ....##........    $$  ",
"          ..##......    $$    ",
"          ..........    $$    ",
"            ......    $$      ",
"            ......    $$      ",
"    $$$$$$                    ",
"    $$$$$$                    "};
