/* XPM */
static const char * hotdog_peppered1_xpm[] = {
"30 30 5 1",
" 	c None",
".	c #A86921",
"+	c #FFFFFF",
"@	c #A4A18B",
"#	c #00A100",
"         ......               ",
"        ........              ",
"      ++.........             ",
"      ++..........++          ",
"     ........++...++          ",
"     ........++......         ",
"   ++................         ",
"   ++.................        ",
"     .............++..        ",
"      ..++........++...       ",
"       .++.............       ",
"         ..............       ",
"          .............       ",
"           ............       ",
"           ............       ",
"           ............       ",
"          .............       ",
"         ..............       ",
"        ...............       ",
"       ................       ",
"      ...............         ",
"      ..@@...........         ",
"      ..@@...........         ",
"      ..@@...........         ",
"      ..@@.........    ##     ",
"       ...@@.......    ##     ",
"        ..@@.....    ##       ",
"         ........    ##       ",
"  ######           ##         ",
"  ######           ##         "};
