/* XPM */
static const char * hotdog_dead1_xpm[] = {
"30 30 4 1",
" 	c None",
".	c #F91504",
"+	c #F9F507",
"@	c #29C457",
"                              ",
"                              ",
"                              ",
"                              ",
"                              ",
"                              ",
"                              ",
"                              ",
"                              ",
"                              ",
"                              ",
"                  ......      ",
"                ..........    ",
"                ...........   ",
"               ...+..+.....   ",
"               ..++.++.....   ",
"              ...+..+......   ",
"             ..............   ",
"           ................   ",
"      ....................    ",
"    ......................    ",
"  .......................     ",
" .......................      ",
" ......................       ",
" .....................        ",
" ...........@@.......         ",
" ...........@@......          ",
" .......@@@@.......           ",
"  ......@@@@.....             ",
"     ........                 "};
