/* XPM */
static const char * hotdog_dead3_xpm[] = {
"30 30 2 1",
" 	c None",
".	c #F91504",
"                              ",
"                              ",
"                              ",
"                              ",
"                              ",
"                              ",
"                              ",
"                              ",
"                              ",
"                              ",
"                              ",
"                              ",
"                              ",
"                              ",
"                              ",
"                              ",
"                              ",
"                              ",
"                       ..     ",
"                       ..     ",
"     ..                       ",
"     ..                       ",
" ..        ..    ..      ..   ",
" ..        ..    ..      ..   ",
"   ..          ..      ..     ",
"   ..          ..      ..     ",
"..                          ..",
"..                          ..",
" ..  ....  ..........  ...... ",
" ..  ....  ..........  ...... "};
