/* XPM */
static const char * icecream_xpm[] = {
"30 30 6 1",
" 	c None",
".	c #66DB59",
"+	c #D8F7D4",
"@	c #E0BB7B",
"#	c #D6A835",
"$	c #BF8718",
"          ..........          ",
"          ..........          ",
"      ........++........      ",
"      ........++........      ",
"      ..................      ",
"      ...++........++...      ",
"    .....++........++.....    ",
"    ......................    ",
"    ..........++..........    ",
"    ...++.....++.....++...    ",
"    ...++............++...    ",
"    ......................    ",
"     ....................     ",
"     @@@@@@@@@@@@@@@@@@@@     ",
"     ####################     ",
"      ##$$##$$##$$##$$##      ",
"      ##$$##$$##$$##$$##      ",
"      ####$$##$$##$$####      ",
"      ####$$##$$##$$####      ",
"      ##$$##$$##$$##$$##      ",
"      ##$$##$$##$$##$$##      ",
"      ##################      ",
"         ###$$##$$###         ",
"          ##$$##$$##          ",
"          ####$$####          ",
"          ####$$####          ",
"          ##$$##$$##          ",
"          ##$$##$$##          ",
"          ##########          ",
"          ##########          "};
