/* XPM */
static const char * ladder_xpm[] = {
"32 32 3 1",
" 	c None",
".	c #000000",
"+	c #B5B5B5",
"...++++++++++++++++++++++++++...",
"...++++++++++++++++++++++++++...",
"................................",
"................................",
"...++++++++++++++++++++++++++...",
"...++++++++++++++++++++++++++...",
"................................",
"................................",
"...++++++++++++++++++++++++++...",
"...++++++++++++++++++++++++++...",
"................................",
"................................",
"...++++++++++++++++++++++++++...",
"...++++++++++++++++++++++++++...",
"................................",
"................................",
"...++++++++++++++++++++++++++...",
"...++++++++++++++++++++++++++...",
"................................",
"................................",
"...++++++++++++++++++++++++++...",
"...++++++++++++++++++++++++++...",
"................................",
"................................",
"...++++++++++++++++++++++++++...",
"...++++++++++++++++++++++++++...",
"................................",
"................................",
"...++++++++++++++++++++++++++...",
"...++++++++++++++++++++++++++...",
"................................",
"................................"};
