/* XPM */
static const char * lettuce1_xpm[] = {
"24 16 2 1",
" 	c None",
".	c #51EF17",
"        ........   .... ",
"   .....................",
"........................",
"........... ............",
"........................",
"........................",
"........................",
"........................",
"........................",
"........................",
"........................",
"........................",
"........... ............",
"....... ................",
"........................",
"........... .......  ..."};
