/* XPM */
static const char * lettuce0_xpm[] = {
"24 16 2 1",
" 	c None",
".	c #51EF17",
"             .... ....  ",
"      ..................",
"   .....................",
"   .............. ......",
"   .....................",
"........................",
"........................",
"........................",
"........................",
"........................",
"  ......................",
"  ......................",
"  ......................",
"     ...................",
"       .................",
"       ................."};
