/* XPM */
static const char * lettuce_xpm[] = {
"96 16 2 1",
" 	c None",
".	c #51EF17",
"             .... ....          ........   ....    .... ...     .... ...  .... ....             ",
"      ..................   ...............................................................      ",
"   ..........................................................................................   ",
"   .............. ................. .......................................... ..............   ",
"   ..........................................................................................   ",
"................................................................................................",
"................................................................................................",
"................................................................................................",
"................................................................................................",
"................................................................................................",
"  ............................................................................................  ",
"  ............................................................................................  ",
"  ................................. ............................. ............................  ",
"     .......................... ...........................................................     ",
"       ..................................................................................       ",
"       ............................ .......  ............................................       "};
