/* XPM */
static const char * meat1_xpm[] = {
"24 16 4 1",
" 	c None",
".	c #B26B2C",
"+	c #BF5B20",
"@	c #CC4B14",
"        ...+....   .... ",
"   ......+..............",
"..............+......+..",
"....+..+...@.....+.+.+..",
".+.....+...........+.+..",
"................+...++..",
"..@@....+.@.............",
"........+.+..+.....+...+",
".....+.....+....+.......",
"..+....+.....+....+.....",
"+....+...........++...++",
"................+.......",
".+@........@.......+....",
".......@..............++",
"................++..@++.",
".++........ .......  ..."};
