/* XPM */
static const char * meat0_xpm[] = {
"24 16 4 1",
" 	c None",
".	c #B26B2C",
"+	c #BF5B20",
"@	c #CC4B14",
"              ... ....  ",
"           .............",
"       .......+....+....",
"     ......++....@......",
"   ........@.........+..",
"  ....+.................",
"....+.......+.....++....",
".++......+.....+........",
".......................+",
"....++......+.....++....",
"  ........+....+........",
"  ..........+......+....",
"     ............+......",
"     .  .@.......+.....+",
"          ..+......++...",
"           .   ..+......"};
