/* XPM */
static const char * pepper1_xpm[] = {
"30 30 2 1",
" 	c None",
".	c #FFFFFF",
"                              ",
"                              ",
"                              ",
"                              ",
"                              ",
"                              ",
"                              ",
"                              ",
"                              ",
"                              ",
"                              ",
"                              ",
"                   ..         ",
"                   ..         ",
"        ..              ..    ",
"        ..              ..    ",
"                ..            ",
"                ..            ",
"            ..        ..      ",
"            ..        ..      ",
"      ..          ..          ",
"      ..          ..          ",
"            ..                ",
"            ..                ",
"   ..                 ..      ",
"   ..                 ..      ",
"                              ",
"                              ",
"                              ",
"                              "};
