/* XPM */
static const char * pickle_dead3_xpm[] = {
"30 30 2 1",
" 	c None",
".	c #6ABA00",
"                              ",
"                              ",
"                              ",
"                              ",
"                              ",
"                              ",
"                              ",
"                              ",
"                              ",
"                              ",
"                              ",
"                              ",
"                              ",
"                              ",
"                              ",
"                              ",
"                              ",
"                              ",
"           ..         ..      ",
"           ..         ..      ",
"    ..                        ",
"    ..                        ",
"       ..       ..        ..  ",
"       ..       ..        ..  ",
"  ..          ..      ..      ",
"  ..          ..      ..      ",
"                              ",
"                              ",
"   .....  ..........  ......  ",
"   .....  ..........  ......  "};
