/* XPM */
static const char * pickle_dead1_xpm[] = {
"30 30 5 1",
" 	c None",
".	c #6ABA00",
"+	c #00FF00",
"@	c #FF0000",
"#	c #FFFFDE",
"                              ",
"                              ",
"                              ",
"                              ",
"                              ",
"                              ",
"                              ",
"                              ",
"                              ",
"                              ",
"                              ",
"                              ",
"          ..........          ",
"        ..............        ",
"    ......++++++++++......    ",
"  ......++++++++++++++......  ",
" .....++++++++++++++++++..... ",
"...+++++++@+@++++@+@+++++++...",
"...++++++++@++++++@++++++++...",
"..++++++++@+@#+++@+@++++++++..",
"..+++##+++++##+++++++++##+++..",
"..+++##++++++++++++++++##+++..",
" ...++++++##++++++##++++++... ",
"  ...+++++##++++++##+++++...  ",
"   ...++++++++++++++++++...   ",
"    ...++++++++++++++++...    ",
"     ...++++++++++++++...     ",
"      ....++++++++++....      ",
"@@@@@@  ..............  @@@@@@",
"@@@@@@    ..........    @@@@@@"};
