/* XPM */
static const char * pickle_peppered1_xpm[] = {
"30 30 6 1",
" 	c None",
".	c #FFFFFF",
"+	c #6ABA00",
"@	c #A86921",
"#	c #E5A560",
"$	c #FF0000",
"                              ",
"                              ",
"                              ",
"                              ",
"                              ",
"                              ",
" ..      ..+++++++++          ",
" ..     +..+++++++++++        ",
"      ++++@@@@@@@@..++++  ..  ",
"     +++@@@@@@@@@@..@@+++ ..  ",
"   ..++@@@@@@@@@@@@@@@@+++    ",
"   ..+@@@@@@@@@##@@@@@@@+++   ",
"  +++@@@@@@@@@@##@@@..@@@+++  ",
" +++@@@@..@@@@@@@@@@..@@@@+++ ",
"+++@@@@@..@@@@@@@@@@@@@@@@@+++",
"+++@@@@@@@@@$@@@@@$@@@@@@@@+++",
"++@@@@@@@@@@$@@@@@$@@@@@@@@@++",
"++@@@##@@@@@@@@@@@@@@@@##@@@++",
"++@@@##@@@@@@@@@@@@@@@@##@@@++",
" ++@@@@@@@@@@@@@@@@@@@@@@@@++ ",
" +++@@@@@@##@@@@@@##@@@@@@+++ ",
"  +++@@@@@##@@@@@@##@@@@@+++  ",
"   +++@@@@@@@@@@@@@@@@@@+++   ",
"    +++@@@@@@@@@@@@@@@@+++    ",
"     +++@@@@@@@@@@@@@@+++     ",
"      ++++@@@@@@@@@@++++      ",
"$$$$$$  ++++++++++++++  $$$$$$",
"$$$$$$    ++++++++++    $$$$$$",
"                              ",
"                              "};
