/* XPM */
static const char * pickle_dead2_xpm[] = {
"30 30 4 1",
" 	c None",
".	c #6ABA00",
"+	c #00FF00",
"@	c #FF0000",
"                              ",
"                              ",
"                              ",
"                              ",
"                              ",
"                              ",
"                              ",
"                              ",
"                              ",
"                              ",
"                              ",
"                              ",
"                              ",
"                              ",
"                              ",
"                              ",
"                              ",
"                              ",
"                              ",
"                              ",
"                              ",
"                              ",
"                              ",
"                              ",
"          ..........          ",
"    ......................    ",
" .........++++++++++..........",
"......++++++++++++++++++..... ",
"    ......++++++++++......    ",
"@@@@@@  ..............  @@@@@@"};
