/* XPM */
static const char * redstuff2_xpm[] = {
"24 16 5 1",
" 	c None",
".	c #50D110",
"+	c #F78A0E",
"@	c #EAEA07",
"#	c #DB0404",
"...++...+.....+++....@.+",
"@+....+...++@.....++++..",
"+++.++++.+++++.+++++++++",
"++++++++++++++++++######",
"########################",
"########################",
"########################",
"########################",
"########################",
"########################",
"########################",
"########################",
"########################",
"########################",
"########################",
"########################"};
