/* XPM */
static const char * redstuff1_xpm[] = {
"24 16 5 1",
" 	c None",
".	c #50D110",
"+	c #EAEA07",
"@	c #F78A0E",
"#	c #DB0404",
"...+...@..@..@...+......",
".@@@..@+@...@..@...@@...",
"@@@@@@@@@@.@@.@@@@@@@@@@",
"@@@@@@@@@@@@@@@@@@@@@@@@",
"########################",
"########################",
"########################",
"########################",
"########################",
"########################",
"########################",
"########################",
"########################",
"########################",
"########################",
"########################"};
