/* XPM */
static const char * redstuff3_xpm[] = {
"24 16 6 1",
" 	c None",
".	c #F78A0E",
"+	c #50D110",
"@	c #DB0404",
"#	c #EAEA07",
"$	c #FF6363",
".+...............@@@@   ",
"+#..#............@@@@   ",
"......@@@@@@@@@@@@@@@@  ",
"@@@@@@@@@@@@@@@@@@@@@@@ ",
"@@@@@@@@@@@@@@@@@@@@@@@@",
"@@@@@@@@@@@@@@@@@$$@@@@@",
"@@@@@@@@@@@@@@@@@$$$@@@@",
"@@@@@@@@@@@@@@@@@$$$@@@@",
"@@@@@@@@@@@@@@@@@$$$@@@@",
"@@@@@@@@@@@@@@@@@$$$@@@@",
"@@@@@@@@@@@@@@@@$$$@@@@@",
"@@@@@@@@@@@@@@@$$$@@@@@@",
"@@@@@@@@@@@@@@$$@@@@@@@ ",
"@@@@@@@@@@@@@@@@@@@@@@  ",
"@@@@@@@@@@@@@@@@@@@@@   ",
"@@@@@@@@@@@@@@@@@@@@    "};
