/* XPM */
static const char * top_bun0_xpm[] = {
"24 16 30 1",
" 	c None",
".	c #FFDD59",
"+	c #FF8123",
"@	c #FF8827",
"#	c #FFB240",
"$	c #FF8626",
"%	c #FF8E2B",
"&	c #FFB642",
"*	c #FF8C2A",
"=	c #FF952F",
"-	c #FF942E",
";	c #FFC148",
">	c #FFBC46",
",	c #FF9A32",
"'	c #FFC44A",
")	c #FFA035",
"!	c #FFC24A",
"~	c #FFA639",
"{	c #FFCA4D",
"]	c #FFAE3D",
"^	c #FFC94E",
"/	c #FFB441",
"(	c #FFBA44",
"_	c #FFC048",
":	c #FFC84C",
"<	c #FFD655",
"[	c #FFCE50",
"}	c #FFD856",
"|	c #FFD454",
"1	c #FFDB58",
"                        ",
"                     .++",
"                 .@#$$$$",
"             .%&********",
"          .=------------",
"        ;>,,,,,,,,,,,,,,",
"      ')))))))))))))))))",
"    .!~~~~~~~~~~~~~~~~~~",
"   {]]]]]]]]]]]]]]]]]]]]",
"  ^/////////////////////",
" .((((((((((((((((((((((",
" _______________________",
".:::::::::::::::::::::::",
"<[[[[[[[[[[[[[[[[[[[[[[[",
"}|||||||||||||||||||||||",
".11111111111111111111111"};
