/* XPM */
static const char * top_bun_xpm[] = {
"96 16 35 1",
" 	c None",
".	c #FFDD59",
"+	c #FF7B1F",
"@	c #FFAC3C",
"#	c #FF791E",
"$	c #FF8123",
"%	c #FFAF3E",
"&	c #FF8022",
"*	c #FF8827",
"=	c #FFB240",
"-	c #FF8626",
";	c #FF8E2B",
">	c #FFB642",
",	c #FF8C2A",
"'	c #FF952F",
")	c #FF942E",
"!	c #FFC148",
"~	c #FFBC46",
"{	c #FF9A32",
"]	c #FFC44A",
"^	c #FFA035",
"/	c #FFC24A",
"(	c #FFA639",
"_	c #FFCA4D",
":	c #FFAE3D",
"<	c #FFC94E",
"[	c #FFB441",
"}	c #FFBA44",
"|	c #FFC048",
"1	c #FFC84C",
"2	c #FFD655",
"3	c #FFCE50",
"4	c #FFD856",
"5	c #FFD454",
"6	c #FFDB58",
"                            ..+++@@###########################@+++..                            ",
"                     .$$%%&&&&&&&&&&&&&&&&&&&&&&&&&&&&&&&&&&&&&&&&&&&&%%$$.                     ",
"                 .*=--------------------------------------------------------=*.                 ",
"             .;>,,,,,,,,,,,,,,,,,,,,,,,,,,,,,,,,,,,,,,,,,,,,,,,,,,,,,,,,,,,,,,,,>;.             ",
"          .'))))))))))))))))))))))))))))))))))))))))))))))))))))))))))))))))))))))))'.          ",
"        !~{{{{{{{{{{{{{{{{{{{{{{{{{{{{{{{{{{{{{{{{{{{{{{{{{{{{{{{{{{{{{{{{{{{{{{{{{{{{~!        ",
"      ]^^^^^^^^^^^^^^^^^^^^^^^^^^^^^^^^^^^^^^^^^^^^^^^^^^^^^^^^^^^^^^^^^^^^^^^^^^^^^^^^^^]      ",
"    ./((((((((((((((((((((((((((((((((((((((((((((((((((((((((((((((((((((((((((((((((((((/.    ",
"   _::::::::::::::::::::::::::::::::::::::::::::::::::::::::::::::::::::::::::::::::::::::::_   ",
"  <[[[[[[[[[[[[[[[[[[[[[[[[[[[[[[[[[[[[[[[[[[[[[[[[[[[[[[[[[[[[[[[[[[[[[[[[[[[[[[[[[[[[[[[[[[<  ",
" .}}}}}}}}}}}}}}}}}}}}}}}}}}}}}}}}}}}}}}}}}}}}}}}}}}}}}}}}}}}}}}}}}}}}}}}}}}}}}}}}}}}}}}}}}}}}. ",
" |||||||||||||||||||||||||||||||||||||||||||||||||||||||||||||||||||||||||||||||||||||||||||||| ",
".1111111111111111111111111111111111111111111111111111111111111111111111111111111111111111111111.",
"233333333333333333333333333333333333333333333333333333333333333333333333333333333333333333333332",
"455555555555555555555555555555555555555555555555555555555555555555555555555555555555555555555554",
".6666666666666666666666666666666666666666666666666666666666666666666666666666666666666666666666."};
