/* XPM */
static const char * top_bun3_xpm[] = {
"24 16 30 1",
" 	c None",
".	c #FF8123",
"+	c #FFDD59",
"@	c #FF8626",
"#	c #FFB240",
"$	c #FF8827",
"%	c #FF8C2A",
"&	c #FFB642",
"*	c #FF8E2B",
"=	c #FF942E",
"-	c #FF952F",
";	c #FF9A32",
">	c #FFBC46",
",	c #FFC148",
"'	c #FFA035",
")	c #FFC44A",
"!	c #FFA639",
"~	c #FFC24A",
"{	c #FFAE3D",
"]	c #FFCA4D",
"^	c #FFB441",
"/	c #FFC94E",
"(	c #FFBA44",
"_	c #FFC048",
":	c #FFC84C",
"<	c #FFCE50",
"[	c #FFD655",
"}	c #FFD454",
"|	c #FFD856",
"1	c #FFDB58",
"                        ",
"..+                     ",
"@@@@#$+                 ",
"%%%%%%%%&*+             ",
"============-+          ",
";;;;;;;;;;;;;;>,        ",
"''''''''''''''''')      ",
"!!!!!!!!!!!!!!!!!!~+    ",
"{{{{{{{{{{{{{{{{{{{{]   ",
"^^^^^^^^^^^^^^^^^^^^^/  ",
"((((((((((((((((((((((+ ",
"_______________________ ",
":::::::::::::::::::::::+",
"<<<<<<<<<<<<<<<<<<<<<<<[",
"}}}}}}}}}}}}}}}}}}}}}}}|",
"11111111111111111111111+"};
