/* XPM */
static const char * yellowstuff1_xpm[] = {
"24 16 3 1",
" 	c None",
".	c #F4F286",
"+	c #FFFDC6",
"........................",
"............+++++.......",
"+++.......+++..++++.....",
"..++...++++..++++++++++.",
"++++++++++++++++++++++++",
"+++++......++.++++++++++",
"++++........+.+++.......",
"............+++.........",
"........................",
"........................",
"........................",
"........................",
"........................",
"........................",
"........................",
"........................"};
