/* XPM */
static const char * yellowstuff_xpm[] = {
"96 16 3 1",
" 	c None",
".	c #F4F286",
"+	c #FFFDC6",
"   ..........................................................................................   ",
"  ..................................+++++....................++...............................  ",
" ......+++++...........++++.......+++..++++.................++++++..........+++++++++.......... ",
" ......+++.++++++++...++..++...++++..++++++++++.....+++++++++++++++......++++.......+++++...... ",
".......++++++.+++++++++++++++++++++++++++++++++++++++++++++++++++++++++++++++++++++++++++.......",
".......++++++++++++++++++++++......++.+++++++++++++......++.....+++++++++...+++......++++.......",
"......++++++++......++++++++........+.+++........+++....++.++++++.....++......++...++++++.......",
"......+++............++.............+++.............++++++++...........+........++++...+++......",
".....+++................................................................................++......",
"........................................................................................++......",
"................................................................................................",
"................................................................................................",
" .............................................................................................. ",
"  ............................................................................................  ",
"   ..........................................................................................   ",
"    ........................................................................................    "};
