/* XPM */
static const char * yellowstuff0_xpm[] = {
"24 16 3 1",
" 	c None",
".	c #F4F286",
"+	c #FFFDC6",
"   .....................",
"  ......................",
" ......+++++...........+",
" ......+++.++++++++...++",
".......++++++.++++++++++",
".......+++++++++++++++++",
"......++++++++......++++",
"......+++............++.",
".....+++................",
"........................",
"........................",
"........................",
" .......................",
"  ......................",
"   .....................",
"    ...................."};
