# Blender 3.6.4
# www.blender.org
mtllib jeija_wall_lever_on.mtl
o nodebox1.010
v 0.070437 -0.138656 0.459545
v 0.070383 -0.058733 0.407137
v -0.054604 -0.059966 0.407123
v -0.054549 -0.139886 0.459530
v 0.070618 -0.289587 0.117726
v 0.070672 -0.369510 0.170135
v -0.054369 -0.290821 0.117712
v -0.054313 -0.370742 0.170120
vn 1.0000 0.0008 0.0002
vn -1.0000 -0.0008 -0.0002
vn 0.0076 -0.7817 0.6236
vn -0.0076 0.7817 -0.6236
vn 0.0055 -0.5484 -0.8362
vt 0.437500 0.312500
vt 0.437500 0.750000
vt 0.562500 0.750000
vt 0.562500 0.312500
vt 0.437500 0.625000
vt 0.562500 0.625000
s 0
usemtl lever
f 1/1/1 6/2/1 5/3/1 2/4/1
f 4/1/2 3/4/2 7/3/2 8/2/2
f 1/4/3 4/1/3 8/2/3 6/3/3
f 2/4/4 5/3/4 7/2/4 3/1/4
f 6/5/5 8/2/5 7/3/5 5/6/5
o nodebox1.011
v -0.170183 0.248540 0.492297
v -0.161792 -0.249880 0.495967
v -0.161781 -0.250782 0.372940
v -0.170172 0.247638 0.369270
v 0.161753 0.244912 0.492305
v 0.170145 -0.253508 0.495975
v 0.170155 -0.254410 0.372949
v 0.161764 0.244010 0.369279
vn -0.9999 -0.0168 -0.0000
vn 0.9999 0.0168 -0.0000
vn 0.0109 0.9999 -0.0073
vn -0.0109 -0.9999 0.0073
vn 0.0001 0.0074 1.0000
vn -0.0001 -0.0074 -1.0000
vt 0.562500 1.000000
vt 0.562500 0.875000
vt 0.000000 0.875000
vt 0.000000 1.000000
vt 0.000000 0.750000
vt 0.562500 0.750000
vt 0.562450 1.000000
vt 1.000000 1.000000
vt 1.000000 0.874950
vt 0.562550 0.875050
vt 1.000000 0.750000
vt 1.000000 0.875000
vt 0.625000 0.562500
vt 0.625000 0.000000
vt 1.000000 0.000000
vt 1.000000 0.562500
vt 0.375000 0.562500
vt 0.000000 0.562500
vt 0.000000 0.000000
vt 0.375000 0.000000
s 0
usemtl lever
f 9/7/6 12/8/6 11/9/6 10/10/6
f 13/8/7 14/9/7 15/11/7 16/12/7
f 9/13/8 13/14/8 16/15/8 12/16/8
f 10/17/9 11/18/9 15/8/9 14/12/9
f 9/19/10 10/20/10 14/21/10 13/22/10
f 12/23/11 16/24/11 15/25/11 11/26/11
