<?xml version="1.0" encoding="UTF-8" standalone="no"?>
<!-- Created with Inkscape (http://www.inkscape.org/) -->
<svg
   xmlns:svg="http://www.w3.org/2000/svg"
   xmlns="http://www.w3.org/2000/svg"
   version="1.0"
   width="34"
   height="26"
   id="svg2409">
  <defs
     id="defs2411" />
  <g
     transform="translate(-3.8856094,-6.8770658)"
     id="layer1">
    <path
       d="M 37.752575,28.766123 C 34.871666,22.033112 29.260159,20.34138 29.260159,20.34138 C 29.260159,20.34138 24.278447,27.453614 26.004017,30.300687 C 27.729585,33.147759 37.407186,29.362083 37.752575,28.766123 z"
       id="path2419"
       style="fill:none;fill-rule:evenodd;stroke:#000000;stroke-width:0.77146858px;stroke-linecap:butt;stroke-linejoin:miter;stroke-opacity:1" />
    <path
       d="M 29.8954,19.849715 C 27.338222,7.6677277 23.453246,7.1861736 23.453246,7.1861736 C 23.453246,7.1861736 26.222124,16.956585 27.472279,19.305215 C 23.071688,6.7873184 20.156861,7.934102 20.156861,7.934102 C 20.156861,7.934102 21.408388,16.141188 23.15021,19.12506 C 17.476434,5.232386 16.038385,10.091134 16.038385,10.091134 C 16.038385,10.091134 17.893568,18.084822 20.368149,21.397829 C 14.65239,5.9841009 11.893359,7.2830163 11.893359,7.2830163 C 11.893359,7.2830163 13.923664,16.198052 13.880308,20.503869"
       id="path2421"
       style="fill:none;fill-rule:evenodd;stroke:#000000;stroke-width:0.77146858px;stroke-linecap:butt;stroke-linejoin:miter;stroke-opacity:1" />
    <path
       d="M 27.067283,24.070191 C 22.481133,11.158146 18.268024,13.369712 18.268024,13.369712 C 18.268024,13.369712 21.657589,22.909407 22.432331,24.759597"
       id="path2423"
       style="fill:none;fill-rule:evenodd;stroke:#000000;stroke-width:0.77146858px;stroke-linecap:butt;stroke-linejoin:miter;stroke-opacity:1" />
    <path
       d="M 15.681737,19.318725 C 15.681737,19.318725 12.128272,14.100136 9.4288479,11.230036 C 9.4288479,11.230036 12.539408,16.223783 13.251842,19.884881 C 6.2710026,10.170699 6.1228012,10.697902 6.1228012,10.697902 C 6.1228012,10.697902 7.7121222,17.629694 10.919464,21.271837"
       id="path2425"
       style="fill:none;fill-rule:evenodd;stroke:#000000;stroke-width:0.77146858px;stroke-linecap:butt;stroke-linejoin:miter;stroke-opacity:1" />
    <path
       d="M 21.87158,27.045916 C 17.206866,15.807979 11.526273,17.037808 11.526273,17.037808 C 11.526273,17.037808 17.755397,23.927946 17.943658,26.680202"
       id="path2427"
       style="fill:none;fill-rule:evenodd;stroke:#000000;stroke-width:0.77146858px;stroke-linecap:butt;stroke-linejoin:miter;stroke-opacity:1" />
    <path
       d="M 10.446753,23.131504 C 4.5183317,11.766243 6.3330881,14.924336 6.3330881,14.924336 C 6.3330881,14.924336 6.3630358,22.200369 9.1667515,24.780617"
       id="path2429"
       style="fill:none;fill-rule:evenodd;stroke:#000000;stroke-width:0.77146858px;stroke-linecap:butt;stroke-linejoin:miter;stroke-opacity:1" />
    <path
       d="M 25.827934,31.153994 C 19.3753,32.891742 18.320181,32.184713 18.320181,32.184713 L 21.867506,30.514679 C 14.441017,32.229398 13.76283,31.045994 13.76283,31.045994 L 16.811715,29.851373 C 16.811715,29.851373 12.241776,31.087978 9.545055,30.575986 C 6.8483343,30.063993 6.8158284,29.790393 6.8158284,29.790393 C 6.8158284,29.790393 10.919832,29.302801 12.222821,28.59307 C 12.222821,28.59307 8.9721246,29.256744 6.9756575,28.800286 C 4.97919,28.343829 5.2920723,27.474268 5.2920723,27.474268 C 5.2920723,27.474268 7.5458862,27.76142 9.2755286,27.13973 C 4.0161858,23.741383 4.8563098,20.142453 4.8563098,20.142453 C 4.8563098,20.142453 6.6258273,24.834045 8.4367349,24.896355"
       id="path2431"
       style="fill:none;fill-rule:evenodd;stroke:#000000;stroke-width:0.77146858px;stroke-linecap:butt;stroke-linejoin:miter;stroke-opacity:1" />
    <path
       d="M 25.496772,31.714746 C 27.011051,32.783417 22.633446,33.303515 20.057273,32.638469"
       id="path2433"
       style="fill:none;fill-rule:evenodd;stroke:#000000;stroke-width:0.77146858px;stroke-linecap:butt;stroke-linejoin:miter;stroke-opacity:1" />
    <path
       d="M 16.456768,32.199778 C 17.305883,33.955249 10.357751,32.135686 11.429635,31.331773"
       id="path2435"
       style="fill:none;fill-rule:evenodd;stroke:#000000;stroke-width:0.77146858px;stroke-linecap:butt;stroke-linejoin:miter;stroke-opacity:1" />
    <path
       d="M 35.900969,29.51985 C 33.212475,28.213238 30.803765,28.968801 30.803765,28.968801"
       id="path2437"
       style="fill:none;fill-rule:evenodd;stroke:#000000;stroke-width:0.77146858px;stroke-linecap:butt;stroke-linejoin:miter;stroke-opacity:1" />
    <path
       d="M 32.732437,24.835934 C 30.941527,23.182787 28.875094,23.045024 28.875094,23.045024 L 28.875094,23.182787 C 28.875094,23.182787 28.599569,24.698171 32.732437,24.835934 z"
       id="path2439"
       style="fill:none;fill-rule:evenodd;stroke:#000000;stroke-width:0.77146858px;stroke-linecap:butt;stroke-linejoin:miter;stroke-opacity:1" />
  </g>
</svg>
