<?xml version="1.0" encoding="UTF-8" standalone="no"?>
<!-- Created with Inkscape (http://www.inkscape.org/) -->
<svg
   xmlns:dc="http://purl.org/dc/elements/1.1/"
   xmlns:cc="http://creativecommons.org/ns#"
   xmlns:rdf="http://www.w3.org/1999/02/22-rdf-syntax-ns#"
   xmlns:svg="http://www.w3.org/2000/svg"
   xmlns="http://www.w3.org/2000/svg"
   xmlns:sodipodi="http://sodipodi.sourceforge.net/DTD/sodipodi-0.dtd"
   xmlns:inkscape="http://www.inkscape.org/namespaces/inkscape"
   version="1.0"
   width="34"
   height="26"
   id="svg2409"
   sodipodi:version="0.32"
   inkscape:version="0.46"
   sodipodi:docname="walking-01.svg"
   inkscape:output_extension="org.inkscape.output.svg.inkscape">
  <metadata
     id="metadata2632">
    <rdf:RDF>
      <cc:Work
         rdf:about="">
        <dc:format>image/svg+xml</dc:format>
        <dc:type
           rdf:resource="http://purl.org/dc/dcmitype/StillImage" />
      </cc:Work>
    </rdf:RDF>
  </metadata>
  <sodipodi:namedview
     inkscape:window-height="389"
     inkscape:window-width="1278"
     inkscape:pageshadow="2"
     inkscape:pageopacity="0.0"
     guidetolerance="10.0"
     gridtolerance="10.0"
     objecttolerance="10.0"
     borderopacity="1.0"
     bordercolor="#666666"
     pagecolor="#ffffff"
     id="base"
     showgrid="false"
     inkscape:zoom="1"
     inkscape:cx="-145.30988"
     inkscape:cy="36.138106"
     inkscape:window-x="0"
     inkscape:window-y="18"
     inkscape:current-layer="svg2409" />
  <defs
     id="defs2411">
    <inkscape:perspective
       sodipodi:type="inkscape:persp3d"
       inkscape:vp_x="0 : 18 : 1"
       inkscape:vp_y="0 : 1000 : 0"
       inkscape:vp_z="46 : 18 : 1"
       inkscape:persp3d-origin="23 : 12 : 1"
       id="perspective2634" />
  </defs>
  <g
     transform="matrix(-0.7535451,0,0,0.7535451,37.425722,-5.0501499)"
     id="layer1">
    <path
       d="M 4.9213237,36.344425 C 8.655641,27.616901 15.929439,25.424029 15.929439,25.424029 C 15.929439,25.424029 22.386878,34.643114 20.150145,38.333572 C 17.913413,42.024029 5.3690258,37.116926 4.9213237,36.344425 z"
       id="path2419"
       style="fill:none;fill-rule:evenodd;stroke:#000000;stroke-width:1px;stroke-linecap:butt;stroke-linejoin:miter;stroke-opacity:1" />
    <path
       d="M 15.106021,24.786718 C 18.420709,8.9960723 23.635099,10.514725 23.635099,10.514725 C 23.635099,10.514725 19.867428,21.036559 18.24694,24.080922 C 23.951114,7.8548602 28.979398,7.912783 28.979398,7.912783 C 28.979398,7.912783 26.107132,19.979618 23.849332,23.8474 C 31.203845,5.8393117 32.889315,9.8159344 32.889315,9.8159344 C 32.889315,9.8159344 30.663144,22.499013 27.45552,26.793429 C 34.864453,6.8137064 38.440789,8.4973982 38.440789,8.4973982 C 38.440789,8.4973982 35.80905,20.053327 35.865249,25.634652"
       id="path2421"
       style="fill:none;fill-rule:evenodd;stroke:#000000;stroke-width:1px;stroke-linecap:butt;stroke-linejoin:miter;stroke-opacity:1" />
    <path
       d="M 18.771908,30.257423 C 24.71661,13.520455 29.284906,14.422864 29.284906,14.422864 C 29.284906,14.422864 25.784111,28.75278 24.779867,31.15105"
       id="path2423"
       style="fill:none;fill-rule:evenodd;stroke:#000000;stroke-width:1px;stroke-linecap:butt;stroke-linejoin:miter;stroke-opacity:1" />
    <path
       d="M 33.530183,24.098434 C 33.530183,24.098434 37.243432,15.548234 40.742503,11.827927 C 40.742503,11.827927 37.603362,20.08668 36.679885,24.832302 C 45.728651,12.240498 45.563611,10.602444 45.563611,10.602444 C 45.563611,10.602444 43.86063,21.909064 39.70318,26.630114"
       id="path2425"
       style="fill:none;fill-rule:evenodd;stroke:#000000;stroke-width:1px;stroke-linecap:butt;stroke-linejoin:miter;stroke-opacity:1" />
    <path
       d="M 25.50673,34.114644 C 31.553267,19.547703 38.916617,21.141843 38.916617,21.141843 C 38.916617,21.141843 30.842246,30.07304 30.598216,33.640594"
       id="path2427"
       style="fill:none;fill-rule:evenodd;stroke:#000000;stroke-width:1px;stroke-linecap:butt;stroke-linejoin:miter;stroke-opacity:1" />
    <path
       d="M 40.315922,29.040669 C 48.000514,14.308688 46.36246,14.473728 46.36246,14.473728 C 46.36246,14.473728 46.859355,26.940848 43.225097,30.28544"
       id="path2429"
       style="fill:none;fill-rule:evenodd;stroke:#000000;stroke-width:1px;stroke-linecap:butt;stroke-linejoin:miter;stroke-opacity:1" />
    <path
       d="M 20.378388,39.439653 C 28.74248,41.692173 30.110156,40.775701 30.110156,40.775701 L 25.51201,38.610955 C 35.138441,40.833623 35.838955,39.478232 35.838955,39.478232 L 31.886902,37.929729 C 31.886902,37.929729 37.81059,39.532652 41.306158,38.868993 C 44.801726,38.205333 44.843861,37.850685 44.843861,37.850685 C 44.843861,37.850685 39.524132,37.218654 37.83516,36.29868 C 37.83516,36.29868 42.048807,37.158954 44.636686,36.567279 C 47.224565,35.975606 46.818998,34.848457 46.818998,34.848457 C 46.818998,34.848457 43.897539,35.220671 41.655526,34.414818 C 48.472839,30.009783 48.455274,27.130459 48.455274,27.130459 C 48.455274,27.130459 45.268717,31.247551 42.921366,31.328319"
       id="path2431"
       style="fill:none;fill-rule:evenodd;stroke:#000000;stroke-width:1px;stroke-linecap:butt;stroke-linejoin:miter;stroke-opacity:1" />
    <path
       d="M 17.414793,40.166516 C 15.451941,41.551758 21.126319,42.225924 24.465629,41.363873"
       id="path2433"
       style="fill:none;fill-rule:evenodd;stroke:#000000;stroke-width:1px;stroke-linecap:butt;stroke-linejoin:miter;stroke-opacity:1" />
    <path
       d="M 34.846995,40.259515 C 33.352913,42.239933 40.470454,39.848668 40.470454,39.848668"
       id="path2435"
       style="fill:none;fill-rule:evenodd;stroke:#000000;stroke-width:1px;stroke-linecap:butt;stroke-linejoin:miter;stroke-opacity:1" />
    <path
       d="M 7.3214286,37.321428 C 10.806332,35.627761 13.035714,36.071429 13.035714,36.071429"
       id="path2437"
       style="fill:none;fill-rule:evenodd;stroke:#000000;stroke-width:1px;stroke-linecap:butt;stroke-linejoin:miter;stroke-opacity:1" />
    <path
       d="M 11.428571,31.25 C 13.75,29.107143 16.428571,28.928571 16.428571,28.928571 L 16.428571,29.107143 C 16.428571,29.107143 16.785714,31.071428 11.428571,31.25 z"
       id="path2439"
       style="fill:none;fill-rule:evenodd;stroke:#000000;stroke-width:1px;stroke-linecap:butt;stroke-linejoin:miter;stroke-opacity:1" />
  </g>
</svg>
