# Blender 4.4.0
# www.blender.org
mtllib mcl_campfires_campfire.mtl
o campfire_(lit)
v 0.519165 -0.498991 0.454269
v -0.519165 -0.498991 0.454270
v 0.519165 -0.498991 0.194687
v -0.519165 -0.498991 0.194687
v -0.519165 -0.239408 0.454270
v -0.519165 -0.239408 0.194687
v 0.519165 -0.239408 0.194687
v 0.519165 -0.239408 0.454269
v -0.519165 -0.498991 -0.194687
v -0.519165 -0.498991 0.194687
v 0.519165 -0.498991 0.194687
v 0.519165 -0.498991 -0.194687
v 0.519165 -0.434095 -0.194687
v 0.519165 -0.434095 0.194687
v -0.519165 -0.434095 0.194687
v -0.519165 -0.434095 -0.194687
v 0.454269 -0.304304 -0.519165
v 0.454270 -0.304304 0.519165
v 0.194687 -0.304304 -0.519165
v 0.194687 -0.304304 0.519165
v 0.454270 -0.044721 0.519165
v 0.194687 -0.044721 0.519165
v 0.194687 -0.044721 -0.519165
v 0.454269 -0.044721 -0.519165
v 0.519165 -0.498991 -0.194687
v -0.519165 -0.498991 -0.194687
v 0.519165 -0.498991 -0.454270
v -0.519165 -0.498991 -0.454269
v -0.519165 -0.239408 -0.194687
v -0.519165 -0.239408 -0.454269
v 0.519165 -0.239408 -0.454270
v 0.519165 -0.239408 -0.194687
v -0.194687 -0.304304 -0.519165
v -0.194687 -0.304304 0.519165
v -0.454270 -0.304304 -0.519165
v -0.454269 -0.304304 0.519165
v -0.194687 -0.044721 0.519165
v -0.454269 -0.044721 0.519165
v -0.454270 -0.044721 -0.519165
v -0.194687 -0.044721 -0.519165
vn 1.0000 -0.0000 -0.0000
vn -1.0000 -0.0000 -0.0000
vn -0.0000 1.0000 -0.0000
vn -0.0000 -1.0000 -0.0000
vn -0.0000 -0.0000 1.0000
vn -0.0000 -0.0000 -1.0000
vt 0.125000 0.500000
vt 0.125000 0.750000
vt 0.000000 0.750000
vt 0.000000 0.500000
vt 0.499950 0.062587
vt 0.499950 0.437513
vt 0.500000 0.500000
vt 0.000000 0.125000
vt 0.500000 0.125000
vt 0.500000 0.890625
vt 0.500000 0.984375
vt 0.000050 0.937450
vt 0.000050 0.812400
vt 0.499950 0.999900
vt 0.000050 0.999900
vt 0.000050 0.749950
vt 0.499950 0.749950
vt 0.000050 0.437513
vt 0.000050 0.062587
vt 0.500000 0.937500
vt 0.000050 0.937413
vt 0.000050 0.812438
vt 0.499975 0.812525
vt 0.000025 0.812526
vt 0.000025 0.937551
vt 0.499975 0.937550
vt 0.499975 1.000044
vt 0.000025 1.000044
vt 0.000025 0.750032
vt 0.499975 0.750031
vt 0.500000 1.000000
vt 0.000000 1.000000
vt 0.499978 1.000027
vt 0.000022 1.000027
vt 0.500000 0.750000
vt 0.000050 0.031584
vt 0.499950 0.031584
vt 0.500000 0.812500
vt 0.000000 0.812500
vt 0.000000 0.937500
vt 0.000050 0.465416
vt 0.499950 0.465416
s 1
g campfire_(lit)_campfire_log
usemtl campfire_log
f 3/1/1 7/2/1 8/3/1 1/4/1
f 6/3/2 4/4/2 2/1/2 5/2/2
f 11/5/1 12/6/1 13/6/1 14/5/1
f 13/7/3 16/4/3 15/8/3 14/9/3
f 34/10/4 36/11/4 35/12/4 33/13/4
f 21/14/3 24/15/3 23/16/3 22/17/3
f 38/17/3 37/14/3 40/15/3 39/16/3
f 9/18/4 12/6/4 11/5/4 10/19/4
f 9/18/2 10/19/2 15/19/2 16/18/2
f 28/4/2 26/1/2 29/2/2 30/3/2
f 20/20/4 19/21/4 17/22/4 18/10/4
f 2/23/5 1/24/5 8/25/5 5/26/5
f 24/27/1 21/28/1 18/29/1 17/30/1
f 29/26/5 26/23/5 25/24/5 32/25/5
f 6/31/6 7/32/6 3/33/6 4/34/6
f 35/3/2 36/35/2 38/31/2 39/32/2
f 6/17/3 5/14/3 8/15/3 7/16/3
f 28/35/4 27/3/4 25/15/4 26/14/4
f 10/36/5 11/37/5 14/37/5 15/36/5
f 25/4/1 27/1/1 31/2/1 32/3/1
f 35/1/6 39/2/6 40/3/6 33/4/6
f 29/14/3 32/15/3 31/16/3 30/17/3
f 40/25/1 37/26/1 34/23/1 33/24/1
f 30/31/6 31/32/6 27/3/6 28/35/6
f 19/38/2 20/39/2 22/40/2 23/20/2
f 9/41/6 16/41/6 13/42/6 12/42/6
f 2/14/4 4/17/4 3/16/4 1/15/4
f 37/2/5 38/3/5 36/4/5 34/1/5
f 22/3/5 20/4/5 18/1/5 21/2/5
f 23/2/6 24/3/6 17/4/6 19/1/6
o campfire_flame
v -0.424006 -0.425572 0.424006
v -0.424006 0.773699 0.424006
v 0.424006 -0.425572 -0.424006
v 0.424006 0.773699 -0.424006
v 0.424006 -0.425572 0.424006
v 0.424006 0.773699 0.424006
v -0.424006 -0.425572 -0.424006
v -0.424006 0.773699 -0.424006
vn -0.7071 -0.0000 -0.7071
vn -0.7071 -0.0000 0.7071
vt 0.500100 0.000200
vt 0.500100 1.000000
vt 0.999900 1.000000
vt 0.999900 0.000200
s 1
g campfire_flame_camp_fire_UV_animated_emit
usemtl camp_fire_UV_animated_emit
f 41/43/7 42/44/7 44/45/7 43/46/7
f 45/43/8 46/44/8 48/45/8 47/46/8
