<?xml version="1.0" encoding="UTF-8" standalone="no"?>
<!-- Created with Inkscape (http://www.inkscape.org/) -->

<svg
   xmlns:dc="http://purl.org/dc/elements/1.1/"
   xmlns:cc="http://creativecommons.org/ns#"
   xmlns:rdf="http://www.w3.org/1999/02/22-rdf-syntax-ns#"
   xmlns:svg="http://www.w3.org/2000/svg"
   xmlns="http://www.w3.org/2000/svg"
   xmlns:xlink="http://www.w3.org/1999/xlink"
   xmlns:sodipodi="http://sodipodi.sourceforge.net/DTD/sodipodi-0.dtd"
   xmlns:inkscape="http://www.inkscape.org/namespaces/inkscape"
   width="128"
   height="128"
   id="svg2"
   version="1.1"
   inkscape:version="0.47pre4 r22446"
   sodipodi:docname="grafx2 logo 2.svg">
  <defs
     id="defs4">
    <linearGradient
       id="linearGradient2892">
      <stop
         style="stop-color:#6f0070;stop-opacity:1;"
         offset="0"
         id="stop2894" />
      <stop
         style="stop-color:#000000;stop-opacity:0;"
         offset="1"
         id="stop2896" />
    </linearGradient>
    <linearGradient
       inkscape:collect="always"
       id="linearGradient2884">
      <stop
         style="stop-color:#00ffff;stop-opacity:1;"
         offset="0"
         id="stop2886" />
      <stop
         style="stop-color:#00ffff;stop-opacity:0;"
         offset="1"
         id="stop2888" />
    </linearGradient>
    <linearGradient
       inkscape:collect="always"
       id="linearGradient2870">
      <stop
         style="stop-color:#00ffff;stop-opacity:1;"
         offset="0"
         id="stop2872" />
      <stop
         style="stop-color:#00ffff;stop-opacity:0;"
         offset="1"
         id="stop2874" />
    </linearGradient>
    <linearGradient
       id="linearGradient3638">
      <stop
         id="stop3646"
         offset="0"
         style="stop-color:#0000c0;stop-opacity:1;" />
      <stop
         style="stop-color:#0084ff;stop-opacity:1;"
         offset="1"
         id="stop3642" />
    </linearGradient>
    <inkscape:perspective
       sodipodi:type="inkscape:persp3d"
       inkscape:vp_x="0 : 526.18109 : 1"
       inkscape:vp_y="0 : 1000 : 0"
       inkscape:vp_z="744.09448 : 526.18109 : 1"
       inkscape:persp3d-origin="372.04724 : 350.78739 : 1"
       id="perspective10" />
    <linearGradient
       inkscape:collect="always"
       xlink:href="#linearGradient3638"
       id="linearGradient3644"
       x1="128"
       y1="128"
       x2="34"
       y2="30"
       gradientUnits="userSpaceOnUse" />
    <linearGradient
       inkscape:collect="always"
       xlink:href="#linearGradient2870"
       id="linearGradient2876"
       x1="89.089699"
       y1="4"
       x2="64"
       y2="29.534883"
       gradientUnits="userSpaceOnUse" />
    <linearGradient
       inkscape:collect="always"
       xlink:href="#linearGradient2884"
       id="linearGradient2890"
       x1="3.99998"
       y1="1013.6645"
       x2="29.32226"
       y2="988.36218"
       gradientUnits="userSpaceOnUse" />
    <linearGradient
       inkscape:collect="always"
       xlink:href="#linearGradient2892"
       id="linearGradient2898"
       x1="38.272427"
       y1="1048.1097"
       x2="64"
       y2="1023.4453"
       gradientUnits="userSpaceOnUse" />
    <linearGradient
       inkscape:collect="always"
       xlink:href="#linearGradient2892"
       id="linearGradient3678"
       x1="124"
       y1="964.33557"
       x2="99.740875"
       y2="988.36224"
       gradientUnits="userSpaceOnUse" />
  </defs>
  <sodipodi:namedview
     id="base"
     pagecolor="#ffffff"
     bordercolor="#666666"
     borderopacity="1.0"
     inkscape:pageopacity="0.0"
     inkscape:pageshadow="2"
     inkscape:zoom="4.703125"
     inkscape:cx="64"
     inkscape:cy="64"
     inkscape:document-units="px"
     inkscape:current-layer="layer1"
     showgrid="false"
     inkscape:window-width="1440"
     inkscape:window-height="857"
     inkscape:window-x="-4"
     inkscape:window-y="-4"
     inkscape:window-maximized="1"
     showguides="false"
     inkscape:guide-bbox="true"
     inkscape:snap-nodes="true"
     inkscape:snap-global="true"
     inkscape:snap-grids="true"
     borderlayer="false"
     showborder="true">
    <inkscape:grid
       type="xygrid"
       id="grid3667"
       empspacing="5"
       visible="true"
       enabled="true"
       snapvisiblegridlinesonly="true"
       spacingx="2px"
       spacingy="2px"
       dotted="false"
       color="#ff8400"
       opacity="0.1254902"
       empcolor="#ff6b00"
       empopacity="0.25098039" />
    <inkscape:grid
       type="axonomgrid"
       id="grid3715"
       units="px"
       empspacing="5"
       visible="false"
       enabled="true"
       snapvisiblegridlinesonly="true"
       gridanglex="45"
       gridanglez="45"
       color="#ff8000"
       opacity="0.1254902"
       empcolor="#ff7d00"
       empopacity="0.25098039"
       originx="2.7755576e-17px"
       spacingy="4px"
       originy="2.3px" />
    <sodipodi:guide
       orientation="1,0"
       position="86,190"
       id="guide4072" />
    <sodipodi:guide
       orientation="1,0"
       position="98,192"
       id="guide4074" />
  </sodipodi:namedview>
  <metadata
     id="metadata7">
    <rdf:RDF>
      <cc:Work
         rdf:about="">
        <dc:format>image/svg+xml</dc:format>
        <dc:type
           rdf:resource="http://purl.org/dc/dcmitype/StillImage" />
        <dc:title />
      </cc:Work>
    </rdf:RDF>
  </metadata>
  <g
     inkscape:label="Layer 1"
     inkscape:groupmode="layer"
     id="layer1"
     transform="translate(0,-924.36218)">
    <path
       style="fill:#000000;fill-opacity:1;fill-rule:evenodd;stroke:none"
       d="m 40,874.36218 c -5.522847,0 -10,4.47715 -10,10 0,5.52285 4.477153,10 10,10 3.274644,0 6.175899,-1.56729 8,-4 l 0,4 2,0 0,-10 -6,0 0,2 3.75,0 c -0.886356,3.45298 -4.020532,6 -7.75,6 -4.418278,0 -8,-3.58172 -8,-8 0,-4.41828 3.581722,-8 8,-8 l 18,0 c 2.209139,0 4,1.79086 4,4 0,2.20914 -1.790861,4 -4,4 l -4,0 0,10 2,0 0,-6.8125 5.53125,6.8125 8.46875,0 0,-8 8,0 0,8 8,0 0,-8 6,0 0,-2 -6,0 0,-8 7.59375,0 8,8 -10,10 2.8125,0 8.59375,-8.59375 8.59375,8.59375 2.8125,0 -10,-10 10,-10 -2.8125,0 -8.59375,8.59375 -8.59375,-8.59375 -10.40625,0 0,18 -4,0 0,-12 c 0,-3.31371 -2.686294,-6 -6,-6 -3.313706,0 -6,2.68629 -6,6 l 0,12 -5.53125,0 -4.84375,-6 0.375,0 c 3.313706,0 6,-2.68629 6,-6 0,-3.31371 -2.686294,-6 -6,-6 l -18,0 z m 34,2 c 2.209139,0 4,1.79086 4,4 l 0,4 -8,0 0,-4 c 0,-2.20914 1.790861,-4 4,-4 z"
       id="rect3937"
       sodipodi:nodetypes="csscccccccssccsccccccccccccccccccccccccccccccccscccccscccccccc" />
    <path
       style="fill:url(#linearGradient3644);stroke:#000000;stroke-width:0;stroke-linecap:butt;stroke-linejoin:miter;stroke-opacity:1;stroke-miterlimit:4;stroke-dasharray:none;fill-opacity:1;fill-rule:nonzero"
       d="m 0,0 40,0 24,24 24,-24 40,0 0,40 -24,24 24,24 0,40 -40,0 L 64,104 40,128 0,128 0,88 24,64 0,40 0,0 z"
       id="path3671"
       sodipodi:nodetypes="ccccccccccccccccc"
       transform="translate(0,924.36218)" />
    <path
       style="fill:#00ffff;stroke:#000000;stroke-width:0;stroke-linecap:butt;stroke-linejoin:miter;stroke-opacity:1;stroke-miterlimit:4;stroke-dasharray:none;fill-opacity:1"
       d="M 3.7266246,4.151842 44,4 48,12 12,12 12,48 4,44 3.7266246,4.151842 z"
       id="path3687"
       transform="translate(0,924.36218)"
       sodipodi:nodetypes="ccccccc" />
    <path
       style="fill:url(#linearGradient2876);stroke:none;stroke-width:1px;stroke-linecap:butt;stroke-linejoin:miter;stroke-opacity:1;fill-opacity:1"
       d="m 124,4 -36,0 -24,24 6,6 22,-22 24,0 8,-8 z"
       id="path3689"
       transform="translate(0,924.36218)"
       sodipodi:nodetypes="ccccccc" />
    <path
       id="path3693"
       d="m 3.99998,1048.3622 0,-36 L 28,988.36217 l 6,6.00001 -22,22.00002 0,24 -8.00002,8 z"
       style="fill:url(#linearGradient2890);fill-opacity:1;stroke:none"
       sodipodi:nodetypes="ccccccc" />
    <path
       sodipodi:nodetypes="ccccccc"
       style="fill:url(#linearGradient2898);fill-opacity:1;stroke:none"
       d="m 3.99998,1048.3622 36,0 24.00002,-24 -6,-6 -22.00002,22 -23.99998,0 -8.00002,8 z"
       id="path3697" />
    <path
       id="path3699"
       d="m 124,928.36218 0,36 -23.99999,24.00004 L 94.000005,982.3622 116,960.36218 l 0,-23.99998 8,-8.00002 z"
       style="fill:url(#linearGradient3678);fill-opacity:1;stroke:none"
       sodipodi:nodetypes="ccccccc" />
    <path
       sodipodi:nodetypes="ccccccc"
       id="path3703"
       d="m 124,1048.3622 -40,0 -4,-8 36,0 0,-36 8,4 0,40 z"
       style="fill:#6f0070;fill-opacity:1;stroke:#000000;stroke-width:0;stroke-linecap:butt;stroke-linejoin:miter;stroke-miterlimit:4;stroke-opacity:1;stroke-dasharray:none" />
    <path
       style="fill:none;fill-opacity:1;stroke:#000000;stroke-width:4;stroke-linecap:butt;stroke-linejoin:miter;stroke-miterlimit:4;stroke-opacity:1;stroke-dasharray:none"
       d="m 2,963.54968 c 8.286735,8.26529 16.530985,16.57353 24.84375,24.8125 C 18.530902,996.60107 10.286796,1004.9095 2,1013.1747 c 0,12.3958 0,24.7917 0,37.1875 12.395833,0 24.791667,0 37.1875,0 8.265288,-8.2868 16.57353,-16.531 24.8125,-24.8438 8.238886,8.3129 16.547274,16.557 24.8125,24.8438 12.39583,0 24.79167,0 37.1875,0 0,-12.3958 0,-24.7917 0,-37.1875 -8.28674,-8.2653 -16.53098,-16.57355 -24.84375,-24.81252 8.31285,-8.23889 16.55695,-16.54727 24.84375,-24.8125 0,-12.39583 0,-24.79167 0,-37.1875 -12.39583,0 -24.79167,0 -37.1875,0 -8.265288,8.28673 -16.57353,16.53098 -24.8125,24.84375 -8.238886,-8.31285 -16.547274,-16.55695 -24.8125,-24.84375 -12.395833,0 -24.791667,0 -37.1875,0 0,12.39583 0,24.79167 0,37.1875 z"
       id="path3677" />
    <rect
       style="fill:#00ffff;fill-opacity:1;fill-rule:nonzero;stroke:none"
       id="rect3717"
       width="8.3249416"
       height="8"
       x="11.675058"
       y="944.36218" />
    <rect
       y="936.03723"
       x="20"
       height="8.3249416"
       width="8"
       id="rect3719"
       style="fill:#00ffff;fill-opacity:1;fill-rule:nonzero;stroke:none" />
    <rect
       style="fill:#00ffff;fill-opacity:1;fill-rule:nonzero;stroke:none"
       id="rect3721"
       width="8"
       height="8"
       x="20"
       y="952.36218" />
    <rect
       style="fill:#00ffff;fill-opacity:1;fill-rule:nonzero;stroke:none"
       id="rect3725"
       width="8"
       height="8"
       x="20"
       y="968.36218" />
    <rect
       style="fill:#00ffff;fill-opacity:1;fill-rule:nonzero;stroke:none"
       id="rect3729"
       width="8"
       height="8.5686474"
       x="36"
       y="935.79352" />
    <rect
       style="fill:#00ffff;fill-opacity:1;fill-rule:nonzero;stroke:none"
       id="rect3733"
       width="8"
       height="8"
       x="36"
       y="952.36218" />
    <path
       mask="none"
       transform="translate(2,902.36218)"
       d="m 50,-42 c 0,5.522847 -4.477153,10 -10,10 -5.522847,0 -10,-4.477153 -10,-10 0,-5.522847 4.477153,-10 10,-10 5.522847,0 10,4.477153 10,10 z"
       sodipodi:ry="10"
       sodipodi:rx="10"
       sodipodi:cy="-42"
       sodipodi:cx="40"
       id="path3897"
       style="fill:#000900;fill-opacity:1;fill-rule:nonzero;stroke:none"
       sodipodi:type="arc" />
    <path
       sodipodi:type="arc"
       style="fill:#80fcff;fill-opacity:1;fill-rule:nonzero;stroke:none"
       id="path3899"
       sodipodi:cx="40"
       sodipodi:cy="-62"
       sodipodi:rx="8"
       sodipodi:ry="8"
       d="m 48,-62 c 0,4.418278 -3.581722,8 -8,8 -4.418278,0 -8,-3.581722 -8,-8 0,-4.418278 3.581722,-8 8,-8 4.418278,0 8,3.581722 8,8 z"
       transform="translate(2,922.36218)" />
    <rect
       y="850.36218"
       x="42"
       height="2"
       width="18"
       id="rect3901"
       style="fill:#000000;fill-opacity:1;fill-rule:evenodd;stroke:none" />
    <rect
       y="860.36218"
       x="50"
       height="10"
       width="2"
       id="rect3903"
       style="fill:#000000;fill-opacity:1;fill-rule:evenodd;stroke:none" />
    <rect
       y="860.36218"
       x="46"
       height="2"
       width="6"
       id="rect3905"
       style="fill:#000000;fill-opacity:1;fill-rule:evenodd;stroke:none" />
    <path
       transform="matrix(1.2003097,0,0,1.1990697,-18.021682,912.72311)"
       d="m 69.999996,-47.00388 c 0,2.763567 -2.237997,5.00388 -4.998707,5.00388 -2.760709,0 -4.998706,-2.240313 -4.998706,-5.00388 0,-2.763566 2.237997,-5.003879 4.998706,-5.003879 2.76071,0 4.998707,2.240313 4.998707,5.003879 z"
       sodipodi:ry="5.0038791"
       sodipodi:rx="4.9987068"
       sodipodi:cy="-47.00388"
       sodipodi:cx="65.001289"
       id="path3907"
       style="fill:#000000;fill-opacity:1;fill-rule:evenodd;stroke:none"
       sodipodi:type="arc" />
    <rect
       y="860.36218"
       x="56"
       height="10"
       width="2"
       id="rect3909"
       style="fill:#000000;fill-opacity:1;fill-rule:evenodd;stroke:none" />
    <path
       transform="matrix(1.3333333,0,0,1.2698414,-18.666667,885.75901)"
       d="m 62,-23.15 c 0,1.739697 -1.343146,3.15 -3,3.15 -1.656854,0 -3,-1.410303 -3,-3.15 0,-1.739697 1.343146,-3.15 3,-3.15 1.656854,0 3,1.410303 3,3.15 z"
       sodipodi:ry="3.1500001"
       sodipodi:rx="3"
       sodipodi:cy="-23.15"
       sodipodi:cx="59"
       id="path3911"
       style="fill:#80fcff;fill-opacity:1;fill-rule:evenodd;stroke:none"
       sodipodi:type="arc" />
    <rect
       y="852.36218"
       x="42"
       height="8"
       width="18"
       id="rect3913"
       style="fill:#80fcff;fill-opacity:1;fill-rule:evenodd;stroke:none" />
    <rect
       y="860.36218"
       x="52"
       height="2.0000148"
       width="4"
       id="rect3915"
       style="fill:#80fcff;fill-opacity:1;fill-rule:evenodd;stroke:none" />
    <rect
       y="860.36218"
       x="56"
       height="2"
       width="4"
       id="rect3917"
       style="fill:#000000;fill-opacity:1;fill-rule:evenodd;stroke:none" />
    <path
       id="path3919"
       d="m 58,860.36218 -1.5625,1.25 7.09375,8.75 2.5625,0 -8.09375,-10 z"
       style="fill:#000000;fill-opacity:1;fill-rule:evenodd;stroke:none" />
    <rect
       y="856.36218"
       x="68"
       height="14"
       width="12"
       id="rect3939"
       style="fill:#000000;fill-opacity:1;fill-rule:evenodd;stroke:none" />
    <path
       transform="matrix(1.2003097,0,0,1.1990697,-4.0216797,912.72311)"
       d="m 69.999996,-47.00388 c 0,2.763567 -2.237997,5.00388 -4.998707,5.00388 -2.760709,0 -4.998706,-2.240313 -4.998706,-5.00388 0,-2.763566 2.237997,-5.003879 4.998706,-5.003879 2.76071,0 4.998707,2.240313 4.998707,5.003879 z"
       sodipodi:ry="5.0038791"
       sodipodi:rx="4.9987068"
       sodipodi:cy="-47.00388"
       sodipodi:cx="65.001289"
       id="path3941"
       style="fill:#000000;fill-opacity:1;fill-rule:evenodd;stroke:none"
       sodipodi:type="arc" />
    <path
       transform="matrix(1.3333333,0,0,1.2698414,-4.6666647,885.75901)"
       d="m 62,-23.15 c 0,1.739697 -1.343146,3.15 -3,3.15 -1.656854,0 -3,-1.410303 -3,-3.15 0,-1.739697 1.343146,-3.15 3,-3.15 1.656854,0 3,1.410303 3,3.15 z"
       sodipodi:ry="3.1500001"
       sodipodi:rx="3"
       sodipodi:cy="-23.15"
       sodipodi:cx="59"
       id="path3943"
       style="fill:#80fcff;fill-opacity:1;fill-rule:evenodd;stroke:none"
       sodipodi:type="arc" />
    <rect
       y="856.36218"
       x="70"
       height="14"
       width="8"
       id="rect3945"
       style="fill:#80fcff;fill-opacity:1;fill-rule:evenodd;stroke:none" />
    <path
       id="path4000"
       d="m 70,826.06218 c -3.313706,0 -6,2.68629 -6,6 l 0,14 2,0 0,-8 8,0 0,8 2,0 0,-14 c 0,-3.31371 -2.686294,-6 -6,-6 z m 0,2 c 2.209139,0 4,1.79086 4,4 l 0,4 -8,0 0,-4 c 0,-2.20914 1.790861,-4 4,-4 z"
       style="fill:#000000;fill-opacity:1;fill-rule:evenodd;stroke:none" />
    <path
       sodipodi:nodetypes="csscccccccssccscccccccccscc"
       id="path4002"
       d="m 40,826.06218 c -5.522847,0 -10,4.47715 -10,10 0,5.52284 4.477153,10 10,10 3.274644,0 6.175899,-1.5673 8,-4 l 0,4 2,0 0,-10 -6,0 0,2 3.75,0 c -0.886356,3.45297 -4.020532,6 -7.75,6 -4.418278,0 -8,-3.58172 -8,-8 0,-4.41828 3.581722,-8 8,-8 l 16,0 c 2.209139,0 4,1.79086 4,4 0,2.20914 -1.790861,4 -4,4 l -4,0 0,10 2,0 0,-6.8125 5.53125,6.8125 2.5625,0 -6.46875,-8 0.375,0 c 3.313706,0 6,-2.68629 6,-6 0,-3.31371 -2.686294,-6 -6,-6 l -16,0 z"
       mask="none"
       style="fill:#000900;fill-opacity:1;fill-rule:nonzero;stroke:none" />
    <rect
       y="844.06219"
       x="60"
       height="2"
       width="3.9999993"
       id="rect4004"
       style="fill:#000000;fill-opacity:1;fill-rule:evenodd;stroke:none" />
    <rect
       style="fill:#000000;fill-opacity:1;fill-rule:evenodd;stroke:none"
       id="rect4006"
       width="3.9999993"
       height="2"
       x="76"
       y="844.06219" />
    <rect
       y="826.06219"
       x="78"
       height="20"
       width="2"
       id="rect4008"
       style="fill:#000000;fill-opacity:1;fill-rule:evenodd;stroke:none" />
    <rect
       y="836.06219"
       x="80"
       height="2"
       width="6"
       id="rect4010"
       style="fill:#000000;fill-opacity:1;fill-rule:evenodd;stroke:none" />
    <rect
       style="fill:#000000;fill-opacity:1;fill-rule:evenodd;stroke:none"
       id="rect4012"
       width="8"
       height="2"
       x="80"
       y="826.06219" />
    <path
       id="path4014"
       d="m 105.59375,826.06218 -20,20 2.8125,0 20,-20 -2.8125,0 z"
       style="fill:#000000;fill-opacity:1;fill-rule:evenodd;stroke:none" />
    <path
       id="path4016"
       d="m 85.59375,826.06218 20,20 2.8125,0 -20,-20 -2.8125,0 z"
       style="fill:#000000;fill-opacity:1;fill-rule:evenodd;stroke:none" />
    <path
       style="fill:#000000;fill-opacity:1;fill-rule:evenodd;stroke:none"
       d="m 92,-74 c -3.313708,0 -6,2.686292 -6,6 l 2,0 c 0,-2.209138 1.790861,-4 4,-4 2.209139,0 4,1.790862 4,4 0,0.924505 -0.316103,1.767566 -0.84375,2.4375 L 86,-56.40625 86,-54 l 0.40625,0 3.59375,0 8,0 0,-2 -9.59375,0 c 2.741938,-2.79967 5.550134,-5.533226 8.3125,-8.3125 C 97.516107,-65.330481 98,-66.605757 98,-68 c 0,-3.313708 -2.686292,-6 -6,-6 z"
       transform="translate(0,924.36218)"
       id="rect4054"
       sodipodi:nodetypes="cccsscccccccccsc" />
    <rect
       y="866.06219"
       x="110.00001"
       height="2"
       width="12"
       id="rect4088"
       style="fill:#000000;fill-opacity:1;fill-rule:evenodd;stroke:none" />
    <path
       transform="translate(24.000004,922.06218)"
       d="m 98,-68 c 0,3.313708 -2.686292,6 -6,6 -3.313708,0 -6,-2.686292 -6,-6 0,-3.313708 2.686292,-6 6,-6 3.313708,0 6,2.686292 6,6 z"
       sodipodi:ry="6"
       sodipodi:rx="6"
       sodipodi:cy="-68"
       sodipodi:cx="92"
       id="path4090"
       style="fill:#000000;fill-opacity:1;fill-rule:evenodd;stroke:none"
       sodipodi:type="arc" />
    <path
       transform="matrix(1.0710444,0,0,1.1329123,17.179738,930.56857)"
       d="m 96,-67.530724 c 0,1.949965 -1.67207,3.530723 -3.734673,3.530723 -2.062602,0 -3.734672,-1.580758 -3.734672,-3.530723 0,-1.949964 1.67207,-3.530722 3.734672,-3.530722 2.062603,0 3.734673,1.580758 3.734673,3.530722 z"
       sodipodi:ry="3.5307226"
       sodipodi:rx="3.7346721"
       sodipodi:cy="-67.530724"
       sodipodi:cx="92.265327"
       id="path4092"
       style="fill:#80fcff;fill-opacity:1;fill-rule:evenodd;stroke:none"
       sodipodi:type="arc" />
    <rect
       y="854.06219"
       x="110.00001"
       height="5.9999976"
       width="8"
       id="rect4094"
       style="fill:#99ff80;fill-opacity:1;fill-rule:evenodd;stroke:none" />
    <path
       sodipodi:nodetypes="ccccc"
       id="path4096"
       d="m 106.00001,869.64797 13.31371,-13.31371 1.41421,1.41421 -13.3137,13.31371 -1.41422,-1.41421 z"
       style="fill:#000000;fill-opacity:1;fill-rule:evenodd;stroke:none" />
    <rect
       y="868.06219"
       x="103.7"
       height="4"
       width="10.3"
       id="rect4098"
       style="fill:#80fcff;fill-opacity:1;fill-rule:evenodd;stroke:none" />
    <rect
       y="864.06219"
       x="106.00001"
       height="6"
       width="4"
       id="rect4100"
       style="fill:#80fcff;fill-opacity:1;fill-rule:evenodd;stroke:none" />
    <path
       sodipodi:nodetypes="cccsscccccccccsc"
       id="path4108"
       d="m 78.616254,1003.5164 c -4.458625,4.3806 -4.458615,11.4829 0,15.8634 l 2.69102,-2.6439 c -2.972501,-2.9204 -2.972417,-7.6553 0,-10.5757 2.972417,-2.9203 7.791576,-2.9203 10.764075,0 1.243923,1.2223 1.952869,2.7546 2.144405,4.3377 l -6.6e-5,24.2082 3.237699,3.1809 0.546613,-0.5371 4.83543,-4.7506 10.76407,-10.5757 -2.69102,-2.6438 L 98,1032.0622 c -0.07771,-7.3257 0.02278,-14.6516 0,-21.9773 -0.296877,-2.3999 -1.361722,-4.7254 -3.237631,-6.5685 -4.458615,-4.3805 -11.687488,-4.3805 -16.146115,0 z"
       style="fill:#ffffff;fill-opacity:1;fill-rule:evenodd;stroke:#ffffff;stroke-opacity:1;stroke-width:4;stroke-miterlimit:4;stroke-dasharray:none" />
    <path
       sodipodi:nodetypes="csscccccccssccsccccccccccccccccccccccccccccccccscccccscccccccc"
       id="path4112"
       d="m 22.308544,1011.009 c -5.303025,5.303 -5.303027,13.9009 0,19.2039 5.302999,5.303 13.900945,5.3031 19.20397,0 3.144305,-3.1443 4.425165,-7.435 3.84079,-11.5224 l 3.84079,3.8409 1.920396,-1.9205 -9.601995,-9.6019 -5.761186,5.7611 1.920396,1.9204 3.60074,-3.6007 c 2.464505,4.1667 1.900699,9.6217 -1.680327,13.2027 -4.242419,4.2425 -11.120718,4.2425 -15.363178,0 -4.242422,-4.2424 -4.242421,-11.1207 0,-15.3631 l 17.283555,-17.2836 c 2.12121,-2.12127 5.560369,-2.12127 7.68158,0 2.121211,2.12121 2.12121,5.5603 0,7.6815 l -3.84079,3.8408 9.601995,9.602 1.920394,-1.9203 -6.541365,-6.5415 11.852458,1.2303 8.131672,-8.1317 -7.681599,-7.68156 7.68158,-7.68157 7.681601,7.6816 7.68158,-7.68159 L 78,978.36218 l 5.761186,-5.76119 -1.920396,-1.92039 -5.761184,5.76119 -7.68158,-7.68159 7.2915,-7.2915 15.363163,0 2e-5,19.20397 2.70055,-2.70056 -2e-5,-16.50341 16.503421,3e-5 2.70055,-2.70056 -19.203971,-3e-5 0,-19.20394 -2.70055,2.70056 0,16.50338 -16.503399,0 -9.992055,9.99206 17.283576,17.28358 -3.84079,3.84079 -11.522391,-11.52239 c -3.181816,-3.18181 -8.340557,-3.18181 -11.522369,0 -3.181813,3.18182 -3.181817,8.34056 0,11.52237 l 11.522388,11.52235 -5.311092,5.3112 -10.412162,-1.1103 0.360074,-0.3601 c 3.181813,-3.1818 3.181817,-8.34053 0,-11.52236 -3.181815,-3.18182 -8.340557,-3.18181 -11.52237,0 L 22.308544,1011.009 z m 34.567111,-30.72642 c 2.121209,-2.12121 5.56037,-2.12121 7.68158,0 l 3.840791,3.84078 -7.681581,7.68159 -3.84079,-3.84079 c -2.121211,-2.12122 -2.12121,-5.56038 0,-7.68158 z"
       style="fill:#ffffff;fill-opacity:1;fill-rule:evenodd;stroke:#ffffff;stroke-width:2;stroke-miterlimit:4;stroke-dasharray:none;stroke-opacity:1;stroke-linejoin:round" />
  </g>
</svg>
