P3
# CREATOR: GIMP PNM Filter Version 1.1
48 16
255
25
224
25
25
223
25
25
222
25
25
220
25
25
219
25
25
217
25
25
215
25
25
214
25
25
214
25
25
212
25
25
210
25
25
209
25
25
207
25
25
205
25
25
204
25
25
203
25
25
224
25
25
223
25
25
222
25
25
220
25
25
219
25
25
217
25
25
215
25
25
214
25
25
214
25
25
212
25
25
210
25
25
209
25
25
207
25
25
205
25
25
204
25
25
203
25
25
224
25
25
223
25
25
222
25
25
220
25
25
219
25
25
217
25
25
215
25
25
214
25
25
214
25
25
212
25
25
210
25
25
209
25
25
207
25
25
205
25
25
204
25
25
203
25
25
223
25
0
217
0
0
216
0
0
215
0
0
213
0
0
211
0
0
210
0
0
208
0
0
207
0
0
205
0
0
204
0
0
202
0
0
200
0
0
199
0
0
197
0
0
176
0
25
223
25
0
217
0
0
216
0
0
215
0
0
213
0
0
211
0
0
210
0
0
208
0
0
207
0
0
205
0
0
204
0
0
202
0
0
200
0
0
199
0
0
197
0
0
176
0
25
223
25
0
217
0
0
216
0
0
215
0
0
213
0
0
211
0
0
210
0
0
208
0
0
207
0
0
205
0
0
204
0
0
202
0
0
200
0
0
199
0
0
197
0
0
176
0
25
221
25
0
216
0
0
215
0
0
213
0
0
211
0
0
209
0
0
209
0
0
207
0
0
205
0
0
204
0
0
202
0
0
200
0
0
199
0
0
197
0
0
196
0
0
174
0
25
221
25
0
216
0
0
215
0
0
213
0
0
211
0
0
209
0
0
209
0
0
207
0
0
205
0
0
102
0
0
202
0
0
200
0
0
199
0
0
197
0
0
196
0
0
174
0
25
221
25
0
216
0
0
215
0
0
213
0
0
211
0
0
209
0
0
104
0
0
207
0
0
205
0
0
204
0
0
202
0
0
200
0
0
199
0
0
197
0
0
196
0
0
174
0
25
220
25
0
214
0
0
213
0
0
211
0
0
210
0
0
208
0
0
206
0
0
205
0
0
204
0
0
202
0
0
200
0
0
198
0
0
197
0
0
196
0
0
194
0
0
173
0
25
220
25
0
214
0
0
213
0
0
211
0
0
210
0
0
208
0
0
206
0
0
205
0
0
102
0
0
0
0
0
200
0
0
198
0
0
197
0
0
196
0
0
194
0
0
173
0
25
220
25
0
214
0
0
213
0
0
211
0
0
210
0
0
208
0
0
0
0
0
102
0
0
204
0
0
202
0
0
200
0
0
198
0
0
197
0
0
196
0
0
194
0
0
173
0
25
218
25
0
213
0
0
211
0
0
210
0
0
208
0
0
206
0
0
205
0
0
101
0
0
101
0
0
200
0
0
199
0
0
197
0
0
195
0
0
194
0
0
193
0
0
172
0
25
218
25
0
213
0
0
211
0
0
210
0
0
208
0
0
206
0
0
205
0
0
101
0
0
0
0
0
0
0
0
199
0
0
197
0
0
195
0
0
194
0
0
193
0
0
172
0
25
218
25
0
213
0
0
211
0
0
210
0
0
208
0
0
206
0
0
0
0
0
0
0
0
101
0
0
200
0
0
199
0
0
197
0
0
195
0
0
194
0
0
193
0
0
172
0
25
217
25
0
211
0
0
210
0
0
208
0
0
206
0
0
205
0
0
102
0
0
0
0
0
0
0
0
99
0
0
197
0
0
195
0
0
194
0
0
192
0
0
191
0
0
170
0
25
217
25
0
211
0
0
210
0
0
208
0
0
206
0
0
205
0
0
102
0
0
0
0
0
0
0
0
0
0
0
197
0
0
195
0
0
194
0
0
192
0
0
191
0
0
170
0
25
217
25
0
211
0
0
210
0
0
208
0
0
206
0
0
205
0
0
0
0
0
0
0
0
0
0
0
99
0
0
197
0
0
195
0
0
194
0
0
192
0
0
191
0
0
170
0
25
215
25
0
209
0
0
209
0
0
207
0
0
205
0
0
102
0
0
0
0
0
0
0
0
0
0
0
0
0
0
97
0
0
194
0
0
192
0
0
191
0
0
189
0
0
169
0
25
215
25
0
209
0
0
209
0
0
207
0
0
205
0
0
102
0
0
0
0
0
0
0
0
0
0
0
0
0
0
195
0
0
194
0
0
192
0
0
191
0
0
189
0
0
169
0
25
215
25
0
209
0
0
209
0
0
207
0
0
205
0
0
204
0
0
0
0
0
0
0
0
0
0
0
0
0
0
97
0
0
194
0
0
192
0
0
191
0
0
189
0
0
169
0
25
214
25
0
209
0
0
206
0
0
205
0
0
102
0
0
0
0
0
0
0
0
0
0
0
0
0
0
0
0
0
0
0
0
96
0
0
190
0
0
189
0
0
188
0
0
168
0
25
214
25
0
209
0
0
206
0
0
205
0
0
102
0
0
0
0
0
0
0
0
0
0
0
0
0
0
0
0
0
194
0
0
193
0
0
190
0
0
189
0
0
188
0
0
168
0
25
214
25
0
209
0
0
206
0
0
205
0
0
204
0
0
202
0
0
0
0
0
0
0
0
0
0
0
0
0
0
0
0
0
96
0
0
190
0
0
189
0
0
188
0
0
168
0
25
213
25
0
207
0
0
205
0
0
102
0
0
0
0
0
0
0
0
0
0
0
0
0
0
0
0
0
0
0
0
0
0
0
0
0
0
94
0
0
188
0
0
186
0
0
166
0
25
213
25
0
207
0
0
205
0
0
204
0
0
101
0
0
0
0
0
0
0
0
0
0
0
0
0
0
0
0
0
192
0
0
191
0
0
189
0
0
188
0
0
186
0
0
166
0
25
213
25
0
207
0
0
205
0
0
204
0
0
202
0
0
200
0
0
0
0
0
0
0
0
0
0
0
0
0
0
0
0
0
95
0
0
189
0
0
188
0
0
186
0
0
166
0
25
211
25
0
205
0
0
102
0
0
0
0
0
0
0
0
0
0
0
0
0
0
0
0
0
0
0
0
0
0
0
0
0
0
0
0
0
0
0
0
93
0
0
184
0
0
164
0
25
211
25
0
205
0
0
204
0
0
202
0
0
200
0
0
99
0
0
0
0
0
0
0
0
0
0
0
0
0
0
191
0
0
189
0
0
187
0
0
186
0
0
184
0
0
164
0
25
211
25
0
205
0
0
204
0
0
202
0
0
200
0
0
198
0
0
0
0
0
0
0
0
0
0
0
0
0
0
95
0
0
189
0
0
187
0
0
186
0
0
184
0
0
164
0
25
210
25
0
204
0
0
202
0
0
200
0
0
199
0
0
197
0
0
196
0
0
193
0
0
193
0
0
191
0
0
189
0
0
188
0
0
185
0
0
184
0
0
182
0
0
163
0
25
210
25
0
204
0
0
202
0
0
200
0
0
199
0
0
197
0
0
98
0
0
0
0
0
0
0
0
0
0
0
189
0
0
188
0
0
185
0
0
184
0
0
182
0
0
163
0
25
210
25
0
204
0
0
202
0
0
200
0
0
199
0
0
197
0
0
0
0
0
0
0
0
0
0
0
95
0
0
189
0
0
188
0
0
185
0
0
184
0
0
182
0
0
163
0
25
208
25
0
202
0
0
201
0
0
199
0
0
197
0
0
195
0
0
194
0
0
192
0
0
190
0
0
189
0
0
187
0
0
186
0
0
184
0
0
183
0
0
181
0
0
162
0
25
208
25
0
202
0
0
201
0
0
199
0
0
197
0
0
195
0
0
194
0
0
96
0
0
0
0
0
0
0
0
187
0
0
186
0
0
184
0
0
183
0
0
181
0
0
162
0
25
208
25
0
202
0
0
201
0
0
199
0
0
197
0
0
195
0
0
0
0
0
0
0
0
95
0
0
189
0
0
187
0
0
186
0
0
184
0
0
183
0
0
181
0
0
162
0
25
206
25
0
200
0
0
199
0
0
197
0
0
196
0
0
193
0
0
192
0
0
191
0
0
189
0
0
187
0
0
186
0
0
184
0
0
183
0
0
181
0
0
180
0
0
161
0
25
206
25
0
200
0
0
199
0
0
197
0
0
196
0
0
193
0
0
192
0
0
191
0
0
94
0
0
0
0
0
186
0
0
184
0
0
183
0
0
181
0
0
180
0
0
161
0
25
206
25
0
200
0
0
199
0
0
197
0
0
196
0
0
193
0
0
0
0
0
95
0
0
189
0
0
187
0
0
186
0
0
184
0
0
183
0
0
181
0
0
180
0
0
161
0
25
206
25
0
198
0
0
197
0
0
195
0
0
193
0
0
192
0
0
191
0
0
189
0
0
188
0
0
185
0
0
184
0
0
183
0
0
181
0
0
179
0
0
177
0
0
160
0
25
206
25
0
198
0
0
197
0
0
195
0
0
193
0
0
192
0
0
191
0
0
189
0
0
188
0
0
92
0
0
184
0
0
183
0
0
181
0
0
179
0
0
177
0
0
160
0
25
206
25
0
198
0
0
197
0
0
195
0
0
193
0
0
192
0
0
95
0
0
189
0
0
188
0
0
185
0
0
184
0
0
183
0
0
181
0
0
179
0
0
177
0
0
160
0
25
204
25
0
197
0
0
195
0
0
194
0
0
193
0
0
190
0
0
189
0
0
187
0
0
186
0
0
184
0
0
182
0
0
181
0
0
179
0
0
178
0
0
176
0
0
158
0
25
204
25
0
197
0
0
195
0
0
194
0
0
193
0
0
190
0
0
189
0
0
187
0
0
186
0
0
184
0
0
182
0
0
181
0
0
179
0
0
178
0
0
176
0
0
158
0
25
204
25
0
197
0
0
195
0
0
194
0
0
193
0
0
190
0
0
189
0
0
187
0
0
186
0
0
184
0
0
182
0
0
181
0
0
179
0
0
178
0
0
176
0
0
158
0
0
178
0
0
176
0
0
175
0
0
173
0
0
172
0
0
170
0
0
169
0
0
168
0
0
166
0
0
165
0
0
163
0
0
162
0
0
160
0
0
159
0
0
157
0
0
156
0
0
178
0
0
176
0
0
175
0
0
173
0
0
172
0
0
170
0
0
169
0
0
168
0
0
166
0
0
165
0
0
163
0
0
162
0
0
160
0
0
159
0
0
157
0
0
156
0
0
178
0
0
176
0
0
175
0
0
173
0
0
172
0
0
170
0
0
169
0
0
168
0
0
166
0
0
165
0
0
163
0
0
162
0
0
160
0
0
159
0
0
157
0
0
156
0
