/* XPM */
static char * xye_xpm[] = {
"32 32 511 2",
"  	c None",
". 	c #000000",
"+ 	c #000900",
"@ 	c #000600",
"# 	c #010501",
"$ 	c #081408",
"% 	c #162916",
"& 	c #071307",
"* 	c #000500",
"= 	c #000100",
"- 	c #000800",
"; 	c #0A1A0A",
"> 	c #4E6E4E",
", 	c #B6CBB6",
"' 	c #E5F9E5",
") 	c #E4F9E4",
"! 	c #E3F9E3",
"~ 	c #E3F9E2",
"{ 	c #B5CCB4",
"] 	c #5B755A",
"^ 	c #0D1C0D",
"/ 	c #071207",
"( 	c #81A180",
"_ 	c #DBF8DA",
": 	c #DAF8DA",
"< 	c #DAF9DA",
"[ 	c #DAF9D9",
"} 	c #D8F9D8",
"| 	c #D7F9D7",
"1 	c #D6F9D6",
"2 	c #83A483",
"3 	c #0C160C",
"4 	c #355735",
"5 	c #CAF2CA",
"6 	c #CEF7CE",
"7 	c #CDF8CC",
"8 	c #CCF8CC",
"9 	c #CCF9CC",
"0 	c #CCF9CB",
"a 	c #CBF9CB",
"b 	c #CAF9CA",
"c 	c #C7F4C7",
"d 	c #426041",
"e 	c #588858",
"f 	c #C5F6C4",
"g 	c #C4F7C4",
"h 	c #C4F7C3",
"i 	c #C2F7C1",
"j 	c #C1F7C1",
"k 	c #C1F8C0",
"l 	c #C0F8C0",
"m 	c #BFF8BF",
"n 	c #BFF8BE",
"o 	c #BEF9BE",
"p 	c #BEF8BE",
"q 	c #BDF8BD",
"r 	c #BEF8BC",
"s 	c #BEF8BD",
"t 	c #BFF7BE",
"u 	c #679266",
"v 	c #538753",
"w 	c #BAF5BA",
"x 	c #BAF5B9",
"y 	c #B9F7B7",
"z 	c #B7F7B7",
"A 	c #B6F7B6",
"B 	c #B6F8B6",
"C 	c #B6F8B5",
"D 	c #B5F9B5",
"E 	c #B4F9B4",
"F 	c #B4F9B3",
"G 	c #B3F9B3",
"H 	c #B1F9B1",
"I 	c #B3F9B0",
"J 	c #B3F8B1",
"K 	c #B3F8B3",
"L 	c #B4F8B3",
"M 	c #B4F7B4",
"N 	c #5B8E5B",
"O 	c #275226",
"P 	c #B0F4AF",
"Q 	c #AFF5AF",
"R 	c #ACF5AC",
"S 	c #ABF5AA",
"T 	c #ABF6AA",
"U 	c #AAF7AA",
"V 	c #AAF8A9",
"W 	c #A9F8A8",
"X 	c #A7F9A7",
"Y 	c #A7F9A6",
"Z 	c #A6F9A6",
"` 	c #A5F9A5",
" .	c #A6F8A5",
"..	c #A6F7A5",
"+.	c #A7F8A7",
"@.	c #A9F7A8",
"#.	c #A9F6A8",
"$.	c #2F592E",
"%.	c #031003",
"&.	c #9BEB9B",
"*.	c #A6F3A5",
"=.	c #A4F4A2",
"-.	c #A2F5A2",
";.	c #A2F6A1",
">.	c #A0F69F",
",.	c #A0F79F",
"'.	c #9FF89E",
").	c #9EF99E",
"!.	c #9DFA9D",
"~.	c #9DFA9C",
"{.	c #9CFA9B",
"].	c #9BF99B",
"^.	c #9CF99B",
"/.	c #9CF89C",
"(.	c #9CF89B",
"_.	c #9BF79A",
":.	c #9CF69C",
"<.	c #9FF69F",
"[.	c #9EF09D",
"}.	c #051205",
"|.	c #010901",
"1.	c #499149",
"2.	c #9EF39E",
"3.	c #9BF39A",
"4.	c #98F397",
"5.	c #97F497",
"6.	c #97F596",
"7.	c #96F694",
"8.	c #94F793",
"9.	c #94F893",
"0.	c #93F892",
"a.	c #92F992",
"b.	c #92FB92",
"c.	c #92FC92",
"d.	c #91FB91",
"e.	c #91FB90",
"f.	c #91FA90",
"g.	c #91F991",
"h.	c #91F890",
"i.	c #91F790",
"j.	c #91F691",
"k.	c #94F593",
"l.	c #469345",
"m.	c #081A08",
"n.	c #94F092",
"o.	c #93F292",
"p.	c #8EF28E",
"q.	c #8DF38C",
"r.	c #8DF48C",
"s.	c #8CF58C",
"t.	c #8CF68B",
"u.	c #8BF78B",
"v.	c #8BF889",
"w.	c #8AF989",
"x.	c #88FA88",
"y.	c #88FB88",
"z.	c #87FC86",
"A.	c #86FD86",
"B.	c #86FC86",
"C.	c #87FB86",
"D.	c #87FA86",
"E.	c #86FA86",
"F.	c #87F886",
"G.	c #87F786",
"H.	c #87F686",
"I.	c #87F586",
"J.	c #88F487",
"K.	c #8DF48D",
"L.	c #89F188",
"M.	c #051705",
"N.	c #010A01",
"O.	c #376C36",
"P.	c #8EF18D",
"Q.	c #89F187",
"R.	c #84F184",
"S.	c #84F283",
"T.	c #83F382",
"U.	c #82F581",
"V.	c #81F780",
"W.	c #80F880",
"X.	c #80F97F",
"Y.	c #7FFA7F",
"Z.	c #7FFB7E",
"`.	c #7DFC7D",
" +	c #7DFE7D",
".+	c #7CFE7C",
"++	c #7CFD7C",
"@+	c #7DFB7C",
"#+	c #7DFA7C",
"$+	c #7DF87D",
"%+	c #7CF77C",
"&+	c #7DF67C",
"*+	c #7EF47C",
"=+	c #7EF37D",
"-+	c #82F281",
";+	c #86F286",
">+	c #296429",
",+	c #000A00",
"'+	c #010601",
")+	c #68BF67",
"!+	c #86F084",
"~+	c #7DF07B",
"{+	c #7BF07A",
"]+	c #7AF27A",
"^+	c #7AF379",
"/+	c #79F478",
"(+	c #79F577",
"_+	c #77F677",
":+	c #77F876",
"<+	c #76F975",
"[+	c #75FA74",
"}+	c #74FC73",
"|+	c #73FD73",
"1+	c #72FE72",
"2+	c #73FD72",
"3+	c #73FC72",
"4+	c #73FB73",
"5+	c #73F973",
"6+	c #74F872",
"7+	c #73F773",
"8+	c #74F574",
"9+	c #74F474",
"0+	c #75F374",
"a+	c #76F174",
"b+	c #76F075",
"c+	c #7DF07C",
"d+	c #5DBD5C",
"e+	c #7DEC7D",
"f+	c #7CEE7B",
"g+	c #73ED72",
"h+	c #73EF71",
"i+	c #72F071",
"j+	c #70F26F",
"k+	c #6FF46F",
"l+	c #6FF56F",
"m+	c #6EF66E",
"n+	c #6EF86D",
"o+	c #6CF96B",
"p+	c #6CFA6B",
"q+	c #6CFB6B",
"r+	c #6BFC6B",
"s+	c #6BFC6A",
"t+	c #6BFB6A",
"u+	c #6BFA6A",
"v+	c #6AF96A",
"w+	c #6BF76A",
"x+	c #6BF66A",
"y+	c #6BF56B",
"z+	c #6CF36B",
"A+	c #6DF06C",
"B+	c #6DEE6B",
"C+	c #77EE75",
"D+	c #78ED77",
"E+	c #081508",
"F+	c #78EC77",
"G+	c #71EC71",
"H+	c #5AE759",
"I+	c #47E245",
"J+	c #33DF31",
"K+	c #25DE24",
"L+	c #25E223",
"M+	c #25E524",
"N+	c #26E825",
"O+	c #27EA26",
"P+	c #30F030",
"Q+	c #4CF44C",
"R+	c #61F961",
"S+	c #62F962",
"T+	c #61F860",
"U+	c #62F760",
"V+	c #62F661",
"W+	c #63F662",
"X+	c #64F562",
"Y+	c #64F363",
"Z+	c #64F163",
"`+	c #64F063",
" @	c #64EE64",
".@	c #64EC63",
"+@	c #6EED6D",
"@@	c #61E560",
"#@	c #051204",
"$@	c #0C260C",
"%@	c #46D444",
"&@	c #2BCE28",
"*@	c #14CC12",
"=@	c #13CF10",
"-@	c #10D310",
";@	c #10D60E",
">@	c #0FDA0D",
",@	c #0DDD0C",
"'@	c #0CE00B",
")@	c #0BE40A",
"!@	c #0AE609",
"~@	c #09E808",
"{@	c #14EA13",
"]@	c #48F347",
"^@	c #5BF75A",
"/@	c #5BF75B",
"(@	c #5BF65A",
"_@	c #5CF55A",
":@	c #5CF45B",
"<@	c #5CF35B",
"[@	c #5CF15B",
"}@	c #5DEF5B",
"|@	c #5DEE5C",
"1@	c #5DED5C",
"2@	c #5DEB5C",
"3@	c #4EE44D",
"4@	c #3ED73C",
"5@	c #38CE36",
"6@	c #082208",
"7@	c #0A230A",
"8@	c #3DCD39",
"9@	c #28CB26",
"0@	c #15CA13",
"a@	c #14CE12",
"b@	c #12D110",
"c@	c #10D40F",
"d@	c #10D70E",
"e@	c #0DDF0B",
"f@	c #0CE10B",
"g@	c #0AE509",
"h@	c #2AEC29",
"i@	c #50F14E",
"j@	c #54F454",
"k@	c #55F253",
"l@	c #55F153",
"m@	c #55EF54",
"n@	c #55EE54",
"o@	c #56ED54",
"p@	c #55EB55",
"q@	c #43E241",
"r@	c #25D523",
"s@	c #15C913",
"t@	c #2DCB29",
"u@	c #3BCD39",
"v@	c #092209",
"w@	c #061306",
"x@	c #40CD3D",
"y@	c #2ECB2C",
"z@	c #16C714",
"A@	c #15CB13",
"B@	c #13CE10",
"C@	c #0FD90E",
"D@	c #0EDB0D",
"E@	c #0EDC0C",
"F@	c #0DDE0C",
"G@	c #14E013",
"H@	c #2FE62E",
"I@	c #3CE93A",
"J@	c #42EA3F",
"K@	c #37E536",
"L@	c #2CDF2B",
"M@	c #21D821",
"N@	c #16D014",
"O@	c #17C514",
"P@	c #33CB32",
"Q@	c #3FCA3D",
"R@	c #42CC40",
"S@	c #35CB33",
"T@	c #17C515",
"U@	c #16C814",
"V@	c #13D010",
"W@	c #12D210",
"X@	c #10D60F",
"Y@	c #0FD90D",
"Z@	c #17C415",
"`@	c #18C116",
" #	c #3BC938",
".#	c #42C940",
"+#	c #020702",
"@#	c #369D34",
"##	c #43CB41",
"$#	c #1AC318",
"%#	c #14CB12",
"&#	c #10D30F",
"*#	c #16C813",
"=#	c #18C315",
"-#	c #19C016",
";#	c #1FBF1B",
">#	c #44C842",
",#	c #359B34",
"'#	c #020B02",
")#	c #1F581F",
"!#	c #47CA45",
"~#	c #27C324",
"{#	c #14CE10",
"]#	c #1ABE17",
"^#	c #1BBB18",
"/#	c #2EBF2C",
"(#	c #46C645",
"_#	c #1F561E",
":#	c #091A09",
"<#	c #49C847",
"[#	c #3DC63B",
"}#	c #1ABC18",
"|#	c #18C316",
"1#	c #16C614",
"2#	c #17C614",
"3#	c #1ABD17",
"4#	c #1BB919",
"5#	c #1EB61B",
"6#	c #43C441",
"7#	c #49C347",
"8#	c #091909",
"9#	c #030A03",
"0#	c #2F7C2E",
"a#	c #4BC949",
"b#	c #29BD27",
"c#	c #1BBA19",
"d#	c #1BBC18",
"e#	c #19BF17",
"f#	c #19C116",
"g#	c #1BBA18",
"h#	c #1BB819",
"i#	c #1DB61A",
"j#	c #1EB41B",
"k#	c #32B930",
"l#	c #4CC349",
"m#	c #2F782E",
"n#	c #020A02",
"o#	c #000200",
"p#	c #4DC24B",
"q#	c #48C546",
"r#	c #21B81F",
"s#	c #1DB51A",
"t#	c #1EB31B",
"u#	c #1FB11B",
"v#	c #26B122",
"w#	c #4CC048",
"x#	c #4EBD4B",
"y#	c #1E4A1D",
"z#	c #50C44E",
"A#	c #45C143",
"B#	c #21B31E",
"C#	c #1DB41A",
"D#	c #1EB21B",
"E#	c #20AF1B",
"F#	c #20AD1D",
"G#	c #24AE21",
"H#	c #4BBD48",
"I#	c #53BF4F",
"J#	c #1E481D",
"K#	c #020802",
"L#	c #2F6E2D",
"M#	c #53C450",
"N#	c #48BD44",
"O#	c #25AF22",
"P#	c #1FB01B",
"Q#	c #1FAF1B",
"R#	c #20AE1D",
"S#	c #21AB1D",
"T#	c #21AB1E",
"U#	c #22A91E",
"V#	c #2AAC26",
"W#	c #4CBB4A",
"X#	c #56BE53",
"Y#	c #306C2E",
"Z#	c #020602",
"`#	c #306E2F",
" $	c #56C253",
".$	c #4FC04D",
"+$	c #31B12D",
"@$	c #22AA1E",
"#$	c #21AA1E",
"$$	c #22A81F",
"%$	c #23A71F",
"&$	c #23A520",
"*$	c #38AE33",
"=$	c #55BC51",
"-$	c #57BD54",
";$	c #306C2F",
">$	c #214B20",
",$	c #56BC54",
"'$	c #57C055",
")$	c #4BB948",
"!$	c #36AE32",
"~$	c #25A622",
"{$	c #24A520",
"]$	c #24A420",
"^$	c #24A321",
"/$	c #2AA425",
"($	c #38AB35",
"_$	c #50B94C",
":$	c #59BC55",
"<$	c #57B854",
"[$	c #214920",
"}$	c #387A37",
"|$	c #5BBF57",
"1$	c #5BBE57",
"2$	c #4DB74A",
"3$	c #47B344",
"4$	c #43B040",
"5$	c #44B040",
"6$	c #48B345",
"7$	c #50B64D",
"8$	c #5BBC57",
"9$	c #5ABC57",
"0$	c #5BBB59",
"a$	c #387837",
"b$	c #030B03",
"c$	c #0B1C0B",
"d$	c #295828",
"e$	c #489747",
"f$	c #5DBC5B",
"g$	c #5DBB5B",
"h$	c #5DBA5B",
"i$	c #499548",
"j$	c #091509",
"k$	c #122712",
"l$	c #091508",
"                        . . . . . . . .                         ",
"                  . . + @ # $ % % & * * + . .                   ",
"              . = - ; > , ' ' ) ! ! ~ { ] ^ - = .               ",
"            . - / ( _ : < < [ [ } } } | | 1 2 3 - .             ",
"          . @ 4 5 6 6 7 8 9 9 0 a a a a b b b c d @ .           ",
"        . * e f g h i j k l l m n o o p q r s p t u # .         ",
"      . @ v w x y z A B C D D E E F G G H I J K L M N @ .       ",
"    . - O P Q R S T U U V W X X X X Y Z `  . ...+.@.#.$.- .     ",
"    = %.&.*.=.-.;.>.,.'.).).!.!.!.!.~.{.].^./.(._.:.<.[.}.=     ",
"  . |.1.2.3.4.5.6.7.8.9.0.a.b.b.c.c.d.e.e.f.g.h.i.j.k.5.l.- .   ",
"  . m.n.o.p.q.r.s.t.u.v.w.x.y.z.z.A.B.C.D.E.F.G.H.I.J.K.L.M..   ",
"  N.O.P.Q.R.S.T.U.V.W.X.Y.Z.`. +.+.+++`.@+#+$+%+&+*+=+-+;+>+,+  ",
". '+)+!+~+{+]+^+/+(+_+:+<+[+}+|+1+2+3+4+5+6+7+8+9+0+a+b+c+d+'+. ",
". '+e+f+g+h+i+j+k+l+m+n+o+p+q+r+s+s+t+u+v+w+x+y+z+A+A+B+C+D+# . ",
". E+F+G+H+I+J+K+L+M+N+O+P+Q+R+S+S+T+T+U+V+W+X+Y+Z+`+ @.@+@@@#@. ",
". $@%@&@*@=@-@;@>@,@'@)@!@~@{@]@^@/@(@_@:@<@[@}@|@1@2@3@4@5@6@. ",
". 7@8@9@0@a@b@c@d@>@,@e@f@)@)@g@h@i@j@k@l@m@n@o@p@q@r@s@t@u@v@. ",
". w@x@y@z@A@B@b@c@;@C@D@E@F@e@e@e@G@H@I@J@K@L@M@N@*@s@O@P@Q@}.. ",
". '+R@S@T@U@0@a@V@W@c@X@d@C@Y@Y@Y@C@d@X@c@W@V@a@0@z@Z@`@ #.## . ",
". +#@###$#Z@z@s@%#a@=@b@W@-@-@&#-@W@b@V@B@a@0@*#O@=#-#;#>#,#'+. ",
"  '#)#!#~#-#=#T@z@s@0@*@a@a@{#{#a@a@*@0@s@z@O@=#-#]#^#/#(#_#N.  ",
"  . :#<#[#}#]#-#|#Z@O@1#z@U@U@U@z@z@2#T@=#`@-#3#^#4#5#6#7#8#.   ",
"  . 9#0#a#b#c#d#3#e#-#f#`@|#|#|#`@`@-#e#3#}#g#h#i#j#k#l#m#n#.   ",
"    o#& p#q#r#i#h#4#g#^#d#}#}#}#d#^#g#4#h#i#s#t#u#v#w#x#& o#    ",
"    . 9#y#z#A#B#t#j#s#i#i#i#i#i#i#s#C#t#D#u#E#F#G#H#I#J#|..     ",
"      . K#L#M#N#O#E#P#P#u#u#u#u#P#Q#E#R#S#T#U#V#W#X#Y#K#.       ",
"        . Z#`# $.$+$@$T#T#T#T#T##$@$U#$$%$&$*$=$-$;$'+.         ",
"          . K#>$,$'$)$!$~$&$&${$]$]$^$/$($_$:$<$[$K#.           ",
"            . 9#$ }$|$|$1$2$3$4$5$6$7$8$9$0$a$$ n#.             ",
"              . o#b$c$d$e$f$f$g$g$g$h$i$d$c$9#o#.               ",
"                  . . b$K#Z#j$k$k$l$Z#K#'#. .                   ",
"                        . . . . . . . .                         "};
