/* XPM */
static char * devil_xpm[] = {
"26 26 13 1",
" 	c #FCFCFC",
".	c #000000",
"+	c #886408",
"@	c #FCF458",
"#	c #5C0000",
"$	c #A0000C",
"%	c #CC2828",
"&	c #BCA414",
"*	c #CCA874",
"=	c #D4C4B4",
"-	c #5C3000",
";	c #98A4CC",
">	c #2CB494",
"                          ",
" ................+@...... ",
" ..........#$%%%+&@...... ",
" ........#%**==#+@&...... ",
" .......#%%=**#+&@+...... ",
" ......###$%%*.+&&#%..... ",
" .....##$%%$$%#.-+*=%.... ",
" .....##$%==%%#-.#$$;>... ",
" ....##$%=*=*%$#%$#;..... ",
" ....#$$%*%*%$$%%$#;..%.. ",
" ...##$%**$#$%%%%$##;>**$ ",
" ...#.#$%%##$%$$*$$#$%%*= ",
" ....&&.$##$%%$.$*%$*$$%% ",
" ...@+@&.##%%%$*.$%$$..$$ ",
" #..@&+.-#$%%%$$*..$$$$.. ",
" ...+@&+#$%%%%%$$**...... ",
" .%###..$$%%%%*%$#$*%$... ",
" ..$$$###$$$%%%%%$###.... ",
" ....####$$$$$$%$$$##.... ",
" .....#.###$$$$$$###..... ",
" ........#########....... ",
" ......#$#..##$%......... ",
" ...##$$$$##..%*$........ ",
" ...###$$###.#%%****%.... ",
" ......####.####%%%=*%%.. ",
"                          "};
