/* XPM */
static char * microman_xpm[] = {
"26 26 8 1",
" 	c #FCFCFC",
".	c #000000",
"+	c #E8C498",
"@	c #FCF8F0",
"#	c #FC0000",
"$	c #7C0000",
"%	c #907030",
"&	c #0000FC",
"                          ",
" ........................ ",
" ........................ ",
" ........................ ",
" ........................ ",
" ........................ ",
" ........................ ",
" ........................ ",
" ........................ ",
" ........................ ",
" ........................ ",
" ........................ ",
" ..........++++.......... ",
" ........++++++++........ ",
" .......+@@@++@@@+....... ",
" .......+@..++..@+....... ",
" ......#+@@@++@@@+#...... ",
" ......##++++++++##...... ",
" ......##+$$$$$$+##...... ",
" ......##++++++++##...... ",
" ......###%%..%%###...... ",
" ......###%%..%%###...... ",
" ......##@@%..%@@##...... ",
" ......@@@&&..&&@@@...... ",
" ........&&&..&&&........ ",
"                          "};
