/* XPM */
static char *scav[]={
"32 32 5 1",
"# c None",
"a c #000000",
"b c #f01414",
"c c #fcf8f0",
". c #fcfcfc",
"..........................######",
".aaaaaaaaaaaaaaaaaaaaaaaa.######",
".aaaaaaaaaaaaaaaaaaaaaaaa.######",
".aaaaaaaaabbaaaaaaaaaaaaa.######",
".aaaaaaaacccbaaaaaaaaaaaa.######",
".aaaaaaaaaccbaaaaaaaaaaaa.######",
".aaaaaaaaacccaaaaaaaaaaaa.######",
".aaaaaaaaabccbaaaaaaaaaaa.######",
".aaaaaaaaabcccbaaaaaaaaaa.######",
".aaaaaaaaabcccbaaaaaaaaaa.######",
".aaaaaacccccccbaaaaaaaaaa.######",
".aaaaaacccccccbaaaaaaaaaa.######",
".aaaaaaaaaabbbbaaaaaaaaaa.######",
".aaaaaaaaaabbbbbaaaaaaaaa.######",
".aaaaaaaaabbbbbaaaaaaaaaa.######",
".aaaaaaaaabbbbaaaaaaaaaaa.######",
".aaaaaaaaabbbbbbbaaaaaaaa.######",
".aaaaaaaabbbbbaabbaaaaaaa.######",
".aaaaaaaabbbbbaaabaaaaaaa.######",
".aaaaaaaaaaabbbaaaaaaaaaa.######",
".aaaaaaaaaaaabbbaaaaaaaaa.######",
".aaaaaaaaaaaaabbaaaaaaaaa.######",
".aaaaaaaaaaaaaabbaaaaaaaa.######",
".aaaaaaaaaaaaabbbaaaaaaaa.######",
".aaaaaaaaaaaabbbbaaaaaaaa.######",
"..........................######",
"################################",
"################################",
"################################",
"################################",
"################################",
"################################"};
