/* XPM */
static char *shamrock[]={
"26 26 11 1",
"# c #000000",
"d c #00381c",
"c c #00fc00",
"a c #303030",
"b c #347004",
"g c #7c0000",
"h c #800000",
"i c #90b828",
"f c #e8c498",
"e c #fcf8f0",
". c #fcfcfc",
"..........................",
".######aba###############.",
".######bbb###############.",
".######bbb###############.",
".#######b################.",
".#######b################.",
".#######b################.",
".#######b################.",
".#######bccccc###########.",
".#######bbccccc##########.",
".#######cbbccccc#########.",
".######dddddddddd########.",
".#####cccccccccccc#######.",
".#######eeefffff#########.",
".#####ee##eefffff########.",
".######eeeeffffff########.",
".#######fffffffff########.",
".#######fgffffff#########.",
".#######hffbbbff#########.",
".#####ee#bbbbbbbb########.",
".######eebbbbbbbbee######.",
".######eebiiibbbbee######.",
".######ee#iiii#bbee######.",
".#########iiii##ee#######.",
".########ccccc###########.",
".........................."};
