# Made in Blockbench 3.6.6
mtllib mcl_beds_bed_bottom.mtl
o cube
v 0.5 0.0625 0.5
v 0.5 0.0625 -0.5
v 0.5 -0.3125 0.5
v 0.5 -0.3125 -0.5
v -0.5 0.0625 -0.5
v -0.5 0.0625 0.5
v -0.5 -0.3125 -0.5
v -0.5 -0.3125 0.5
vt 0.09375 0.5625
vt 0 0.5625
vt 0.09375 0.3125
vt 0 0.5625
vt 0 0.3125
vt 0.09375 0.3125
vt 0.34375 0.3125
vt 0.4375 0.3125
vt 0.34375 0.5625
vt 0.4375 0.3125
vt 0.4375 0.5625
vt 0.34375 0.5625
vt 0.34375 0.3125
vt 0.34375 0.5625
vt 0.09375 0.3125
vt 0.34375 0.5625
vt 0.09375 0.5625
vt 0.09375 0.3125
vt 0.43750000000000006 0.5625
vt 0.43750000000000006 0.3125
vt 0.6875 0.5625
vt 0.43750000000000006 0.3125
vt 0.6875 0.3125
vt 0.6875 0.5625
vt 0 0.015625
vt 0 0
vt 0.125 0.015625
vt 0 0
vt 0.125 0
vt 0.125 0.015625
vt 0.59375 0.5625
vt 0.59375 0.65625
vt 0.34374999999999994 0.5625
vt 0.59375 0.65625
vt 0.34374999999999994 0.65625
vt 0.34374999999999994 0.5625
vn 1 0 0
vn 1 0 0
vn 1 0 0
vn 1 0 0
vn 1 0 0
vn 1 0 0
vn -1 0 0
vn -1 0 0
vn -1 0 0
vn -1 0 0
vn -1 0 0
vn -1 0 0
vn 0 1 0
vn 0 1 0
vn 0 1 0
vn 0 1 0
vn 0 1 0
vn 0 1 0
vn 0 -1 0
vn 0 -1 0
vn 0 -1 0
vn 0 -1 0
vn 0 -1 0
vn 0 -1 0
vn 0 0 1
vn 0 0 1
vn 0 0 1
vn 0 0 1
vn 0 0 1
vn 0 0 1
vn 0 0 -1
vn 0 0 -1
vn 0 0 -1
vn 0 0 -1
vn 0 0 -1
vn 0 0 -1
usemtl m_0
f 1/1/1 3/2/2 2/3/3
f 3/4/4 4/5/5 2/6/6
usemtl m_0
f 5/7/7 7/8/8 6/9/9
f 7/10/10 8/11/11 6/12/12
usemtl m_0
f 5/13/13 6/14/14 2/15/15
f 6/16/16 1/17/17 2/18/18
usemtl m_0
f 8/19/19 7/20/20 3/21/21
f 7/22/22 4/23/23 3/24/24
usemtl m_0
f 2/31/31 4/32/32 5/33/33
f 4/34/34 7/35/35 5/36/36
o cube
v -0.3125 -0.3125 -0.3125
v -0.3125 -0.3125 -0.5
v -0.3125 -0.5 -0.3125
v -0.3125 -0.5 -0.5
v -0.5 -0.3125 -0.5
v -0.5 -0.3125 -0.3125
v -0.5 -0.5 -0.5
v -0.5 -0.5 -0.3125
vt 0.921875 0.671875
vt 0.921875 0.625
vt 0.96875 0.671875
vt 0.921875 0.625
vt 0.96875 0.625
vt 0.96875 0.671875
vt 0.828125 0.765625
vt 0.828125 0.71875
vt 0.875 0.765625
vt 0.828125 0.71875
vt 0.875 0.71875
vt 0.875 0.765625
vt 0.046875 0.953125
vt 0.046875 1
vt 0 0.953125
vt 0.046875 1
vt 0 1
vt 0 0.953125
vt 0.921875 0.765625
vt 0.921875 0.8125
vt 0.875 0.765625
vt 0.921875 0.8125
vt 0.875 0.8125
vt 0.875 0.765625
vt 0.875 0.765625
vt 0.875 0.71875
vt 0.921875 0.765625
vt 0.875 0.71875
vt 0.921875 0.71875
vt 0.921875 0.765625
vt 0.78125 0.765625
vt 0.78125 0.71875
vt 0.828125 0.765625
vt 0.78125 0.71875
vt 0.828125 0.71875
vt 0.828125 0.765625
vn 1 0 0
vn 1 0 0
vn 1 0 0
vn 1 0 0
vn 1 0 0
vn 1 0 0
vn -1 0 0
vn -1 0 0
vn -1 0 0
vn -1 0 0
vn -1 0 0
vn -1 0 0
vn 0 1 0
vn 0 1 0
vn 0 1 0
vn 0 1 0
vn 0 1 0
vn 0 1 0
vn 0 -1 0
vn 0 -1 0
vn 0 -1 0
vn 0 -1 0
vn 0 -1 0
vn 0 -1 0
vn 0 0 1
vn 0 0 1
vn 0 0 1
vn 0 0 1
vn 0 0 1
vn 0 0 1
vn 0 0 -1
vn 0 0 -1
vn 0 0 -1
vn 0 0 -1
vn 0 0 -1
vn 0 0 -1
usemtl m_0
f 9/37/37 11/38/38 10/39/39
f 11/40/40 12/41/41 10/42/42
usemtl m_0
f 13/43/43 15/44/44 14/45/45
f 15/46/46 16/47/47 14/48/48
usemtl m_0
f 16/55/55 15/56/56 11/57/57
f 15/58/58 12/59/59 11/60/60
usemtl m_0
f 14/61/61 16/62/62 9/63/63
f 16/64/64 11/65/65 9/66/66
usemtl m_0
f 10/67/67 12/68/68 13/69/69
f 12/70/70 15/71/71 13/72/72
o cube
v 0.5 -0.3125 -0.3125
v 0.5 -0.3125 -0.5
v 0.5 -0.5 -0.3125
v 0.5 -0.5 -0.5
v 0.3125 -0.3125 -0.5
v 0.3125 -0.3125 -0.3125
v 0.3125 -0.5 -0.5
v 0.3125 -0.5 -0.3125
vt 0.78125 0.953125
vt 0.78125 0.90625
vt 0.828125 0.953125
vt 0.78125 0.90625
vt 0.828125 0.90625
vt 0.828125 0.953125
vt 0.875 0.953125
vt 0.875 0.90625
vt 0.921875 0.953125
vt 0.875 0.90625
vt 0.921875 0.90625
vt 0.921875 0.953125
vt 0.046875 0.953125
vt 0.046875 1
vt 0 0.953125
vt 0.046875 1
vt 0 1
vt 0 0.953125
vt 0.921875 0.953125
vt 0.921875 1
vt 0.875 0.953125
vt 0.921875 1
vt 0.875 1
vt 0.875 0.953125
vt 0.921875 0.953125
vt 0.921875 0.90625
vt 0.96875 0.953125
vt 0.921875 0.90625
vt 0.96875 0.90625
vt 0.96875 0.953125
vt 0.828125 0.953125
vt 0.828125 0.90625
vt 0.875 0.953125
vt 0.828125 0.90625
vt 0.875 0.90625
vt 0.875 0.953125
vn 1 0 0
vn 1 0 0
vn 1 0 0
vn 1 0 0
vn 1 0 0
vn 1 0 0
vn -1 0 0
vn -1 0 0
vn -1 0 0
vn -1 0 0
vn -1 0 0
vn -1 0 0
vn 0 1 0
vn 0 1 0
vn 0 1 0
vn 0 1 0
vn 0 1 0
vn 0 1 0
vn 0 -1 0
vn 0 -1 0
vn 0 -1 0
vn 0 -1 0
vn 0 -1 0
vn 0 -1 0
vn 0 0 1
vn 0 0 1
vn 0 0 1
vn 0 0 1
vn 0 0 1
vn 0 0 1
vn 0 0 -1
vn 0 0 -1
vn 0 0 -1
vn 0 0 -1
vn 0 0 -1
vn 0 0 -1
usemtl m_0
f 17/73/73 19/74/74 18/75/75
f 19/76/76 20/77/77 18/78/78
usemtl m_0
f 21/79/79 23/80/80 22/81/81
f 23/82/82 24/83/83 22/84/84
usemtl m_0
f 24/91/91 23/92/92 19/93/93
f 23/94/94 20/95/95 19/96/96
usemtl m_0
f 22/97/97 24/98/98 17/99/99
f 24/100/100 19/101/101 17/102/102
usemtl m_0
f 18/103/103 20/104/104 21/105/105
f 20/106/106 23/107/107 21/108/108
