# Blender 3.6.23
# www.blender.org
mtllib mcl_mangrove_hanging_propagule_2.mtl
o Mangrove_Propagule_Hanging_0
v -0.044194 0.500000 0.044194
v -0.044194 0.375000 0.044194
v 0.044194 0.500000 -0.044194
v 0.044194 0.375000 -0.044194
v -0.044194 0.500000 0.044194
v -0.044194 0.375000 0.044194
v 0.044194 0.500000 -0.044194
v 0.044194 0.375000 -0.044194
v -0.044194 0.500000 -0.044194
v -0.044194 0.375000 -0.044194
v 0.044194 0.500000 0.044194
v 0.044194 0.375000 0.044194
v -0.044194 0.500000 -0.044194
v -0.044194 0.375000 -0.044194
v 0.044194 0.500000 0.044194
v 0.044194 0.375000 0.044194
v -0.062500 0.375000 0.062500
v -0.062500 0.312500 -0.062500
v -0.062500 0.375000 -0.062500
v 0.062500 0.375000 0.062500
v 0.062500 0.375000 -0.062500
v 0.187500 0.264700 0.062500
v 0.187500 0.264700 -0.062500
v 0.062500 0.313000 0.062500
v 0.187500 0.265200 0.062500
v 0.062500 0.313000 -0.062500
v 0.187500 0.265200 -0.062500
v -0.187500 0.264700 -0.062500
v -0.187500 0.264700 0.062500
v -0.187500 0.265200 -0.062500
v -0.062500 0.313000 0.062500
v -0.187500 0.265200 0.062500
v 0.062500 0.264700 -0.187500
v -0.062500 0.264700 -0.187500
v 0.062500 0.265200 -0.187500
v -0.062500 0.313000 -0.062500
v -0.062500 0.265200 -0.187500
v -0.062500 0.312500 0.062500
v -0.062500 0.264700 0.187500
v 0.062500 0.264700 0.187500
v -0.062500 0.265200 0.187500
v 0.062500 0.265200 0.187500
v -0.062500 0.125000 0.062500
v -0.062500 0.125000 -0.062500
v 0.062500 0.125000 0.062500
v 0.062500 0.312500 0.062500
v 0.062500 0.125000 -0.062500
v 0.062500 0.312500 -0.062500
vn 0.7071 -0.0000 0.7071
vn -0.7071 -0.0000 -0.7071
vn -0.7071 -0.0000 0.7071
vn 0.7071 -0.0000 -0.7071
vn -1.0000 -0.0000 -0.0000
vn -0.0000 -0.0000 -1.0000
vn 1.0000 -0.0000 -0.0000
vn -0.0000 -0.0000 1.0000
vn -0.0000 1.0000 -0.0000
vn 0.3572 0.9340 -0.0000
vn -0.3572 -0.9340 -0.0000
vn 0.3572 -0.9340 -0.0000
vn -0.3572 0.9340 -0.0000
vn -0.0000 0.9340 -0.3572
vn -0.0000 -0.9340 0.3572
vn -0.0000 -0.9340 -0.3572
vn -0.0000 0.9340 0.3572
vn -0.0000 -1.0000 -0.0000
vt 0.000000 0.000000
vt 1.000000 0.000000
vt 1.000000 1.000000
vt 0.000000 1.000000
vt 0.125000 1.000000
vt 0.125000 0.875000
vt 0.000000 0.875000
vt 0.125000 0.812500
vt 0.000000 0.812500
vt 0.500000 0.812500
vt 0.625000 0.812500
vt 0.625000 0.687500
vt 0.500000 0.687500
vt 0.375000 0.687500
vt 0.375000 0.812500
vt 0.375000 0.812500
vt 0.375000 0.687500
vt 0.500000 0.687500
vt 0.500000 0.812500
vt 0.375000 0.812500
vt 0.625000 0.687500
vt 0.500000 0.812500
vt 0.500000 0.812500
vt 0.125000 0.375000
vt 0.125000 0.562500
vt 0.000000 0.562500
vt -0.000000 0.375000
vt 0.000000 0.562500
vt 0.000000 0.375000
vt 0.125000 0.375000
vt 0.125000 0.562500
vt 0.000000 0.562500
vt -0.000000 0.375000
vt 0.125000 0.687500
vt -0.000000 0.687500
s 0
g Mangrove_Propagule_Hanging_0_Mangrove_Propagule_Hanging
usemtl Mangrove_Propagule_Hanging
f 1/1/1 2/2/1 4/3/1 3/4/1
f 5/4/2 7/5/2 8/6/2 6/7/2
f 9/1/3 10/2/3 12/3/3 11/4/3
f 13/4/4 15/5/4 16/6/4 14/7/4
f 38/8/5 17/6/5 19/7/5 18/9/5
f 18/8/6 19/6/6 21/7/6 48/9/6
f 48/8/7 21/6/7 20/7/7 46/9/7
f 46/8/8 20/6/8 17/7/8 38/9/8
f 21/5/9 19/4/9 17/7/9 20/6/9
f 46/10/10 22/11/10 23/12/10 48/13/10
f 24/10/11 26/13/11 27/14/11 25/15/11
f 18/10/12 38/13/12 29/12/12 28/11/12
f 36/10/13 30/16/13 32/14/13 31/13/13
f 48/12/14 33/11/14 34/10/14 18/13/14
f 26/17/15 36/18/15 37/19/15 35/20/15
f 38/21/16 46/13/16 40/22/16 39/11/16
f 31/14/17 41/15/17 42/23/17 24/13/17
f 43/24/5 38/25/5 18/26/5 44/27/5
f 44/24/6 18/25/6 48/28/6 47/29/6
f 47/24/7 48/25/7 46/28/7 45/29/7
f 45/30/8 46/31/8 38/32/8 43/33/8
f 44/26/18 47/25/18 45/34/18 43/35/18
