/* XPM */
static const char * bat_flying_2_xpm[] = {
"30 30 2 1",
" 	c None",
".	c #000000",
"                              ",
"                              ",
"                              ",
"..                          ..",
" ..                        .. ",
"  ..                      ..  ",
"   ..                    ..   ",
"    ..                  ..    ",
"     ..                ..     ",
"      ..              ..      ",
"       ..            ..       ",
"        ..          ..        ",
"         ..        ..         ",
"          ..........          ",
"           ........           ",
"           ........           ",
"            ......            ",
"                              ",
"                              ",
"                              ",
"                              ",
"                              ",
"                              ",
"                              ",
"                              ",
"                              ",
"                              ",
"                              ",
"                              ",
"                              "};
