/* XPM */
static const char * big_robot_bullet_1_xpm[] = {
"23 23 2 1",
" 	c None",
".	c #FFFF00",
"           .           ",
"          ...          ",
"         .....         ",
"         .....         ",
"         .....         ",
"         .....         ",
"      ...........      ",
"      ...........      ",
"      ...........      ",
"  ...................  ",
" ..................... ",
".......................",
" ..................... ",
"  ...................  ",
"      ...........      ",
"      ...........      ",
"      ...........      ",
"         .....         ",
"         .....         ",
"         .....         ",
"         .....         ",
"          ...          ",
"           .           "};
