/* XPM */
static const char * blue_robot_1_xpm[] = {
"32 32 3 1",
" 	c None",
".	c #B4BEFF",
"+	c #FF0000",
"     .                    .     ",
"     .         ..         .     ",
"     .       ......       .     ",
"     ...   ..........   ...     ",
"       ..................       ",
"        ................        ",
"       ..................       ",
"      ...        ++++  ...      ",
"      ...        ++++  ...      ",
"       ..................       ",
"        ................        ",
"         ..............         ",
"           ..........           ",
"          ............          ",
"        ................ ...... ",
"        ................ ...... ",
"    ........        .... ...    ",
"    ........        ........    ",
"    ........        ........    ",
"    ... ....        ........    ",
" ...... ....        ....        ",
" ...... ....        ....        ",
"        ................        ",
"        ................        ",
"        ................        ",
"        ................        ",
"         ....      ....         ",
"        ....        ....        ",
"       ....          ....       ",
"    ......            ......    ",
"   ......              ......   ",
"  ......                ......  "};
