/* XPM */
static const char * blue_robot_0_xpm[] = {
"32 32 3 1",
" 	c None",
".	c #B4BEFF",
"+	c #FF0000",
" ..                          .. ",
"  ...          ..          ...  ",
"    ...      ......      ...    ",
"      ...  ..........  ...      ",
"        ................        ",
"        ................        ",
"       ..................       ",
"      ...  ++++        ...      ",
"      ...  ++++        ...      ",
"       ..................       ",
"        ................        ",
"         ..............         ",
"           ..........           ",
"          ............          ",
" ...... ................        ",
" ...... ................        ",
"    ... ....        ........    ",
"    ........        ........    ",
"    ........        ........    ",
"    ........        .... ...    ",
"        ....        .... ...... ",
"        ....        .... ...... ",
"        ................        ",
"        ................        ",
"        ................        ",
"        ................        ",
"       ....          ....       ",
"      ....            ....      ",
"     ....              ....     ",
"  ......                ......  ",
" ......                  ...... ",
"......                    ......"};
