/* XPM */
static const char * cobweb_tile_xpm[] = {
"32 32 2 1",
" 	c None",
".	c #BFBFBF",
".   .  . .  .  . .  .          .",
" . .  .   .  .  .  .            ",
"  .  .     .  .. ..             ",
".. ..       . .. ..             ",
".. ..        .  .  .            ",
"  .  .      . .. .  .          .",
" . .  .    .  ..  .  .        . ",
".   .  .  .  .  .  .  .      .  ",
"     .  ..  .    .  .  .    .  .",
"      . .. .      .  .  .  .  . ",
"       .  .        .  .  ..  .  ",
"      . .. .        .  . .. .   ",
"     .  ..  .        .  .  .    ",
"    .  .  .  .        .. .. .   ",
"   .  .    .  .       .. ..  .  ",
"  .  .      .  .     .  .  .  . ",
" .  .        .  .   .  . .  .  .",
".  .          .  . .  .   .  .  ",
" ..            .  .  .     .  ..",
" ..             .. ..       . ..",
".  .            .. ..        .  ",
" .  .          .  .  .      . ..",
"  .  .        .  . .  .    .  ..",
".  .  .      .  .   .  .  .  .  ",
" .  .  .    .  .     .  ..  .   ",
"  .  .  .  .  .       . .. .    ",
"   .  .  ..  .         .  .     ",
"    .  . .. .         . .. .    ",
"     .  .  .         .  ..  .   ",
"      .. .. .       .  .  .  .  ",
"      .. ..  .     .  .    .  . ",
".    .  .  .  .   .  .      .  ."};
