/* XPM */
static const char * digit9_xpm[] = {
"6 10 2 1",
" 	c #FFFF8000FFFF",
".	c None",
"      ",
"      ",
"  ..  ",
"  ..  ",
"      ",
"      ",
"....  ",
"....  ",
"....  ",
"....  "};
