/* XPM */
static const char * gray_robot_explosion_0_xpm[] = {
"20 20 2 1",
" 	c None",
".	c #BCBCBC",
"         ..         ",
"        ....        ",
"       ......       ",
"       ..  ..       ",
"       ..  ..       ",
"      ...  ...      ",
"      ..    ..      ",
"      ..    ..      ",
"      ..    ..      ",
"      ..    ..      ",
"      ..    ..      ",
"      ..    ..      ",
"      ..    ..      ",
"      ..    ..      ",
"      ...  ...      ",
"       ..  ..       ",
"       ..  ..       ",
"       ......       ",
"        ....        ",
"         ..         "};
