/* XPM */
static const char * gray_robot_0_xpm[] = {
"32 32 2 1",
" 	c None",
".	c #BDAEAC",
"       ..................       ",
"      ....................      ",
"     ...                ...     ",
"    ...                  ...    ",
"    ...                  ...    ",
"     ...                ...     ",
"      ....................      ",
"       ..................       ",
"              ....              ",
"              ....              ",
"              ....              ",
"        ................        ",
"      ....................      ",
"    ........        ........    ",
"................................",
" .............................. ",
"  ............................  ",
"    ....                ....    ",
"     ......................     ",
"     ......................     ",
"     ......................     ",
"                                ",
"    ........................    ",
"    ........................    ",
"   ..........................   ",
"   ..........................   ",
"  ............................  ",
"  ..........        ..........  ",
" .........            ......... ",
" ........              ........ ",
".......                  .......",
"....                        ...."};
