/* XPM */
static const char * gun_xpm[] = {
"30 24 2 1",
" 	c None",
".	c #FFFE00",
"    .                         ",
"    ..                        ",
"    ..                        ",
"    ...                       ",
"    ....                      ",
"    ....                      ",
"    ............              ",
"    .............        .... ",
"    ..........................",
"   ...........................",
"   ...........................",
"   ...................        ",
"   ....... .  ..              ",
"   .......    ..              ",
"  .........  ..               ",
"  ....... ....                ",
"  .......                     ",
"  .......                     ",
"  .......                     ",
"  .......                     ",
" ........                     ",
" ........                     ",
".........                     ",
".........                     "};
