/* XPM */
static const char * human_explosion_0_xpm[] = {
"5 5 2 1",
" 	c None",
".	c #FFB395",
". . .",
" ... ",
".. ..",
" ... ",
". . ."};
