/* XPM */
static const char * human_front_1_xpm[] = {
"30 30 3 1",
" 	c None",
".	c #FFB395",
"+	c #000000",
"             ....             ",
"            ......            ",
"           ........           ",
"           ..+..+..           ",
"           ........           ",
"           ........           ",
"            ......            ",
"             ....             ",
"              ..              ",
"              ..              ",
"             ....             ",
"    ......................    ",
"    ......................    ",
"    ..    ..........    ..    ",
"    ..   ............   ..    ",
"    ..   ............   ..    ",
"    ..   ............   ..    ",
"    ..   ............   ..    ",
"          ..........          ",
"          ..........          ",
"          ..........          ",
"           ...  ...           ",
"           ...  ...           ",
"           ...  ...           ",
"           ...  ............  ",
"           ...  ............. ",
"           ...  ..............",
"  ............                ",
" .............                ",
"..............                "};
