/* XPM */
static const char * human_paralyzed_0_xpm[] = {
"30 30 2 1",
" 	c None",
".	c #FFB395",
"                              ",
"                              ",
"                              ",
"                              ",
"                              ",
"                              ",
"                              ",
"                              ",
"                              ",
"                              ",
"                              ",
"                              ",
"                              ",
"                              ",
"                              ",
"                              ",
"                             .",
"                            ..",
"                           ...",
"                           ...",
"                           ...",
"                           ...",
"  ....                     ...",
" ......                    ...",
"........     ......        ...",
"........    ........       ...",
"........   ..........      ...",
"..............................",
" .............................",
"  ..... ......................"};
