/* XPM */
static const char * invisible_robot_explosion_1_xpm[] = {
"20 20 2 1",
" 	c None",
".	c #000000",
"                    ",
"                    ",
"                    ",
"                    ",
"                    ",
"                    ",
"     ..........     ",
"  ................  ",
" .....        ..... ",
"...              ...",
"...              ...",
" .....        ..... ",
"  ................  ",
"     ..........     ",
"                    ",
"                    ",
"                    ",
"                    ",
"                    ",
"                    "};
