/* XPM */
static const char * spider_explosion_0_xpm[] = {
"4 4 2 1",
" 	c None",
".	c #CC8408",
".  .",
" .. ",
" .. ",
".  ."};
