/* XPM */
static const char * spider_down_1_xpm[] = {
"30 30 2 1",
" 	c None",
".	c #CC8408",
"                              ",
"      .                .      ",
"      .                .      ",
"      .                .      ",
"      ..              ..      ",
"       ..            ..       ",
"        ..  ......  ..        ",
"         ............         ",
"          ..........          ",
"         ............         ",
"         ............         ",
"         ............         ",
"         ............         ",
"     ..  ............  ..     ",
"      ..  ..........  ..      ",
"       ..  ........  ..       ",
"        ..............        ",
"           ........           ",
"            ......            ",
"            ......            ",
"         ............         ",
"        ..  ......  ..        ",
"       ..    ....    ..       ",
"      ..     ....     ..      ",
"      .                .      ",
"                              ",
"          ..      ..          ",
"          ..      ..          ",
"                              ",
"                              "};
