/* XPM */
static const char * white_robot_1_xpm[] = {
"32 32 3 1",
" 	c None",
".	c #FFFFFF",
"+	c #00EBFF",
"               ..               ",
"             ......             ",
"           ..........           ",
"         ..............         ",
"       .......    .......       ",
"       .......    .......       ",
"        ......    ......        ",
"        ................        ",
"         ..............         ",
"         ..............         ",
"            ........            ",
"   ..........................   ",
"  ............................  ",
" .............................. ",
"....    .    .    .    .    ....",
"....    .    .    .    .    ....",
"....    .    .    .    .    ....",
"....    .    .    .    .    ....",
" .............................. ",
"  ............................  ",
"   ..........................   ",
"       ...            ...       ",
"    ........................    ",
"  ............................  ",
"................................",
".....             ++++++   .....",
".....             ++++++   .....",
"................................",
"  ............................  ",
"    ........................    ",
"      ....................      ",
"        ................        "};
