/* XPM */
static char * bb_dropping_02_xpm[] = {
"4 4 5 1",
" 	c None",
".	c #000010",
"+	c #1122EF",
"@	c #334AFF",
"#	c #CC62FF",
".++.",
"+@@+",
"+@#+",
".++."};
