/* XPM */
static char * bb_dropping_00_xpm[] = {
"4 4 4 1",
" 	c #000010",
".	c #1122EF",
"+	c #334AFF",
"@	c #CC62FF",
" .. ",
".+@.",
".++.",
" .. "};
