/* XPM */
static char * bb_dropping_01_xpm[] = {
"4 4 5 1",
" 	c None",
".	c #000010",
"+	c #1122EF",
"@	c #CC62FF",
"#	c #334AFF",
".++.",
"+@#+",
"+##+",
".++."};
