/* XPM */
static char * blubat_02_xpm[] = {
"32 20 33 1",
" 	c None",
".	c #000035",
"+	c #00002A",
"@	c #000057",
"#	c #0000B3",
"$	c #000088",
"%	c #000040",
"&	c #000009",
"*	c #00006F",
"=	c #0000D6",
"-	c #0000BE",
";	c #0000FF",
">	c #000078",
",	c #000053",
"'	c #000046",
")	c #0000C4",
"!	c #000082",
"~	c #000038",
"{	c #0000BA",
"]	c #0000F9",
"^	c #0000FC",
"/	c #0000BC",
"(	c #000036",
"_	c #00003C",
":	c #0000B8",
"<	c #0000F3",
"[	c #00003A",
"}	c #000064",
"|	c #0000FD",
"1	c #0000FE",
"2	c #0000FA",
"3	c #FF0064",
"4	c #000016",
"                                ",
"                                ",
"      .+                +.      ",
"      @#$%&          &%$#@      ",
"     *=-;;>,        ,>;;-=*     ",
"   ');-;-;;;!~    ~!;;;-;-;)'   ",
"   {];-;;-^^;;    ;;^^-;;-;]{   ",
"   ;;;-;;-]/(_:;<- [/]-;;-;;;   ",
"    ;;  ;;-} |11112 }-;;  ;;    ",
"    ;;       131131       ;;    ",
"     ;;      11111|      ;;     ",
"     ;;;     11441|     ;;;     ",
"              ||||              ",
"                                ",
"                                ",
"                                ",
"                                ",
"                                ",
"                                ",
"                                "};
