/* XPM */
static char * blubat_01_xpm[] = {
"32 20 59 1",
" 	c None",
".	c #000019",
"+	c #00005E",
"@	c #0000A7",
"#	c #00004F",
"$	c #00009E",
"%	c #0000EA",
"&	c #0000FF",
"*	c #0000E8",
"=	c #0000C5",
"-	c #0000E9",
";	c #000038",
">	c #0000E5",
",	c #0000BC",
"'	c #00008E",
")	c #0000AB",
"!	c #0000D9",
"~	c #00008D",
"{	c #00001C",
"]	c #00006C",
"^	c #0000FD",
"/	c #0000B7",
"(	c #0000B9",
"_	c #00009D",
":	c #0000E3",
"<	c #00001E",
"[	c #0000D5",
"}	c #000099",
"|	c #0000FE",
"1	c #0000C4",
"2	c #0000EB",
"3	c #000002",
"4	c #00008F",
"5	c #00004C",
"6	c #000031",
"7	c #0000F0",
"8	c #0000CD",
"9	c #000030",
"0	c #000050",
"a	c #000058",
"b	c #00009A",
"c	c #00000D",
"d	c #000091",
"e	c #0000D6",
"f	c #000084",
"g	c #00001A",
"h	c #0000B5",
"i	c #0000F2",
"j	c #00002D",
"k	c #0000BB",
"l	c #000021",
"m	c #00006D",
"n	c #00005A",
"o	c #000018",
"p	c #0000FA",
"q	c #00007A",
"r	c #000036",
"s	c #FF0064",
"t	c #000016",
"                                ",
"                                ",
"                                ",
"       .+@            @+        ",
"    #$%&*=-;        ;-=*&%$#    ",
"    >&,')$!~{      {~!$)',&>    ",
"  ]&^/(&&>_&:      :&_>&&(/^&]  ",
" <%&[}&|^12|&'  3 '&|21^|&}[&%  ",
"  &|4562&4*&17890%71&*4&2654|&  ",
" a&&bc  de&f gh|i8j f&ed  cb&&a ",
" @k     lmno ^||||p  nml     k@ ",
" qr          |s||s|          rq ",
" ,           |||||^           , ",
"             ||tt|^             ",
"              ^^^^              ",
"                                ",
"                                ",
"                                ",
"                                ",
"                                "};
