/* XPM */
static char * blubat_00_xpm[] = {
"32 20 9 1",
" 	c None",
".	c #0000FE",
"+	c #000091",
"@	c #0000FF",
"#	c #0000F1",
"$	c #0000FA",
"%	c #FF0064",
"&	c #0000FD",
"*	c #000016",
"                                ",
"                                ",
"                                ",
"                                ",
"     ......          ......     ",
"   ....++++.        .++++....   ",
"  ...++...+.        .+...++...  ",
"  ..++....+..      ..+....++..  ",
" ...+  ..+...      ...+..  +... ",
" .      .+....    ....+.      . ",
".       +@.  .#  ..  .@+       .",
"              ....              ",
"             .....$             ",
"             .%..%.             ",
"             .....&             ",
"             ..**.&             ",
"              &&&&              ",
"                                ",
"                                ",
"                                "};
