/* XPM */
static char *gfx2[] = {
/* columns rows colors chars-per-pixel */
"7 910 94 2 ",
"   c black",
".  c gray4",
"X  c #0C0C0C",
"o  c gray6",
"O  c gray7",
"+  c gray8",
"@  c #151515",
"#  c #161616",
"$  c gray9",
"%  c #181818",
"&  c #191919",
"*  c gray10",
"=  c #1B1B1B",
"-  c gray11",
";  c #1D1D1D",
":  c gray12",
">  c #202020",
",  c gray13",
"<  c #222222",
"1  c #232323",
"2  c gray14",
"3  c #252525",
"4  c gray15",
"5  c #282828",
"6  c gray16",
"7  c #2A2A2A",
"8  c gray17",
"9  c gray19",
"0  c #313131",
"q  c #323232",
"w  c gray20",
"e  c #343434",
"r  c #353535",
"t  c gray21",
"y  c gray22",
"u  c #393939",
"i  c #3A3A3A",
"p  c gray23",
"a  c #3C3C3C",
"s  c gray24",
"d  c gray25",
"f  c #414141",
"g  c gray26",
"h  c #434343",
"j  c #444444",
"k  c gray27",
"l  c #464646",
"z  c gray28",
"x  c #484848",
"c  c #494949",
"v  c gray29",
"b  c #4B4B4B",
"n  c gray32",
"m  c #535353",
"M  c gray33",
"N  c #585858",
"B  c gray35",
"V  c #5A5A5A",
"C  c #5F5F5F",
"Z  c #626262",
"A  c gray39",
"S  c #646464",
"D  c #656565",
"F  c #6A6A6A",
"G  c gray42",
"H  c #6C6C6C",
"J  c #6D6D6D",
"K  c gray43",
"L  c #6F6F6F",
"P  c gray44",
"I  c #717171",
"U  c #727272",
"Y  c gray47",
"T  c #797979",
"R  c gray48",
"E  c #7E7E7E",
"W  c gray50",
"Q  c #808080",
"!  c gray58",
"~  c gray59",
"^  c #979797",
"/  c #989898",
"(  c #9A9A9A",
")  c gray61",
"_  c gray62",
"`  c gray69",
"'  c #B1B1B1",
"]  c #B2B2B2",
"[  c gray70",
"{  c #B4B4B4",
"}  c gray72",
"|  c #B9B9B9",
" . c gray73",
".. c #BBBBBB",
/* pixels */
"              ",
"              ",
"  & @ % % @   ",
"  - - - - - @ ",
"  & @ % % @   ",
"              ",
"              ",
"              ",
"          $   ",
"    @ $ = = $ ",
"  ; * ; * #   ",
"  = & #       ",
"              ",
"              ",
"              ",
"        % *   ",
"      * ; %   ",
"    $ ; *     ",
"  * ; $       ",
"    *         ",
"              ",
"        $     ",
"      # = $   ",
"      * =     ",
"    # ; $     ",
"    & * @     ",
"    = ;       ",
"              ",
"      @       ",
"    @ - @     ",
"    % - %     ",
"    % - %     ",
"    @ - @     ",
"    & - &     ",
"              ",
"    $         ",
"  $ = #       ",
"    = *       ",
"    $ ; #     ",
"    @ * &     ",
"      ; =     ",
"              ",
"              ",
"  * %         ",
"  % ; *       ",
"    * ; $     ",
"      $ ; *   ",
"        *     ",
"              ",
"              ",
"  $           ",
"$ = = $ @     ",
"  # * ; * ;   ",
"      # & =   ",
"              ",
"              ",
"              ",
"              ",
"  @ % % @ &   ",
"@ - - - - -   ",
"  @ % % @ &   ",
"              ",
"              ",
"              ",
"              ",
"      # & =   ",
"  # * ; * ;   ",
"$ = = $ @     ",
"  $           ",
"              ",
"              ",
"        *     ",
"      $ ; *   ",
"    * ; $     ",
"  % ; *       ",
"  * %         ",
"              ",
"              ",
"      ; =     ",
"    @ * &     ",
"    $ ; #     ",
"    = *       ",
"  $ = #       ",
"    $         ",
"              ",
"    & - &     ",
"    @ - @     ",
"    % - %     ",
"    % - %     ",
"    @ - @     ",
"      @       ",
"              ",
"    = ;       ",
"    & * @     ",
"    # ; $     ",
"      * =     ",
"      # = $   ",
"        $     ",
"              ",
"    *         ",
"  * ; $       ",
"    $ ; *     ",
"      * ; %   ",
"        % *   ",
"              ",
"              ",
"              ",
"  = & #       ",
"  ; * ; * #   ",
"    @ $ = = $ ",
"          $   ",
"              ",
"              ",
"    x d       ",
"  v c f d     ",
"  b v g f     ",
"    b h       ",
"              ",
"              ",
"              ",
"          a   ",
"        s     ",
"    p s       ",
"      p       ",
"              ",
"              ",
"              ",
"        a     ",
"      a p     ",
"    p s       ",
"      p       ",
"              ",
"              ",
"              ",
"      a       ",
"      s       ",
"      s       ",
"    p a p     ",
"              ",
"              ",
"              ",
"    a         ",
"    p a       ",
"      s p     ",
"      p       ",
"              ",
"              ",
"              ",
"  a           ",
"    s         ",
"      s p     ",
"      p       ",
"              ",
"              ",
"              ",
"              ",
"  a p         ",
"    a s p     ",
"      p       ",
"              ",
"              ",
"              ",
"              ",
"        p     ",
"  a s s a     ",
"        p     ",
"              ",
"              ",
"              ",
"              ",
"      p       ",
"    a s p     ",
"  a p         ",
"              ",
"              ",
"              ",
"              ",
"      p       ",
"      s p     ",
"    s         ",
"  a           ",
"              ",
"              ",
"              ",
"      p       ",
"      s p     ",
"    p a       ",
"    a         ",
"              ",
"              ",
"              ",
"    p a p     ",
"      s       ",
"      s       ",
"      a       ",
"              ",
"              ",
"              ",
"      p       ",
"    p s       ",
"      a p     ",
"        a     ",
"              ",
"              ",
"              ",
"      p       ",
"    p s       ",
"        s     ",
"          a   ",
"              ",
"            z ",
"          l   ",
"        k     ",
"      k       ",
"              ",
"              ",
"              ",
"        z     ",
"        l     ",
"      k z     ",
"      k       ",
"              ",
"              ",
"              ",
"      z       ",
"      l       ",
"      k       ",
"      k       ",
"              ",
"              ",
"              ",
"    z         ",
"    l         ",
"    z k       ",
"      k       ",
"              ",
"              ",
"              ",
"z             ",
"  l           ",
"    k         ",
"      k       ",
"              ",
"              ",
"              ",
"              ",
"              ",
"z l z         ",
"    k k       ",
"              ",
"              ",
"              ",
"              ",
"              ",
"              ",
"z l k k       ",
"              ",
"              ",
"              ",
"              ",
"              ",
"              ",
"    k k       ",
"z l z         ",
"              ",
"              ",
"              ",
"              ",
"              ",
"      k       ",
"    k         ",
"  l           ",
"z             ",
"              ",
"              ",
"              ",
"      k       ",
"    z k       ",
"    l         ",
"    z         ",
"              ",
"              ",
"              ",
"      k       ",
"      k       ",
"      l       ",
"      z       ",
"              ",
"              ",
"              ",
"      k       ",
"      k z     ",
"        l     ",
"        z     ",
"              ",
"              ",
"              ",
"      k       ",
"        k     ",
"          l   ",
"            z ",
"E E E         ",
"E   E         ",
"E E E         ",
"              ",
"              ",
"              ",
"              ",
". . .         ",
".   .         ",
". . .         ",
"              ",
"              ",
"              ",
"              ",
"              ",
"              ",
"      y       ",
"    y u       ",
"    i         ",
"              ",
"              ",
"              ",
"              ",
"    y         ",
"    u y       ",
"      i       ",
"              ",
"              ",
"              ",
"              ",
"              ",
"    u y       ",
"      i y     ",
"              ",
"              ",
"              ",
"              ",
"              ",
"      u y     ",
"    i y       ",
"              ",
"              ",
"              ",
"              ",
"      P       ",
"    P U P     ",
"      P       ",
"              ",
"              ",
"              ",
"              ",
"      L P     ",
"    L I I P   ",
"      L L     ",
"              ",
"              ",
"              ",
"              ",
"      J K     ",
"    J L P K   ",
"  J K P P K   ",
"      K K     ",
"              ",
"              ",
"        J     ",
"    H J K J   ",
"  H K L L K J ",
"    J K L L J ",
"      J K J   ",
"    H H J     ",
"              ",
"      F H     ",
"  F H H J H   ",
"F H J K K J H ",
"    H J K K H ",
"      H J F   ",
"    F F H     ",
"              ",
"        G     ",
"    G H H G   ",
"  G H J J H G ",
"    G J J G   ",
"      H H G   ",
"      G       ",
"              ",
"              ",
"    n m       ",
"    M V N     ",
"      M B     ",
"              ",
"              ",
"              ",
"              ",
"    m N       ",
"  n V B N     ",
"    m m       ",
"              ",
"              ",
"              ",
"              ",
"      B N     ",
"    n V M     ",
"    m m       ",
"              ",
"              ",
"              ",
"              ",
"      N       ",
"    m B N     ",
"    m V m     ",
"      n       ",
"              ",
"              ",
"              ",
"      M Y     ",
"    M R T     ",
"    m n       ",
"              ",
"              ",
"              ",
"              ",
"      Y       ",
"    m T Y     ",
"    m R m     ",
"      n       ",
"              ",
"              ",
"              ",
"    Y m       ",
"    R T m     ",
"      m n     ",
"              ",
"              ",
"              ",
"              ",
"    Y m       ",
"  R T Y n     ",
"    m m       ",
"              ",
"              ",
"              ",
"              ",
"    o X       ",
"    O o       ",
"    O X       ",
"              ",
"              ",
"              ",
"              ",
"    o X       ",
"    O o X     ",
"      O X     ",
"              ",
"              ",
"              ",
"              ",
"              ",
"    X o X     ",
"    O O o     ",
"              ",
"              ",
"              ",
"              ",
"      o X     ",
"    O O X     ",
"    O X       ",
"              ",
"              ",
"              ",
"              ",
"      Z       ",
"    C g Z     ",
"      C       ",
"              ",
"              ",
"              ",
"  /     _     ",
"    g f       ",
"    h g       ",
"  (     )     ",
"              ",
"              ",
"              ",
"              ",
"      c       ",
"    b b c     ",
"      b       ",
"              ",
"              ",
"              ",
"              ",
"      9       ",
"    q 0 9     ",
"      q       ",
"              ",
"              ",
"              ",
"      f       ",
"    d f d     ",
"  g g h f f   ",
"    d g d     ",
"      g       ",
"              ",
"              ",
"    f         ",
"    d f d f   ",
"    g h f     ",
"  g d g f     ",
"        g     ",
"              ",
"              ",
"  f       f   ",
"    d f d     ",
"    g h f     ",
"    d g d     ",
"  g       f   ",
"              ",
"              ",
"        f     ",
"  g d f d     ",
"    g h f     ",
"    d g d f   ",
"    g         ",
"              ",
"              ",
"              ",
"    h v c     ",
"  h j b v c   ",
"    h v c     ",
"              ",
"              ",
"              ",
"        v c   ",
"      v b v   ",
"    h j v     ",
"    g h       ",
"              ",
"              ",
"              ",
"      c       ",
"    c v c     ",
"    v b v     ",
"    h j h     ",
"      h       ",
"              ",
"              ",
"  c v         ",
"  v b v       ",
"    v j h     ",
"      h g     ",
"              ",
"              ",
"              ",
"              ",
"    c v h     ",
"  c v b j h   ",
"    c v h     ",
"              ",
"              ",
"              ",
"              ",
"      h g     ",
"    v j h     ",
"  v b v       ",
"  c v         ",
"              ",
"              ",
"      h       ",
"    h j h     ",
"    v b v     ",
"    c v c     ",
"      c       ",
"              ",
"              ",
"              ",
"    g h       ",
"    h j v     ",
"      v b v   ",
"        v c   ",
"              ",
"              ",
"              ",
"    d f d     ",
"    g h f     ",
"    f g d     ",
"              ",
"              ",
"              ",
"              ",
"      g       ",
"    h k g     ",
"      h       ",
"              ",
"              ",
"              ",
"              ",
"    c g f     ",
"    v b g     ",
"    c v f     ",
"              ",
"              ",
"              ",
"              ",
"    v c x     ",
"    b v c     ",
"    c b v     ",
"              ",
"              ",
"              ",
"    ' `       ",
"  [ ] ' `     ",
"  { [ ] '     ",
"    { [       ",
"              ",
"              ",
"              ",
"              ",
"  E E E E     ",
"  Q Q Q W     ",
"              ",
"              ",
"              ",
"              ",
"              ",
"      Q W     ",
"    Q W E     ",
"  Q W E       ",
"    E         ",
"              ",
"              ",
"              ",
"    W E       ",
"    Q E       ",
"    Q E       ",
"    Q E       ",
"              ",
"              ",
"              ",
"    E         ",
"  Q W E       ",
"    Q W E     ",
"      Q W     ",
"              ",
"              ",
"              ",
"    r e       ",
"    t         ",
"              ",
"              ",
"              ",
"              ",
"              ",
"              ",
"    e         ",
"    t r       ",
"              ",
"              ",
"              ",
"              ",
"              ",
"        e     ",
"      t r     ",
"              ",
"              ",
"              ",
"              ",
"      r e     ",
"        t     ",
"              ",
"              ",
"              ",
"              ",
"              ",
"      e w     ",
"    t r e w   ",
"      t r     ",
"              ",
"              ",
"              ",
"              ",
"      e w     ",
"    r r e     ",
"    t r       ",
"              ",
"              ",
"              ",
"              ",
"      w       ",
"    r e w     ",
"    t r e     ",
"      t       ",
"              ",
"              ",
"              ",
"    r e       ",
"    t r w     ",
"      t e     ",
"              ",
"              ",
"v c v c       ",
"b v b v       ",
"v c v c       ",
"v c v c       ",
"b v b v       ",
"v c v c       ",
"              ",
"              ",
"  h h g       ",
"h k W j g     ",
"j W W W h     ",
"h k W k h     ",
"  l k h       ",
"              ",
"S A S A       ",
"D S D S       ",
"S A S A       ",
"S A S A       ",
"D S D S       ",
"S A S A       ",
"              ",
"4 4 4 4 4 4 4 ",
"< < < ,       ",
", , , >       ",
"  , > :       ",
"  > >         ",
"    :         ",
"              ",
"4 4 4 4 4 4 4 ",
"8 8 8 7       ",
"7 7 7 6       ",
"  7 6 5       ",
"  6 6         ",
"    5         ",
"              ",
"              ",
"              ",
"      | }     ",
"    .. .| }   ",
"      .. .    ",
"              ",
"              ",
"              ",
"              ",
"      | }     ",
"     . .|     ",
"    .. .      ",
"              ",
"              ",
"              ",
"              ",
"      }       ",
"     .| }     ",
"    .. .|     ",
"      ..      ",
"              ",
"              ",
"              ",
"     .|       ",
"    .. .}     ",
"      ..|     ",
"              ",
"              ",
"              ",
"              ",
"     ...      ",
"      | ..    ",
"         .    ",
"              ",
"              ",
"              ",
"              ",
"      .. .    ",
"    ..|       ",
"     .        ",
"              ",
"              ",
"              ",
"              ",
"     .        ",
"    ..|       ",
"      .. .    ",
"              ",
"              ",
"              ",
"              ",
"         .    ",
"      | ..    ",
"     ...      ",
"              ",
"              ",
"              ",
"          2   ",
"        3     ",
"      3       ",
"              ",
"              ",
"              ",
"              ",
"        2     ",
"      2 1     ",
"      3       ",
"              ",
"              ",
"              ",
"              ",
"      2       ",
"      3       ",
"      3       ",
"              ",
"              ",
"              ",
"              ",
"    2         ",
"    2 1       ",
"      3       ",
"              ",
"              ",
"              ",
"              ",
"  2           ",
"    3         ",
"      3       ",
"              ",
"              ",
"              ",
"              ",
"              ",
"  2 1         ",
"    2 3       ",
"              ",
"              ",
"              ",
"              ",
"              ",
"              ",
"  2 3 3       ",
"              ",
"              ",
"              ",
"              ",
"              ",
"              ",
"    2 3       ",
"  2 1         ",
"              ",
"              ",
"              ",
"              ",
"              ",
"      3       ",
"    3         ",
"  2           ",
"              ",
"              ",
"              ",
"              ",
"      3       ",
"    2 1       ",
"    2         ",
"              ",
"              ",
"              ",
"              ",
"      3       ",
"      3       ",
"      2       ",
"              ",
"              ",
"              ",
"              ",
"      3       ",
"      2 1     ",
"        2     ",
"              ",
"              ",
"              ",
"              ",
"      3       ",
"        3     ",
"          2   ",
"              ",
"              ",
"  a     p     ",
"    % +       ",
"    - %       ",
"  s     a     ",
"              ",
"              ",
"              ",
"      p       ",
"  a % +       ",
"    - % a     ",
"    s         ",
"              ",
"              ",
"              ",
"    a         ",
"    % + p     ",
"  s - %       ",
"      a       ",
"              ",
"              ",
"              ",
"              ",
"      !       ",
"    ^ ~ !     ",
"      ^       ",
"              ",
"              "
};
