/* XPM */
static char *gfx3[] = {
/* columns rows colors chars-per-pixel */
"4 120 4 1 ",
"  c black",
". c gray27",
"X c #464646",
"o c gray28",
/* pixels */
"o...",
". . ",
"o...",
"    ",
"....",
"X. .",
"oo.o",
"    ",
"o..o",
".  .",
".  .",
"    ",
"....",
".  .",
"o..o",
"    ",
"....",
". X.",
".  .",
"    ",
"....",
". X ",
".   ",
"    ",
"o..o",
".  .",
". ..",
"    ",
"....",
" .  ",
"....",
"    ",
".  .",
"....",
".  .",
"    ",
"  .o",
"   .",
"...o",
"    ",
"....",
" .o ",
".o..",
"    ",
"....",
"   .",
"   .",
"    ",
"....",
"o.X ",
"....",
"    ",
"....",
" XX ",
"....",
"    ",
"o..o",
".  .",
"o..o",
"    ",
"....",
". . ",
"o.o ",
"    ",
"o..o",
".  .",
"o...",
"    ",
"....",
". . ",
"o.o.",
"    ",
"o. .",
"..o.",
". .o",
"    ",
".   ",
"....",
".   ",
"    ",
"...o",
"   .",
"...o",
"    ",
"..o ",
"  ..",
"..o ",
"    ",
"....",
" X.o",
"....",
"    ",
".o..",
" .  ",
".o..",
"    ",
".o  ",
" ...",
".o  ",
"    ",
". ..",
"..o.",
".o .",
"    ",
"    ",
"    ",
"    ",
"    ",
"    ",
"    ",
"    ",
"    ",
"    ",
"    ",
"    ",
"    ",
"    ",
"    ",
"    ",
"    "
};
