# Blender v2.78 (sub 0) OBJ File: ''
# www.blender.org
mtllib flowerpot_with_long_cube.mtl
o Cube_Cube.001
v 0.256212 -0.267479 0.256212
v 0.256212 1.081644 0.256212
v 0.256212 -0.267479 -0.256212
v 0.256212 1.081644 -0.256212
v -0.256212 -0.267479 -0.256212
v -0.256212 1.081644 -0.256212
v -0.256212 1.081644 0.256212
v -0.256212 -0.267479 0.256212
v -0.376017 -1.015283 0.376017
v -0.376017 -0.263249 0.376017
v -0.376017 -0.263249 -0.376017
v -0.376017 -1.015283 -0.376017
v 0.376017 -0.263249 -0.376017
v 0.376017 -1.015283 -0.376017
v 0.376017 -0.263249 0.376017
v 0.376017 -1.015283 0.376017
v -0.250565 -0.558776 0.250565
v -0.250565 -0.558776 -0.250565
v -0.250565 -0.263350 -0.250565
v -0.250565 -0.263350 0.250565
v 0.250565 -0.558776 -0.250565
v 0.250565 -0.263350 -0.250565
v 0.250565 -0.558776 0.250565
v 0.250565 -0.263350 0.250565
v 0.685750 -0.738264 0.685751
v 0.685751 1.201331 0.685750
v -0.685750 -0.738264 -0.685750
v -0.685750 1.201331 -0.685751
v -0.685750 -0.738264 0.685750
v -0.685750 1.201331 0.685751
v 0.685751 -0.738264 -0.685751
v 0.685751 1.201331 -0.685750
v 0.130337 -0.351889 0.130337
v 0.130337 0.272653 0.130337
v 0.130337 -0.351888 -0.130337
v 0.130337 0.272653 -0.130337
v -0.130337 -0.351888 -0.130337
v -0.130337 0.272653 -0.130337
v -0.130337 0.272653 0.130337
v -0.130337 -0.351889 0.130337
vt 1.0000 0.0000
vt 1.0000 0.5000
vt 0.5000 0.5000
vt 0.5000 0.0000
vt 1.0000 0.0000
vt 1.0000 0.5000
vt 0.5000 0.5000
vt 0.5000 0.0000
vt 0.2500 0.0000
vt 0.2500 0.3125
vt 0.1250 0.3125
vt 0.1250 -0.0000
vt 0.3750 0.0000
vt 0.3750 0.3125
vt 0.5625 0.6250
vt 0.5625 0.8125
vt 0.3750 0.8125
vt 0.3750 0.6250
vt 0.1875 0.8125
vt 0.1875 0.6250
vt -0.0000 0.8125
vt 0.0000 0.6250
vt 0.7500 0.6250
vt 0.7500 0.8125
vt 0.3750 0.8125
vt 0.5625 0.8125
vt 0.5625 1.0000
vt 0.3750 1.0000
vt 0.3750 1.0000
vt 0.1875 1.0000
vt 0.3750 0.4375
vt 0.2500 0.4375
vt 0.2500 0.5000
vt 0.3750 0.5000
vt 0.1250 0.4375
vt 0.1250 0.5000
vt -0.0000 0.4375
vt -0.0000 0.5000
vt 0.5000 0.4375
vt 0.5000 0.5000
vt 0.1250 0.5000
vt 0.1250 0.6250
vt 0.2500 0.6250
vt 0.2500 0.5000
vt 0.0000 0.3125
vt -0.0000 -0.0000
vt 0.5000 -0.0000
vt 0.5000 0.3125
vt 0.2500 0.3125
vt 0.3750 0.3125
vt 0.3750 0.4375
vt 0.2500 0.4375
vt 0.2500 0.4375
vt 0.1250 0.4375
vt 0.8750 0.6250
vt 0.8750 0.7188
vt 0.8125 0.7188
vt 0.8125 0.6250
vt 0.9375 0.6250
vt 0.9375 0.7188
vt 0.7500 0.7188
vt 0.7500 0.6250
vt 1.0000 0.6250
vt 1.0000 0.7188
vt 0.8750 0.7188
vt 0.9375 0.7188
vt 0.9375 0.7812
vt 0.8750 0.7812
vt 0.8750 0.7812
vt 0.8125 0.7812
vn -0.7071 0.0000 0.7071
vn -0.7071 0.0000 -0.7071
vn 0.0000 0.0000 -1.0000
vn -1.0000 -0.0000 0.0000
vn 1.0000 -0.0000 0.0000
vn 0.0000 -0.0000 1.0000
vn 0.0000 -1.0000 -0.0000
vn 0.0000 1.0000 0.0000
usemtl None
s off
f 25/1/1 26/2/1 28/3/1 27/4/1
f 29/5/2 30/6/2 32/7/2 31/8/2
s 1
f 5/9/3 6/10/3 4/11/3 3/12/3
f 8/13/4 7/14/4 6/10/4 5/9/4
f 9/15/4 10/16/4 11/17/4 12/18/4
f 12/18/3 11/17/3 13/19/3 14/20/3
f 14/20/5 13/19/5 15/21/5 16/22/5
f 16/23/6 15/24/6 10/16/6 9/15/6
f 12/25/7 14/26/7 16/27/7 9/28/7
f 13/19/8 11/17/8 10/29/8 15/30/8
f 17/31/5 18/32/5 19/33/5 20/34/5
f 18/32/6 21/35/6 22/36/6 19/33/6
f 21/35/4 23/37/4 24/38/4 22/36/4
f 23/39/3 17/31/3 20/34/3 24/40/3
f 18/41/8 17/42/8 23/43/8 21/44/8
f 3/12/5 4/11/5 2/45/5 1/46/5
f 1/47/6 2/48/6 7/14/6 8/13/6
f 5/49/7 3/50/7 1/51/7 8/52/7
f 4/11/8 6/10/8 7/53/8 2/54/8
f 37/55/3 38/56/3 36/57/3 35/58/3
f 40/59/4 39/60/4 38/56/4 37/55/4
f 35/58/5 36/57/5 34/61/5 33/62/5
f 33/63/6 34/64/6 39/60/6 40/59/6
f 37/65/7 35/66/7 33/67/7 40/68/7
f 36/57/8 38/56/8 39/69/8 34/70/8
