# Blender 3.6.23
# www.blender.org
mtllib flowerpot_with_long_cube.mtl
o flower_pot
v 0.125000 -0.125000 0.125000
v 0.125000 0.500000 0.125000
v 0.125000 -0.125000 -0.125000
v 0.125000 0.500000 -0.125000
v -0.125000 -0.125000 -0.125000
v -0.125000 0.500000 -0.125000
v -0.125000 0.500000 0.125000
v -0.125000 -0.125000 0.125000
v -0.187500 -0.500000 0.187500
v -0.187500 -0.125000 0.187500
v -0.187500 -0.125000 -0.187500
v -0.187500 -0.500000 -0.187500
v 0.187500 -0.125000 -0.187500
v 0.187500 -0.500000 -0.187500
v 0.187500 -0.125000 0.187500
v 0.187500 -0.500000 0.187500
vn -0.0000 -0.0000 -1.0000
vn -1.0000 -0.0000 -0.0000
vn 1.0000 -0.0000 -0.0000
vn -0.0000 -0.0000 1.0000
vn -0.0000 -1.0000 -0.0000
vn -0.0000 1.0000 -0.0000
vt 0.250000 0.000000
vt 0.250000 0.312500
vt 0.125000 0.312500
vt 0.125000 -0.000000
vt 0.375000 0.000000
vt 0.375000 0.312500
vt 0.562500 0.625000
vt 0.562500 0.812500
vt 0.375000 0.812500
vt 0.375000 0.625000
vt 0.187500 0.812500
vt 0.187500 0.625000
vt -0.000000 0.812500
vt 0.000000 0.625000
vt 0.750000 0.625000
vt 0.750000 0.812500
vt 0.562500 1.000000
vt 0.375000 1.000000
vt 0.187500 1.000000
vt 0.000000 0.312500
vt -0.000000 -0.000000
vt 0.500000 0.000000
vt 0.500000 0.312500
vt 0.375000 0.437500
vt 0.250000 0.437500
vt 0.125000 0.437500
s 1
usemtl flower_pot
f 5/1/1 6/2/1 4/3/1 3/4/1
f 8/5/2 7/6/2 6/2/2 5/1/2
f 9/7/2 10/8/2 11/9/2 12/10/2
f 12/10/1 11/9/1 13/11/1 14/12/1
f 14/12/3 13/11/3 15/13/3 16/14/3
f 16/15/4 15/16/4 10/8/4 9/7/4
f 12/9/5 14/8/5 16/17/5 9/18/5
f 13/11/6 11/9/6 10/18/6 15/19/6
f 3/4/3 4/3/3 2/20/3 1/21/3
f 1/22/4 2/23/4 7/6/4 8/5/4
f 5/2/5 3/6/5 1/24/5 8/25/5
f 4/3/6 6/2/6 7/25/6 2/26/6
