# Blender 3.6.23
# www.blender.org
mtllib flower_pot.mtl
o flower_pot
v -0.187500 -0.500000 0.187500
v -0.187500 -0.125000 0.187500
v -0.187500 -0.500000 -0.187500
v -0.187500 -0.125000 -0.187500
v 0.187500 -0.500000 0.187500
v 0.187500 -0.125000 0.187500
v 0.187500 -0.500000 -0.187500
v 0.187500 -0.125000 -0.187500
v -0.125000 -0.250000 0.125000
v -0.125000 -0.125000 0.125000
v -0.125000 -0.250000 -0.125000
v -0.125000 -0.125000 -0.125000
v 0.125000 -0.250000 0.125000
v 0.125000 -0.125000 0.125000
v 0.125000 -0.250000 -0.125000
v 0.125000 -0.125000 -0.125000
vn -1.0000 -0.0000 -0.0000
vn -0.0000 -0.0000 -1.0000
vn 1.0000 -0.0000 -0.0000
vn -0.0000 -0.0000 1.0000
vn -0.0000 -1.0000 -0.0000
vn -0.0000 1.0000 -0.0000
vt 0.562500 0.187500
vt 0.562500 0.375000
vt 0.375000 0.375000
vt 0.375000 0.187500
vt 0.187500 0.375000
vt 0.187500 0.187500
vt 0.000000 0.375000
vt 0.000000 0.187500
vt 0.750000 0.187500
vt 0.750000 0.375000
vt 0.687500 0.000000
vt 0.875000 0.000000
vt 0.875000 0.187500
vt 0.687500 0.187500
vt 0.500000 0.000000
vt 0.500000 0.187500
vt 0.375000 0.000000
vt 0.250000 0.000000
vt 0.250000 0.062500
vt 0.375000 0.062500
vt 0.125000 0.000000
vt 0.125000 0.062500
vt 0.000000 0.000000
vt 0.000000 0.062500
vt 0.500000 0.062500
vt 0.125000 0.187500
vt 0.250000 0.187500
s 0
g flower_pot_flower_pot
usemtl flower_pot
f 1/1/1 2/2/1 4/3/1 3/4/1
f 3/4/2 4/3/2 8/5/2 7/6/2
f 7/6/3 8/5/3 6/7/3 5/8/3
f 5/9/4 6/10/4 2/2/4 1/1/4
f 3/11/5 7/12/5 5/13/5 1/14/5
f 8/15/6 4/11/6 2/14/6 6/16/6
f 9/17/3 11/18/3 12/19/3 10/20/3
f 11/18/4 15/21/4 16/22/4 12/19/4
f 15/21/1 13/23/1 14/24/1 16/22/1
f 13/15/2 9/17/2 10/20/2 14/25/2
f 11/22/6 9/26/6 13/27/6 15/19/6
