# Blender v2.78 (sub 0) OBJ File: ''
# www.blender.org
mtllib flowerpot_with_Xflower.mtl
o Cube_Cube.001
v -0.376017 -1.015283 0.376017
v -0.376017 -0.263249 0.376017
v -0.376017 -0.263249 -0.376017
v -0.376017 -1.015283 -0.376017
v 0.376017 -0.263249 -0.376017
v 0.376017 -1.015283 -0.376017
v 0.376017 -0.263249 0.376017
v 0.376017 -1.015283 0.376017
v -0.250565 -0.558776 0.250565
v -0.250565 -0.558776 -0.250565
v -0.250565 -0.263350 -0.250565
v -0.250565 -0.263350 0.250565
v 0.250565 -0.558776 -0.250565
v 0.250565 -0.263350 -0.250565
v 0.250565 -0.558776 0.250565
v 0.250565 -0.263350 0.250565
v -0.677552 -0.564356 0.677766
v -0.677552 1.848188 0.677767
v 0.677280 -0.564356 -0.677066
v 0.677280 1.848188 -0.677066
v 0.677280 -0.564356 0.677767
v 0.677280 1.848188 0.677767
v -0.677552 -0.564356 -0.677066
v -0.677552 1.848188 -0.677066
vt 1.0000 0.0000
vt 1.0000 0.6250
vt 0.5000 0.6250
vt 0.5000 -0.0000
vt 1.0000 0.0000
vt 1.0000 0.6250
vt 0.5000 0.6250
vt 0.5000 -0.0000
vt 0.5625 0.6250
vt 0.5625 0.8125
vt 0.3750 0.8125
vt 0.3750 0.6250
vt 0.1875 0.8125
vt 0.1875 0.6250
vt -0.0000 0.8125
vt 0.0000 0.6250
vt 0.7500 0.6250
vt 0.7500 0.8125
vt 0.3750 0.8125
vt 0.5625 0.8125
vt 0.5625 1.0000
vt 0.3750 1.0000
vt 0.3750 1.0000
vt 0.1875 1.0000
vt 0.3750 0.4375
vt 0.2500 0.4375
vt 0.2500 0.5000
vt 0.3750 0.5000
vt 0.1250 0.4375
vt 0.1250 0.5000
vt -0.0000 0.4375
vt -0.0000 0.5000
vt 0.5000 0.4375
vt 0.5000 0.5000
vt 0.1250 0.5000
vt 0.1250 0.6250
vt 0.2500 0.6250
vt 0.2500 0.5000
vn -0.7071 0.0000 -0.7071
vn -0.7071 0.0000 0.7071
vn -1.0000 0.0000 0.0000
vn 0.0000 0.0000 -1.0000
vn 1.0000 -0.0000 0.0000
vn 0.0000 -0.0000 1.0000
vn 0.0000 -1.0000 -0.0000
vn 0.0000 1.0000 0.0000
usemtl None
s off
f 17/1/1 18/2/1 20/3/1 19/4/1
f 21/5/2 22/6/2 24/7/2 23/8/2
s 1
f 1/9/3 2/10/3 3/11/3 4/12/3
f 4/12/4 3/11/4 5/13/4 6/14/4
f 6/14/5 5/13/5 7/15/5 8/16/5
f 8/17/6 7/18/6 2/10/6 1/9/6
f 4/19/7 6/20/7 8/21/7 1/22/7
f 5/13/8 3/11/8 2/23/8 7/24/8
f 9/25/5 10/26/5 11/27/5 12/28/5
f 10/26/6 13/29/6 14/30/6 11/27/6
f 13/29/3 15/31/3 16/32/3 14/30/3
f 15/33/4 9/25/4 12/28/4 16/34/4
f 10/35/8 9/36/8 15/37/8 13/38/8
