# Blender 3.6.23
# www.blender.org
mtllib mcl_candles_cake_lit.mtl
o Cake
v 0.437500 -0.000000 0.437500
v 0.437500 -0.500000 0.437500
v -0.437500 -0.000000 0.437500
v -0.437500 -0.500000 0.437500
v 0.437500 0.000000 -0.437500
v 0.437500 -0.500000 -0.437500
v -0.437500 0.000000 -0.437500
v -0.437500 -0.500000 -0.437500
v 0.022097 0.437500 -0.022097
v -0.022097 0.437500 0.022097
v 0.022097 0.375000 -0.022097
v -0.022097 0.375000 0.022097
v -0.062500 0.000000 -0.062500
v -0.062500 0.375000 -0.062500
v 0.062500 0.000000 -0.062500
v 0.062500 0.375000 -0.062500
v -0.062500 -0.000000 0.062500
v -0.062500 0.375000 0.062500
v 0.062500 -0.000000 0.062500
v 0.062500 0.375000 0.062500
v 0.022097 0.437500 0.022097
v -0.022097 0.437500 -0.022097
v 0.022097 0.375000 0.022097
v -0.022097 0.375000 -0.022097
v 0.044194 0.406250 0.044194
v 0.044194 0.531250 0.044194
v -0.044194 0.406250 -0.044194
v -0.044194 0.531250 -0.044194
v 0.044194 0.406250 -0.044194
v 0.044194 0.531250 -0.044194
v -0.044194 0.406250 0.044194
v -0.044194 0.531250 0.044194
vn -0.0000 1.0000 -0.0000
vn -0.0000 -1.0000 -0.0000
vn -1.0000 -0.0000 -0.0000
vn -0.0000 -0.0000 -1.0000
vn -0.0000 -0.0000 1.0000
vn 1.0000 -0.0000 -0.0000
vn 0.7071 -0.0000 0.7071
vn -0.7071 -0.0000 0.7071
vt 0.062500 0.937500
vt 0.062500 0.062500
vt 0.937500 0.062500
vt 0.937500 0.937500
vt 0.937500 0.000000
vt 0.937500 0.500000
vt 0.062500 0.500000
vt 0.062500 0.000000
vt 0.000000 0.687500
vt 0.062500 0.687500
vt 0.062500 0.625000
vt 0.000000 0.625000
vt 0.125000 0.125000
vt 0.125000 0.500000
vt 0.000000 0.500000
vt 0.000000 0.125000
vt 0.125000 0.625000
vt 0.000000 0.000000
vt 0.000000 1.000000
vt 1.000000 1.000000
vt 1.000000 0.000000
s 0
g Cake_Cake_Top.001
usemtl Cake_Top.001
f 1/1/1 5/2/1 7/3/1 3/4/1
g Cake_Cake_Bottom.001
usemtl Cake_Bottom.001
f 6/1/2 2/2/2 4/3/2 8/4/2
g Cake_Cake_Side.001
usemtl Cake_Side.001
f 4/5/3 3/6/3 7/7/3 8/8/3
f 8/5/4 7/6/4 5/7/4 6/8/4
f 2/5/5 1/6/5 3/7/5 4/8/5
f 6/5/6 5/6/6 1/7/6 2/8/6
g Cake_Candle.001
usemtl Candle.001
f 9/9/7 10/10/7 12/11/7 11/12/7
f 13/13/4 14/14/4 16/15/4 15/16/4
f 15/13/6 16/14/6 20/15/6 19/16/6
f 19/13/5 20/14/5 18/15/5 17/16/5
f 17/13/3 18/14/3 14/15/3 13/16/3
f 20/12/1 16/15/1 14/14/1 18/17/1
f 21/9/8 22/10/8 24/11/8 23/12/8
g Cake_Fire
usemtl Fire
f 25/18/8 26/19/8 28/20/8 27/21/8
f 29/18/7 30/19/7 32/20/7 31/21/7
