# Blender 3.6.23
# www.blender.org
mtllib mcl_candles_candle_4.mtl
o Candle_4
v 0.187500 -0.500000 0.187500
v 0.187500 -0.187500 0.187500
v 0.187500 -0.500000 0.062500
v 0.187500 -0.187500 0.062500
v 0.062500 -0.500000 0.187500
v 0.062500 -0.187500 0.187500
v 0.062500 -0.500000 0.062500
v 0.062500 -0.187500 0.062500
v 0.147097 -0.187500 0.147097
v 0.147097 -0.125000 0.147097
v 0.102903 -0.187500 0.102903
v 0.102903 -0.125000 0.102903
v 0.147097 -0.187500 0.102903
v 0.147097 -0.125000 0.102903
v 0.102903 -0.187500 0.147097
v 0.102903 -0.125000 0.147097
v -0.125000 -0.125000 0.062500
v -0.125000 -0.500000 0.062500
v -0.125000 -0.125000 0.187500
v -0.125000 -0.500000 0.187500
v 0.000000 -0.125000 0.062500
v 0.000000 -0.500000 0.062500
v 0.000000 -0.125000 0.187500
v 0.000000 -0.500000 0.187500
v -0.040403 -0.125000 0.147097
v -0.040403 -0.062500 0.147097
v -0.084597 -0.125000 0.102903
v -0.084597 -0.062500 0.102903
v -0.040403 -0.125000 0.102903
v -0.040403 -0.062500 0.102903
v -0.084597 -0.125000 0.147097
v -0.084597 -0.062500 0.147097
v 0.125000 -0.500000 -0.000000
v 0.125000 -0.312500 -0.000000
v 0.125000 -0.500000 -0.125000
v 0.125000 -0.312500 -0.125000
v 0.000000 -0.500000 -0.000000
v 0.000000 -0.312500 -0.000000
v 0.000000 -0.500000 -0.125000
v 0.000000 -0.312500 -0.125000
v 0.084597 -0.250000 -0.084597
v 0.040403 -0.250000 -0.040403
v 0.084597 -0.312500 -0.084597
v 0.040403 -0.312500 -0.040403
v 0.040403 -0.250000 -0.084597
v 0.084597 -0.250000 -0.040403
v 0.040403 -0.312500 -0.084597
v 0.084597 -0.312500 -0.040403
v -0.062500 -0.500000 -0.000000
v -0.062500 -0.187500 -0.000000
v -0.062500 -0.500000 -0.125000
v -0.062500 -0.187500 -0.125000
v -0.187500 -0.500000 -0.000000
v -0.187500 -0.187500 -0.000000
v -0.187500 -0.500000 -0.125000
v -0.187500 -0.187500 -0.125000
v -0.102903 -0.187500 -0.040403
v -0.102903 -0.125000 -0.040403
v -0.147097 -0.187500 -0.084597
v -0.147097 -0.125000 -0.084597
v -0.102903 -0.187500 -0.084597
v -0.102903 -0.125000 -0.084597
v -0.147097 -0.187500 -0.040403
v -0.147097 -0.125000 -0.040403
vn 1.0000 -0.0000 -0.0000
vn -0.0000 -0.0000 -1.0000
vn -1.0000 -0.0000 -0.0000
vn -0.0000 -0.0000 1.0000
vn -0.0000 -1.0000 -0.0000
vn -0.0000 1.0000 -0.0000
vn 0.7071 -0.0000 -0.7071
vn -0.7071 -0.0000 -0.7071
vn -0.7071 -0.0000 0.7071
vt 0.000000 0.187500
vt 0.125000 0.187500
vt 0.125000 0.500000
vt 0.000000 0.500000
vt 0.000000 0.125000
vt 0.000000 0.000000
vt 0.125000 0.000000
vt 0.125000 0.125000
vt 0.125000 0.625000
vt 0.000000 0.625000
vt 0.062500 0.625000
vt 0.062500 0.687500
vt 0.000000 0.687500
vt 0.000000 0.312500
vt 0.125000 0.312500
s 0
g Candle_4_Candle.007
usemtl Candle.007
f 1/1/1 3/2/1 4/3/1 2/4/1
f 3/1/2 7/2/2 8/3/2 4/4/2
f 7/1/3 5/2/3 6/3/3 8/4/3
f 5/1/4 1/2/4 2/3/4 6/4/4
f 3/5/5 1/6/5 5/7/5 7/8/5
f 8/3/6 6/9/6 2/10/6 4/4/6
f 9/10/7 11/11/7 12/12/7 10/13/7
f 13/10/8 15/11/8 16/12/8 14/13/8
f 17/3/6 19/9/6 23/10/6 21/4/6
f 20/5/4 24/8/4 23/3/4 19/4/4
f 24/5/1 22/8/1 21/3/1 23/4/1
f 22/5/5 24/6/5 20/7/5 18/8/5
f 18/5/3 20/8/3 19/3/3 17/4/3
f 22/5/2 18/8/2 17/3/2 21/4/2
f 25/10/7 27/11/7 28/12/7 26/13/7
f 29/10/8 31/11/8 32/12/8 30/13/8
f 33/14/1 35/15/1 36/3/1 34/4/1
f 35/14/2 39/15/2 40/3/2 36/4/2
f 39/14/3 37/15/3 38/3/3 40/4/3
f 37/14/4 33/15/4 34/3/4 38/4/4
f 35/5/5 33/6/5 37/7/5 39/8/5
f 40/3/6 38/9/6 34/10/6 36/4/6
f 41/13/8 43/10/8 44/11/8 42/12/8
f 45/12/9 47/11/9 48/10/9 46/13/9
f 49/1/1 51/2/1 52/3/1 50/4/1
f 51/1/2 55/2/2 56/3/2 52/4/2
f 55/1/3 53/2/3 54/3/3 56/4/3
f 53/1/4 49/2/4 50/3/4 54/4/4
f 51/5/5 49/6/5 53/7/5 55/8/5
f 56/3/6 54/9/6 50/10/6 52/4/6
f 57/10/7 59/11/7 60/12/7 58/13/7
f 61/10/8 63/11/8 64/12/8 62/13/8
