# Blender 3.4.1
# www.blender.org
mtllib mcl_chests_shulker.mtl
o shulker
v -0.499967 -0.228752 0.499967
v -0.499967 0.499844 0.499967
v -0.499967 -0.228752 -0.499967
v -0.499967 0.499844 -0.499967
v 0.499967 -0.228752 0.499967
v 0.499967 0.499844 0.499967
v 0.499967 -0.228752 -0.499967
v 0.499967 0.499844 -0.499967
v -0.499655 -0.500000 0.499655
v -0.499655 0.045992 0.499655
v -0.499655 -0.500000 -0.499655
v -0.499655 0.045992 -0.499655
v 0.499655 -0.500000 0.499655
v 0.499655 0.045992 0.499655
v 0.499655 -0.500000 -0.499655
v 0.499655 0.045992 -0.499655
v -0.499902 -0.228596 0.499902
v -0.499902 0.500000 0.499902
v -0.499902 -0.228596 -0.500033
v -0.499902 0.500000 -0.500033
v 0.500033 -0.228596 0.499902
v 0.500033 0.500000 0.499902
v 0.500033 -0.228596 -0.500033
v 0.500033 0.500000 -0.500033
v -0.499589 -0.499936 0.499589
v -0.499589 0.046056 0.499589
v -0.499589 -0.499936 -0.499721
v -0.499589 0.046056 -0.499721
v 0.499721 -0.499936 0.499589
v 0.499721 0.046056 0.499589
v 0.499721 -0.499936 -0.499721
v 0.499721 0.046056 -0.499721
vn 1.0000 -0.0000 -0.0000
vn -0.0000 -0.0000 1.0000
vn -1.0000 -0.0000 -0.0000
vn -0.0000 -0.0000 -1.0000
vn -0.0000 1.0000 -0.0000
vn -0.0000 -1.0000 -0.0000
vt 0.250000 0.562500
vt 0.750000 0.750000
vt 0.250000 0.750000
vt -0.000000 0.562500
vt 1.000000 0.562500
vt 0.750000 1.000000
vt -0.000000 0.750000
vt 1.000000 0.750000
vt 0.250000 1.000000
vt 0.500000 0.562500
vt 0.500000 0.750000
vt 0.500000 0.750000
vt 0.750000 0.562500
vt 0.500000 1.000000
vt 0.750000 0.750000
vt 0.500000 1.000000
vt 0.250000 0.187500
vt 0.750000 0.312500
vt 0.250000 0.312500
vt -0.000000 0.187500
vt 1.000000 0.187500
vt 0.750000 0.562500
vt -0.000000 0.312500
vt 1.000000 0.312500
vt 0.250000 0.562500
vt 0.500000 0.187500
vt 0.500000 0.312500
vt 0.500000 0.312500
vt 0.750000 0.187500
vt 0.500000 0.562500
vt 0.750000 0.312500
vt 0.500000 0.562500
vt 0.250000 0.562500
vt 0.750000 0.750000
vt 0.250000 0.750000
vt -0.000000 0.562500
vt 1.000000 0.562500
vt 0.750000 1.000000
vt -0.000000 0.750000
vt 1.000000 0.750000
vt 0.250000 1.000000
vt 0.500000 0.562500
vt 0.500000 0.750000
vt 0.500000 0.750000
vt 0.750000 0.562500
vt 0.500000 1.000000
vt 0.750000 0.750000
vt 0.500000 1.000000
vt 0.250000 0.187500
vt 0.750000 0.312500
vt 0.250000 0.312500
vt -0.000000 0.187500
vt 1.000000 0.187500
vt 0.750000 0.562500
vt -0.000000 0.312500
vt 1.000000 0.312500
vt 0.250000 0.562500
vt 0.500000 0.187500
vt 0.500000 0.312500
vt 0.500000 0.312500
vt 0.750000 0.187500
vt 0.500000 0.562500
vt 0.750000 0.312500
vt 0.500000 0.562500
s 0
usemtl shulker
f 1/1/1 3/4/1 4/7/1 2/3/1
f 3/5/2 7/13/2 8/15/2 4/8/2
f 7/13/3 5/10/3 6/12/3 8/15/3
f 5/10/4 1/1/4 2/3/4 6/12/4
f 3/6/5 1/2/5 5/11/5 7/14/5
f 8/16/6 6/12/6 2/3/6 4/9/6
f 9/17/1 11/20/1 12/23/1 10/19/1
f 11/21/2 15/29/2 16/31/2 12/24/2
f 15/29/3 13/26/3 14/28/3 16/31/3
f 13/26/4 9/17/4 10/19/4 14/28/4
f 11/22/5 9/18/5 13/27/5 15/30/5
f 16/32/6 14/28/6 10/19/6 12/25/6
f 17/33/3 18/35/3 20/39/3 19/36/3
f 19/37/4 20/40/4 24/47/4 23/45/4
f 23/45/1 24/47/1 22/44/1 21/42/1
f 21/42/2 22/44/2 18/35/2 17/33/2
f 19/38/6 23/46/6 21/43/6 17/34/6
f 24/48/5 20/41/5 18/35/5 22/44/5
f 25/49/3 26/51/3 28/55/3 27/52/3
f 27/53/4 28/56/4 32/63/4 31/61/4
f 31/61/1 32/63/1 30/60/1 29/58/1
f 29/58/2 30/60/2 26/51/2 25/49/2
f 27/54/6 31/62/6 29/59/6 25/50/6
f 32/64/5 28/57/5 26/51/5 30/60/5
