<?xml version="1.0" encoding="UTF-8" standalone="no"?>
<!-- Created with Inkscape (http://www.inkscape.org/) -->
<svg
   xmlns:svg="http://www.w3.org/2000/svg"
   xmlns="http://www.w3.org/2000/svg"
   version="1.0"
   width="500"
   height="500"
   id="svg2">
  <defs
     id="defs4" />
  <g
     id="layer1">
    <path
       d="M 62.041016,29.41127 L 84.716797,29.41127 L 84.716797,31.012833 L 74.365234,31.012833 L 74.365234,58.571426 L 72.392578,58.571426 L 72.392578,31.012833 L 62.041016,31.012833 L 62.041016,29.41127 M 106.66992,45.368301 L 106.66992,58.571426 L 104.87305,58.571426 L 104.87305,45.485489 C 104.87303,42.673005 104.39777,40.680819 103.44727,39.508926 C 102.49673,38.337072 101.05793,37.751135 99.130859,37.751114 C 96.917306,37.751135 95.166006,38.402176 93.876953,39.704239 C 92.587884,41.00634 91.943353,43.174306 91.943359,46.208145 L 91.943359,58.571426 L 90.146484,58.571426 L 90.146484,28.180801 L 91.943359,28.180801 L 91.943359,40.739395 C 92.360019,39.619622 93.102206,38.62353 94.169922,37.751114 C 95.445954,36.696448 97.242827,36.169105 99.560547,36.169083 C 101.72199,36.169105 103.44725,36.943844 104.73633,38.493301 C 106.02537,40.05582 106.6699,42.347484 106.66992,45.368301 M 124.28711,46.227676 C 121.39647,46.227689 119.31314,46.742011 118.03711,47.770645 C 116.76106,48.799301 116.12304,50.303205 116.12305,52.282364 C 116.12304,54.209452 116.65038,55.576638 117.70508,56.383926 C 118.75976,57.191219 120.00976,57.594865 121.45508,57.594864 C 124.18944,57.594865 126.15558,56.436012 127.35352,54.118301 C 128.56444,51.8006 129.1699,49.619612 129.16992,47.575333 L 129.16992,46.227676 L 124.28711,46.227676 M 130.98633,46.090958 L 130.98633,58.571426 L 129.20898,58.571426 L 129.20898,52.633926 C 128.20636,55.537575 126.87824,57.386532 125.22461,58.180801 C 123.90949,58.818822 122.6009,59.137832 121.29883,59.137833 C 119.12434,59.137832 117.4121,58.558406 116.16211,57.399551 C 114.91211,56.227679 114.28711,54.50893 114.28711,52.243301 C 114.28711,49.977685 115.10091,48.167791 116.72852,46.813614 C 118.35611,45.44644 121.01887,44.762846 124.7168,44.762833 L 129.16992,44.762833 L 129.16992,44.41127 C 129.1699,42.471182 128.61652,40.876132 127.50977,39.626114 C 126.416,38.376134 124.60611,37.751135 122.08008,37.751114 C 120.83007,37.751135 119.55403,37.985509 118.25195,38.454239 C 117.41861,38.753738 116.33789,39.359206 115.00977,40.270645 L 115.00977,38.337051 C 116.16861,37.620927 117.24934,37.113115 118.25195,36.813614 C 119.71028,36.383949 121.11002,36.169105 122.45117,36.169083 C 125.02928,36.169105 127.15168,36.950354 128.81836,38.512833 C 130.26365,39.853997 130.98631,42.380036 130.98633,46.090958 M 156.5918,45.368301 L 156.5918,58.571426 L 154.79492,58.571426 L 154.79492,45.485489 C 154.7949,42.646963 154.33917,40.648267 153.42773,39.489395 C 152.51626,38.330561 151.17511,37.751135 149.4043,37.751114 C 147.33397,37.751135 145.56314,38.376134 144.0918,39.626114 C 142.60741,40.889152 141.86523,43.083161 141.86523,46.208145 L 141.86523,58.571426 L 140.06836,58.571426 L 140.06836,36.696426 L 141.86523,36.696426 L 141.86523,40.797989 C 142.50325,39.469883 143.34309,38.454259 144.38477,37.751114 C 145.92121,36.696448 147.62043,36.169105 149.48242,36.169083 C 151.64386,36.169105 153.36912,36.904781 154.6582,38.376114 C 155.94725,39.834466 156.59178,42.165193 156.5918,45.368301 M 167.27539,28.180801 L 169.0918,28.180801 L 169.0918,46.637833 L 179.9707,36.696426 L 182.43164,36.696426 L 171.12305,47.028458 L 182.80273,58.571426 L 180.47852,58.571426 L 169.0918,47.360489 L 169.0918,58.571426 L 167.27539,58.571426 L 167.27539,28.180801 M 201.04492,37.340958 L 201.04492,39.313614 C 199.78189,38.610509 198.99413,38.219884 198.68164,38.141739 C 197.77017,37.920405 196.63736,37.790197 195.2832,37.751114 C 193.2259,37.751135 191.61132,38.161291 190.43945,38.981583 C 189.54101,39.658685 189.09179,40.817538 189.0918,42.458145 C 189.09179,43.564931 189.51497,44.430816 190.36133,45.055801 C 191.25976,45.732898 192.54231,46.25373 194.20898,46.618301 L 195.43945,46.891739 C 197.50975,47.347479 199.07876,47.99201 200.14648,48.825333 C 201.38345,49.775862 202.03449,51.01284 202.09961,52.53627 C 202.09959,54.606587 201.48761,56.227679 200.26367,57.399551 C 198.96157,58.558406 196.86522,59.137832 193.97461,59.137833 C 192.36002,59.137832 191.13606,59.027155 190.30273,58.805801 C 189.30013,58.519343 188.24544,58.174291 187.13867,57.770645 L 187.13867,55.524551 C 188.72721,56.436012 189.75585,56.956845 190.22461,57.087051 C 191.51366,57.425594 192.7897,57.594865 194.05273,57.594864 C 196.1621,57.594865 197.71809,57.158667 198.7207,56.28627 C 199.73631,55.400857 200.24412,54.242004 200.24414,52.809708 C 200.24412,51.611798 199.90558,50.739403 199.22852,50.19252 C 198.25194,49.411279 196.69595,48.773259 194.56055,48.278458 L 193.31055,47.985489 C 191.4746,47.555812 190.07486,46.950344 189.11133,46.169083 C 187.90039,45.192534 187.29492,44.007639 187.29492,42.614395 C 187.29492,40.322747 188.02408,38.675613 189.48242,37.672989 C 190.94075,36.670407 192.73111,36.169105 194.85352,36.169083 C 196.6634,36.169105 197.9134,36.266761 198.60352,36.462051 C 199.43683,36.696448 200.25063,36.989417 201.04492,37.340958 M 231.66992,28.180801 L 231.66992,29.704239 L 229.13086,29.704239 C 227.80272,29.704268 226.7871,30.049319 226.08398,30.739395 C 225.2246,31.585776 224.79491,32.926921 224.79492,34.762833 L 224.79492,36.696426 L 230.69336,36.696426 L 230.69336,38.219864 L 224.79492,38.219864 L 224.79492,58.571426 L 222.97852,58.571426 L 222.97852,38.219864 L 219.54102,38.219864 L 219.54102,36.696426 L 222.97852,36.696426 L 222.97852,35.172989 C 222.97851,32.738119 223.5319,30.967287 224.63867,29.860489 C 225.73241,28.740727 227.24283,28.180832 229.16992,28.180801 L 231.66992,28.180801 M 249.32617,40.446426 C 248.03709,38.649571 246.27928,37.751135 244.05273,37.751114 C 241.82616,37.751135 240.06835,38.643061 238.7793,40.426895 C 237.47721,42.197745 236.82617,44.593576 236.82617,47.614395 C 236.82617,50.713361 237.4707,53.148255 238.75977,54.919083 C 240.04882,56.702939 241.81314,57.594865 244.05273,57.594864 C 246.27928,57.594865 248.03709,56.702939 249.32617,54.919083 C 250.62824,53.122213 251.27928,50.68732 251.2793,47.614395 C 251.27928,44.632638 250.62824,42.243318 249.32617,40.446426 M 244.0332,36.169083 C 246.81965,36.169105 249.02017,37.210771 250.63477,39.294083 C 252.26235,41.390454 253.07615,44.170399 253.07617,47.633926 C 253.07615,51.214663 252.26235,54.040181 250.63477,56.110489 C 249.02017,58.193823 246.81965,59.235488 244.0332,59.235489 C 241.22069,59.235488 239.00064,58.200333 237.37305,56.13002 C 235.75846,54.059712 234.95117,51.227684 234.95117,47.633926 C 234.95117,44.131337 235.76497,41.344881 237.39258,39.274551 C 239.02018,37.20426 241.23371,36.169105 244.0332,36.169083 M 272.64648,38.239395 C 272.36001,38.096186 271.96939,37.972489 271.47461,37.868301 C 271.03189,37.790197 270.47199,37.751135 269.79492,37.751114 C 267.58137,37.751135 265.74543,38.571446 264.28711,40.212051 C 263.14127,41.540193 262.56835,43.818837 262.56836,47.047989 L 262.56836,58.571426 L 260.81055,58.571426 L 260.81055,36.696426 L 262.56836,36.696426 L 262.56836,40.797989 C 263.15429,39.626133 263.9746,38.63655 265.0293,37.829239 C 266.48762,36.72249 268.20637,36.169105 270.18555,36.169083 C 270.69334,36.169105 271.13605,36.188636 271.51367,36.227676 C 271.90428,36.227699 272.28188,36.273272 272.64648,36.364395 L 272.64648,38.239395 M 291.78711,53.610489 L 291.78711,66.891739 L 290.0293,66.891739 L 290.0293,36.696426 L 291.78711,36.696426 L 291.78711,41.696426 C 292.60741,39.795404 293.49934,38.493321 294.46289,37.790176 C 295.93423,36.709469 297.32095,36.169105 298.62305,36.169083 C 301.21418,36.169105 303.36912,37.223791 305.08789,39.333145 C 306.80662,41.442537 307.66599,44.215972 307.66602,47.653458 C 307.66599,51.090965 306.80662,53.8644 305.08789,55.97377 C 303.36912,58.083146 301.21418,59.137832 298.62305,59.137833 C 297.32095,59.137832 295.93423,58.597468 294.46289,57.516739 C 293.49934,56.813616 292.60741,55.511534 291.78711,53.610489 M 303.50586,55.270645 C 305.01626,53.747212 305.77146,51.208153 305.77148,47.653458 C 305.77146,44.098785 305.01626,41.559725 303.50586,40.03627 C 302.00845,38.512853 300.42642,37.751135 298.75977,37.751114 C 297.13215,37.751135 295.56314,38.512853 294.05273,40.03627 C 292.55533,41.559725 291.80663,44.098785 291.80664,47.653458 C 291.80663,51.208153 292.55533,53.747212 294.05273,55.270645 C 295.56314,56.794084 297.13215,57.555802 298.75977,57.555801 C 300.42642,57.555802 302.00845,56.794084 303.50586,55.270645 M 315.38086,28.180801 L 317.17773,28.180801 L 317.17773,58.571426 L 315.38086,58.571426 L 315.38086,28.180801 M 335.22461,46.227676 C 332.33397,46.227689 330.25064,46.742011 328.97461,47.770645 C 327.69856,48.799301 327.06054,50.303205 327.06055,52.282364 C 327.06054,54.209452 327.58788,55.576638 328.64258,56.383926 C 329.69726,57.191219 330.94726,57.594865 332.39258,57.594864 C 335.12694,57.594865 337.09308,56.436012 338.29102,54.118301 C 339.50194,51.8006 340.1074,49.619612 340.10742,47.575333 L 340.10742,46.227676 L 335.22461,46.227676 M 341.92383,46.090958 L 341.92383,58.571426 L 340.14648,58.571426 L 340.14648,52.633926 C 339.14386,55.537575 337.81574,57.386532 336.16211,58.180801 C 334.84699,58.818822 333.5384,59.137832 332.23633,59.137833 C 330.06184,59.137832 328.3496,58.558406 327.09961,57.399551 C 325.84961,56.227679 325.22461,54.50893 325.22461,52.243301 C 325.22461,49.977685 326.03841,48.167791 327.66602,46.813614 C 329.29361,45.44644 331.95637,44.762846 335.6543,44.762833 L 340.10742,44.762833 L 340.10742,44.41127 C 340.1074,42.471182 339.55402,40.876132 338.44727,39.626114 C 337.3535,38.376134 335.54361,37.751135 333.01758,37.751114 C 331.76757,37.751135 330.49153,37.985509 329.18945,38.454239 C 328.35611,38.753738 327.27539,39.359206 325.94727,40.270645 L 325.94727,38.337051 C 327.10611,37.620927 328.18684,37.113115 329.18945,36.813614 C 330.64778,36.383949 332.04752,36.169105 333.38867,36.169083 C 335.96678,36.169105 338.08918,36.950354 339.75586,38.512833 C 341.20115,39.853997 341.92381,42.380036 341.92383,46.090958 M 358.38867,60.602676 C 357.60741,62.542777 356.76757,63.883921 355.86914,64.626114 C 354.65819,65.628711 353.4733,66.130013 352.31445,66.13002 L 349.63867,66.13002 L 349.63867,64.606583 L 351.92383,64.606583 C 352.87434,64.606577 353.70768,64.300587 354.42383,63.688614 C 355.3483,62.894339 356.11002,61.728975 356.70898,60.19252 L 357.35352,58.571426 L 348.62305,36.696426 L 350.53711,36.696426 L 358.31055,56.188614 L 366.10352,36.696426 L 367.99805,36.696426 L 358.38867,60.602676 M 374.63867,36.696426 L 376.43555,36.696426 L 376.43555,58.571426 L 374.63867,58.571426 L 374.63867,36.696426 M 374.63867,28.180801 L 376.43555,28.180801 L 376.43555,30.641739 L 374.63867,30.641739 L 374.63867,28.180801 M 402.29492,45.368301 L 402.29492,58.571426 L 400.49805,58.571426 L 400.49805,45.485489 C 400.49803,42.646963 400.0423,40.648267 399.13086,39.489395 C 398.21938,38.330561 396.87824,37.751135 395.10742,37.751114 C 393.0371,37.751135 391.26627,38.376134 389.79492,39.626114 C 388.31054,40.889152 387.56835,43.083161 387.56836,46.208145 L 387.56836,58.571426 L 385.77148,58.571426 L 385.77148,36.696426 L 387.56836,36.696426 L 387.56836,40.797989 C 388.20637,39.469883 389.04622,38.454259 390.08789,37.751114 C 391.62434,36.696448 393.32356,36.169105 395.18555,36.169083 C 397.34699,36.169105 399.07225,36.904781 400.36133,38.376114 C 401.65037,39.834466 402.2949,42.165193 402.29492,45.368301 M 425.69336,47.38002 C 425.69334,44.34618 425.07485,41.995922 423.83789,40.329239 C 422.61392,38.649571 420.88866,37.809728 418.66211,37.809708 C 416.46158,37.809728 414.74283,38.649571 413.50586,40.329239 C 412.2819,41.995922 411.66992,44.34618 411.66992,47.38002 C 411.66992,50.400862 412.2819,52.75112 413.50586,54.430801 C 414.74283,56.097471 416.46158,56.930803 418.66211,56.930801 C 420.88866,56.930803 422.61392,56.097471 423.83789,54.430801 C 425.07485,52.75112 425.69334,50.400862 425.69336,47.38002 M 427.49023,55.856583 C 427.49021,60.400852 426.62433,63.376109 424.89258,64.782364 C 423.16079,66.188606 420.96678,66.891731 418.31055,66.891739 C 417.04752,66.891731 415.85611,66.800585 414.73633,66.618301 C 413.61653,66.422981 412.52929,66.130013 411.47461,65.739395 L 411.47461,63.688614 C 412.52929,64.261525 413.57096,64.684702 414.59961,64.958145 C 415.62825,65.231576 416.67642,65.368295 417.74414,65.368301 C 419.91861,65.368295 421.78709,64.906055 423.34961,63.981583 C 424.91209,63.057099 425.69334,60.563612 425.69336,56.501114 L 425.69336,53.083145 C 425.15949,54.580545 424.42381,55.758929 423.48633,56.618301 C 422.05402,57.933406 420.44595,58.584447 418.66211,58.571426 C 415.88866,58.571426 413.72721,57.594865 412.17773,55.641739 C 410.62825,53.675598 409.85351,50.915184 409.85352,47.360489 C 409.85351,43.818837 410.62825,41.071444 412.17773,39.118301 C 413.72721,37.152177 415.88866,36.169105 418.66211,36.169083 C 420.43293,36.169105 421.95636,36.729 423.23242,37.84877 C 424.22199,38.721186 425.0423,39.886549 425.69336,41.344864 L 425.69336,36.696426 L 427.49023,36.696426 L 427.49023,55.856583 M 435.9668,56.110489 L 437.95898,56.110489 L 437.95898,58.571426 L 435.9668,58.571426 L 435.9668,56.110489 M 72.548828,79.41127 L 74.521484,79.41127 L 74.521484,92.22377 L 90.830078,92.22377 L 90.830078,79.41127 L 92.802734,79.41127 L 92.802734,108.57143 L 90.830078,108.57143 L 90.830078,93.805801 L 74.521484,93.805801 L 74.521484,108.57143 L 72.548828,108.57143 L 72.548828,79.41127 M 115.30273,90.446426 C 114.01366,88.649571 112.25584,87.751135 110.0293,87.751114 C 107.80272,87.751135 106.04491,88.643061 104.75586,90.426895 C 103.45377,92.197745 102.80273,94.593576 102.80273,97.614395 C 102.80273,100.71336 103.44726,103.14825 104.73633,104.91908 C 106.02538,106.70294 107.7897,107.59486 110.0293,107.59486 C 112.25584,107.59486 114.01366,106.70294 115.30273,104.91908 C 116.6048,103.12221 117.25584,100.68732 117.25586,97.614395 C 117.25584,94.632638 116.6048,92.243318 115.30273,90.446426 M 110.00977,86.169083 C 112.79621,86.169105 114.99673,87.210771 116.61133,89.294083 C 118.23891,91.390454 119.05271,94.170399 119.05273,97.633926 C 119.05271,101.21466 118.23891,104.04018 116.61133,106.11049 C 114.99673,108.19382 112.79621,109.23549 110.00977,109.23549 C 107.19726,109.23549 104.97721,108.20033 103.34961,106.13002 C 101.73502,104.05971 100.92773,101.22768 100.92773,97.633926 C 100.92773,94.131337 101.74153,91.344881 103.36914,89.274551 C 104.99674,87.20426 107.21028,86.169105 110.00977,86.169083 M 128.54492,103.61049 L 128.54492,116.89174 L 126.78711,116.89174 L 126.78711,86.696426 L 128.54492,86.696426 L 128.54492,91.696426 C 129.36523,89.795404 130.25715,88.493321 131.2207,87.790176 C 132.69205,86.709469 134.07876,86.169105 135.38086,86.169083 C 137.97199,86.169105 140.12694,87.223791 141.8457,89.333145 C 143.56443,91.442537 144.42381,94.215972 144.42383,97.653458 C 144.42381,101.09097 143.56443,103.8644 141.8457,105.97377 C 140.12694,108.08315 137.97199,109.13783 135.38086,109.13783 C 134.07876,109.13783 132.69205,108.59747 131.2207,107.51674 C 130.25715,106.81362 129.36523,105.51153 128.54492,103.61049 M 140.26367,105.27065 C 141.77407,103.74721 142.52928,101.20815 142.5293,97.653458 C 142.52928,94.098785 141.77407,91.559725 140.26367,90.03627 C 138.76626,88.512853 137.18423,87.751135 135.51758,87.751114 C 133.88996,87.751135 132.32095,88.512853 130.81055,90.03627 C 129.31314,91.559725 128.56445,94.098785 128.56445,97.653458 C 128.56445,101.20815 129.31314,103.74721 130.81055,105.27065 C 132.32095,106.79408 133.88996,107.5558 135.51758,107.5558 C 137.18423,107.5558 138.76626,106.79408 140.26367,105.27065 M 169.18945,96.735489 L 169.18945,97.868301 L 152.58789,97.868301 C 152.58789,101.38393 153.27148,103.84487 154.63867,105.25111 C 156.14908,106.81362 158.39517,107.59486 161.37695,107.59486 C 162.15819,107.59486 163.19334,107.42559 164.48242,107.08705 C 165.78449,106.74851 167.07355,106.2407 168.34961,105.56361 L 168.34961,107.45815 C 167.06053,108.00502 165.73891,108.42169 164.38477,108.70815 C 163.03058,108.9946 161.95637,109.13783 161.16211,109.13783 C 157.7897,109.13783 155.25064,108.22637 153.54492,106.40346 C 151.69596,104.46336 150.77148,101.61831 150.77148,97.868301 C 150.77148,93.975087 151.61783,91.071444 153.31055,89.157364 C 155.04231,87.165198 157.45116,86.169105 160.53711,86.169083 C 163.40168,86.169105 165.56313,87.113115 167.02148,89.001114 C 168.46678,90.980298 169.18943,93.558421 169.18945,96.735489 M 167.37305,96.344864 C 167.37303,93.271963 166.68292,91.032381 165.30273,89.626114 C 164.14386,88.376134 162.56834,87.751135 160.57617,87.751114 C 158.40168,87.751135 156.57877,88.402176 155.10742,89.704239 C 153.75325,90.915194 152.93945,93.128734 152.66602,96.344864 L 167.37305,96.344864 M 196.86523,110.60268 C 196.08397,112.54278 195.24413,113.88392 194.3457,114.62611 C 193.13476,115.62871 191.94986,116.13001 190.79102,116.13002 L 188.11523,116.13002 L 188.11523,114.60658 L 190.40039,114.60658 C 191.35091,114.60658 192.18424,114.30059 192.90039,113.68861 C 193.82486,112.89434 194.58658,111.72898 195.18555,110.19252 L 195.83008,108.57143 L 187.09961,86.696426 L 189.01367,86.696426 L 196.78711,106.18861 L 204.58008,86.696426 L 206.47461,86.696426 L 196.86523,110.60268 M 226.16211,90.446426 C 224.87303,88.649571 223.11522,87.751135 220.88867,87.751114 C 218.6621,87.751135 216.90429,88.643061 215.61523,90.426895 C 214.31315,92.197745 213.6621,94.593576 213.66211,97.614395 C 213.6621,100.71336 214.30663,103.14825 215.5957,104.91908 C 216.88476,106.70294 218.64908,107.59486 220.88867,107.59486 C 223.11522,107.59486 224.87303,106.70294 226.16211,104.91908 C 227.46417,103.12221 228.11521,100.68732 228.11523,97.614395 C 228.11521,94.632638 227.46417,92.243318 226.16211,90.446426 M 220.86914,86.169083 C 223.65558,86.169105 225.8561,87.210771 227.4707,89.294083 C 229.09829,91.390454 229.91209,94.170399 229.91211,97.633926 C 229.91209,101.21466 229.09829,104.04018 227.4707,106.11049 C 225.8561,108.19382 223.65558,109.23549 220.86914,109.23549 C 218.05663,109.23549 215.83658,108.20033 214.20898,106.13002 C 212.5944,104.05971 211.78711,101.22768 211.78711,97.633926 C 211.78711,94.131337 212.60091,91.344881 214.22852,89.274551 C 215.85611,87.20426 218.06965,86.169105 220.86914,86.169083 M 237.60742,99.899551 L 237.60742,86.696426 L 239.4043,86.696426 L 239.4043,99.782364 C 239.40429,102.62091 239.86002,104.61961 240.77148,105.77846 C 241.68293,106.93731 243.02408,107.51674 244.79492,107.51674 C 246.86522,107.51674 248.63605,106.89174 250.10742,105.64174 C 251.59178,104.37872 252.33397,102.18471 252.33398,99.059708 L 252.33398,86.696426 L 254.13086,86.696426 L 254.13086,108.57143 L 252.33398,108.57143 L 252.33398,104.46986 C 251.69594,105.79799 250.8561,106.81362 249.81445,107.51674 C 248.27798,108.57143 246.57876,109.09877 244.7168,109.09877 C 242.55533,109.09877 240.83007,108.36309 239.54102,106.89174 C 238.25195,105.43341 237.60742,103.10268 237.60742,99.899551 M 292.25586,95.368301 L 292.25586,108.57143 L 290.45898,108.57143 L 290.45898,95.485489 C 290.45897,92.673005 289.98371,90.680819 289.0332,89.508926 C 288.08267,88.337072 286.64386,87.751135 284.7168,87.751114 C 282.50324,87.751135 280.75194,88.402176 279.46289,89.704239 C 278.17382,91.00634 277.52929,93.174306 277.5293,96.208145 L 277.5293,108.57143 L 275.73242,108.57143 L 275.73242,78.180801 L 277.5293,78.180801 L 277.5293,90.739395 C 277.94596,89.619622 278.68814,88.62353 279.75586,87.751114 C 281.03189,86.696448 282.82876,86.169105 285.14648,86.169083 C 287.30793,86.169105 289.03319,86.943844 290.32227,88.493301 C 291.61131,90.05582 292.25584,92.347484 292.25586,95.368301 M 309.87305,96.227676 C 306.98241,96.227689 304.89908,96.742011 303.62305,97.770645 C 302.347,98.799301 301.70898,100.30321 301.70898,102.28236 C 301.70898,104.20945 302.23632,105.57664 303.29102,106.38393 C 304.3457,107.19122 305.59569,107.59486 307.04102,107.59486 C 309.77538,107.59486 311.74152,106.43601 312.93945,104.1183 C 314.15037,101.8006 314.75584,99.619612 314.75586,97.575333 L 314.75586,96.227676 L 309.87305,96.227676 M 316.57227,96.090958 L 316.57227,108.57143 L 314.79492,108.57143 L 314.79492,102.63393 C 313.7923,105.53758 312.46418,107.38653 310.81055,108.1808 C 309.49543,108.81882 308.18684,109.13783 306.88477,109.13783 C 304.71028,109.13783 302.99804,108.55841 301.74805,107.39955 C 300.49804,106.22768 299.87304,104.50893 299.87305,102.2433 C 299.87304,99.977685 300.68684,98.167791 302.31445,96.813614 C 303.94205,95.44644 306.60481,94.762846 310.30273,94.762833 L 314.75586,94.762833 L 314.75586,94.41127 C 314.75584,92.471182 314.20246,90.876132 313.0957,89.626114 C 312.00194,88.376134 310.19204,87.751135 307.66602,87.751114 C 306.41601,87.751135 305.13997,87.985509 303.83789,88.454239 C 303.00455,88.753738 301.92382,89.359206 300.5957,90.270645 L 300.5957,88.337051 C 301.75455,87.620927 302.83528,87.113115 303.83789,86.813614 C 305.29622,86.383949 306.69595,86.169105 308.03711,86.169083 C 310.61522,86.169105 312.73761,86.950354 314.4043,88.512833 C 315.84959,89.853997 316.57225,92.380036 316.57227,96.090958 M 341.57227,91.696426 L 341.57227,78.180801 L 343.33008,78.180801 L 343.33008,108.57143 L 341.57227,108.57143 L 341.57227,103.61049 C 340.75193,105.51153 339.86001,106.81362 338.89648,107.51674 C 337.42511,108.59747 336.0384,109.13783 334.73633,109.13783 C 332.14517,109.13783 329.99023,108.08315 328.27148,105.97377 C 326.55273,103.8644 325.69335,101.09097 325.69336,97.653458 C 325.69335,94.215972 326.55273,91.442537 328.27148,89.333145 C 329.99023,87.223791 332.14517,86.169105 334.73633,86.169083 C 336.0384,86.169105 337.42511,86.709469 338.89648,87.790176 C 339.86001,88.493321 340.75193,89.795404 341.57227,91.696426 M 329.85352,90.03627 C 328.34309,91.559725 327.58788,94.098785 327.58789,97.653458 C 327.58788,101.20815 328.34309,103.74721 329.85352,105.27065 C 331.3509,106.79408 332.93293,107.5558 334.59961,107.5558 C 336.2272,107.5558 337.79621,106.79408 339.30664,105.27065 C 340.80402,103.74721 341.55271,101.20815 341.55273,97.653458 C 341.55271,94.098785 340.80402,91.559725 339.30664,90.03627 C 337.79621,88.512853 336.2272,87.751135 334.59961,87.751114 C 332.93293,87.751135 331.3509,88.512853 329.85352,90.03627 M 373.19336,78.180801 L 373.19336,79.704239 L 370.6543,79.704239 C 369.32616,79.704268 368.31054,80.049319 367.60742,80.739395 C 366.74804,81.585776 366.31835,82.926921 366.31836,84.762833 L 366.31836,86.696426 L 372.2168,86.696426 L 372.2168,88.219864 L 366.31836,88.219864 L 366.31836,108.57143 L 364.50195,108.57143 L 364.50195,88.219864 L 361.06445,88.219864 L 361.06445,86.696426 L 364.50195,86.696426 L 364.50195,85.172989 C 364.50195,82.738119 365.05533,80.967287 366.16211,79.860489 C 367.25585,78.740727 368.76627,78.180832 370.69336,78.180801 L 373.19336,78.180801 M 377.8418,99.899551 L 377.8418,86.696426 L 379.63867,86.696426 L 379.63867,99.782364 C 379.63867,102.62091 380.09439,104.61961 381.00586,105.77846 C 381.91731,106.93731 383.25845,107.51674 385.0293,107.51674 C 387.0996,107.51674 388.87043,106.89174 390.3418,105.64174 C 391.82615,104.37872 392.56834,102.18471 392.56836,99.059708 L 392.56836,86.696426 L 394.36523,86.696426 L 394.36523,108.57143 L 392.56836,108.57143 L 392.56836,104.46986 C 391.93032,105.79799 391.09048,106.81362 390.04883,107.51674 C 388.51235,108.57143 386.81314,109.09877 384.95117,109.09877 C 382.7897,109.09877 381.06445,108.36309 379.77539,106.89174 C 378.48632,105.43341 377.84179,103.10268 377.8418,99.899551 M 419.75586,95.368301 L 419.75586,108.57143 L 417.95898,108.57143 L 417.95898,95.485489 C 417.95897,92.646963 417.50324,90.648267 416.5918,89.489395 C 415.68032,88.330561 414.33918,87.751135 412.56836,87.751114 C 410.49804,87.751135 408.7272,88.376134 407.25586,89.626114 C 405.77148,90.889152 405.02929,93.083161 405.0293,96.208145 L 405.0293,108.57143 L 403.23242,108.57143 L 403.23242,86.696426 L 405.0293,86.696426 L 405.0293,90.797989 C 405.66731,89.469883 406.50715,88.454259 407.54883,87.751114 C 409.08528,86.696448 410.78449,86.169105 412.64648,86.169083 C 414.80793,86.169105 416.53319,86.904781 417.82227,88.376114 C 419.11131,89.834466 419.75584,92.165193 419.75586,95.368301 M 429.44336,106.11049 L 431.43555,106.11049 L 431.43555,108.57143 L 429.44336,108.57143 L 429.44336,106.11049"
       id="text2383"
       style="font-size:40px;font-style:normal;font-variant:normal;font-weight:200;font-stretch:normal;text-align:center;line-height:125%;writing-mode:lr-tb;text-anchor:middle;fill:none;fill-opacity:1;stroke:#000000;stroke-width:1px;stroke-linecap:butt;stroke-linejoin:miter;stroke-opacity:1;font-family:DejaVu Sans;-inkscape-font-specification:DejaVu Sans Ultra-Light" />
    <path
       d="M 35.488281,297.9827 L 50.273438,297.9827 L 50.273438,299.60379 L 37.460938,299.60379 L 37.460938,310.7952 L 49.023438,310.7952 L 49.023438,312.37723 L 37.460938,312.37723 L 37.460938,327.14285 L 35.488281,327.14285 L 35.488281,297.9827 M 73.046875,315.30692 L 73.046875,316.43973 L 56.445312,316.43973 C 56.445308,319.95536 57.128901,322.4163 58.496094,323.82254 C 60.006502,325.38504 62.252593,326.16629 65.234375,326.16629 C 66.01561,326.16629 67.050766,325.99702 68.339844,325.65848 C 69.641909,325.31994 70.93097,324.81213 72.207031,324.13504 L 72.207031,326.02957 C 70.917949,326.57645 69.596336,326.99311 68.242188,327.27957 C 66.888005,327.56603 65.813788,327.70926 65.019531,327.70926 C 61.647125,327.70926 59.108065,326.7978 57.402344,324.97488 C 55.553381,323.03478 54.628903,320.18973 54.628906,316.43973 C 54.628903,312.54651 55.475256,309.64287 57.167969,307.72879 C 58.899732,305.73662 61.308584,304.74053 64.394531,304.74051 C 67.259099,304.74053 69.420555,305.68454 70.878906,307.57254 C 72.324198,309.55172 73.046853,312.12985 73.046875,315.30692 M 71.230469,314.91629 C 71.230449,311.84339 70.540346,309.60381 69.160156,308.19754 C 68.001286,306.94756 66.425766,306.32256 64.433594,306.32254 C 62.259104,306.32256 60.436189,306.9736 58.964844,308.27567 C 57.610671,309.48662 56.79687,311.70016 56.523438,314.91629 L 71.230469,314.91629 M 97.65625,315.30692 L 97.65625,316.43973 L 81.054688,316.43973 C 81.054683,319.95536 81.738276,322.4163 83.105469,323.82254 C 84.615877,325.38504 86.861968,326.16629 89.84375,326.16629 C 90.624985,326.16629 91.660141,325.99702 92.949219,325.65848 C 94.251284,325.31994 95.540345,324.81213 96.816406,324.13504 L 96.816406,326.02957 C 95.527324,326.57645 94.205711,326.99311 92.851562,327.27957 C 91.49738,327.56603 90.423163,327.70926 89.628906,327.70926 C 86.2565,327.70926 83.71744,326.7978 82.011719,324.97488 C 80.162756,323.03478 79.238278,320.18973 79.238281,316.43973 C 79.238278,312.54651 80.084631,309.64287 81.777344,307.72879 C 83.509107,305.73662 85.917959,304.74053 89.003906,304.74051 C 91.868474,304.74053 94.02993,305.68454 95.488281,307.57254 C 96.933573,309.55172 97.656228,312.12985 97.65625,315.30692 M 95.839844,314.91629 C 95.839824,311.84339 95.149721,309.60381 93.769531,308.19754 C 92.610661,306.94756 91.035141,306.32256 89.042969,306.32254 C 86.868479,306.32256 85.045564,306.9736 83.574219,308.27567 C 82.220046,309.48662 81.406245,311.70016 81.132812,314.91629 L 95.839844,314.91629 M 121.13281,310.26785 L 121.13281,296.75223 L 122.89062,296.75223 L 122.89062,327.14285 L 121.13281,327.14285 L 121.13281,322.18192 C 120.31248,324.08296 119.42055,325.38504 118.45703,326.08817 C 116.98566,327.16889 115.59894,327.70926 114.29688,327.70926 C 111.70572,327.70926 109.55077,326.65457 107.83203,324.5452 C 106.11328,322.43583 105.2539,319.66239 105.25391,316.22488 C 105.2539,312.7874 106.11328,310.01396 107.83203,307.90457 C 109.55077,305.79522 111.70572,304.74053 114.29688,304.74051 C 115.59894,304.74053 116.98566,305.2809 118.45703,306.3616 C 119.42055,307.06475 120.31248,308.36683 121.13281,310.26785 M 109.41406,308.6077 C 107.90364,310.13115 107.14843,312.67021 107.14844,316.22488 C 107.14843,319.77958 107.90364,322.31864 109.41406,323.84207 C 110.91145,325.36551 112.49348,326.12723 114.16016,326.12723 C 115.78775,326.12723 117.35675,325.36551 118.86719,323.84207 C 120.36456,322.31864 121.11326,319.77958 121.11328,316.22488 C 121.11326,312.67021 120.36456,310.13115 118.86719,308.6077 C 117.35675,307.08428 115.78775,306.32256 114.16016,306.32254 C 112.49348,306.32256 110.91145,307.08428 109.41406,308.6077 M 144.12109,323.84207 C 145.63149,322.31864 146.3867,319.77958 146.38672,316.22488 C 146.3867,312.67021 145.63149,310.13115 144.12109,308.6077 C 142.62368,307.08428 141.04165,306.32256 139.375,306.32254 C 137.74738,306.32256 136.17838,307.08428 134.66797,308.6077 C 133.17057,310.13115 132.42187,312.67021 132.42188,316.22488 C 132.42187,319.77958 133.17057,322.31864 134.66797,323.84207 C 136.17838,325.36551 137.74738,326.12723 139.375,326.12723 C 141.04165,326.12723 142.62368,325.36551 144.12109,323.84207 M 132.40234,310.26785 C 133.22265,308.36683 134.11458,307.06475 135.07812,306.3616 C 136.54947,305.2809 137.93619,304.74053 139.23828,304.74051 C 141.82941,304.74053 143.98436,305.79522 145.70312,307.90457 C 147.42185,310.01396 148.28123,312.7874 148.28125,316.22488 C 148.28123,319.66239 147.42185,322.43583 145.70312,324.5452 C 143.98436,326.65457 141.82941,327.70926 139.23828,327.70926 C 137.93619,327.70926 136.54947,327.16889 135.07812,326.08817 C 134.11458,325.38504 133.22265,324.08296 132.40234,322.18192 L 132.40234,327.14285 L 130.64453,327.14285 L 130.64453,296.75223 L 132.40234,296.75223 L 132.40234,310.26785 M 164.74609,314.7991 C 161.85546,314.79912 159.77213,315.31344 158.49609,316.34207 C 157.22005,317.37073 156.58203,318.87463 156.58203,320.85379 C 156.58203,322.78088 157.10937,324.14806 158.16406,324.95535 C 159.21874,325.76265 160.46874,326.16629 161.91406,326.16629 C 164.64842,326.16629 166.61457,325.00744 167.8125,322.68973 C 169.02342,320.37203 169.62889,318.19104 169.62891,316.14676 L 169.62891,314.7991 L 164.74609,314.7991 M 171.44531,314.66238 L 171.44531,327.14285 L 169.66797,327.14285 L 169.66797,321.20535 C 168.66535,324.109 167.33722,325.95796 165.68359,326.75223 C 164.36848,327.39025 163.05988,327.70926 161.75781,327.70926 C 159.58333,327.70926 157.87109,327.12983 156.62109,325.97098 C 155.37109,324.79911 154.74609,323.08036 154.74609,320.81473 C 154.74609,318.54911 155.55989,316.73922 157.1875,315.38504 C 158.8151,314.01787 161.47785,313.33427 165.17578,313.33426 L 169.62891,313.33426 L 169.62891,312.9827 C 169.62889,311.04261 169.0755,309.44756 167.96875,308.19754 C 166.87498,306.94756 165.06509,306.32256 162.53906,306.32254 C 161.28905,306.32256 160.01301,306.55694 158.71094,307.02567 C 157.8776,307.32516 156.79687,307.93063 155.46875,308.84207 L 155.46875,306.90848 C 156.6276,306.19235 157.70833,305.68454 158.71094,305.38504 C 160.16926,304.95537 161.569,304.74053 162.91016,304.74051 C 165.48827,304.74053 167.61066,305.52178 169.27734,307.08426 C 170.72264,308.42542 171.44529,310.95146 171.44531,314.66238 M 195.50781,306.32254 L 195.50781,308.2366 C 194.42706,307.57256 193.53514,307.12334 192.83203,306.88895 C 191.62108,306.51136 190.46223,306.32256 189.35547,306.32254 C 186.20442,306.32256 183.9453,307.12985 182.57812,308.74442 C 181.21093,310.35902 180.52734,312.8525 180.52734,316.22488 C 180.52734,319.62333 181.21093,322.12984 182.57812,323.74442 C 183.9453,325.359 186.20442,326.16629 189.35547,326.16629 C 190.39712,326.16629 191.42577,326.02306 192.44141,325.7366 C 193.47003,325.46317 194.49217,325.0465 195.50781,324.4866 L 195.50781,326.30301 C 194.50519,326.77176 193.47003,327.12332 192.40234,327.3577 C 191.3216,327.59207 190.25389,327.70926 189.19922,327.70926 C 185.99608,327.70926 183.45051,326.84337 181.5625,325.1116 C 179.67448,323.36681 178.73047,320.40458 178.73047,316.22488 C 178.73047,312.04521 179.67448,309.08298 181.5625,307.33817 C 183.45051,305.60642 185.99608,304.74053 189.19922,304.74051 C 190.24087,304.74053 191.34764,304.89027 192.51953,305.18973 C 193.69139,305.47621 194.68748,305.85381 195.50781,306.32254 M 204.375,296.75223 L 206.19141,296.75223 L 206.19141,315.20926 L 217.07031,305.26785 L 219.53125,305.26785 L 208.22266,315.59988 L 219.90234,327.14285 L 217.57812,327.14285 L 206.19141,315.93192 L 206.19141,327.14285 L 204.375,327.14285 L 204.375,296.75223 M 238.45703,305.26785 L 240.25391,305.26785 L 240.25391,327.14285 L 238.45703,327.14285 L 238.45703,305.26785 M 238.45703,296.75223 L 240.25391,296.75223 L 240.25391,299.21317 L 238.45703,299.21317 L 238.45703,296.75223 M 261.97266,305.91238 L 261.97266,307.88504 C 260.70962,307.18194 259.92186,306.79131 259.60938,306.71317 C 258.6979,306.49183 257.56509,306.36162 256.21094,306.32254 C 254.15364,306.32256 252.53906,306.73272 251.36719,307.55301 C 250.46874,308.23011 250.01953,309.38896 250.01953,311.02957 C 250.01953,312.13636 250.4427,313.00224 251.28906,313.62723 C 252.18749,314.30432 253.47004,314.82516 255.13672,315.18973 L 256.36719,315.46317 C 258.43749,315.91891 260.0065,316.56344 261.07422,317.39676 C 262.31118,318.34729 262.96222,319.58427 263.02734,321.1077 C 263.02733,323.17801 262.41535,324.79911 261.19141,325.97098 C 259.88931,327.12983 257.79296,327.70926 254.90234,327.70926 C 253.28775,327.70926 252.0638,327.59858 251.23047,327.37723 C 250.22786,327.09077 249.17317,326.74572 248.06641,326.34207 L 248.06641,324.09598 C 249.65494,325.00744 250.68359,325.52827 251.15234,325.65848 C 252.4414,325.99702 253.71744,326.16629 254.98047,326.16629 C 257.08983,326.16629 258.64582,325.73009 259.64844,324.8577 C 260.66405,323.97228 261.17186,322.81343 261.17188,321.38113 C 261.17186,320.18322 260.83332,319.31083 260.15625,318.76395 C 259.17967,317.98271 257.62369,317.34469 255.48828,316.84988 L 254.23828,316.55692 C 252.40234,316.12724 251.0026,315.52177 250.03906,314.74051 C 248.82812,313.76396 248.22265,312.57907 248.22266,311.18582 C 248.22265,308.89417 248.95182,307.24704 250.41016,306.24442 C 251.86848,305.24183 253.65885,304.74053 255.78125,304.74051 C 257.59113,304.74053 258.84113,304.83819 259.53125,305.03348 C 260.36457,305.26787 261.17837,305.56084 261.97266,305.91238 M 281.19141,305.26785 L 283.04688,305.26785 L 288.18359,324.76004 L 293.28125,305.26785 L 295.56641,305.26785 L 300.70312,324.8577 L 305.82031,305.26785 L 307.67578,305.26785 L 301.95312,327.14285 L 299.45312,327.14285 L 294.41406,307.96317 L 289.39453,327.14285 L 286.93359,327.14285 L 281.19141,305.26785 M 332.96875,315.30692 L 332.96875,316.43973 L 316.36719,316.43973 C 316.36718,319.95536 317.05078,322.4163 318.41797,323.82254 C 319.92838,325.38504 322.17447,326.16629 325.15625,326.16629 C 325.93749,326.16629 326.97264,325.99702 328.26172,325.65848 C 329.56378,325.31994 330.85285,324.81213 332.12891,324.13504 L 332.12891,326.02957 C 330.83982,326.57645 329.51821,326.99311 328.16406,327.27957 C 326.80988,327.56603 325.73566,327.70926 324.94141,327.70926 C 321.569,327.70926 319.02994,326.7978 317.32422,324.97488 C 315.47526,323.03478 314.55078,320.18973 314.55078,316.43973 C 314.55078,312.54651 315.39713,309.64287 317.08984,307.72879 C 318.82161,305.73662 321.23046,304.74053 324.31641,304.74051 C 327.18097,304.74053 329.34243,305.68454 330.80078,307.57254 C 332.24607,309.55172 332.96873,312.12985 332.96875,315.30692 M 331.15234,314.91629 C 331.15232,311.84339 330.46222,309.60381 329.08203,308.19754 C 327.92316,306.94756 326.34764,306.32256 324.35547,306.32254 C 322.18098,306.32256 320.35806,306.9736 318.88672,308.27567 C 317.53255,309.48662 316.71874,311.70016 316.44531,314.91629 L 331.15234,314.91629 M 340.52734,296.75223 L 342.32422,296.75223 L 342.32422,327.14285 L 340.52734,327.14285 L 340.52734,296.75223 M 366.60156,306.32254 L 366.60156,308.2366 C 365.52081,307.57256 364.62889,307.12334 363.92578,306.88895 C 362.71483,306.51136 361.55598,306.32256 360.44922,306.32254 C 357.29817,306.32256 355.03905,307.12985 353.67188,308.74442 C 352.30468,310.35902 351.62109,312.8525 351.62109,316.22488 C 351.62109,319.62333 352.30468,322.12984 353.67188,323.74442 C 355.03905,325.359 357.29817,326.16629 360.44922,326.16629 C 361.49087,326.16629 362.51952,326.02306 363.53516,325.7366 C 364.56378,325.46317 365.58592,325.0465 366.60156,324.4866 L 366.60156,326.30301 C 365.59894,326.77176 364.56378,327.12332 363.49609,327.3577 C 362.41535,327.59207 361.34764,327.70926 360.29297,327.70926 C 357.08983,327.70926 354.54426,326.84337 352.65625,325.1116 C 350.76823,323.36681 349.82422,320.40458 349.82422,316.22488 C 349.82422,312.04521 350.76823,309.08298 352.65625,307.33817 C 354.54426,305.60642 357.08983,304.74053 360.29297,304.74051 C 361.33462,304.74053 362.44139,304.89027 363.61328,305.18973 C 364.78514,305.47621 365.78123,305.85381 366.60156,306.32254 M 386.66016,309.01785 C 385.37108,307.221 383.61327,306.32256 381.38672,306.32254 C 379.16015,306.32256 377.40234,307.21449 376.11328,308.99832 C 374.81119,310.76917 374.16015,313.165 374.16016,316.18582 C 374.16015,319.28479 374.80468,321.71968 376.09375,323.49051 C 377.3828,325.27437 379.14713,326.16629 381.38672,326.16629 C 383.61327,326.16629 385.37108,325.27437 386.66016,323.49051 C 387.96222,321.69364 388.61326,319.25875 388.61328,316.18582 C 388.61326,313.20406 387.96222,310.81474 386.66016,309.01785 M 381.36719,304.74051 C 384.15363,304.74053 386.35415,305.7822 387.96875,307.86551 C 389.59633,309.96188 390.41013,312.74183 390.41016,316.20535 C 390.41013,319.78609 389.59633,322.61161 387.96875,324.68192 C 386.35415,326.76525 384.15363,327.80691 381.36719,327.80692 C 378.55468,327.80691 376.33463,326.77176 374.70703,324.70145 C 373.09244,322.63114 372.28515,319.79911 372.28516,316.20535 C 372.28515,312.70276 373.09895,309.91631 374.72656,307.84598 C 376.35416,305.77569 378.5677,304.74053 381.36719,304.74051 M 413.84766,310.03348 C 414.52472,308.27568 415.59243,306.94756 417.05078,306.0491 C 418.43096,305.17673 420.07159,304.74053 421.97266,304.74051 C 423.87367,304.74053 425.3971,305.4111 426.54297,306.75223 C 427.70179,308.08037 428.28122,310.4762 428.28125,313.93973 L 428.28125,327.14285 L 426.50391,327.14285 L 426.50391,314.05692 C 426.50387,311.0361 426.08721,308.99183 425.25391,307.9241 C 424.42054,306.85641 423.31377,306.32256 421.93359,306.32254 C 419.92836,306.32256 418.15753,306.94105 416.62109,308.17801 C 414.94138,309.51917 414.10154,311.71969 414.10156,314.77957 L 414.10156,327.14285 L 412.30469,327.14285 L 412.30469,314.05692 C 412.30467,311.14026 411.90102,309.12204 411.09375,308.00223 C 410.28644,306.88246 409.16665,306.32256 407.73438,306.32254 C 405.72915,306.32256 403.95832,306.94756 402.42188,308.19754 C 400.74218,309.5387 399.90234,311.73271 399.90234,314.77957 L 399.90234,327.14285 L 398.10547,327.14285 L 398.10547,305.26785 L 399.90234,305.26785 L 399.90234,309.36942 C 400.54036,307.93714 401.52994,306.80433 402.87109,305.97098 C 404.22525,305.15069 405.8854,304.74053 407.85156,304.74051 C 409.12759,304.74053 410.35806,305.17022 411.54297,306.02957 C 412.45441,306.69365 413.22264,308.02829 413.84766,310.03348 M 454.14062,315.30692 L 454.14062,316.43973 L 437.53906,316.43973 C 437.53906,319.95536 438.22265,322.4163 439.58984,323.82254 C 441.10025,325.38504 443.34634,326.16629 446.32812,326.16629 C 447.10936,326.16629 448.14452,325.99702 449.43359,325.65848 C 450.73566,325.31994 452.02472,324.81213 453.30078,324.13504 L 453.30078,326.02957 C 452.0117,326.57645 450.69009,326.99311 449.33594,327.27957 C 447.98176,327.56603 446.90754,327.70926 446.11328,327.70926 C 442.74088,327.70926 440.20182,326.7978 438.49609,324.97488 C 436.64713,323.03478 435.72265,320.18973 435.72266,316.43973 C 435.72265,312.54651 436.56901,309.64287 438.26172,307.72879 C 439.99348,305.73662 442.40233,304.74053 445.48828,304.74051 C 448.35285,304.74053 450.5143,305.68454 451.97266,307.57254 C 453.41795,309.55172 454.1406,312.12985 454.14062,315.30692 M 452.32422,314.91629 C 452.3242,311.84339 451.6341,309.60381 450.25391,308.19754 C 449.09504,306.94756 447.51952,306.32256 445.52734,306.32254 C 443.35285,306.32256 441.52994,306.9736 440.05859,308.27567 C 438.70442,309.48662 437.89062,311.70016 437.61719,314.91629 L 452.32422,314.91629 M 462.51953,324.68192 L 464.51172,324.68192 L 464.51172,327.14285 L 462.51953,327.14285 L 462.51953,324.68192 M 108.53516,363.93973 L 108.53516,377.14285 L 106.73828,377.14285 L 106.73828,364.05692 C 106.73826,361.24443 106.263,359.25225 105.3125,358.08035 C 104.36196,356.9085 102.92316,356.32256 100.99609,356.32254 C 98.782541,356.32256 97.03124,356.9736 95.742188,358.27567 C 94.453118,359.57777 93.808587,361.74573 93.808594,364.77957 L 93.808594,377.14285 L 92.011719,377.14285 L 92.011719,346.75223 L 93.808594,346.75223 L 93.808594,359.31082 C 94.225254,358.19105 94.96744,357.19496 96.035156,356.32254 C 97.311188,355.26787 99.108061,354.74053 101.42578,354.74051 C 103.58722,354.74053 105.31248,355.51527 106.60156,357.06473 C 107.8906,358.62725 108.53514,360.91891 108.53516,363.93973 M 119.29688,349.05692 L 119.29688,355.26785 L 126.69922,355.26785 L 126.69922,356.79129 L 119.29688,356.79129 L 119.29688,369.93582 C 119.29687,371.60249 119.51171,372.76786 119.94141,373.43192 C 120.82681,374.89025 122.11588,375.61942 123.80859,375.61942 L 126.69922,375.61942 L 126.69922,377.14285 L 123.90625,377.14285 C 122.12239,377.14285 120.60546,376.62202 119.35547,375.58035 C 118.10546,374.53869 117.48046,372.65718 117.48047,369.93582 L 117.48047,356.79129 L 114.86328,356.79129 L 114.86328,355.26785 L 117.48047,355.26785 L 117.48047,349.05692 L 119.29688,349.05692 M 135,349.05692 L 135,355.26785 L 142.40234,355.26785 L 142.40234,356.79129 L 135,356.79129 L 135,369.93582 C 134.99999,371.60249 135.21484,372.76786 135.64453,373.43192 C 136.52994,374.89025 137.819,375.61942 139.51172,375.61942 L 142.40234,375.61942 L 142.40234,377.14285 L 139.60938,377.14285 C 137.82551,377.14285 136.30859,376.62202 135.05859,375.58035 C 133.80859,374.53869 133.18359,372.65718 133.18359,369.93582 L 133.18359,356.79129 L 130.56641,356.79129 L 130.56641,355.26785 L 133.18359,355.26785 L 133.18359,349.05692 L 135,349.05692 M 150.60547,372.18192 L 150.60547,385.46317 L 148.84766,385.46317 L 148.84766,355.26785 L 150.60547,355.26785 L 150.60547,360.26785 C 151.42577,358.36683 152.3177,357.06475 153.28125,356.3616 C 154.75259,355.2809 156.13931,354.74053 157.44141,354.74051 C 160.03254,354.74053 162.18748,355.79522 163.90625,357.90457 C 165.62498,360.01396 166.48435,362.7874 166.48438,366.22488 C 166.48435,369.66239 165.62498,372.43583 163.90625,374.5452 C 162.18748,376.65457 160.03254,377.70926 157.44141,377.70926 C 156.13931,377.70926 154.75259,377.16889 153.28125,376.08817 C 152.3177,375.38504 151.42577,374.08296 150.60547,372.18192 M 162.32422,373.84207 C 163.83462,372.31864 164.58982,369.77958 164.58984,366.22488 C 164.58982,362.67021 163.83462,360.13115 162.32422,358.6077 C 160.82681,357.08428 159.24478,356.32256 157.57812,356.32254 C 155.95051,356.32256 154.3815,357.08428 152.87109,358.6077 C 151.37369,360.13115 150.62499,362.67021 150.625,366.22488 C 150.62499,369.77958 151.37369,372.31864 152.87109,373.84207 C 154.3815,375.36551 155.95051,376.12723 157.57812,376.12723 C 159.24478,376.12723 160.82681,375.36551 162.32422,373.84207 M 175.41016,374.64285 L 177.40234,374.64285 L 177.40234,377.14285 L 175.41016,377.14285 L 175.41016,374.64285 M 175.41016,357.9241 L 177.40234,357.9241 L 177.40234,360.40457 L 175.41016,360.40457 L 175.41016,357.9241 M 193.96484,347.9827 L 196.03516,347.9827 L 185.87891,380.85379 L 183.80859,380.85379 L 193.96484,347.9827 M 207.48047,347.9827 L 209.55078,347.9827 L 199.39453,380.85379 L 197.32422,380.85379 L 207.48047,347.9827 M 214.88281,355.26785 L 216.67969,355.26785 L 216.67969,377.53348 C 216.67968,380.50222 216.23046,382.56602 215.33203,383.72488 C 214.42057,384.88373 212.92968,385.46316 210.85938,385.46317 L 209.49219,385.46317 L 209.49219,383.93973 L 210.44922,383.93973 C 211.90755,383.93972 213.01432,383.6142 213.76953,382.96317 C 214.51171,382.31212 214.88281,380.50222 214.88281,377.53348 L 214.88281,355.26785 M 214.88281,346.75223 L 216.67969,346.75223 L 216.67969,349.21317 L 214.88281,349.21317 L 214.88281,346.75223 M 223.84766,355.26785 L 225.72266,355.26785 L 233.14453,375.1702 L 240.54688,355.26785 L 242.44141,355.26785 L 234.29688,377.14285 L 231.99219,377.14285 L 223.84766,355.26785 M 264.04297,365.95145 C 264.04295,362.91761 263.42446,360.56735 262.1875,358.90067 C 260.96353,357.221 259.23827,356.38115 257.01172,356.38113 C 254.81119,356.38115 253.09244,357.221 251.85547,358.90067 C 250.6315,360.56735 250.01953,362.91761 250.01953,365.95145 C 250.01953,368.97229 250.6315,371.32255 251.85547,373.00223 C 253.09244,374.6689 254.81119,375.50223 257.01172,375.50223 C 259.23827,375.50223 260.96353,374.6689 262.1875,373.00223 C 263.42446,371.32255 264.04295,368.97229 264.04297,365.95145 M 265.83984,374.42801 C 265.83982,378.97228 264.97394,381.94754 263.24219,383.35379 C 261.5104,384.76003 259.31639,385.46316 256.66016,385.46317 C 255.39712,385.46316 254.20572,385.37201 253.08594,385.18973 C 251.96614,384.99441 250.8789,384.70144 249.82422,384.31082 L 249.82422,382.26004 C 250.8789,382.83295 251.92057,383.25613 252.94922,383.52957 C 253.97786,383.803 255.02603,383.93972 256.09375,383.93973 C 258.26822,383.93972 260.1367,383.47748 261.69922,382.55301 C 263.2617,381.62853 264.04295,379.13504 264.04297,375.07254 L 264.04297,371.65457 C 263.5091,373.15197 262.77342,374.33036 261.83594,375.18973 C 260.40363,376.50483 258.79556,377.15587 257.01172,377.14285 C 254.23827,377.14285 252.07682,376.16629 250.52734,374.21317 C 248.97786,372.24702 248.20312,369.48661 248.20312,365.93192 C 248.20312,362.39026 248.97786,359.64287 250.52734,357.68973 C 252.07682,355.7236 254.23827,354.74053 257.01172,354.74051 C 258.78254,354.74053 260.30597,355.30043 261.58203,356.4202 C 262.5716,357.29261 263.39191,358.45798 264.04297,359.91629 L 264.04297,355.26785 L 265.83984,355.26785 L 265.83984,374.42801 M 285.87891,355.91238 L 285.87891,357.88504 C 284.61587,357.18194 283.82811,356.79131 283.51562,356.71317 C 282.60415,356.49183 281.47134,356.36162 280.11719,356.32254 C 278.05989,356.32256 276.44531,356.73272 275.27344,357.55301 C 274.37499,358.23011 273.92578,359.38896 273.92578,361.02957 C 273.92578,362.13636 274.34895,363.00224 275.19531,363.62723 C 276.09374,364.30432 277.37629,364.82516 279.04297,365.18973 L 280.27344,365.46317 C 282.34374,365.91891 283.91275,366.56344 284.98047,367.39676 C 286.21743,368.34729 286.86847,369.58427 286.93359,371.1077 C 286.93358,373.17801 286.3216,374.79911 285.09766,375.97098 C 283.79556,377.12983 281.69921,377.70926 278.80859,377.70926 C 277.194,377.70926 275.97005,377.59858 275.13672,377.37723 C 274.13411,377.09077 273.07942,376.74572 271.97266,376.34207 L 271.97266,374.09598 C 273.56119,375.00744 274.58984,375.52827 275.05859,375.65848 C 276.34765,375.99702 277.62369,376.16629 278.88672,376.16629 C 280.99608,376.16629 282.55207,375.73009 283.55469,374.8577 C 284.5703,373.97228 285.07811,372.81343 285.07812,371.38113 C 285.07811,370.18322 284.73957,369.31083 284.0625,368.76395 C 283.08592,367.98271 281.52994,367.34469 279.39453,366.84988 L 278.14453,366.55692 C 276.30859,366.12724 274.90885,365.52177 273.94531,364.74051 C 272.73437,363.76396 272.1289,362.57907 272.12891,361.18582 C 272.1289,358.89417 272.85807,357.24704 274.31641,356.24442 C 275.77473,355.24183 277.5651,354.74053 279.6875,354.74051 C 281.49738,354.74053 282.74738,354.83819 283.4375,355.03348 C 284.27082,355.26787 285.08462,355.56084 285.87891,355.91238 M 295.17578,374.68192 L 297.16797,374.68192 L 297.16797,377.14285 L 295.17578,377.14285 L 295.17578,374.68192 M 319.47266,355.91238 L 319.47266,357.88504 C 318.20962,357.18194 317.42186,356.79131 317.10938,356.71317 C 316.1979,356.49183 315.06509,356.36162 313.71094,356.32254 C 311.65364,356.32256 310.03906,356.73272 308.86719,357.55301 C 307.96874,358.23011 307.51953,359.38896 307.51953,361.02957 C 307.51953,362.13636 307.9427,363.00224 308.78906,363.62723 C 309.68749,364.30432 310.97004,364.82516 312.63672,365.18973 L 313.86719,365.46317 C 315.93749,365.91891 317.5065,366.56344 318.57422,367.39676 C 319.81118,368.34729 320.46222,369.58427 320.52734,371.1077 C 320.52733,373.17801 319.91535,374.79911 318.69141,375.97098 C 317.38931,377.12983 315.29296,377.70926 312.40234,377.70926 C 310.78775,377.70926 309.5638,377.59858 308.73047,377.37723 C 307.72786,377.09077 306.67317,376.74572 305.56641,376.34207 L 305.56641,374.09598 C 307.15494,375.00744 308.18359,375.52827 308.65234,375.65848 C 309.9414,375.99702 311.21744,376.16629 312.48047,376.16629 C 314.58983,376.16629 316.14582,375.73009 317.14844,374.8577 C 318.16405,373.97228 318.67186,372.81343 318.67188,371.38113 C 318.67186,370.18322 318.33332,369.31083 317.65625,368.76395 C 316.67967,367.98271 315.12369,367.34469 312.98828,366.84988 L 311.73828,366.55692 C 309.90234,366.12724 308.5026,365.52177 307.53906,364.74051 C 306.32812,363.76396 305.72265,362.57907 305.72266,361.18582 C 305.72265,358.89417 306.45182,357.24704 307.91016,356.24442 C 309.36848,355.24183 311.15885,354.74053 313.28125,354.74051 C 315.09113,354.74053 316.34113,354.83819 317.03125,355.03348 C 317.86457,355.26787 318.67837,355.56084 319.47266,355.91238 M 337.36328,346.75223 L 337.36328,348.27567 L 334.82422,348.27567 C 333.49608,348.27569 332.48046,348.62075 331.77734,349.31082 C 330.91796,350.1572 330.48827,351.49835 330.48828,353.33426 L 330.48828,355.26785 L 336.38672,355.26785 L 336.38672,356.79129 L 330.48828,356.79129 L 330.48828,377.14285 L 328.67188,377.14285 L 328.67188,356.79129 L 325.23438,356.79129 L 325.23438,355.26785 L 328.67188,355.26785 L 328.67188,353.74442 C 328.67187,351.30955 329.22525,349.53871 330.33203,348.43192 C 331.42577,347.31215 332.93619,346.75226 334.86328,346.75223 L 337.36328,346.75223 M 339.94141,374.68192 L 341.93359,374.68192 L 341.93359,377.14285 L 339.94141,377.14285 L 339.94141,374.68192 M 368.37891,363.93973 L 368.37891,377.14285 L 366.58203,377.14285 L 366.58203,364.05692 C 366.58201,361.21839 366.12628,359.21969 365.21484,358.06082 C 364.30337,356.90199 362.96222,356.32256 361.19141,356.32254 C 359.12108,356.32256 357.35025,356.94756 355.87891,358.19754 C 354.39452,359.46058 353.65234,361.65459 353.65234,364.77957 L 353.65234,377.14285 L 351.85547,377.14285 L 351.85547,355.26785 L 353.65234,355.26785 L 353.65234,359.36942 C 354.29036,358.04131 355.1302,357.02569 356.17188,356.32254 C 357.70832,355.26787 359.40754,354.74053 361.26953,354.74051 C 363.43097,354.74053 365.15623,355.47621 366.44531,356.94754 C 367.73435,358.40589 368.37889,360.73662 368.37891,363.93973 M 394.29688,365.30692 L 394.29688,366.43973 L 377.69531,366.43973 C 377.69531,369.95536 378.3789,372.4163 379.74609,373.82254 C 381.2565,375.38504 383.50259,376.16629 386.48438,376.16629 C 387.26561,376.16629 388.30077,375.99702 389.58984,375.65848 C 390.89191,375.31994 392.18097,374.81213 393.45703,374.13504 L 393.45703,376.02957 C 392.16795,376.57645 390.84634,376.99311 389.49219,377.27957 C 388.13801,377.56603 387.06379,377.70926 386.26953,377.70926 C 382.89713,377.70926 380.35807,376.7978 378.65234,374.97488 C 376.80338,373.03478 375.8789,370.18973 375.87891,366.43973 C 375.8789,362.54651 376.72526,359.64287 378.41797,357.72879 C 380.14973,355.73662 382.55858,354.74053 385.64453,354.74051 C 388.5091,354.74053 390.67055,355.68454 392.12891,357.57254 C 393.5742,359.55172 394.29685,362.12985 394.29688,365.30692 M 392.48047,364.91629 C 392.48045,361.84339 391.79035,359.60381 390.41016,358.19754 C 389.25129,356.94756 387.67577,356.32256 385.68359,356.32254 C 383.5091,356.32256 381.68619,356.9736 380.21484,358.27567 C 378.86067,359.48662 378.04687,361.70016 377.77344,364.91629 L 392.48047,364.91629 M 403.75,349.05692 L 403.75,355.26785 L 411.15234,355.26785 L 411.15234,356.79129 L 403.75,356.79129 L 403.75,369.93582 C 403.74999,371.60249 403.96484,372.76786 404.39453,373.43192 C 405.27994,374.89025 406.569,375.61942 408.26172,375.61942 L 411.15234,375.61942 L 411.15234,377.14285 L 408.35938,377.14285 C 406.57551,377.14285 405.05859,376.62202 403.80859,375.58035 C 402.55859,374.53869 401.93359,372.65718 401.93359,369.93582 L 401.93359,356.79129 L 399.31641,356.79129 L 399.31641,355.26785 L 401.93359,355.26785 L 401.93359,349.05692 L 403.75,349.05692"
       id="text2389"
       style="font-size:40px;font-style:normal;font-variant:normal;font-weight:200;font-stretch:normal;text-align:center;line-height:125%;writing-mode:lr-tb;text-anchor:middle;fill:none;fill-opacity:1;stroke:#000000;stroke-width:1px;stroke-linecap:butt;stroke-linejoin:miter;stroke-opacity:1;font-family:DejaVu Sans;-inkscape-font-specification:DejaVu Sans Ultra-Light" />
    <path
       d="M 161.0239,432.09949 C 162.31135,430.80093 162.95507,428.63668 162.95509,425.6067 C 162.95507,422.57675 162.31135,420.41249 161.0239,419.11392 C 159.74753,417.81538 158.39903,417.16611 156.9784,417.16609 C 155.59105,417.16611 154.25365,417.81538 152.9662,419.11392 C 151.68983,420.41249 151.05165,422.57675 151.05166,425.6067 C 151.05165,428.63668 151.68983,430.80093 152.9662,432.09949 C 154.25365,433.39804 155.59105,434.04732 156.9784,434.04732 C 158.39903,434.04732 159.74753,433.39804 161.0239,432.09949 M 151.03501,420.52902 C 151.73423,418.90861 152.49449,417.79874 153.31581,417.19938 C 154.56996,416.2782 155.75198,415.81761 156.86187,415.81759 C 159.07051,415.81761 160.90735,416.71661 162.37241,418.51459 C 163.83743,420.3126 164.56994,422.67664 164.56996,425.6067 C 164.56994,428.53679 163.83743,430.90082 162.37241,432.69882 C 160.90735,434.49682 159.07051,435.39582 156.86187,435.39582 C 155.75198,435.39582 154.56996,434.93522 153.31581,434.01402 C 152.49449,433.41469 151.73423,432.30482 151.03501,430.68439 L 151.03501,434.91302 L 149.53668,434.91302 L 149.53668,409.00849 L 151.03501,409.00849 L 151.03501,420.52902 M 177.43899,436.64443 C 176.77305,438.29815 176.05718,439.44132 175.29138,440.07395 C 174.25918,440.92855 173.2492,441.35586 172.26141,441.35586 L 169.98061,441.35586 L 169.98061,440.05731 L 171.92845,440.05731 C 172.73865,440.0573 173.44898,439.79648 174.05941,439.27484 C 174.84742,438.59781 175.4967,437.60447 176.00725,436.29482 L 176.55664,434.91302 L 169.11491,416.26709 L 170.74643,416.26709 L 177.3724,432.88195 L 184.01501,416.26709 L 185.62988,416.26709 L 177.43899,436.64443 M 202.29469,416.26709 L 203.82632,416.26709 L 203.82632,435.24599 C 203.82632,437.77651 203.44341,439.53566 202.6776,440.52345 C 201.90068,441.51124 200.62987,442.00513 198.86517,442.00514 L 197.6998,442.00514 L 197.6998,440.70658 L 198.51556,440.70658 C 199.75862,440.70658 200.70201,440.42911 201.34575,439.87418 C 201.97837,439.31923 202.29469,437.77651 202.29469,435.24599 L 202.29469,416.26709 M 202.29469,409.00849 L 203.82632,409.00849 L 203.82632,411.10616 L 202.29469,411.10616 L 202.29469,409.00849 M 219.09268,424.39139 C 216.62875,424.3914 214.85294,424.8298 213.76527,425.70659 C 212.67759,426.5834 212.13375,427.86531 212.13375,429.55232 C 212.13375,431.19494 212.58325,432.36031 213.48225,433.04843 C 214.38125,433.73656 215.44673,434.08062 216.6787,434.08062 C 219.00943,434.08062 220.68534,433.09283 221.70644,431.11724 C 222.73861,429.14167 223.25471,427.28263 223.25472,425.54011 L 223.25472,424.39139 L 219.09268,424.39139 M 224.803,424.27485 L 224.803,434.91302 L 223.28802,434.91302 L 223.28802,429.85198 C 222.4334,432.32701 221.30132,433.90304 219.89179,434.58006 C 218.77081,435.1239 217.65538,435.39582 216.54551,435.39582 C 214.69201,435.39582 213.23253,434.90193 212.16705,433.91414 C 211.10156,432.91525 210.56882,431.45021 210.56883,429.51902 C 210.56882,427.58784 211.26249,426.04511 212.64984,424.89083 C 214.03719,423.72547 216.30688,423.14279 219.45894,423.14278 L 223.25472,423.14278 L 223.25472,422.84311 C 223.25471,421.18941 222.78301,419.82981 221.83963,418.76431 C 220.90732,417.69885 219.36459,417.16611 217.21144,417.16609 C 216.14595,417.16611 215.05827,417.36588 213.9484,417.76542 C 213.23807,418.02071 212.31688,418.5368 211.18481,419.3137 L 211.18481,417.66553 C 212.17259,417.05512 213.09379,416.62227 213.9484,416.36698 C 215.19146,416.00074 216.38457,415.81761 217.52776,415.81759 C 219.7253,415.81761 221.5344,416.48353 222.95505,417.81537 C 224.187,418.95856 224.80298,421.11172 224.803,424.27485 M 243.09933,416.81648 L 243.09933,418.49794 C 242.02273,417.89862 241.35126,417.56566 241.0849,417.49905 C 240.30797,417.31039 239.34238,417.1994 238.18812,417.16609 C 236.43451,417.16611 235.05826,417.51572 234.05938,418.21492 C 233.29356,418.79207 232.91065,419.77986 232.91065,421.17829 C 232.91065,422.1217 233.27136,422.85977 233.99278,423.3925 C 234.75859,423.96965 235.85182,424.4136 237.27247,424.72435 L 238.32131,424.95743 C 240.086,425.34589 241.4234,425.89528 242.33351,426.60559 C 243.38788,427.41581 243.94282,428.47019 243.99833,429.76874 C 243.99831,431.53345 243.47667,432.91525 242.4334,433.91414 C 241.32351,434.90193 239.53661,435.39582 237.07269,435.39582 C 235.69644,435.39582 234.65316,435.30148 233.94284,435.1128 C 233.08823,434.86863 232.18923,434.57451 231.24584,434.23045 L 231.24584,432.31591 C 232.59988,433.09283 233.47669,433.53678 233.87625,433.64776 C 234.97502,433.93633 236.0627,434.08062 237.13929,434.08062 C 238.93728,434.08062 240.26358,433.70881 241.1182,432.96519 C 241.98389,432.21048 242.41674,431.22269 242.41675,430.00182 C 242.41674,428.98074 242.12817,428.23712 241.55105,427.77096 C 240.71863,427.10505 239.39233,426.56121 237.57214,426.13945 L 236.50666,425.88972 C 234.94172,425.52347 233.74861,425.00738 232.9273,424.34144 C 231.89511,423.50905 231.37902,422.49906 231.37902,421.31148 C 231.37902,419.35811 232.00055,417.95412 233.24362,417.0995 C 234.48667,416.24491 236.01275,415.81761 237.82186,415.81759 C 239.36458,415.81761 240.43006,415.90085 241.01831,416.06731 C 241.72862,416.26711 242.42229,416.51683 243.09933,416.81648 M 251.85626,430.68439 L 251.85626,442.00514 L 250.35793,442.00514 L 250.35793,416.26709 L 251.85626,416.26709 L 251.85626,420.52902 C 252.55548,418.90861 253.31574,417.79874 254.13706,417.19938 C 255.39121,416.2782 256.57323,415.81761 257.68312,415.81759 C 259.89176,415.81761 261.7286,416.71661 263.19366,418.51459 C 264.65868,420.3126 265.39119,422.67664 265.39121,425.6067 C 265.39119,428.53679 264.65868,430.90082 263.19366,432.69882 C 261.7286,434.49682 259.89176,435.39582 257.68312,435.39582 C 256.57323,435.39582 255.39121,434.93522 254.13706,434.01402 C 253.31574,433.41469 252.55548,432.30482 251.85626,430.68439 M 261.84516,432.09949 C 263.1326,430.80093 263.77632,428.63668 263.77634,425.6067 C 263.77632,422.57675 263.1326,420.41249 261.84516,419.11392 C 260.56878,417.81538 259.22028,417.16611 257.79965,417.16609 C 256.4123,417.16611 255.0749,417.81538 253.78745,419.11392 C 252.51108,420.41249 251.8729,422.57675 251.87291,425.6067 C 251.8729,428.63668 252.51108,430.80093 253.78745,432.09949 C 255.0749,433.39804 256.4123,434.04732 257.79965,434.04732 C 259.22028,434.04732 260.56878,433.39804 261.84516,432.09949 M 286.50107,424.82424 L 286.50107,425.78983 L 272.35014,425.78983 C 272.35013,428.78651 272.93282,430.88417 274.0982,432.08284 C 275.38565,433.41469 277.30018,434.08062 279.84181,434.08062 C 280.50772,434.08062 281.39008,433.93633 282.48887,433.64776 C 283.59873,433.3592 284.69751,432.92635 285.7852,432.34921 L 285.7852,433.96408 C 284.68641,434.43023 283.55988,434.78539 282.40563,435.02956 C 281.25134,435.27373 280.33569,435.39582 279.65868,435.39582 C 276.78409,435.39582 274.61983,434.61891 273.1659,433.06508 C 271.58987,431.41137 270.80186,428.98629 270.80186,425.78983 C 270.80186,422.47131 271.52328,419.99629 272.96612,418.36476 C 274.44225,416.66666 276.49552,415.81761 279.12594,415.81759 C 281.56766,415.81761 283.41005,416.62227 284.65313,418.23157 C 285.88507,419.9186 286.50106,422.11615 286.50107,424.82424 M 284.95279,424.49128 C 284.95278,421.87198 284.36454,419.96299 283.18809,418.76431 C 282.20029,417.69885 280.85734,417.16611 279.15924,417.16609 C 277.30573,417.16611 275.7519,417.72104 274.49775,418.8309 C 273.34347,419.8631 272.6498,421.74989 272.41673,424.49128 L 284.95279,424.49128 M 303.066,417.58229 C 302.82181,417.46022 302.48885,417.35478 302.06711,417.26598 C 301.68974,417.1994 301.21249,417.16611 300.63536,417.16609 C 298.74856,417.16611 297.18364,417.86533 295.94058,419.26376 C 294.96389,420.39585 294.47554,422.33813 294.47555,425.09061 L 294.47555,434.91302 L 292.97721,434.91302 L 292.97721,416.26709 L 294.47555,416.26709 L 294.47555,419.7632 C 294.97499,418.76433 295.67421,417.92082 296.57321,417.23268 C 297.81627,416.2893 299.2813,415.81761 300.96833,415.81759 C 301.40117,415.81761 301.77853,415.83425 302.1004,415.86753 C 302.43335,415.86755 302.75522,415.9064 303.066,415.98407 L 303.066,417.58229 M 305.29684,416.26709 L 306.89507,416.26709 L 313.22137,433.23156 L 319.53102,416.26709 L 321.14589,416.26709 L 314.20361,434.91302 L 312.23913,434.91302 L 305.29684,416.26709 M 340.74077,420.52902 L 340.74077,409.00849 L 342.23911,409.00849 L 342.23911,434.91302 L 340.74077,434.91302 L 340.74077,430.68439 C 340.04153,432.30482 339.28127,433.41469 338.45997,434.01402 C 337.2058,434.93522 336.02378,435.39582 334.91392,435.39582 C 332.70525,435.39582 330.86841,434.49682 329.40338,432.69882 C 327.93833,430.90082 327.20582,428.53679 327.20582,425.6067 C 327.20582,422.67664 327.93833,420.3126 329.40338,418.51459 C 330.86841,416.71661 332.70525,415.81761 334.91392,415.81759 C 336.02378,415.81761 337.2058,416.2782 338.45997,417.19938 C 339.28127,417.79874 340.04153,418.90861 340.74077,420.52902 M 330.75188,419.11392 C 329.46441,420.41249 328.82069,422.57675 328.82069,425.6067 C 328.82069,428.63668 329.46441,430.80093 330.75188,432.09949 C 332.02823,433.39804 333.37673,434.04732 334.79738,434.04732 C 336.18471,434.04732 337.52211,433.39804 338.80959,432.09949 C 340.08593,430.80093 340.72411,428.63668 340.72412,425.6067 C 340.72411,422.57675 340.08593,420.41249 338.80959,419.11392 C 337.52211,417.81538 336.18471,417.16611 334.79738,417.16609 C 333.37673,417.16611 332.02823,417.81538 330.75188,419.11392 M 348.93167,416.26709 L 350.4633,416.26709 L 350.4633,435.24599 C 350.46329,437.77651 350.08039,439.53566 349.31458,440.52345 C 348.53766,441.51124 347.26685,442.00513 345.50215,442.00514 L 344.33678,442.00514 L 344.33678,440.70658 L 345.15254,440.70658 C 346.3956,440.70658 347.33899,440.42911 347.98272,439.87418 C 348.61535,439.31923 348.93166,437.77651 348.93167,435.24599 L 348.93167,416.26709 M 348.93167,409.00849 L 350.4633,409.00849 L 350.4633,411.10616 L 348.93167,411.10616 L 348.93167,409.00849"
       id="text2395"
       style="font-size:34.09542847px;font-style:normal;font-variant:normal;font-weight:200;font-stretch:normal;text-align:start;line-height:125%;writing-mode:lr-tb;text-anchor:start;fill:none;fill-opacity:1;stroke:#000000;stroke-width:1px;stroke-linecap:butt;stroke-linejoin:miter;stroke-opacity:1;font-family:DejaVu Sans;-inkscape-font-specification:DejaVu Sans Ultra-Light" />
    <path
       d="M 390,425.71428 L 385.70245,436.29852 L 391.98515,445.8391 L 380.59092,445.0226 L 373.45875,453.946 L 370.71428,442.85714 L 360.02366,438.83152 L 369.72171,432.79473 L 370.24671,421.38336 L 378.9849,428.74128 L 390,425.71428 z"
       transform="translate(8.2813144,-12.857143)"
       id="path2399"
       style="font-size:40px;font-style:normal;font-variant:normal;font-weight:200;font-stretch:normal;text-align:start;line-height:125%;writing-mode:lr-tb;text-anchor:start;fill:none;fill-opacity:1;stroke:#000000;stroke-width:1;stroke-linejoin:round;stroke-miterlimit:4;stroke-opacity:1;font-family:DejaVu Sans;-inkscape-font-specification:DejaVu Sans Ultra-Light" />
  </g>
</svg>
