# Blender v2.92.0 OBJ File: ''
# www.blender.org
mtllib mcl_bows_arrow.mtl
o Plane
v 3.782006 1.444249 -0.000500
v 3.782006 -1.443249 -0.000500
v -3.782006 -1.443249 -0.000500
v -3.782006 1.444249 -0.000500
v 3.331104 -1.100076 -1.064829
v 3.331104 1.069925 -1.064830
v 3.331104 1.069925 1.085017
v 3.331104 -1.100076 1.085017
v 3.782006 0.001000 -1.443750
v -3.782006 0.001000 -1.443749
v -3.782006 0.001000 1.443750
v 3.782006 0.001000 1.443749
v 3.782006 1.444249 0.000500
v -3.782006 1.444249 0.000500
v -3.782006 -1.443249 0.000500
v 3.782006 -1.443249 0.000500
v 3.782006 0.000000 -1.443750
v 3.782006 -0.000000 1.443749
v -3.782006 -0.000000 1.443750
v -3.782006 0.000000 -1.443749
vt -0.000893 0.835148
vt -0.000893 1.008567
vt 0.486244 1.008567
vt 0.486244 0.835148
vt 0.159016 0.682983
vt 0.159016 0.849928
vt -0.005031 0.849928
vt -0.005031 0.682983
vt -0.000893 0.835148
vt 0.486244 0.835148
vt 0.486244 1.008567
vt -0.000893 1.008567
vt -0.000893 0.835148
vt 0.486244 0.835148
vt 0.486244 1.008567
vt -0.000893 1.008567
vt -0.000893 0.835148
vt -0.000893 1.008567
vt 0.486244 1.008567
vt 0.486244 0.835148
vn 0.0000 0.0000 -1.0000
vn 1.0000 0.0000 0.0000
vn 0.0000 1.0000 0.0000
vn 0.0000 -0.0000 1.0000
vn -0.0000 -1.0000 -0.0000
usemtl Material.002
s 1
f 1/1/1 2/2/1 3/3/1 4/4/1
f 5/5/2 6/6/2 7/7/2 8/8/2
f 9/9/3 10/10/3 11/11/3 12/12/3
f 13/13/4 14/14/4 15/15/4 16/16/4
f 17/17/5 18/18/5 19/19/5 20/20/5
