# Blender 3.6.4
# www.blender.org
mtllib jeija_wall_lever_off.mtl
o nodebox1.008
v -0.170183 0.248882 0.492124
v -0.161792 -0.249536 0.496140
v -0.161781 -0.250523 0.373114
v -0.170172 0.247894 0.369098
v 0.161753 0.245254 0.492135
v 0.170145 -0.253163 0.496151
v 0.170155 -0.254151 0.373125
v 0.161764 0.244266 0.369109
vn -0.9999 -0.0168 -0.0000
vn 0.9999 0.0168 -0.0000
vn 0.0109 0.9999 -0.0080
vn -0.0109 -0.9999 0.0080
vn 0.0001 0.0081 1.0000
vn -0.0001 -0.0081 -1.0000
vt 0.562500 1.000000
vt 0.562500 0.875000
vt 0.000000 0.875000
vt 0.000000 1.000000
vt 0.000000 0.750000
vt 0.562500 0.750000
vt 0.562450 1.000000
vt 1.000000 1.000000
vt 1.000000 0.874950
vt 0.562550 0.875050
vt 1.000000 0.750000
vt 1.000000 0.875000
vt 0.625000 0.562500
vt 0.625000 0.000000
vt 1.000000 0.000000
vt 1.000000 0.562500
vt 0.375000 0.562500
vt 0.000000 0.562500
vt 0.000000 0.000000
vt 0.375000 0.000000
s 0
usemtl lever
f 1/1/1 4/2/1 3/3/1 2/4/1
f 5/2/2 6/3/2 7/5/2 8/6/2
f 1/7/3 5/8/3 8/9/3 4/10/3
f 2/11/4 3/12/4 7/2/4 6/6/4
f 1/13/5 2/14/5 6/15/5 5/16/5
f 4/17/6 8/18/6 7/19/6 3/20/6
o nodebox1.009
v -0.070437 0.138562 0.459573
v -0.070383 0.058650 0.407149
v -0.070618 0.289563 0.117785
v -0.070672 0.369475 0.170211
v 0.054549 0.139792 0.459559
v 0.054604 0.059883 0.407135
v 0.054369 0.290797 0.117772
v 0.054313 0.370707 0.170196
vn -1.0000 -0.0008 0.0002
vn 1.0000 0.0008 -0.0002
vn -0.0076 0.7816 0.6237
vn 0.0076 -0.7816 -0.6237
vn -0.0055 0.5485 -0.8361
vt 0.562500 0.312500
vt 0.562500 0.750000
vt 0.437500 0.750000
vt 0.437500 0.312500
vt 0.437500 0.625000
vt 0.562500 0.625000
s 0
usemtl lever
f 9/21/7 12/22/7 11/23/7 10/24/7
f 13/21/8 14/24/8 15/23/8 16/22/8
f 9/24/9 13/21/9 16/22/9 12/23/9
f 10/24/10 11/23/10 15/22/10 14/21/10
f 12/25/11 16/26/11 15/22/11 11/23/11
