# Wavefront OBJ file
# Exported by Misfit Model 3D 1.3.8
# Tue Apr 02 20:27:52 2013

# 80 Vertices
v 0.500001 0.292701 0.0
v 0.46194 0.292701 -0.191342
v 0.353554 0.292701 -0.353553
v 0.191342 0.292701 -0.461939
v -0.0 0.292701 -0.499999
v -0.191342 0.292701 -0.461939
v -0.353554 0.292701 -0.353553
v -0.46194 0.292701 -0.191342
v -0.500001 0.292701 0.0
v -0.46194 0.292701 0.191342
v -0.353554 0.292701 0.353553
v -0.191342 0.292701 0.461939
v -0.0 0.292701 0.499999
v 0.191342 0.292701 0.461939
v 0.353554 0.292701 0.353553
v 0.46194 0.292701 0.191342
v 0.500001 -0.0 0.0
v 0.46194 -0.0 -0.191342
v 0.353554 -0.0 -0.353553
v 0.191342 -0.0 -0.461939
v -0.0 -0.0 -0.499999
v -0.191342 -0.0 -0.461939
v -0.353554 -0.0 -0.353553
v -0.46194 -0.0 -0.191342
v -0.500001 -0.0 0.0
v -0.46194 -0.0 0.191342
v -0.353554 -0.0 0.353553
v -0.191342 -0.0 0.461939
v -0.0 -0.0 0.499999
v 0.191342 -0.0 0.461939
v 0.353554 -0.0 0.353553
v 0.46194 -0.0 0.191342
v 0.370476 0.458077 -0.153456
v 0.401 0.458077 0.0
v 0.370476 0.458077 0.153456
v 0.28355 0.458077 0.283549
v 0.153456 0.458077 0.370475
v -0.0 0.458077 0.400999
v -0.153456 0.458077 0.370475
v -0.28355 0.458077 0.283549
v -0.370476 0.458077 0.153456
v -0.401 0.458077 0.0
v -0.370476 0.458077 -0.153456
v -0.28355 0.458077 -0.283549
v -0.153456 0.458077 -0.370475
v -0.0 0.458077 -0.400999
v 0.153456 0.458077 -0.370475
v 0.28355 0.458077 -0.283549
v 0.277116 0.458077 -0.114785
v 0.299948 0.458077 0.0
v 0.277116 0.458077 0.114785
v 0.212096 0.458077 0.212095
v 0.114785 0.458077 0.277115
v -0.0 0.458077 0.299947
v -0.114786 0.458077 0.277115
v -0.212096 0.458077 0.212095
v -0.277116 0.458077 0.114785
v -0.299948 0.458077 0.0
v -0.277116 0.458077 -0.114785
v -0.212096 0.458077 -0.212095
v -0.114786 0.458077 -0.277115
v -0.0 0.458077 -0.299947
v 0.114785 0.458077 -0.277115
v 0.212096 0.458077 -0.212095
v 0.217813 0.101682 -0.090221
v 0.235759 0.101682 0.0
v 0.217813 0.101682 0.090221
v 0.166707 0.101682 0.166707
v 0.090221 0.101682 0.217813
v -0.0 0.101682 0.235759
v -0.090221 0.101682 0.217813
v -0.166707 0.101682 0.166707
v -0.217813 0.101682 0.090221
v -0.235759 0.101682 0.0
v -0.217813 0.101682 -0.090221
v -0.166707 0.101682 -0.166707
v -0.090221 0.101682 -0.217813
v -0.0 0.101682 -0.235759
v 0.090221 0.101682 -0.217813
v 0.166707 0.101682 -0.166707

# 426 Texture Coordinates
vt 1.0 0.0
vt 0.0 0.0
vt 0.0 1.0
vt 1.0 0.0
vt 0.0 0.0
vt 0.0 1.0
vt 1.0 0.0
vt 0.0 0.0
vt 0.0 1.0
vt 1.0 0.0
vt 0.0 0.0
vt 0.0 1.0
vt 1.0 0.0
vt 0.0 0.0
vt 0.0 1.0
vt 1.0 0.0
vt 0.0 0.0
vt 0.0 1.0
vt 1.0 0.0
vt 0.0 0.0
vt 0.0 1.0
vt 1.0 0.0
vt 0.0 0.0
vt 0.0 1.0
vt 1.0 0.0
vt 0.0 0.0
vt 0.0 1.0
vt 1.0 0.0
vt 0.0 0.0
vt 0.0 1.0
vt 1.0 0.0
vt 0.0 0.0
vt 0.0 1.0
vt 1.0 0.0
vt 0.0 0.0
vt 0.0 1.0
vt 1.0 0.0
vt 0.0 0.0
vt 0.0 1.0
vt 1.0 0.0
vt 0.0 0.0
vt 0.0 1.0
vt 1.0 0.0
vt 0.0 0.0
vt 0.0 1.0
vt 1.0 0.0
vt 0.0 0.0
vt 0.0 1.0
vt 1.0 0.0
vt 0.0 0.0
vt 0.0 1.0
vt 1.0 0.0
vt 0.0 0.0
vt 0.0 1.0
vt 1.0 0.0
vt 0.0 0.0
vt 0.0 1.0
vt 1.0 0.0
vt 0.0 0.0
vt 0.0 1.0
vt 1.0 0.0
vt 0.0 0.0
vt 0.0 1.0
vt 1.0 0.0
vt 0.0 0.0
vt 0.0 1.0
vt 1.0 0.0
vt 0.0 0.0
vt 0.0 1.0
vt 1.0 0.0
vt 0.0 0.0
vt 0.0 1.0
vt 1.0 0.0
vt 0.0 0.0
vt 0.0 1.0
vt 1.0 0.0
vt 0.0 0.0
vt 0.0 1.0
vt 1.0 0.0
vt 0.0 0.0
vt 0.0 1.0
vt 1.0 0.0
vt 0.0 0.0
vt 0.0 1.0
vt 1.0 0.0
vt 0.0 0.0
vt 0.0 1.0
vt 1.0 0.0
vt 0.0 0.0
vt 0.0 1.0
vt 1.0 0.0
vt 0.0 0.0
vt 0.0 1.0
vt 1.0 0.0
vt 0.0 0.0
vt 0.0 1.0
vt 1.0 0.0
vt 0.0 0.0
vt 0.0 1.0
vt 1.0 0.0
vt 0.0 0.0
vt 0.0 1.0
vt 1.0 0.0
vt 0.0 0.0
vt 0.0 1.0
vt 1.0 0.0
vt 0.0 0.0
vt 0.0 1.0
vt 1.0 0.0
vt 0.0 0.0
vt 0.0 1.0
vt 1.0 0.0
vt 0.0 0.0
vt 0.0 1.0
vt 1.0 0.0
vt 0.0 0.0
vt 0.0 1.0
vt 1.0 0.0
vt 0.0 0.0
vt 0.0 1.0
vt 1.0 0.0
vt 0.0 0.0
vt 0.0 1.0
vt 1.0 0.0
vt 0.0 0.0
vt 0.0 1.0
vt 1.0 0.0
vt 0.0 0.0
vt 0.0 1.0
vt 1.0 0.0
vt 0.0 0.0
vt 0.0 1.0
vt 1.0 0.0
vt 0.0 0.0
vt 0.0 1.0
vt 1.0 0.0
vt 0.0 0.0
vt 0.0 1.0
vt 1.0 0.0
vt 0.0 0.0
vt 0.0 1.0
vt 1.0 0.0
vt 0.0 0.0
vt 0.0 1.0
vt 1.0 0.0
vt 0.0 0.0
vt 0.0 1.0
vt 1.0 0.0
vt 0.0 0.0
vt 0.0 1.0
vt 1.0 0.0
vt 0.0 0.0
vt 0.0 1.0
vt 1.0 0.0
vt 0.0 0.0
vt 0.0 1.0
vt 1.0 0.0
vt 0.0 0.0
vt 0.0 1.0
vt 1.0 0.0
vt 0.0 0.0
vt 0.0 1.0
vt 1.0 0.0
vt 0.0 0.0
vt 0.0 1.0
vt 1.0 0.0
vt 0.0 0.0
vt 0.0 1.0
vt 1.0 0.0
vt 0.0 0.0
vt 0.0 1.0
vt 1.0 0.0
vt 0.0 0.0
vt 0.0 1.0
vt 1.0 0.0
vt 0.0 0.0
vt 0.0 1.0
vt 1.0 0.0
vt 0.0 0.0
vt 0.0 1.0
vt 1.0 0.0
vt 0.0 0.0
vt 0.0 1.0
vt 1.0 0.0
vt 0.0 0.0
vt 0.0 1.0
vt 1.0 0.0
vt 0.0 0.0
vt 0.0 1.0
vt 1.0 0.0
vt 0.0 0.0
vt 0.0 1.0
vt 1.0 0.0
vt 0.0 0.0
vt 0.0 1.0
vt 1.0 0.0
vt 0.0 0.0
vt 0.0 1.0
vt 1.0 0.0
vt 0.0 0.0
vt 0.0 1.0
vt 1.0 0.0
vt 0.0 0.0
vt 0.0 1.0
vt 1.0 0.0
vt 0.0 0.0
vt 0.0 1.0
vt 1.0 0.0
vt 0.0 0.0
vt 0.0 1.0
vt 1.0 0.0
vt 0.0 0.0
vt 0.0 1.0
vt 1.0 0.0
vt 0.0 0.0
vt 0.0 1.0
vt 1.0 0.0
vt 0.0 0.0
vt 0.0 1.0
vt 1.0 0.0
vt 0.0 0.0
vt 0.0 1.0
vt 1.0 0.0
vt 0.0 0.0
vt 0.0 1.0
vt 1.0 0.0
vt 0.0 0.0
vt 0.0 1.0
vt 1.0 0.0
vt 0.0 0.0
vt 0.0 1.0
vt 1.0 0.0
vt 0.0 0.0
vt 0.0 1.0
vt 1.0 0.0
vt 0.0 0.0
vt 0.0 1.0
vt 1.0 0.0
vt 0.0 0.0
vt 0.0 1.0
vt 1.0 0.0
vt 0.0 0.0
vt 0.0 1.0
vt 1.0 0.0
vt 0.0 0.0
vt 0.0 1.0
vt 1.0 0.0
vt 0.0 0.0
vt 0.0 1.0
vt 1.0 0.0
vt 0.0 0.0
vt 0.0 1.0
vt 1.0 0.0
vt 0.0 0.0
vt 0.0 1.0
vt 1.0 0.0
vt 0.0 0.0
vt 0.0 1.0
vt 1.0 0.0
vt 0.0 0.0
vt 0.0 1.0
vt 1.0 0.0
vt 0.0 0.0
vt 0.0 1.0
vt 1.0 0.0
vt 0.0 0.0
vt 0.0 1.0
vt 1.0 0.0
vt 0.0 0.0
vt 0.0 1.0
vt 1.0 0.0
vt 0.0 0.0
vt 0.0 1.0
vt 1.0 0.0
vt 0.0 0.0
vt 0.0 1.0
vt 1.0 0.0
vt 0.0 0.0
vt 0.0 1.0
vt 1.0 0.0
vt 0.0 0.0
vt 0.0 1.0
vt 1.0 0.0
vt 0.0 0.0
vt 0.0 1.0
vt 1.0 0.0
vt 0.0 0.0
vt 0.0 1.0
vt 1.0 0.0
vt 0.0 0.0
vt 0.0 1.0
vt 1.0 0.0
vt 0.0 0.0
vt 0.0 1.0
vt 1.0 0.0
vt 0.0 0.0
vt 0.0 1.0
vt 1.0 0.0
vt 0.0 0.0
vt 0.0 1.0
vt 1.0 0.0
vt 0.0 0.0
vt 0.0 1.0
vt 1.0 0.0
vt 0.0 0.0
vt 0.0 1.0
vt 1.0 0.0
vt 0.0 0.0
vt 0.0 1.0
vt 1.0 0.0
vt 0.0 0.0
vt 0.0 1.0
vt 1.0 0.0
vt 0.0 0.0
vt 0.0 1.0
vt 1.0 0.0
vt 0.0 0.0
vt 0.0 1.0
vt 1.0 0.0
vt 0.0 0.0
vt 0.0 1.0
vt 1.0 0.0
vt 0.0 0.0
vt 0.0 1.0
vt 1.0 0.0
vt 0.0 0.0
vt 0.0 1.0
vt 1.0 0.0
vt 0.0 0.0
vt 0.0 1.0
vt 1.0 0.0
vt 0.0 0.0
vt 0.0 1.0
vt 1.0 0.0
vt 0.0 0.0
vt 0.0 1.0
vt 1.0 0.0
vt 0.0 0.0
vt 0.0 1.0
vt 1.0 0.0
vt 0.0 0.0
vt 0.0 1.0
vt 1.0 0.0
vt 0.0 0.0
vt 0.0 1.0
vt 1.0 0.0
vt 0.0 0.0
vt 0.0 1.0
vt 1.0 0.0
vt 0.0 0.0
vt 0.0 1.0
vt 1.0 0.0
vt 0.0 0.0
vt 0.0 1.0
vt 1.0 0.0
vt 0.0 0.0
vt 0.0 1.0
vt 1.0 0.0
vt 0.0 0.0
vt 0.0 1.0
vt 1.0 0.0
vt 0.0 0.0
vt 0.0 1.0
vt 1.0 0.0
vt 0.0 0.0
vt 0.0 1.0
vt 1.0 0.0
vt 0.0 0.0
vt 0.0 1.0
vt 1.0 0.0
vt 0.0 0.0
vt 0.0 1.0
vt 1.0 0.0
vt 0.0 0.0
vt 0.0 1.0
vt 1.0 0.0
vt 0.0 0.0
vt 0.0 1.0
vt 1.0 0.0
vt 0.0 0.0
vt 0.0 1.0
vt 1.0 0.0
vt 0.0 0.0
vt 0.0 1.0
vt 1.0 0.0
vt 0.0 0.0
vt 0.0 1.0
vt 1.0 0.0
vt 0.0 0.0
vt 0.0 1.0
vt 1.0 0.0
vt 0.0 0.0
vt 0.0 1.0
vt 1.0 0.0
vt 0.0 0.0
vt 0.0 1.0
vt 1.0 0.0
vt 0.0 0.0
vt 0.0 1.0
vt 1.0 0.0
vt 0.0 0.0
vt 0.0 1.0
vt 1.0 0.0
vt 0.0 0.0
vt 0.0 1.0
vt 1.0 0.0
vt 0.0 0.0
vt 0.0 1.0
vt 1.0 0.0
vt 0.0 0.0
vt 0.0 1.0
vt 1.0 0.0
vt 0.0 0.0
vt 0.0 1.0
vt 1.0 0.0
vt 0.0 0.0
vt 0.0 1.0
vt 1.0 0.0
vt 0.0 0.0
vt 0.0 1.0
vt 1.0 0.0
vt 0.0 0.0
vt 0.0 1.0
vt 1.0 0.0
vt 0.0 0.0
vt 0.0 1.0

# 426 Vertex Normals
vn 0.947173 -0.0 0.320723
vn 0.997809 0.0 -0.066159
vn 0.963652 0.26712 0.004723
vn 0.88849 0.26712 0.373138
vn 0.947173 -0.0 0.320723
vn 0.963652 0.26712 0.004723
vn 0.752338 -0.0 0.658778
vn 0.947173 -0.0 0.320723
vn 0.88849 0.26712 0.373138
vn 0.678065 0.267119 0.684745
vn 0.752338 -0.0 0.658778
vn 0.88849 0.26712 0.373138
vn 0.442968 0.0 0.896537
vn 0.752338 -0.0 0.658778
vn 0.678065 0.267119 0.684745
vn 0.364411 0.267119 0.892105
vn 0.442968 0.0 0.896537
vn 0.678065 0.267119 0.684745
vn 0.066159 0.0 0.997809
vn 0.442968 0.0 0.896537
vn 0.364411 0.267119 0.892105
vn -0.004723 0.267119 0.963652
vn 0.066159 0.0 0.997809
vn 0.364411 0.267119 0.892105
vn -0.320722 -0.0 0.947173
vn 0.066159 0.0 0.997809
vn -0.004723 0.267119 0.963652
vn -0.373137 0.267119 0.888491
vn -0.320722 -0.0 0.947173
vn -0.004723 0.267119 0.963652
vn -0.658776 -0.0 0.752339
vn -0.320722 -0.0 0.947173
vn -0.373137 0.267119 0.888491
vn -0.684743 0.267119 0.678066
vn -0.658776 -0.0 0.752339
vn -0.373137 0.267119 0.888491
vn -0.896537 -0.0 0.44297
vn -0.658776 -0.0 0.752339
vn -0.684743 0.267119 0.678066
vn -0.892105 0.26712 0.364412
vn -0.896537 -0.0 0.44297
vn -0.684743 0.267119 0.678066
vn -0.997809 -0.0 0.066159
vn -0.896537 -0.0 0.44297
vn -0.892105 0.26712 0.364412
vn -0.963652 0.26712 -0.004723
vn -0.997809 -0.0 0.066159
vn -0.892105 0.26712 0.364412
vn -0.947173 0.0 -0.320723
vn -0.997809 -0.0 0.066159
vn -0.963652 0.26712 -0.004723
vn -0.88849 0.26712 -0.373138
vn -0.947173 0.0 -0.320723
vn -0.963652 0.26712 -0.004723
vn -0.752338 0.0 -0.658778
vn -0.947173 0.0 -0.320723
vn -0.88849 0.26712 -0.373138
vn -0.678065 0.267119 -0.684745
vn -0.752338 0.0 -0.658778
vn -0.88849 0.26712 -0.373138
vn -0.442968 0.0 -0.896537
vn -0.752338 0.0 -0.658778
vn -0.678065 0.267119 -0.684745
vn -0.364411 0.267119 -0.892106
vn -0.442968 0.0 -0.896537
vn -0.678065 0.267119 -0.684745
vn -0.066159 0.0 -0.997809
vn -0.442968 0.0 -0.896537
vn -0.364411 0.267119 -0.892106
vn 0.004723 0.267119 -0.963652
vn -0.066159 0.0 -0.997809
vn -0.364411 0.267119 -0.892106
vn 0.320722 0.0 -0.947173
vn -0.066159 0.0 -0.997809
vn 0.004723 0.267119 -0.963652
vn 0.373137 0.267119 -0.888491
vn 0.320722 0.0 -0.947173
vn 0.004723 0.267119 -0.963652
vn 0.658776 0.0 -0.752339
vn 0.320722 0.0 -0.947173
vn 0.373137 0.267119 -0.888491
vn 0.684743 0.267119 -0.678066
vn 0.658776 0.0 -0.752339
vn 0.373137 0.267119 -0.888491
vn 0.896536 0.0 -0.44297
vn 0.658776 0.0 -0.752339
vn 0.684743 0.267119 -0.678066
vn 0.892105 0.267119 -0.364412
vn 0.896536 0.0 -0.44297
vn 0.684743 0.267119 -0.678066
vn 0.997809 0.0 -0.066159
vn 0.896536 0.0 -0.44297
vn 0.892105 0.267119 -0.364412
vn 0.963652 0.26712 0.004723
vn 0.997809 0.0 -0.066159
vn 0.892105 0.267119 -0.364412
vn 0.464501 0.871493 -0.157285
vn 0.489334 0.871493 0.032445
vn 0.963652 0.26712 0.004723
vn 0.892105 0.267119 -0.364412
vn 0.464501 0.871493 -0.157285
vn 0.963652 0.26712 0.004723
vn 0.489334 0.871493 0.032445
vn 0.439669 0.871493 0.217236
vn 0.88849 0.26712 0.373138
vn 0.963652 0.26712 0.004723
vn 0.489334 0.871493 0.032445
vn 0.88849 0.26712 0.373138
vn 0.439669 0.871493 0.217236
vn 0.323069 0.871493 0.368954
vn 0.678065 0.267119 0.684745
vn 0.88849 0.26712 0.373138
vn 0.439669 0.871493 0.217236
vn 0.678065 0.267119 0.684745
vn 0.323069 0.871493 0.368954
vn 0.157285 0.871493 0.464502
vn 0.364411 0.267119 0.892105
vn 0.678065 0.267119 0.684745
vn 0.323069 0.871493 0.368954
vn 0.364411 0.267119 0.892105
vn 0.157285 0.871493 0.464502
vn -0.032445 0.871493 0.489334
vn -0.004723 0.267119 0.963652
vn 0.364411 0.267119 0.892105
vn 0.157285 0.871493 0.464502
vn -0.004723 0.267119 0.963652
vn -0.032445 0.871493 0.489334
vn -0.217235 0.871493 0.439669
vn -0.373137 0.267119 0.888491
vn -0.004723 0.267119 0.963652
vn -0.032445 0.871493 0.489334
vn -0.373137 0.267119 0.888491
vn -0.217235 0.871493 0.439669
vn -0.368953 0.871493 0.32307
vn -0.684743 0.267119 0.678066
vn -0.373137 0.267119 0.888491
vn -0.217235 0.871493 0.439669
vn -0.684743 0.267119 0.678066
vn -0.368953 0.871493 0.32307
vn -0.464501 0.871493 0.157285
vn -0.892105 0.26712 0.364412
vn -0.684743 0.267119 0.678066
vn -0.368953 0.871493 0.32307
vn -0.892105 0.26712 0.364412
vn -0.464501 0.871493 0.157285
vn -0.489334 0.871493 -0.032445
vn -0.963652 0.26712 -0.004723
vn -0.892105 0.26712 0.364412
vn -0.464501 0.871493 0.157285
vn -0.963652 0.26712 -0.004723
vn -0.489334 0.871493 -0.032445
vn -0.439669 0.871493 -0.217236
vn -0.88849 0.26712 -0.373138
vn -0.963652 0.26712 -0.004723
vn -0.489334 0.871493 -0.032445
vn -0.88849 0.26712 -0.373138
vn -0.439669 0.871493 -0.217236
vn -0.323069 0.871493 -0.368954
vn -0.678065 0.267119 -0.684745
vn -0.88849 0.26712 -0.373138
vn -0.439669 0.871493 -0.217236
vn -0.678065 0.267119 -0.684745
vn -0.323069 0.871493 -0.368954
vn -0.157285 0.871493 -0.464502
vn -0.364411 0.267119 -0.892106
vn -0.678065 0.267119 -0.684745
vn -0.323069 0.871493 -0.368954
vn -0.364411 0.267119 -0.892106
vn -0.157285 0.871493 -0.464502
vn 0.032445 0.871493 -0.489334
vn 0.004723 0.267119 -0.963652
vn -0.364411 0.267119 -0.892106
vn -0.157285 0.871493 -0.464502
vn 0.004723 0.267119 -0.963652
vn 0.032445 0.871493 -0.489334
vn 0.217235 0.871493 -0.439669
vn 0.373137 0.267119 -0.888491
vn 0.004723 0.267119 -0.963652
vn 0.032445 0.871493 -0.489334
vn 0.373137 0.267119 -0.888491
vn 0.217235 0.871493 -0.439669
vn 0.368953 0.871493 -0.32307
vn 0.684743 0.267119 -0.678066
vn 0.373137 0.267119 -0.888491
vn 0.217235 0.871493 -0.439669
vn 0.684743 0.267119 -0.678066
vn 0.368953 0.871493 -0.32307
vn 0.464501 0.871493 -0.157285
vn 0.892105 0.267119 -0.364412
vn 0.684743 0.267119 -0.678066
vn 0.368953 0.871493 -0.32307
vn 0.892105 0.267119 -0.364412
vn -0.570346 0.771553 0.2818
vn -0.634772 0.771553 0.042088
vn 0.489334 0.871493 0.032445
vn 0.464501 0.871493 -0.157285
vn -0.570346 0.771553 0.2818
vn 0.489334 0.871493 0.032445
vn -0.634772 0.771553 0.042088
vn -0.602559 0.771553 -0.204031
vn 0.439669 0.871493 0.217236
vn 0.489334 0.871493 0.032445
vn -0.634772 0.771553 0.042088
vn 0.439669 0.871493 0.217236
vn -0.602559 0.771553 -0.204031
vn -0.478611 0.771553 -0.419091
vn 0.323069 0.871493 0.368954
vn 0.439669 0.871493 0.217236
vn -0.602559 0.771553 -0.204031
vn 0.323069 0.871493 0.368954
vn -0.478611 0.771553 -0.419091
vn -0.281799 0.771553 -0.570346
vn 0.157285 0.871493 0.464502
vn 0.323069 0.871493 0.368954
vn -0.478611 0.771553 -0.419091
vn 0.157285 0.871493 0.464502
vn -0.281799 0.771553 -0.570346
vn -0.042087 0.771553 -0.634772
vn -0.032445 0.871493 0.489334
vn 0.157285 0.871493 0.464502
vn -0.281799 0.771553 -0.570346
vn -0.032445 0.871493 0.489334
vn -0.042087 0.771553 -0.634772
vn 0.204031 0.771553 -0.602559
vn -0.217235 0.871493 0.439669
vn -0.032445 0.871493 0.489334
vn -0.042087 0.771553 -0.634772
vn -0.217235 0.871493 0.439669
vn 0.204031 0.771553 -0.602559
vn 0.41909 0.771553 -0.478612
vn -0.368953 0.871493 0.32307
vn -0.217235 0.871493 0.439669
vn 0.204031 0.771553 -0.602559
vn -0.368953 0.871493 0.32307
vn 0.41909 0.771553 -0.478612
vn 0.570346 0.771553 -0.2818
vn -0.464501 0.871493 0.157285
vn -0.368953 0.871493 0.32307
vn 0.41909 0.771553 -0.478612
vn -0.464501 0.871493 0.157285
vn 0.570346 0.771553 -0.2818
vn 0.634772 0.771553 -0.042088
vn -0.489334 0.871493 -0.032445
vn -0.464501 0.871493 0.157285
vn 0.570346 0.771553 -0.2818
vn -0.489334 0.871493 -0.032445
vn 0.634772 0.771553 -0.042088
vn 0.602559 0.771553 0.204031
vn -0.439669 0.871493 -0.217236
vn -0.489334 0.871493 -0.032445
vn 0.634772 0.771553 -0.042088
vn -0.439669 0.871493 -0.217236
vn 0.602559 0.771553 0.204031
vn 0.478611 0.771553 0.419091
vn -0.323069 0.871493 -0.368954
vn -0.439669 0.871493 -0.217236
vn 0.602559 0.771553 0.204031
vn -0.323069 0.871493 -0.368954
vn 0.478611 0.771553 0.419091
vn 0.281799 0.771553 0.570346
vn -0.157285 0.871493 -0.464502
vn -0.323069 0.871493 -0.368954
vn 0.478611 0.771553 0.419091
vn -0.157285 0.871493 -0.464502
vn 0.281799 0.771553 0.570346
vn 0.042087 0.771553 0.634772
vn 0.032445 0.871493 -0.489334
vn -0.157285 0.871493 -0.464502
vn 0.281799 0.771553 0.570346
vn 0.032445 0.871493 -0.489334
vn 0.042087 0.771553 0.634772
vn -0.204031 0.771553 0.602559
vn 0.217235 0.871493 -0.439669
vn 0.032445 0.871493 -0.489334
vn 0.042087 0.771553 0.634772
vn 0.217235 0.871493 -0.439669
vn -0.204031 0.771553 0.602559
vn -0.41909 0.771553 0.478612
vn 0.368953 0.871493 -0.32307
vn 0.217235 0.871493 -0.439669
vn -0.204031 0.771553 0.602559
vn 0.368953 0.871493 -0.32307
vn -0.41909 0.771553 0.478612
vn -0.570346 0.771553 0.2818
vn 0.464501 0.871493 -0.157285
vn 0.368953 0.871493 -0.32307
vn -0.41909 0.771553 0.478612
vn 0.464501 0.871493 -0.157285
vn -0.838943 0.464195 0.284074
vn -0.195653 0.980587 -0.012973
vn -0.634772 0.771553 0.042088
vn -0.570346 0.771553 0.2818
vn -0.838943 0.464195 0.284074
vn -0.634772 0.771553 0.042088
vn -0.195653 0.980587 -0.012973
vn -0.794093 0.464196 -0.392351
vn -0.602559 0.771553 -0.204031
vn -0.634772 0.771553 0.042088
vn -0.195653 0.980587 -0.012973
vn -0.602559 0.771553 -0.204031
vn -0.794093 0.464196 -0.392351
vn -0.49739 0.655699 -0.568033
vn -0.478611 0.771553 -0.419091
vn -0.602559 0.771553 -0.204031
vn -0.794093 0.464196 -0.392351
vn -0.478611 0.771553 -0.419091
vn -0.49739 0.655699 -0.568033
vn -0.242151 0.655699 -0.715138
vn -0.281799 0.771553 -0.570346
vn -0.478611 0.771553 -0.419091
vn -0.49739 0.655699 -0.568033
vn -0.281799 0.771553 -0.570346
vn -0.242151 0.655699 -0.715138
vn 0.049951 0.655698 -0.753369
vn -0.042087 0.771553 -0.634772
vn -0.281799 0.771553 -0.570346
vn -0.242151 0.655699 -0.715138
vn -0.042087 0.771553 -0.634772
vn 0.049951 0.655698 -0.753369
vn 0.334449 0.655699 -0.676906
vn 0.204031 0.771553 -0.602559
vn -0.042087 0.771553 -0.634772
vn 0.049951 0.655698 -0.753369
vn 0.204031 0.771553 -0.602559
vn 0.334449 0.655699 -0.676906
vn 0.568032 0.655699 -0.497391
vn 0.41909 0.771553 -0.478612
vn 0.204031 0.771553 -0.602559
vn 0.334449 0.655699 -0.676906
vn 0.41909 0.771553 -0.478612
vn 0.568032 0.655699 -0.497391
vn 0.715137 0.655699 -0.242152
vn 0.570346 0.771553 -0.2818
vn 0.41909 0.771553 -0.478612
vn 0.568032 0.655699 -0.497391
vn 0.570346 0.771553 -0.2818
vn 0.715137 0.655699 -0.242152
vn 0.753369 0.655699 0.049951
vn 0.634772 0.771553 -0.042088
vn 0.570346 0.771553 -0.2818
vn 0.715137 0.655699 -0.242152
vn 0.634772 0.771553 -0.042088
vn 0.753369 0.655699 0.049951
vn 0.676906 0.655699 0.33445
vn 0.602559 0.771553 0.204031
vn 0.634772 0.771553 -0.042088
vn 0.753369 0.655699 0.049951
vn 0.602559 0.771553 0.204031
vn 0.676906 0.655699 0.33445
vn 0.497389 0.655699 0.568034
vn 0.478611 0.771553 0.419091
vn 0.602559 0.771553 0.204031
vn 0.676906 0.655699 0.33445
vn 0.478611 0.771553 0.419091
vn 0.497389 0.655699 0.568034
vn 0.242151 0.655699 0.715138
vn 0.281799 0.771553 0.570346
vn 0.478611 0.771553 0.419091
vn 0.497389 0.655699 0.568034
vn 0.281799 0.771553 0.570346
vn 0.242151 0.655699 0.715138
vn -0.049951 0.655698 0.753369
vn 0.042087 0.771553 0.634772
vn 0.281799 0.771553 0.570346
vn 0.242151 0.655699 0.715138
vn 0.042087 0.771553 0.634772
vn -0.049951 0.655698 0.753369
vn -0.334449 0.655699 0.676906
vn -0.204031 0.771553 0.602559
vn 0.042087 0.771553 0.634772
vn -0.049951 0.655698 0.753369
vn -0.204031 0.771553 0.602559
vn -0.334449 0.655699 0.676906
vn -0.568032 0.655699 0.497391
vn -0.41909 0.771553 0.478612
vn -0.204031 0.771553 0.602559
vn -0.334449 0.655699 0.676906
vn -0.41909 0.771553 0.478612
vn -0.568032 0.655699 0.497391
vn -0.838943 0.464195 0.284074
vn -0.570346 0.771553 0.2818
vn -0.41909 0.771553 0.478612
vn -0.568032 0.655699 0.497391
vn -0.570346 0.771553 0.2818
vn -0.49739 0.655699 -0.568033
vn -0.794093 0.464196 -0.392351
vn -0.195653 0.980587 -0.012973
vn -0.242151 0.655699 -0.715138
vn -0.49739 0.655699 -0.568033
vn -0.195653 0.980587 -0.012973
vn 0.049951 0.655698 -0.753369
vn -0.242151 0.655699 -0.715138
vn -0.195653 0.980587 -0.012973
vn 0.334449 0.655699 -0.676906
vn 0.049951 0.655698 -0.753369
vn -0.195653 0.980587 -0.012973
vn 0.568032 0.655699 -0.497391
vn 0.334449 0.655699 -0.676906
vn -0.195653 0.980587 -0.012973
vn 0.715137 0.655699 -0.242152
vn 0.568032 0.655699 -0.497391
vn -0.195653 0.980587 -0.012973
vn 0.753369 0.655699 0.049951
vn 0.715137 0.655699 -0.242152
vn -0.195653 0.980587 -0.012973
vn 0.676906 0.655699 0.33445
vn 0.753369 0.655699 0.049951
vn -0.195653 0.980587 -0.012973
vn 0.497389 0.655699 0.568034
vn 0.676906 0.655699 0.33445
vn -0.195653 0.980587 -0.012973
vn 0.242151 0.655699 0.715138
vn 0.497389 0.655699 0.568034
vn -0.195653 0.980587 -0.012973
vn -0.049951 0.655698 0.753369
vn 0.242151 0.655699 0.715138
vn -0.195653 0.980587 -0.012973
vn -0.334449 0.655699 0.676906
vn -0.049951 0.655698 0.753369
vn -0.195653 0.980587 -0.012973
vn -0.568032 0.655699 0.497391
vn -0.334449 0.655699 0.676906
vn -0.195653 0.980587 -0.012973
vn -0.838943 0.464195 0.284074
vn -0.568032 0.655699 0.497391
vn -0.195653 0.980587 -0.012973

# sad, 128 grouped triangles

o sad
g sad

f 32/1/1 17/2/2 1/3/3
f 16/4/4 32/5/5 1/6/6
f 31/7/7 32/8/8 16/9/9
f 15/10/10 31/11/11 16/12/12
f 30/13/13 31/14/14 15/15/15
f 14/16/16 30/17/17 15/18/18
f 29/19/19 30/20/20 14/21/21
f 13/22/22 29/23/23 14/24/24
f 28/25/25 29/26/26 13/27/27
f 12/28/28 28/29/29 13/30/30
f 27/31/31 28/32/32 12/33/33
f 11/34/34 27/35/35 12/36/36
f 26/37/37 27/38/38 11/39/39
f 10/40/40 26/41/41 11/42/42
f 25/43/43 26/44/44 10/45/45
f 9/46/46 25/47/47 10/48/48
f 24/49/49 25/50/50 9/51/51
f 8/52/52 24/53/53 9/54/54
f 23/55/55 24/56/56 8/57/57
f 7/58/58 23/59/59 8/60/60
f 22/61/61 23/62/62 7/63/63
f 6/64/64 22/65/65 7/66/66
f 21/67/67 22/68/68 6/69/69
f 5/70/70 21/71/71 6/72/72
f 20/73/73 21/74/74 5/75/75
f 4/76/76 20/77/77 5/78/78
f 19/79/79 20/80/80 4/81/81
f 3/82/82 19/83/83 4/84/84
f 18/85/85 19/86/86 3/87/87
f 2/88/88 18/89/89 3/90/90
f 17/91/91 18/92/92 2/93/93
f 1/94/94 17/95/95 2/96/96
f 33/97/97 34/98/98 1/99/99
f 2/100/100 33/101/101 1/102/102
f 34/103/103 35/104/104 16/105/105
f 1/106/106 34/107/107 16/108/108
f 35/109/109 36/110/110 15/111/111
f 16/112/112 35/113/113 15/114/114
f 36/115/115 37/116/116 14/117/117
f 15/118/118 36/119/119 14/120/120
f 37/121/121 38/122/122 13/123/123
f 14/124/124 37/125/125 13/126/126
f 38/127/127 39/128/128 12/129/129
f 13/130/130 38/131/131 12/132/132
f 39/133/133 40/134/134 11/135/135
f 12/136/136 39/137/137 11/138/138
f 40/139/139 41/140/140 10/141/141
f 11/142/142 40/143/143 10/144/144
f 41/145/145 42/146/146 9/147/147
f 10/148/148 41/149/149 9/150/150
f 42/151/151 43/152/152 8/153/153
f 9/154/154 42/155/155 8/156/156
f 43/157/157 44/158/158 7/159/159
f 8/160/160 43/161/161 7/162/162
f 44/163/163 45/164/164 6/165/165
f 7/166/166 44/167/167 6/168/168
f 45/169/169 46/170/170 5/171/171
f 6/172/172 45/173/173 5/174/174
f 46/175/175 47/176/176 4/177/177
f 5/178/178 46/179/179 4/180/180
f 47/181/181 48/182/182 3/183/183
f 4/184/184 47/185/185 3/186/186
f 48/187/187 33/188/188 2/189/189
f 3/190/190 48/191/191 2/192/192
f 49/193/193 50/194/194 34/195/195
f 33/196/196 49/197/197 34/198/198
f 50/199/199 51/200/200 35/201/201
f 34/202/202 50/203/203 35/204/204
f 51/205/205 52/206/206 36/207/207
f 35/208/208 51/209/209 36/210/210
f 52/211/211 53/212/212 37/213/213
f 36/214/214 52/215/215 37/216/216
f 53/217/217 54/218/218 38/219/219
f 37/220/220 53/221/221 38/222/222
f 54/223/223 55/224/224 39/225/225
f 38/226/226 54/227/227 39/228/228
f 55/229/229 56/230/230 40/231/231
f 39/232/232 55/233/233 40/234/234
f 56/235/235 57/236/236 41/237/237
f 40/238/238 56/239/239 41/240/240
f 57/241/241 58/242/242 42/243/243
f 41/244/244 57/245/245 42/246/246
f 58/247/247 59/248/248 43/249/249
f 42/250/250 58/251/251 43/252/252
f 59/253/253 60/254/254 44/255/255
f 43/256/256 59/257/257 44/258/258
f 60/259/259 61/260/260 45/261/261
f 44/262/262 60/263/263 45/264/264
f 61/265/265 62/266/266 46/267/267
f 45/268/268 61/269/269 46/270/270
f 62/271/271 63/272/272 47/273/273
f 46/274/274 62/275/275 47/276/276
f 63/277/277 64/278/278 48/279/279
f 47/280/280 63/281/281 48/282/282
f 64/283/283 49/284/284 33/285/285
f 48/286/286 64/287/287 33/288/288
f 65/289/289 66/290/290 50/291/291
f 49/292/292 65/293/293 50/294/294
f 66/295/295 67/296/296 51/297/297
f 50/298/298 66/299/299 51/300/300
f 67/301/301 68/302/302 52/303/303
f 51/304/304 67/305/305 52/306/306
f 68/307/307 69/308/308 53/309/309
f 52/310/310 68/311/311 53/312/312
f 69/313/313 70/314/314 54/315/315
f 53/316/316 69/317/317 54/318/318
f 70/319/319 71/320/320 55/321/321
f 54/322/322 70/323/323 55/324/324
f 71/325/325 72/326/326 56/327/327
f 55/328/328 71/329/329 56/330/330
f 72/331/331 73/332/332 57/333/333
f 56/334/334 72/335/335 57/336/336
f 73/337/337 74/338/338 58/339/339
f 57/340/340 73/341/341 58/342/342
f 74/343/343 75/344/344 59/345/345
f 58/346/346 74/347/347 59/348/348
f 75/349/349 76/350/350 60/351/351
f 59/352/352 75/353/353 60/354/354
f 76/355/355 77/356/356 61/357/357
f 60/358/358 76/359/359 61/360/360
f 77/361/361 78/362/362 62/363/363
f 61/364/364 77/365/365 62/366/366
f 78/367/367 79/368/368 63/369/369
f 62/370/370 78/371/371 63/372/372
f 79/373/373 80/374/374 64/375/375
f 63/376/376 79/377/377 64/378/378
f 80/379/379 65/380/380 49/381/381
f 64/382/382 80/383/383 49/384/384
# inner, 14 grouped triangles

o inner
g inner

f 68/385/385 67/386/386 66/387/387
f 69/388/388 68/389/389 66/390/390
f 70/391/391 69/392/392 66/393/393
f 71/394/394 70/395/395 66/396/396
f 72/397/397 71/398/398 66/399/399
f 73/400/400 72/401/401 66/402/402
f 74/403/403 73/404/404 66/405/405
f 75/406/406 74/407/407 66/408/408
f 76/409/409 75/410/410 66/411/411
f 77/412/412 76/413/413 66/414/414
f 78/415/415 77/416/416 66/417/417
f 79/418/418 78/419/419 66/420/420
f 80/421/421 79/422/422 66/423/423
f 65/424/424 80/425/425 66/426/426
