# Wavefront OBJ file
# Exported by Misfit Model 3D 1.3.8
# Sun Mar 24 18:56:07 2013

# 96 Vertices
v 0.45584 1.616126 0.371192
v 0.45584 0.387364 0.371192
v 0.74765 1.616126 0.371192
v 0.74765 0.387364 0.371192
v 0.45584 0.387364 -0.359776
v 0.45584 1.616126 -0.359777
v 0.74765 0.387364 -0.359776
v 0.74765 1.616126 -0.359777
v -0.747648 1.616126 0.371192
v -0.747648 0.387364 0.371192
v -0.45584 1.616126 0.371192
v -0.45584 0.387364 0.371192
v -0.747648 0.387364 -0.359776
v -0.747648 1.616126 -0.359777
v -0.45584 0.387364 -0.359776
v -0.45584 1.616126 -0.359777
v 0.075755 0.000036 -0.359776
v 0.455852 0.051928 -0.359776
v 0.669463 0.1937 -0.359776
v 0.747649 0.387363 -0.359776
v 0.075755 0.000036 0.371192
v 0.455852 0.051928 0.371192
v 0.669463 0.1937 0.371192
v 0.747649 0.387363 0.371192
v 0.075755 0.1937 -0.359776
v 0.309953 0.219646 -0.359776
v 0.416759 0.290532 -0.359776
v 0.455852 0.387363 -0.359776
v 0.075755 0.1937 0.371192
v 0.309953 0.219646 0.371192
v 0.416759 0.290532 0.371192
v 0.455852 0.387363 0.371192
v -0.075742 0.000036 0.371192
v -0.45584 0.051928 0.371192
v -0.66945 0.1937 0.371192
v -0.747637 0.387363 0.371192
v -0.075742 0.000036 -0.359776
v -0.45584 0.051928 -0.359776
v -0.66945 0.1937 -0.359776
v -0.747637 0.387363 -0.359776
v -0.075742 0.1937 0.371192
v -0.309941 0.219646 0.371192
v -0.416747 0.290532 0.371192
v -0.45584 0.387363 0.371192
v -0.075742 0.1937 -0.359776
v -0.309941 0.219646 -0.359776
v -0.416744 0.290532 -0.359776
v -0.45584 0.387363 -0.359776
v -0.075744 0.1937 0.371192
v -0.075744 0.000036 0.371192
v 0.075755 0.1937 0.371192
v 0.075755 0.000036 0.371192
v -0.075744 0.000036 -0.359776
v -0.075744 0.1937 -0.359776
v 0.075755 0.000036 -0.359776
v 0.075755 0.1937 -0.359776
v -0.075742 1.999653 -0.359777
v -0.45584 1.947761 -0.359777
v -0.66945 1.805989 -0.359777
v -0.747637 1.612325 -0.359777
v -0.075742 1.999653 0.371192
v -0.45584 1.947761 0.371192
v -0.66945 1.805989 0.371192
v -0.747637 1.612325 0.371192
v -0.075742 1.805989 -0.359777
v -0.309941 1.780042 -0.359777
v -0.416747 1.709157 -0.359777
v -0.45584 1.612325 -0.359777
v -0.075742 1.805989 0.371192
v -0.309941 1.780042 0.371192
v -0.416747 1.709157 0.371192
v -0.45584 1.612325 0.371192
v 0.075755 1.999653 0.371192
v 0.455852 1.947761 0.371192
v 0.669462 1.805989 0.371192
v 0.747649 1.612325 0.371192
v 0.075755 1.999653 -0.359777
v 0.455852 1.947761 -0.359777
v 0.669462 1.805989 -0.359777
v 0.747649 1.612325 -0.359777
v 0.075755 1.805989 0.371192
v 0.309953 1.780042 0.371192
v 0.416759 1.709157 0.371192
v 0.455852 1.612325 0.371192
v 0.075755 1.805989 -0.359777
v 0.309953 1.780042 -0.359777
v 0.416757 1.709157 -0.359777
v 0.455852 1.612325 -0.359777
v 0.075756 1.805989 0.371192
v 0.075756 1.999653 0.371192
v -0.075742 1.805989 0.371192
v -0.075742 1.999653 0.371192
v 0.075756 1.999653 -0.359777
v 0.075756 1.805989 -0.359777
v -0.075742 1.999653 -0.359777
v -0.075742 1.805989 -0.359777

# 432 Texture Coordinates
vt 1.0 0.0
vt 0.0 0.0
vt 0.0 1.0
vt 1.0 0.0
vt 0.0 0.0
vt 0.0 1.0
vt 1.0 0.0
vt 0.0 0.0
vt 0.0 1.0
vt 1.0 0.0
vt 0.0 0.0
vt 0.0 1.0
vt 0.0 1.0
vt 0.0 0.0
vt 1.0 0.0
vt 0.0 1.0
vt 0.0 0.0
vt 1.0 0.0
vt 0.0 1.0
vt 0.0 0.0
vt 1.0 0.0
vt 0.0 1.0
vt 0.0 0.0
vt 1.0 0.0
vt 0.0 1.0
vt 0.0 0.0
vt 1.0 0.0
vt 0.0 1.0
vt 0.0 0.0
vt 1.0 0.0
vt 0.0 1.0
vt 0.0 0.0
vt 1.0 0.0
vt 0.0 1.0
vt 0.0 0.0
vt 1.0 0.0
vt 1.0 0.0
vt 0.0 0.0
vt 0.0 1.0
vt 1.0 0.0
vt 0.0 0.0
vt 0.0 1.0
vt 1.0 0.0
vt 0.0 0.0
vt 0.0 1.0
vt 1.0 0.0
vt 0.0 0.0
vt 0.0 1.0
vt 0.0 1.0
vt 0.0 0.0
vt 1.0 0.0
vt 0.0 1.0
vt 0.0 0.0
vt 1.0 0.0
vt 0.0 1.0
vt 0.0 0.0
vt 1.0 0.0
vt 0.0 1.0
vt 0.0 0.0
vt 1.0 0.0
vt 0.0 1.0
vt 0.0 0.0
vt 1.0 0.0
vt 0.0 1.0
vt 0.0 0.0
vt 1.0 0.0
vt 0.0 1.0
vt 0.0 0.0
vt 1.0 0.0
vt 0.0 1.0
vt 0.0 0.0
vt 1.0 0.0
vt 0.0 1.0
vt 0.0 0.0
vt 1.0 0.0
vt 0.0 1.0
vt 0.0 0.0
vt 1.0 0.0
vt 0.0 1.0
vt 0.0 0.0
vt 1.0 0.0
vt 0.0 1.0
vt 0.0 0.0
vt 1.0 0.0
vt 0.0 1.0
vt 0.0 0.0
vt 1.0 0.0
vt 0.0 1.0
vt 0.0 0.0
vt 1.0 0.0
vt 0.0 1.0
vt 0.0 0.0
vt 1.0 0.0
vt 0.0 1.0
vt 0.0 0.0
vt 1.0 0.0
vt 0.0 1.0
vt 0.0 0.0
vt 1.0 0.0
vt 0.0 1.0
vt 0.0 0.0
vt 1.0 0.0
vt 0.0 1.0
vt 0.0 0.0
vt 1.0 0.0
vt 0.0 1.0
vt 0.0 0.0
vt 1.0 0.0
vt 0.0 1.0
vt 0.0 0.0
vt 1.0 0.0
vt 0.0 1.0
vt 0.0 0.0
vt 1.0 0.0
vt 0.0 1.0
vt 0.0 0.0
vt 1.0 0.0
vt 0.0 1.0
vt 0.0 0.0
vt 1.0 0.0
vt 0.0 1.0
vt 0.0 0.0
vt 1.0 0.0
vt 0.0 1.0
vt 0.0 0.0
vt 1.0 0.0
vt 0.0 1.0
vt 0.0 0.0
vt 1.0 0.0
vt 0.0 1.0
vt 0.0 0.0
vt 1.0 0.0
vt 0.0 1.0
vt 0.0 0.0
vt 1.0 0.0
vt 0.0 1.0
vt 0.0 0.0
vt 1.0 0.0
vt 0.0 1.0
vt 0.0 0.0
vt 1.0 0.0
vt 0.0 1.0
vt 0.0 0.0
vt 1.0 0.0
vt 0.0 1.0
vt 0.0 0.0
vt 1.0 0.0
vt 0.0 1.0
vt 0.0 0.0
vt 1.0 0.0
vt 0.0 1.0
vt 0.0 0.0
vt 1.0 0.0
vt 0.0 1.0
vt 0.0 0.0
vt 1.0 0.0
vt 0.0 1.0
vt 0.0 0.0
vt 1.0 0.0
vt 0.0 1.0
vt 0.0 0.0
vt 1.0 0.0
vt 0.0 1.0
vt 0.0 0.0
vt 1.0 0.0
vt 0.0 1.0
vt 0.0 0.0
vt 1.0 0.0
vt 0.0 1.0
vt 0.0 0.0
vt 1.0 0.0
vt 0.0 1.0
vt 0.0 0.0
vt 1.0 0.0
vt 0.0 1.0
vt 0.0 0.0
vt 1.0 0.0
vt 0.0 1.0
vt 0.0 0.0
vt 1.0 0.0
vt 0.0 1.0
vt 0.0 0.0
vt 1.0 0.0
vt 0.0 1.0
vt 0.0 0.0
vt 1.0 0.0
vt 0.0 1.0
vt 0.0 0.0
vt 1.0 0.0
vt 0.0 1.0
vt 0.0 0.0
vt 1.0 0.0
vt 0.0 1.0
vt 0.0 0.0
vt 1.0 0.0
vt 0.0 1.0
vt 0.0 0.0
vt 1.0 0.0
vt 0.0 1.0
vt 0.0 0.0
vt 1.0 0.0
vt 0.0 1.0
vt 0.0 0.0
vt 1.0 0.0
vt 0.0 1.0
vt 0.0 0.0
vt 1.0 0.0
vt 0.0 1.0
vt 0.0 0.0
vt 1.0 0.0
vt 0.0 1.0
vt 0.0 0.0
vt 1.0 0.0
vt 0.0 1.0
vt 0.0 0.0
vt 1.0 0.0
vt 1.0 0.0
vt 0.0 0.0
vt 0.0 1.0
vt 1.0 0.0
vt 0.0 0.0
vt 0.0 1.0
vt 1.0 0.0
vt 0.0 0.0
vt 0.0 1.0
vt 1.0 0.0
vt 0.0 0.0
vt 0.0 1.0
vt 0.0 1.0
vt 0.0 0.0
vt 1.0 0.0
vt 0.0 1.0
vt 0.0 0.0
vt 1.0 0.0
vt 0.0 1.0
vt 0.0 0.0
vt 1.0 0.0
vt 0.0 1.0
vt 0.0 0.0
vt 1.0 0.0
vt 0.0 1.0
vt 0.0 0.0
vt 1.0 0.0
vt 0.0 1.0
vt 0.0 0.0
vt 1.0 0.0
vt 0.0 1.0
vt 0.0 0.0
vt 1.0 0.0
vt 0.0 1.0
vt 0.0 0.0
vt 1.0 0.0
vt 0.0 1.0
vt 0.0 0.0
vt 1.0 0.0
vt 0.0 1.0
vt 0.0 0.0
vt 1.0 0.0
vt 0.0 1.0
vt 0.0 0.0
vt 1.0 0.0
vt 0.0 1.0
vt 0.0 0.0
vt 1.0 0.0
vt 0.0 1.0
vt 0.0 0.0
vt 1.0 0.0
vt 0.0 1.0
vt 0.0 0.0
vt 1.0 0.0
vt 0.0 1.0
vt 0.0 0.0
vt 1.0 0.0
vt 0.0 1.0
vt 0.0 0.0
vt 1.0 0.0
vt 0.0 1.0
vt 0.0 0.0
vt 1.0 0.0
vt 0.0 1.0
vt 0.0 0.0
vt 1.0 0.0
vt 0.0 1.0
vt 0.0 0.0
vt 1.0 0.0
vt 0.0 1.0
vt 0.0 0.0
vt 1.0 0.0
vt 0.0 1.0
vt 0.0 0.0
vt 1.0 0.0
vt 0.0 1.0
vt 0.0 0.0
vt 1.0 0.0
vt 0.0 1.0
vt 0.0 0.0
vt 1.0 0.0
vt 0.0 1.0
vt 0.0 0.0
vt 1.0 0.0
vt 0.0 1.0
vt 0.0 0.0
vt 1.0 0.0
vt 0.0 1.0
vt 0.0 0.0
vt 1.0 0.0
vt 0.0 1.0
vt 0.0 0.0
vt 1.0 0.0
vt 0.0 1.0
vt 0.0 0.0
vt 1.0 0.0
vt 0.0 1.0
vt 0.0 0.0
vt 1.0 0.0
vt 0.0 1.0
vt 0.0 0.0
vt 1.0 0.0
vt 0.0 1.0
vt 0.0 0.0
vt 1.0 0.0
vt 0.0 1.0
vt 0.0 0.0
vt 1.0 0.0
vt 0.0 1.0
vt 0.0 0.0
vt 1.0 0.0
vt 0.0 1.0
vt 0.0 0.0
vt 1.0 0.0
vt 0.0 1.0
vt 0.0 0.0
vt 1.0 0.0
vt 0.0 1.0
vt 0.0 0.0
vt 1.0 0.0
vt 0.0 1.0
vt 0.0 0.0
vt 1.0 0.0
vt 0.0 1.0
vt 0.0 0.0
vt 1.0 0.0
vt 0.0 1.0
vt 0.0 0.0
vt 1.0 0.0
vt 0.0 1.0
vt 0.0 0.0
vt 1.0 0.0
vt 0.0 1.0
vt 0.0 0.0
vt 1.0 0.0
vt 0.0 1.0
vt 0.0 0.0
vt 1.0 0.0
vt 0.0 1.0
vt 0.0 0.0
vt 1.0 0.0
vt 0.0 1.0
vt 0.0 0.0
vt 1.0 0.0
vt 0.0 1.0
vt 0.0 0.0
vt 1.0 0.0
vt 0.0 1.0
vt 0.0 0.0
vt 1.0 0.0
vt 0.0 1.0
vt 0.0 0.0
vt 1.0 0.0
vt 0.0 1.0
vt 0.0 0.0
vt 1.0 0.0
vt 0.0 1.0
vt 0.0 0.0
vt 1.0 0.0
vt 0.0 1.0
vt 0.0 0.0
vt 1.0 0.0
vt 0.0 1.0
vt 0.0 0.0
vt 1.0 0.0
vt 0.0 1.0
vt 0.0 0.0
vt 1.0 0.0
vt 0.0 1.0
vt 0.0 0.0
vt 1.0 0.0
vt 0.0 1.0
vt 0.0 0.0
vt 1.0 0.0
vt 0.0 1.0
vt 0.0 0.0
vt 1.0 0.0
vt 0.0 1.0
vt 0.0 0.0
vt 1.0 0.0
vt 1.0 0.0
vt 0.0 0.0
vt 0.0 1.0
vt 1.0 0.0
vt 0.0 0.0
vt 0.0 1.0
vt 1.0 0.0
vt 0.0 0.0
vt 0.0 1.0
vt 1.0 0.0
vt 0.0 0.0
vt 0.0 1.0
vt 0.0 1.0
vt 0.0 0.0
vt 1.0 0.0
vt 0.0 1.0
vt 0.0 0.0
vt 1.0 0.0
vt 0.0 1.0
vt 0.0 0.0
vt 1.0 0.0
vt 0.0 1.0
vt 0.0 0.0
vt 1.0 0.0
vt 0.0 1.0
vt 0.0 0.0
vt 1.0 0.0
vt 0.0 1.0
vt 0.0 0.0
vt 1.0 0.0
vt 0.0 1.0
vt 0.0 0.0
vt 1.0 0.0
vt 0.0 1.0
vt 0.0 0.0
vt 1.0 0.0

# 432 Vertex Normals
vn 0.0 0.0 1.0
vn 0.0 0.0 1.0
vn 0.0 0.0 1.0
vn 0.0 0.0 1.0
vn 0.0 0.0 1.0
vn 0.0 0.0 1.0
vn 0.0 -0.000001 -1.0
vn 0.0 -0.000001 -1.0
vn 0.0 -0.000001 -1.0
vn 0.0 -0.000001 -1.0
vn 0.0 -0.000001 -1.0
vn 0.0 -0.000001 -1.0
vn 0.0 1.0 0.0
vn 0.0 1.0 0.0
vn 0.0 1.0 0.0
vn 0.0 1.0 0.0
vn 0.0 1.0 0.0
vn 0.0 1.0 0.0
vn 0.0 -1.0 0.0
vn 0.0 -1.0 0.0
vn 0.0 -1.0 0.0
vn 0.0 -1.0 0.0
vn 0.0 -1.0 0.0
vn 0.0 -1.0 0.0
vn 1.0 0.0 0.0
vn 1.0 0.0 0.0
vn 1.0 0.0 0.0
vn 1.0 0.0 0.0
vn 1.0 0.0 0.0
vn 1.0 0.0 0.0
vn -1.0 0.0 0.0
vn -1.0 0.0 0.0
vn -1.0 0.0 0.0
vn -1.0 0.0 0.0
vn -1.0 0.0 0.0
vn -1.0 0.0 0.0
vn 0.0 0.0 1.0
vn 0.0 0.0 1.0
vn 0.0 0.0 1.0
vn 0.0 0.0 1.0
vn 0.0 0.0 1.0
vn 0.0 0.0 1.0
vn 0.0 -0.000001 -1.0
vn 0.0 -0.000001 -1.0
vn 0.0 -0.000001 -1.0
vn 0.0 -0.000001 -1.0
vn 0.0 -0.000001 -1.0
vn 0.0 -0.000001 -1.0
vn 0.0 1.0 0.0
vn 0.0 1.0 0.0
vn 0.0 1.0 0.0
vn 0.0 1.0 0.0
vn 0.0 1.0 0.0
vn 0.0 1.0 0.0
vn 0.0 -1.0 0.0
vn 0.0 -1.0 0.0
vn 0.0 -1.0 0.0
vn 0.0 -1.0 0.0
vn 0.0 -1.0 0.0
vn 0.0 -1.0 0.0
vn 1.0 0.0 0.0
vn 1.0 0.0 0.0
vn 1.0 0.0 0.0
vn 1.0 0.0 0.0
vn 1.0 0.0 0.0
vn 1.0 0.0 0.0
vn -1.0 0.0 0.0
vn -1.0 0.0 0.0
vn -1.0 0.0 0.0
vn -1.0 0.0 0.0
vn -1.0 0.0 0.0
vn -1.0 0.0 0.0
vn 0.135268 -0.990809 0.0
vn 0.280796 -0.959768 0.0
vn 0.135268 -0.990809 0.0
vn 0.280796 -0.959768 0.0
vn 0.423225 -0.906025 -0.0
vn 0.135268 -0.990809 0.0
vn 0.280796 -0.959768 0.0
vn 0.705804 -0.708407 0.0
vn 0.423225 -0.906025 -0.0
vn 0.705804 -0.708407 0.0
vn 0.835734 -0.549134 0.0
vn 0.423225 -0.906025 -0.0
vn 0.705804 -0.708407 0.0
vn 0.927282 -0.374364 0.0
vn 0.835734 -0.549134 0.0
vn 0.927282 -0.374364 0.0
vn 0.927282 -0.374364 0.0
vn 0.835734 -0.549134 0.0
vn -0.264338 0.96443 0.0
vn -0.110113 0.993919 -0.0
vn -0.110113 0.993919 0.0
vn -0.264338 0.96443 0.0
vn -0.110113 0.993919 0.0
vn -0.415742 0.909483 0.0
vn -0.705802 0.708409 -0.0
vn -0.264338 0.96443 0.0
vn -0.415742 0.909483 0.0
vn -0.705802 0.708409 -0.0
vn -0.415742 0.909483 0.0
vn -0.835733 0.549135 -0.0
vn -0.927281 0.374366 -0.0
vn -0.705802 0.708409 -0.0
vn -0.835733 0.549135 -0.0
vn -0.927281 0.374366 -0.0
vn -0.835733 0.549135 -0.0
vn -0.927281 0.374366 -0.0
vn 0.0 -0.0 -1.0
vn 0.0 -0.0 -1.0
vn 0.0 -0.0 -1.0
vn 0.0 -0.0 -1.0
vn 0.0 -0.0 -1.0
vn 0.0 0.0 -1.0
vn 0.0 -0.0 1.0
vn 0.0 -0.0 1.0
vn 0.0 -0.0 1.0
vn 0.0 -0.0 1.0
vn 0.0 0.0 1.0
vn 0.0 -0.0 1.0
vn 0.0 0.0 -1.0
vn 0.0 -0.0 -1.0
vn 0.0 0.0 -1.0
vn 0.0 0.0 -1.0
vn 0.0 0.0 -1.0
vn 0.0 0.0 -1.0
vn 0.0 -0.0 1.0
vn 0.0 -0.0 1.0
vn 0.0 0.0 1.0
vn 0.0 -0.0 1.0
vn 0.0 -0.0 1.0
vn 0.0 0.0 1.0
vn 0.0 0.0 -1.0
vn 0.0 0.0 -1.0
vn 0.0 0.0 -1.0
vn 0.0 0.0 -1.0
vn 0.0 0.0 -1.0
vn 0.0 0.0 -1.0
vn 0.0 -0.0 1.0
vn 0.0 -0.0 1.0
vn 0.0 -0.0 1.0
vn 0.0 -0.0 1.0
vn 0.0 0.0 1.0
vn 0.0 -0.0 1.0
vn -0.135268 -0.990809 -0.0
vn -0.280796 -0.959767 0.0
vn -0.135268 -0.990809 0.0
vn -0.280796 -0.959767 0.0
vn -0.423226 -0.906024 0.0
vn -0.135268 -0.990809 0.0
vn -0.280796 -0.959767 0.0
vn -0.705804 -0.708407 -0.0
vn -0.423226 -0.906024 0.0
vn -0.705804 -0.708407 -0.0
vn -0.835733 -0.549136 -0.0
vn -0.423226 -0.906024 0.0
vn -0.705804 -0.708407 -0.0
vn -0.92728 -0.374368 -0.0
vn -0.835733 -0.549136 -0.0
vn -0.92728 -0.374368 -0.0
vn -0.92728 -0.374368 0.0
vn -0.835733 -0.549136 -0.0
vn 0.264337 0.96443 0.0
vn 0.110112 0.993919 0.0
vn 0.110112 0.993919 0.0
vn 0.264337 0.96443 0.0
vn 0.110112 0.993919 0.0
vn 0.415746 0.909481 0.000001
vn 0.705806 0.708406 0.000002
vn 0.264337 0.96443 0.0
vn 0.415746 0.909481 0.000001
vn 0.705806 0.708406 0.000002
vn 0.415746 0.909481 0.000001
vn 0.835731 0.549139 0.000002
vn 0.927276 0.374378 0.000002
vn 0.705806 0.708406 0.000002
vn 0.835731 0.549139 0.000002
vn 0.927276 0.374378 0.000002
vn 0.835731 0.549139 0.000002
vn 0.927271 0.37439 0.0
vn 0.0 -0.0 1.0
vn 0.0 -0.0 1.0
vn 0.0 -0.0 1.0
vn 0.0 -0.0 1.0
vn 0.0 -0.0 1.0
vn 0.0 -0.0 1.0
vn 0.0 0.0 -1.0
vn 0.0 0.0 -1.0
vn 0.0 -0.0 -1.0
vn 0.0 0.0 -1.0
vn 0.0 -0.0 -1.0
vn 0.0 -0.0 -1.0
vn 0.0 -0.0 1.0
vn 0.0 -0.0 1.0
vn 0.0 -0.0 1.0
vn 0.0 -0.0 1.0
vn 0.0 -0.0 1.0
vn 0.0 -0.0 1.0
vn 0.0 0.0 -1.0
vn 0.0 -0.0 -1.0
vn 0.0 -0.0 -1.0
vn 0.0 -0.0 -1.0
vn 0.0 -0.0 -1.0
vn 0.0 -0.0 -1.0
vn 0.0 0.0 1.0
vn 0.0 -0.0 1.0
vn 0.0 -0.0 1.0
vn 0.0 0.0 1.0
vn 0.0 -0.0 1.0
vn 0.0 0.0 1.0
vn 0.0 -0.0 -1.0
vn 0.0 -0.0 -1.0
vn 0.0 -0.0 -1.0
vn 0.0 -0.0 -1.0
vn 0.0 -0.0 -1.0
vn 0.0 -0.0 -1.0
vn 0.0 0.0 1.0
vn 0.0 0.0 1.0
vn 0.0 0.0 1.0
vn 0.0 0.0 1.0
vn 0.0 0.0 1.0
vn 0.0 0.0 1.0
vn 0.0 0.0 -1.0
vn 0.0 0.0 -1.0
vn 0.0 0.0 -1.0
vn 0.0 0.0 -1.0
vn 0.0 0.0 -1.0
vn 0.0 0.0 -1.0
vn -0.0 1.0 0.0
vn -0.0 1.0 0.0
vn -0.0 1.0 0.0
vn -0.0 1.0 0.0
vn -0.0 1.0 0.0
vn -0.0 1.0 0.0
vn -0.0 -1.0 0.0
vn -0.0 -1.0 0.0
vn -0.0 -1.0 0.0
vn -0.0 -1.0 0.0
vn -0.0 -1.0 0.0
vn -0.0 -1.0 0.0
vn 1.0 0.0 -0.0
vn 1.0 0.0 -0.0
vn 1.0 0.0 -0.0
vn 1.0 0.0 -0.0
vn 1.0 0.0 -0.0
vn 1.0 0.0 -0.0
vn -1.0 0.0 0.0
vn -1.0 0.0 0.0
vn -1.0 0.0 0.0
vn -1.0 0.0 0.0
vn -1.0 0.0 0.0
vn -1.0 0.0 0.0
vn -0.135268 0.990809 -0.0
vn -0.280796 0.959767 -0.0
vn -0.135268 0.990809 0.0
vn -0.280796 0.959767 -0.0
vn -0.423226 0.906024 0.0
vn -0.135268 0.990809 0.0
vn -0.280796 0.959767 -0.0
vn -0.705804 0.708407 0.0
vn -0.423226 0.906024 0.0
vn -0.705804 0.708407 0.0
vn -0.835734 0.549135 0.0
vn -0.423226 0.906024 0.0
vn -0.705804 0.708407 0.0
vn -0.927281 0.374366 0.0
vn -0.835734 0.549135 0.0
vn -0.927281 0.374366 0.0
vn -0.927281 0.374366 0.0
vn -0.835734 0.549135 0.0
vn 0.264338 -0.96443 0.0
vn 0.110117 -0.993919 -0.0
vn 0.110117 -0.993919 0.0
vn 0.264338 -0.96443 0.0
vn 0.110117 -0.993919 0.0
vn 0.415739 -0.909484 0.0
vn 0.7058 -0.708411 0.0
vn 0.264338 -0.96443 0.0
vn 0.415739 -0.909484 0.0
vn 0.7058 -0.708411 0.0
vn 0.415739 -0.909484 0.0
vn 0.835734 -0.549135 0.0
vn 0.927283 -0.374362 0.0
vn 0.7058 -0.708411 0.0
vn 0.835734 -0.549135 0.0
vn 0.927283 -0.374362 0.0
vn 0.835734 -0.549135 0.0
vn 0.927283 -0.374362 0.0
vn 0.0 -0.0 -1.0
vn 0.0 -0.0 -1.0
vn 0.0 -0.0 -1.0
vn 0.0 -0.0 -1.0
vn 0.0 -0.0 -1.0
vn 0.0 0.0 -1.0
vn 0.0 0.0 1.0
vn 0.0 0.0 1.0
vn 0.0 0.0 1.0
vn 0.0 0.0 1.0
vn 0.0 -0.0 1.0
vn 0.0 0.0 1.0
vn 0.0 0.0 -1.0
vn 0.0 -0.0 -1.0
vn 0.0 0.0 -1.0
vn 0.0 0.0 -1.0
vn 0.0 0.0 -1.0
vn 0.0 0.0 -1.0
vn 0.0 0.0 1.0
vn 0.0 -0.0 1.0
vn 0.0 -0.0 1.0
vn 0.0 -0.0 1.0
vn 0.0 0.0 1.0
vn 0.0 -0.0 1.0
vn 0.0 0.0 -1.0
vn 0.0 0.0 -1.0
vn 0.0 0.0 -1.0
vn 0.0 0.0 -1.0
vn 0.0 0.0 -1.0
vn 0.0 0.0 -1.0
vn 0.0 -0.0 1.0
vn 0.0 0.0 1.0
vn 0.0 0.0 1.0
vn 0.0 0.0 1.0
vn 0.0 0.0 1.0
vn 0.0 0.0 1.0
vn 0.135268 0.990809 0.0
vn 0.280797 0.959767 -0.0
vn 0.135268 0.990809 0.0
vn 0.280797 0.959767 -0.0
vn 0.423226 0.906024 -0.0
vn 0.135268 0.990809 0.0
vn 0.280797 0.959767 -0.0
vn 0.705804 0.708407 -0.0
vn 0.423226 0.906024 -0.0
vn 0.705804 0.708407 -0.0
vn 0.835734 0.549135 0.0
vn 0.423226 0.906024 -0.0
vn 0.705804 0.708407 -0.0
vn 0.927281 0.374366 0.0
vn 0.835734 0.549135 0.0
vn 0.927281 0.374366 0.0
vn 0.927281 0.374366 0.0
vn 0.835734 0.549135 0.0
vn -0.264338 -0.96443 -0.0
vn -0.110117 -0.993919 0.0
vn -0.110117 -0.993919 0.0
vn -0.264338 -0.96443 -0.0
vn -0.110117 -0.993919 0.0
vn -0.415742 -0.909483 0.000001
vn -0.705803 -0.708409 0.000001
vn -0.264338 -0.96443 -0.0
vn -0.415742 -0.909483 0.000001
vn -0.705803 -0.708409 0.000001
vn -0.415742 -0.909483 0.000001
vn -0.835732 -0.549138 0.000001
vn -0.927279 -0.37437 0.000001
vn -0.705803 -0.708409 0.000001
vn -0.835732 -0.549138 0.000001
vn -0.927279 -0.37437 0.000001
vn -0.835732 -0.549138 0.000001
vn -0.927276 -0.374379 -0.0
vn 0.0 0.0 1.0
vn 0.0 0.0 1.0
vn 0.0 0.0 1.0
vn 0.0 0.0 1.0
vn 0.0 0.0 1.0
vn 0.0 0.0 1.0
vn 0.0 -0.0 -1.0
vn 0.0 0.0 -1.0
vn 0.0 0.0 -1.0
vn 0.0 0.0 -1.0
vn 0.0 0.0 -1.0
vn 0.0 0.0 -1.0
vn 0.0 0.0 1.0
vn 0.0 0.0 1.0
vn 0.0 0.0 1.0
vn 0.0 0.0 1.0
vn 0.0 0.0 1.0
vn 0.0 0.0 1.0
vn 0.0 0.0 -1.0
vn 0.0 0.0 -1.0
vn 0.0 0.0 -1.0
vn 0.0 0.0 -1.0
vn 0.0 -0.0 -1.0
vn 0.0 0.0 -1.0
vn 0.0 0.0 1.0
vn 0.0 0.0 1.0
vn 0.0 0.0 1.0
vn 0.0 0.0 1.0
vn 0.0 0.0 1.0
vn 0.0 0.0 1.0
vn 0.0 0.0 -1.0
vn 0.0 -0.0 -1.0
vn 0.0 -0.0 -1.0
vn 0.0 -0.0 -1.0
vn 0.0 -0.0 -1.0
vn 0.0 -0.0 -1.0
vn 0.0 0.0 1.0
vn 0.0 0.0 1.0
vn 0.0 0.0 1.0
vn 0.0 0.0 1.0
vn 0.0 0.0 1.0
vn 0.0 0.0 1.0
vn 0.0 0.0 -1.0
vn 0.0 0.0 -1.0
vn 0.0 0.0 -1.0
vn 0.0 0.0 -1.0
vn 0.0 0.0 -1.0
vn 0.0 0.0 -1.0
vn 0.0 -1.0 0.0
vn 0.0 -1.0 0.0
vn 0.0 -1.0 0.0
vn 0.0 -1.0 0.0
vn 0.0 -1.0 0.0
vn 0.0 -1.0 0.0
vn -0.0 1.0 0.0
vn -0.0 1.0 0.0
vn -0.0 1.0 0.0
vn -0.0 1.0 0.0
vn -0.0 1.0 0.0
vn -0.0 1.0 0.0
vn -1.0 0.0 -0.0
vn -1.0 0.0 -0.0
vn -1.0 0.0 -0.0
vn -1.0 0.0 -0.0
vn -1.0 0.0 -0.0
vn -1.0 0.0 -0.0
vn 1.0 0.0 -0.0
vn 1.0 0.0 -0.0
vn 1.0 0.0 -0.0
vn 1.0 0.0 -0.0
vn 1.0 0.0 -0.0
vn 1.0 0.0 -0.0

# ungrouped, 144 grouped triangles

o ungrouped
g ungrouped

f 1/1/1 2/2/2 3/3/3
f 2/4/4 4/5/5 3/6/6
f 5/7/7 6/8/8 7/9/9
f 6/10/10 8/11/11 7/12/12
f 3/13/13 6/14/14 1/15/15
f 3/16/16 8/17/17 6/18/18
f 7/19/19 2/20/20 5/21/21
f 7/22/22 4/23/23 2/24/24
f 3/25/25 7/26/26 8/27/27
f 3/28/28 4/29/29 7/30/30
f 2/31/31 6/32/32 5/33/33
f 2/34/34 1/35/35 6/36/36
f 9/37/37 10/38/38 11/39/39
f 10/40/40 12/41/41 11/42/42
f 13/43/43 14/44/44 15/45/45
f 14/46/46 16/47/47 15/48/48
f 11/49/49 14/50/50 9/51/51
f 11/52/52 16/53/53 14/54/54
f 15/55/55 10/56/56 13/57/57
f 15/58/58 12/59/59 10/60/60
f 11/61/61 15/62/62 16/63/63
f 11/64/64 12/65/65 15/66/66
f 10/67/67 14/68/68 13/69/69
f 10/70/70 9/71/71 14/72/72
f 17/73/73 18/74/74 21/75/75
f 18/76/76 22/77/77 21/78/78
f 18/79/79 19/80/80 22/81/81
f 19/82/82 23/83/83 22/84/84
f 19/85/85 20/86/86 23/87/87
f 20/88/88 24/89/89 23/90/90
f 26/91/91 25/92/92 29/93/93
f 26/94/94 29/95/95 30/96/96
f 27/97/97 26/98/98 30/99/99
f 27/100/100 30/101/101 31/102/102
f 28/103/103 27/104/104 31/105/105
f 28/106/106 31/107/107 32/108/108
f 18/109/109 17/110/110 25/111/111
f 18/112/112 25/113/113 26/114/114
f 21/115/115 22/116/116 29/117/117
f 22/118/118 30/119/119 29/120/120
f 19/121/121 18/122/122 26/123/123
f 19/124/124 26/125/125 27/126/126
f 22/127/127 23/128/128 30/129/129
f 23/130/130 31/131/131 30/132/132
f 20/133/133 19/134/134 27/135/135
f 20/136/136 27/137/137 28/138/138
f 23/139/139 24/140/140 31/141/141
f 24/142/142 32/143/143 31/144/144
f 33/145/145 34/146/146 37/147/147
f 34/148/148 38/149/149 37/150/150
f 34/151/151 35/152/152 38/153/153
f 35/154/154 39/155/155 38/156/156
f 35/157/157 36/158/158 39/159/159
f 36/160/160 40/161/161 39/162/162
f 42/163/163 41/164/164 45/165/165
f 42/166/166 45/167/167 46/168/168
f 43/169/169 42/170/170 46/171/171
f 43/172/172 46/173/173 47/174/174
f 44/175/175 43/176/176 47/177/177
f 44/178/178 47/179/179 48/180/180
f 34/181/181 33/182/182 41/183/183
f 34/184/184 41/185/185 42/186/186
f 37/187/187 38/188/188 45/189/189
f 38/190/190 46/191/191 45/192/192
f 35/193/193 34/194/194 42/195/195
f 35/196/196 42/197/197 43/198/198
f 38/199/199 39/200/200 46/201/201
f 39/202/202 47/203/203 46/204/204
f 36/205/205 35/206/206 43/207/207
f 36/208/208 43/209/209 44/210/210
f 39/211/211 40/212/212 47/213/213
f 40/214/214 48/215/215 47/216/216
f 49/217/217 50/218/218 51/219/219
f 50/220/220 52/221/221 51/222/222
f 53/223/223 54/224/224 55/225/225
f 54/226/226 56/227/227 55/228/228
f 51/229/229 54/230/230 49/231/231
f 51/232/232 56/233/233 54/234/234
f 55/235/235 50/236/236 53/237/237
f 55/238/238 52/239/239 50/240/240
f 51/241/241 55/242/242 56/243/243
f 51/244/244 52/245/245 55/246/246
f 50/247/247 54/248/248 53/249/249
f 50/250/250 49/251/251 54/252/252
f 57/253/253 58/254/254 61/255/255
f 58/256/256 62/257/257 61/258/258
f 58/259/259 59/260/260 62/261/261
f 59/262/262 63/263/263 62/264/264
f 59/265/265 60/266/266 63/267/267
f 60/268/268 64/269/269 63/270/270
f 66/271/271 65/272/272 69/273/273
f 66/274/274 69/275/275 70/276/276
f 67/277/277 66/278/278 70/279/279
f 67/280/280 70/281/281 71/282/282
f 68/283/283 67/284/284 71/285/285
f 68/286/286 71/287/287 72/288/288
f 58/289/289 57/290/290 65/291/291
f 58/292/292 65/293/293 66/294/294
f 61/295/295 62/296/296 69/297/297
f 62/298/298 70/299/299 69/300/300
f 59/301/301 58/302/302 66/303/303
f 59/304/304 66/305/305 67/306/306
f 62/307/307 63/308/308 70/309/309
f 63/310/310 71/311/311 70/312/312
f 60/313/313 59/314/314 67/315/315
f 60/316/316 67/317/317 68/318/318
f 63/319/319 64/320/320 71/321/321
f 64/322/322 72/323/323 71/324/324
f 73/325/325 74/326/326 77/327/327
f 74/328/328 78/329/329 77/330/330
f 74/331/331 75/332/332 78/333/333
f 75/334/334 79/335/335 78/336/336
f 75/337/337 76/338/338 79/339/339
f 76/340/340 80/341/341 79/342/342
f 82/343/343 81/344/344 85/345/345
f 82/346/346 85/347/347 86/348/348
f 83/349/349 82/350/350 86/351/351
f 83/352/352 86/353/353 87/354/354
f 84/355/355 83/356/356 87/357/357
f 84/358/358 87/359/359 88/360/360
f 74/361/361 73/362/362 81/363/363
f 74/364/364 81/365/365 82/366/366
f 77/367/367 78/368/368 85/369/369
f 78/370/370 86/371/371 85/372/372
f 75/373/373 74/374/374 82/375/375
f 75/376/376 82/377/377 83/378/378
f 78/379/379 79/380/380 86/381/381
f 79/382/382 87/383/383 86/384/384
f 76/385/385 75/386/386 83/387/387
f 76/388/388 83/389/389 84/390/390
f 79/391/391 80/392/392 87/393/393
f 80/394/394 88/395/395 87/396/396
f 89/397/397 90/398/398 91/399/399
f 90/400/400 92/401/401 91/402/402
f 93/403/403 94/404/404 95/405/405
f 94/406/406 96/407/407 95/408/408
f 91/409/409 94/410/410 89/411/411
f 91/412/412 96/413/413 94/414/414
f 95/415/415 90/416/416 93/417/417
f 95/418/418 92/419/419 90/420/420
f 91/421/421 95/422/422 96/423/423
f 91/424/424 92/425/425 95/426/426
f 90/427/427 94/428/428 93/429/429
f 90/430/430 89/431/431 94/432/432
