# Wavefront OBJ file
# Exported by Misfit Model 3D 1.3.8
# Thu Dec 06 17:39:19 2012

# 16 Vertices
v -0.201808 0.045399 0.616294
v 0.199864 0.045399 0.616294
v -0.201808 0.045399 0.006346
v 0.199864 0.045399 0.006346
v 0.199864 -0.011518 0.616294
v -0.201808 -0.011518 0.616294
v 0.199864 -0.011518 0.006346
v -0.201808 -0.011518 0.006346
v 0.005216 0.075373 -0.607413
v 0.318887 0.075373 0.006676
v -0.308455 0.075373 0.006677
v 0.005216 -0.011065 -0.607413
v 0.318887 -0.011065 0.006677
v -0.308455 -0.011065 0.006677
v 0.005216 0.075373 -0.19802
v 0.005216 -0.011065 -0.19802

# 72 Texture Coordinates
vt 1.0 0.0
vt 0.0 0.0
vt 0.0 1.0
vt 1.0 0.0
vt 0.0 0.0
vt 0.0 1.0
vt 1.0 0.0
vt 0.0 0.0
vt 0.0 1.0
vt 1.0 0.0
vt 0.0 0.0
vt 0.0 1.0
vt 0.0 1.0
vt 0.0 0.0
vt 1.0 0.0
vt 0.0 1.0
vt 0.0 0.0
vt 1.0 0.0
vt 0.0 1.0
vt 0.0 0.0
vt 1.0 0.0
vt 0.0 1.0
vt 0.0 0.0
vt 1.0 0.0
vt 0.0 1.0
vt 0.0 0.0
vt 1.0 0.0
vt 0.0 1.0
vt 0.0 0.0
vt 1.0 0.0
vt 0.0 1.0
vt 0.0 0.0
vt 1.0 0.0
vt 0.0 1.0
vt 0.0 0.0
vt 1.0 0.0
vt 0.0 1.0
vt 0.0 0.0
vt 1.0 0.0
vt 0.0 1.0
vt 0.0 0.0
vt 1.0 0.0
vt 0.0 1.0
vt 0.0 0.0
vt 1.0 0.0
vt 0.0 1.0
vt 0.0 0.0
vt 1.0 0.0
vt 0.0 1.0
vt 0.0 0.0
vt 1.0 0.0
vt 0.0 1.0
vt 0.0 0.0
vt 1.0 0.0
vt 0.0 1.0
vt 0.0 0.0
vt 1.0 0.0
vt 0.0 1.0
vt 0.0 0.0
vt 1.0 0.0
vt 0.0 1.0
vt 0.0 0.0
vt 1.0 0.0
vt 0.0 1.0
vt 0.0 0.0
vt 1.0 0.0
vt 0.0 1.0
vt 0.0 0.0
vt 1.0 0.0
vt 0.0 1.0
vt 0.0 0.0
vt 1.0 0.0

# 72 Vertex Normals
vn 0.0 1.0 0.0
vn 0.0 1.0 0.0
vn 0.0 1.0 0.0
vn 0.0 1.0 0.0
vn 0.0 1.0 0.0
vn 0.0 1.0 0.0
vn 0.0 -1.0 -0.0
vn 0.0 -1.0 -0.0
vn 0.0 -1.0 -0.0
vn 0.0 -1.0 -0.0
vn 0.0 -1.0 -0.0
vn 0.0 -1.0 -0.0
vn -1.0 0.0 0.0
vn -1.0 0.0 0.0
vn -1.0 0.0 -0.0
vn -1.0 0.0 0.0
vn -1.0 0.0 0.0
vn -1.0 0.0 0.0
vn 1.0 0.0 0.0
vn 1.0 0.0 0.0
vn 1.0 0.0 0.0
vn 1.0 0.0 0.0
vn 1.0 0.0 -0.0
vn 1.0 0.0 0.0
vn 0.0 0.0 -1.0
vn 0.0 0.0 -1.0
vn -0.0 0.0 -1.0
vn 0.0 0.0 -1.0
vn 0.0 0.0 -1.0
vn 0.0 0.0 -1.0
vn 0.0 0.0 1.0
vn 0.0 0.0 1.0
vn 0.0 0.0 1.0
vn 0.0 0.0 1.0
vn 0.0 0.0 1.0
vn 0.0 0.0 1.0
vn 0.89055 -0.0 -0.454884
vn 0.89055 -0.0 -0.454884
vn 0.89055 -0.0 -0.454884
vn 0.89055 -0.0 -0.454884
vn 0.89055 -0.0 -0.454884
vn 0.89055 -0.0 -0.454884
vn 0.0 0.000001 1.0
vn 0.0 0.000001 1.0
vn 0.0 0.000001 1.0
vn 0.0 0.000001 1.0
vn 0.0 0.000001 1.0
vn 0.0 0.000001 1.0
vn -0.890551 -0.0 -0.454884
vn -0.890551 -0.0 -0.454884
vn -0.890551 -0.0 -0.454884
vn -0.890551 -0.0 -0.454884
vn -0.890551 -0.0 -0.454884
vn -0.890551 -0.0 -0.454884
vn 0.0 1.0 -0.0
vn 0.0 1.0 -0.0
vn 0.0 1.0 -0.0
vn 0.0 1.0 -0.0
vn -0.0 1.0 -0.0
vn 0.0 1.0 -0.0
vn 0.0 1.0 -0.0
vn 0.0 1.0 -0.0
vn -0.0 1.0 -0.0
vn 0.0 -1.0 0.0
vn 0.0 -1.0 0.0
vn -0.0 -1.0 0.0
vn 0.0 -1.0 0.0
vn -0.0 -1.0 0.0
vn 0.0 -1.0 0.0
vn 0.0 -1.0 0.0
vn 0.0 -1.0 0.0
vn 0.0 -1.0 0.0

# g0, 12 grouped triangles

o g0
g g0

f 9/37/37 10/38/38 12/39/39
f 10/40/40 13/41/41 12/42/42
f 10/43/43 11/44/44 13/45/45
f 11/46/46 14/47/47 13/48/48
f 11/49/49 9/50/50 14/51/51
f 9/52/52 12/53/53 14/54/54
f 15/55/55 10/56/56 9/57/57
f 15/58/58 11/59/59 10/60/60
f 15/61/61 9/62/62 11/63/63
f 16/64/64 12/65/65 13/66/66
f 16/67/67 13/68/68 14/69/69
f 16/70/70 14/71/71 12/72/72
# g1, 12 grouped triangles

o g1
g g1

f 1/1/1 2/2/2 3/3/3
f 2/4/4 4/5/5 3/6/6
f 5/7/7 6/8/8 7/9/9
f 6/10/10 8/11/11 7/12/12
f 3/13/13 6/14/14 1/15/15
f 3/16/16 8/17/17 6/18/18
f 7/19/19 2/20/20 5/21/21
f 7/22/22 4/23/23 2/24/24
f 3/25/25 7/26/26 8/27/27
f 3/28/28 4/29/29 7/30/30
f 2/31/31 6/32/32 5/33/33
f 2/34/34 1/35/35 6/36/36
