# Wavefront OBJ file
# Exported by Misfit Model 3D 1.3.8
# Sun Mar 24 18:55:51 2013

# 64 Vertices
v -0.566387 -0.00002 0.371192
v -0.287007 -0.00002 0.371192
v -0.566387 1.813716 0.371192
v -0.287007 1.813716 0.371192
v -0.287007 -0.00002 -0.359776
v -0.566387 -0.00002 -0.359776
v -0.287007 1.813716 -0.359777
v -0.566387 1.813716 -0.359777
v -0.74051 1.804769 0.371192
v 0.169714 1.804769 0.371192
v -0.74051 1.999914 0.371192
v 0.169714 1.999914 0.371192
v 0.169714 1.804769 -0.359777
v -0.74051 1.804769 -0.359777
v 0.169714 1.999915 -0.359777
v -0.74051 1.999915 -0.359777
v -0.287007 0.999946 0.371192
v 0.169714 0.999946 0.371192
v -0.287007 1.195091 0.371192
v 0.169714 1.195091 0.371192
v 0.169714 0.999946 -0.359777
v -0.287007 0.999946 -0.359777
v 0.169714 1.195091 -0.359777
v -0.287007 1.195091 -0.359777
v 0.74699 1.55059 -0.359777
v 0.669649 1.804777 -0.359777
v 0.458352 1.947627 -0.359777
v 0.169715 1.999913 -0.359777
v 0.74699 1.55059 0.371192
v 0.669649 1.804777 0.371192
v 0.458352 1.947627 0.371192
v 0.169715 1.999913 0.371192
v 0.458352 1.55059 -0.359777
v 0.419683 1.707208 -0.359777
v 0.314034 1.778633 -0.359777
v 0.169715 1.804777 -0.359777
v 0.458352 1.55059 0.371192
v 0.419683 1.707208 0.371192
v 0.314034 1.778633 0.371192
v 0.169715 1.804777 0.371192
v 0.74699 1.449277 0.371192
v 0.669649 1.195091 0.371192
v 0.458352 1.052241 0.371192
v 0.169715 0.999955 0.371192
v 0.74699 1.449277 -0.359777
v 0.669649 1.195091 -0.359777
v 0.458352 1.052241 -0.359777
v 0.169715 0.999955 -0.359777
v 0.458352 1.449277 0.371192
v 0.419683 1.29266 0.371192
v 0.314034 1.221234 0.371192
v 0.169715 1.195091 0.371192
v 0.458352 1.449277 -0.359777
v 0.419683 1.29266 -0.359777
v 0.314034 1.221235 -0.359777
v 0.169715 1.195091 -0.359777
v 0.458352 1.449276 0.371192
v 0.74699 1.449276 0.371192
v 0.458352 1.55059 0.371192
v 0.74699 1.55059 0.371192
v 0.74699 1.449276 -0.359777
v 0.458352 1.449276 -0.359777
v 0.74699 1.55059 -0.359777
v 0.458352 1.55059 -0.359777

# 288 Texture Coordinates
vt 1.0 0.0
vt 0.0 0.0
vt 0.0 1.0
vt 1.0 0.0
vt 0.0 0.0
vt 0.0 1.0
vt 1.0 0.0
vt 0.0 0.0
vt 0.0 1.0
vt 1.0 0.0
vt 0.0 0.0
vt 0.0 1.0
vt 0.0 1.0
vt 0.0 0.0
vt 1.0 0.0
vt 0.0 1.0
vt 0.0 0.0
vt 1.0 0.0
vt 0.0 1.0
vt 0.0 0.0
vt 1.0 0.0
vt 0.0 1.0
vt 0.0 0.0
vt 1.0 0.0
vt 0.0 1.0
vt 0.0 0.0
vt 1.0 0.0
vt 0.0 1.0
vt 0.0 0.0
vt 1.0 0.0
vt 0.0 1.0
vt 0.0 0.0
vt 1.0 0.0
vt 0.0 1.0
vt 0.0 0.0
vt 1.0 0.0
vt 1.0 0.0
vt 0.0 0.0
vt 0.0 1.0
vt 1.0 0.0
vt 0.0 0.0
vt 0.0 1.0
vt 1.0 0.0
vt 0.0 0.0
vt 0.0 1.0
vt 1.0 0.0
vt 0.0 0.0
vt 0.0 1.0
vt 0.0 1.0
vt 0.0 0.0
vt 1.0 0.0
vt 0.0 1.0
vt 0.0 0.0
vt 1.0 0.0
vt 0.0 1.0
vt 0.0 0.0
vt 1.0 0.0
vt 0.0 1.0
vt 0.0 0.0
vt 1.0 0.0
vt 0.0 1.0
vt 0.0 0.0
vt 1.0 0.0
vt 0.0 1.0
vt 0.0 0.0
vt 1.0 0.0
vt 0.0 1.0
vt 0.0 0.0
vt 1.0 0.0
vt 0.0 1.0
vt 0.0 0.0
vt 1.0 0.0
vt 1.0 0.0
vt 0.0 0.0
vt 0.0 1.0
vt 1.0 0.0
vt 0.0 0.0
vt 0.0 1.0
vt 1.0 0.0
vt 0.0 0.0
vt 0.0 1.0
vt 1.0 0.0
vt 0.0 0.0
vt 0.0 1.0
vt 0.0 1.0
vt 0.0 0.0
vt 1.0 0.0
vt 0.0 1.0
vt 0.0 0.0
vt 1.0 0.0
vt 0.0 1.0
vt 0.0 0.0
vt 1.0 0.0
vt 0.0 1.0
vt 0.0 0.0
vt 1.0 0.0
vt 0.0 1.0
vt 0.0 0.0
vt 1.0 0.0
vt 0.0 1.0
vt 0.0 0.0
vt 1.0 0.0
vt 0.0 1.0
vt 0.0 0.0
vt 1.0 0.0
vt 0.0 1.0
vt 0.0 0.0
vt 1.0 0.0
vt 0.0 1.0
vt 0.0 0.0
vt 1.0 0.0
vt 0.0 1.0
vt 0.0 0.0
vt 1.0 0.0
vt 0.0 1.0
vt 0.0 0.0
vt 1.0 0.0
vt 0.0 1.0
vt 0.0 0.0
vt 1.0 0.0
vt 0.0 1.0
vt 0.0 0.0
vt 1.0 0.0
vt 0.0 1.0
vt 0.0 0.0
vt 1.0 0.0
vt 0.0 1.0
vt 0.0 0.0
vt 1.0 0.0
vt 0.0 1.0
vt 0.0 0.0
vt 1.0 0.0
vt 0.0 1.0
vt 0.0 0.0
vt 1.0 0.0
vt 0.0 1.0
vt 0.0 0.0
vt 1.0 0.0
vt 0.0 1.0
vt 0.0 0.0
vt 1.0 0.0
vt 0.0 1.0
vt 0.0 0.0
vt 1.0 0.0
vt 0.0 1.0
vt 0.0 0.0
vt 1.0 0.0
vt 0.0 1.0
vt 0.0 0.0
vt 1.0 0.0
vt 0.0 1.0
vt 0.0 0.0
vt 1.0 0.0
vt 0.0 1.0
vt 0.0 0.0
vt 1.0 0.0
vt 0.0 1.0
vt 0.0 0.0
vt 1.0 0.0
vt 0.0 1.0
vt 0.0 0.0
vt 1.0 0.0
vt 0.0 1.0
vt 0.0 0.0
vt 1.0 0.0
vt 0.0 1.0
vt 0.0 0.0
vt 1.0 0.0
vt 0.0 1.0
vt 0.0 0.0
vt 1.0 0.0
vt 0.0 1.0
vt 0.0 0.0
vt 1.0 0.0
vt 0.0 1.0
vt 0.0 0.0
vt 1.0 0.0
vt 0.0 1.0
vt 0.0 0.0
vt 1.0 0.0
vt 0.0 1.0
vt 0.0 0.0
vt 1.0 0.0
vt 0.0 1.0
vt 0.0 0.0
vt 1.0 0.0
vt 0.0 1.0
vt 0.0 0.0
vt 1.0 0.0
vt 0.0 1.0
vt 0.0 0.0
vt 1.0 0.0
vt 0.0 1.0
vt 0.0 0.0
vt 1.0 0.0
vt 0.0 1.0
vt 0.0 0.0
vt 1.0 0.0
vt 0.0 1.0
vt 0.0 0.0
vt 1.0 0.0
vt 0.0 1.0
vt 0.0 0.0
vt 1.0 0.0
vt 0.0 1.0
vt 0.0 0.0
vt 1.0 0.0
vt 0.0 1.0
vt 0.0 0.0
vt 1.0 0.0
vt 0.0 1.0
vt 0.0 0.0
vt 1.0 0.0
vt 0.0 1.0
vt 0.0 0.0
vt 1.0 0.0
vt 0.0 1.0
vt 0.0 0.0
vt 1.0 0.0
vt 0.0 1.0
vt 0.0 0.0
vt 1.0 0.0
vt 0.0 1.0
vt 0.0 0.0
vt 1.0 0.0
vt 0.0 1.0
vt 0.0 0.0
vt 1.0 0.0
vt 0.0 1.0
vt 0.0 0.0
vt 1.0 0.0
vt 0.0 1.0
vt 0.0 0.0
vt 1.0 0.0
vt 0.0 1.0
vt 0.0 0.0
vt 1.0 0.0
vt 0.0 1.0
vt 0.0 0.0
vt 1.0 0.0
vt 0.0 1.0
vt 0.0 0.0
vt 1.0 0.0
vt 0.0 1.0
vt 0.0 0.0
vt 1.0 0.0
vt 0.0 1.0
vt 0.0 0.0
vt 1.0 0.0
vt 0.0 1.0
vt 0.0 0.0
vt 1.0 0.0
vt 1.0 0.0
vt 0.0 0.0
vt 0.0 1.0
vt 1.0 0.0
vt 0.0 0.0
vt 0.0 1.0
vt 1.0 0.0
vt 0.0 0.0
vt 0.0 1.0
vt 1.0 0.0
vt 0.0 0.0
vt 0.0 1.0
vt 0.0 1.0
vt 0.0 0.0
vt 1.0 0.0
vt 0.0 1.0
vt 0.0 0.0
vt 1.0 0.0
vt 0.0 1.0
vt 0.0 0.0
vt 1.0 0.0
vt 0.0 1.0
vt 0.0 0.0
vt 1.0 0.0
vt 0.0 1.0
vt 0.0 0.0
vt 1.0 0.0
vt 0.0 1.0
vt 0.0 0.0
vt 1.0 0.0
vt 0.0 1.0
vt 0.0 0.0
vt 1.0 0.0
vt 0.0 1.0
vt 0.0 0.0
vt 1.0 0.0

# 288 Vertex Normals
vn 0.0 -0.0 1.0
vn 0.0 -0.0 1.0
vn 0.0 -0.0 1.0
vn 0.0 -0.0 1.0
vn 0.0 0.0 1.0
vn 0.0 -0.0 1.0
vn -0.0 -0.000001 -1.0
vn -0.0 -0.000001 -1.0
vn -0.0 -0.000001 -1.0
vn -0.0 -0.000001 -1.0
vn -0.0 -0.000001 -1.0
vn -0.0 -0.000001 -1.0
vn -1.0 0.0 -0.0
vn -1.0 0.0 -0.0
vn -1.0 0.0 -0.0
vn -1.0 0.0 -0.0
vn -1.0 0.0 0.0
vn -1.0 0.0 -0.0
vn 1.0 0.0 0.0
vn 1.0 0.0 0.0
vn 1.0 0.0 0.0
vn 1.0 0.0 0.0
vn 1.0 0.0 -0.0
vn 1.0 0.0 0.0
vn 0.0 1.0 0.0
vn 0.0 1.0 0.0
vn -0.0 1.0 0.0
vn 0.0 1.0 0.0
vn 0.0 1.0 0.0
vn 0.0 1.0 0.0
vn 0.0 -1.0 0.0
vn 0.0 -1.0 0.0
vn 0.0 -1.0 0.0
vn 0.0 -1.0 0.0
vn -0.0 -1.0 0.0
vn 0.0 -1.0 0.0
vn 0.0 0.0 1.0
vn 0.0 0.0 1.0
vn 0.0 0.0 1.0
vn 0.0 0.0 1.0
vn 0.0 0.0 1.0
vn 0.0 0.0 1.0
vn 0.0 0.0 -1.0
vn 0.0 0.0 -1.0
vn 0.0 0.0 -1.0
vn 0.0 0.0 -1.0
vn 0.0 0.0 -1.0
vn 0.0 0.0 -1.0
vn -1.0 0.0 -0.0
vn -1.0 0.0 -0.0
vn -1.0 0.0 -0.0
vn -1.0 0.0 -0.0
vn -1.0 0.0 -0.0
vn -1.0 0.0 -0.0
vn 1.0 0.0 -0.0
vn 1.0 0.0 -0.0
vn 1.0 0.0 -0.0
vn 1.0 0.0 -0.0
vn 1.0 0.0 -0.0
vn 1.0 0.0 -0.0
vn -0.0 1.0 0.000001
vn -0.0 1.0 0.000001
vn -0.0 1.0 0.000001
vn -0.0 1.0 0.000001
vn 0.0 1.0 0.000001
vn -0.0 1.0 0.000001
vn 0.0 -1.0 0.0
vn 0.0 -1.0 0.0
vn 0.0 -1.0 0.0
vn 0.0 -1.0 0.0
vn -0.0 -1.0 0.0
vn 0.0 -1.0 0.0
vn 0.0 -0.0 1.0
vn 0.0 -0.0 1.0
vn 0.0 -0.0 1.0
vn 0.0 -0.0 1.0
vn 0.0 0.0 1.0
vn 0.0 -0.0 1.0
vn 0.0 -0.0 -1.0
vn 0.0 -0.0 -1.0
vn 0.0 -0.0 -1.0
vn 0.0 -0.0 -1.0
vn 0.0 0.0 -1.0
vn 0.0 -0.0 -1.0
vn -1.0 0.0 0.0
vn -1.0 0.0 0.0
vn -1.0 0.0 0.0
vn -1.0 0.0 0.0
vn -1.0 0.0 -0.0
vn -1.0 0.0 0.0
vn 1.0 0.0 0.0
vn 1.0 0.0 0.0
vn 1.0 0.0 0.0
vn 1.0 0.0 0.0
vn 1.0 0.0 -0.0
vn 1.0 0.0 0.0
vn 0.0 1.0 0.0
vn 0.0 1.0 0.0
vn -0.0 1.0 0.0
vn 0.0 1.0 0.0
vn 0.0 1.0 0.0
vn 0.0 1.0 0.0
vn 0.0 -1.0 0.0
vn 0.0 -1.0 0.0
vn -0.0 -1.0 0.0
vn 0.0 -1.0 0.0
vn 0.0 -1.0 0.0
vn 0.0 -1.0 0.0
vn 0.956695 0.291092 -0.0
vn 0.868664 0.495401 0.0
vn 0.956695 0.291092 0.0
vn 0.868664 0.495401 0.0
vn 0.729375 0.684114 0.0
vn 0.956695 0.291092 0.0
vn 0.868664 0.495401 0.0
vn 0.441214 0.897402 -0.0
vn 0.729375 0.684114 0.0
vn 0.441214 0.897402 -0.0
vn 0.311463 0.950258 -0.0
vn 0.729375 0.684114 0.0
vn 0.441214 0.897402 -0.0
vn 0.178247 0.983986 -0.0
vn 0.311463 0.950258 -0.0
vn 0.178247 0.983986 -0.0
vn 0.178247 0.983986 -0.0
vn 0.311463 0.950258 -0.0
vn -0.886211 -0.463283 -0.0
vn -0.970847 -0.239702 0.0
vn -0.970847 -0.239702 -0.0
vn -0.886211 -0.463283 -0.0
vn -0.970847 -0.239702 -0.0
vn -0.740701 -0.671834 -0.0
vn -0.441214 -0.897402 0.0
vn -0.886211 -0.463283 -0.0
vn -0.740701 -0.671834 -0.0
vn -0.441214 -0.897402 0.0
vn -0.740701 -0.671834 -0.0
vn -0.311466 -0.950257 0.0
vn -0.178253 -0.983985 0.0
vn -0.441214 -0.897402 0.0
vn -0.311466 -0.950257 0.0
vn -0.178253 -0.983985 0.0
vn -0.311466 -0.950257 0.0
vn -0.178253 -0.983985 0.0
vn 0.0 -0.0 -1.0
vn 0.0 -0.0 -1.0
vn 0.0 -0.0 -1.0
vn 0.0 -0.0 -1.0
vn 0.0 -0.0 -1.0
vn 0.0 -0.0 -1.0
vn 0.0 0.0 1.0
vn 0.0 -0.0 1.0
vn 0.0 -0.0 1.0
vn 0.0 -0.0 1.0
vn 0.0 -0.0 1.0
vn 0.0 -0.0 1.0
vn 0.0 -0.0 -1.0
vn 0.0 -0.0 -1.0
vn 0.0 -0.0 -1.0
vn 0.0 -0.0 -1.0
vn 0.0 -0.0 -1.0
vn 0.0 -0.0 -1.0
vn 0.0 -0.0 1.0
vn 0.0 0.0 1.0
vn 0.0 -0.0 1.0
vn 0.0 0.0 1.0
vn 0.0 0.0 1.0
vn 0.0 -0.0 1.0
vn 0.0 -0.0 -1.0
vn 0.0 -0.0 -1.0
vn 0.0 -0.0 -1.0
vn 0.0 -0.0 -1.0
vn 0.0 -0.0 -1.0
vn 0.0 -0.0 -1.0
vn 0.0 0.0 1.0
vn 0.0 0.0 1.0
vn 0.0 0.0 1.0
vn 0.0 0.0 1.0
vn 0.0 0.0 1.0
vn 0.0 0.0 1.0
vn 0.956695 -0.291093 0.0
vn 0.868664 -0.495402 0.0
vn 0.956695 -0.291093 0.0
vn 0.868664 -0.495402 0.0
vn 0.729375 -0.684114 -0.0
vn 0.956695 -0.291093 0.0
vn 0.868664 -0.495402 0.0
vn 0.441214 -0.897402 -0.0
vn 0.729375 -0.684114 -0.0
vn 0.441214 -0.897402 -0.0
vn 0.311463 -0.950258 -0.0
vn 0.729375 -0.684114 -0.0
vn 0.441214 -0.897402 -0.0
vn 0.178247 -0.983986 -0.0
vn 0.311463 -0.950258 -0.0
vn 0.178247 -0.983986 -0.0
vn 0.178247 -0.983986 0.0
vn 0.311463 -0.950258 -0.0
vn -0.886211 0.463282 -0.0
vn -0.970846 0.239703 -0.0
vn -0.970846 0.239703 -0.0
vn -0.886211 0.463282 -0.0
vn -0.970846 0.239703 -0.0
vn -0.740703 0.671833 0.0
vn -0.441215 0.897402 0.000001
vn -0.886211 0.463282 -0.0
vn -0.740703 0.671833 0.0
vn -0.441215 0.897402 0.000001
vn -0.740703 0.671833 0.0
vn -0.311464 0.950258 0.000001
vn -0.17825 0.983985 0.000001
vn -0.441215 0.897402 0.000001
vn -0.311464 0.950258 0.000001
vn -0.17825 0.983985 0.000001
vn -0.311464 0.950258 0.000001
vn -0.178253 0.983985 -0.0
vn 0.0 -0.0 1.0
vn 0.0 -0.0 1.0
vn 0.0 -0.0 1.0
vn 0.0 -0.0 1.0
vn 0.0 -0.0 1.0
vn 0.0 -0.0 1.0
vn 0.0 0.0 -1.0
vn 0.0 -0.0 -1.0
vn 0.0 0.0 -1.0
vn 0.0 -0.0 -1.0
vn 0.0 -0.0 -1.0
vn 0.0 0.0 -1.0
vn 0.0 0.0 1.0
vn 0.0 -0.0 1.0
vn 0.0 -0.0 1.0
vn 0.0 0.0 1.0
vn 0.0 -0.0 1.0
vn 0.0 0.0 1.0
vn 0.0 -0.0 -1.0
vn 0.0 -0.0 -1.0
vn 0.0 -0.0 -1.0
vn 0.0 -0.0 -1.0
vn 0.0 0.0 -1.0
vn 0.0 -0.0 -1.0
vn 0.0 -0.0 1.0
vn 0.0 0.0 1.0
vn 0.0 0.0 1.0
vn 0.0 -0.0 1.0
vn 0.0 0.0 1.0
vn 0.0 0.0 1.0
vn 0.0 -0.0 -1.0
vn 0.0 0.0 -1.0
vn 0.0 0.0 -1.0
vn 0.0 0.0 -1.0
vn 0.0 0.0 -1.0
vn 0.0 0.0 -1.0
vn 0.0 0.0 1.0
vn 0.0 0.0 1.0
vn 0.0 0.0 1.0
vn 0.0 0.0 1.0
vn 0.0 0.0 1.0
vn 0.0 0.0 1.0
vn 0.0 -0.0 -1.0
vn 0.0 -0.0 -1.0
vn 0.0 -0.0 -1.0
vn 0.0 -0.0 -1.0
vn 0.0 0.0 -1.0
vn 0.0 -0.0 -1.0
vn -1.0 0.0 0.0
vn -1.0 0.0 0.0
vn -1.0 0.0 -0.0
vn -1.0 0.0 0.0
vn -1.0 0.0 0.0
vn -1.0 0.0 0.0
vn 1.0 0.0 0.0
vn 1.0 0.0 0.0
vn 1.0 0.0 -0.0
vn 1.0 0.0 0.0
vn 1.0 0.0 0.0
vn 1.0 0.0 0.0
vn 0.0 1.0 0.0
vn 0.0 1.0 0.0
vn 0.0 1.0 0.0
vn 0.0 1.0 0.0
vn -0.0 1.0 0.0
vn 0.0 1.0 0.0
vn 0.0 -1.0 0.0
vn 0.0 -1.0 0.0
vn -0.0 -1.0 0.0
vn 0.0 -1.0 0.0
vn 0.0 -1.0 0.0
vn 0.0 -1.0 0.0

# ungrouped, 96 grouped triangles

o ungrouped
g ungrouped

f 1/1/1 2/2/2 3/3/3
f 2/4/4 4/5/5 3/6/6
f 5/7/7 6/8/8 7/9/9
f 6/10/10 8/11/11 7/12/12
f 3/13/13 6/14/14 1/15/15
f 3/16/16 8/17/17 6/18/18
f 7/19/19 2/20/20 5/21/21
f 7/22/22 4/23/23 2/24/24
f 3/25/25 7/26/26 8/27/27
f 3/28/28 4/29/29 7/30/30
f 2/31/31 6/32/32 5/33/33
f 2/34/34 1/35/35 6/36/36
f 9/37/37 10/38/38 11/39/39
f 10/40/40 12/41/41 11/42/42
f 13/43/43 14/44/44 15/45/45
f 14/46/46 16/47/47 15/48/48
f 11/49/49 14/50/50 9/51/51
f 11/52/52 16/53/53 14/54/54
f 15/55/55 10/56/56 13/57/57
f 15/58/58 12/59/59 10/60/60
f 11/61/61 15/62/62 16/63/63
f 11/64/64 12/65/65 15/66/66
f 10/67/67 14/68/68 13/69/69
f 10/70/70 9/71/71 14/72/72
f 17/73/73 18/74/74 19/75/75
f 18/76/76 20/77/77 19/78/78
f 21/79/79 22/80/80 23/81/81
f 22/82/82 24/83/83 23/84/84
f 19/85/85 22/86/86 17/87/87
f 19/88/88 24/89/89 22/90/90
f 23/91/91 18/92/92 21/93/93
f 23/94/94 20/95/95 18/96/96
f 19/97/97 23/98/98 24/99/99
f 19/100/100 20/101/101 23/102/102
f 18/103/103 22/104/104 21/105/105
f 18/106/106 17/107/107 22/108/108
f 25/109/109 26/110/110 29/111/111
f 26/112/112 30/113/113 29/114/114
f 26/115/115 27/116/116 30/117/117
f 27/118/118 31/119/119 30/120/120
f 27/121/121 28/122/122 31/123/123
f 28/124/124 32/125/125 31/126/126
f 34/127/127 33/128/128 37/129/129
f 34/130/130 37/131/131 38/132/132
f 35/133/133 34/134/134 38/135/135
f 35/136/136 38/137/137 39/138/138
f 36/139/139 35/140/140 39/141/141
f 36/142/142 39/143/143 40/144/144
f 26/145/145 25/146/146 33/147/147
f 26/148/148 33/149/149 34/150/150
f 29/151/151 30/152/152 37/153/153
f 30/154/154 38/155/155 37/156/156
f 27/157/157 26/158/158 34/159/159
f 27/160/160 34/161/161 35/162/162
f 30/163/163 31/164/164 38/165/165
f 31/166/166 39/167/167 38/168/168
f 28/169/169 27/170/170 35/171/171
f 28/172/172 35/173/173 36/174/174
f 31/175/175 32/176/176 39/177/177
f 32/178/178 40/179/179 39/180/180
f 41/181/181 42/182/182 45/183/183
f 42/184/184 46/185/185 45/186/186
f 42/187/187 43/188/188 46/189/189
f 43/190/190 47/191/191 46/192/192
f 43/193/193 44/194/194 47/195/195
f 44/196/196 48/197/197 47/198/198
f 50/199/199 49/200/200 53/201/201
f 50/202/202 53/203/203 54/204/204
f 51/205/205 50/206/206 54/207/207
f 51/208/208 54/209/209 55/210/210
f 52/211/211 51/212/212 55/213/213
f 52/214/214 55/215/215 56/216/216
f 42/217/217 41/218/218 49/219/219
f 42/220/220 49/221/221 50/222/222
f 45/223/223 46/224/224 53/225/225
f 46/226/226 54/227/227 53/228/228
f 43/229/229 42/230/230 50/231/231
f 43/232/232 50/233/233 51/234/234
f 46/235/235 47/236/236 54/237/237
f 47/238/238 55/239/239 54/240/240
f 44/241/241 43/242/242 51/243/243
f 44/244/244 51/245/245 52/246/246
f 47/247/247 48/248/248 55/249/249
f 48/250/250 56/251/251 55/252/252
f 57/253/253 58/254/254 59/255/255
f 58/256/256 60/257/257 59/258/258
f 61/259/259 62/260/260 63/261/261
f 62/262/262 64/263/263 63/264/264
f 59/265/265 62/266/266 57/267/267
f 59/268/268 64/269/269 62/270/270
f 63/271/271 58/272/272 61/273/273
f 63/274/274 60/275/275 58/276/276
f 59/277/277 63/278/278 64/279/279
f 59/280/280 60/281/281 63/282/282
f 58/283/283 62/284/284 61/285/285
f 58/286/286 57/287/287 62/288/288
