v 10 -10 -10
v -10 -10 -10
v -10 -10 10
v 10 -10 10

v -10 10 -10
v 10 10 -10
v 10 10 10
v -10 10 10

v 10 -10 10
v 10 10 10
v 10 10 -10
v 10 -10 -10

v -10 -10 -10
v -10 10 -10
v -10 10 10
v -10 -10 10

v -10 -10 10
v -10 10 10
v 10 10 10
v 10 -10 10

v 10 -10 -10
v 10 10 -10
v -10 10 -10
v -10 -10 -10



vt 0 1
vt 0 0
vt 1 0
vt 1 1

vn 0 1 0
vn 0 -1 0
vn -1 0 0
vn 1 0 0
vn 0 0 -1
vn 0 0 1


g down

f 1/1/1 2/2/1 3/3/1
f 3/3/1 4/4/1 1/1/1

g up

f 5/1/2 6/2/2 7/3/2
f 7/3/2 8/4/2 5/1/2

g left

f 9/1/3 10/2/3 11/3/3
f 11/3/3 12/4/3 9/1/3

g right

f 13/1/4 14/2/4 15/3/4
f 15/3/4 16/4/4 13/1/4

g front

f 17/1/5 18/2/5 19/3/5
f 19/3/5 20/4/5 17/1/5

g back

f 21/1/6 22/2/6 23/3/6
f 23/3/6 24/4/6 21/1/6

