# Wavefront OBJ file
# Exported by Misfit Model 3D 1.3.8
# Wed Feb 27 19:37:14 2013

# 40 Vertices
v 0.065298 -0.033694 0.033694
v 0.132686 0.132686 0.132686
v 0.57735 -0.57735 0.57735
v 0.065298 0.033694 -0.033694
v 0.033694 -0.033694 0.065298
v 0.132686 -0.132686 -0.132686
v 0.57735 0.57735 -0.57735
v -0.033694 0.033694 0.065298
v -0.132686 -0.132686 0.132686
v 0.033694 -0.065298 0.033694
v 0.033694 0.065298 -0.033694
v -0.033694 0.065298 0.033694
v -0.57735 0.57735 0.57735
v -0.033694 -0.065298 -0.033694
v 0.033694 0.033694 -0.065298
v -0.132686 0.132686 -0.132686
v -0.57735 -0.57735 -0.57735
v -0.033694 -0.033694 -0.065298
v -0.065298 0.033694 0.033694
v -0.065298 -0.033694 -0.033694
v -0.065298 -0.033694 0.033694
v -0.132686 -0.132686 -0.132686
v -0.57735 -0.57735 0.57735
v -0.065298 0.033694 -0.033694
v -0.033694 -0.065298 0.033694
v -0.132686 0.132686 0.132686
v -0.57735 0.57735 -0.57735
v 0.033694 -0.065298 -0.033694
v 0.132686 -0.132686 0.132686
v -0.033694 -0.033694 0.065298
v -0.033694 0.033694 -0.065298
v 0.033694 -0.033694 -0.065298
v 0.57735 -0.57735 -0.57735
v 0.033694 0.033694 0.065298
v -0.033694 0.065298 -0.033694
v 0.132686 0.132686 -0.132686
v 0.57735 0.57735 0.57735
v 0.033694 0.065298 0.033694
v 0.065298 -0.033694 -0.033694
v 0.065298 0.033694 0.033694

# 216 Texture Coordinates
vt 1.0 0.0
vt 0.0 0.0
vt 0.0 1.0
vt 1.0 0.0
vt 0.0 0.0
vt 0.0 1.0
vt 1.0 0.0
vt 0.0 0.0
vt 0.0 1.0
vt 1.0 0.0
vt 0.0 0.0
vt 0.0 1.0
vt 1.0 0.0
vt 0.0 0.0
vt 0.0 1.0
vt 1.0 0.0
vt 0.0 0.0
vt 0.0 1.0
vt 1.0 0.0
vt 0.0 0.0
vt 0.0 1.0
vt 1.0 0.0
vt 0.0 0.0
vt 0.0 1.0
vt 1.0 0.0
vt 0.0 0.0
vt 0.0 1.0
vt 1.0 0.0
vt 0.0 0.0
vt 0.0 1.0
vt 1.0 0.0
vt 0.0 0.0
vt 0.0 1.0
vt 1.0 0.0
vt 0.0 0.0
vt 0.0 1.0
vt 1.0 0.0
vt 0.0 0.0
vt 0.0 1.0
vt 1.0 0.0
vt 0.0 0.0
vt 0.0 1.0
vt 1.0 0.0
vt 0.0 0.0
vt 0.0 1.0
vt 1.0 0.0
vt 0.0 0.0
vt 0.0 1.0
vt 1.0 0.0
vt 0.0 0.0
vt 0.0 1.0
vt 1.0 0.0
vt 0.0 0.0
vt 0.0 1.0
vt 1.0 0.0
vt 0.0 0.0
vt 0.0 1.0
vt 1.0 0.0
vt 0.0 0.0
vt 0.0 1.0
vt 1.0 0.0
vt 0.0 0.0
vt 0.0 1.0
vt 1.0 0.0
vt 0.0 0.0
vt 0.0 1.0
vt 1.0 0.0
vt 0.0 0.0
vt 0.0 1.0
vt 1.0 0.0
vt 0.0 0.0
vt 0.0 1.0
vt 1.0 0.0
vt 0.0 0.0
vt 0.0 1.0
vt 1.0 0.0
vt 0.0 0.0
vt 0.0 1.0
vt 1.0 0.0
vt 0.0 0.0
vt 0.0 1.0
vt 1.0 0.0
vt 0.0 0.0
vt 0.0 1.0
vt 1.0 0.0
vt 0.0 0.0
vt 0.0 1.0
vt 1.0 0.0
vt 0.0 0.0
vt 0.0 1.0
vt 1.0 0.0
vt 0.0 0.0
vt 0.0 1.0
vt 1.0 0.0
vt 0.0 0.0
vt 0.0 1.0
vt 1.0 0.0
vt 0.0 0.0
vt 0.0 1.0
vt 1.0 0.0
vt 0.0 0.0
vt 0.0 1.0
vt 1.0 0.0
vt 0.0 0.0
vt 0.0 1.0
vt 1.0 0.0
vt 0.0 0.0
vt 0.0 1.0
vt 1.0 0.0
vt 0.0 0.0
vt 0.0 1.0
vt 1.0 0.0
vt 0.0 0.0
vt 0.0 1.0
vt 1.0 0.0
vt 0.0 0.0
vt 0.0 1.0
vt 1.0 0.0
vt 0.0 0.0
vt 0.0 1.0
vt 1.0 0.0
vt 0.0 0.0
vt 0.0 1.0
vt 1.0 0.0
vt 0.0 0.0
vt 0.0 1.0
vt 1.0 0.0
vt 0.0 0.0
vt 0.0 1.0
vt 1.0 0.0
vt 0.0 0.0
vt 0.0 1.0
vt 1.0 0.0
vt 0.0 0.0
vt 0.0 1.0
vt 1.0 0.0
vt 0.0 0.0
vt 0.0 1.0
vt 1.0 0.0
vt 0.0 0.0
vt 0.0 1.0
vt 1.0 0.0
vt 0.0 0.0
vt 0.0 1.0
vt 1.0 0.0
vt 0.0 0.0
vt 0.0 1.0
vt 1.0 0.0
vt 0.0 0.0
vt 0.0 1.0
vt 1.0 0.0
vt 0.0 0.0
vt 0.0 1.0
vt 1.0 0.0
vt 0.0 0.0
vt 0.0 1.0
vt 1.0 0.0
vt 0.0 0.0
vt 0.0 1.0
vt 1.0 0.0
vt 0.0 0.0
vt 0.0 1.0
vt 1.0 0.0
vt 0.0 0.0
vt 0.0 1.0
vt 1.0 0.0
vt 0.0 0.0
vt 0.0 1.0
vt 1.0 0.0
vt 0.0 0.0
vt 0.0 1.0
vt 1.0 0.0
vt 0.0 0.0
vt 0.0 1.0
vt 1.0 0.0
vt 0.0 0.0
vt 0.0 1.0
vt 1.0 0.0
vt 0.0 0.0
vt 0.0 1.0
vt 1.0 0.0
vt 0.0 0.0
vt 0.0 1.0
vt 1.0 0.0
vt 0.0 0.0
vt 0.0 1.0
vt 1.0 0.0
vt 0.0 0.0
vt 0.0 1.0
vt 1.0 0.0
vt 0.0 0.0
vt 0.0 1.0
vt 1.0 0.0
vt 0.0 0.0
vt 0.0 1.0
vt 1.0 0.0
vt 0.0 0.0
vt 0.0 1.0
vt 1.0 0.0
vt 0.0 0.0
vt 0.0 1.0
vt 1.0 0.0
vt 0.0 0.0
vt 0.0 1.0
vt 1.0 0.0
vt 0.0 0.0
vt 0.0 1.0
vt 1.0 0.0
vt 0.0 0.0
vt 0.0 1.0
vt 1.0 0.0
vt 0.0 0.0
vt 0.0 1.0
vt 1.0 0.0
vt 0.0 0.0
vt 0.0 1.0

# 216 Vertex Normals
vn 0.201914 -0.958364 0.201914
vn -0.02227 -0.72885 0.684311
vn 0.299129 -0.768881 0.565105
vn 0.565106 -0.768881 0.299129
vn 0.684311 -0.72885 -0.022269
vn 0.201914 -0.958364 0.201914
vn -0.022269 0.684311 -0.72885
vn 0.201914 0.201914 -0.958364
vn 0.299129 0.565106 -0.768881
vn -0.768881 0.565106 0.299129
vn -0.958364 0.201914 0.201914
vn -0.72885 0.684311 -0.022269
vn 0.565106 0.299129 -0.768881
vn 0.201914 0.201914 -0.958364
vn 0.684311 -0.02227 -0.72885
vn -0.72885 -0.022269 0.684311
vn -0.958364 0.201914 0.201914
vn -0.768881 0.299129 0.565106
vn 0.958364 -0.201914 0.201914
vn 0.72885 -0.684311 -0.02227
vn 0.768881 -0.565105 0.299129
vn 0.768881 -0.299129 0.565105
vn 0.72885 0.022269 0.684311
vn 0.958364 -0.201914 0.201914
vn -0.684311 0.72885 -0.022269
vn -0.201914 0.958364 0.201914
vn -0.565106 0.768881 0.299129
vn -0.565106 -0.299129 -0.768881
vn -0.201914 -0.201914 -0.958364
vn -0.684311 0.022269 -0.72885
vn 0.02227 0.72885 0.684311
vn -0.299129 0.768881 0.565106
vn -0.201914 0.958364 0.201914
vn -0.201914 -0.201914 -0.958364
vn -0.299129 -0.565106 -0.768881
vn 0.022269 -0.684311 -0.72885
vn 0.768881 0.299129 -0.565105
vn 0.72885 -0.022269 -0.684311
vn 0.958364 0.201914 -0.201914
vn -0.565105 0.299129 0.768881
vn -0.201914 0.201914 0.958364
vn -0.684311 -0.022269 0.72885
vn 0.72885 0.684311 0.02227
vn 0.768881 0.565105 -0.299129
vn 0.958364 0.201914 -0.201914
vn -0.201914 0.201914 0.958364
vn -0.299129 0.565106 0.768881
vn 0.022269 0.684311 0.72885
vn -0.684311 -0.72885 0.022269
vn -0.201914 -0.958364 -0.201914
vn -0.565105 -0.768881 -0.299129
vn -0.299129 -0.768881 -0.565105
vn -0.201914 -0.958364 -0.201914
vn 0.02227 -0.72885 -0.684311
vn 0.299129 -0.565105 0.768881
vn -0.022269 -0.684311 0.72885
vn 0.201914 -0.201914 0.958364
vn 0.201914 0.958364 -0.201914
vn -0.022269 0.72885 -0.684311
vn 0.299129 0.768881 -0.565105
vn 0.201914 -0.201914 0.958364
vn 0.684311 0.02227 0.72885
vn 0.565105 -0.299129 0.768881
vn 0.201914 0.958364 -0.201914
vn 0.565106 0.768881 -0.299129
vn 0.684311 0.72885 0.022269
vn -0.72885 0.022269 -0.684311
vn -0.958364 -0.201914 -0.201914
vn -0.768881 -0.299129 -0.565106
vn -0.768881 -0.565106 -0.299129
vn -0.958364 -0.201914 -0.201914
vn -0.72885 -0.684311 0.02227
vn 0.958364 0.201914 -0.201914
vn 0.958364 -0.201914 0.201914
vn 0.93688 -0.247241 -0.247241
vn 0.958364 0.201914 -0.201914
vn 0.93688 0.247241 0.247241
vn 0.958364 -0.201914 0.201914
vn -0.247241 -0.247241 0.93688
vn 0.201914 -0.201914 0.958364
vn -0.201914 0.201914 0.958364
vn -0.201914 0.958364 0.201914
vn 0.201914 0.958364 -0.201914
vn -0.247241 0.93688 -0.247241
vn 0.201914 -0.201914 0.958364
vn 0.247241 0.247241 0.93688
vn -0.201914 0.201914 0.958364
vn -0.201914 -0.958364 -0.201914
vn 0.201914 -0.958364 0.201914
vn -0.247241 -0.93688 0.247241
vn -0.201914 0.958364 0.201914
vn 0.247241 0.93688 0.247241
vn 0.201914 0.958364 -0.201914
vn 0.247241 -0.93688 -0.247241
vn 0.201914 -0.958364 0.201914
vn -0.201914 -0.958364 -0.201914
vn -0.247241 0.247241 -0.93688
vn 0.201914 0.201914 -0.958364
vn -0.201914 -0.201914 -0.958364
vn -0.201914 -0.201914 -0.958364
vn 0.201914 0.201914 -0.958364
vn 0.247241 -0.247241 -0.93688
vn -0.958364 -0.201914 -0.201914
vn -0.958364 0.201914 0.201914
vn -0.93688 0.247241 -0.247241
vn -0.93688 -0.247241 0.247241
vn -0.958364 0.201914 0.201914
vn -0.958364 -0.201914 -0.201914
vn -0.201914 -0.201914 0.958364
vn 0.022269 -0.684311 0.72885
vn -0.299129 -0.565106 0.768881
vn -0.565106 -0.299129 0.768881
vn -0.684311 0.022269 0.72885
vn -0.201914 -0.201914 0.958364
vn 0.02227 0.72885 -0.684311
vn -0.201914 0.958364 -0.201914
vn -0.299129 0.768881 -0.565106
vn 0.768881 -0.299129 -0.565105
vn 0.958364 -0.201914 -0.201914
vn 0.72885 0.022269 -0.684311
vn -0.565106 0.768881 -0.299129
vn -0.201914 0.958364 -0.201914
vn -0.684311 0.72885 0.022269
vn 0.72885 -0.684311 0.02227
vn 0.958364 -0.201914 -0.201914
vn 0.768881 -0.565105 -0.299129
vn -0.958364 -0.201914 0.201914
vn -0.72885 0.022269 0.684311
vn -0.768881 -0.299129 0.565105
vn -0.768881 -0.565106 0.299129
vn -0.72885 -0.684311 -0.02227
vn -0.958364 -0.201914 0.201914
vn 0.684311 0.022269 -0.72885
vn 0.201914 -0.201914 -0.958364
vn 0.565106 -0.299129 -0.768881
vn 0.565106 0.768881 0.299129
vn 0.201914 0.958364 0.201914
vn 0.684311 0.72885 -0.022269
vn -0.022269 -0.684311 -0.72885
vn 0.299129 -0.565105 -0.768881
vn 0.201914 -0.201914 -0.958364
vn 0.201914 0.958364 0.201914
vn 0.299129 0.768881 0.565106
vn -0.02227 0.72885 0.684311
vn -0.768881 0.565106 -0.299129
vn -0.72885 0.684311 0.022269
vn -0.958364 0.201914 -0.201914
vn 0.565106 -0.768881 -0.299129
vn 0.201914 -0.958364 -0.201914
vn 0.684311 -0.72885 0.022269
vn -0.72885 -0.022269 -0.684311
vn -0.768881 0.299129 -0.565106
vn -0.958364 0.201914 -0.201914
vn 0.201914 -0.958364 -0.201914
vn 0.299129 -0.768881 -0.565106
vn -0.022269 -0.72885 -0.684311
vn 0.684311 -0.022269 0.72885
vn 0.201914 0.201914 0.958364
vn 0.565105 0.299129 0.768881
vn 0.299129 0.565105 0.768881
vn 0.201914 0.201914 0.958364
vn -0.02227 0.684311 0.72885
vn -0.299129 -0.768881 0.565105
vn 0.022269 -0.72885 0.684311
vn -0.201914 -0.958364 0.201914
vn -0.201914 0.201914 -0.958364
vn 0.02227 0.684311 -0.72885
vn -0.299129 0.565106 -0.768881
vn -0.201914 -0.958364 0.201914
vn -0.684311 -0.72885 -0.02227
vn -0.565106 -0.768881 0.299129
vn -0.201914 0.201914 -0.958364
vn -0.565105 0.299129 -0.768881
vn -0.684311 -0.022269 -0.72885
vn 0.72885 0.684311 -0.022269
vn 0.958364 0.201914 0.201914
vn 0.768881 0.565105 0.299129
vn 0.768881 0.299129 0.565106
vn 0.958364 0.201914 0.201914
vn 0.72885 -0.02227 0.684311
vn -0.958364 0.201914 -0.201914
vn -0.958364 -0.201914 0.201914
vn -0.93688 0.247241 0.247241
vn -0.958364 0.201914 -0.201914
vn -0.93688 -0.247241 -0.247241
vn -0.958364 -0.201914 0.201914
vn 0.247241 -0.93688 0.247241
vn -0.201914 -0.958364 0.201914
vn 0.201914 -0.958364 -0.201914
vn 0.201914 -0.201914 -0.958364
vn -0.201914 0.201914 -0.958364
vn 0.247241 0.247241 -0.93688
vn -0.201914 -0.958364 0.201914
vn -0.247241 -0.93688 -0.247241
vn 0.201914 -0.958364 -0.201914
vn 0.201914 0.201914 0.958364
vn -0.201914 -0.201914 0.958364
vn 0.247241 -0.247241 0.93688
vn 0.201914 -0.201914 -0.958364
vn -0.247241 -0.247241 -0.93688
vn -0.201914 0.201914 -0.958364
vn -0.247241 0.247241 0.93688
vn -0.201914 -0.201914 0.958364
vn 0.201914 0.201914 0.958364
vn 0.247241 0.93688 -0.247241
vn -0.201914 0.958364 -0.201914
vn 0.201914 0.958364 0.201914
vn 0.201914 0.958364 0.201914
vn -0.201914 0.958364 -0.201914
vn -0.247241 0.93688 0.247241
vn 0.958364 0.201914 0.201914
vn 0.958364 -0.201914 -0.201914
vn 0.93688 0.247241 -0.247241
vn 0.93688 -0.247241 0.247241
vn 0.958364 -0.201914 -0.201914
vn 0.958364 0.201914 0.201914

# one, 12 grouped triangles

o one
g one

f 14/1/1 17/2/2 6/3/3
f 9/4/4 17/5/5 14/6/6
f 17/7/7 18/8/8 6/9/9
f 9/10/10 20/11/11 17/12/12
f 16/13/13 18/14/14 17/15/15
f 17/16/16 20/17/17 16/18/18
f 34/109/109 37/110/110 26/111/111
f 29/112/112 37/113/113 34/114/114
f 37/115/115 38/116/116 26/117/117
f 29/118/118 40/119/119 37/120/120
f 36/121/121 38/122/122 37/123/123
f 37/124/124 40/125/125 36/126/126
# two, 12 grouped triangles

o two
g two

f 4/19/19 7/20/20 2/21/21
f 6/22/22 7/23/23 4/24/24
f 7/25/25 11/26/26 2/27/27
f 6/28/28 15/29/29 7/30/30
f 7/31/31 16/32/32 11/33/33
f 15/34/34 16/35/35 7/36/36
f 24/127/127 27/128/128 22/129/129
f 26/130/130 27/131/131 24/132/132
f 27/133/133 31/134/134 22/135/135
f 26/136/136 35/137/137 27/138/138
f 27/139/139 36/140/140 31/141/141
f 35/142/142 36/143/143 27/144/144
# three, 12 grouped triangles

o three
g three

f 2/37/37 3/38/38 1/39/39
f 2/40/40 5/41/41 3/42/42
f 3/43/43 6/44/44 1/45/45
f 5/46/46 9/47/47 3/48/48
f 3/49/49 10/50/50 6/51/51
f 9/52/52 10/53/53 3/54/54
f 22/145/145 23/146/146 21/147/147
f 22/148/148 25/149/149 23/150/150
f 23/151/151 26/152/152 21/153/153
f 25/154/154 29/155/155 23/156/156
f 23/157/157 30/158/158 26/159/159
f 29/160/160 30/161/161 23/162/162
# four, 12 grouped triangles

o four
g four

f 2/55/55 13/56/56 8/57/57
f 12/58/58 13/59/59 2/60/60
f 8/61/61 13/62/62 9/63/63
f 12/64/64 16/65/65 13/66/66
f 13/67/67 19/68/68 9/69/69
f 16/70/70 19/71/71 13/72/72
f 22/163/163 33/164/164 28/165/165
f 32/166/166 33/167/167 22/168/168
f 28/169/169 33/170/170 29/171/171
f 32/172/172 36/173/173 33/174/174
f 33/175/175 39/176/176 29/177/177
f 36/178/178 39/179/179 33/180/180
# center, 24 grouped triangles

o center
g center

f 1/73/73 4/74/74 2/75/75
f 1/76/76 6/77/77 4/78/78
f 2/79/79 8/80/80 5/81/81
f 11/82/82 12/83/83 2/84/84
f 8/85/85 9/86/86 5/87/87
f 10/88/88 14/89/89 6/90/90
f 11/91/91 16/92/92 12/93/93
f 9/94/94 14/95/95 10/96/96
f 6/97/97 18/98/98 15/99/99
f 15/100/100 18/101/101 16/102/102
f 19/103/103 20/104/104 9/105/105
f 16/106/106 20/107/107 19/108/108
f 21/181/181 24/182/182 22/183/183
f 21/184/184 26/185/185 24/186/186
f 22/187/187 28/188/188 25/189/189
f 31/190/190 32/191/191 22/192/192
f 28/193/193 29/194/194 25/195/195
f 30/196/196 34/197/197 26/198/198
f 31/199/199 36/200/200 32/201/201
f 29/202/202 34/203/203 30/204/204
f 26/205/205 38/206/206 35/207/207
f 35/208/208 38/209/209 36/210/210
f 39/211/211 40/212/212 29/213/213
f 36/214/214 40/215/215 39/216/216
