# Wavefront OBJ file
# Exported by Misfit Model 3D 1.3.8
# Thu Aug 04 20:09:42 2011

# 32 Vertices
v -1025.473444 7.965075 -0.029691
v -1025.826359 7.358769 3.009852
v -1026.125424 5.632157 5.58666
v -1026.325344 3.0481 7.30842
v -1026.395487 -0.000002 7.913026
v -1026.325344 -3.048105 7.308416
v -1026.125424 -5.632161 5.58666
v -1025.826196 -7.358773 3.009864
v -1025.473444 -7.965079 -0.029691
v -1025.12061 -7.358774 -3.069241
v -1024.821464 -5.632162 -5.646046
v -1024.621625 -3.048105 -7.367809
v -1024.551319 -0.000003 -7.972411
v -1024.621544 3.0481 -7.367802
v -1024.821464 5.632157 -5.646038
v -1025.12061 7.358769 -3.069245
v 1025.976085 7.965075 -0.020899
v 1026.111075 7.358768 3.034248
v 1026.225455 5.632157 5.624279
v 1026.301953 3.0481 7.35488
v 1026.328837 -0.000003 7.962587
v 1026.301953 -3.048106 7.354879
v 1026.225455 -5.632162 5.624279
v 1026.111075 -7.358774 3.03425
v 1025.976085 -7.965079 -0.020899
v 1025.841094 -7.358774 -3.076044
v 1025.726633 -5.632161 -5.666077
v 1025.649972 -3.048104 -7.396678
v 1025.623251 -0.000002 -8.004384
v 1025.649972 3.048101 -7.396678
v 1025.726633 5.632158 -5.666077
v 1025.841094 7.358769 -3.076048

# 96 Texture Coordinates
vt 0.25 0.5
vt 0.3125 0.390161
vt 0.25 0.390161
vt 0.25 0.5
vt 0.3125 0.5
vt 0.3125 0.390161
vt 0.3125 0.5
vt 0.375 0.390161
vt 0.3125 0.390161
vt 0.3125 0.5
vt 0.375 0.5
vt 0.375 0.390161
vt 0.375 0.5
vt 0.4375 0.390161
vt 0.375 0.390161
vt 0.375 0.5
vt 0.4375 0.5
vt 0.4375 0.390161
vt 0.4375 0.5
vt 0.5 0.390161
vt 0.4375 0.390161
vt 0.4375 0.5
vt 0.5 0.5
vt 0.5 0.390161
vt 0.5 0.5
vt 0.5625 0.390161
vt 0.5 0.390161
vt 0.5 0.5
vt 0.5625 0.5
vt 0.5625 0.390161
vt 0.5625 0.5
vt 0.625 0.390161
vt 0.5625 0.390161
vt 0.5625 0.5
vt 0.625 0.5
vt 0.625 0.390161
vt 0.625 0.5
vt 0.6875 0.390161
vt 0.625 0.390161
vt 0.625 0.5
vt 0.6875 0.5
vt 0.6875 0.390161
vt 0.6875 0.5
vt 0.75 0.390161
vt 0.6875 0.390161
vt 0.6875 0.5
vt 0.75 0.5
vt 0.75 0.390161
vt 0.75 0.5
vt 0.8125 0.390161
vt 0.75 0.390161
vt 0.75 0.5
vt 0.8125 0.5
vt 0.8125 0.390161
vt 0.8125 0.5
vt 0.875 0.390161
vt 0.8125 0.390161
vt 0.8125 0.5
vt 0.875 0.5
vt 0.875 0.390161
vt 0.875 0.5
vt 0.9375 0.390161
vt 0.875 0.390161
vt 0.875 0.5
vt 0.9375 0.5
vt 0.9375 0.390161
vt 0.9375 0.5
vt 1.0 0.390161
vt 0.9375 0.390161
vt 0.9375 0.5
vt 1.0 0.5
vt 1.0 0.390161
vt -0.0 0.5
vt 0.0625 0.390161
vt -0.0 0.390161
vt -0.0 0.5
vt 0.0625 0.5
vt 0.0625 0.390161
vt 0.0625 0.5
vt 0.125 0.390161
vt 0.0625 0.390161
vt 0.0625 0.5
vt 0.125 0.5
vt 0.125 0.390161
vt 0.125 0.5
vt 0.1875 0.390161
vt 0.125 0.390161
vt 0.125 0.5
vt 0.1875 0.5
vt 0.1875 0.390161
vt 0.1875 0.5
vt 0.25 0.390161
vt 0.1875 0.390161
vt 0.1875 0.5
vt 0.25 0.5
vt 0.25 0.390161

# 96 Vertex Normals
vn 0.000001 -0.997797 -0.066336
vn 0.000003 -0.947026 -0.321156
vn 0.0 -0.997819 0.066015
vn 0.000001 -0.997797 -0.066336
vn 0.000006 -0.896567 -0.442908
vn 0.000003 -0.947026 -0.321156
vn 0.000006 -0.896567 -0.442908
vn 0.000011 -0.752007 -0.659155
vn 0.000003 -0.947026 -0.321156
vn 0.000006 -0.896567 -0.442908
vn 0.000015 -0.65898 -0.75216
vn 0.000011 -0.752007 -0.659155
vn 0.000015 -0.65898 -0.75216
vn 0.000019 -0.44274 -0.89665
vn 0.000011 -0.752007 -0.659155
vn 0.000015 -0.65898 -0.75216
vn 0.000022 -0.321023 -0.947071
vn 0.000019 -0.44274 -0.89665
vn 0.000022 -0.321023 -0.947071
vn 0.000024 -0.066302 -0.9978
vn 0.000019 -0.44274 -0.89665
vn 0.000022 -0.321023 -0.947071
vn 0.000024 0.065983 -0.997821
vn 0.000024 -0.066302 -0.9978
vn 0.000024 0.065983 -0.997821
vn 0.000022 0.32029 -0.94732
vn 0.000024 -0.066302 -0.9978
vn 0.000024 0.065983 -0.997821
vn 0.000019 0.443027 -0.896508
vn 0.000022 0.32029 -0.94732
vn 0.000019 0.443027 -0.896508
vn 0.000015 0.658397 -0.752671
vn 0.000022 0.32029 -0.94732
vn 0.000019 0.443027 -0.896508
vn 0.000011 0.752517 -0.658573
vn 0.000015 0.658397 -0.752671
vn 0.000011 0.752517 -0.658573
vn 0.000006 0.896425 -0.443196
vn 0.000015 0.658397 -0.752671
vn 0.000011 0.752517 -0.658573
vn 0.000003 0.947275 -0.320422
vn 0.000006 0.896425 -0.443196
vn 0.000003 0.947275 -0.320422
vn 0.000001 0.997819 -0.066015
vn 0.000006 0.896425 -0.443196
vn 0.000003 0.947275 -0.320422
vn 0.0 0.997797 0.066336
vn 0.000001 0.997819 -0.066015
vn 0.0 0.997797 0.066336
vn 0.000001 0.947026 0.321156
vn 0.000001 0.997819 -0.066015
vn 0.0 0.997797 0.066336
vn 0.000003 0.896567 0.442908
vn 0.000001 0.947026 0.321156
vn 0.000003 0.896567 0.442908
vn 0.000005 0.752007 0.659155
vn 0.000001 0.947026 0.321156
vn 0.000003 0.896567 0.442908
vn 0.000009 0.65898 0.75216
vn 0.000005 0.752007 0.659155
vn 0.000009 0.65898 0.75216
vn 0.000011 0.44274 0.89665
vn 0.000005 0.752007 0.659155
vn 0.000009 0.65898 0.75216
vn 0.000014 0.321023 0.947072
vn 0.000011 0.44274 0.89665
vn 0.000014 0.321023 0.947072
vn 0.000015 0.066302 0.9978
vn 0.000011 0.44274 0.89665
vn 0.000014 0.321023 0.947072
vn 0.000015 -0.065983 0.997821
vn 0.000015 0.066302 0.9978
vn 0.000015 -0.065983 0.997821
vn 0.000014 -0.320289 0.94732
vn 0.000015 0.066302 0.9978
vn 0.000015 -0.065983 0.997821
vn 0.000011 -0.443028 0.896508
vn 0.000014 -0.320289 0.94732
vn 0.000011 -0.443028 0.896508
vn 0.000009 -0.658397 0.752671
vn 0.000014 -0.320289 0.94732
vn 0.000011 -0.443028 0.896508
vn 0.000005 -0.752517 0.658573
vn 0.000009 -0.658397 0.752671
vn 0.000005 -0.752517 0.658573
vn 0.000003 -0.896424 0.443197
vn 0.000009 -0.658397 0.752671
vn 0.000005 -0.752517 0.658573
vn 0.000001 -0.947275 0.320422
vn 0.000003 -0.896424 0.443197
vn 0.000001 -0.947275 0.320422
vn 0.0 -0.997819 0.066015
vn 0.000003 -0.896424 0.443197
vn 0.000001 -0.947275 0.320422
vn 0.000001 -0.997797 -0.066336
vn 0.0 -0.997819 0.066015

# warp, 32 grouped triangles

o warp
g warp

f 17/1/1 2/2/2 1/3/3
f 17/4/4 18/5/5 2/6/6
f 18/7/7 3/8/8 2/9/9
f 18/10/10 19/11/11 3/12/12
f 19/13/13 4/14/14 3/15/15
f 19/16/16 20/17/17 4/18/18
f 20/19/19 5/20/20 4/21/21
f 20/22/22 21/23/23 5/24/24
f 21/25/25 6/26/26 5/27/27
f 21/28/28 22/29/29 6/30/30
f 22/31/31 7/32/32 6/33/33
f 22/34/34 23/35/35 7/36/36
f 23/37/37 8/38/38 7/39/39
f 23/40/40 24/41/41 8/42/42
f 24/43/43 9/44/44 8/45/45
f 24/46/46 25/47/47 9/48/48
f 25/49/49 10/50/50 9/51/51
f 25/52/52 26/53/53 10/54/54
f 26/55/55 11/56/56 10/57/57
f 26/58/58 27/59/59 11/60/60
f 27/61/61 12/62/62 11/63/63
f 27/64/64 28/65/65 12/66/66
f 28/67/67 13/68/68 12/69/69
f 28/70/70 29/71/71 13/72/72
f 29/73/73 14/74/74 13/75/75
f 29/76/76 30/77/77 14/78/78
f 30/79/79 15/80/80 14/81/81
f 30/82/82 31/83/83 15/84/84
f 31/85/85 16/86/86 15/87/87
f 31/88/88 32/89/89 16/90/90
f 32/91/91 1/92/92 16/93/93
f 32/94/94 17/95/95 1/96/96
