<?xml version="1.0" encoding="UTF-8" standalone="no"?>
<!-- Created with Inkscape (http://www.inkscape.org/) -->
<svg
   xmlns:svg="http://www.w3.org/2000/svg"
   xmlns="http://www.w3.org/2000/svg"
   version="1.0"
   width="235.65109"
   height="210.46544"
   id="svg2635">
  <defs
     id="defs2637" />
  <g
     transform="translate(-136.46016,-321.41518)"
     id="layer1">
    <path
       d="M 337.10386,417.50583 C 337.10386,459.03079 303.40246,492.7322 261.87756,492.7322 C 220.35256,492.7322 186.65116,459.03079 186.65116,417.50583 C 186.65116,375.98087 220.35256,342.27946 261.87756,342.27946 C 303.40246,342.27946 337.10386,375.98087 337.10386,417.50583 z M 305.35686,354.70217 L 362.14556,321.91518 L 324.68106,376.78698 M 277.75086,488.59131 L 309.49776,531.38062 L 302.59626,480.30951 M 203.21466,465.1262 L 176.98896,512.05641 L 223.91916,480.30951 M 212.87676,357.46277 L 205.97526,327.09616 L 232.20096,347.80067 M 252.90546,380.92788 L 276.37056,347.80067 L 284.65236,383.68848 M 335.72346,427.85809 L 371.61126,465.1262 L 326.06136,458.2247 M 189.41166,389.20968 L 136.96016,383.68848 L 183.89046,419.57629"
       id="path2503"
       style="fill:none;fill-opacity:1;stroke:#000000;stroke-width:1;stroke-linejoin:round;stroke-miterlimit:4;stroke-opacity:1" />
  </g>
</svg>
