<?xml version="1.0" encoding="UTF-8" standalone="no"?>
<!-- Created with Inkscape (http://www.inkscape.org/) -->
<svg
   xmlns:svg="http://www.w3.org/2000/svg"
   xmlns="http://www.w3.org/2000/svg"
   version="1.0"
   width="23.084801"
   height="356.96365"
   id="svg2666">
  <defs
     id="defs2668" />
  <g
     transform="translate(211.5424,-291.02322)"
     id="layer1">
    <path
       d="M -188.9576,480.54745 C -188.9576,490.41002 -193.9046,498.41443 -200,498.41443 C -206.0954,498.41443 -211.0424,490.41002 -211.0424,480.54745 C -211.0424,470.68487 -206.0954,462.68046 -200,462.68046 C -193.9046,462.68046 -188.9576,470.68487 -188.9576,480.54745 z M -188.9576,501.25195 C -188.9576,511.11452 -193.9046,519.11893 -200,519.11893 C -206.0954,519.11893 -211.0424,511.11452 -211.0424,501.25195 C -211.0424,491.38938 -206.0954,483.38497 -200,483.38497 C -193.9046,483.38497 -188.9576,491.38938 -188.9576,501.25195 z M -188.9576,523.33675 C -188.9576,533.19933 -193.9046,541.20374 -200,541.20374 C -206.0954,541.20374 -211.0424,533.19933 -211.0424,523.33675 C -211.0424,513.47418 -206.0954,505.46977 -200,505.46977 C -193.9046,505.46977 -188.9576,513.47418 -188.9576,523.33675 z M -188.9576,544.04126 C -188.9576,553.90384 -193.9046,561.90825 -200,561.90825 C -206.0954,561.90825 -211.0424,553.90384 -211.0424,544.04126 C -211.0424,534.17868 -206.0954,526.17427 -200,526.17427 C -193.9046,526.17427 -188.9576,534.17868 -188.9576,544.04126 z M -188.9576,566.12607 C -188.9576,575.98864 -193.9046,583.99305 -200,583.99305 C -206.0954,583.99305 -211.0424,575.98864 -211.0424,566.12607 C -211.0424,556.26349 -206.0954,548.25908 -200,548.25908 C -193.9046,548.25908 -188.9576,556.26349 -188.9576,566.12607 z M -188.9576,586.83057 C -188.9576,596.69315 -193.9046,604.69756 -200,604.69756 C -206.0954,604.69756 -211.0424,596.69315 -211.0424,586.83057 C -211.0424,576.968 -206.0954,568.96359 -200,568.96359 C -193.9046,568.96359 -188.9576,576.968 -188.9576,586.83057 z M -188.9576,608.91538 C -188.9576,618.77794 -193.9046,626.78235 -200,626.78235 C -206.0954,626.78235 -211.0424,618.77794 -211.0424,608.91538 C -211.0424,599.05281 -206.0954,591.0484 -200,591.0484 C -193.9046,591.0484 -188.9576,599.05281 -188.9576,608.91538 z M -188.9576,629.61987 C -188.9576,639.48245 -193.9046,647.48686 -200,647.48686 C -206.0954,647.48686 -211.0424,639.48245 -211.0424,629.61987 C -211.0424,619.7573 -206.0954,611.7529 -200,611.7529 C -193.9046,611.7529 -188.9576,619.7573 -188.9576,629.61987 z M -188.9576,309.3902 C -188.9576,319.25278 -193.9046,327.25719 -200,327.25719 C -206.0954,327.25719 -211.0424,319.25278 -211.0424,309.3902 C -211.0424,299.52763 -206.0954,291.52322 -200,291.52322 C -193.9046,291.52322 -188.9576,299.52763 -188.9576,309.3902 z M -188.9576,330.09471 C -188.9576,339.95728 -193.9046,347.96169 -200,347.96169 C -206.0954,347.96169 -211.0424,339.95728 -211.0424,330.09471 C -211.0424,320.23214 -206.0954,312.22773 -200,312.22773 C -193.9046,312.22773 -188.9576,320.23214 -188.9576,330.09471 z M -188.9576,352.17952 C -188.9576,362.04209 -193.9046,370.0465 -200,370.0465 C -206.0954,370.0465 -211.0424,362.04209 -211.0424,352.17952 C -211.0424,342.31694 -206.0954,334.31253 -200,334.31253 C -193.9046,334.31253 -188.9576,342.31694 -188.9576,352.17952 z M -188.9576,372.88402 C -188.9576,382.7466 -193.9046,390.75101 -200,390.75101 C -206.0954,390.75101 -211.0424,382.7466 -211.0424,372.88402 C -211.0424,363.02145 -206.0954,355.01704 -200,355.01704 C -193.9046,355.01704 -188.9576,363.02145 -188.9576,372.88402 z M -188.9576,394.96883 C -188.9576,404.8314 -193.9046,412.83581 -200,412.83581 C -206.0954,412.83581 -211.0424,404.8314 -211.0424,394.96883 C -211.0424,385.10625 -206.0954,377.10184 -200,377.10184 C -193.9046,377.10184 -188.9576,385.10625 -188.9576,394.96883 z M -188.9576,415.67333 C -188.9576,425.53591 -193.9046,433.54032 -200,433.54032 C -206.0954,433.54032 -211.0424,425.53591 -211.0424,415.67333 C -211.0424,405.81076 -206.0954,397.80635 -200,397.80635 C -193.9046,397.80635 -188.9576,405.81076 -188.9576,415.67333 z M -188.9576,437.75814 C -188.9576,447.62071 -193.9046,455.62511 -200,455.62511 C -206.0954,455.62511 -211.0424,447.62071 -211.0424,437.75814 C -211.0424,427.89557 -206.0954,419.89116 -200,419.89116 C -193.9046,419.89116 -188.9576,427.89557 -188.9576,437.75814 z M -188.9576,458.46263 C -188.9576,468.32521 -193.9046,476.32962 -200,476.32962 C -206.0954,476.32962 -211.0424,468.32521 -211.0424,458.46263 C -211.0424,448.60007 -206.0954,440.59566 -200,440.59566 C -193.9046,440.59566 -188.9576,448.60007 -188.9576,458.46263 z"
       id="path2480"
       style="fill:none;fill-opacity:1;stroke:#000000;stroke-width:1;stroke-linejoin:round;stroke-miterlimit:4;stroke-opacity:1" />
  </g>
</svg>
