/* XPM */
static const char * font_13x7_xpm[] = {
"112 156 2 1",
" 	c #000000",
"#	c #FFFFFF",
"                # #            #                    ##      ##  ##                                            # ",
"          ##    # #    #  #   ###   ##       ##     ##     #      #      #                                    # ",
"          ##    # #    #  #  # # # #  #  #  #  #   ##      #      #    # # #    #                            #  ",
"          ##          ###### # #   #  # #   #  #          #        #    # #     #                            #  ",
"          ##           #  #   ##    ## #     ##           #        #   # # #    #                           #   ",
"          ##           #  #    ##     #     ##  #         #        #     #   #######       #######          #   ",
"          #           ######   # #   # ##  #  # #         #        #            #                           #   ",
"                       #  #    # #  # #  # #   #          #        #            #                          #    ",
"          ##           #  #  # # # #  #  # #   #           #      #             #      ##           ##     #    ",
"          ##           #  #   ###      ##   ### #          #      #                    ##           ##    #     ",
"                               #                            ##  ##                    ##                  #     ",
"                                                                                                                ",
"                                                                                                                ",
"                                                                                                                ",
"  ###     #     ###    ###      #   #####   ###   #####   ###    ###                                      ####  ",
" #   #   ##    #   #  #   #    ##   #      #   #      #  #   #  #   #                    #          #         # ",
" #   #  # #        #      #   # #   #      #          #  #   #  #   #   ##     ##       #            #        # ",
" #   #    #        #      #  #  #   ####   #         #   #   #  #   #   ##     ##      #   #######    #       # ",
" #   #    #       #     ##  #   #       #  ####     #     ###    ####                 #                #   ###  ",
" #   #    #      #        # ######      #  #   #    #    #   #      #                  #   #######    #    #    ",
" #   #    #     #         #     #       #  #   #   #     #   #      #                   #            #          ",
" #   #    #    #      #   #     #   #   #  #   #   #     #   #  #   #   ##     ##        #          #      #    ",
"  ###     #    #####   ###      #    ###    ###    #      ###    ###    ##     ##                          #    ",
"                                                                              ##                                ",
"                                                                                                                ",
"                                                                                                                ",
"                                                                                                                ",
"  ###     ##   ####     ###  ###    #####   ####    ###  #   #  #####  #####  #    #  #     #    # #   #    ##  ",
" #   #    ##   #   #   #  #  #  #   #       #      #  #  #   #    #      #    #   #   #     ##  ## ##  #   #  # ",
"#  ###   #  #  #   #  #      #   #  #       #     #      #   #    #      #    #  #    #     ##  ## ##  #  #    #",
"# #  #   #  #  #   #  #      #   #  #       #     #      #   #    #      #    # #     #     # ## # # # #  #    #",
"# #  #   #  #  ####   #      #   #  ####    ####  #      #####    #      #    ###     #     # ## # # # #  #    #",
"# # ##  ###### #   #  #      #   #  #       #     #   #  #   #    #      #    #  #    #     # ## # #  ##  #    #",
"#  #  # #    # #   #  #      #   #  #       #     #   #  #   #    #      #    #   #   #     #    # #  ##  #    #",
" #      #    # #   #   #     #  #   #       #      #  #  #   #    #      #    #    #  #     #    # #   #   #  # ",
"  ###   #    # ####     ###  ###    #####   #       ###  #   #  ##### ###     #    #  ####  #    # #   #    ##  ",
"                                                                                                                ",
"                                                                                                                ",
"                                                                                                                ",
"                                                                                ###  #      ###                 ",
" ####     ##   ####    #### ####### #   #  #    ##     # #   #  #   #  #####    #    #        #      #          ",
" #   #   #  #  #   #  #        #    #   #  #    ##  #  # #   #  #   #      #    #     #       #      #          ",
" #   #  #    # #   #  #        #    #   #  #    ##  #  #  # #   #   #     #     #     #       #     # #         ",
" #   #  #    # #   #  ##       #    #   #  #    ##  #  #  # #    # #      #     #      #      #     # #         ",
" #   #  #    # ####    ###     #    #   #   #  # # # # #   #     # #     #      #      #      #    #   #        ",
" ####   #    # #  #      ##    #    #   #   #  #  ## ##   # #     #     #       #      #      #    #   #        ",
" #      #    # #   #      #    #    #   #   #  #  #   #   # #     #     #       #       #     #                 ",
" #       #  #  #   #      #    #    #   #    ##   #   #  #   #    #    #        #       #     #                 ",
" #        ##   #   #  ####     #     ###     ##   #   #  #   #    #    #####    #        #    #                 ",
"           ##                                                                   ###      #  ###          #######",
"            ##                                                                                                  ",
"                                                                                                                ",
"   ##          #                 #           ###         #        #       #   #      ###                        ",
"  ##           #                 #          #            #        #       #   #        #                        ",
"  ##           #                 #          #            #                    #        #                        ",
"         ###   # ##     ###   ####   ###   #####   ####  # ##   ###    ####   #   #    #   # #  #  # ##    ###  ",
"        #   #  ##  #   #     #   #  #   #   #     #   #  ##  #    #       #   #  #     #   ## ## # ##  #  #   # ",
"            #  #   #  #      #   #  #   #   #     #   #  #   #    #       #   # #      #   #  #  # #   #  #   # ",
"         ####  #   #  #      #   #  #####   #     #   #  #   #    #       #   ###      #   #  #  # #   #  #   # ",
"        #   #  #   #  #      #   #  #       #     #  ##  #   #    #       #   #  #     #   #  #  # #   #  #   # ",
"        #   #  #   #   #     #  ##  #   #   #      ## #  #   #    #       #   #   #    #   #  #  # #   #  #   # ",
"         ### # ####     ###   ## #   ###    #         #  #   #    #       #   #    #   #   #  #  # #   #   ###  ",
"                                                      #                   #                                     ",
"                                                   ###                 ###                                      ",
"                                                                                                                ",
"                                                                                 ##    #    ##                  ",
"                              #                                                 #      #      #                 ",
"                              #                                                 #      #      #                 ",
" # ##    ####   # ##   ####  #####  #   #  #   # #     # #   #  #   #  #####    #      #      #                 ",
" ##  #  #   #   ##    #       #     #   #  #   # #  #  # #   #  #   #      #     #     #     #     ###  #       ",
" #   #  #   #   #     #       #     #   #  #   # #  #  #  # #   #   #     #    ##      #      ##  #  ###        ",
" #   #  #   #   #      ###    #     #   #   # #  # # # #   #     # #     #       #     #     #                  ",
" #   #  #   #   #         #   #     #   #   # #   #   #   # #    # #    #       #      #      #                 ",
" #   #  #  ##   #         #   #     #  ##    #    #   #  #   #    #    #        #      #      #                 ",
" ####    ## #   #     ####     ###   ## #    #    #   #  #   #    #    #####    #      #      #                 ",
" #          #                                                    #               ##    #    ##                  ",
" #          #                                                   ##                                              ",
"                                                                                                                ",
"                                             #            #  #                                             #### ",
"                  #     ###         #   #    #      ##    #  #   ###    ##                          ###         ",
"                 ####  #    #     # #   #    #     #  #         #   #     #                        #   #        ",
"          ##    # #    #     #####  #   #    #     #           #  ## #    #                       # ### #       ",
"          ##   #  #    #     #   #   # #          # #          # #   #  ###    #  # #######       # ##  #       ",
"               #  #   ####   #   #  #####         #  #         # #   # #  #   #  #        #  ###  # # # #       ",
"          #    #  #    #     #   #    #      #     #  #        # #   #  ## # #  #         #        #   #        ",
"          ##    # #    #     #####  #####    #      # #        #  ## #        #  #        #         ###         ",
"          ##     ####  #    #     #   #      #       #          #   #          #  #                             ",
"          ##      #   #####           #      #    #  #           ###                                            ",
"          ##                                 #     ##                                                           ",
"          ##                                                                                                    ",
"                                                                                                                ",
"                                #                                                                               ",
"  ##            ###    ###     #            ####                  #     ###         ##  #  ##  #  ##   #        ",
" #  #     #        #      #                ### #                ###    #   #         #  #   #  #    #  #        ",
"  ##      #        #    ##          #   #  ### #                  #    #   #         # #    # #   ##  #      #  ",
"       #######   ##       #         #   #  ### #   ###            #    #   #  #  #   # #    # #     ##       #  ",
"          #     #         #         #   #   ## #   ###            #    #   #   #  #   #  #   # ## ## # #        ",
"          #     ####   ###          #   #    # #   ###            #     ###     #  #  # ##   #   #  # ##     #  ",
"                                    #   #    # #                               #  #  # # #  #   #  # # #   ###  ",
"       #######                      ## ##    # #                              #  #  #  #####   #  #  #### #     ",
"                                    # # #    # #                                    #    # #   ####    #  #     ",
"                                    #        # #            #                                             #     ",
"                                    #                     ##                                               #### ",
"   #       #     ##     # #   #  #                        #        #     #     # #     #       #     #     # #  ",
"    #     #     #  #   # #    #  #    ##                   #      #     # #    # #      #     #     # #    # #  ",
"                                     #  #   #####   ###                                                         ",
"   ##     ##     ##     ##     ##     ##    ##     #  #  #####  #####  #####  #####  #####  #####  #####  ##### ",
"   ##     ##     ##     ##     ##     ##   # #    #      #      #      #      #        #      #      #      #   ",
"  #  #   #  #   #  #   #  #   #  #   #  #  # #    #      #      #      #      #        #      #      #      #   ",
"  #  #   #  #   #  #   #  #   #  #   #  #  # #### #      ####   ####   ####   ####     #      #      #      #   ",
" ###### ###### ###### ###### ###### ##########    #      #      #      #      #        #      #      #      #   ",
" #    # #    # #    # #    # #    # #    ##  #    #      #      #      #      #        #      #      #      #   ",
" #    # #    # #    # #    # #    # #    ##  #     #     #      #      #      #        #      #      #      #   ",
" #    # #    # #    # #    # #    # #    ##  ####   ###  #####  #####  #####  #####  #####  #####  #####  ##### ",
"                                                     #                                                          ",
"                                                   ##                                                           ",
"          # #    #       #      #     # #   #  #                 #        #     #     # #      #                ",
"         # #      #     #      # #   # #    #  #                  #      #     # #    # #     #            ##   ",
" ###                                                       ## #                                    #      #  #  ",
" #  #   #   #    ##     ##     ##     ##     ##           #  #  #   #  #   #  #   #  #   #  #   #  #      #  #  ",
" #   #  ##  #   #  #   #  #   #  #   #  #   #  #  #   #  #   ## #   #  #   #  #   #  #   #  #   #  ####   # #   ",
" #   #  ##  #  #    # #    # #    # #    # #    #  # #   #  # # #   #  #   #  #   #  #   #   # #   #   #  # #   ",
"#### #  # # #  #    # #    # #    # #    # #    #   #    # ## # #   #  #   #  #   #  #   #   # #   #   #  #  #  ",
" #   #  # # #  #    # #    # #    # #    # #    #  # #   # #  # #   #  #   #  #   #  #   #    #    #   #  #   # ",
" #   #  #  ##  #    # #    # #    # #    # #    # #   #  ##   # #   #  #   #  #   #  #   #    #    ####   #   # ",
" #  #   #  ##   #  #   #  #   #  #   #  #   #  #          #  #  #   #  #   #  #   #  #   #    #    #      #   # ",
" ###    #   #    ##     ##     ##     ##     ##          # ##    ###    ###    ###    ###     #    #      #  #  ",
"                                                                                                                ",
"                                                                                                                ",
"                                                                                                                ",
"   #       #     #      # #   # #     ##                   #       #     #     # #    #       #      #     # #  ",
"    #     #     # #    # #    # #    #  #                   #     #     # #    # #     #     #      # #    # #  ",
"                                      ##                                                                        ",
"  ###    ###    ###    ###    ###    ###   ## ##    ###   ###    ###    ###    ###   ###    ###    ###    ###   ",
" #   #  #   #  #   #  #   #  #   #  #   #    #  #  #     #   #  #   #  #   #  #   #    #      #      #      #   ",
"     #      #      #      #      #      #    #  # #      #   #  #   #  #   #  #   #    #      #      #      #   ",
"  ####   ####   ####   ####   ####   ####  ###### #      #####  #####  #####  #####    #      #      #      #   ",
" #   #  #   #  #   #  #   #  #   #  #   # #  #    #      #      #      #      #        #      #      #      #   ",
" #   #  #   #  #   #  #   #  #   #  #   # #  #     #     #   #  #   #  #   #  #   #    #      #      #      #   ",
"  ### #  ### #  ### #  ### #  ### #  ### # ## ###   ###   ###    ###    ###    ###     #      #      #      #   ",
"                                                     #                                                          ",
"                                                   ##                                                           ",
"                                                                                                                ",
" ## ##    # #    #       #     #      # #   # #                  #        #     #     # #      #           # #  ",
"   #     # #      #     #     # #    # #    # #                   #      #     # #    # #     #    #       # #  ",
" ## #                                               #                                              #            ",
"     #  # ##    ###    ###    ###    ###    ###     #     ### # #   #  #   #  #   #  #   #  #   #  # ##   #   # ",
"  ####  ##  #  #   #  #   #  #   #  #   #  #   #         #   #  #   #  #   #  #   #  #   #  #   #  ##  #  #   # ",
" #   #  #   #  #   #  #   #  #   #  #   #  #   # ####### #  ##  #   #  #   #  #   #  #   #  #   #  #   #  #   # ",
" #   #  #   #  #   #  #   #  #   #  #   #  #   #         # # #  #   #  #   #  #   #  #   #   # #   #   #   # #  ",
" #   #  #   #  #   #  #   #  #   #  #   #  #   #    #    ##  #  #   #  #   #  #   #  #   #   # #   #   #   # #  ",
" #   #  #   #  #   #  #   #  #   #  #   #  #   #    #    #   #  #  ##  #  ##  #  ##  #  ##    #    #   #    #   ",
"  ###   #   #   ###    ###    ###    ###    ###         # ###    ## #   ## #   ## #   ## #    #    ####     #   ",
"                                                                                             #     #       #    ",
"                                                                                            ##     #      ##    ",
"                                                                                                                "};
