<?xml version="1.0" encoding="UTF-8" standalone="no"?>
<!-- Created with Inkscape (http://www.inkscape.org/) -->
<svg
   xmlns:svg="http://www.w3.org/2000/svg"
   xmlns="http://www.w3.org/2000/svg"
   version="1.0"
   width="112"
   height="70"
   id="svg2474">
  <defs
     id="defs2477" />
  <path
     d="M 87.715018,14.005131 C 89.222258,24.304614 83.821308,31.840827 82.062868,33.096853 M 76.159498,36.739362 C 72.014578,40.256251 61.966298,44.02435 61.966298,44.02435 M 51.290028,36.111347 C 54.304508,38.120988 59.454238,41.889105 62.719928,45.405985 C 65.985628,48.922884 67.492858,50.681333 67.241648,52.062978 C 66.990448,53.444598 55.686138,60.101588 55.434938,62.111248 C 55.183728,64.120898 57.570188,65.251338 61.715108,64.874518 C 65.860028,64.497718 71.888978,66.130558 73.019418,67.512198 C 74.149838,68.893838 63.222348,69.145038 60.459068,69.019428 C 57.695788,68.893838 46.642698,69.647448 45.135458,68.391418 C 43.628208,67.135388 54.681308,54.072628 56.816568,52.062978 C 50.410808,50.806947 41.869758,42.26591 41.869758,42.26591 M 49.531568,48.922884 C 45.889068,56.082278 38.101648,61.608838 38.101648,61.608838 C 40.111318,63.367278 44.130618,65.502548 45.763468,65.628148 M 43.125788,68.140218 C 36.468818,67.889008 28.681388,61.734438 28.430198,60.352798 C 28.178988,58.971158 38.352858,53.444598 39.232088,51.309358 C 40.111318,49.174093 40.864928,45.782809 40.864928,45.782809 M 46.014678,46.410824 C 41.241748,45.657195 3.058296,36.362547 0.23221604,29.077545 C 5.947176,30.333582 29.560628,32.343241 33.077508,32.092033 C 36.594408,31.840827 48.024328,25.058236 57.946998,21.290136 C 67.869668,17.522035 72.391398,18.903666 74.401048,18.275646 C 76.410708,17.647638 77.289928,8.2273705 78.420358,5.8409106 C 79.550798,3.4544406 83.502218,2.7023086 86.961408,1.6959976 C 90.410398,0.69264864 95.628038,0.69116864 96.884068,1.4447916 C 98.140088,2.1984136 102.91302,3.9568546 106.30432,5.0872886 C 109.69561,6.2177206 111.95648,9.2321995 111.95648,9.2321995 C 111.95648,9.2321995 99.270528,11.744274 87.338198,10.739444 C 91.608728,11.618671 110.32363,13.502716 111.32846,14.570353 C 108.43958,15.135564 89.599068,14.381942 86.584588,13.62832 M 95.000018,2.8264206 C 91.483128,0.31435764 88.719838,2.8264206 88.719838,2.8264206 M 91.357518,4.3336626 C 91.357518,4.9576616 92.032768,5.4640936 92.864758,5.4640936 C 93.696758,5.4640936 94.372008,4.9576616 94.372008,4.3336626 C 94.372008,3.7096656 93.696758,3.2032326 92.864758,3.2032326 C 92.032768,3.2032326 91.357518,3.7096656 91.357518,4.3336626 z M 110.32363,9.7346145 L 109.44441,11.241859 L 108.56518,9.8602185 L 107.81156,10.990652 L 106.93234,10.362635 L 105.5507,11.367464 L 104.67148,10.362635 L 103.41544,11.493067 L 102.15941,10.739444 M 109.82122,13.879528 L 108.94199,12.372293 L 107.56036,13.502716 L 107.18355,12.6235 L 106.30432,13.377113 L 105.17389,12.372293 L 104.16906,13.125905 L 102.91302,11.869879 L 101.7826,12.372293 M 91.357518,39.502631 C 91.357518,39.502631 90.792298,42.077498 89.379268,42.077498 C 89.379268,42.077498 90.855108,40.256251 88.719838,39.314229 C 80.178818,39.502631 78.797178,38.749012 77.541138,37.869796 C 76.285118,36.990571 72.516998,31.96643 72.516998,31.96643 M 94.214998,41.449483 C 95.274368,36.688268 94.751928,35.227299 88.971048,35.106517 C 82.691088,34.975293 81.183638,32.594448 76.661918,26.816689 M 92.613538,39.596837 C 92.783398,41.989789 92.322128,42.017296 91.608728,42.925324 C 92.111148,41.983293 91.859938,40.476062 91.231928,38.843209 M 94.309198,39.502631 C 94.246398,41.920504 93.304368,42.768329 93.304368,42.768329 C 93.304368,42.768329 94.026588,40.53886 93.367168,39.691043"
     id="path2489"
     style="fill:none;fill-opacity:1;fill-rule:evenodd;stroke:#000000;stroke-width:1;stroke-linecap:butt;stroke-linejoin:miter;stroke-miterlimit:4;stroke-dasharray:none;stroke-opacity:1" />
</svg>
