<?xml version="1.0" encoding="UTF-8" standalone="no"?>
<!-- Created with Inkscape (http://www.inkscape.org/) -->
<svg
   xmlns:svg="http://www.w3.org/2000/svg"
   xmlns="http://www.w3.org/2000/svg"
   version="1.0"
   width="112"
   height="70"
   id="svg2474">
  <defs
     id="defs2477" />
  <path
     d="M 86.687938,14.005131 C 88.195178,24.304614 82.794228,31.840827 81.035788,33.096853 M 75.132418,36.739362 C 71.40047,40.173657 61.694607,44.982521 57.241721,45.873098 M 55.48655,38.751502 C 56.197078,42.304092 57.174026,48.609962 56.996408,53.405963 C 56.818784,58.201985 55.586432,59.590195 54.767584,60.283425 C 53.660877,61.220354 42.052327,63.594015 37.806037,64.608913 C 42.669914,64.848363 52.807195,66.378494 52.602428,68.376384 C 52.420417,70.152235 40.136196,69.361517 37.371662,69.267366 C 35.527834,69.204571 33.878604,67.506007 32.852853,66.846742 C 31.827102,66.187477 30.397747,64.718762 30.431586,63.67775 C 30.488922,61.913835 34.410161,61.460138 38.687295,59.609249 C 42.896481,57.787764 46.64945,53.894452 48.114897,53.938862 C 44.473489,48.521158 44.47348,36.442298 44.47348,36.442298 M 44.987598,46.410824 C 40.214668,45.657195 3.058296,32.767758 0.23221604,25.482756 C 5.947176,26.738793 29.766047,30.802617 33.282927,30.551409 C 36.799827,30.300203 46.997248,25.058236 56.919918,21.290136 C 66.842588,17.522035 71.364318,18.903666 73.373968,18.275646 C 75.383628,17.647638 76.262848,8.2273705 77.393278,5.8409106 C 78.523718,3.4544406 82.475138,2.7023086 85.934328,1.6959976 C 89.383318,0.69264864 94.600958,0.69116864 95.856988,1.4447916 C 97.113008,2.1984136 101.88594,3.9568546 105.27724,5.0872886 C 108.66853,6.2177206 110.9294,9.2321995 110.9294,9.2321995 C 110.9294,9.2321995 98.243448,11.744274 86.311118,10.739444 C 90.581648,11.618671 109.29655,13.502716 110.30138,14.570353 C 107.4125,15.135564 88.571988,14.381942 85.557508,13.62832 M 93.972938,2.8264206 C 90.456048,0.31435764 87.692758,2.8264206 87.692758,2.8264206 M 90.330438,4.3336626 C 90.330438,4.9576616 91.005688,5.4640936 91.837678,5.4640936 C 92.669678,5.4640936 93.344928,4.9576616 93.344928,4.3336626 C 93.344928,3.7096656 92.669678,3.2032326 91.837678,3.2032326 C 91.005688,3.2032326 90.330438,3.7096656 90.330438,4.3336626 z M 109.29655,9.7346145 L 108.41733,11.241859 L 107.5381,9.8602185 L 106.78448,10.990652 L 105.90526,10.362635 L 104.52362,11.367464 L 103.6444,10.362635 L 102.38836,11.493067 L 101.13233,10.739444 M 108.79414,13.879528 L 107.91491,12.372293 L 106.53328,13.502716 L 106.15647,12.6235 L 105.27724,13.377113 L 104.14681,12.372293 L 103.14198,13.125905 L 101.88594,11.869879 L 100.75552,12.372293 M 88.142028,42.428061 C 88.142028,42.428061 86.929643,44.768902 85.56476,44.403183 C 85.56476,44.403183 87.461686,43.025969 85.642987,41.563397 C 77.344233,39.534801 76.204722,38.449266 75.219038,37.274922 C 74.233376,36.100574 71.893995,30.272365 71.893995,30.272365 M 90.398259,45.048146 C 92.653825,40.723351 92.527313,39.176946 86.974673,37.564077 C 80.942661,35.811952 80.102784,33.122075 77.230532,26.370881 M 89.330868,42.844139 C 88.875598,45.199516 88.422926,45.106701 87.49882,45.799147 C 88.227936,45.019251 88.375386,43.498359 88.191388,41.758604 M 90.993132,43.192012 C 90.30668,45.511245 89.177316,46.086365 89.177316,46.086365 C 89.177316,46.086365 90.451956,44.119788 90.034436,43.130189 M 65.353738,43.090439 C 72.132482,51.923348 73.159564,52.539598 72.954148,54.388346 C 72.748731,56.237095 64.737488,64.864588 64.737488,64.864588 C 64.737488,64.864588 81.170808,67.329586 80.965391,68.356668 C 80.759975,69.383751 68.640401,69.794584 65.148321,69.589167 C 61.656241,69.383751 59.807492,68.562085 58.574993,67.329586 C 57.342494,66.097087 65.76457,54.593763 65.76457,54.593763 C 62.890083,52.477844 60.338241,51.769735 56.931661,46.993353"
     id="path2489"
     style="fill:none;fill-opacity:1;fill-rule:evenodd;stroke:#000000;stroke-width:1;stroke-linecap:butt;stroke-linejoin:miter;stroke-miterlimit:4;stroke-dasharray:none;stroke-opacity:1" />
</svg>
