#define cursor_mask_width 32
#define cursor_mask_height 32
static unsigned char cursor_mask_bits[] = {
   0x00, 0x00, 0x00, 0x00, 0x00, 0x00, 0x00, 0x00, 0x00, 0x80, 0x00, 0x00,
   0x00, 0x80, 0x00, 0x00, 0x00, 0x80, 0x00, 0x00, 0x00, 0x80, 0x00, 0x00,
   0x00, 0x80, 0x00, 0x00, 0x00, 0x80, 0x00, 0x00, 0x00, 0xf0, 0x07, 0x00,
   0x00, 0x88, 0x08, 0x00, 0x00, 0x84, 0x10, 0x00, 0x00, 0x82, 0x20, 0x00,
   0x00, 0x81, 0x40, 0x00, 0x00, 0x81, 0x40, 0x00, 0x00, 0x81, 0x40, 0x00,
   0xfc, 0xff, 0xff, 0x1f, 0x00, 0x81, 0x40, 0x00, 0x00, 0x81, 0x40, 0x00,
   0x00, 0x81, 0x40, 0x00, 0x00, 0x82, 0x20, 0x00, 0x00, 0x84, 0x10, 0x00,
   0x00, 0x88, 0x08, 0x00, 0x00, 0xf0, 0x07, 0x00, 0x00, 0x80, 0x00, 0x00,
   0x00, 0x80, 0x00, 0x00, 0x00, 0x80, 0x00, 0x00, 0x00, 0x80, 0x00, 0x00,
   0x00, 0x80, 0x00, 0x00, 0x00, 0x80, 0x00, 0x00, 0x00, 0x00, 0x00, 0x00,
   0x00, 0x00, 0x00, 0x00, 0x00, 0x00, 0x00, 0x00};
