/* XPM */
static char * pc_xpm[] = {
"32 32 666 2",
"  	c None",
". 	c #863206",
"+ 	c #7F3107",
"@ 	c #8A3507",
"# 	c #913405",
"$ 	c #872700",
"% 	c #8A2800",
"& 	c #8B2800",
"* 	c #A03F08",
"= 	c #953505",
"- 	c #862500",
"; 	c #862400",
"> 	c #853608",
", 	c #822D03",
"' 	c #912A01",
") 	c #9B3A06",
"! 	c #A53F07",
"~ 	c #993001",
"{ 	c #9A2F00",
"] 	c #9C3000",
"^ 	c #9D3100",
"/ 	c #9E3200",
"( 	c #BA510C",
"_ 	c #A23A04",
": 	c #932D00",
"< 	c #8E2A00",
"[ 	c #8A2700",
"} 	c #953707",
"| 	c #943A08",
"1 	c #9F3C07",
"2 	c #942D00",
"3 	c #A83D05",
"4 	c #C3510B",
"5 	c #BA3D03",
"6 	c #BB3700",
"7 	c #BF3900",
"8 	c #C13A00",
"9 	c #C53E02",
"0 	c #E56210",
"a 	c #C03F03",
"b 	c #AC3400",
"c 	c #A13200",
"d 	c #972F00",
"e 	c #943202",
"f 	c #A8470C",
"g 	c #8A2902",
"h 	c #952A00",
"i 	c #9D3503",
"j 	c #BC510C",
"k 	c #BF4506",
"l 	c #CB4003",
"m 	c #EE5F0D",
"n 	c #F35608",
"o 	c #F24400",
"p 	c #FA4500",
"q 	c #FE4500",
"r 	c #FF5004",
"s 	c #FF7613",
"t 	c #ED4701",
"u 	c #DD3F00",
"v 	c #CF3C00",
"w 	c #BE3B01",
"x 	c #C9570E",
"y 	c #A53F06",
"z 	c #8A2801",
"A 	c #992D00",
"B 	c #A73400",
"C 	c #D24F09",
"D 	c #F1660F",
"E 	c #F24D04",
"F 	c #FF650B",
"G 	c #FF700E",
"H 	c #FF5201",
"I 	c #FF5000",
"J 	c #FF5100",
"K 	c #FF6608",
"L 	c #FF8314",
"M 	c #FF5001",
"N 	c #FF4A00",
"O 	c #F74600",
"P 	c #EE5C0A",
"Q 	c #EF620F",
"R 	c #B23700",
"S 	c #A03401",
"T 	c #A23E08",
"U 	c #A7460C",
"V 	c #893608",
"W 	c #8C2800",
"X 	c #992E00",
"Y 	c #AA3400",
"Z 	c #C63A00",
"` 	c #EB4502",
" .	c #FF6F0F",
"..	c #FF6D0D",
"+.	c #FF6809",
"@.	c #FF8A15",
"#.	c #FF6705",
"$.	c #FF5C00",
"%.	c #FF800D",
"&.	c #FF8D13",
"*.	c #FF5B01",
"=.	c #FF5400",
"-.	c #FF5E05",
";.	c #FF7B13",
">.	c #F95406",
",.	c #D94101",
"'.	c #D0520A",
").	c #C55A0F",
"!.	c #A8460A",
"~.	c #8E2B02",
"{.	c #902800",
"].	c #972D00",
"^.	c #A83400",
"/.	c #C73B00",
"(.	c #EC4100",
"_.	c #FE4800",
":.	c #FF6708",
"<.	c #FF9217",
"[.	c #FF7B0C",
"}.	c #FF9C17",
"|.	c #FF860C",
"1.	c #FF6900",
"2.	c #FF6A00",
"3.	c #FF9D15",
"4.	c #FF9511",
"5.	c #FF6601",
"6.	c #FF6402",
"7.	c #FF8B13",
"8.	c #FF7C0F",
"9.	c #FA680D",
"0.	c #F87515",
"a.	c #D6590C",
"b.	c #A43803",
"c.	c #902C00",
"d.	c #923305",
"e.	c #872D02",
"f.	c #942D01",
"g.	c #A43200",
"h.	c #C73A00",
"i.	c #EE4200",
"j.	c #FF5200",
"k.	c #FF5E01",
"l.	c #FF8C10",
"m.	c #FFA417",
"n.	c #FFA816",
"o.	c #FFBD1C",
"p.	c #FF7D01",
"q.	c #FF7F02",
"r.	c #FFC01B",
"s.	c #FFA010",
"t.	c #FF7601",
"u.	c #FF8F0D",
"v.	c #FFA719",
"w.	c #FF7608",
"x.	c #FF8813",
"y.	c #FF951C",
"z.	c #FD6C0E",
"A.	c #E44A04",
"B.	c #C64807",
"C.	c #B6510D",
"D.	c #AB4A0D",
"E.	c #963707",
"F.	c #883C0A",
"G.	c #9F4209",
"H.	c #B04508",
"I.	c #C24204",
"J.	c #E64301",
"K.	c #FF4900",
"L.	c #FF5A00",
"M.	c #FF6500",
"N.	c #FF7E06",
"O.	c #FFBC1C",
"P.	c #FFC31B",
"Q.	c #FFE225",
"R.	c #FFA009",
"S.	c #FF9604",
"T.	c #FFD921",
"U.	c #FFA90E",
"V.	c #FF8F05",
"W.	c #FFCA20",
"X.	c #FFA915",
"Y.	c #FFA718",
"Z.	c #FFB521",
"`.	c #FF8412",
" +	c #FF690A",
".+	c #FE6D0F",
"++	c #F46C13",
"@+	c #C4530C",
"#+	c #9A3604",
"$+	c #872600",
"%+	c #C6530C",
"&+	c #ED650F",
"*+	c #FD680D",
"=+	c #FF6107",
"-+	c #FF5E02",
";+	c #FF6300",
">+	c #FF6E00",
",+	c #FF7C01",
"'+	c #FFAC10",
")+	c #FFE223",
"!+	c #FFFA2C",
"~+	c #FFD419",
"{+	c #FFB308",
"]+	c #FFED25",
"^+	c #FFB10C",
"/+	c #FFD019",
"(+	c #FFEB28",
"_+	c #FFD120",
":+	c #FFD727",
"<+	c #FFAE1B",
"[+	c #FF9415",
"}+	c #FF971A",
"|+	c #FF7F15",
"1+	c #F05909",
"2+	c #BE3D02",
"3+	c #982F00",
"4+	c #8B2700",
"5+	c #823809",
"6+	c #973D08",
"7+	c #AE4207",
"8+	c #C64B08",
"9+	c #FA610D",
"0+	c #FF8015",
"a+	c #FF961A",
"b+	c #FF9314",
"c+	c #FF840A",
"d+	c #FF7D02",
"e+	c #FF8400",
"f+	c #FF9904",
"g+	c #FFE421",
"h+	c #FFFF39",
"i+	c #FFF22C",
"j+	c #FFDC14",
"k+	c #FFFD28",
"l+	c #FFD613",
"m+	c #FFFA3C",
"n+	c #FFFC2D",
"o+	c #FFF833",
"p+	c #FFE428",
"q+	c #FFD126",
"r+	c #FFB821",
"s+	c #FF8510",
"t+	c #FF5B04",
"u+	c #FB4701",
"v+	c #C93B00",
"w+	c #8F2A00",
"x+	c #842300",
"y+	c #8A410C",
"z+	c #AD4F0E",
"A+	c #CC5D11",
"B+	c #EB6A13",
"C+	c #FE7513",
"D+	c #FF9E1B",
"E+	c #FFC727",
"F+	c #FFE12B",
"G+	c #FFD927",
"H+	c #FFBC16",
"I+	c #FFB30A",
"J+	c #FFCE0D",
"K+	c #FFFA35",
"L+	c #FFFF4E",
"M+	c #FFFF30",
"N+	c #FFFF32",
"O+	c #FFFF47",
"P+	c #FFFF51",
"Q+	c #FFFF4B",
"R+	c #FFFF3F",
"S+	c #FFF633",
"T+	c #FFC01C",
"U+	c #FF7D06",
"V+	c #FF6000",
"W+	c #FF5500",
"X+	c #DA3E00",
"Y+	c #AF3500",
"Z+	c #823706",
"`+	c #A54008",
" @	c #C8530D",
".@	c #F46A12",
"+@	c #FF8117",
"@@	c #FF991C",
"#@	c #FFAF20",
"$@	c #FFC926",
"%@	c #FFED2F",
"&@	c #FFFF41",
"*@	c #FFFC41",
"=@	c #FFEE31",
"-@	c #FFFC39",
";@	c #FFFF76",
">@	c #FFFF71",
",@	c #FFFF78",
"'@	c #FFFF8C",
")@	c #FFFF72",
"!@	c #FFFF53",
"~@	c #FFEF30",
"{@	c #FFBD13",
"]@	c #FF8702",
"^@	c #FF7100",
"/@	c #FF6400",
"(@	c #FF5800",
"_@	c #FF4C00",
":@	c #E84100",
"<@	c #B83700",
"[@	c #882700",
"}@	c #9A2F01",
"|@	c #B33C03",
"1@	c #E64C05",
"2@	c #FE6109",
"3@	c #FF7D10",
"4@	c #FFBD20",
"5@	c #FFDF27",
"6@	c #FFFE36",
"7@	c #FFFF5D",
"8@	c #FFFF73",
"9@	c #FFFF7F",
"0@	c #FFFFB7",
"a@	c #FFFFD7",
"b@	c #FFFFE0",
"c@	c #FFFFC8",
"d@	c #FFFF6B",
"e@	c #FFF228",
"f@	c #FFBF09",
"g@	c #FF9801",
"h@	c #FF8500",
"i@	c #FF7400",
"j@	c #FF6700",
"k@	c #FF4F00",
"l@	c #F24300",
"m@	c #BD3900",
"n@	c #9A3000",
"o@	c #982C00",
"p@	c #AC3500",
"q@	c #DE3E00",
"r@	c #FD4B01",
"s@	c #FF5A02",
"t@	c #FF6E05",
"u@	c #FF8609",
"v@	c #FFA610",
"w@	c #FFD21B",
"x@	c #FFF328",
"y@	c #FFFF38",
"z@	c #FFFF52",
"A@	c #FFFF83",
"B@	c #FFFFE8",
"C@	c #FFFFFF",
"D@	c #FFFFBC",
"E@	c #FFFA22",
"F@	c #FFDC13",
"G@	c #FF9305",
"H@	c #FF7901",
"I@	c #FF6800",
"J@	c #FF5B00",
"K@	c #F94400",
"L@	c #BE3900",
"M@	c #972C00",
"N@	c #AB3400",
"O@	c #DC3D00",
"P@	c #FD4800",
"Q@	c #FF6D00",
"R@	c #FF7C00",
"S@	c #FF9101",
"T@	c #FFAE05",
"U@	c #FFD80E",
"V@	c #FFFA27",
"W@	c #FFFF79",
"X@	c #FFFFF4",
"Y@	c #FFFFF8",
"Z@	c #FFFFBF",
"`@	c #FFFF5B",
" #	c #FFF82E",
".#	c #FFDA22",
"+#	c #FFAF16",
"@#	c #FF8C0E",
"##	c #FF7008",
"$#	c #F84701",
"%#	c #BF3B01",
"&#	c #9C3100",
"*#	c #932B00",
"=#	c #AB3300",
"-#	c #D63C00",
";#	c #FC4700",
">#	c #FF5300",
",#	c #FF5F00",
"'#	c #FF6C00",
")#	c #FF7900",
"!#	c #FF8C01",
"~#	c #FFB209",
"{#	c #FFE623",
"]#	c #FFFF50",
"^#	c #FFFF92",
"/#	c #FFFFCA",
"(#	c #FFFFC1",
"_#	c #FFFFB6",
":#	c #FFFF7D",
"<#	c #FFFF60",
"[#	c #FFFF62",
"}#	c #FFFF57",
"|#	c #FFFF44",
"1#	c #FFFE35",
"2#	c #FFDB29",
"3#	c #FFBA21",
"4#	c #FF9C1A",
"5#	c #FF7F13",
"6#	c #FB630C",
"7#	c #CE4C07",
"8#	c #A63B04",
"9#	c #8E2E02",
"0#	c #8D2A00",
"a#	c #A83200",
"b#	c #CC3A00",
"c#	c #FB4500",
"d#	c #FF7B02",
"e#	c #FFB212",
"f#	c #FFEC2C",
"g#	c #FFFF48",
"h#	c #FFFF6D",
"i#	c #FFFF4D",
"j#	c #FFFF5A",
"k#	c #FFFF54",
"l#	c #FFF21F",
"m#	c #FFD41F",
"n#	c #FFEB32",
"o#	c #FFFC3C",
"p#	c #FFFE37",
"q#	c #FFDC2B",
"r#	c #FFB721",
"s#	c #FFA01D",
"t#	c #FF8E1A",
"u#	c #FD7B17",
"v#	c #E16412",
"w#	c #B9510D",
"x#	c #9D3F09",
"y#	c #803407",
"z#	c #A33000",
"A#	c #BC3800",
"B#	c #F74200",
"C#	c #FD4D00",
"D#	c #FF7607",
"E#	c #FFAE19",
"F#	c #FFF32F",
"G#	c #FFFF34",
"H#	c #FFFF40",
"I#	c #FFFD4B",
"J#	c #FFE620",
"K#	c #FFF22F",
"L#	c #FFF22A",
"M#	c #FFFF46",
"N#	c #FFF329",
"O#	c #FFB006",
"P#	c #FFA005",
"Q#	c #FFA90F",
"R#	c #FFBB1B",
"S#	c #FFCB27",
"T#	c #FFB020",
"U#	c #FF8E17",
"V#	c #FF7310",
"W#	c #D05B0E",
"X#	c #B7520E",
"Y#	c #A2470D",
"Z#	c #7B3A0B",
"`#	c #AF3400",
" $	c #DF3F00",
".$	c #FF5405",
"+$	c #FF7C10",
"@$	c #FFAC1F",
"#$	c #FFB71F",
"$$	c #FFC41F",
"%$	c #FFE72B",
"&$	c #FFEA29",
"*$	c #FFF531",
"=$	c #FFD918",
"-$	c #FFD518",
";$	c #FFE023",
">$	c #FFCE0F",
",$	c #FFF831",
"'$	c #FFF72F",
")$	c #FFC815",
"!$	c #FF8801",
"~$	c #FF7A00",
"{$	c #FF6F00",
"]$	c #FF7406",
"^$	c #FF8010",
"/$	c #FF8515",
"($	c #DC570B",
"_$	c #AF4206",
":$	c #9A3705",
"<$	c #8C3306",
"[$	c #952B00",
"}$	c #AA3602",
"|$	c #D64F07",
"1$	c #FF7513",
"2$	c #FF8616",
"3$	c #FF8311",
"4$	c #FF9113",
"5$	c #FFC523",
"6$	c #FFC520",
"7$	c #FFC91D",
"8$	c #FFDA21",
"9$	c #FF9B05",
"0$	c #FFD41B",
"a$	c #FFCF1B",
"b$	c #FF9F04",
"c$	c #FFE322",
"d$	c #FFDE21",
"e$	c #FFD521",
"f$	c #FF950B",
"g$	c #FF7200",
"h$	c #FF6600",
"i$	c #FF5401",
"j$	c #FD5404",
"k$	c #EE5B0A",
"l$	c #D3590D",
"m$	c #B34D0C",
"n$	c #983906",
"o$	c #9D3805",
"p$	c #B64B0B",
"q$	c #D75F10",
"r$	c #EE620E",
"s$	c #FD5B07",
"t$	c #FF730E",
"u$	c #FFA119",
"v$	c #FF8D0E",
"w$	c #FFBA1C",
"x$	c #FF9C0E",
"y$	c #FF8402",
"z$	c #FFCD1E",
"A$	c #FFB112",
"B$	c #FFB414",
"C$	c #FFCA1E",
"D$	c #FFB719",
"E$	c #FFA415",
"F$	c #FF6E03",
"G$	c #FF5D00",
"H$	c #FF4B00",
"I$	c #ED4200",
"J$	c #C73C01",
"K$	c #A83903",
"L$	c #9F3B06",
"M$	c #903908",
"N$	c #8B420B",
"O$	c #A9470B",
"P$	c #B03F05",
"Q$	c #C63F03",
"R$	c #F15C0B",
"S$	c #FF8417",
"T$	c #FF6605",
"U$	c #FF8D12",
"V$	c #FF9A14",
"W$	c #FF7102",
"X$	c #FF7502",
"Y$	c #FFC21F",
"Z$	c #FF8F0A",
"`$	c #FF8507",
" %	c #FFB91E",
".%	c #FF9D17",
"+%	c #FF780B",
"@%	c #FF5601",
"#%	c #F54400",
"$%	c #D03C00",
"%%	c #AD3400",
"&%	c #962D00",
"*%	c #8E2900",
"=%	c #7A2600",
"-%	c #BD4C09",
";%	c #E76813",
">%	c #F5620E",
",%	c #FB4B02",
"'%	c #FF5F07",
")%	c #FF8C16",
"!%	c #FF6505",
"~%	c #FF6A03",
"{%	c #FFAE1D",
"]%	c #FF6F04",
"^%	c #FF9615",
"/%	c #FF820F",
"(%	c #FF790D",
"_%	c #FF8213",
":%	c #FF5404",
"<%	c #F14200",
"[%	c #CD3C00",
"}%	c #AD3500",
"|%	c #942900",
"1%	c #8D3C08",
"2%	c #BA500E",
"3%	c #C04D0B",
"4%	c #C13D02",
"5%	c #DE4001",
"6%	c #FE7112",
"7%	c #FF6209",
"8%	c #FE4D00",
"9%	c #FF6506",
"0%	c #FF9418",
"a%	c #FF5D02",
"b%	c #FF5600",
"c%	c #FF6E0A",
"d%	c #FF7E12",
"e%	c #FF5905",
"f%	c #FF6C0E",
"g%	c #FB5F0C",
"h%	c #CA3C01",
"i%	c #9B2F00",
"j%	c #823F0B",
"k%	c #9F4109",
"l%	c #993002",
"m%	c #A43000",
"n%	c #C74B08",
"o%	c #E4600F",
"p%	c #E54201",
"q%	c #F64400",
"r%	c #FE4700",
"s%	c #FF5F08",
"t%	c #FF7C12",
"u%	c #FF4D00",
"v%	c #FF5204",
"w%	c #FF7110",
"x%	c #F25005",
"y%	c #E14D06",
"z%	c #E3600F",
"A%	c #B13E04",
"B%	c #9A2E00",
"C%	c #8D2900",
"D%	c #802600",
"E%	c #812700",
"F%	c #973102",
"G%	c #C1520D",
"H%	c #AD3A02",
"I%	c #B93600",
"J%	c #D63D00",
"K%	c #F85C0A",
"L%	c #FB620C",
"M%	c #EF4100",
"N%	c #EE4100",
"O%	c #E84000",
"P%	c #DE4101",
"Q%	c #E3590B",
"R%	c #D44F09",
"S%	c #B13801",
"T%	c #B34608",
"U%	c #AF4609",
"V%	c #972F02",
"W%	c #88420B",
"X%	c #913906",
"Y%	c #9B2C00",
"Z%	c #9A2D00",
"`%	c #A03000",
" &	c #AA3200",
".&	c #CE550C",
"+&	c #C34806",
"@&	c #B33600",
"#&	c #B13500",
"$&	c #B24105",
"%&	c #B4490A",
"&&	c #993102",
"*&	c #992D01",
"=&	c #94400A",
"-&	c #803707",
";&	c #793307",
">&	c #9A2B00",
",&	c #952C00",
"'&	c #B44D0C",
")&	c #A13603",
"!&	c #933002",
"~&	c #9B3E08",
"{&	c #8A3104",
"]&	c #92430B",
"^&	c #7F3608",
"/&	c #7C3609",
"                                  . +                           ",
"                    @ # $ $ % & & * = - ;                       ",
"              > , ' ) ! ~ { ] ^ / ( _ : < [ - }                 ",
"              | 1 2 3 4 5 6 7 8 9 0 a b c d e f g               ",
"            h i j k l m n o p q r s t u v w x y < z             ",
"          % A B C D E F G H I J K L M N O P Q R S T U V         ",
"        W X Y Z `  ...+.@.#.$.$.%.&.*.=.-.;.>.,.'.).!.~.        ",
"      {.].^./.(._.:.<.[.}.|.1.2.3.4.5.6.7.8.H 9.0.a.b.c.d.      ",
"    e.f.g.h.i.N j.k.l.m.n.o.p.q.r.s.t.u.v.w.x.y.z.A.B.C.D.E.    ",
"  F.G.H.I.J.K.J L.M.N.O.P.Q.R.S.T.U.V.W.X.Y.Z.`. +.+++@+#+$+    ",
"    ! %+&+*+=+-+;+>+,+'+)+!+~+{+]+^+/+(+_+:+<+[+}+|+1+2+3+4+    ",
"5+6+7+8+9+0+a+b+c+d+e+f+g+h+i+j+k+l+m+n+o+p+q+r+s+t+u+v+c w+x+  ",
"y+z+A+B+C+L D+E+F+G+H+I+J+K+L+M+N+O+P+Q+R+S+T+U+V+W+N X+Y+2 -   ",
"Z+`+ @.@+@@@#@$@%@&@O+*@=@-@;@>@,@'@)@!@~@{@]@^@/@(@_@:@<@3+[@  ",
"  }@|@1@2@3@}.4@5@6@O+7@8@9@0@a@b@c@d@e@f@g@h@i@j@L.k@l@m@n@%   ",
"  o@p@q@r@s@t@u@v@w@x@y@z@A@B@C@C@D@O+E@F@I+G@H@I@J@I K@L@] &   ",
"  M@N@O@P@=.V+Q@R@S@T@U@V@W@X@C@Y@Z@A@`@R+ #.#+#@###t+$#%#&#&   ",
"  *#=#-#;#>#,#'#)#!#~#{#]#^#/#(#_#:#<#[#}#|#1#2#3#4#5#6#7#8#9#  ",
"  0#a#b#c#I $.I@d#e#f#g#7@h#<#i#j#k#l#m#n#o#p#q#r#s#t#u#v#w#x#y#",
"    z#A#B#C#(@D#E#F#G#H#&@I#J#K#L#M#N#O#P#Q#R#S#T#U#V#D W#X#Y#Z#",
"    A `# $.$+$@$#$$$%$&$*$=$-$;$>$,$'$)$!$~${$]$^$/$s ($_$:$<$  ",
"    [$}$|$1$2$3$4$5$6$7$8$9$0$a$b$c$d$e$f$g$h$J@i$j$k$l$m$n$    ",
"    o$p$q$r$s$t$s#u$v$w$x$y$z$A$e+B$C$D$E$F$G$>#H$I$J$K$L$M$    ",
"    N$O$P$Q$R$S$/$T$U$V$W$X$Y$Z$i@`$ %v$.%+%@%H$#%$%%%&%*%      ",
"      =%}@-%;%>%,%'%)%!%G$~%{%]%/@;+^%/%(%_%:%<%[%}%X |%        ",
"        1%2%3%4%5%6%7%8%j.9%0%a%(@b%c%d%e%f%g%h%}%i%*%          ",
"        j%k%l%m%n%o%p%q%r%s%t%u%_@H$v%w%x%y%z%A%B%C%D%          ",
"            E%F%G%H%I%h.J%K%L%M%N%O%P%Q%R%S%T%U%V%              ",
"              W%X%Y%Z%`% &.&+&@&@&#&%%$&%&&&*&=&-&              ",
"              ;&    % >&,&'&)&Z%A ].*#!&~&{&                    ",
"                          ]&            ^&                      ",
"                          /&                                    "};
