<?xml version="1.0" encoding="UTF-8" standalone="no"?>
<!-- Created with Inkscape (http://www.inkscape.org/) -->
<svg
   xmlns:svg="http://www.w3.org/2000/svg"
   xmlns="http://www.w3.org/2000/svg"
   version="1.0"
   width="50.905994"
   height="82.047058"
   id="svg2">
  <defs
     id="defs4" />
  <path
     d="M 36.852467,13.191133 C 36.852467,19.615099 32.073284,24.828754 26.184648,24.828754 C 20.296012,24.828754 15.516829,19.615099 15.516829,13.191133 C 15.516829,6.7671651 20.296012,1.5535109 26.184648,1.5535109 C 32.073284,1.5535109 36.852467,6.7671651 36.852467,13.191133 z M 10.66782,47.457462 L 15.840097,36.143107 L 24.245044,30.324297 L 34.912864,40.022315 L 47.843554,39.699048 M 26.184648,25.152021 L 24.245044,50.690134 L 25.214846,65.560428 L 8.7282156,67.823299 M 23.275243,51.013401 L 40.408407,51.659937 L 33.943062,69.439635"
     id="path2390"
     style="opacity:1;fill:none;fill-opacity:0.84659095;stroke:#000000;stroke-width:2;stroke-linejoin:round;stroke-miterlimit:4;stroke-opacity:1" />
  <path
     d="M 43.659634,46.959343 A 3.3716209,5.257443 0 1 1 36.916393,46.959343 A 3.3716209,5.257443 0 1 1 43.659634,46.959343 z"
     transform="matrix(0.8673919,0.4976257,-0.4976257,0.8673919,33.471515,-18.016097)"
     id="path2481"
     style="opacity:1;fill:none;fill-opacity:1;stroke:#000000;stroke-width:1;stroke-linejoin:round;stroke-miterlimit:4;stroke-dasharray:none;stroke-opacity:1" />
  <path
     d="M 41.562921,46.764633 C 41.917218,43.798746 46.507215,37.693264 47.048948,37.964131"
     id="path2485"
     style="fill:none;fill-rule:evenodd;stroke:#000000;stroke-width:1px;stroke-linecap:butt;stroke-linejoin:miter;stroke-opacity:1" />
  <path
     d="M 42.248675,47.450386 C 46.13461,44.707373 47.62041,40.47856 48.191872,38.535592"
     id="path2487"
     style="fill:none;fill-rule:evenodd;stroke:#000000;stroke-width:1px;stroke-linecap:butt;stroke-linejoin:miter;stroke-opacity:1" />
  <path
     d="M 42.820136,40.135683 C 45.906026,41.278606 47.048948,41.50719 48.420456,43.56445"
     id="path2489"
     style="fill:none;fill-rule:evenodd;stroke:#000000;stroke-width:1px;stroke-linecap:butt;stroke-linejoin:miter;stroke-opacity:1" />
  <path
     d="M 41.791506,42.078651 C 42.934428,44.59308 45.563149,45.507418 47.048948,45.964587"
     id="path2491"
     style="fill:none;fill-rule:evenodd;stroke:#000000;stroke-width:1px;stroke-linecap:butt;stroke-linejoin:miter;stroke-opacity:1" />
  <path
     d="M 46.318082,37.680568 C 46.443082,35.055568 47.568082,35.430568 49.318083,36.305568 C 51.068083,37.180568 49.068083,38.805568 49.068083,38.805568"
     id="path2493"
     style="fill:none;fill-rule:evenodd;stroke:#000000;stroke-width:1px;stroke-linecap:butt;stroke-linejoin:miter;stroke-opacity:1" />
</svg>
