<?xml version="1.0" encoding="UTF-8" standalone="no"?>
<!-- Created with Inkscape (http://www.inkscape.org/) -->
<svg
   xmlns:svg="http://www.w3.org/2000/svg"
   xmlns="http://www.w3.org/2000/svg"
   version="1.0"
   width="50.905994"
   height="82.047058"
   id="svg2">
  <defs
     id="defs4" />
  <path
     d="M 36.852467,13.191133 C 36.852467,19.615099 32.073284,24.828754 26.184648,24.828754 C 20.296012,24.828754 15.516829,19.615099 15.516829,13.191133 C 15.516829,6.7671651 20.296012,1.5535109 26.184648,1.5535109 C 32.073284,1.5535109 36.852467,6.7671651 36.852467,13.191133 z M 10.66782,47.457462 L 15.840097,36.143107 L 24.245044,30.324297 L 34.912864,40.022315 L 47.843554,39.699048 M 26.184648,25.152021 L 24.245044,50.690134 L 25.214846,65.560428 L 8.7282156,67.823299 M 23.275243,51.013401 L 40.408407,51.659937 L 33.943062,69.439635"
     id="path2390"
     style="opacity:1;fill:none;fill-opacity:0.84659095;stroke:#000000;stroke-width:2;stroke-linejoin:round;stroke-miterlimit:4;stroke-opacity:1" />
  <path
     d="M 22.306169,55.862411 C 22.306169,61.037675 18.105954,65.237889 12.93069,65.237889 C 7.7554252,65.237889 3.5552112,61.037675 3.5552112,55.862411 C 3.5552112,50.687146 7.7554252,46.486932 12.93069,46.486932 C 18.105954,46.486932 22.306169,50.687146 22.306169,55.862411 z M 13.025392,47.875891 L 13.025392,56.146516 L 18.391827,61.071009 M 5.0704402,56.272785 L 6.7119382,56.20965 M 19.27571,56.020247 L 20.285863,56.020247 M 6.8382072,52.105905 L 7.6589562,52.737251 M 9.3635882,49.769927 L 10.058068,51.032618 M 16.497791,49.643658 L 15.740177,50.843215 M 18.770634,52.16904 L 17.697347,53.052923 M 6.8382072,60.313395 L 7.4695522,59.240108 M 9.3635882,62.459969 L 9.8686652,61.576086 M 12.835988,63.154449 L 12.772853,62.3337 M 15.992715,62.207431 L 15.361369,61.512951 M 18.7075,59.366377 L 18.265558,58.98757"
     id="path2474"
     style="fill:none;fill-opacity:1;stroke:#000000;stroke-width:1;stroke-linejoin:round;stroke-miterlimit:4;stroke-opacity:1" />
</svg>
