<?xml version="1.0" encoding="UTF-8" standalone="no"?>
<!-- Created with Inkscape (http://www.inkscape.org/) -->
<svg
   xmlns:svg="http://www.w3.org/2000/svg"
   xmlns="http://www.w3.org/2000/svg"
   version="1.0"
   width="50.905994"
   height="82.047058"
   id="svg2">
  <defs
     id="defs4" />
  <path
     d="M 36.852467,13.191133 C 36.852467,19.615099 32.073284,24.828754 26.184648,24.828754 C 20.296012,24.828754 15.516829,19.615099 15.516829,13.191133 C 15.516829,6.7671651 20.296012,1.5535109 26.184648,1.5535109 C 32.073284,1.5535109 36.852467,6.7671651 36.852467,13.191133 z M 10.66782,47.457462 L 15.840097,36.143107 L 24.245044,30.324297 L 34.912864,40.022315 L 47.843554,39.699048 M 26.184648,25.152021 L 24.245044,50.690134 L 25.214846,65.560428 L 8.7282156,67.823299 M 23.275243,51.013401 L 40.408407,51.659937 L 33.943062,69.439635"
     id="path2390"
     style="opacity:1;fill:none;fill-opacity:0.84659095;stroke:#000000;stroke-width:2;stroke-linejoin:round;stroke-miterlimit:4;stroke-opacity:1" />
  <path
     d="M 10.779449,4.6785117 L 43.529449,3.9285117 M 33.779449,4.1785117 L 33.154449,-1.5714883 L 18.529449,-1.0714883 L 18.904449,4.3035117 M 19.279449,2.9285118 L 32.904449,2.4285118 M 32.779449,0.30351173 L 18.904449,0.92851173 M 19.029449,-0.19648827 L 32.779449,-0.69648827 M 33.279449,1.4285118 L 18.654449,1.9285118 M 19.404449,3.4285117 L 33.779449,3.5535117"
     id="path2443"
     style="fill:none;fill-rule:evenodd;stroke:#000000;stroke-width:1px;stroke-linecap:butt;stroke-linejoin:miter;stroke-opacity:1" />
</svg>
