<?xml version="1.0" encoding="UTF-8" standalone="no"?>
<!-- Created with Inkscape (http://www.inkscape.org/) -->
<svg
   xmlns:svg="http://www.w3.org/2000/svg"
   xmlns="http://www.w3.org/2000/svg"
   version="1.0"
   width="50.905994"
   height="82.047058"
   id="svg2">
  <defs
     id="defs4" />
  <path
     d="M 36.852467,13.191133 C 36.852467,19.615099 32.073284,24.828754 26.184648,24.828754 C 20.296012,24.828754 15.516829,19.615099 15.516829,13.191133 C 15.516829,6.7671651 20.296012,1.5535109 26.184648,1.5535109 C 32.073284,1.5535109 36.852467,6.7671651 36.852467,13.191133 z M 23.275242,47.134195 L 20.042571,39.37578 L 24.245044,30.324297 L 27.477717,42.285186 L 34.266329,49.073798 M 26.184648,25.152021 L 24.245044,50.690134 L 22.951975,65.560428 L 14.870293,79.784187 M 23.275243,51.013401 L 36.205932,65.560429 L 41.054941,78.167851"
     id="path2390"
     style="opacity:1;fill:none;fill-opacity:0.84659095;stroke:#000000;stroke-width:2;stroke-linejoin:round;stroke-miterlimit:4;stroke-opacity:1" />
  <path
     d="M 48.814084,40.992118 C 48.814084,46.167382 44.613869,50.367596 39.438605,50.367596 C 34.263341,50.367596 30.063126,46.167382 30.063126,40.992118 C 30.063126,35.816853 34.263341,31.616639 39.438605,31.616639 C 44.613869,31.616639 48.814084,35.816853 48.814084,40.992118 z M 39.533307,33.005598 L 39.533307,41.276223 L 44.899742,46.200716 M 31.578355,41.402492 L 33.219853,41.339357 M 45.783625,41.149954 L 46.793778,41.149954 M 33.346122,37.235612 L 34.166871,37.866958 M 35.871504,34.899634 L 36.565984,36.162325 M 43.005706,34.773365 L 42.248092,35.972922 M 45.278549,37.298747 L 44.205262,38.18263 M 33.346122,45.443102 L 33.977467,44.369815 M 35.871504,47.589676 L 36.37658,46.705793 M 39.343903,48.284156 L 39.280769,47.463407 M 42.50063,47.337138 L 41.869284,46.642658 M 45.215415,44.496084 L 44.773473,44.117277"
     id="path2474"
     style="fill:none;fill-opacity:1;stroke:#000000;stroke-width:1;stroke-linejoin:round;stroke-miterlimit:4;stroke-opacity:1" />
</svg>
