<?xml version="1.0" encoding="UTF-8" standalone="no"?>
<!-- Created with Inkscape (http://www.inkscape.org/) -->
<svg
   xmlns:svg="http://www.w3.org/2000/svg"
   xmlns="http://www.w3.org/2000/svg"
   version="1.0"
   width="50.905994"
   height="82.047058"
   id="svg2">
  <defs
     id="defs4" />
  <path
     d="M 36.852467,13.191133 C 36.852467,19.615099 32.073284,24.828754 26.184648,24.828754 C 20.296012,24.828754 15.516829,19.615099 15.516829,13.191133 C 15.516829,6.7671651 20.296012,1.5535109 26.184648,1.5535109 C 32.073284,1.5535109 36.852467,6.7671651 36.852467,13.191133 z M 23.275242,47.134195 L 20.042571,39.37578 L 24.245044,30.324297 L 27.477717,42.285186 L 34.266329,49.073798 M 26.184648,25.152021 L 24.245044,50.690134 L 22.951975,65.560428 L 14.870293,79.784187 M 23.275243,51.013401 L 36.205932,65.560429 L 41.054941,78.167851"
     id="path2390"
     style="opacity:1;fill:none;fill-opacity:0.84659095;stroke:#000000;stroke-width:2;stroke-linejoin:round;stroke-miterlimit:4;stroke-opacity:1" />
  <path
     d="M 10.77945,5.3250463 L 43.52945,4.5750463 M 33.77945,4.8250463 L 33.15445,-0.92495368 L 18.52945,-0.42495368 L 18.90445,4.9500463 M 19.27945,3.5750463 L 32.90445,3.0750463 M 32.77945,0.95004625 L 18.90445,1.5750463 M 19.02945,0.45004625 L 32.77945,-0.049953682 M 33.27945,2.0750463 L 18.65445,2.5750463 M 19.40445,4.0750463 L 33.77945,4.2000463"
     id="path2443"
     style="fill:none;fill-rule:evenodd;stroke:#000000;stroke-width:1px;stroke-linecap:butt;stroke-linejoin:miter;stroke-opacity:1" />
</svg>
