<?xml version="1.0" encoding="UTF-8" standalone="no"?>
<!-- Created with Inkscape (http://www.inkscape.org/) -->
<svg
   xmlns:dc="http://purl.org/dc/elements/1.1/"
   xmlns:cc="http://creativecommons.org/ns#"
   xmlns:rdf="http://www.w3.org/1999/02/22-rdf-syntax-ns#"
   xmlns:svg="http://www.w3.org/2000/svg"
   xmlns="http://www.w3.org/2000/svg"
   xmlns:sodipodi="http://sodipodi.sourceforge.net/DTD/sodipodi-0.dtd"
   xmlns:inkscape="http://www.inkscape.org/namespaces/inkscape"
   version="1.0"
   width="50.905994"
   height="82.047058"
   id="svg2"
   sodipodi:version="0.32"
   inkscape:version="0.46"
   sodipodi:docname="walking-knife-01.svg"
   inkscape:output_extension="org.inkscape.output.svg.inkscape">
  <metadata
     id="metadata2388">
    <rdf:RDF>
      <cc:Work
         rdf:about="">
        <dc:format>image/svg+xml</dc:format>
        <dc:type
           rdf:resource="http://purl.org/dc/dcmitype/StillImage" />
      </cc:Work>
    </rdf:RDF>
  </metadata>
  <sodipodi:namedview
     inkscape:window-height="551"
     inkscape:window-width="903"
     inkscape:pageshadow="2"
     inkscape:pageopacity="0.0"
     guidetolerance="10.0"
     gridtolerance="10.0"
     objecttolerance="10.0"
     borderopacity="1.0"
     bordercolor="#666666"
     pagecolor="#ffffff"
     id="base"
     showgrid="false"
     inkscape:zoom="3.0934157"
     inkscape:cx="71.923409"
     inkscape:cy="37.745044"
     inkscape:window-x="187"
     inkscape:window-y="132"
     inkscape:current-layer="svg2" />
  <defs
     id="defs4">
    <inkscape:perspective
       sodipodi:type="inkscape:persp3d"
       inkscape:vp_x="0 : 158.18045 : 1"
       inkscape:vp_y="0 : 1000 : 0"
       inkscape:vp_z="196.28572 : 158.18045 : 1"
       inkscape:persp3d-origin="98.14286 : 105.45363 : 1"
       id="perspective2390" />
  </defs>
  <path
     id="path2390"
     style="opacity:1;fill:none;fill-opacity:0.84659094999999984;stroke:#000000;stroke-width:2;stroke-linejoin:round;stroke-miterlimit:4;stroke-opacity:1"
     d="M 35.559398,12.544598 C 35.559398,18.968564 30.780215,24.182219 24.891579,24.182219 C 19.002943,24.182219 14.22376,18.968564 14.22376,12.544598 C 14.22376,6.1206306 19.002943,0.9069764 24.891579,0.9069764 C 30.780215,0.9069764 35.559398,6.1206306 35.559398,12.544598 z M 36.5292,46.48766 L 30.063856,39.37578 L 24.245044,30.324297 L 18.426234,40.992117 L 19.396035,50.0436 M 24.891579,24.505486 L 24.245044,50.690134 L 32.649993,64.590626 L 36.852467,79.46092 M 23.275243,51.013401 L 21.335639,66.206964 L 13.900492,78.491118"
     sodipodi:nodetypes="csssccccccccccccc" />
  <g
     id="layer1"
     transform="translate(28.691591,30.07779)">
    <path
       d="M 8.4315396,10.165496 L 15.186935,3.4101005 C 15.628877,9.4078815 9.9467682,12.059531 9.9467682,12.059531 L 10.767518,12.880281 L 10.136172,13.511626 L 6.9794456,10.354899 L 7.7370596,9.597285 L 8.4315396,10.165496 z M 7.5476559,11.175648 L 3.6964497,15.026854 L 5.1485438,16.478949 L 9.0628847,12.564608"
       id="path2383"
       style="fill:none;fill-rule:evenodd;stroke:#000000;stroke-width:1px;stroke-linecap:butt;stroke-linejoin:miter;stroke-opacity:1" />
  </g>
</svg>
