<?xml version="1.0" encoding="UTF-8" standalone="no"?>
<!-- Created with Inkscape (http://www.inkscape.org/) -->
<svg
   xmlns:svg="http://www.w3.org/2000/svg"
   xmlns="http://www.w3.org/2000/svg"
   version="1.0"
   width="50.905994"
   height="82.047058"
   id="svg2">
  <defs
     id="defs4" />
  <path
     d="M 35.559398,12.544598 C 35.559398,18.968564 30.780215,24.182219 24.891579,24.182219 C 19.002943,24.182219 14.22376,18.968564 14.22376,12.544598 C 14.22376,6.1206306 19.002943,0.9069764 24.891579,0.9069764 C 30.780215,0.9069764 35.559398,6.1206306 35.559398,12.544598 z M 36.5292,46.48766 L 30.063856,39.37578 L 24.245044,30.324297 L 18.426234,40.992117 L 19.396035,50.0436 M 24.891579,24.505486 L 24.245044,50.690134 L 32.649993,64.590626 L 36.852467,79.46092 M 23.275243,51.013401 L 21.335639,66.206964 L 13.900492,78.491118"
     id="path2390"
     style="opacity:1;fill:none;fill-opacity:0.84659095;stroke:#000000;stroke-width:2;stroke-linejoin:round;stroke-miterlimit:4;stroke-opacity:1" />
  <path
     d="M 21.0131,53.922807 C 21.0131,59.098071 16.812885,63.298285 11.637621,63.298285 C 6.4623571,63.298285 2.2621421,59.098071 2.2621421,53.922807 C 2.2621421,48.747543 6.4623571,44.547328 11.637621,44.547328 C 16.812885,44.547328 21.0131,48.747543 21.0131,53.922807 z M 11.732323,45.936288 L 11.732323,54.206912 L 17.098758,59.131405 M 3.7773711,54.333181 L 5.4188691,54.270046 M 17.982641,54.080643 L 18.992794,54.080643 M 5.5451381,50.166302 L 6.3658871,50.797647 M 8.0705201,47.830324 L 8.7649991,49.093015 M 15.204722,47.704055 L 14.447108,48.903611 M 17.477565,50.229436 L 16.404278,51.11332 M 5.5451381,58.373791 L 6.1764831,57.300504 M 8.0705201,60.520365 L 8.5755961,59.636482 M 11.542919,61.214845 L 11.479784,60.394096 M 14.699646,60.267827 L 14.0683,59.573347 M 17.414431,57.426773 L 16.972489,57.047966"
     id="path2474"
     style="fill:none;fill-opacity:1;stroke:#000000;stroke-width:1;stroke-linejoin:round;stroke-miterlimit:4;stroke-opacity:1" />
</svg>
