<?xml version="1.0" encoding="UTF-8" standalone="no"?>
<!-- Created with Inkscape (http://www.inkscape.org/) -->
<svg
   xmlns:svg="http://www.w3.org/2000/svg"
   xmlns="http://www.w3.org/2000/svg"
   version="1.0"
   width="50.905994"
   height="82.047058"
   id="svg2">
  <defs
     id="defs4" />
  <path
     d="M 36.852467,13.191133 C 36.852467,19.615099 32.073284,24.828754 26.184648,24.828754 C 20.296012,24.828754 15.516829,19.615099 15.516829,13.191133 C 15.516829,6.7671651 20.296012,1.5535109 26.184648,1.5535109 C 32.073284,1.5535109 36.852467,6.7671651 36.852467,13.191133 z M 23.275242,47.134195 L 20.042571,39.37578 L 24.245044,30.324297 L 27.477717,42.285186 L 34.266329,49.073798 M 26.184648,25.152021 L 24.245044,50.690134 L 22.951975,65.560428 L 14.870293,79.784187 M 23.275243,51.013401 L 36.205932,65.560429 L 41.054941,78.167851"
     id="path2390"
     style="opacity:1;fill:none;fill-opacity:0.84659095;stroke:#000000;stroke-width:2;stroke-linejoin:round;stroke-miterlimit:4;stroke-opacity:1" />
  <path
     d="M 43.659634,46.959343 A 3.3716209,5.257443 0 1 1 36.916393,46.959343 A 3.3716209,5.257443 0 1 1 43.659634,46.959343 z"
     transform="matrix(0.8673919,0.4976257,-0.4976257,0.8673919,23.773498,-8.3180791)"
     id="path2481"
     style="opacity:1;fill:none;fill-opacity:1;stroke:#000000;stroke-width:1;stroke-linejoin:round;stroke-miterlimit:4;stroke-dasharray:none;stroke-opacity:1" />
  <path
     d="M 31.864904,56.462652 C 32.219201,53.496765 36.809198,47.391283 37.350931,47.66215"
     id="path2485"
     style="fill:none;fill-rule:evenodd;stroke:#000000;stroke-width:1px;stroke-linecap:butt;stroke-linejoin:miter;stroke-opacity:1" />
  <path
     d="M 32.550658,57.148405 C 36.436593,54.405392 37.922393,50.176579 38.493854,48.233611"
     id="path2487"
     style="fill:none;fill-rule:evenodd;stroke:#000000;stroke-width:1px;stroke-linecap:butt;stroke-linejoin:miter;stroke-opacity:1" />
  <path
     d="M 33.122119,49.833702 C 36.208009,50.976625 37.350931,51.205209 38.722438,53.262469"
     id="path2489"
     style="fill:none;fill-rule:evenodd;stroke:#000000;stroke-width:1px;stroke-linecap:butt;stroke-linejoin:miter;stroke-opacity:1" />
  <path
     d="M 32.093489,51.77667 C 33.236411,54.291099 35.865132,55.205437 37.350931,55.662606"
     id="path2491"
     style="fill:none;fill-rule:evenodd;stroke:#000000;stroke-width:1px;stroke-linecap:butt;stroke-linejoin:miter;stroke-opacity:1" />
  <path
     d="M 36.620065,47.378587 C 36.745065,44.753587 37.870065,45.128587 39.620065,46.003587 C 41.370065,46.878587 39.370065,48.503587 39.370065,48.503587"
     id="path2493"
     style="fill:none;fill-rule:evenodd;stroke:#000000;stroke-width:1px;stroke-linecap:butt;stroke-linejoin:miter;stroke-opacity:1" />
</svg>
