<?xml version="1.0" encoding="UTF-8" standalone="no"?>
<!-- Created with Inkscape (http://www.inkscape.org/) -->
<svg
   xmlns:svg="http://www.w3.org/2000/svg"
   xmlns="http://www.w3.org/2000/svg"
   version="1.0"
   width="50.905994"
   height="82.047058"
   id="svg2">
  <defs
     id="defs4" />
  <path
     d="M 35.559398,12.544598 C 35.559398,18.968564 30.780215,24.182219 24.891579,24.182219 C 19.002943,24.182219 14.22376,18.968564 14.22376,12.544598 C 14.22376,6.1206306 19.002943,0.9069764 24.891579,0.9069764 C 30.780215,0.9069764 35.559398,6.1206306 35.559398,12.544598 z M 36.5292,46.48766 L 30.063856,39.37578 L 24.245044,30.324297 L 18.426234,40.992117 L 19.396035,50.0436 M 24.891579,24.505486 L 24.245044,50.690134 L 32.649993,64.590626 L 36.852467,79.46092 M 23.275243,51.013401 L 21.335639,66.206964 L 13.900492,78.491118"
     id="path2390"
     style="opacity:1;fill:none;fill-opacity:0.84659095;stroke:#000000;stroke-width:2;stroke-linejoin:round;stroke-miterlimit:4;stroke-opacity:1" />
  <path
     d="M 43.659634,46.959343 A 3.3716209,5.257443 0 1 1 36.916393,46.959343 A 3.3716209,5.257443 0 1 1 43.659634,46.959343 z"
     transform="matrix(0.8673919,0.4976257,-0.4976257,0.8673919,26.653433,-11.649608)"
     id="path2481"
     style="opacity:1;fill:none;fill-opacity:1;stroke:#000000;stroke-width:1;stroke-linejoin:round;stroke-miterlimit:4;stroke-dasharray:none;stroke-opacity:1" />
  <path
     d="M 34.744839,53.131123 C 35.099136,50.165236 39.689133,44.059754 40.230866,44.330621"
     id="path2485"
     style="fill:none;fill-rule:evenodd;stroke:#000000;stroke-width:1px;stroke-linecap:butt;stroke-linejoin:miter;stroke-opacity:1" />
  <path
     d="M 35.430593,53.816876 C 39.316528,51.073863 40.802328,46.84505 41.373789,44.902082"
     id="path2487"
     style="fill:none;fill-rule:evenodd;stroke:#000000;stroke-width:1px;stroke-linecap:butt;stroke-linejoin:miter;stroke-opacity:1" />
  <path
     d="M 36.002054,46.502173 C 39.087944,47.645096 40.230866,47.87368 41.602373,49.93094"
     id="path2489"
     style="fill:none;fill-rule:evenodd;stroke:#000000;stroke-width:1px;stroke-linecap:butt;stroke-linejoin:miter;stroke-opacity:1" />
  <path
     d="M 34.973424,48.445141 C 36.116346,50.95957 38.745067,51.873908 40.230866,52.331077"
     id="path2491"
     style="fill:none;fill-rule:evenodd;stroke:#000000;stroke-width:1px;stroke-linecap:butt;stroke-linejoin:miter;stroke-opacity:1" />
  <path
     d="M 39.5,44.047058 C 39.625,41.422058 40.75,41.797058 42.5,42.672058 C 44.25,43.547058 42.25,45.172058 42.25,45.172058"
     id="path2493"
     style="fill:none;fill-rule:evenodd;stroke:#000000;stroke-width:1px;stroke-linecap:butt;stroke-linejoin:miter;stroke-opacity:1" />
</svg>
