/* XPM */
static const char * apple_xpm[] = {
"40 40 4 1",
" 	c None",
".	c #B26E4C",
"+	c #DF4141",
"@	c #FF7F7F",
"                      ....              ",
"                     .....              ",
"                     ....               ",
"                     ...                ",
"                    ...                 ",
"                    ...                 ",
"                    ..                  ",
"                    ..                  ",
"                    ..                  ",
"       ++++++++     ..    ++++++++      ",
"     +++++++++++++  ..   +++++++++++    ",
"    ++++++++++++++++..+++++++++++++++   ",
"   +++++++++++++++++++++++++++@@@+++++  ",
"  +++++++++++++++++++++++++++++++@@++++ ",
" +++++++++++++++++++++++++++++++++@++++ ",
" +++++++++++++++++++++++++++++++++@@++++",
" ++++++++++++++++++++++++++++++++++@++++",
" ++++++++++++++++++++++++++++++++++@++++",
"+++++++++++++++++++++++++++++++++++@++++",
"+++++++++++++++++++++++++++++++++++@++++",
"++++++++++++++++++++++++++++++++++++++++",
"++++++++++++++++++++++++++++++++++++++++",
"++++++++++++++++++++++++++++++++++++++++",
"+++++++++++++++++++++++++++++++++++++++ ",
"+++++++++++++++++++++++++++++++++++++++ ",
"+++++++++++++++++++++++++++++++++++++++ ",
" ++++++++++++++++++++++++++++++++++++++ ",
" ++++++++++++++++++++++++++++++++++++++ ",
" +++++++++++++++++++++++++++++++++++++  ",
" +++++++++++++++++++++++++++++++++++++  ",
" +++++++++++++++++++++++++++++++++++++  ",
"  +++++++++++++++++++++++++++++++++++   ",
"  +++++++++++++++++++++++++++++++++++   ",
"  +++++++++++++++++++++++++++++++++++   ",
"   +++++++++++++++++++++++++++++++++    ",
"   +++++++++++++++++++++++++++++++++    ",
"    +++++++++++++++++++++++++++++++     ",
"    ++++++++++++++++++++++++++++++      ",
"     ++++++++++++++++++++++++++++       ",
"       +++++++++    +++++++++++         "};
