/* XPM */
static const char * cherry_xpm[] = {
"40 40 5 1",
" 	c None",
".	c #B26E4C",
"+	c #000000",
"@	c #FF0000",
"#	c #FF7F7F",
"                        ...             ",
"                        ...             ",
"                        ...             ",
"                       ....             ",
"                      ....              ",
"                     .....              ",
"                    .....               ",
"                   .....                ",
"                  .......               ",
"                ..........              ",
"              ..............            ",
"             .....+++++++....           ",
"           .....++++++++++....          ",
"          .....++++++++++++....         ",
"         .....+++++++++++++....         ",
"         ...++++++++++++++@@@@@@@@@     ",
"        ...+++++++++++++@@@@@@@@@@@@    ",
"        ...++++++++++++@@@@@@####@@@@@  ",
"        ..+++++++++++++@@@@@@@@@##@@@@  ",
"       ...++++++++++++@@@@@@@@@@@###@@@ ",
"       ...++++++++++++@@@@@@@@@@@@@#@@@@",
"       ..@@@@@+++++++@@@@@@@@@@@@@@##@@@",
"       @@@@@@@@@@++++@@@@@@@@@@@@@@@#@@@",
"     @@@@@@@@@@@@+++@@@@@@@@@@@@@@@@@@@@",
"    @@@@@####@@@@@++@@@@@@@@@@@@@@@@@@@@",
"   @@@@@@@@@###@@@@+@@@@@@@@@@@@@@@@@@@@",
" @@@@@@@@@@@@@##@@@+@@@@@@@@@@@@@@@@@@@@",
" @@@@@@@@@@@@@@#@@@+@@@@@@@@@@@@@@@@@@@@",
"@@@@@@@@@@@@@@@##@@@ @@@@@@@@@@@@@@@@@@@",
"@@@@@@@@@@@@@@@@#@@@ @@@@@@@@@@@@@@@@@@ ",
"@@@@@@@@@@@@@@@@@@@@  @@@@@@@@@@@@@@@@  ",
"@@@@@@@@@@@@@@@@@@@@   @@@@@@@@@@@@@@   ",
"@@@@@@@@@@@@@@@@@@@@    @@@@@@@@@@@@    ",
"@@@@@@@@@@@@@@@@@@@@       @@@@@@       ",
" @@@@@@@@@@@@@@@@@@                     ",
" @@@@@@@@@@@@@@@@@@                     ",
"  @@@@@@@@@@@@@@@@                      ",
"   @@@@@@@@@@@@@@                       ",
"    @@@@@@@@@@@                         ",
"      @@@@@@@                           "};
