/* XPM */
static const char * horseshoe_xpm[] = {
"40 40 2 1",
" 	c None",
".	c #808080",
"              ............              ",
"             ..............             ",
"            ................            ",
"          ....................          ",
"         ......................         ",
"        ........................        ",
"       ..........................       ",
"      ............................      ",
"    ................................    ",
"   ..............      ..............   ",
"  .............          .............  ",
"  ............            ............  ",
" ...........                ........... ",
" ...........                ........... ",
"...........                  ...........",
"..........                    ..........",
"..........                    ..........",
"..........                    ..........",
".........                      .........",
".........                      .........",
".........                      .........",
".........                      .........",
".........                      .........",
".........                      .........",
"..........                    ..........",
"..........                    ..........",
" .........                    ......... ",
" ..........                  .......... ",
"  .........                  .........  ",
"  ..........                ..........  ",
"   ..........              ..........   ",
"   ..........              ..........   ",
"    ..........            ..........    ",
"    ..........            ..........    ",
"     .........            .........     ",
"     ..........          ..........     ",
"      .........          .........      ",
"       ........          ........       ",
"       ........          ........       ",
"        .......          .......        "};
