/* XPM */
static const char * pear_xpm[] = {
"40 40 3 1",
" 	c None",
".	c #B26E4C",
"+	c #CED03F",
"                ..                      ",
"                ...                     ",
"                 ...                    ",
"                  ..                    ",
"                  ..                    ",
"                  ..                    ",
"                 ++++                   ",
"                ++++++                  ",
"               +++++++                  ",
"               ++++++++                 ",
"              +++++++++                 ",
"             ++++++++++                 ",
"             ++++++++++                 ",
"             +++++++++++                ",
"            ++++++++++++                ",
"            ++++++++++++                ",
"            +++++++++++++               ",
"           ++++++++++++++               ",
"           +++++++++++++++              ",
"          ++++++++++++++++              ",
"          +++++++++++++++++             ",
"         ++++++++++++++++++             ",
"        ++++++++++++++++++++            ",
"        +++++++++++++++++++++           ",
"       ++++++++++++++++++++++           ",
"      ++++++++++++++++++++++++          ",
"      ++++++++++++++++++++++++          ",
"      +++++++++++++++++++++++++         ",
"      +++++++++++++++++++++++++         ",
"     ++++++++++++++++++++++++++         ",
"     ++++++++++++++++++++++++++         ",
"     ++++++++++++++++++++++++++         ",
"     +++++++++++++++++++++++++          ",
"     +++++++++++++++++++++++++          ",
"     +++++++++++++++++++++++++          ",
"      +++++++++++++++++++++++           ",
"      +++++++++++++++++++++++           ",
"       +++++++++++++++++++++            ",
"        ++++++++++++++++++++            ",
"          ++++++++++++++++              "};
