/* XPM */
static const char * skate1_xpm[] = {
"40 40 3 1",
" 	c None",
".	c #FFFFFF",
"+	c #FF8000",
"............                            ",
"............                            ",
"............                            ",
".............                           ",
".............                           ",
"..............                          ",
"...............                         ",
"...............                         ",
"................                        ",
"................                        ",
".................                       ",
".................                       ",
".................+..                    ",
".................+..+..+..              ",
".................+..+..+..+...          ",
".................+..+..+..+.....        ",
".................+..+..+..+.......      ",
"....................+..+..+.........    ",
"..........................+..........   ",
".....................................   ",
"......................................  ",
"......................................  ",
"....................................... ",
"....................................... ",
"........................................",
"........................................",
"........................................",
"........................................",
"++++++++++++++++++++++++++++++++++++++++",
"++++++++++++++++++++++++++++++++++++++++",
"    ++++                        ++++    ",
"  ++++++++                    ++++++++  ",
"  +..++..+                    +..++..+  ",
" ++......++                  ++......++ ",
" +++....+++                  +++....+++ ",
" +++....+++                  +++....+++ ",
" ++......++                  ++......++ ",
"  +..++..+                    +..++..+  ",
"  ++++++++                    ++++++++  ",
"    ++++                        ++++    "};
