/* XPM */
static const char * skull_xpm[] = {
"40 40 3 1",
" 	c None",
".	c #FFFFFF",
"+	c #000000",
"               ..........               ",
"             ..............             ",
"           ..................           ",
"          ....................          ",
"         ......................         ",
"        ........................        ",
"        ........................        ",
"       ..........................       ",
"       ..........................       ",
"       ..........................       ",
"      ............................      ",
"      ............................      ",
"      ............................      ",
"      ......++++........++++......      ",
"      .....++++++......++++++.....      ",
"      ....++++++++....++++++++....      ",
"       ...++++++++....++++++++...       ",
"       ...++++++++....++++++++...       ",
"       ...+++++++......+++++++...       ",
"       ....+++++........+++++....       ",
"       .....+++....++....+++.....       ",
"       ...........++++...........       ",
"       ...........++++...........       ",
"   .    ..........++++..........    .   ",
"  ...   ..........++++..........   ...  ",
" .....   .........++++.........   ..... ",
"........ .........++++......... ........",
" ...................................... ",
"    ................................    ",
"      ............................      ",
"        ........................        ",
"           ..++.++.++.++.++..           ",
"           ..++.++.++.++.++..           ",
"         ....++.++.++.++.++....         ",
"      .......++.++.++.++.++.......      ",
"   ..................................   ",
"..........  ................  ..........",
" ........   ................   ........ ",
" ......      ..............      ...... ",
"   ...        ............        ...   "};
