/* XPM */
static const char * spider1_xpm[] = {
"40 40 2 1",
" 	c None",
".	c #CC8408",
"               ..      ..               ",
"      ..       ..      ..       ..      ",
"      ...                      ...      ",
"       ...                    ...       ",
"        ..         ..         ..        ",
"         ..       ....       ..         ",
"         ....    ......    ....         ",
"           ..................           ",
"             ..............             ",
"                ........                ",
"                ........                ",
"               ..........               ",
"               ..........               ",
"              ............              ",
"              ............              ",
"          ....................          ",
"         ......................         ",
"        ...  ..............  ...        ",
"       ...   ..............   ...       ",
"      ...   ................   ...      ",
"     ...    ................    ...     ",
"     ..    ..................    ..     ",
"           ..................           ",
"          ....................          ",
"          ....................          ",
"          ....................          ",
"          ....................          ",
"          ....................          ",
"          ....................          ",
"          ....................          ",
"           ..................           ",
"           ..................           ",
"          ....................          ",
"         ...  ............  ...         ",
"        ...    ..........    ...        ",
"       ...      ........      ...       ",
"       ..                      ..       ",
"       ..                      ..       ",
"       ..                      ..       ",
"       ..                      ..       "};
