/* XPM */
static const char * spider0_xpm[] = {
"40 40 2 1",
" 	c None",
".	c #CC8408",
"               ..      ..               ",
"               ..      ..               ",
"  ....                            ....  ",
"   ......                      ......   ",
"      .....        ..        .....      ",
"         ....     ....     ....         ",
"           ....  ......  ....           ",
"             ..............             ",
"               ..........               ",
"                ........                ",
"                ........                ",
"               ..........               ",
"               ..........               ",
"              ............              ",
"              ............              ",
"       ..........................       ",
"   ..................................   ",
"   ....      ..............      ....   ",
"             ..............             ",
"            ................            ",
"            ................            ",
"           ..................           ",
"           ..................           ",
"          ....................          ",
"          ....................          ",
"          ....................          ",
"          ....................          ",
"          ....................          ",
"          ....................          ",
"          ....................          ",
"           ..................           ",
"           ..................           ",
"         ......................         ",
"        ....  ............  ....        ",
"      ....     ..........     ....      ",
"    .....       ........       .....    ",
"  ....                            ....  ",
"  ...                              ...  ",
"                                        ",
"                                        "};
