<?xml version="1.0" encoding="UTF-8" standalone="no"?>
<!-- Created with Inkscape (http://www.inkscape.org/) -->
<svg
   xmlns:svg="http://www.w3.org/2000/svg"
   xmlns="http://www.w3.org/2000/svg"
   version="1.0"
   width="5000"
   height="1000"
   id="svg2">
  <defs
     id="defs4" />
  <g
     id="layer1"
     style="fill:none;stroke:#000000;stroke-opacity:1">
    <path
       d="M 362.64477,305.97418 C 362.64477,326.46614 358.48698,345.99289 350.96955,363.7563 C 343.45212,381.51971 329.54459,393.47916 319.13649,410.95834 C 309.4131,427.28763 290.70801,440.32473 271.93446,442.7914 C 252.81022,445.30414 234.63818,453.96576 214.15234,454.46662 C 193.98903,454.95959 182.43659,446.68372 156.37022,442.7914 C 139.13879,440.21834 120.92981,437.81248 109.16819,410.95834 C 101.54359,393.54985 84.852558,381.51971 77.335129,363.7563 C 69.817699,345.99289 60.609148,326.46614 65.659911,305.97418 C 70.56391,286.07767 69.817699,265.95547 77.335129,248.19206 C 84.852558,230.42866 101.77786,218.49926 109.16819,200.99003 C 116.54584,183.51086 135.57636,169.60333 156.37022,169.15697 C 175.65439,168.74301 193.66038,157.48175 214.15234,157.48175 C 234.6443,157.48175 254.17105,161.63954 271.93446,169.15697 C 289.69786,176.6744 304.62683,188.71567 319.13649,200.99003 C 343.55402,221.6459 343.57817,231.15907 350.96955,248.19206 C 357.04075,262.18277 369.02655,276.52637 361.9848,291.89274 C 360.04517,296.12535 362.64477,301.22522 362.64477,305.97418 z M 303.80279,230.56492 C 318.53816,253.90387 317.48679,281.05998 301.456,291.18124 C 285.4252,301.30251 260.45556,290.57511 245.7202,267.23615 C 230.98483,243.8972 232.03619,216.74109 248.067,206.61982 C 264.09779,196.49856 289.06742,207.22596 303.80279,230.56492 z M 210.11173,191.82694 C 226.27417,198.89801 252.53814,193.84725 252.53814,193.84725 M 317.1879,327.18738 C 306.07622,300.92342 318.19805,284.76098 318.19805,284.76098 M 273.75134,195.86755 C 313.14729,214.0503 318.19805,235.2635 319.2082,254.4564 M 189.90868,226.17213 C 209.10158,229.20259 220.21325,227.18228 220.21325,227.18228 M 239.40615,332.23815 C 240.41631,318.09601 252.53814,294.8625 252.53814,294.8625 M 127.37439,325.71108 C 132.28052,342.86667 126.03734,359.71418 113.4387,363.31712 C 100.84006,366.92007 86.633285,355.92081 81.727151,338.76522 C 76.821014,321.60962 83.064207,304.76212 95.662847,301.15918 C 108.26149,297.55623 122.46825,308.55548 127.37439,325.71108 z M 244.45692,225.16198 C 258.59905,193.84725 289.91378,226.17213 291.93409,237.28381 M 153.54319,241.32442 C 146.47212,241.32442 146.47212,242.33457 146.47212,242.33457 M 203.04066,389.81684 C 206.07112,398.90822 206.07112,397.89806 206.07112,397.89806 M 187.88837,299.91327 C 183.84776,303.95388 183.84776,303.95388 187.88837,299.91327 z M 244.45692,356.48181 C 248.49753,366.58333 250.51783,363.55288 250.51783,363.55288 M 145.46197,347.39044 C 143.44166,360.52242 148.49242,356.48181 148.49242,356.48181 M 152.53303,198.89801 C 155.56349,202.93862 160.61425,202.93862 160.61425,202.93862 M 105.05586,246.37518 L 107.07617,254.4564 M 310.11683,379.71532 L 307.08637,384.76608 M 252.53814,431.2331 L 253.54829,426.18233 M 159.6041,401.93867 L 165.66502,404.96913 M 349.51278,315.06555 L 349.51278,323.14677 M 219.2031,266.57823 L 218.19295,274.65945 M 265.67012,225.16198 L 262.63966,233.2432 M 277.79195,242.33457 L 285.87317,241.32442 M 275.77164,263.54777 L 272.74119,270.61884 M 75.761441,305.97418 C 85.862966,291.83205 84.852814,279.71022 84.852814,279.71022 M 130.30968,392.8473 C 118.18785,375.67471 93.944187,367.59349 93.944187,367.59349 M 73.741136,325.16708 C 74.751288,341.32952 78.791899,345.37013 78.791899,345.37013 M 95.964492,313.04525 C 87.883271,328.19754 88.893424,331.228 94.954339,340.31937 M 153.54319,284.76098 L 152.53303,291.83205 M 116.16754,316.07571 C 129.29953,334.25845 120.20815,354.4615 120.20815,354.4615 M 180.81731,335.26861 L 183.84776,342.33967 M 254.55844,405.97928 L 261.62951,398.90822 M 284.86302,340.31937 L 283.85287,349.41074 M 191.92898,429.21279 L 193.94929,435.27371 M 210.11173,294.8625 L 210.11173,300.92342"
       id="path2443"
       style="fill:none;fill-opacity:1;stroke:#000000;stroke-width:1;stroke-linejoin:round;stroke-miterlimit:4;stroke-dasharray:none;stroke-opacity:1" />
    <path
       d="M 649.56392,247.05309 C 644.04565,254.77835 521.29092,312.92144 472.9362,238.39988 C 510.09064,197.16277 618.51939,204.30657 649.56392,247.05309 z M 537.17466,274.28092 C 506.22127,246.20661 525.15225,215.97254 553.7313,215.25292 C 582.31932,214.53305 599.61962,255.56473 565.24919,276.44049 M 565.2495,252.68536 C 565.2495,259.44049 559.76707,264.92286 553.01175,264.92286 C 546.25673,264.92286 540.7743,259.44049 540.7743,252.68536 C 540.7743,245.93025 546.25673,240.44785 553.01175,240.44785 C 559.76707,240.44785 565.2495,245.93025 565.2495,252.68536 z"
       id="path2734"
       style="fill:none;fill-opacity:1;fill-rule:evenodd;stroke:#000000;stroke-width:1;stroke-linecap:butt;stroke-linejoin:miter;stroke-miterlimit:4;stroke-dasharray:none;stroke-opacity:1" />
    <path
       d="M 651.98521,278.40153 C 652.20549,314.38975 649.52808,346.46619 645.51474,354.0012 C 641.59532,361.3614 639.15457,373.85592 653.67242,373.85592 C 668.18995,373.85592 666.85001,362.03245 662.72761,353.94874 C 658.87555,346.39485 652.4264,314.31974 651.98521,278.40153 z"
       id="path2746"
       style="fill:none;fill-opacity:1;fill-rule:evenodd;stroke:#000000;stroke-width:1;stroke-linecap:butt;stroke-linejoin:miter;stroke-miterlimit:4;stroke-dasharray:none;stroke-opacity:1" />
    <path
       d="M 860.99285,247.20967 C 847.62385,209.33085 809.74515,214.90125 807.51695,238.29697 C 779.66485,222.69987 758.49735,266.14907 775.20855,280.63207 M 798.60425,281.74617 C 751.81285,270.60537 741.78615,311.82637 766.29595,318.51087 C 749.58465,340.79257 758.49735,354.16147 876.59005,354.16147 C 994.68277,354.16147 1028.1052,350.81927 1029.2193,340.79257 M 1023.6489,337.45027 C 1050.3869,353.04747 1068.2122,329.65167 1045.9305,318.51087 C 1063.7559,322.96727 1080.4671,279.51797 1050.3869,285.08847 C 1065.984,244.98147 1034.7897,244.98147 1019.1926,258.35047 C 1022.5348,227.15617 1006.9377,227.15617 993.56867,243.86737 C 971.28697,195.96185 941.20675,217.12947 937.86455,236.06877 M 943.43495,261.69267 C 937.86455,197.07595 910.01245,213.78715 905.55615,221.58577 C 875.47595,198.19005 855.42245,228.27027 856.53655,237.18287 M 839.82535,329.65167 C 783.00715,298.45737 843.16755,250.55187 856.53655,280.63207 C 859.87875,246.09557 905.55615,251.66597 907.78435,270.60537 M 950.11945,291.77287 C 943.43495,238.29697 1032.5616,271.71947 1001.3673,296.22927 M 906.67025,301.79967 C 927.83785,276.17577 970.17297,314.05457 938.97865,328.53767 M 795.87135,370.63717 C 790.56855,392.43777 790.56855,396.56227 795.28215,396.56227 C 799.99585,396.56227 795.87135,372.40477 795.87135,370.63717 z M 840.43465,389.57657 C 835.13185,411.37717 835.13185,415.50167 839.84545,415.50167 C 844.55915,415.50167 840.43465,391.34417 840.43465,389.57657 z M 898.36695,368.40897 C 893.06415,390.20957 893.06415,394.33407 897.77775,394.33407 C 902.49145,394.33407 898.36695,370.17657 898.36695,368.40897 z M 940.70205,395.14697 C 935.39925,416.94757 935.39925,421.07207 940.11285,421.07207 C 944.82655,421.07207 940.70205,396.91457 940.70205,395.14697 z M 978.58087,365.06677 C 973.27807,386.86737 973.27807,390.99187 977.99167,390.99187 C 982.70537,390.99187 978.58087,366.83437 978.58087,365.06677 z M 902.82325,421.88497 C 897.52045,443.68557 897.52045,447.81007 902.23405,447.81007 C 906.94775,447.81007 902.82325,423.65257 902.82325,421.88497 z M 999.74847,404.05967 C 994.44567,425.86027 994.44567,429.98477 999.15927,429.98477 C 1003.873,429.98477 999.74847,405.82727 999.74847,404.05967 z"
       id="path2448"
       style="fill:none;fill-opacity:1;fill-rule:evenodd;stroke:#000000;stroke-width:1;stroke-linecap:butt;stroke-linejoin:miter;stroke-miterlimit:4;stroke-dasharray:none;stroke-opacity:1" />
    <path
       d="M 1280.6626,450.69592 C 1266.057,454.13247 1251.442,454.44368 1237.5205,452.06466 C 1223.5989,449.68564 1212.7425,441.77865 1198.5388,437.29163 C 1185.2694,433.09974 1172.8403,421.95396 1167.9338,408.98682 C 1162.9357,395.77744 1153.7146,384.27781 1149.9221,369.76053 C 1146.1893,355.47185 1150.1506,345.85002 1148.5535,326.61841 C 1147.4977,313.90528 1146.1587,300.52333 1163.3266,287.63675 C 1174.4558,279.28291 1180.2312,265.36879 1191.6314,257.03184 C 1203.0315,248.69479 1215.4049,238.85675 1230.8576,239.02009 C 1245.8612,239.17875 1260.0782,235.27234 1273.9997,237.65146 C 1287.9213,240.03048 1299.2623,250.09337 1312.9814,252.42459 C 1326.677,254.7517 1339.781,265.98327 1343.5863,280.72929 C 1347.1154,294.40473 1358.1615,305.34984 1361.598,319.95549 C 1365.0346,334.56115 1365.3458,349.17616 1362.9667,363.09771 C 1360.5876,377.01926 1354.5089,389.67924 1348.1936,402.07947 C 1337.566,422.94705 1330.7895,424.55956 1319.8888,432.68427 C 1310.9351,439.35778 1302.7218,450.30615 1290.5885,447.86418 C 1287.2464,447.19145 1284.0474,449.89951 1280.6626,450.69592 z M 1324.5426,396.11009 C 1310.3789,410.52668 1290.8471,414.33149 1280.9448,404.60296 C 1271.0424,394.87434 1274.5009,375.27822 1288.6646,360.86163 C 1302.8283,346.44494 1322.3601,342.64023 1332.2624,352.36876 C 1342.1648,362.09738 1338.7063,381.6935 1324.5426,396.11009 z M 1336.4409,322.8354 C 1334.1115,335.54096 1342.1159,353.41355 1342.1159,353.41355 M 1257.9197,421.85417 C 1274.7759,409.52972 1288.3285,415.45911 1288.3285,415.45911 M 1344.2334,368.87207 C 1337.8805,400.00087 1323.6078,407.15827 1310.0975,411.097 M 1308.5733,314.19539 C 1309.632,328.38334 1312.9354,335.96436 1312.9354,335.96436 M 1241.2756,367.26221 C 1251.5248,365.61058 1270.1173,370.35403 1270.1173,370.35403 M 1227.1398,286.31703 C 1215.7349,292.69088 1202.6798,291.06646 1197.999,282.69099 C 1193.3182,274.31553 1198.7754,262.34504 1210.1803,255.9711 C 1221.5852,249.59726 1234.6402,251.22178 1239.321,259.59724 C 1244.0019,267.97271 1238.5446,279.94309 1227.1398,286.31703 z M 1318.4411,352.90528 C 1343.1323,357.73348 1325.3443,385.47394 1317.7633,388.77747 M 1291.6749,290.81696 C 1290.4891,285.77709 1289.7691,285.9465 1289.7691,285.9465 M 1194.1378,350.99879 C 1188.1661,354.68345 1188.8861,354.51404 1188.8861,354.51404 M 1255.6755,325.12197 C 1252.1179,322.91963 1252.1179,322.91963 1255.6755,325.12197 z M 1224.8429,374.92792 C 1218.3207,379.50182 1220.8195,380.43359 1220.8195,380.43359 M 1214.7211,302.84457 C 1205.0225,303.60685 1208.7495,306.52922 1208.7495,306.52922 M 1321.7449,282.98202 C 1319.3732,285.81956 1320.2202,289.41945 1320.2202,289.41945 M 1279.9435,257.10462 L 1274.5225,259.89984 M 1219.2946,425.62326 L 1215.1864,424.31027 M 1172.9192,393.22369 L 1176.6886,393.09671 M 1178.2136,322.07227 L 1177.07,326.90042 M 1271.9805,442.86076 L 1266.2206,444.216 M 1284.6866,341.85121 L 1278.7573,342.48641 M 1321.9986,368.025 L 1315.7305,367.22022 M 1311.7917,379.54465 L 1313.8669,385.13516 M 1296.3332,381.66217 L 1290.7851,380.68809 M 1232.5516,246.21998 C 1244.3255,251.0481 1252.7959,248.29531 1252.7959,248.29531 M 1179.7807,299.668 C 1189.9876,288.14835 1191.6818,269.51348 1191.6818,269.51348 M 1218.5331,247.9987 C 1207.1827,251.42921 1204.9804,254.98679 1204.9804,254.98679 M 1230.8998,261.80559 C 1218.7448,258.58666 1216.7542,259.81491 1211.2908,265.65949 M 1260.7155,298.10137 L 1255.5062,298.56727 M 1232.128,276.71349 C 1221.3705,289.12258 1205.4461,286.03073 1205.4461,286.03073 M 1229.2901,326.01127 L 1224.7584,329.35702 M 1191.2577,390.42855 L 1197.4834,394.28268 M 1243.1389,401.0168 L 1236.4896,401.8215 M 1164.1949,349.68575 L 1160.2138,352.14215 M 1263.0023,340.1147 L 1258.6824,341.13113"
       id="path3581"
       style="fill:none;fill-opacity:1;stroke:#000000;stroke-width:1;stroke-linejoin:round;stroke-miterlimit:4;stroke-dasharray:none;stroke-opacity:1" />
    <path
       d="M 1387.3848,236.86569 L 1413.1973,236.86569 L 1413.1973,241.51413 L 1392.9082,241.51413 L 1392.9082,253.60007 L 1412.3496,253.60007 L 1412.3496,258.2485 L 1392.9082,258.2485 L 1392.9082,273.04147 L 1413.6895,273.04147 L 1413.6895,277.68991 L 1387.3848,277.68991 L 1387.3848,236.86569 M 1433.3496,277.68991 L 1417.7637,236.86569 L 1423.5332,236.86569 L 1436.4668,271.23679 L 1449.4277,236.86569 L 1455.1699,236.86569 L 1439.6113,277.68991 L 1433.3496,277.68991 M 1461.1035,236.86569 L 1486.916,236.86569 L 1486.916,241.51413 L 1466.627,241.51413 L 1466.627,253.60007 L 1486.0684,253.60007 L 1486.0684,258.2485 L 1466.627,258.2485 L 1466.627,273.04147 L 1487.4082,273.04147 L 1487.4082,277.68991 L 1461.1035,277.68991 L 1461.1035,236.86569 M 1515.9004,258.54929 C 1517.0853,258.95035 1518.2337,259.80712 1519.3457,261.1196 C 1520.4759,262.43211 1521.6061,264.2368 1522.7363,266.53366 L 1528.3418,277.68991 L 1522.4082,277.68991 L 1517.1855,267.21725 C 1515.8366,264.48289 1514.5241,262.66909 1513.248,261.77585 C 1511.9902,260.88264 1510.2676,260.43602 1508.0801,260.436 L 1502.0645,260.436 L 1502.0645,277.68991 L 1496.541,277.68991 L 1496.541,236.86569 L 1509.0098,236.86569 C 1513.6764,236.86573 1517.1582,237.84099 1519.4551,239.79147 C 1521.7519,241.74203 1522.9004,244.68604 1522.9004,248.6235 C 1522.9004,251.19384 1522.2988,253.32665 1521.0957,255.02194 C 1519.9108,256.71728 1518.179,257.89306 1515.9004,258.54929 M 1502.0645,241.40475 L 1502.0645,255.89694 L 1509.0098,255.89694 C 1511.6712,255.89696 1513.6764,255.28629 1515.0254,254.06491 C 1516.3926,252.82535 1517.0761,251.01155 1517.0762,248.6235 C 1517.0761,246.23552 1516.3926,244.43994 1515.0254,243.23679 C 1513.6764,242.01547 1511.6712,241.40479 1509.0098,241.40475 L 1502.0645,241.40475 M 1526.2637,236.86569 L 1532.1973,236.86569 L 1543.5176,253.65475 L 1554.7559,236.86569 L 1560.6895,236.86569 L 1546.252,258.2485 L 1546.252,277.68991 L 1540.7012,277.68991 L 1540.7012,258.2485 L 1526.2637,236.86569 M 1589.4551,241.40475 L 1589.4551,256.7446 L 1596.4004,256.7446 C 1598.9707,256.74462 1600.9577,256.07926 1602.3613,254.7485 C 1603.7649,253.4178 1604.4668,251.52197 1604.4668,249.061 C 1604.4668,246.61833 1603.7649,244.73161 1602.3613,243.40085 C 1600.9577,242.07015 1598.9707,241.40479 1596.4004,241.40475 L 1589.4551,241.40475 M 1583.9316,236.86569 L 1596.4004,236.86569 C 1600.9759,236.86573 1604.4303,237.90479 1606.7637,239.98288 C 1609.1152,242.04281 1610.291,245.06885 1610.291,249.061 C 1610.291,253.08968 1609.1152,256.13394 1606.7637,258.19382 C 1604.4303,260.25373 1600.9759,261.28368 1596.4004,261.28366 L 1589.4551,261.28366 L 1589.4551,277.68991 L 1583.9316,277.68991 L 1583.9316,236.86569 M 1617.7285,236.86569 L 1623.252,236.86569 L 1623.252,273.04147 L 1643.1309,273.04147 L 1643.1309,277.68991 L 1617.7285,277.68991 L 1617.7285,236.86569 M 1663.8574,242.3071 L 1656.3652,262.6235 L 1671.377,262.6235 L 1663.8574,242.3071 M 1660.7402,236.86569 L 1667.002,236.86569 L 1682.5605,277.68991 L 1676.8184,277.68991 L 1673.0996,267.21725 L 1654.6973,267.21725 L 1650.9785,277.68991 L 1645.1543,277.68991 L 1660.7402,236.86569 M 1688.4941,236.86569 L 1695.9316,236.86569 L 1714.0332,271.01804 L 1714.0332,236.86569 L 1719.3926,236.86569 L 1719.3926,277.68991 L 1711.9551,277.68991 L 1693.8535,243.53757 L 1693.8535,277.68991 L 1688.4941,277.68991 L 1688.4941,236.86569 M 1730.3848,236.86569 L 1756.1973,236.86569 L 1756.1973,241.51413 L 1735.9082,241.51413 L 1735.9082,253.60007 L 1755.3496,253.60007 L 1755.3496,258.2485 L 1735.9082,258.2485 L 1735.9082,273.04147 L 1756.6895,273.04147 L 1756.6895,277.68991 L 1730.3848,277.68991 L 1730.3848,236.86569 M 1760.1621,236.86569 L 1794.6973,236.86569 L 1794.6973,241.51413 L 1780.2051,241.51413 L 1780.2051,277.68991 L 1774.6543,277.68991 L 1774.6543,241.51413 L 1760.1621,241.51413 L 1760.1621,236.86569 M 1817.8848,236.86569 L 1823.4082,236.86569 L 1823.4082,277.68991 L 1817.8848,277.68991 L 1817.8848,236.86569 M 1876.7012,238.20554 L 1876.7012,243.59225 C 1874.6048,242.58969 1872.6269,241.84229 1870.7676,241.35007 C 1868.9082,240.85792 1867.1126,240.61182 1865.3809,240.61179 C 1862.373,240.61182 1860.0488,241.19516 1858.4082,242.36179 C 1856.7858,243.52849 1855.9746,245.18734 1855.9746,247.33835 C 1855.9746,249.14306 1856.5124,250.51025 1857.5879,251.43991 C 1858.6816,252.35139 1860.7415,253.08968 1863.7676,253.65475 L 1867.1035,254.33835 C 1871.2233,255.12223 1874.2584,256.50764 1876.209,258.4946 C 1878.1777,260.46337 1879.1621,263.10659 1879.1621,266.42429 C 1879.1621,270.38002 1877.8313,273.37872 1875.1699,275.42038 C 1872.5267,277.46205 1868.6439,278.48288 1863.5215,278.48288 C 1861.5892,278.48288 1859.5293,278.26413 1857.3418,277.82663 C 1855.1725,277.38913 1852.9212,276.742 1850.5879,275.88522 L 1850.5879,270.19772 C 1852.8301,271.45554 1855.0267,272.40346 1857.1777,273.04147 C 1859.3288,273.6795 1861.4433,273.99851 1863.5215,273.9985 C 1866.6751,273.99851 1869.1087,273.37872 1870.8223,272.13913 C 1872.5358,270.89955 1873.3926,269.13133 1873.3926,266.83444 C 1873.3926,264.82925 1872.7728,263.26154 1871.5332,262.13132 C 1870.3118,261.00113 1868.2975,260.15347 1865.4902,259.58835 L 1862.127,258.9321 C 1858.0072,258.11181 1855.0267,256.82665 1853.1855,255.07663 C 1851.3444,253.32665 1850.4238,250.89306 1850.4238,247.77585 C 1850.4238,244.16651 1851.6908,241.32276 1854.2246,239.2446 C 1856.7767,237.16651 1860.2858,236.12745 1864.752,236.12741 C 1866.666,236.12745 1868.6165,236.30063 1870.6035,236.64694 C 1872.5905,236.99334 1874.623,237.51287 1876.7012,238.20554 M 1887.7754,236.86569 L 1913.5879,236.86569 L 1913.5879,241.51413 L 1893.2988,241.51413 L 1893.2988,253.60007 L 1912.7402,253.60007 L 1912.7402,258.2485 L 1893.2988,258.2485 L 1893.2988,273.04147 L 1914.0801,273.04147 L 1914.0801,277.68991 L 1887.7754,277.68991 L 1887.7754,236.86569 M 1923.2129,236.86569 L 1949.0254,236.86569 L 1949.0254,241.51413 L 1928.7363,241.51413 L 1928.7363,253.60007 L 1948.1777,253.60007 L 1948.1777,258.2485 L 1928.7363,258.2485 L 1928.7363,273.04147 L 1949.5176,273.04147 L 1949.5176,277.68991 L 1923.2129,277.68991 L 1923.2129,236.86569 M 1976.4785,236.86569 L 1982.002,236.86569 L 1982.002,277.68991 L 1976.4785,277.68991 L 1976.4785,236.86569 M 2017.4668,238.20554 L 2017.4668,243.59225 C 2015.3704,242.58969 2013.3926,241.84229 2011.5332,241.35007 C 2009.6738,240.85792 2007.8782,240.61182 2006.1465,240.61179 C 2003.1387,240.61182 2000.8144,241.19516 1999.1738,242.36179 C 1997.5514,243.52849 1996.7402,245.18734 1996.7402,247.33835 C 1996.7402,249.14306 1997.278,250.51025 1998.3535,251.43991 C 1999.4473,252.35139 2001.5071,253.08968 2004.5332,253.65475 L 2007.8691,254.33835 C 2011.9889,255.12223 2015.0241,256.50764 2016.9746,258.4946 C 2018.9433,260.46337 2019.9277,263.10659 2019.9277,266.42429 C 2019.9277,270.38002 2018.597,273.37872 2015.9355,275.42038 C 2013.2923,277.46205 2009.4095,278.48288 2004.2871,278.48288 C 2002.3548,278.48288 2000.2949,278.26413 1998.1074,277.82663 C 1995.9381,277.38913 1993.6868,276.742 1991.3535,275.88522 L 1991.3535,270.19772 C 1993.5957,271.45554 1995.7923,272.40346 1997.9434,273.04147 C 2000.0944,273.6795 2002.209,273.99851 2004.2871,273.9985 C 2007.4407,273.99851 2009.8743,273.37872 2011.5879,272.13913 C 2013.3014,270.89955 2014.1582,269.13133 2014.1582,266.83444 C 2014.1582,264.82925 2013.5384,263.26154 2012.2988,262.13132 C 2011.0775,261.00113 2009.0631,260.15347 2006.2559,259.58835 L 2002.8926,258.9321 C 1998.7728,258.11181 1995.7923,256.82665 1993.9512,255.07663 C 1992.11,253.32665 1991.1894,250.89306 1991.1895,247.77585 C 1991.1894,244.16651 1992.4564,241.32276 1994.9902,239.2446 C 1997.5423,237.16651 2001.0514,236.12745 2005.5176,236.12741 C 2007.4316,236.12745 2009.3821,236.30063 2011.3691,236.64694 C 2013.3561,236.99334 2015.3886,237.51287 2017.4668,238.20554 M 2051.8926,241.40475 L 2051.8926,273.15085 L 2058.5645,273.15085 C 2064.1972,273.15085 2068.317,271.87481 2070.9238,269.32272 C 2073.5488,266.77065 2074.8613,262.74201 2074.8613,257.23679 C 2074.8613,251.76806 2073.5488,247.76676 2070.9238,245.23288 C 2068.317,242.68083 2064.1972,241.40479 2058.5645,241.40475 L 2051.8926,241.40475 M 2046.3691,236.86569 L 2057.7168,236.86569 C 2065.6282,236.86573 2071.4342,238.51547 2075.1348,241.81491 C 2078.8352,245.09619 2080.6855,250.23681 2080.6855,257.23679 C 2080.6855,264.27326 2078.8261,269.44122 2075.1074,272.74069 C 2071.3886,276.04017 2065.5918,277.68991 2057.7168,277.68991 L 2046.3691,277.68991 L 2046.3691,236.86569 M 2089.4629,236.86569 L 2115.2754,236.86569 L 2115.2754,241.51413 L 2094.9863,241.51413 L 2094.9863,253.60007 L 2114.4277,253.60007 L 2114.4277,258.2485 L 2094.9863,258.2485 L 2094.9863,273.04147 L 2115.7676,273.04147 L 2115.7676,277.68991 L 2089.4629,277.68991 L 2089.4629,236.86569 M 2138.5449,242.3071 L 2131.0527,262.6235 L 2146.0645,262.6235 L 2138.5449,242.3071 M 2135.4277,236.86569 L 2141.6895,236.86569 L 2157.248,277.68991 L 2151.5059,277.68991 L 2147.7871,267.21725 L 2129.3848,267.21725 L 2125.666,277.68991 L 2119.8418,277.68991 L 2135.4277,236.86569 M 2168.7051,241.40475 L 2168.7051,273.15085 L 2175.377,273.15085 C 2181.0097,273.15085 2185.1295,271.87481 2187.7363,269.32272 C 2190.3613,266.77065 2191.6738,262.74201 2191.6738,257.23679 C 2191.6738,251.76806 2190.3613,247.76676 2187.7363,245.23288 C 2185.1295,242.68083 2181.0097,241.40479 2175.377,241.40475 L 2168.7051,241.40475 M 2163.1816,236.86569 L 2174.5293,236.86569 C 2182.4407,236.86573 2188.2467,238.51547 2191.9473,241.81491 C 2195.6477,245.09619 2197.498,250.23681 2197.498,257.23679 C 2197.498,264.27326 2195.6386,269.44122 2191.9199,272.74069 C 2188.2011,276.04017 2182.4043,277.68991 2174.5293,277.68991 L 2163.1816,277.68991 L 2163.1816,236.86569"
       id="text3583"
       style="font-size:56px;font-style:normal;font-weight:normal;fill:none;fill-opacity:1;stroke:#000000;stroke-width:1;stroke-linecap:butt;stroke-linejoin:miter;stroke-miterlimit:4;stroke-dasharray:none;stroke-opacity:1;font-family:Bitstream Vera Sans" />
    <path
       d="M 1644.5806,293.16025 L 1636.0536,316.37778 L 1646.5657,316.37778 C 1650.4559,316.37781 1653.8331,315.37074 1656.6974,313.3566 C 1659.5615,311.34252 1661.6776,308.47309 1663.0457,304.74832 C 1664.4034,301.05123 1664.3899,298.19559 1663.0052,296.18143 C 1661.6203,294.16737 1658.9829,293.16031 1655.0926,293.16025 L 1644.5806,293.16025 M 1638.7437,286.29018 L 1657.6157,286.29018 C 1664.5409,286.29025 1669.1918,287.86291 1671.5682,291.00818 C 1673.9824,294.12598 1674.0799,298.70602 1671.8608,304.74832 C 1669.6214,310.84589 1666.1496,315.45352 1661.4454,318.57123 C 1656.7687,321.689 1650.9678,323.24786 1644.0426,323.24784 L 1633.5305,323.24784 L 1624.4108,348.07942 L 1616.0509,348.07942 L 1638.7437,286.29018 M 1689.8968,286.29018 L 1728.9651,286.29018 L 1726.3812,293.32579 L 1695.6728,293.32579 L 1688.9546,311.61839 L 1718.3801,311.61839 L 1715.7962,318.654 L 1686.3707,318.654 L 1678.1478,341.04381 L 1709.6011,341.04381 L 1707.0172,348.07942 L 1667.204,348.07942 L 1689.8968,286.29018 M 1760.781,319.10925 C 1762.3515,319.71627 1763.6135,321.01303 1764.5669,322.99952 C 1765.5479,324.98607 1766.2553,327.71755 1766.6893,331.19394 L 1768.972,348.07942 L 1759.9913,348.07942 L 1757.9079,332.2286 C 1757.3862,328.09002 1756.4078,325.34475 1754.9731,323.99279 C 1753.5658,322.64088 1751.2067,321.9649 1747.8959,321.96488 L 1738.791,321.96488 L 1729.2001,348.07942 L 1720.8402,348.07942 L 1743.533,286.29018 L 1762.405,286.29018 C 1769.4681,286.29025 1774.1958,287.76634 1776.5881,290.71848 C 1778.9803,293.67073 1779.0819,298.12661 1776.8933,304.08614 C 1775.4644,307.97647 1773.3684,311.20456 1770.6051,313.77046 C 1767.8693,316.33642 1764.5947,318.11602 1760.781,319.10925 M 1749.3699,293.16025 L 1741.3141,315.09481 L 1751.8262,315.09481 C 1755.8544,315.09484 1759.2288,314.17055 1761.9495,312.32195 C 1764.7078,310.44582 1766.7506,307.70056 1768.0781,304.08614 C 1769.4055,300.47182 1769.3689,297.75414 1767.9685,295.93311 C 1766.6056,294.08459 1763.9101,293.16031 1759.8819,293.16025 L 1749.3699,293.16025 M 1802.4666,286.29018 L 1810.8265,286.29018 L 1801.5244,311.61839 L 1831.9017,311.61839 L 1841.2038,286.29018 L 1849.5638,286.29018 L 1826.8709,348.07942 L 1818.511,348.07942 L 1829.3178,318.654 L 1798.9405,318.654 L 1788.1337,348.07942 L 1779.7738,348.07942 L 1802.4666,286.29018 M 1883.8279,294.52599 L 1861.1949,325.27576 L 1883.9158,325.27576 L 1883.8279,294.52599 M 1882.1346,286.29018 L 1891.6119,286.29018 L 1892.4677,348.07942 L 1883.7767,348.07942 L 1883.9696,332.2286 L 1856.1169,332.2286 L 1844.6669,348.07942 L 1835.8517,348.07942 L 1882.1346,286.29018 M 1929.9782,293.16025 L 1921.4513,316.37778 L 1931.9632,316.37778 C 1935.8535,316.37781 1939.2308,315.37074 1942.0949,313.3566 C 1944.9591,311.34252 1947.0752,308.47309 1948.4432,304.74832 C 1949.801,301.05123 1949.7874,298.19559 1948.4027,296.18143 C 1947.018,294.16737 1944.3804,293.16031 1940.4902,293.16025 L 1929.9782,293.16025 M 1924.1413,286.29018 L 1943.0133,286.29018 C 1949.9385,286.29025 1954.5893,287.86291 1956.9659,291.00818 C 1959.3799,294.12598 1959.4774,298.70602 1957.2584,304.74832 C 1955.0189,310.84589 1951.5471,315.45352 1946.843,318.57123 C 1942.1663,321.689 1936.3654,323.24786 1929.4401,323.24784 L 1918.9282,323.24784 L 1909.8085,348.07942 L 1901.4484,348.07942 L 1924.1413,286.29018 M 2011.5901,288.3181 L 2008.5958,296.47112 C 2005.9801,294.95369 2003.4019,293.82248 2000.8614,293.07747 C 1998.3206,292.33258 1995.7397,291.96011 1993.1187,291.96006 C 1988.5662,291.96011 1984.7241,292.84301 1981.5925,294.60876 C 1978.4884,296.37461 1976.3386,298.88536 1975.1429,302.141 C 1974.1397,304.87252 1974.1935,306.94181 1975.3046,308.34889 C 1976.4534,309.72847 1979.1609,310.84589 1983.4268,311.70116 L 1988.0958,312.73581 C 1993.8956,313.92224 1997.7193,316.01913 1999.5671,319.02647 C 2001.4525,322.00629 2001.473,326.00693 1999.6289,331.02841 C 1997.43,337.01558 1993.749,341.55424 1988.5859,344.64438 C 1983.4503,347.73453 1977.0061,349.27961 1969.2531,349.27962 C 1966.3285,349.27961 1963.3324,348.94852 1960.2647,348.28634 C 1957.2246,347.62417 1954.1768,346.6447 1951.1216,345.34795 L 1954.2831,336.73966 C 1956.9775,338.64343 1959.7753,340.07814 1962.6763,341.04381 C 1965.5773,342.00948 1968.6005,342.49232 1971.7458,342.49231 C 1976.519,342.49232 1980.5469,341.55424 1983.8295,339.67807 C 1987.112,337.80192 1989.3917,335.12562 1990.6685,331.64919 C 1991.7831,328.61424 1991.7164,326.24145 1990.4685,324.5308 C 1989.2482,322.82022 1986.6706,321.53724 1982.7358,320.68191 L 1978.0101,319.68865 C 1972.2306,318.4471 1968.4339,316.50196 1966.62,313.85323 C 1964.8061,311.20456 1964.7655,307.52122 1966.4983,302.80318 C 1968.5046,297.34029 1972.0029,293.03615 1976.9932,289.89076 C 1982.011,286.74549 1987.8998,285.17282 1994.6595,285.17277 C 1997.5564,285.17282 2000.4125,285.43493 2003.2273,285.95909 C 2006.0421,286.48338 2008.8297,287.26971 2011.5901,288.3181"
       id="text3587"
       style="font-size:78.65262604px;font-style:normal;font-weight:normal;fill:none;fill-opacity:1;stroke:#000000;stroke-width:1.07763016;stroke-linecap:butt;stroke-linejoin:miter;stroke-miterlimit:4;stroke-dasharray:none;stroke-opacity:1;font-family:Bitstream Vera Sans" />
    <path
       d="M 3146.4549,228.0818 C 3132.6065,223.07166 3124.0016,210.83084 3127.2478,200.75861 C 3130.494,190.68638 3144.3679,186.578 3158.2164,191.58808 C 3172.0649,196.5983 3180.6695,208.83904 3177.4234,218.91134 C 3174.1773,228.98365 3160.3034,233.09187 3146.4549,228.0818 z M 3191.8591,286.0171 C 3195.0522,281.33732 3194.3672,280.8511 3194.3672,280.8511 M 3068.8165,247.30495 C 3061.2832,244.93483 3061.9681,245.42105 3061.9681,245.42105 M 3136.6212,280.54825 C 3135.706,275.9293 3135.706,275.9293 3136.6212,280.54825 z M 3072.7177,290.75985 C 3064.0435,288.57204 3065.1861,291.36774 3065.1861,291.36774 M 3123.5865,229.61805 C 3115.5942,221.96045 3116.0532,227.248 3116.0532,227.248 M 3210.33,251.49582 L 3203.938,248.94348 M 3018.3807,260.12962 L 3021.3494,263.22924 M 3080.2118,212.72317 L 3075.4199,215.27585 M 3183.1454,203.42247 C 3188.1735,216.91467 3196.8493,222.08056 3196.8493,222.08056 M 3099.6053,197.71112 C 3116.7237,197.95395 3133.1513,185.79843 3133.1513,185.79843 M 3171.0434,192.84771 C 3159.6276,185.73716 3155.0631,186.46658 3155.0631,186.46658 M 3169.2273,213.39006 C 3162.6022,200.7487 3160.0911,199.9587 3151.1894,199.59422 M 3162.4053,265.11062 L 3158.0667,261.03879 M 3158.0493,225.30246 C 3139.7897,225.242 3130.1958,209.50109 3130.1958,209.50109 M 3115.8403,258.85153 L 3109.6771,257.45377 M 3034.5927,273.6217 L 3036.1942,281.70487 M 3047.1204,220.98934 L 3042.0983,219.40928 M 2019.2291,286.7034 L 2024.7526,286.7034 L 2024.7526,327.52762 L 2019.2291,327.52762 L 2019.2291,286.7034 M 2053.5729,286.7034 L 2059.0963,286.7034 L 2059.0963,324.68387 C 2059.0963,329.60574 2058.1575,333.17865 2056.2799,335.40262 C 2054.4205,337.62657 2051.4218,338.73854 2047.2838,338.73856 L 2045.1783,338.73856 L 2045.1783,334.09012 L 2046.901,334.09012 C 2049.3437,334.09011 2051.0664,333.40652 2052.069,332.03934 C 2053.0716,330.67215 2053.5729,328.22033 2053.5729,324.68387 L 2053.5729,286.7034 M 2069.4596,286.7034 L 2075.0104,286.7034 L 2075.0104,311.50418 C 2075.0104,315.87919 2075.8033,319.03284 2077.3893,320.96512 C 2078.9752,322.87919 2081.5455,323.83622 2085.1002,323.83621 C 2088.6367,323.83622 2091.1978,322.87919 2092.7838,320.96512 C 2094.3697,319.03284 2095.1627,315.87919 2095.1627,311.50418 L 2095.1627,286.7034 L 2100.7135,286.7034 L 2100.7135,312.18777 C 2100.7135,317.5107 2099.3919,321.53023 2096.7487,324.24637 C 2094.1236,326.96251 2090.2408,328.32059 2085.1002,328.32059 C 2079.9414,328.32059 2076.0403,326.96251 2073.3971,324.24637 C 2070.7721,321.53023 2069.4596,317.5107 2069.4596,312.18777 L 2069.4596,286.7034 M 2135.5768,288.04324 L 2135.5768,293.42996 C 2133.4804,292.42739 2131.5025,291.68 2129.6432,291.18777 C 2127.7838,290.69562 2125.9882,290.44953 2124.2565,290.44949 C 2121.2486,290.44953 2118.9244,291.03286 2117.2838,292.19949 C 2115.6614,293.36619 2114.8502,295.02505 2114.8502,297.17606 C 2114.8502,298.98077 2115.388,300.34796 2116.4635,301.27762 C 2117.5572,302.1891 2119.6171,302.92738 2122.6432,303.49246 L 2125.9791,304.17606 C 2130.0989,304.95993 2133.134,306.34535 2135.0846,308.33231 C 2137.0533,310.30107 2138.0377,312.9443 2138.0377,316.26199 C 2138.0377,320.21773 2136.707,323.21642 2134.0455,325.25809 C 2131.4023,327.29975 2127.5195,328.32059 2122.3971,328.32059 C 2120.4648,328.32059 2118.4049,328.10184 2116.2174,327.66434 C 2114.0481,327.22684 2111.7968,326.5797 2109.4635,325.72293 L 2109.4635,320.03543 C 2111.7057,321.29325 2113.9023,322.24117 2116.0533,322.87918 C 2118.2044,323.51721 2120.319,323.83622 2122.3971,323.83621 C 2125.5507,323.83622 2127.9843,323.21642 2129.6979,321.97684 C 2131.4114,320.73726 2132.2682,318.96903 2132.2682,316.67215 C 2132.2682,314.66695 2131.6484,313.09925 2130.4088,311.96902 C 2129.1874,310.83883 2127.1731,309.99118 2124.3658,309.42606 L 2121.0026,308.76981 C 2116.8828,307.94951 2113.9023,306.66436 2112.0612,304.91434 C 2110.22,303.16436 2109.2994,300.73077 2109.2994,297.61356 C 2109.2994,294.00421 2110.5664,291.16047 2113.1002,289.08231 C 2115.6523,287.00422 2119.1614,285.96516 2123.6276,285.96512 C 2125.5416,285.96516 2127.4921,286.13834 2129.4791,286.48465 C 2131.4661,286.83104 2133.4986,287.35058 2135.5768,288.04324 M 2140.9908,286.7034 L 2175.526,286.7034 L 2175.526,291.35184 L 2161.0338,291.35184 L 2161.0338,327.52762 L 2155.483,327.52762 L 2155.483,291.35184 L 2140.9908,291.35184 L 2140.9908,286.7034 M 2223.1862,288.04324 L 2223.1862,293.42996 C 2221.0898,292.42739 2219.1119,291.68 2217.2526,291.18777 C 2215.3932,290.69562 2213.5976,290.44953 2211.8658,290.44949 C 2208.858,290.44953 2206.5338,291.03286 2204.8932,292.19949 C 2203.2708,293.36619 2202.4596,295.02505 2202.4596,297.17606 C 2202.4596,298.98077 2202.9973,300.34796 2204.0729,301.27762 C 2205.1666,302.1891 2207.2265,302.92738 2210.2526,303.49246 L 2213.5885,304.17606 C 2217.7083,304.95993 2220.7434,306.34535 2222.694,308.33231 C 2224.6627,310.30107 2225.6471,312.9443 2225.6471,316.26199 C 2225.6471,320.21773 2224.3163,323.21642 2221.6549,325.25809 C 2219.0117,327.29975 2215.1288,328.32059 2210.0065,328.32059 C 2208.0742,328.32059 2206.0143,328.10184 2203.8268,327.66434 C 2201.6575,327.22684 2199.4062,326.5797 2197.0729,325.72293 L 2197.0729,320.03543 C 2199.3151,321.29325 2201.5117,322.24117 2203.6627,322.87918 C 2205.8137,323.51721 2207.9283,323.83622 2210.0065,323.83621 C 2213.1601,323.83622 2215.5937,323.21642 2217.3073,321.97684 C 2219.0208,320.73726 2219.8775,318.96903 2219.8776,316.67215 C 2219.8775,314.66695 2219.2577,313.09925 2218.0182,311.96902 C 2216.7968,310.83883 2214.7825,309.99118 2211.9752,309.42606 L 2208.6119,308.76981 C 2204.4921,307.94951 2201.5117,306.66436 2199.6705,304.91434 C 2197.8294,303.16436 2196.9088,300.73077 2196.9088,297.61356 C 2196.9088,294.00421 2198.1757,291.16047 2200.7096,289.08231 C 2203.2617,287.00422 2206.7708,285.96516 2211.2369,285.96512 C 2213.151,285.96516 2215.1015,286.13834 2217.0885,286.48465 C 2219.0755,286.83104 2221.108,287.35058 2223.1862,288.04324 M 2234.2604,286.7034 L 2260.0729,286.7034 L 2260.0729,291.35184 L 2239.7838,291.35184 L 2239.7838,303.43777 L 2259.2252,303.43777 L 2259.2252,308.08621 L 2239.7838,308.08621 L 2239.7838,322.87918 L 2260.5651,322.87918 L 2260.5651,327.52762 L 2234.2604,327.52762 L 2234.2604,286.7034 M 2269.6979,286.7034 L 2295.5104,286.7034 L 2295.5104,291.35184 L 2275.2213,291.35184 L 2275.2213,303.43777 L 2294.6627,303.43777 L 2294.6627,308.08621 L 2275.2213,308.08621 L 2275.2213,322.87918 L 2296.0026,322.87918 L 2296.0026,327.52762 L 2269.6979,327.52762 L 2269.6979,286.7034 M 2317.3033,286.7034 L 2351.8385,286.7034 L 2351.8385,291.35184 L 2337.3463,291.35184 L 2337.3463,327.52762 L 2331.7955,327.52762 L 2331.7955,291.35184 L 2317.3033,291.35184 L 2317.3033,286.7034 M 2357.1979,286.7034 L 2362.7213,286.7034 L 2362.7213,303.43777 L 2382.7916,303.43777 L 2382.7916,286.7034 L 2388.3151,286.7034 L 2388.3151,327.52762 L 2382.7916,327.52762 L 2382.7916,308.08621 L 2362.7213,308.08621 L 2362.7213,327.52762 L 2357.1979,327.52762 L 2357.1979,286.7034 M 2399.3073,286.7034 L 2425.1198,286.7034 L 2425.1198,291.35184 L 2404.8307,291.35184 L 2404.8307,303.43777 L 2424.2721,303.43777 L 2424.2721,308.08621 L 2404.8307,308.08621 L 2404.8307,322.87918 L 2425.6119,322.87918 L 2425.6119,327.52762 L 2399.3073,327.52762 L 2399.3073,286.7034 M 2434.7448,286.7034 L 2442.9752,286.7034 L 2453.3932,314.48465 L 2463.8658,286.7034 L 2472.0963,286.7034 L 2472.0963,327.52762 L 2466.7096,327.52762 L 2466.7096,291.67996 L 2456.1823,319.67996 L 2450.6315,319.67996 L 2440.1041,291.67996 L 2440.1041,327.52762 L 2434.7448,327.52762 L 2434.7448,286.7034 M 2500.9166,286.7034 L 2506.4401,286.7034 L 2506.4401,327.52762 L 2500.9166,327.52762 L 2500.9166,286.7034 M 2517.4323,286.7034 L 2524.8698,286.7034 L 2542.9713,320.85574 L 2542.9713,286.7034 L 2548.3307,286.7034 L 2548.3307,327.52762 L 2540.8932,327.52762 L 2522.7916,293.37527 L 2522.7916,327.52762 L 2517.4323,327.52762 L 2517.4323,286.7034 M 2577.151,286.7034 L 2585.3815,286.7034 L 2595.7994,314.48465 L 2606.2721,286.7034 L 2614.5026,286.7034 L 2614.5026,327.52762 L 2609.1158,327.52762 L 2609.1158,291.67996 L 2598.5885,319.67996 L 2593.0377,319.67996 L 2582.5104,291.67996 L 2582.5104,327.52762 L 2577.151,327.52762 L 2577.151,286.7034 M 2619.8893,286.7034 L 2625.8229,286.7034 L 2637.1432,303.49246 L 2648.3815,286.7034 L 2654.3151,286.7034 L 2639.8776,308.08621 L 2639.8776,327.52762 L 2634.3268,327.52762 L 2634.3268,308.08621 L 2619.8893,286.7034 M 2768.7487,292.14481 L 2761.2565,312.46121 L 2776.2682,312.46121 L 2768.7487,292.14481 M 2798.9088,291.24246 L 2798.9088,322.98856 L 2805.5807,322.98856 C 2811.2135,322.98856 2815.3333,321.71252 2817.9401,319.16043 C 2820.565,316.60836 2821.8775,312.57972 2821.8776,307.07449 C 2821.8775,301.60577 2820.565,297.60447 2817.9401,295.07059 C 2815.3333,292.51854 2811.2135,291.2425 2805.5807,291.24246 L 2798.9088,291.24246 M 2677.5573,286.7034 L 2683.0807,286.7034 L 2683.0807,303.43777 L 2703.151,303.43777 C 2701.8281,285.70125 2694.141,284.56576 2704.2857,270 C 2714.3468,255.55424 2981.0412,297.17588 3001.7842,267.40355 C 3022.5272,237.63122 3011.0492,237.34145 3019.9606,223.54239 C 3028.7316,209.9605 3039.5601,206.29813 3053.9705,190.92008 C 3063.4966,180.75439 3073.3507,169.86109 3096.8714,175.00212 C 3112.1189,178.33482 3127.8138,173.07843 3143.2536,176.65303 C 3158.6934,180.2274 3176.0926,183.53135 3187.7071,196.73706 C 3198.9841,209.55901 3212.9657,218.75025 3221.616,232.27513 C 3230.2665,245.80009 3230.7839,269.09367 3239.2479,276.06189 C 3247.7119,283.03011 3767.869,276.06189 3767.869,276.06189 C 3767.869,276.06189 3474.9246,353.45135 3368.8587,332.23815 C 3262.7928,311.02495 3075.016,317.44087 2990.3956,333.67296 C 2905.7752,349.90505 2830.2795,296.269 2827.7018,307.07449 C 2825.2046,317.54237 2825.8424,319.27893 2822.1237,322.5784 C 2818.4049,325.87788 2812.608,327.52762 2804.733,327.52762 L 2793.3854,327.52762 C 2793.3854,327.52762 2800.6023,294.04511 2791.2425,285.63197 C 2786.9188,281.74552 2782.5582,280.75532 2779.3932,285.63197 C 2772.2579,296.62604 2787.4518,327.52762 2787.4518,327.52762 L 2781.7096,327.52762 L 2777.9908,317.05496 L 2759.5885,317.05496 L 2755.8698,327.52762 L 2750.0455,327.52762 C 2750.0455,327.52762 2763.5707,291.42059 2757.2387,284.91768 C 2750.1116,277.5983 2725.5912,277.78541 2725.1901,303.43777 L 2744.6315,303.43777 L 2744.6315,308.08621 L 2725.1901,308.08621 L 2725.1901,322.87918 L 2745.9713,322.87918 L 2745.9713,327.52762 L 2719.6666,327.52762 C 2719.6666,327.52762 2723.847,287.91339 2718.5952,284.2034 C 2717.0005,283.07691 2713.515,284.14838 2712.2458,285.63197 C 2707.1685,291.56676 2708.6744,327.52762 2708.6744,327.52762 L 2703.151,327.52762 L 2703.151,308.08621 L 2683.0807,308.08621 L 2683.0807,327.52762 L 2677.5573,327.52762 L 2677.5573,286.7034"
       id="path3602"
       style="fill:none;fill-opacity:1;stroke:#000000;stroke-width:1.11465371;stroke-linejoin:round;stroke-miterlimit:4;stroke-dasharray:none;stroke-opacity:1" />
    <path
       d="M 4011.4286,294.28572 L 3808.5714,497.14286 L 3768.6216,457.09274 L 3760,588.57143 L 3882.8571,579.94988 L 3848.5714,540 L 4057.1429,337.14286 L 4011.4286,294.28572 z"
       id="path3648"
       style="fill:none;fill-rule:evenodd;stroke:#000000;stroke-width:1px;stroke-linecap:butt;stroke-linejoin:miter;stroke-opacity:1" />
    <path
       d="M 3711.4286,694.28572 C 3642.8571,644.28572 3302.8571,694.28571 3248.5714,740 C 3194.2857,785.71428 3508.5714,934.28571 3571.4285,897.14285 C 3634.2857,860 3781.385,745.29563 3711.4286,694.28572 z"
       id="path3650"
       style="fill:none;fill-rule:evenodd;stroke:#000000;stroke-width:1px;stroke-linecap:butt;stroke-linejoin:miter;stroke-opacity:1" />
    <path
       d="M 2765.7143,671.42857 L 2977.1429,671.42857 C 2977.1429,671.42857 2460,1017.1428 2737.1429,994.2857 C 3014.2858,971.4285 2768.5715,671.42857 2765.7143,671.42857 z"
       id="path3652"
       style="fill:none;fill-rule:evenodd;stroke:#000000;stroke-width:1px;stroke-linecap:butt;stroke-linejoin:miter;stroke-opacity:1" />
    <path
       d="M 2485.4671,630.11265 L 2485.4671,762.23536 L 2400.3625,855.48418 L 2315.2579,762.23536 L 2315.2579,630.11265 L 2485.4671,630.11265 z M 2315.5129,762.95446 L 2483.0355,761.32803 M 2327.9822,631.10255 L 2327.9822,740.61575 C 2327.9822,740.61575 2382.7387,735.73646 2383.2809,737.90503 C 2383.8231,740.07361 2383.8231,630.56045 2383.8231,630.56045 M 2412.5567,734.11002 L 2412.5567,689.65419 L 2458.0969,689.65419 L 2457.0126,736.82074 L 2412.5567,734.11002 z M 2336.1144,631.64475 L 2335.0301,729.77287 M 2375.1487,730.31501 L 2376.233,631.64475 M 2347.4994,729.77287 L 2348.5836,631.10255 M 2351.8366,730.31501 L 2351.8366,678.26916 M 2360.5108,726.52 L 2362.6795,631.64475 M 2368.643,685.85918 L 2368.643,641.94545 M 2432.0739,735.19432 L 2432.616,689.65419 M 2412.5567,714.59283 L 2458.0969,713.50854 M 2332.8571,782.85714 L 2331.4286,832.85714 L 2348.5714,832.85714 L 2350,798.57143"
       id="path3654"
       style="fill:none;fill-rule:evenodd;stroke:#000000;stroke-width:0.75900209px;stroke-linecap:butt;stroke-linejoin:miter;stroke-opacity:1" />
    <path
       d="M 2334.2857,832.85714 C 2334.2857,882.85714 2300,882.14286 2281.4286,912.14286 C 2262.8571,942.14286 2237.1429,952.14286 2237.1429,952.14286"
       id="path3707"
       style="fill:none;fill-rule:evenodd;stroke:#000000;stroke-width:1px;stroke-linecap:butt;stroke-linejoin:miter;stroke-opacity:1" />
    <path
       d="M 2343.5714,834.28571 C 2345.7143,899.28571 2317.7369,881.61093 2315.7143,920.71428 C 2313.5714,962.14286 2295.7143,1007.1429 2295.7143,1007.1429"
       id="path3709"
       style="fill:none;fill-rule:evenodd;stroke:#000000;stroke-width:1px;stroke-linecap:butt;stroke-linejoin:miter;stroke-opacity:1" />
    <path
       d="M 2240.7143,965 C 2285,938.57143 2290.7143,911.42857 2297.1429,913.57143 C 2303.5714,915.71428 2257.1429,981.42857 2256.4286,1015"
       id="path3711"
       style="fill:none;fill-rule:evenodd;stroke:#000000;stroke-width:1px;stroke-linecap:butt;stroke-linejoin:miter;stroke-opacity:1" />
  </g>
  <path
     d="M 2028.7433,648.61854 L 1793.672,648.61854 C 1804.9546,647.95235 1783.4724,649.78551 1780.8298,650.02413 M 1793.672,591.80036 L 2028.7433,591.80036 M 1793.672,609.62567 L 2028.7433,609.62567 M 1793.672,630.79323 L 2028.7433,630.79323 M 1793.672,666.44385 L 2028.7433,666.44385 M 1793.672,684.26916 L 2028.7433,684.26916 M 1793.672,704.32264 L 2028.7433,704.32264 M 1793.672,722.14795 L 2028.7433,722.14795 M 1793.672,743.31551 L 2028.7433,743.31551 M 1793.672,761.14082 L 2028.7433,761.14082 M 1793.672,778.96613 L 2028.7433,778.96613 M 1793.672,796.79144 L 2028.7433,796.79144 M 1708.868,698.06395 C 1693.3793,714.18869 1673.6744,731.33721 1673.6744,731.33721 C 1673.6744,731.33721 1667.6703,721.46169 1669.1136,717.50514 C 1670.557,713.54858 1685.1509,694.19806 1687.3362,692.13064 C 1694.5156,685.3385 1712.5045,693.19696 1708.868,698.06395 z M 1672.544,730.92482 C 1658.9499,754.14511 1665.5797,755.28274 1663.1516,767.20575 C 1660.7235,779.12878 1642.9277,789.28842 1640.2011,791.49597 C 1637.4745,793.70351 1602.441,821.27119 1596.2163,826.04533 C 1589.9917,830.81947 1579.3909,842.32292 1573.9377,846.73801 C 1568.4845,851.15312 1528.2255,861.44407 1524.9336,863.44543 C 1521.6418,865.44678 1499.1109,881.56434 1493.9705,881.6105 C 1488.8302,881.65666 1483.2169,891.77734 1477.4047,895.42102 C 1471.5924,899.06471 1462.6484,899.00418 1451.0238,906.29156 C 1439.3993,913.57892 1431.5252,922.87483 1425.1405,933.35454 C 1418.7559,943.83424 1414.5182,965.9846 1410.6007,976.72383 M 1710.0518,696.57446 C 1704.9791,680.63436 1689.6186,671.82879 1672.8004,681.06417 C 1655.9822,690.29957 1643.494,687.66527 1633.0994,698.60352 C 1622.7049,709.54175 1609.7365,724.02418 1609.1641,730.86018 C 1608.5917,737.6962 1591.8341,737.98753 1590.9026,744.05214 C 1589.9712,750.11674 1573.1602,752.30992 1570.2202,762.1249 C 1567.2802,771.93986 1555.9224,769.71796 1552.4316,765.24234 C 1548.9408,760.76672 1542.0052,756.95582 1543.349,749.76078 C 1544.6928,742.56573 1536.2894,716.44444 1536.2894,716.44444 M 1531.384,687.75657 L 1535.042,679.4844 C 1535.042,679.4844 1556.0691,676.26747 1564.5157,660.13554 C 1569.8089,661.42601 1591.2022,651.93828 1600.772,643.26092 C 1610.3418,634.58359 1615.6422,628.83185 1615.6422,628.83185 C 1615.6422,628.83185 1630.8498,636.30079 1638.6101,637.8508 C 1646.3704,639.40079 1664.8771,637.82618 1664.8771,637.82618 C 1664.8771,637.82618 1673.5011,649.29784 1685.4702,656.86628 C 1697.4394,664.43474 1730.13,666.11296 1734.7051,665.86061 C 1755.7394,655.60146 1746.4969,645.82548 1746.4969,645.82548 C 1746.4969,645.82548 1753.2334,643.15939 1745.9316,645.61929 C 1738.6299,648.07919 1716.5934,632.99563 1714.233,628.9324 C 1711.8726,624.86914 1705.41,610.98375 1698.1688,604.49958 C 1690.9276,598.01543 1626.7517,572.04288 1620.6871,571.11143 C 1614.6225,570.17999 1593.0302,573.19075 1581.9709,580.68431 C 1570.9116,588.17786 1513.0168,602.92289 1505.4022,609.75173 C 1497.7876,616.58056 1455.3743,622.24304 1447.7597,629.07187 C 1440.1451,635.9007 1434.9976,642.98906 1433.5009,648.84748 C 1432.0043,654.7059 1423.1987,670.0664 1423.1987,670.0664 M 1711.2079,621.42446 C 1751.5449,635.49862 1746.9092,644.69503 1746.9092,644.69503 M 1605.8846,569.55425 C 1574.9041,554.41018 1564.6552,573.72725 1556.0168,576.33999 C 1547.3785,578.95273 1511.6945,588.99133 1503.9804,592.58167 C 1496.2663,596.17202 1460.6286,611.35096 1456.2596,611.03809 C 1451.8907,610.72522 1426.2885,614.19451 1419.5981,622.00095 C 1412.9078,629.80738 1410.2273,637.15526 1408.1654,642.8075 C 1406.1035,648.45972 1388.1867,676.50749 1388.1867,676.50749 M 1565.9457,568.43406 C 1524.6988,539.2979 1500.4506,575.92351 1491.1403,582.13378 C 1481.83,588.34403 1462.751,596.75467 1452.1041,603.11778 C 1441.4571,609.48089 1427.7779,615.3783 1415.4354,621.12284 C 1403.0928,626.86739 1392.2397,633.79573 1389.2997,643.61071 C 1386.3597,653.42568 1373.8428,678.9602 1373.8428,678.9602 M 1505.0863,566.7271 C 1468.4001,551.42299 1471.1195,556.25765 1460.6255,563.95739 C 1450.1314,571.65716 1425.2862,588.85182 1419.5202,597.63584 C 1413.754,606.41988 1399.0367,622.18559 1391.8345,627.88398 C 1384.6323,633.58236 1371.7634,651.30326 1367.8459,662.0425 C 1363.9283,672.78173 1338.3825,721.74273 1338.3825,721.74273 M 1320.1456,761.20164 C 1298.9153,812.37738 1283.878,839.55422 1282.1218,847.87972 C 1280.3656,856.20521 1276.9455,883.13689 1273.0279,893.87612 C 1269.1104,904.61535 1258.9538,934.21314 1258.9538,934.21314 M 1722.6149,676.18029 C 1737.403,691.82188 1723.891,684.97151 1721.6301,684.14675 C 1719.3692,683.322 1716.497,677.15071 1716.497,677.15071 M 1729.7494,686.46815 C 1735.2201,715.36223 1702.3838,705.30515 1702.3838,705.30515 M 1649.6335,665.56825 C 1643.9351,658.36601 1643.0108,657.38843 1643.0108,657.38843 C 1643.0108,657.38843 1647.0408,654.96015 1643.0108,657.38843 C 1626.609,667.2715 1604.4229,642.03098 1604.4229,642.03098 M 1623.7358,706.71565 C 1616.8536,701.00289 1616.8536,701.00289 1616.8536,701.00289 M 1606.6017,672.9264 C 1606.4263,663.59505 1607.5797,659.8207 1607.5403,659.81959 C 1591.4405,665.89832 1585.7452,654.39118 1585.8023,654.45151 C 1586.2317,691.85831 1558.1773,670.83377 1558.131,670.61524 M 1582.6028,666.73357 C 1577.523,657.83567 1579.4782,655.98715 1579.4782,655.98715 M 1636.4805,659.48928 C 1640.6361,667.40959 1638.5814,666.01961 1638.5814,666.01961 M 1747.8868,643.77078 C 1747.8868,643.77078 1754.4552,645.42792 1793.0042,648.60281 C 1747.6971,669.22063 1740.2507,671.72622 1740.2507,671.72622 C 1702.153,679.60342 1697.3717,680.42099 1697.3717,680.42099 M 1746.9872,669.06013 C 1758.4589,660.43612 1743.3435,663.24787 1743.3435,663.24787 C 1760.3679,653.44726 1747.9792,654.05146 1747.9792,654.05146 M 1633.1528,696.70166 L 1299.5308,763.28815 M 1687.884,659.02767 L 1295.5497,735.57787 M 1661.2508,665.32308 L 1664.0236,668.25587 L 1664.8873,678.17754 L 1662.4131,684.96021 M 1663.5507,678.33039 L 1299.3852,754.90931 M 1788.2213,647.75708 C 1787.4365,648.59158 1783.2951,652.04421 1783.2951,652.04421 M 1791.5362,648.32589 L 1781.3968,648.46976 M 1788.1297,649.32478 L 1781.8305,651.67003 M 1299.7442,755.68071 L 1296.0862,763.95287 L 1291.2053,761.53195 L 1288.1341,748.88368 L 1288.5536,740.71102 L 1294.7783,735.9369 L 1298.3153,745.55286 L 1299.7442,755.68071 z"
     id="path2406"
     style="fill:none;fill-rule:evenodd;stroke:#000000;stroke-width:1px;stroke-linecap:butt;stroke-linejoin:miter;stroke-opacity:1" />
  <path
     d="M 1558.2189,525.28532 L 1547.581,501.36662 L 1521.8466,496.56993 L 1541.3074,479.06146 L 1537.917,453.10432 L 1560.5822,466.2022 L 1584.2212,454.95649 L 1578.7683,480.5599 L 1596.7685,499.5668 L 1570.7332,502.2927 L 1558.2189,525.28532 z"
     id="path2454"
     style="fill:none;fill-opacity:1;stroke:#000000;stroke-width:1;stroke-linejoin:round;stroke-miterlimit:4;stroke-opacity:1" />
</svg>
