# Made in Blockbench 4.12.4
mtllib mcl_heads_wall_piglin.mtl

o cube
v -0.3125 -0.5 -0.24999999999999994
v -0.3125 -0.49999999999999994 0.25000000000000006
v -0.3125 5.551115123125783e-17 0.24999999999999994
v -0.3125 -5.551115123125783e-17 -0.25
v 0.3125 5.551115123125783e-17 0.24999999999999994
v 0.3125 -5.551115123125783e-17 -0.25
v 0.3125 -0.49999999999999994 0.25000000000000006
v 0.3125 -0.5 -0.24999999999999994
vt 0.12502124999999997 0.7489812499999999
vt 0.12502124999999997 0.8740234375
vt 0 0.8740234375
vt 0 0.7489812499999999
vt 0.28125 0.7489812499999999
vt 0.28125 0.8740234375
vt 0.12497875 0.8740234375
vt 0.12497875 0.7489812499999999
vt 0.4062709375 0.7489812499999999
vt 0.4062709375 0.8740234375
vt 0.28125 0.8740234375
vt 0.28125 0.7489812499999999
vt 0.5625421875000001 0.7489812499999999
vt 0.5625421875000001 0.8740234375
vt 0.40627125 0.8740234375
vt 0.40627125 0.7489812499999999
vt 0.43752125 0.8740234375
vt 0.43752125 0.99906578125
vt 0.28125 0.99906578125
vt 0.28125 0.8740234375
vt 0.12497875000000003 0.8740234375
vt 0.28125 0.8740234375
vt 0.28125 0.99906578125
vt 0.12497875000000003 0.99906578125
vn -1 0 0
vn 0 1 -2.220446049250313e-16
vn 1 0 0
vn 0 -1 2.220446049250313e-16
vn 0 -2.220446049250313e-16 -1
vn 0 2.220446049250313e-16 1
usemtl m_a9c6a1f3-57b1-e2cd-5da7-8275b8fd36ae
f 1/1/1 2/2/1 3/3/1 4/4/1
f 4/5/2 3/6/2 5/7/2 6/8/2
f 6/9/3 5/10/3 7/11/3 8/12/3
f 8/13/4 7/14/4 2/15/4 1/16/4
f 4/17/5 6/18/5 8/19/5 1/20/5
f 5/21/6 3/22/6 2/23/6 7/24/6
o cube
v -0.125 -2.7755575615628914e-17 -0.1250000000000001
v -0.125 0.06249999999999997 -0.1250000000000001
v -0.125 -5.551115123125783e-17 -0.2500000000000001
v -0.125 0.062499999999999944 -0.2500000000000001
v -0.1875 -2.7755575615628914e-17 -0.1250000000000001
v -0.1875 0.06249999999999997 -0.1250000000000001
v -0.1875 -5.551115123125783e-17 -0.2500000000000001
v -0.1875 0.062499999999999944 -0.2500000000000001
v 0.125 0 -1.1102230246251565e-16
v 0.125 0.0625 -1.1102230246251565e-16
v 0.125 -5.551115123125783e-17 -0.2500000000000001
v 0.125 0.062499999999999944 -0.2500000000000001
v -0.125 0 -1.1102230246251565e-16
v -0.125 0.0625 -1.1102230246251565e-16
v -0.125 -5.551115123125783e-17 -0.2500000000000001
v -0.125 0.062499999999999944 -0.2500000000000001
v 0.1875 -2.7755575615628914e-17 -0.1250000000000001
v 0.1875 0.06249999999999997 -0.1250000000000001
v 0.1875 -5.551115123125783e-17 -0.2500000000000001
v 0.1875 0.062499999999999944 -0.2500000000000001
v 0.125 -2.7755575615628914e-17 -0.1250000000000001
v 0.125 0.06249999999999997 -0.1250000000000001
v 0.125 -5.551115123125783e-17 -0.2500000000000001
v 0.125 0.062499999999999944 -0.2500000000000001
vt 0.015625 0.96875
vt 0.015625 1
vt 0 1
vt 0 0.96875
vt 0.09375 0.953125
vt 0.09375 0.984375
vt 0.078125 0.984375
vt 0.078125 0.953125
vt 0.078125 0.984375
vt 0.078125 1
vt 0.0625 1
vt 0.0625 0.984375
vt 0.09375 0.953125
vt 0.09375 0.96875
vt 0.078125 0.96875
vt 0.078125 0.953125
vt 0.015625 0.96875
vt 0.015625 1
vt 0 1
vt 0 0.96875
vt 0.078125 0.953125
vt 0.078125 0.984375
vt 0.0625 0.984375
vt 0.0625 0.953125
vt 0.5 0.90625
vt 0.5 0.96875
vt 0.484375 0.96875
vt 0.484375 0.90625
vt 0.578125 0.90625
vt 0.578125 0.96875
vt 0.5625 0.96875
vt 0.5625 0.90625
vt 0.5625 0.96875
vt 0.5625 0.984375
vt 0.5 0.984375
vt 0.5 0.96875
vt 0.5625 0.90625
vt 0.5625 0.921875
vt 0.5 0.921875
vt 0.5 0.90625
vt 0.015625 0.9375
vt 0.015625 1
vt 0 1
vt 0 0.9375
vt 0.5625 0.90625
vt 0.5625 0.96875
vt 0.5 0.96875
vt 0.5 0.90625
vt 0.0625 0.953125
vt 0.0625 0.984375
vt 0.046875 0.984375
vt 0.046875 0.953125
vt 0.015625 0.96875
vt 0.015625 1
vt 0 1
vt 0 0.96875
vt 0.0625 0.984375
vt 0.0625 1
vt 0.046875 1
vt 0.046875 0.984375
vt 0.046875 0.953125
vt 0.046875 0.96875
vt 0.03125 0.96875
vt 0.03125 0.953125
vt 0.015625 0.96875
vt 0.015625 1
vt 0 1
vt 0 0.96875
vt 0.046875 0.953125
vt 0.046875 0.984375
vt 0.03125 0.984375
vt 0.03125 0.953125
vn 1 0 0
vn -1 0 0
vn 0 2.220446049250313e-16 1
vn 0 -2.220446049250313e-16 -1
vn 0 -1 2.220446049250313e-16
vn 0 1 -2.220446049250313e-16
vn 1 0 0
vn -1 0 0
vn 0 2.220446049250313e-16 1
vn 0 -2.220446049250313e-16 -1
vn 0 -1 2.220446049250313e-16
vn 0 1 -2.220446049250313e-16
vn 1 0 0
vn -1 0 0
vn 0 2.220446049250313e-16 1
vn 0 -2.220446049250313e-16 -1
vn 0 -1 2.220446049250313e-16
vn 0 1 -2.220446049250313e-16
usemtl m_a9c6a1f3-57b1-e2cd-5da7-8275b8fd36ae
f 12/25/7 10/26/7 9/27/7 11/28/7
f 15/29/8 13/30/8 14/31/8 16/32/8
f 9/33/9 10/34/9 14/35/9 13/36/9
f 12/37/10 11/38/10 15/39/10 16/40/10
f 11/41/11 9/42/11 13/43/11 15/44/11
f 16/45/12 14/46/12 10/47/12 12/48/12
f 20/49/13 18/50/13 17/51/13 19/52/13
f 23/53/14 21/54/14 22/55/14 24/56/14
f 17/57/15 18/58/15 22/59/15 21/60/15
f 20/61/16 19/62/16 23/63/16 24/64/16
f 19/65/17 17/66/17 21/67/17 23/68/17
f 24/69/18 22/70/18 18/71/18 20/72/18
f 28/73/19 26/74/19 25/75/19 27/76/19
f 31/77/20 29/78/20 30/79/20 32/80/20
f 25/81/21 26/82/21 30/83/21 29/84/21
f 28/85/22 27/86/22 31/87/22 32/88/22
f 27/89/23 25/90/23 29/91/23 31/92/23
f 32/93/24 30/94/24 26/95/24 28/96/24
o cube
v -0.30558132978446356 -0.375 0.15947622890575353
v -0.30558132978446356 -0.12499999999999997 0.15947622890575347
v -0.25770355208952744 -0.375 0.11930200330034484
v -0.25770355208952744 -0.12499999999999997 0.11930200330034478
v -0.506452457811507 -0.375 -0.07991265956892708
v -0.506452457811507 -0.12500000000000003 -0.07991265956892714
v -0.45857468011657093 -0.375 -0.1200868851743358
v -0.45857468011657093 -0.12500000000000003 -0.12008688517433586
v 0.5064524578115072 -0.375 -0.07991265956892711
v 0.5064524578115072 -0.12500000000000003 -0.07991265956892717
v 0.458574680116571 -0.375 -0.12008688517433591
v 0.458574680116571 -0.12500000000000003 -0.12008688517433597
v 0.3055813297844636 -0.375 0.15947622890575353
v 0.3055813297844636 -0.12499999999999997 0.15947622890575347
v 0.25770355208952744 -0.375 0.11930200330034481
v 0.25770355208952744 -0.12499999999999997 0.11930200330034475
vt 0.859375 0.84375
vt 0.875 0.84375
vt 0.875 0.90625
vt 0.859375 0.90625
vt 0.875 0.84375
vt 0.890625 0.84375
vt 0.890625 0.90625
vt 0.875 0.90625
vt 0.796875 0.84375
vt 0.859375 0.84375
vt 0.859375 0.765625
vt 0.796875 0.765625
vt 0.9375 0.84375
vt 0.875 0.84375
vt 0.875 0.765625
vt 0.9375 0.765625
vt 0.859375 0.84375
vt 0.875 0.84375
vt 0.875 0.765625
vt 0.859375 0.765625
vt 0.9375 0.765625
vt 0.953125 0.765625
vt 0.953125 0.84375
vt 0.9375 0.84375
vt 0.6875 0.84375
vt 0.703125 0.84375
vt 0.703125 0.90625
vt 0.6875 0.90625
vt 0.671875 0.84375
vt 0.6875 0.84375
vt 0.6875 0.90625
vt 0.671875 0.90625
vt 0.609375 0.765625
vt 0.671875 0.765625
vt 0.671875 0.84375
vt 0.609375 0.84375
vt 0.6875 0.765625
vt 0.75 0.765625
vt 0.75 0.84375
vt 0.6875 0.84375
vt 0.75 0.765625
vt 0.765625 0.765625
vt 0.765625 0.84375
vt 0.75 0.84375
vt 0.6875 0.84375
vt 0.671875 0.84375
vt 0.671875 0.765625
vt 0.6875 0.765625
vn 0.6427876096865393 1.700960357273691e-16 0.766044443118978
vn -0.6427876096865393 -1.700960357273691e-16 -0.766044443118978
vn -0.766044443118978 1.4272752084355284e-16 0.6427876096865393
vn 0.766044443118978 -1.4272752084355284e-16 -0.6427876096865393
vn 0 -1 2.220446049250313e-16
vn 0 1 -2.220446049250313e-16
vn 0.6427876096865397 -1.7009603572736902e-16 -0.7660444431189777
vn -0.6427876096865391 1.7009603572736917e-16 0.7660444431189783
vn 0.7660444431189782 1.4272752084355284e-16 0.6427876096865393
vn -0.7660444431189781 -1.4272752084355289e-16 -0.6427876096865395
vn 0 -1 2.220446049250313e-16
vn 0 1 -2.220446049250313e-16
usemtl m_a9c6a1f3-57b1-e2cd-5da7-8275b8fd36ae
f 36/97/25 34/98/25 33/99/25 35/100/25
f 39/101/26 37/102/26 38/103/26 40/104/26
f 33/105/27 34/106/27 38/107/27 37/108/27
f 36/109/28 35/110/28 39/111/28 40/112/28
f 35/113/29 33/114/29 37/115/29 39/116/29
f 40/117/30 38/118/30 34/119/30 36/120/30
f 44/121/31 42/122/31 41/123/31 43/124/31
f 47/125/32 45/126/32 46/127/32 48/128/32
f 41/129/33 42/130/33 46/131/33 45/132/33
f 44/133/34 43/134/34 47/135/34 48/136/34
f 43/137/35 41/138/35 45/139/35 47/140/35
f 48/141/36 46/142/36 42/143/36 44/144/36