# Blender v3.0.0 OBJ File: ''
# www.blender.org
mtllib mcl_shield.mtl
o Cube.002_Cube.003
v 4.663009 11.096291 6.387994
v 4.663009 4.596560 5.241916
v 5.213008 4.596560 5.241916
v 5.213008 11.096291 6.387994
v 5.213007 13.197435 -5.528180
v 5.213007 6.697705 -6.674258
v 4.663008 6.697705 -6.674258
v 4.663008 13.197435 -5.528180
v 4.663008 8.641873 -1.863572
v 4.663008 8.068833 1.386293
v 1.363008 8.068833 1.386294
v 1.363008 8.641873 -1.863572
v 1.363008 9.152122 1.577307
v 1.363008 9.725162 -1.672559
v 4.663008 9.152122 1.577306
v 4.663008 9.725162 -1.672559
vt 0.015625 0.984375
vt 0.203125 0.984375
vt 0.203125 1.000000
vt 0.015625 1.000000
vt 0.203125 0.640625
vt 0.203125 0.984375
vt 0.015625 0.984375
vt 0.015625 0.640625
vt 0.015625 0.984375
vt 0.015625 0.640625
vt -0.000000 0.640625
vt -0.000000 0.984375
vt 0.203125 0.984375
vt 0.390625 0.984375
vt 0.390625 1.000000
vt 0.203125 1.000000
vt 0.203125 0.984375
vt 0.203125 0.640625
vt 0.218750 0.640625
vt 0.218750 0.984375
vt 0.406250 0.640625
vt 0.406250 0.984375
vt 0.218750 0.984375
vt 0.218750 0.640625
vt 0.531250 0.812500
vt 0.625000 0.812500
vt 0.625000 0.906250
vt 0.531250 0.906250
vt 0.500000 0.906250
vt 0.500000 0.812500
vt 0.531250 0.812500
vt 0.531250 0.906250
vt 0.406250 0.812500
vt 0.500000 0.812500
vt 0.500000 0.906250
vt 0.406250 0.906250
vt 0.625000 0.812500
vt 0.656250 0.812500
vt 0.656250 0.906250
vt 0.625000 0.906250
vt 0.562500 1.000000
vt 0.531250 1.000000
vt 0.531250 0.906250
vt 0.562500 0.906250
vt 0.531250 1.000000
vt 0.500000 1.000000
vt 0.500000 0.906250
vt 0.531250 0.906250
vn 0.0000 -0.1736 0.9848
vn 1.0000 0.0000 -0.0000
vn 0.0000 -0.9848 -0.1736
vn 0.0000 0.1736 -0.9848
vn 0.0000 0.9848 0.1736
vn -1.0000 -0.0000 0.0000
usemtl Material.002
s 1
f 1/1/1 2/2/1 3/3/1 4/4/1
f 5/5/2 4/6/2 3/7/2 6/8/2
f 6/9/3 3/10/3 2/11/3 7/12/3
f 7/13/4 8/14/4 5/15/4 6/16/4
f 8/17/5 1/18/5 4/19/5 5/20/5
f 7/21/6 2/22/6 1/23/6 8/24/6
f 9/25/3 10/26/3 11/27/3 12/28/3
f 12/29/6 11/30/6 13/31/6 14/32/6
f 14/33/5 13/34/5 15/35/5 16/36/5
f 16/37/2 15/38/2 10/39/2 9/40/2
f 12/41/4 14/42/4 16/43/4 9/44/4
f 13/45/1 11/46/1 10/47/1 15/48/1
