# Blender v2.93.5 OBJ File: ''
# www.blender.org
mtllib head.mtl
o head
v -2.100000 -2.100004 2.099999
v 2.100000 2.099997 -2.100001
v 2.100000 2.099997 2.099999
v 2.300000 -2.300003 -2.300001
v 2.300000 2.299997 2.299999
v 2.100000 -2.100004 2.099999
v 2.100000 -2.100004 -2.100001
v -2.100000 2.099997 2.099999
v -2.100000 2.099997 -2.100001
v -2.100000 -2.100004 -2.100001
v 2.300000 2.299997 -2.300001
v 2.300000 -2.300003 2.299999
v -2.300000 2.299997 2.299999
v -2.300000 -2.300003 2.299999
v -2.300000 2.299997 -2.300001
v -2.300000 -2.300003 -2.300001
vt 0.500000 0.750000
vt 0.375000 0.750000
vt 0.375000 0.500000
vt 0.500000 0.500000
vt 0.250000 0.750000
vt 0.250000 0.500000
vt 0.125000 0.750000
vt 0.125000 0.500000
vt 0.375000 0.750000
vt 0.375000 1.000000
vt 0.250000 1.000000
vt 0.250000 0.750000
vt 0.250000 1.000000
vt 0.125000 1.000000
vt 0.000000 0.750000
vt 0.000000 0.500000
vt 1.000000 0.750000
vt 0.875000 0.750000
vt 0.875000 0.500000
vt 1.000000 0.500000
vt 0.750000 0.750000
vt 0.750000 0.500000
vt 0.625000 0.750000
vt 0.625000 0.500000
vt 0.875000 0.750000
vt 0.875000 1.000000
vt 0.750000 1.000000
vt 0.750000 0.750000
vt 0.750000 1.000000
vt 0.625000 1.000000
vt 0.500000 0.750000
vt 0.500000 0.500000
vn 0.0000 0.0000 1.0000
vn -1.0000 0.0000 0.0000
vn 0.0000 0.0000 -1.0000
vn 0.0000 -1.0000 0.0000
vn 0.0000 1.0000 0.0000
vn 1.0000 0.0000 0.0000
usemtl Character
s off
f 3/1/1 8/2/1 1/3/1 6/4/1
f 8/2/2 9/5/2 10/6/2 1/3/2
f 9/5/3 2/7/3 7/8/3 10/6/3
f 7/9/4 6/10/4 1/11/4 10/12/4
f 9/5/5 8/13/5 3/14/5 2/7/5
f 3/15/6 6/16/6 7/8/6 2/7/6
f 5/17/1 13/18/1 14/19/1 12/20/1
f 13/18/2 15/21/2 16/22/2 14/19/2
f 15/21/3 11/23/3 4/24/3 16/22/3
f 4/25/4 12/26/4 14/27/4 16/28/4
f 15/21/5 13/29/5 5/30/5 11/23/5
f 5/31/6 12/32/6 4/24/6 11/23/6
