# Blender v2.93.5 OBJ File: ''
# www.blender.org
mtllib bottom.mtl
o bottom
v -2.100000 4.358421 1.050001
v -2.100000 1.648314 1.049999
v 2.100000 1.648314 1.049999
v 2.100000 4.358421 1.050001
v -2.100000 1.648314 -1.050001
v -2.100000 4.358421 -1.049998
v 2.100000 1.648314 -1.050001
v 2.100000 4.358421 -1.049998
v 0.000000 1.648314 -1.050001
v 0.000000 -4.651686 -1.050003
v 0.000000 -4.651686 1.049997
v 0.000000 1.648314 1.049999
v 0.000000 -4.651686 -1.050003
v 0.000000 -4.651686 1.049997
v -2.100000 -4.651685 1.049997
v -2.100000 -4.651685 -1.050003
v -2.100000 1.648315 1.049999
v -2.100000 1.648315 -1.050001
v 0.000000 1.648314 1.049999
v 2.100000 1.648315 -1.050001
v 2.100000 -4.651685 -1.050003
v 0.000000 1.648314 -1.050001
v 2.100000 -4.651685 1.049997
v 2.100000 1.648315 1.049999
vt 0.500000 0.161316
vt 0.500000 0.000000
vt 0.625000 0.000000
vt 0.625000 0.161316
vt 0.437500 0.000000
vt 0.437500 0.161316
vt 0.312500 0.000000
vt 0.312500 0.161316
vt 0.562500 0.375000
vt 0.562500 0.500000
vt 0.437500 0.500000
vt 0.437500 0.375000
vt 0.125000 0.375000
vt 0.125000 0.000000
vt 0.187500 0.000000
vt 0.187500 0.375000
vt 0.187500 0.375000
vt 0.187500 0.500000
vt 0.125000 0.500000
vt 0.125000 0.375000
vt 0.000000 0.375000
vt 0.062500 0.375000
vt 0.062500 0.000000
vt 0.000000 0.000000
vt 0.187500 0.375000
vt 0.250000 0.375000
vt 0.250000 0.000000
vt 0.187500 0.000000
vt 0.062500 0.375000
vt 0.062500 0.000000
vt 0.125000 0.375000
vt 0.125000 0.000000
vt 0.250000 0.000000
vt 0.250000 0.375000
vt 0.000000 0.375000
vt 0.000000 0.000000
vt 0.250000 0.161316
vt 0.250000 0.000000
vt 0.125000 0.375000
vt 0.125000 0.500000
vt 0.062500 0.500000
vt 0.062500 0.375000
vt 0.187500 0.375000
vt 0.125000 0.375000
vt 0.125000 0.500000
vt 0.187500 0.500000
vt 0.125000 0.375000
vt 0.062500 0.375000
vt 0.062500 0.500000
vt 0.125000 0.500000
vt 0.000000 1.000000
vt 0.000000 1.000000
vt 0.000000 1.000000
vt 0.000000 1.000000
vn 0.0000 -0.0000 1.0000
vn -1.0000 -0.0000 0.0000
vn 0.0000 0.0000 -1.0000
vn 0.0000 -1.0000 -0.0000
vn 1.0000 0.0000 0.0000
vn 0.0000 1.0000 0.0000
usemtl Character
s 1
f 1/1/1 2/2/1 3/3/1 4/4/1
f 5/5/2 2/2/2 1/1/2 6/6/2
f 7/7/3 5/5/3 6/6/3 8/8/3
f 7/9/4 3/10/4 2/11/4 5/12/4
f 9/13/2 10/14/2 11/15/2 12/16/2
f 13/17/4 14/18/4 15/19/4 16/20/4
f 17/21/2 18/22/2 16/23/2 15/24/2
f 19/25/1 17/26/1 15/27/1 14/28/1
f 20/29/3 21/30/3 10/14/3 9/13/3
f 18/22/3 22/31/3 13/32/3 16/23/3
f 12/16/1 11/15/1 23/33/1 24/34/1
f 22/31/5 19/25/5 14/28/5 13/32/5
f 24/35/5 23/36/5 21/30/5 20/29/5
f 4/37/5 3/38/5 7/7/5 8/8/5
f 18/39/6 17/40/6 19/41/6 22/42/6
f 10/43/4 21/44/4 23/45/4 11/46/4
f 20/47/6 9/48/6 12/49/6 24/50/6
f 4/51/6 8/52/6 6/53/6 1/54/6
