# Blender v3.6.21 OBJ File: ''
# www.blender.org
mtllib mcl_bamboo_shoot.mtl
v -0.250000 0.500000 -0.062500
v -0.250000 0.500000 -0.437500
v -0.250000 -0.500000 -0.437500
v -0.250000 -0.500000 -0.062500
v -0.062500 0.500000 -0.250000
v -0.437500 0.500000 -0.250000
v -0.437500 -0.500000 -0.250000
v -0.062500 -0.500000 -0.250000
vt 0.375000 1.000000
vt 0.750000 1.000000
vt 0.750000 0.000000
vt 0.375000 0.000000
vt 0.750000 1.000000
vt 0.375000 1.000000
vt 0.375000 0.000000
vt 0.750000 0.000000
vn -1.0000 0.0000 0.0000
vn 0.0000 0.0000 1.0000
g plane.012_plane.012_m_06e33594-4ccd-c8bc-4f17-47273296ebf2.001
usemtl m_06e33594-4ccd-c8bc-4f17-47273296ebf2.001
s 1
f 1/1/1 2/2/1 3/3/1 4/4/1
f 5/5/2 6/6/2 7/7/2 8/8/2
