# Blender 3.6.23
# www.blender.org
mtllib mcl_candles_candle_lit_2.mtl
o Candle_2
v 0.187500 -0.500000 -0.062500
v 0.187500 -0.187500 -0.062500
v 0.187500 -0.500000 0.062500
v 0.187500 -0.187500 0.062500
v 0.062500 -0.500000 -0.062500
v 0.062500 -0.187500 -0.062500
v 0.062500 -0.500000 0.062500
v 0.062500 -0.187500 0.062500
v 0.147097 -0.187500 -0.022097
v 0.147097 -0.125000 -0.022097
v 0.102903 -0.187500 0.022097
v 0.102903 -0.125000 0.022097
v 0.147097 -0.187500 0.022097
v 0.147097 -0.125000 0.022097
v 0.102903 -0.187500 -0.022097
v 0.102903 -0.125000 -0.022097
v -0.187500 -0.125000 0.125000
v -0.187500 -0.500000 0.125000
v -0.187500 -0.125000 -0.000000
v -0.187500 -0.500000 -0.000000
v -0.062500 -0.125000 0.125000
v -0.062500 -0.500000 0.125000
v -0.062500 -0.125000 -0.000000
v -0.062500 -0.500000 -0.000000
v -0.102903 -0.125000 0.040403
v -0.102903 -0.062500 0.040403
v -0.147097 -0.125000 0.084597
v -0.147097 -0.062500 0.084597
v -0.102903 -0.125000 0.084597
v -0.102903 -0.062500 0.084597
v -0.147097 -0.125000 0.040403
v -0.147097 -0.062500 0.040403
v 0.169194 -0.156250 -0.044194
v 0.169194 -0.031250 -0.044194
v 0.080806 -0.156250 0.044194
v 0.080806 -0.031250 0.044194
v 0.169194 -0.156250 0.044194
v 0.169194 -0.031250 0.044194
v 0.080806 -0.156250 -0.044194
v 0.080806 -0.031250 -0.044194
v -0.080806 -0.093750 0.018306
v -0.080806 0.031250 0.018306
v -0.169194 -0.093750 0.106694
v -0.169194 0.031250 0.106694
v -0.080806 -0.093750 0.106694
v -0.080806 0.031250 0.106694
v -0.169194 -0.093750 0.018306
v -0.169194 0.031250 0.018306
vn 1.0000 -0.0000 -0.0000
vn -0.0000 -0.0000 1.0000
vn -1.0000 -0.0000 -0.0000
vn -0.0000 -0.0000 -1.0000
vn -0.0000 -1.0000 -0.0000
vn -0.0000 1.0000 -0.0000
vn 0.7071 -0.0000 0.7071
vn -0.7071 -0.0000 0.7071
vt 0.125000 0.187500
vt 0.125000 0.500000
vt 0.000000 0.500000
vt 0.000000 0.187500
vt 0.000000 0.000000
vt 0.125000 0.000000
vt 0.125000 0.125000
vt 0.000000 0.125000
vt 0.125000 0.625000
vt 0.000000 0.625000
vt 0.062500 0.625000
vt 0.062500 0.687500
vt 0.000000 0.687500
vt 0.000000 1.000000
vt 1.000000 1.000000
vt 1.000000 0.000000
s 0
g Candle_2_Candle.003
usemtl Candle.003
f 1/1/1 2/2/1 4/3/1 3/4/1
f 3/1/2 4/2/2 8/3/2 7/4/2
f 7/1/3 8/2/3 6/3/3 5/4/3
f 5/1/4 6/2/4 2/3/4 1/4/4
f 3/5/5 7/6/5 5/7/5 1/8/5
f 8/9/6 4/10/6 2/3/6 6/2/6
f 9/11/7 10/12/7 12/13/7 11/10/7
f 13/10/8 14/13/8 16/12/8 15/11/8
f 17/9/6 21/10/6 23/3/6 19/2/6
f 20/7/4 19/2/4 23/3/4 24/8/4
f 24/7/1 23/2/1 21/3/1 22/8/1
f 22/5/5 18/6/5 20/7/5 24/8/5
f 18/7/3 17/2/3 19/3/3 20/8/3
f 22/7/2 21/2/2 17/3/2 18/8/2
f 25/10/7 26/13/7 28/12/7 27/11/7
f 29/10/8 30/13/8 32/12/8 31/11/8
g Candle_2_Fire.001
usemtl Fire.001
f 33/5/7 34/14/7 36/15/7 35/16/7
f 37/5/8 38/14/8 40/15/8 39/16/8
f 41/5/7 42/14/7 44/15/7 43/16/7
f 45/5/8 46/14/8 48/15/8 47/16/8
