<?xml version="1.0" encoding="UTF-8" standalone="no"?>
<!-- Created with Inkscape (http://www.inkscape.org/) -->
<svg
   xmlns:svg="http://www.w3.org/2000/svg"
   xmlns="http://www.w3.org/2000/svg"
   version="1.0"
   width="20"
   height="20"
   id="svg2">
  <defs
     id="defs4" />
  <path
     d="M 6.0083249,9.7907479 C 5.9631781,16.11129 13.638122,17.330251 13.818709,9.7456009"
     id="path2439"
     style="fill:none;fill-rule:evenodd;stroke:#000000;stroke-width:1px;stroke-linecap:butt;stroke-linejoin:miter;stroke-opacity:1" />
  <path
     d="M 6.0083249,9.0683999 C 1.7003917,7.128974 2.3104415,1.112576 9.4394762,0.80654907 C 16.570303,0.50044517 18.154195,7.21997 13.502681,9.2489869 L 12.328867,11.100003 C 12.328867,11.100003 11.696812,10.829123 10.161823,10.648536 C 8.626835,10.467949 6.8661127,11.054856 6.8661127,11.054856 L 6.0083249,9.0683999 z"
     id="path2441"
     style="fill:none;fill-rule:evenodd;stroke:#000000;stroke-width:1px;stroke-linecap:butt;stroke-linejoin:miter;stroke-opacity:1" />
  <path
     d="M 6.0083249,4.5085807 C 7.3627267,3.6056461 8.1753678,3.7410863 7.4530201,5.1857816 C 6.7306725,6.6304768 5.6471511,6.1790095 5.6020043,5.7275423 C 5.5568576,5.276075 5.9631781,4.5085807 6.0083249,4.5085807 z"
     id="path2443"
     style="fill:none;fill-rule:evenodd;stroke:#000000;stroke-width:1px;stroke-linecap:butt;stroke-linejoin:miter;stroke-opacity:1" />
  <path
     d="M 10.839025,4.5537274 C 11.516225,4.0119667 12.599747,3.6056461 12.780334,4.3731405 C 12.960921,5.1406348 12.735187,6.4047432 12.14828,6.2241563 C 11.561372,6.0435694 10.748731,5.5469554 10.748731,5.3212217 C 10.748731,5.0954881 10.884171,4.5988741 10.839025,4.5537274 z"
     id="path2445"
     style="fill:none;fill-rule:evenodd;stroke:#000000;stroke-width:1px;stroke-linecap:butt;stroke-linejoin:miter;stroke-opacity:1" />
  <path
     d="M 7.4328868,14.060178 L 3.4604138,15.702124 C 3.4604138,15.702124 1.945951,13.767278 1.4340355,15.465797 C 0.92212056,17.164315 2.1613267,17.129797 2.1613267,17.129797 C 2.1613267,17.129797 1.2670738,18.329082 2.4801435,18.596289 C 3.6932137,18.863494 4.3093424,17.599586 4.2051286,17.164976 L 8.9635536,15.190956 M 12.80057,13.904239 L 17.214985,12.12971 C 17.214985,12.12971 18.729448,14.064556 19.241363,12.366037 C 19.753278,10.667519 18.514072,10.702037 18.514072,10.702037 C 18.514072,10.702037 19.408325,9.502752 18.195255,9.235545 C 16.982185,8.96834 16.366056,10.232248 16.47027,10.666858 L 13.656389,11.801189"
     id="path2447"
     style="fill:none;fill-rule:evenodd;stroke:#000000;stroke-width:1px;stroke-linecap:butt;stroke-linejoin:miter;stroke-opacity:1" />
  <path
     d="M 7.4328868,13.771656 L 3.4604138,12.12971 C 3.4604138,12.12971 1.945951,14.064556 1.4340355,12.366037 C 0.92212056,10.667519 2.1613267,10.702037 2.1613267,10.702037 C 2.1613267,10.702037 1.2670738,9.502752 2.4801435,9.235545 C 3.6932137,8.96834 4.3093424,10.232248 4.2051286,10.666858 L 6.2235148,11.315053 M 12.80057,13.927595 L 17.214985,15.702124 C 17.214985,15.702124 18.729448,13.767278 19.241363,15.465797 C 19.753278,17.164315 18.514072,17.129797 18.514072,17.129797 C 18.514072,17.129797 19.408325,18.329082 18.195255,18.596289 C 16.982185,18.863494 16.366056,17.599586 16.47027,17.164976 L 11.402486,15.102567"
     id="path2458"
     style="fill:none;fill-rule:evenodd;stroke:#000000;stroke-width:1px;stroke-linecap:butt;stroke-linejoin:miter;stroke-opacity:1" />
</svg>
