<?xml version="1.0" encoding="UTF-8" standalone="no"?>
<!-- Created with Inkscape (http://www.inkscape.org/) -->

<svg
   xmlns:osb="http://www.openswatchbook.org/uri/2009/osb"
   xmlns:dc="http://purl.org/dc/elements/1.1/"
   xmlns:cc="http://creativecommons.org/ns#"
   xmlns:rdf="http://www.w3.org/1999/02/22-rdf-syntax-ns#"
   xmlns:svg="http://www.w3.org/2000/svg"
   xmlns="http://www.w3.org/2000/svg"
   xmlns:xlink="http://www.w3.org/1999/xlink"
   xmlns:sodipodi="http://sodipodi.sourceforge.net/DTD/sodipodi-0.dtd"
   xmlns:inkscape="http://www.inkscape.org/namespaces/inkscape"
   width="256"
   height="256"
   viewBox="0 0 256 256"
   version="1.1"
   id="svg8"
   inkscape:version="0.92.1 r15371"
   sodipodi:docname="drawing.svg">
  <defs
     id="defs2">
    <linearGradient
       id="linearGradient4579"
       osb:paint="solid">
      <stop
         style="stop-color:#ffffff;stop-opacity:1;"
         offset="0"
         id="stop4577" />
    </linearGradient>
    <linearGradient
       id="linearGradient4573"
       osb:paint="solid">
      <stop
         style="stop-color:#ffffff;stop-opacity:0;"
         offset="0"
         id="stop4571" />
    </linearGradient>
    <linearGradient
       inkscape:collect="always"
       xlink:href="#linearGradient4573"
       id="linearGradient4575"
       x1="-24"
       y1="477.26664"
       x2="-8"
       y2="477.26664"
       gradientUnits="userSpaceOnUse" />
    <linearGradient
       inkscape:collect="always"
       xlink:href="#linearGradient4573"
       id="linearGradient4581"
       x1="2e-07"
       y1="294.88327"
       x2="4.2333331"
       y2="294.88327"
       gradientUnits="userSpaceOnUse"
       gradientTransform="matrix(3.7795276,0,0,3.7795276,0,-637.25295)" />
  </defs>
  <sodipodi:namedview
     id="base"
     pagecolor="#000000"
     bordercolor="#ffffff"
     borderopacity="1"
     inkscape:pageopacity="0"
     inkscape:pageshadow="2"
     inkscape:zoom="0.35"
     inkscape:cx="400"
     inkscape:cy="560"
     inkscape:document-units="px"
     inkscape:current-layer="layer1"
     showgrid="true"
     inkscape:showpageshadow="false"
     inkscape:pagecheckerboard="false"
     units="px"
     guidecolor="#9191ff"
     guideopacity="0.49803922"
     guidehicolor="#ff9191"
     guidehiopacity="0.49803922"
     inkscape:snap-bbox="true"
     inkscape:bbox-paths="false"
     inkscape:bbox-nodes="true"
     inkscape:snap-bbox-edge-midpoints="false"
     inkscape:snap-intersection-paths="false"
     inkscape:snap-smooth-nodes="true"
     inkscape:object-nodes="true"
     inkscape:object-paths="false"
     scale-x="1">
    <inkscape:grid
       type="xygrid"
       id="grid4485"
       empspacing="8"
       color="#6969ff"
       opacity="0.1254902"
       empcolor="#8c69ff"
       empopacity="0.25098039" />
  </sodipodi:namedview>
  <metadata
     id="metadata5">
    <rdf:RDF>
      <cc:Work
         rdf:about="">
        <dc:format>image/svg+xml</dc:format>
        <dc:type
           rdf:resource="http://purl.org/dc/dcmitype/StillImage" />
        <dc:title />
      </cc:Work>
    </rdf:RDF>
  </metadata>
  <g
     inkscape:label="Layer 1"
     inkscape:groupmode="layer"
     id="layer1"
     transform="translate(0,-229.26664)">
    <rect
       style="opacity:1;fill:url(#linearGradient4575);fill-opacity:1;stroke:none;stroke-width:2.00000238;stroke-miterlimit:4;stroke-dasharray:none;stroke-opacity:1;paint-order:stroke fill markers"
       id="rect4487"
       width="16"
       height="16.000008"
       x="-24"
       y="469.26663"
       ry="0"
       inkscape:export-xdpi="96"
       inkscape:export-ydpi="96" />
    <g
       id="radio-off"
       inkscape:label="#g4553">
      <rect
         inkscape:export-ydpi="96"
         inkscape:export-xdpi="96"
         ry="0"
         y="469.26651"
         x="7.5590555e-07"
         height="15.999994"
         width="15.999999"
         id="use4500"
         style="opacity:0.25;fill:url(#linearGradient4581);fill-opacity:1;stroke:none;stroke-width:2.00000143;stroke-miterlimit:4;stroke-dasharray:none;stroke-opacity:1;paint-order:stroke fill markers" />
      <path
         id="path4489"
         transform="translate(0,229.26664)"
         d="M 8 240 C 3.5817219 240 -2.2091392e-07 243.58172 0 248 C -2.2091392e-07 252.41828 3.5817219 256 8 256 C 12.418278 256 16 252.41828 16 248 C 16 243.58172 12.418278 240 8 240 z M 8 241 A 7 7.0000129 0 0 1 15 248 A 7 7.0000129 0 0 1 8 255 A 7 7.0000129 0 0 1 1 248 A 7 7.0000129 0 0 1 8 241 z "
         style="opacity:1;fill:#ffffff;fill-opacity:1;stroke:none;stroke-width:1.99999988;stroke-miterlimit:4;stroke-dasharray:none;stroke-opacity:1;paint-order:stroke fill markers" />
      <ellipse
         ry="7.5000138"
         rx="7.5"
         cy="477.26663"
         cx="8"
         id="path4494"
         style="opacity:0.15;fill:#ffffff;fill-opacity:1;stroke:none;stroke-width:4.28571796;stroke-miterlimit:4;stroke-dasharray:none;stroke-opacity:1;paint-order:stroke fill markers" />
    </g>
    <g
       id="radio-on"
       inkscape:label="radio-on"
       transform="matrix(3.7795276,0,0,3.7795276,1.5880691e-7,-637.25295)">
      <rect
         inkscape:export-ydpi="96"
         inkscape:export-xdpi="96"
         ry="0"
         y="292.7666"
         x="6.3499999"
         height="4.2333317"
         width="4.2333331"
         id="use4502"
         style="opacity:0.25;fill:url(#linearGradient4573);fill-opacity:1;stroke:none;stroke-width:0.52916706;stroke-miterlimit:4;stroke-dasharray:none;stroke-opacity:1;paint-order:stroke fill markers" />
      <ellipse
         style="opacity:0.25;fill:#ffffff;fill-opacity:1;stroke:none;stroke-width:0.60476083;stroke-miterlimit:4;stroke-dasharray:none;stroke-opacity:1;paint-order:stroke fill markers"
         id="ellipse4506"
         cx="8.4666672"
         cy="294.8833"
         rx="1.0583333"
         ry="1.0583297" />
      <path
         id="path4521"
         transform="matrix(0.26458333,0,0,0.26458333,0,229.26664)"
         d="m 32,240 c -4.418278,0 -8,3.58169 -8,8 0,4.41827 3.581722,8 8,8 4.418278,0 8,-3.58173 8,-8 0,-4.41831 -3.581722,-8 -8,-8 z m 0,6 a 1.9999999,1.9999945 0 0 1 2,2 1.9999999,1.9999945 0 0 1 -2,2 1.9999999,1.9999945 0 0 1 -2,-2 1.9999999,1.9999945 0 0 1 2,-2 z"
         style="opacity:1;fill:#ffffff;fill-opacity:1;stroke:none;stroke-width:1.99999988;stroke-miterlimit:4;stroke-dasharray:none;stroke-opacity:1;paint-order:stroke fill markers"
         inkscape:connector-curvature="0" />
    </g>
    <g
       id="check-off"
       inkscape:label="#g4549"
       transform="matrix(3.7795276,0,0,3.7795276,0,-637.25295)">
      <rect
         inkscape:export-ydpi="96"
         inkscape:export-xdpi="96"
         ry="0"
         y="286.41663"
         x="2e-07"
         height="4.2333317"
         width="4.2333331"
         id="use4518"
         style="opacity:0.25;fill:url(#linearGradient4573);fill-opacity:1;stroke:none;stroke-width:0.52916706;stroke-miterlimit:4;stroke-dasharray:none;stroke-opacity:1;paint-order:stroke fill markers" />
      <path
         id="rect4526"
         transform="matrix(0.26458333,0,0,0.26458333,0,229.26664)"
         d="m 2,216 c -1.10799994,0 -2,0.892 -2,2 v 12 c 0,1.108 0.89200006,2 2,2 h 12 c 1.108,0 2,-0.892 2,-2 v -12 c 0,-1.108 -0.892,-2 -2,-2 z m -1,1 h 14 v 14 H 1 Z"
         style="opacity:1;fill:#ffffff;fill-opacity:1;stroke:none;stroke-width:1.99999988;stroke-miterlimit:4;stroke-dasharray:none;stroke-opacity:1;paint-order:stroke fill markers"
         inkscape:connector-curvature="0"
         sodipodi:nodetypes="sssssssssccccc" />
      <rect
         y="286.61508"
         x="0.1984375"
         height="3.8364582"
         width="3.8364582"
         id="rect4531"
         style="opacity:0.15;fill:#ffffff;fill-opacity:1;stroke:none;stroke-width:0.54806548;stroke-miterlimit:4;stroke-dasharray:none;stroke-opacity:1;paint-order:stroke fill markers" />
    </g>
    <g
       id="check-on"
       inkscape:label="#g4554"
       transform="matrix(3.7795276,0,0,3.7795276,1.5880691e-7,-637.25295)">
      <rect
         inkscape:export-ydpi="96"
         inkscape:export-xdpi="96"
         ry="0"
         y="286.41663"
         x="6.3499999"
         height="4.2333317"
         width="4.2333331"
         id="use4514"
         style="opacity:0.25;fill:url(#linearGradient4573);fill-opacity:1;stroke:none;stroke-width:0.52916706;stroke-miterlimit:4;stroke-dasharray:none;stroke-opacity:1;paint-order:stroke fill markers" />
      <path
         id="rect4533"
         transform="matrix(0.26458333,0,0,0.26458333,0,229.26664)"
         d="m 26,216 c -1.108,0 -2,0.892 -2,2 v 12 c 0,1.108 0.892,2 2,2 h 12 c 1.108,0 2,-0.892 2,-2 v -12 c 0,-1.108 -0.892,-2 -2,-2 z m 9,9 h -2 v 2 h -2 v -2 h -2 v -2 h 2 v -2 h 2 v 2 h 2 z"
         style="opacity:1;fill:#ffffff;fill-opacity:1;stroke:none;stroke-width:1.99999988;stroke-miterlimit:4;stroke-dasharray:none;stroke-opacity:1;paint-order:stroke fill markers"
         inkscape:connector-curvature="0"
         sodipodi:nodetypes="sssssssssccccccccccccc" />
      <rect
         y="286.68121"
         x="6.614583"
         height="3.7041667"
         width="3.7041667"
         id="rect4544"
         style="opacity:0.25;fill:#ffffff;fill-opacity:1;stroke:none;stroke-width:0.52916664;stroke-miterlimit:4;stroke-dasharray:none;stroke-opacity:1;paint-order:stroke fill markers" />
    </g>
    <g
       id="arrow-up"
       inkscape:label="#g4673"
       transform="matrix(3.7795278,0,0,3.7795278,-4.3501574e-6,-637.25301)">
      <rect
         inkscape:export-ydpi="96"
         inkscape:export-xdpi="96"
         ry="0"
         y="286.41663"
         x="19.049999"
         height="4.2333317"
         width="4.2333331"
         id="use4508"
         style="opacity:0.25;fill:url(#linearGradient4573);fill-opacity:1;stroke:none;stroke-width:0.52916706;stroke-miterlimit:4;stroke-dasharray:none;stroke-opacity:1;paint-order:stroke fill markers" />
      <path
         sodipodi:nodetypes="cccc"
         inkscape:connector-curvature="0"
         id="rect4655"
         transform="matrix(0.26458333,0,0,0.26458333,0,229.26664)"
         d="m 80,221 -4.999999,5 h 10 z"
         style="opacity:1;fill:#ffffff;fill-opacity:1;stroke:none;stroke-width:1.99999988;stroke-miterlimit:4;stroke-dasharray:none;stroke-opacity:1;paint-order:stroke fill markers" />
    </g>
    <g
       inkscape:label="#g4673"
       id="arrow-down"
       transform="matrix(-3.7795278,0,0,-3.7795278,160,1567.7863)">
      <rect
         inkscape:export-ydpi="96"
         inkscape:export-xdpi="96"
         ry="0"
         y="286.41663"
         x="19.049999"
         height="4.2333317"
         width="4.2333331"
         id="use4675"
         style="opacity:0.25;fill:url(#linearGradient4573);fill-opacity:1;stroke:none;stroke-width:0.52916706;stroke-miterlimit:4;stroke-dasharray:none;stroke-opacity:1;paint-order:stroke fill markers" />
      <path
         style="opacity:1;fill:#ffffff;fill-opacity:1;stroke:none;stroke-width:1.99999988;stroke-miterlimit:4;stroke-dasharray:none;stroke-opacity:1;paint-order:stroke fill markers"
         d="m 80,221 -4.999999,5 h 10 z"
         transform="matrix(0.26458333,0,0,0.26458333,0,229.26664)"
         id="path4677"
         inkscape:connector-curvature="0"
         sodipodi:nodetypes="cccc" />
    </g>
    <g
       inkscape:label="#g4673"
       id="arrow-right"
       transform="matrix(0,3.779529,-3.779529,0,1194.52,373.26661)">
      <rect
         inkscape:export-ydpi="96"
         inkscape:export-xdpi="96"
         ry="0"
         y="286.41663"
         x="19.049999"
         height="4.2333317"
         width="4.2333331"
         id="use4681"
         style="opacity:0.25;fill:url(#linearGradient4573);fill-opacity:1;stroke:none;stroke-width:0.52916706;stroke-miterlimit:4;stroke-dasharray:none;stroke-opacity:1;paint-order:stroke fill markers" />
      <path
         style="opacity:1;fill:#ffffff;fill-opacity:1;stroke:none;stroke-width:1.99999988;stroke-miterlimit:4;stroke-dasharray:none;stroke-opacity:1;paint-order:stroke fill markers"
         d="m 80,221 -4.999999,5 h 10 z"
         transform="matrix(0.26458333,0,0,0.26458333,0,229.26664)"
         id="path4683"
         inkscape:connector-curvature="0"
         sodipodi:nodetypes="cccc" />
    </g>
    <g
       inkscape:label="#g4673"
       id="arrow-left"
       transform="matrix(0,-3.779529,3.779529,0,-986.52,557.26667)">
      <rect
         inkscape:export-ydpi="96"
         inkscape:export-xdpi="96"
         ry="0"
         y="286.41663"
         x="19.049999"
         height="4.2333317"
         width="4.2333331"
         id="use4687"
         style="opacity:0.25;fill:url(#linearGradient4573);fill-opacity:1;stroke:none;stroke-width:0.52916706;stroke-miterlimit:4;stroke-dasharray:none;stroke-opacity:1;paint-order:stroke fill markers" />
      <path
         style="opacity:1;fill:#ffffff;fill-opacity:1;stroke:none;stroke-width:1.99999988;stroke-miterlimit:4;stroke-dasharray:none;stroke-opacity:1;paint-order:stroke fill markers"
         d="m 80,221 -4.999999,5 h 10 z"
         transform="matrix(0.26458333,0,0,0.26458333,0,229.26664)"
         id="path4689"
         inkscape:connector-curvature="0"
         sodipodi:nodetypes="cccc" />
    </g>
    <g
       inkscape:label="#g4653"
       id="collapse"
       transform="matrix(3.7795278,0,0,3.7795278,-48.000017,-661.25298)">
      <rect
         inkscape:export-ydpi="96"
         inkscape:export-xdpi="96"
         ry="0"
         y="286.41663"
         x="12.7"
         height="4.2333317"
         width="4.2333331"
         id="use4524"
         style="opacity:0.25;fill:url(#linearGradient4573);fill-opacity:1;stroke:none;stroke-width:0.52916706;stroke-miterlimit:4;stroke-dasharray:none;stroke-opacity:1;paint-order:stroke fill markers" />
      <rect
         y="-15.875"
         x="288.26871"
         height="2.116663"
         width="0.52916324"
         id="rect4529"
         style="opacity:1;fill:#ffffff;fill-opacity:1;stroke:none;stroke-width:0.52916664;stroke-miterlimit:4;stroke-dasharray:none;stroke-opacity:1;paint-order:stroke fill markers"
         transform="rotate(90)" />
    </g>
    <g
       inkscape:label="#g4653"
       id="expand"
       transform="matrix(3.7795278,0,0,3.7795278,-24.000004,-661.25298)">
      <rect
         inkscape:export-ydpi="96"
         inkscape:export-xdpi="96"
         ry="0"
         y="286.41663"
         x="12.7"
         height="4.2333317"
         width="4.2333331"
         id="use4533"
         style="opacity:0.25;fill:url(#linearGradient4573);fill-opacity:1;stroke:none;stroke-width:0.52916706;stroke-miterlimit:4;stroke-dasharray:none;stroke-opacity:1;paint-order:stroke fill markers" />
      <rect
         style="opacity:1;fill:#ffffff;fill-opacity:1;stroke:none;stroke-width:0.52916664;stroke-miterlimit:4;stroke-dasharray:none;stroke-opacity:1;paint-order:stroke fill markers"
         id="rect4535"
         width="0.52916789"
         height="2.1166754"
         x="14.552083"
         y="287.47498" />
      <rect
         y="-15.875"
         x="288.26871"
         height="2.1166668"
         width="0.52916324"
         id="rect4537"
         style="opacity:1;fill:#ffffff;fill-opacity:1;stroke:none;stroke-width:0.52916664;stroke-miterlimit:4;stroke-dasharray:none;stroke-opacity:1;paint-order:stroke fill markers"
         transform="rotate(90)" />
    </g>
    <g
       inkscape:label="#g4554"
       id="tree-node-button-close"
       transform="matrix(3.7795276,0,0,3.7795276,24,-661.25295)">
      <rect
         inkscape:export-ydpi="96"
         inkscape:export-xdpi="96"
         ry="0"
         y="286.41663"
         x="6.3499999"
         height="4.2333317"
         width="4.2333331"
         id="use4541"
         style="opacity:0.25;fill:url(#linearGradient4573);fill-opacity:1;stroke:none;stroke-width:0.52916706;stroke-miterlimit:4;stroke-dasharray:none;stroke-opacity:1;paint-order:stroke fill markers" />
      <path
         sodipodi:nodetypes="sssssssssccccc"
         inkscape:connector-curvature="0"
         style="opacity:1;fill:#ffffff;fill-opacity:1;stroke:none;stroke-width:1.99999988;stroke-miterlimit:4;stroke-dasharray:none;stroke-opacity:1;paint-order:stroke fill markers"
         d="m 26,216 c -1.108,0 -2,0.892 -2,2 v 12 c 0,1.108 0.892,2 2,2 h 12 c 1.108,0 2,-0.892 2,-2 v -12 c 0,-1.108 -0.892,-2 -2,-2 z m 12,9 H 26 v -2 h 12 z"
         transform="matrix(0.26458333,0,0,0.26458333,0,229.26664)"
         id="path4543" />
    </g>
    <g
       inkscape:label="#g4554"
       id="tree-node-button-open"
       transform="matrix(3.7795276,0,0,3.7795276,48,-661.25295)">
      <rect
         inkscape:export-ydpi="96"
         inkscape:export-xdpi="96"
         ry="0"
         y="286.41663"
         x="6.3499999"
         height="4.2333317"
         width="4.2333331"
         id="use4549"
         style="opacity:0.25;fill:url(#linearGradient4573);fill-opacity:1;stroke:none;stroke-width:0.52916706;stroke-miterlimit:4;stroke-dasharray:none;stroke-opacity:1;paint-order:stroke fill markers" />
      <path
         sodipodi:nodetypes="sssssssssccccccccccccc"
         inkscape:connector-curvature="0"
         style="opacity:1;fill:#ffffff;fill-opacity:1;stroke:none;stroke-width:1.99999988;stroke-miterlimit:4;stroke-dasharray:none;stroke-opacity:1;paint-order:stroke fill markers"
         d="m 26,216 c -1.108,0 -2,0.892 -2,2 v 12 c 0,1.108 0.892,2 2,2 h 12 c 1.108,0 2,-0.892 2,-2 v -12 c 0,-1.108 -0.892,-2 -2,-2 z m 12,9 h -5 v 5 h -2 v -5 h -5 v -2 h 5 v -5 h 2 v 5 h 5 z"
         transform="matrix(0.26458333,0,0,0.26458333,0,229.26664)"
         id="path4551" />
    </g>
    <g
       id="close"
       inkscape:label="#g4570"
       transform="matrix(3.7795278,0,0,3.7795278,-2.8201574e-6,-637.253)">
      <rect
         inkscape:export-ydpi="96"
         inkscape:export-xdpi="96"
         ry="0"
         y="286.41663"
         x="12.7"
         height="4.2333317"
         width="4.2333331"
         id="use4510"
         style="opacity:0.25;fill:url(#linearGradient4573);fill-opacity:1;stroke:none;stroke-width:0.52916706;stroke-miterlimit:4;stroke-dasharray:none;stroke-opacity:1;paint-order:stroke fill markers" />
      <rect
         transform="rotate(-45)"
         y="212.91331"
         x="-193.81148"
         height="3.175"
         width="0.52916664"
         id="rect4646"
         style="opacity:1;fill:#ffffff;fill-opacity:1;stroke:none;stroke-width:0.52916664;stroke-miterlimit:4;stroke-dasharray:none;stroke-opacity:1;paint-order:stroke fill markers" />
      <rect
         transform="rotate(45)"
         style="opacity:1;fill:#ffffff;fill-opacity:1;stroke:none;stroke-width:0.52916664;stroke-miterlimit:4;stroke-dasharray:none;stroke-opacity:1;paint-order:stroke fill markers"
         id="rect4648"
         width="0.52916664"
         height="3.175"
         x="214.23624"
         y="191.95938" />
    </g>
    <g
       id="multichoice-arrow"
       inkscape:label="#g4588"
       transform="matrix(3.7795278,0,0,3.7795278,-2.2136603e-5,-637.25301)">
      <rect
         inkscape:export-ydpi="96"
         inkscape:export-xdpi="96"
         ry="0"
         y="-297"
         x="-16.933338"
         height="4.2333317"
         width="4.2333331"
         id="use4693"
         style="opacity:0.25;fill:url(#linearGradient4573);fill-opacity:1;stroke:none;stroke-width:0.52916706;stroke-miterlimit:4;stroke-dasharray:none;stroke-opacity:1;paint-order:stroke fill markers"
         transform="scale(-1)" />
      <rect
         transform="rotate(45)"
         y="196.6687"
         x="219.21014"
         height="2.1166666"
         width="0.52916664"
         id="rect4579"
         style="opacity:1;fill:#ffffff;fill-opacity:1;stroke:none;stroke-width:0.52916664;stroke-miterlimit:4;stroke-dasharray:none;stroke-opacity:1;paint-order:stroke fill markers" />
      <rect
         style="opacity:1;fill:#ffffff;fill-opacity:1;stroke:none;stroke-width:0.52916664;stroke-miterlimit:4;stroke-dasharray:none;stroke-opacity:1;paint-order:stroke fill markers"
         id="rect4583"
         width="0.52916664"
         height="2.1166666"
         x="198.25621"
         y="217.62263"
         transform="matrix(-0.70710678,0.70710678,0.70710678,0.70710678,0,0)" />
    </g>
    <g
       id="slider"
       inkscape:label="#g4651"
       transform="matrix(3.7795278,0,0,3.7795278,-5.7011931e-6,-637.25301)">
      <rect
         inkscape:export-ydpi="96"
         inkscape:export-xdpi="96"
         ry="0"
         y="280.06662"
         x="25.4"
         height="4.2333317"
         width="4.2333331"
         id="use4590"
         style="opacity:0.25;fill:url(#linearGradient4573);fill-opacity:1;stroke:none;stroke-width:0.52916706;stroke-miterlimit:4;stroke-dasharray:none;stroke-opacity:1;paint-order:stroke fill markers" />
      <path
         style="opacity:1;fill:#ffffff;fill-opacity:1;stroke:none;stroke-width:0.52916664;stroke-miterlimit:4;stroke-dasharray:none;stroke-opacity:1;paint-order:stroke fill markers"
         d="M 27.516667,280.06664 A 2.1166665,2.1166665 0 0 0 25.4,282.18331 a 2.1166665,2.1166665 0 0 0 2.116667,2.11666 2.1166665,2.1166665 0 0 0 2.116666,-2.11666 2.1166665,2.1166665 0 0 0 -2.116666,-2.11667 z m 0,0.52917 a 1.5875,1.5874941 0 0 1 1.5875,1.5875 1.5875,1.5874941 0 0 1 -1.5875,1.5875 1.5875,1.5874941 0 0 1 -1.5875,-1.5875 1.5875,1.5874941 0 0 1 1.5875,-1.5875 z"
         id="path4592"
         inkscape:connector-curvature="0" />
      <ellipse
         ry="1.8520854"
         rx="1.8520833"
         cy="282.18332"
         cx="27.516666"
         id="path4635"
         style="opacity:0.35;fill:#ffffff;fill-opacity:1;stroke:none;stroke-width:0.4630211;stroke-miterlimit:4;stroke-dasharray:none;stroke-opacity:1;paint-order:stroke fill markers" />
      <ellipse
         style="opacity:1;fill:#ffffff;fill-opacity:1;stroke:none;stroke-width:0.19843718;stroke-miterlimit:4;stroke-dasharray:none;stroke-opacity:1;paint-order:stroke fill markers"
         id="ellipse4645"
         cx="27.516666"
         cy="282.18332"
         rx="0.79374993"
         ry="0.79374754" />
    </g>
  </g>
</svg>
