/* XPM */
static const char * base_xpm[] = {
"35 39 2 1",
" 	c None",
".	c #FFFFFF",
"                 .                 ",
"                ...                ",
"               .....               ",
"               .....               ",
"               .....               ",
"               .....               ",
"      ...      .....      ...      ",
"      ....     .....     ....      ",
"      .....    .....    .....      ",
"       .....   .....   .....       ",
"        ...................        ",
"         .................         ",
"          ...............          ",
"          ...............          ",
"         .................         ",
"        ...................        ",
"       .........   .........       ",
"      .........     .........      ",
"      .........     .........      ",
"      .........     .........      ",
"       .........   .........       ",
"        ...................        ",
"         .................         ",
"          ...............          ",
"          ...............          ",
"         .................         ",
"        ...................        ",
"       .....................       ",
"      .......................      ",
"     .........................     ",
"    ...........................    ",
"   .............................   ",
"  ...............................  ",
" ................................. ",
"......... ............... .........",
"........  ....... .......  ........",
".......   ......   ......   .......",
"......    .....     .....    ......",
".....     ....       ....     ....."};
