/* XPM */
static const char * bigrock2_xpm[] = {
"60 35 3 1",
" 	c None",
".	c #A8BAD0",
"+	c #000000",
"           ......                                    ..     ",
"          .........       ......               ........     ",
"         ...........    ..........            .........     ",
"    .................  ..............  ..... ............   ",
"  ............+++.........................................  ",
"............+++.++................................+++.....  ",
" ........++++.....+.............................++..++....  ",
"  .................++.++.................................   ",
"  .....................+++...............................   ",
"   ......................++......++..........+++++.......   ",
"   ............++.........+.......+++.......++.++.........  ",
"   .....+++++++...........+.........+++...++..............  ",
"  .....++....+............++..........+++++.............    ",
"  ....+....................++...++.......................   ",
"   .........................+++++.........................  ",
"   ..............................................+++....... ",
"  .....................++++.............+++..+++++..........",
"  ......+++++++++.........++..............++++..............",
"  .....++..................+++......++...........+..........",
"  .....+.....................++++++++.+.........+++.........",
"  .....+........................+............+++..++........",
"  .....++.....+++++.........................++.....++...++..",
" .....+++.........+++.++....................+.......+++++...",
" ....................++.....................+...............",
" ...............................+++++.......+.............. ",
" .............++..............+++...++............++....... ",
" . .......+++++.....++++........................+++........ ",
"    ...................+++++...............++++++.......... ",
"     ........................................+............. ",
"      .......... ................... ...................... ",
"       .......    .................  .............  ....... ",
"       ......      ...............    .........      .....  ",
"       ....          ............     ........        ...   ",
"       ...               .......      .......         ...   ",
"        .                 .....         ...           ..    "};
