/* XPM */
static const char * bigrock4_xpm[] = {
"60 35 3 1",
" 	c None",
".	c #FFFF00",
"+	c #000000",
"            ...................                             ",
"          ...........................                       ",
"      .................................                     ",
"     .........................++++.................         ",
"    ..................++.........+....................      ",
"   ..........++++++++++...........+++++++..............     ",
"   ........+++..........................+++............     ",
"  .........+...........................................     ",
" ......................................................     ",
"........+..................+++..................++.....     ",
"........+....................+++....++++++...++++.......    ",
"........++.....................+++.......+++++...........   ",
".........+++...........+.........++........................ ",
"............++++....++++..........++........................",
"...............++++++..............++.......................",
"....................................++............+++.......",
".....................................++......++++++.++..... ",
"..........++.........................................+..... ",
".....+.....++...............++.......................+..... ",
".....+......+.................+......................+..... ",
" ....+......++................+++.......................... ",
" ....++......+++++++++++++++....+++.......+++.............. ",
" .....++..........................++.........++++....++.....",
"  .....+++.........................++...........++++++......",
"  .......++.........................++......................",
"  .........+.........................+......................",
"   .........................................................",
"    ................+++..++.................................",
"     ..........++++++..+++..................................",
"       .........................+++++....+++++++++..........",
"       .........................+...++++++..................",
"        ..................................................  ",
"             ... ...................................+       ",
"                    ............................            ",
"                                ...........                 "};
