/* XPM */
static const char * bigrock5_xpm[] = {
"60 35 3 1",
" 	c None",
".	c #BABA5F",
"+	c #000000",
"                        ...............                     ",
"                      ....................                  ",
"                    .........................               ",
"                 ...........++++++............              ",
"             ............++++.....++...........             ",
"            ...........++...........+...........            ",
"         ........................................           ",
"        ..........................................          ",
"      ........++++++......++........++.............         ",
"    .........+.............++++......++++...........        ",
"  ..........+.................+++.......+++............     ",
" ...............................+..........++++...........  ",
"........+..............+++......++++..........+++...........",
"........++++++++++++++++.........................+++........",
"...................................................+++......",
"............................................................",
"............................................................",
"............................................................",
"....++.......+++++++.........+++++.....++++.................",
".....++......+.....++++..........+++++++..+................ ",
" .....+......+.........+..................+................ ",
" .....++..................+...............+................ ",
"  .....+..................++......................+++...... ",
"  .....+...................++...................++......... ",
"   ....++...................++.................++.........  ",
"   .....+++..................++++++++++.......++.........   ",
"    ...........++.........................+++++.........    ",
"     ...........++......................++...........       ",
"      ...........++...............................          ",
"       ............++++..+++....................            ",
"        ..............++++.++++................             ",
"          ..................................                ",
"          ................................                  ",
"                   .....................                    ",
"                        ...   .....                         "};
