/* XPM */
static const char * bigrock1_xpm[] = {
"60 35 3 1",
" 	c None",
".	c #5CD17A",
"+	c #000000",
"                    .....                         ...       ",
"                  .......      ...               .....      ",
"                ..........    ..............  .........     ",
"               ...........   ..........................     ",
"               ............ ...........................     ",
"        ................................................    ",
"     ..........................................++++.....    ",
"   ................++...........+++.........++++..+......   ",
"....................++.............++.....+++.....+........ ",
"........++++.........+++++++++......++............++........",
".......++.............................+++..........+........",
"......++........+..............++.......++.........++.......",
"......+.......++++............++++.......+..........+.......",
"......++.........+......+++......++......++....+++..+...... ",
" .......++.......+.++++++.........++.............+........  ",
"  .......+++.....+++...............++...........++........  ",
"   ........+........................+........++++.........  ",
"    .......+.......+++........+.....++.......+............  ",
"    .......+.....+++.........++......+...............++...  ",
"   .......++....++...........+.......++...............+.... ",
"   ............+...........+++........................++... ",
"   ...........+............+.....+........++...........++...",
"    ..........+.................+........+++............+...",
"    .........++.................+........+..+.......+.......",
"     .......++.........+.......++...........+......+........",
"     .....+++.........++.......+.............+.....+.......+",
"      ...............+.........+.............+....++....... ",
"      ............+++..........+...++........+++..+.......  ",
"      ........+++++...........+...++...........++.+......   ",
"       .................. ....+.++...............++.....    ",
"       ................   ....+++......................     ",
"       ..............       .........  ...............      ",
"       ............           .....        ..........       ",
"       ........                ...           ........       ",
"          ..                    .                ....       "};
