/* XPM */
static const char * bigrock3_xpm[] = {
"60 35 3 1",
" 	c None",
".	c #CD3FD0",
"+	c #000000",
"                               ................             ",
"                              ..................            ",
"                   ...............................          ",
"          ..........................+..............         ",
"       ..............................+.............         ",
"    ............................+....++.............        ",
"  ...............++...++++....+++++...+...............      ",
" ........+++++.+++........+..++.......+......++........     ",
"..............+............+++........++.++...++........    ",
"....+..................................+++++...++........   ",
"....+......................................+....++........  ",
"....+...................++..................+....++.......  ",
"....+........++..........+++......................++......  ",
"...++.........++...........++++....................++...... ",
"...+...........+..............+.......++............+...... ",
"...++..........+..............+......+.+++................. ",
"....+.........++....+.........++..........++................",
"....++++.....++......+++...................++...............",
".............+.........++++.................++..............",
".............+............++..................+.............",
".............++.............++.................+++++........",
"..............++.............++..................++.........",
".....+++.......++.............+........+++..................",
" ......+........+............++.......++....................",
"  .....+.....................+......+++...............+.... ",
"  .....+................+....+.....++......+++.......+..... ",
"   ....++..............+.....+.....+.........+++....+...... ",
"    ....++...........++......+....++...........+++++......  ",
"     ....+++++......++........+....+.....................   ",
"      ............+++.........+....+....................    ",
"       ..........++...............+...................      ",
"         .........................................          ",
"          ...............................                   ",
"          .............................                     ",
"           ................    ......                       "};
