/* XPM */
static const char * bigspinner_backslash_xpm[] = {
"57 57 2 1",
" 	c None",
".	c #FFFFFF",
"                                                         ",
"                                                         ",
"                                                         ",
"                                                         ",
"                                                         ",
"        ........                                         ",
"       ..........                                        ",
"      ............                                       ",
"     ..............                                      ",
"     ...............                                     ",
"     ................                                    ",
"     .................                                   ",
"     .................                                   ",
"     .................                                   ",
"     .................                                   ",
"     ................................                    ",
"      ...............................                    ",
"       ..............................                    ",
"        .............................                    ",
"         ............................                    ",
"          ................................               ",
"           ...............................               ",
"               ...........................               ",
"               ........           ........               ",
"               ........           ........               ",
"               ........           ........               ",
"               ........           ........               ",
"               ........           ........               ",
"               ........           ........               ",
"               ........           ........               ",
"               ........           ........               ",
"               ........           ........               ",
"               ........           ........               ",
"               ........           ........               ",
"               ...........................               ",
"               ...............................           ",
"               ................................          ",
"                    ............................         ",
"                    .............................        ",
"                    ..............................       ",
"                    ...............................      ",
"                    ................................     ",
"                                   .................     ",
"                                   .................     ",
"                                   .................     ",
"                                   .................     ",
"                                    ................     ",
"                                     ...............     ",
"                                      ..............     ",
"                                       ............      ",
"                                        ..........       ",
"                                         ........        ",
"                                                         ",
"                                                         ",
"                                                         ",
"                                                         ",
"                                                         "};
