/* XPM */
static const char * explosion1_xpm[] = {
"43 43 2 1",
" 	c None",
".	c #FFFF00000000",
"      .   .    ...   .        ...   .      ",
"             ...            .   .          ",
"          .  .. .   .        ..            ",
"  .     .  ...         ..  .. . ..         ",
"           ..         .    .. .      .     ",
"   ...   ...    .  .        ..             ",
"     .  . ......   ..   ..  ..        .    ",
"         ... ..... .    .. . ..   . .      ",
"     . .......  ..     .   . . .  ..       ",
".   .. ..... . ..    . .. ....    .. . .   ",
"      ... .. ........ ...  . ........      ",
"        . .......... . . .    ......    . .",
"        . . .... .....  . .......... ..  . ",
"  . .   .  ...  ...    ....... .. ..   .   ",
"  .     ..    . .. . . ....  ..  ...     . ",
"     . .   . .   .. .....  ........   .... ",
" .   . ...... ... . .... ...... .. . .   . ",
" .  .   ...      .... ...... .. ... . .    ",
"  . .  . .. .. ....... . .    . .... .     ",
"               . ....  .. . ....... ... .. ",
"    .    .... .  .  ......... . ...     .. ",
"   .. .  . .    ... ...... .  ...  ..     .",
"     .. . ... ... ..  ... .. .  . ..  .    ",
"                 .... .  . ...     .....   ",
"  ...   .    .   .  .. .... .  . .  . ..   ",
"    ... .  .   ..... . ... ...       ..    ",
"    . ....... .  ...........   .    . . .  ",
"... . .. .... ... .  ....... .     . .. .  ",
"   .  .....  ...  ... . . .   . .. .   .   ",
"     ...  . ... ..   ... . .. ...     .    ",
"  ..      ..  .. . ..  .... ...     .  .   ",
"        . .     .   .    ..     ...     .  ",
"    .   ...  .  . .. . ..    .             ",
"      .. .    . .      .  .  . .     ..    ",
"   .  .  .   .... ....   .       ...       ",
"      .    .       .       .   .           ",
"         .      . .      .             .   ",
"   ..    .     .. .      . .    .  .       ",
"           .      .                        ",
"                  .        .               ",
"       .        .              .           ",
"                 .                         ",
"                   .     .                 "};
