/* XPM */
static const char * saucerbullet_full_xpm[] = {
"33 33 2 1",
" 	c None",
".	c #FFFF00",
"                .                ",
"               ...               ",
"              .....              ",
"             .......             ",
"            .........            ",
"           ...........           ",
"          .............          ",
"         ...............         ",
"        .................        ",
"       ...................       ",
"      .....................      ",
"     .......................     ",
"    .........................    ",
"   ...........................   ",
"  .............................  ",
" ............................... ",
".................................",
" ............................... ",
"  .............................  ",
"   ...........................   ",
"    .........................    ",
"     .......................     ",
"      .....................      ",
"       ...................       ",
"        .................        ",
"         ...............         ",
"          .............          ",
"           ...........           ",
"            .........            ",
"             .......             ",
"              .....              ",
"               ...               ",
"                .                "};
