/* XPM */
static const char * saucer1_xpm[] = {
"61 38 2 1",
" 	c None",
".	c #FFFFFF",
"                        .............                        ",
"                       ...............                       ",
"    ......            .................            ......    ",
"   ........          ...................          ........   ",
"  ..........         ...................         ..........  ",
" ............        ...................        ............ ",
"..............       ...................       ..............",
"...............      ...................      ...............",
"................     ...................     ................",
"................     ...................     ................",
"......   .......     ...................     .......   ......",
".....    ...........................................    .....",
" ...     ...........................................     ... ",
"     ...................................................     ",
"    .....................................................    ",
"   .......................................................   ",
"  .........................................................  ",
" ........................................................... ",
".............................................................",
".............................................................",
"..........       .........         .........       ..........",
".........         .......           .......         .........",
"........           .....             .....           ........",
"........           .....             .....           ........",
"........           .....             .....           ........",
"  .......         .......           .......         .......  ",
"   .......       .........         .........       .......   ",
"    .....................................................    ",
"     ...................................................     ",
"      .................................................      ",
"       ...............................................       ",
"        .............................................        ",
"         ...........................................         ",
"          ...................   ...................          ",
"           .................     .................           ",
"            ...............       ...............            ",
"             .............         .............             ",
"              ...........           ...........              "};
