/* XPM */
static const char * smallrock3_xpm[] = {
"30 18 3 1",
" 	c None",
".	c #CD3FD0",
"+	c #000000",
"  ...     ..      ..          ",
"  ....   ....    ....    .... ",
"  ............  .....   ..... ",
"  ...................  ...... ",
" ....+....++..................",
"....+......+++................",
"...+.........++.......++......",
"...+..........+++++....++.... ",
"...+............++......++... ",
"...+.......+.............++.. ",
"...+......++..............+.. ",
".......++++.........+.........",
"......++........+++++.........",
"............. ..+.............",
" ...........  ....... ....... ",
"  .........   ......   .....  ",
"   ......      ....     ...   ",
"     ....       ..      ...   "};
