/* XPM */
static const char * smallrock4_xpm[] = {
"30 18 3 1",
" 	c None",
".	c #FFFF00",
"+	c #000000",
"     ..        ...            ",
"   ......     ...........     ",
"   .......   ...............  ",
"  ...............+........... ",
" ....++.........++...+++......",
" ...++.....+++++........++++..",
" ...+......+...............+..",
" ..++.........................",
" ..+...............+..........",
"...+...............++.........",
"....................+.........",
"..........+++++.....+.........",
"........+++...++....++....... ",
"........+......+.....++++.... ",
" .......................++... ",
"  ........................... ",
"   .......  ................  ",
"       ..          ........   "};
