/* XPM */
static const char * smallspinner_backslash_xpm[] = {
"37 37 2 1",
" 	c None",
".	c #FFFFFF",
"                                     ",
"                                     ",
"                                     ",
"     .....                           ",
"    .......                          ",
"   .........                         ",
"   ..........                        ",
"   ...........                       ",
"   ...........                       ",
"   ....................              ",
"    ...................              ",
"     ..................              ",
"      ..................             ",
"       ....................          ",
"         ......      ......          ",
"         .....        .....          ",
"         .....        .....          ",
"         .....        .....          ",
"         .....        .....          ",
"         .....        .....          ",
"         .....        .....          ",
"         ......      ......          ",
"         ....................        ",
"            ..................       ",
"             ..................      ",
"             ...................     ",
"             ....................    ",
"                      ...........    ",
"                      ...........    ",
"                       ..........    ",
"                        .........    ",
"                         .......     ",
"                          .....      ",
"                                     ",
"                                     ",
"                                     ",
"                                     "};
