/* XPM */
static const char * smallspinner_slash_xpm[] = {
"37 37 2 1",
" 	c None",
".	c #FFFFFF",
"                                     ",
"                                     ",
"                                     ",
"                          .....      ",
"                         .......     ",
"                        .........    ",
"                       ..........    ",
"                      ...........    ",
"                      ...........    ",
"             ....................    ",
"             ...................     ",
"             ..................      ",
"            ..................       ",
"         ....................        ",
"         ......      ......          ",
"         .....        .....          ",
"         .....        .....          ",
"         .....        .....          ",
"         .....        .....          ",
"         .....        .....          ",
"         .....        .....          ",
"         ......      ......          ",
"       ....................          ",
"      ..................             ",
"     ..................              ",
"    ...................              ",
"   ....................              ",
"   ...........                       ",
"   ...........                       ",
"   ..........                        ",
"   .........                         ",
"    .......                          ",
"     .....                           ",
"                                     ",
"                                     ",
"                                     ",
"                                     "};
