/* XPM */
static const char * smallrock1_xpm[] = {
"30 18 3 1",
" 	c None",
".	c #5CD17A",
"+	c #000000",
"                  ....        ",
"               ...........    ",
"         ..................   ",
" ....   ....................  ",
" ....................+++....  ",
"..........++++...+.....++...  ",
"..........+......+......+.... ",
".....++..+........+.......... ",
"......++++........+.......... ",
" .............+...++..........",
" ............++....++++.......",
" ..........++.........+++.....",
" ......+.+++..................",
" .......++....... ........... ",
"  ............     .........  ",
"   ..........      ........   ",
"    ........        ......    ",
"    .....           ....      "};
