/* XPM */
static const char * smallrock0_xpm[] = {
"30 18 3 1",
" 	c None",
".	c #FF9270",
"+	c #000000",
"           ........           ",
"          .........           ",
"        ............          ",
"    ...................       ",
"..............+++.........    ",
".........++.+++.++.........   ",
"..........+++...............  ",
"....+.........................",
" ....++..............++++.....",
"  ....++...........+++........",
"  .....++........+++..........",
"  ......++......++........... ",
"  ........++....+........     ",
"   ....................       ",
"   ..................         ",
"    ................          ",
"     ....   ......            ",
"             ....             "};
