/* XPM */
static const char * smallrock2_xpm[] = {
"30 18 3 1",
" 	c None",
".	c #A8BAD0",
"+	c #000000",
"      .......     ....        ",
".......................   ....",
"......++......................",
".....+.++......+..............",
" .......+......+++....+++.... ",
"   ..............++.....+.... ",
"  ......................+...  ",
".....++...++............+.... ",
"......+++++.............+.....",
" ..................+....++... ",
"   .................+....++.. ",
"  ..................+.......  ",
"....+++++.....+++...++......  ",
"....+...+...+++......+++..... ",
"...........++.................",
"  ............................",
"  ........ ........     ......",
"  ......    ......            "};
