/* XPM */
static const char * smallrock5_xpm[] = {
"30 18 3 1",
" 	c None",
".	c #BABA5F",
"+	c #000000",
"      ....   ..   .......     ",
"    .......................   ",
" ..........................   ",
"....................++......  ",
".....++++++++...+++++++...... ",
"............++........+...... ",
".............+........++...   ",
"...................++..+...   ",
" ....+.............+.......   ",
" ....++............++......   ",
"......+....+++++....++....... ",
"......+.+++..........++.......",
"......+++.............+.......",
" .............................",
"  ........................... ",
"   ........  ..........       ",
"   ......     ........        ",
"    ....       ..  ...        "};
