# Blender v3.6.21 OBJ File: ''
# www.blender.org
mtllib mcl_flowers_wildflower_2.mtl
v -0.500000 -0.313125 0.000000
v 0.000000 -0.313125 0.000000
v 0.000000 -0.313125 -0.500000
v -0.500000 -0.313125 -0.500000
v -0.500000 -0.313125 -0.500000
v 0.000000 -0.313125 -0.500000
v 0.000000 -0.313125 0.000000
v -0.500000 -0.313125 0.000000
v -0.500000 -0.437500 0.500000
v 0.000000 -0.437500 0.500000
v 0.000000 -0.437500 0.000000
v -0.500000 -0.437500 0.000000
v -0.500000 -0.437500 0.000000
v 0.000000 -0.437500 0.000000
v 0.000000 -0.437500 0.500000
v -0.500000 -0.437500 0.500000
vt 0.000000 0.500000
vt 0.500000 0.500000
vt 0.500000 1.000000
vt 0.000000 1.000000
vt 0.000000 1.000000
vt 0.000000 1.000000
vt 0.000000 1.000000
vt 0.000000 1.000000
vt 0.000000 0.000000
vt 0.500000 0.000000
vt 0.500000 0.500000
vt 0.000000 0.500000
vt 0.000000 0.000000
vt 0.000000 0.000000
vt 0.000000 0.000000
vt 0.000000 0.000000
vn 0.0000 1.0000 -0.0000
vn 0.0000 -1.0000 0.0000
g petal.002_petal.002_m_691332df-c1c4-05ee-8b33-9a4c87e9f976.002
usemtl m_691332df-c1c4-05ee-8b33-9a4c87e9f976.002
s 1
f 1/1/1 2/2/1 3/3/1 4/4/1
f 5/5/2 6/6/2 7/7/2 8/8/2
f 9/9/1 10/10/1 11/11/1 12/12/1
f 13/13/2 14/14/2 15/15/2 16/16/2
v -0.239254 -0.500000 0.243090
v -0.195060 -0.500000 0.198896
v -0.195060 -0.437500 0.198896
v -0.239254 -0.437500 0.243090
v -0.195060 -0.500000 0.198896
v -0.239254 -0.500000 0.243090
v -0.239254 -0.437500 0.243090
v -0.195060 -0.437500 0.198896
v -0.075736 -0.500000 -0.071316
v -0.119930 -0.500000 -0.115511
v -0.119930 -0.313125 -0.115511
v -0.075736 -0.313125 -0.071316
v -0.119930 -0.500000 -0.115511
v -0.075736 -0.500000 -0.071316
v -0.075736 -0.313125 -0.071316
v -0.119930 -0.313125 -0.115511
v -0.197270 -0.500000 -0.382885
v -0.241464 -0.500000 -0.427080
v -0.241464 -0.313125 -0.427080
v -0.197270 -0.313125 -0.382885
v -0.241464 -0.500000 -0.427080
v -0.197270 -0.500000 -0.382885
v -0.197270 -0.313125 -0.382885
v -0.241464 -0.313125 -0.427080
v -0.385095 -0.500000 -0.137608
v -0.429289 -0.500000 -0.181802
v -0.429289 -0.313125 -0.181802
v -0.385095 -0.313125 -0.137608
v -0.429289 -0.500000 -0.181802
v -0.385095 -0.500000 -0.137608
v -0.385095 -0.313125 -0.137608
v -0.429289 -0.313125 -0.181802
v -0.429289 -0.500000 -0.137608
v -0.385095 -0.500000 -0.181802
v -0.385095 -0.313125 -0.181802
v -0.429289 -0.313125 -0.137608
v -0.385095 -0.500000 -0.181802
v -0.429289 -0.500000 -0.137608
v -0.429289 -0.313125 -0.137608
v -0.385095 -0.313125 -0.181802
v -0.119930 -0.500000 -0.071316
v -0.075736 -0.500000 -0.115511
v -0.075736 -0.313125 -0.115511
v -0.119930 -0.313125 -0.071316
v -0.075736 -0.500000 -0.115511
v -0.119930 -0.500000 -0.071316
v -0.119930 -0.313125 -0.071316
v -0.075736 -0.313125 -0.115511
v -0.241464 -0.500000 -0.382885
v -0.197270 -0.500000 -0.427080
v -0.197270 -0.313125 -0.427080
v -0.241464 -0.313125 -0.382885
v -0.197270 -0.500000 -0.427080
v -0.241464 -0.500000 -0.382885
v -0.241464 -0.313125 -0.382885
v -0.197270 -0.313125 -0.427080
v -0.195060 -0.500000 0.243090
v -0.239254 -0.500000 0.198896
v -0.239254 -0.437500 0.198896
v -0.195060 -0.437500 0.243090
v -0.239254 -0.500000 0.198896
v -0.195060 -0.500000 0.243090
v -0.195060 -0.437500 0.243090
v -0.239254 -0.437500 0.198896
vt 0.000000 0.562500
vt 0.062500 0.562500
vt 0.062500 0.625000
vt 0.000000 0.625000
vt 0.000000 0.562500
vt 0.062500 0.562500
vt 0.062500 0.625000
vt 0.000000 0.625000
vt 0.000000 0.562500
vt 0.062500 0.562500
vt 0.062500 0.750000
vt 0.000000 0.750000
vt 0.000000 0.562500
vt 0.062500 0.562500
vt 0.062500 0.750000
vt 0.000000 0.750000
vt 0.000000 0.562500
vt 0.062500 0.562500
vt 0.062500 0.750000
vt 0.000000 0.750000
vt 0.000000 0.562500
vt 0.062500 0.562500
vt 0.062500 0.750000
vt 0.000000 0.750000
vt 0.000000 0.562500
vt 0.062500 0.562500
vt 0.062500 0.750000
vt 0.000000 0.750000
vt 0.000000 0.562500
vt 0.062500 0.562500
vt 0.062500 0.750000
vt 0.000000 0.750000
vt 0.000000 0.562500
vt 0.062500 0.562500
vt 0.062500 0.750000
vt 0.000000 0.750000
vt 0.000000 0.562500
vt 0.062500 0.562500
vt 0.062500 0.750000
vt 0.000000 0.750000
vt 0.000000 0.562500
vt 0.062500 0.562500
vt 0.062500 0.750000
vt 0.000000 0.750000
vt 0.000000 0.562500
vt 0.062500 0.562500
vt 0.062500 0.750000
vt 0.000000 0.750000
vt 0.000000 0.562500
vt 0.062500 0.562500
vt 0.062500 0.750000
vt 0.000000 0.750000
vt 0.000000 0.562500
vt 0.062500 0.562500
vt 0.062500 0.750000
vt 0.000000 0.750000
vt 0.000000 0.562500
vt 0.062500 0.562500
vt 0.062500 0.625000
vt 0.000000 0.625000
vt 0.000000 0.562500
vt 0.062500 0.562500
vt 0.062500 0.625000
vt 0.000000 0.625000
vn 0.7071 0.0000 0.7071
vn -0.7071 -0.0000 -0.7071
vn 0.7071 -0.0000 -0.7071
vn -0.7071 0.0000 0.7071
g stem.002_stem.002_none.002
usemtl none.002
s 1
f 17/17/3 18/18/3 19/19/3 20/20/3
f 21/21/4 22/22/4 23/23/4 24/24/4
f 25/25/5 26/26/5 27/27/5 28/28/5
f 29/29/6 30/30/6 31/31/6 32/32/6
f 33/33/5 34/34/5 35/35/5 36/36/5
f 37/37/6 38/38/6 39/39/6 40/40/6
f 41/41/5 42/42/5 43/43/5 44/44/5
f 45/45/6 46/46/6 47/47/6 48/48/6
f 49/49/3 50/50/3 51/51/3 52/52/3
f 53/53/4 54/54/4 55/55/4 56/56/4
f 57/57/3 58/58/3 59/59/3 60/60/3
f 61/61/4 62/62/4 63/63/4 64/64/4
f 65/65/3 66/66/3 67/67/3 68/68/3
f 69/69/4 70/70/4 71/71/4 72/72/4
f 73/73/5 74/74/5 75/75/5 76/76/5
f 77/77/6 78/78/6 79/79/6 80/80/6
