# Blender v3.0.1 OBJ File: 'lantern.blend'
# www.blender.org
o Lantern_Ceiling
v 0.187500 -0.000000 0.187500
v 0.187500 0.437500 0.187500
v 0.187500 0.000000 -0.187500
v 0.187500 0.437500 -0.187500
v -0.187500 -0.000000 0.187500
v -0.187500 0.437500 0.187500
v -0.187500 0.000000 -0.187500
v -0.187500 0.437500 -0.187500
v 0.125000 -0.125000 0.125000
v 0.125000 -0.000000 0.125000
v 0.125000 -0.125000 -0.125000
v 0.125000 0.000000 -0.125000
v -0.125000 -0.125000 0.125000
v -0.125000 -0.000000 0.125000
v -0.125000 -0.125000 -0.125000
v -0.125000 0.000000 -0.125000
v 0.066291 -0.500000 -0.066291
v 0.066291 -0.125000 -0.066291
v -0.066291 -0.500000 0.066291
v -0.066291 -0.125000 0.066291
v -0.066291 -0.500000 -0.066291
v -0.066291 -0.125000 -0.066291
v 0.066291 -0.500000 0.066291
v 0.066291 -0.125000 0.066291
vt 0.000000 0.062500
vt 0.375000 0.062500
vt 0.375000 0.437500
vt 0.000000 0.437500
vt 0.375000 0.437500
vt 0.375000 0.875000
vt -0.000000 0.875000
vt -0.000000 0.437500
vt 0.375000 0.437500
vt 0.375000 0.875000
vt -0.000000 0.875000
vt 0.000000 0.437500
vt 0.000000 0.062500
vt 0.375000 0.062500
vt 0.375000 0.437500
vt 0.375000 0.875000
vt -0.000000 0.875000
vt 0.000000 0.437500
vt 0.375000 0.437500
vt 0.375000 0.875000
vt -0.000000 0.875000
vt -0.000000 0.437500
vt 0.062500 0.125000
vt 0.312500 0.125000
vt 0.312500 0.375000
vt 0.062500 0.375000
vt 0.312500 0.875000
vt 0.312500 1.000000
vt 0.062500 1.000000
vt 0.062500 0.875000
vt 0.312500 0.875000
vt 0.312500 1.000000
vt 0.062500 1.000000
vt 0.062500 0.875000
vt 0.500000 0.770833
vt 0.500000 0.770833
vt 0.500000 0.770833
vt 0.500000 0.770833
vt 0.312500 0.875000
vt 0.312500 1.000000
vt 0.062500 1.000000
vt 0.062500 0.875000
vt 0.312500 0.875000
vt 0.312500 1.000000
vt 0.062500 1.000000
vt 0.062500 0.875000
vt 0.687500 0.625000
vt 0.687500 0.250000
vt 0.875000 0.250000
vt 0.875000 0.625000
vt 0.687500 1.000000
vt 0.687500 0.625000
vt 0.875000 0.625000
vt 0.875000 1.000000
vn 0.0000 -1.0000 -0.0000
vn 0.0000 0.0000 -1.0000
vn -1.0000 -0.0000 0.0000
vn 0.0000 1.0000 0.0000
vn 1.0000 0.0000 0.0000
vn 0.0000 -0.0000 1.0000
vn 0.7071 -0.0000 0.7071
vn 0.7071 0.0000 -0.7071
s off
f 1/1/1 5/2/1 7/3/1 3/4/1
f 4/5/2 3/6/2 7/7/2 8/8/2
f 8/9/3 7/10/3 5/11/3 6/12/3
f 6/13/4 2/14/4 4/5/4 8/8/4
f 2/15/5 1/16/5 3/17/5 4/18/5
f 6/19/6 5/20/6 1/21/6 2/22/6
f 9/23/1 13/24/1 15/25/1 11/26/1
f 12/27/2 11/28/2 15/29/2 16/30/2
f 16/31/3 15/32/3 13/33/3 14/34/3
f 14/35/4 10/36/4 12/37/4 16/38/4
f 10/39/5 9/40/5 11/41/5 12/42/5
f 14/43/6 13/44/6 9/45/6 10/46/6
f 17/47/7 18/48/7 20/49/7 19/50/7
f 21/51/8 22/52/8 24/53/8 23/54/8
